<svg width="1571" height="181" viewBox="0 0 1571 181" fill="none" xmlns="http://www.w3.org/2000/svg">
<mask id="path-1-inside-1" fill="white">
<path d="M99.28 111.119C96.0729 108.447 92.0442 106.758 87.9093 106.349C83.7757 105.941 79.5015 106.798 75.9479 108.8C74.5849 99.9068 69.5664 90.9036 61.1797 87.1907C55.249 84.5651 48.6314 84.4186 42.2172 84.7927C45.9753 78.5904 49.4374 71.9211 49.9006 64.6401C50.3634 57.3573 47.2325 48.9021 40.5714 45.4862C51.8304 39.1167 58.6082 27.0873 59.0475 14.1717C69.8188 32.0132 82.3293 49.1169 96.2912 64.7121C90.7298 73.579 91.262 85.879 97.581 94.5669C100.742 98.9131 105.37 103.042 108.934 107.079C105.966 109.13 105.37 111.654 102 113"/>
</mask>
<path d="M99.28 111.119C96.0729 108.447 92.0442 106.758 87.9093 106.349C83.7757 105.941 79.5015 106.798 75.9479 108.8C74.5849 99.9068 69.5664 90.9036 61.1797 87.1907C55.249 84.5651 48.6314 84.4186 42.2172 84.7927C45.9753 78.5904 49.4374 71.9211 49.9006 64.6401C50.3634 57.3573 47.2325 48.9021 40.5714 45.4862C51.8304 39.1167 58.6082 27.0873 59.0475 14.1717C69.8188 32.0132 82.3293 49.1169 96.2912 64.7121C90.7298 73.579 91.262 85.879 97.581 94.5669C100.742 98.9131 105.37 103.042 108.934 107.079C105.966 109.13 105.37 111.654 102 113" fill="black"/>
<path d="M87.9093 106.349L87.9225 106.217L87.9225 106.217L87.9093 106.349ZM75.9479 108.8L76.0134 108.916L75.8454 109.011L75.8161 108.82L75.9479 108.8ZM61.1797 87.1907L61.1258 87.3126L61.1258 87.3126L61.1797 87.1907ZM42.2172 84.7927L42.2249 84.9258L41.9717 84.9406L42.1031 84.7236L42.2172 84.7927ZM49.9006 64.6401L50.0337 64.6486L50.0337 64.6486L49.9006 64.6401ZM40.5714 45.4862L40.5106 45.6049L40.2904 45.492L40.5057 45.3702L40.5714 45.4862ZM59.0475 14.1717L58.9143 14.1672L58.9295 13.7183L59.1617 14.1028L59.0475 14.1717ZM96.2912 64.7121L96.3905 64.6232L96.4575 64.6979L96.4042 64.7829L96.2912 64.7121ZM97.581 94.5669L97.6888 94.4885L97.6888 94.4885L97.581 94.5669ZM108.934 107.079L109.034 106.991L109.133 107.104L109.01 107.189L108.934 107.079ZM99.1947 111.221C96.008 108.566 92.0044 106.888 87.8962 106.482L87.9225 106.217C92.084 106.628 96.1378 108.327 99.3654 111.016L99.1947 111.221ZM87.8962 106.482C83.7887 106.076 79.5421 106.928 76.0134 108.916L75.8825 108.684C79.461 106.667 83.7627 105.805 87.9225 106.217L87.8962 106.482ZM75.8161 108.82C74.4574 99.955 69.4573 91.0011 61.1258 87.3126L61.2337 87.0688C69.6756 90.8061 74.7124 99.8587 76.0797 108.779L75.8161 108.82ZM61.1258 87.3126C55.2256 84.7005 48.635 84.5519 42.2249 84.9258L42.2094 84.6596C48.6278 84.2852 55.2724 84.4296 61.2337 87.0688L61.1258 87.3126ZM42.1031 84.7236C45.8601 78.5231 49.3065 71.8778 49.7676 64.6316L50.0337 64.6486C49.5682 71.9643 46.0904 78.6577 42.3312 84.8618L42.1031 84.7236ZM49.7676 64.6316C50.2283 57.3807 47.1082 48.9882 40.5106 45.6049L40.6322 45.3676C47.3569 48.816 50.4984 57.3338 50.0337 64.6486L49.7676 64.6316ZM40.5057 45.3702C51.7213 39.0252 58.4764 27.04 58.9143 14.1672L59.1808 14.1763C58.74 27.1346 51.9395 39.2081 40.637 45.6023L40.5057 45.3702ZM59.1617 14.1028C69.9289 31.9375 82.4345 49.0345 96.3905 64.6232L96.1919 64.801C82.2241 49.1994 69.7087 32.0888 58.9334 14.2407L59.1617 14.1028ZM96.4042 64.7829C90.8727 73.6021 91.4007 85.8431 97.6888 94.4885L97.4731 94.6453C91.1232 85.9149 90.5869 73.5559 96.1783 64.6413L96.4042 64.7829ZM97.6888 94.4885C99.2634 96.6538 101.205 98.7671 103.202 100.847C105.197 102.924 107.249 104.97 109.034 106.991L108.834 107.167C107.054 105.152 105.011 103.115 103.01 101.031C101.012 98.9506 99.0591 96.8262 97.4731 94.6453L97.6888 94.4885ZM109.01 107.189C107.542 108.203 106.664 109.331 105.717 110.393C104.771 111.454 103.762 112.44 102.049 113.124L101.951 112.876C103.607 112.214 104.583 111.265 105.518 110.215C106.454 109.166 107.358 108.006 108.858 106.97L109.01 107.189Z" fill="black" mask="url(#path-1-inside-1)"/>
<path d="M127.041 110.034C127.916 110.94 128.837 111.756 130.488 112.423C132.099 111.089 134.636 109.676 137.284 108.545C139.949 107.406 142.734 106.549 144.811 106.345C148.927 105.939 153.182 106.784 156.732 108.764C158.115 99.8813 163.135 90.8986 171.519 87.1883C177.426 84.5737 184.011 84.416 190.392 84.7827C186.653 78.6047 183.217 71.951 182.751 64.6897L182.818 64.6854L182.751 64.6897C182.286 57.4246 185.384 48.9848 192.001 45.5176C180.844 39.1462 174.102 27.2187 173.587 14.3973C162.853 32.1684 150.397 49.2036 136.498 64.7425C142.051 73.6405 141.515 85.9537 135.192 94.6538C133.609 96.8319 131.66 98.9541 129.662 101.035C129.132 101.587 128.599 102.136 128.069 102.683C126.617 104.179 125.183 105.655 123.888 107.119C125.083 107.956 125.857 108.779 126.578 109.546C126.734 109.711 126.887 109.874 127.041 110.034Z" fill="black" stroke="black" stroke-width="0.133333"/>
<mask id="path-4-inside-2" fill="white">
<path d="M109.703 88.9067C108.823 83.896 108.796 78.6534 109.688 73.6494C106.549 77.14 104.472 82.164 103.976 87.4614C103.72 90.184 103.869 92.9414 103.708 95.676C103.651 96.676 103.547 97.672 103.407 98.6574C102.787 99.4454 102.379 100.064 102.28 100.389C102.035 101.199 101.195 104.033 100.487 107.177C100.487 116.697 107.201 120.477 108.804 122.039C111.531 124.701 114.417 126.655 115.915 130.107V95.9334V88.8294V87.064C113.764 86.9187 111.585 87.564 109.703 88.9067"/>
</mask>
<path d="M109.703 88.9067C108.823 83.896 108.796 78.6534 109.688 73.6494C106.549 77.14 104.472 82.164 103.976 87.4614C103.72 90.184 103.869 92.9414 103.708 95.676C103.651 96.676 103.547 97.672 103.407 98.6574C102.787 99.4454 102.379 100.064 102.28 100.389C102.035 101.199 101.195 104.033 100.487 107.177C100.487 116.697 107.201 120.477 108.804 122.039C111.531 124.701 114.417 126.655 115.915 130.107V95.9334V88.8294V87.064C113.764 86.9187 111.585 87.564 109.703 88.9067" fill="black"/>
<path d="M109.688 73.6494L109.589 73.5602L109.901 73.2128L109.819 73.6728L109.688 73.6494ZM103.976 87.4614L104.109 87.4738L104.109 87.4738L103.976 87.4614ZM103.708 95.676L103.575 95.6684L103.575 95.6682L103.708 95.676ZM103.407 98.6574L103.539 98.6761L103.534 98.7116L103.511 98.7398L103.407 98.6574ZM102.28 100.389L102.152 100.351L102.152 100.351L102.28 100.389ZM100.487 107.177H100.353V107.163L100.357 107.148L100.487 107.177ZM108.804 122.039L108.897 121.943L108.897 121.943L108.804 122.039ZM115.915 130.107H116.048L115.792 130.16L115.915 130.107ZM115.915 87.064L115.924 86.931L116.048 86.9394V87.064H115.915ZM109.571 88.9298C108.689 83.9043 108.662 78.6459 109.557 73.626L109.819 73.6728C108.93 78.6608 108.957 83.8877 109.834 88.8836L109.571 88.9298ZM109.787 73.7385C106.67 77.2051 104.602 82.201 104.109 87.4738L103.843 87.4489C104.342 82.1271 106.429 77.075 109.589 73.5602L109.787 73.7385ZM104.109 87.4738C103.981 88.8292 103.955 90.1943 103.94 91.5656C103.925 92.9354 103.922 94.3125 103.841 95.6839L103.575 95.6682C103.655 94.3049 103.658 92.936 103.673 91.5628C103.688 90.1911 103.715 88.8162 103.843 87.4489L104.109 87.4738ZM103.841 95.6837C103.784 96.6878 103.679 97.6875 103.539 98.6761L103.275 98.6386C103.414 97.6565 103.518 96.6643 103.575 95.6684L103.841 95.6837ZM103.511 98.7398C103.203 99.132 102.948 99.4803 102.759 99.7697C102.568 100.062 102.451 100.285 102.408 100.428L102.152 100.351C102.208 100.168 102.344 99.9189 102.536 99.624C102.731 99.3257 102.99 98.9707 103.302 98.5749L103.511 98.7398ZM102.408 100.428C102.163 101.236 101.324 104.067 100.617 107.207L100.357 107.148C101.066 104 101.907 101.161 102.152 100.351L102.408 100.428ZM100.62 107.177C100.62 116.626 107.269 120.357 108.897 121.943L108.711 122.134C107.133 120.597 100.353 116.769 100.353 107.177H100.62ZM108.897 121.943C109.577 122.607 110.266 123.226 110.944 123.838C111.621 124.45 112.287 125.053 112.915 125.683C114.171 126.942 115.279 128.307 116.037 130.054L115.792 130.16C115.053 128.455 113.969 127.117 112.726 125.871C112.104 125.247 111.443 124.648 110.765 124.036C110.089 123.425 109.395 122.802 108.711 122.134L108.897 121.943ZM115.781 130.107V95.9334H116.048V130.107H115.781ZM115.781 95.9334V88.8294H116.048V95.9334H115.781ZM115.781 88.8294V87.064H116.048V88.8294H115.781ZM115.906 87.1971C113.788 87.054 111.64 87.6891 109.78 89.0152L109.625 88.7981C111.531 87.4389 113.74 86.7834 115.924 86.931L115.906 87.1971Z" fill="black" mask="url(#path-4-inside-2)"/>
<mask id="path-6-inside-3" fill="white">
<path d="M122.125 88.9067C123.005 83.896 123.035 78.6534 122.141 73.6494C125.279 77.14 127.357 82.164 127.853 87.4614C128.108 90.184 127.96 92.9414 128.12 95.676C128.179 96.676 128.281 97.672 128.423 98.6574C129.041 99.4454 129.449 100.064 129.548 100.389C129.795 101.199 130.635 104.033 131.341 107.177C131.341 116.697 124.628 120.477 123.025 122.039C120.299 124.701 117.412 126.655 115.915 130.107V95.9334V88.8294V87.064C118.064 86.9187 120.243 87.564 122.125 88.9067"/>
</mask>
<path d="M122.125 88.9067C123.005 83.896 123.035 78.6534 122.141 73.6494C125.279 77.14 127.357 82.164 127.853 87.4614C128.108 90.184 127.96 92.9414 128.12 95.676C128.179 96.676 128.281 97.672 128.423 98.6574C129.041 99.4454 129.449 100.064 129.548 100.389C129.795 101.199 130.635 104.033 131.341 107.177C131.341 116.697 124.628 120.477 123.025 122.039C120.299 124.701 117.412 126.655 115.915 130.107V95.9334V88.8294V87.064C118.064 86.9187 120.243 87.564 122.125 88.9067" fill="black"/>
<path d="M122.141 73.6494L122.01 73.6728L121.928 73.2124L122.24 73.5602L122.141 73.6494ZM127.853 87.4614L127.986 87.4489L127.986 87.4489L127.853 87.4614ZM128.12 95.676L127.987 95.6838L127.987 95.6838L128.12 95.676ZM128.423 98.6574L128.318 98.7397L128.296 98.7116L128.291 98.6763L128.423 98.6574ZM129.548 100.389L129.42 100.428L129.42 100.428L129.548 100.389ZM131.341 107.177L131.471 107.148L131.475 107.163V107.177H131.341ZM123.025 122.039L122.932 121.943L122.932 121.943L123.025 122.039ZM115.915 130.107L116.037 130.16L115.781 130.107H115.915ZM115.915 87.064H115.781V86.9394L115.906 86.931L115.915 87.064ZM121.994 88.8836C122.871 83.8877 122.901 78.6608 122.01 73.6728L122.273 73.6259C123.169 78.6459 123.139 83.9044 122.257 88.9298L121.994 88.8836ZM122.24 73.5602C125.399 77.075 127.488 82.127 127.986 87.4489L127.721 87.4738C127.227 82.201 125.158 77.2051 122.042 73.7385L122.24 73.5602ZM127.986 87.4489C128.114 88.8162 128.141 90.1911 128.156 91.5628C128.17 92.936 128.173 94.3049 128.253 95.6682L127.987 95.6838C127.907 94.3125 127.904 92.9354 127.889 91.5656C127.874 90.1943 127.847 88.8291 127.721 87.4738L127.986 87.4489ZM128.253 95.6682C128.312 96.6643 128.414 97.6566 128.555 98.6384L128.291 98.6763C128.149 97.6874 128.046 96.6877 127.987 95.6838L128.253 95.6682ZM128.528 98.575C128.838 98.9708 129.098 99.3258 129.292 99.624C129.484 99.919 129.62 100.169 129.676 100.351L129.42 100.428C129.377 100.285 129.26 100.062 129.069 99.7697C128.88 99.4802 128.626 99.1319 128.318 98.7397L128.528 98.575ZM129.676 100.35C129.923 101.161 130.764 104 131.471 107.148L131.211 107.207C130.506 104.067 129.667 101.236 129.42 100.428L129.676 100.35ZM131.475 107.177C131.475 116.769 124.696 120.597 123.118 122.134L122.932 121.943C124.56 120.357 131.208 116.626 131.208 107.177H131.475ZM123.119 122.134C122.435 122.802 121.741 123.425 121.064 124.036C120.386 124.648 119.725 125.247 119.103 125.871C117.86 127.117 116.777 128.455 116.037 130.16L115.792 130.054C116.55 128.307 117.659 126.942 118.915 125.683C119.542 125.053 120.208 124.45 120.885 123.838C121.563 123.226 122.253 122.607 122.932 121.943L123.119 122.134ZM115.781 130.107V95.9334H116.048V130.107H115.781ZM115.781 95.9334V88.8294H116.048V95.9334H115.781ZM115.781 88.8294V87.064H116.048V88.8294H115.781ZM115.906 86.931C118.088 86.7834 120.297 87.4389 122.203 88.7981L122.048 89.0152C120.188 87.6891 118.04 87.054 115.924 87.1971L115.906 86.931Z" fill="black" mask="url(#path-6-inside-3)"/>
<mask id="path-8-inside-4" fill="white">
<path d="M308.802 107.051C305.565 104.775 301.617 103.53 297.66 103.533C293.704 103.536 289.705 104.777 286.472 107.056C284.542 98.5839 279.132 90.3573 270.9 87.5735C265.079 85.6048 258.782 86.1007 252.715 87.0807C255.842 80.7182 258.655 73.9325 258.575 66.844C258.495 59.7537 254.917 51.8755 248.346 49.2127C258.586 41.9657 264.166 29.6749 263.661 17.1376C275.167 33.3602 288.273 48.7016 302.65 62.4436C298 71.5577 299.383 83.4059 306.007 91.202C309.319 95.1021 314.011 98.6508 317.685 102.213C315.012 104.483 317.105 107.873 314 109.5"/>
</mask>
<path d="M308.802 107.051C305.565 104.775 301.617 103.53 297.66 103.533C293.704 103.536 289.705 104.777 286.472 107.056C284.542 98.5839 279.132 90.3573 270.9 87.5735C265.079 85.6048 258.782 86.1007 252.715 87.0807C255.842 80.7182 258.655 73.9325 258.575 66.844C258.495 59.7537 254.917 51.8755 248.346 49.2127C258.586 41.9657 264.166 29.6749 263.661 17.1376C275.167 33.3602 288.273 48.7016 302.65 62.4436C298 71.5577 299.383 83.4059 306.007 91.202C309.319 95.1021 314.011 98.6508 317.685 102.213C315.012 104.483 317.105 107.873 314 109.5" fill="black"/>
<path d="M297.66 103.533L297.66 103.399L297.66 103.399L297.66 103.533ZM286.472 107.056L286.549 107.165L286.386 107.279L286.342 107.085L286.472 107.056ZM270.9 87.5735L270.857 87.6998L270.857 87.6998L270.9 87.5735ZM252.715 87.0807L252.737 87.2123L252.482 87.2535L252.596 87.0219L252.715 87.0807ZM258.575 66.844L258.709 66.8424L258.709 66.8425L258.575 66.844ZM248.346 49.2127L248.295 49.3363L248.069 49.2447L248.269 49.1039L248.346 49.2127ZM263.661 17.1376L263.528 17.143L263.51 16.6938L263.77 17.0605L263.661 17.1376ZM302.65 62.4436L302.742 62.3473L302.814 62.4158L302.769 62.5042L302.65 62.4436ZM306.007 91.202L306.108 91.1157L306.108 91.1157L306.007 91.202ZM317.685 102.213L317.777 102.117L317.883 102.22L317.771 102.315L317.685 102.213ZM308.726 107.16C305.511 104.9 301.59 103.663 297.66 103.666L297.66 103.399C301.645 103.397 305.619 104.65 308.879 106.942L308.726 107.16ZM297.66 103.666C293.731 103.669 289.759 104.902 286.549 107.165L286.395 106.947C289.651 104.651 293.677 103.402 297.66 103.399L297.66 103.666ZM286.342 107.085C284.419 98.6403 279.03 90.4636 270.857 87.6998L270.943 87.4472C279.234 90.2511 284.666 98.5274 286.602 107.026L286.342 107.085ZM270.857 87.6998C265.069 85.7421 258.799 86.233 252.737 87.2123L252.694 86.9491C258.764 85.9684 265.089 85.4675 270.943 87.4472L270.857 87.6998ZM252.596 87.0219C255.722 80.6611 258.521 73.9 258.442 66.8455L258.709 66.8425C258.789 73.9649 255.963 80.7753 252.835 87.1395L252.596 87.0219ZM258.442 66.8455C258.362 59.7854 254.799 51.9713 248.295 49.3363L248.396 49.0891C255.036 51.7797 258.628 59.7219 258.709 66.8424L258.442 66.8455ZM248.269 49.1039C258.47 41.8849 264.031 29.6387 263.528 17.143L263.795 17.1323C264.301 29.7112 258.703 42.0465 248.423 49.3215L248.269 49.1039ZM263.77 17.0605C275.272 33.2766 288.372 48.6114 302.742 62.3473L302.558 62.54C288.175 48.7918 275.063 33.4439 263.553 17.2148L263.77 17.0605ZM302.769 62.5042C298.143 71.5703 299.52 83.3606 306.108 91.1157L305.905 91.2883C299.247 83.4512 297.856 71.545 302.531 62.383L302.769 62.5042ZM306.108 91.1157C307.758 93.0582 309.753 94.9153 311.799 96.7346C313.842 98.5517 315.938 100.334 317.777 102.117L317.592 102.309C315.758 100.53 313.671 98.7566 311.622 96.9339C309.575 95.1133 307.568 93.2459 305.905 91.2883L306.108 91.1157ZM317.771 102.315C316.479 103.412 316.337 104.774 316.136 106.117C316.037 106.784 315.922 107.45 315.63 108.052C315.335 108.66 314.863 109.198 314.062 109.618L313.938 109.382C314.689 108.988 315.12 108.492 315.39 107.936C315.662 107.375 315.773 106.746 315.873 106.078C316.07 104.752 316.218 103.284 317.598 102.111L317.771 102.315Z" fill="black" mask="url(#path-8-inside-4)"/>
<mask id="path-10-inside-5" fill="white">
<path d="M346.819 107.05C350.055 104.775 354.004 103.529 357.96 103.532C361.917 103.535 365.916 104.776 369.148 107.056C371.078 98.5837 376.489 90.3566 384.72 87.5733C390.541 85.6046 396.838 86.1006 402.907 87.0794C399.778 80.7181 396.966 73.9318 397.045 66.8438C397.125 59.7535 400.704 51.8748 407.275 49.2126C397.035 41.965 391.455 29.6742 391.959 17.1375C380.453 33.3601 367.348 48.7009 352.972 62.443C357.621 71.5575 356.238 83.4052 349.614 91.2019C346.301 95.102 341.61 98.6501 337.937 102.212C340.608 104.483 338.395 107.873 341.5 109.5"/>
</mask>
<path d="M346.819 107.05C350.055 104.775 354.004 103.529 357.96 103.532C361.917 103.535 365.916 104.776 369.148 107.056C371.078 98.5837 376.489 90.3566 384.72 87.5733C390.541 85.6046 396.838 86.1006 402.907 87.0794C399.778 80.7181 396.966 73.9318 397.045 66.8438C397.125 59.7535 400.704 51.8748 407.275 49.2126C397.035 41.965 391.455 29.6742 391.959 17.1375C380.453 33.3601 367.348 48.7009 352.972 62.443C357.621 71.5575 356.238 83.4052 349.614 91.2019C346.301 95.102 341.61 98.6501 337.937 102.212C340.608 104.483 338.395 107.873 341.5 109.5" fill="black"/>
<path d="M357.96 103.532L357.96 103.666L357.96 103.666L357.96 103.532ZM369.148 107.056L369.278 107.085L369.234 107.279L369.071 107.165L369.148 107.056ZM384.72 87.5733L384.763 87.6996L384.763 87.6996L384.72 87.5733ZM402.907 87.0794L403.027 87.0206L403.141 87.2522L402.886 87.2111L402.907 87.0794ZM397.045 66.8438L396.911 66.8423L396.911 66.8423L397.045 66.8438ZM407.275 49.2126L407.352 49.1038L407.551 49.2446L407.325 49.3362L407.275 49.2126ZM391.959 17.1375L391.85 17.0603L392.11 16.6937L392.092 17.1428L391.959 17.1375ZM352.972 62.443L352.853 62.5035L352.808 62.4151L352.879 62.3466L352.972 62.443ZM349.614 91.2019L349.512 91.1156L349.512 91.1156L349.614 91.2019ZM337.937 102.212L337.851 102.314L337.739 102.219L337.844 102.117L337.937 102.212ZM346.742 106.941C350.001 104.65 353.977 103.396 357.96 103.399L357.96 103.666C354.032 103.663 350.109 104.9 346.896 107.16L346.742 106.941ZM357.96 103.399C361.944 103.402 365.97 104.651 369.225 106.947L369.071 107.165C365.863 104.901 361.89 103.668 357.96 103.666L357.96 103.399ZM369.018 107.026C370.954 98.5273 376.387 90.2504 384.677 87.447L384.763 87.6996C376.591 90.4629 371.202 98.6402 369.278 107.085L369.018 107.026ZM384.677 87.447C390.531 85.4673 396.856 85.9683 402.929 86.9478L402.886 87.2111C396.821 86.2328 390.552 85.742 384.763 87.6996L384.677 87.447ZM402.788 87.1383C399.657 80.7752 396.833 73.9642 396.911 66.8423L397.178 66.8453C397.1 73.8993 399.898 80.661 403.027 87.0206L402.788 87.1383ZM396.911 66.8423C396.992 59.7218 400.586 51.779 407.225 49.089L407.325 49.3362C400.823 51.9707 397.258 59.7853 397.178 66.8453L396.911 66.8423ZM407.198 49.3214C396.918 42.0458 391.32 29.7105 391.826 17.1321L392.092 17.1428C391.59 29.638 397.152 41.8843 407.352 49.1038L407.198 49.3214ZM392.068 17.2146C380.557 33.4437 367.447 48.7911 353.064 62.5393L352.879 62.3466C367.25 48.6107 380.349 33.2764 391.85 17.0603L392.068 17.2146ZM353.09 62.3824C357.764 71.5449 356.374 83.4505 349.715 91.2882L349.512 91.1156C356.102 83.3599 357.477 71.5702 352.853 62.5035L353.09 62.3824ZM349.715 91.2882C348.053 93.2458 346.046 95.113 343.999 96.9334C341.95 98.7561 339.864 100.53 338.03 102.308L337.844 102.117C339.684 100.333 341.779 98.5512 343.822 96.7342C345.867 94.915 347.862 93.0581 349.512 91.1156L349.715 91.2882ZM338.023 102.111C339.404 103.285 339.52 104.755 339.688 106.081C339.772 106.749 339.869 107.377 340.13 107.938C340.388 108.493 340.811 108.989 341.562 109.382L341.438 109.618C340.636 109.198 340.171 108.659 339.888 108.051C339.607 107.447 339.508 106.781 339.423 106.114C339.254 104.771 339.141 103.411 337.851 102.314L338.023 102.111Z" fill="black" mask="url(#path-10-inside-5)"/>
<mask id="path-12-inside-6" fill="white">
<path d="M321.703 86.9067C320.823 81.896 320.796 76.6534 321.688 71.6494C318.549 75.14 316.472 80.164 315.976 85.4614C315.72 88.184 315.869 90.9414 315.708 93.676C315.651 94.676 315.547 95.672 315.407 96.6574C314.787 97.4454 314.379 98.064 314.28 98.3894C314.035 99.1987 313.195 102.033 312.487 105.177C312.487 114.697 319.201 118.477 320.804 120.039C323.531 122.701 326.417 124.655 327.915 128.107V93.9334V86.8294V85.064C325.764 84.9187 323.585 85.564 321.703 86.9067"/>
</mask>
<path d="M321.703 86.9067C320.823 81.896 320.796 76.6534 321.688 71.6494C318.549 75.14 316.472 80.164 315.976 85.4614C315.72 88.184 315.869 90.9414 315.708 93.676C315.651 94.676 315.547 95.672 315.407 96.6574C314.787 97.4454 314.379 98.064 314.28 98.3894C314.035 99.1987 313.195 102.033 312.487 105.177C312.487 114.697 319.201 118.477 320.804 120.039C323.531 122.701 326.417 124.655 327.915 128.107V93.9334V86.8294V85.064C325.764 84.9187 323.585 85.564 321.703 86.9067" fill="black"/>
<path d="M321.688 71.6494L321.589 71.5602L321.901 71.2128L321.819 71.6728L321.688 71.6494ZM315.976 85.4614L316.109 85.4738L316.109 85.4738L315.976 85.4614ZM315.708 93.676L315.575 93.6684L315.575 93.6682L315.708 93.676ZM315.407 96.6574L315.539 96.6761L315.534 96.7116L315.511 96.7398L315.407 96.6574ZM314.28 98.3894L314.152 98.3507L314.152 98.3507L314.28 98.3894ZM312.487 105.177H312.353V105.163L312.357 105.148L312.487 105.177ZM320.804 120.039L320.897 119.943L320.897 119.943L320.804 120.039ZM327.915 128.107H328.048L327.792 128.16L327.915 128.107ZM327.915 85.064L327.924 84.931L328.048 84.9394V85.064H327.915ZM321.571 86.9298C320.689 81.9043 320.662 76.6459 321.557 71.626L321.819 71.6728C320.93 76.6608 320.957 81.8877 321.834 86.8836L321.571 86.9298ZM321.787 71.7385C318.67 75.2051 316.602 80.201 316.109 85.4738L315.843 85.4489C316.342 80.1271 318.429 75.075 321.589 71.5602L321.787 71.7385ZM316.109 85.4738C315.981 86.8292 315.955 88.1943 315.94 89.5656C315.925 90.9354 315.922 92.3125 315.841 93.6839L315.575 93.6682C315.655 92.3049 315.658 90.936 315.673 89.5628C315.688 88.1911 315.715 86.8162 315.843 85.4489L316.109 85.4738ZM315.841 93.6837C315.784 94.6878 315.679 95.6875 315.539 96.6761L315.275 96.6386C315.414 95.6565 315.518 94.6643 315.575 93.6684L315.841 93.6837ZM315.511 96.7398C315.203 97.132 314.948 97.4803 314.759 97.7697C314.568 98.0624 314.451 98.2849 314.408 98.4281L314.152 98.3507C314.208 98.1685 314.344 97.9189 314.536 97.624C314.731 97.3257 314.99 96.9707 315.302 96.5749L315.511 96.7398ZM314.408 98.428C314.163 99.236 313.324 102.067 312.617 105.207L312.357 105.148C313.066 102 313.907 99.1613 314.152 98.3507L314.408 98.428ZM312.62 105.177C312.62 114.626 319.269 118.357 320.897 119.943L320.711 120.134C319.133 118.597 312.353 114.769 312.353 105.177H312.62ZM320.897 119.943C321.577 120.607 322.266 121.226 322.944 121.838C323.621 122.45 324.287 123.053 324.915 123.683C326.171 124.942 327.279 126.307 328.037 128.054L327.792 128.16C327.053 126.455 325.969 125.117 324.726 123.871C324.104 123.247 323.443 122.648 322.765 122.036C322.089 121.425 321.395 120.802 320.711 120.134L320.897 119.943ZM327.781 128.107V93.9334H328.048V128.107H327.781ZM327.781 93.9334V86.8294H328.048V93.9334H327.781ZM327.781 86.8294V85.064H328.048V86.8294H327.781ZM327.906 85.1971C325.788 85.054 323.64 85.6891 321.78 87.0152L321.625 86.7981C323.531 85.4389 325.74 84.7834 327.924 84.931L327.906 85.1971Z" fill="black" mask="url(#path-12-inside-6)"/>
<mask id="path-14-inside-7" fill="white">
<path d="M334.125 86.9067C335.005 81.896 335.035 76.6534 334.141 71.6494C337.279 75.14 339.357 80.164 339.853 85.4614C340.108 88.184 339.96 90.9414 340.12 93.676C340.179 94.676 340.281 95.672 340.423 96.6574C341.041 97.4454 341.449 98.064 341.548 98.3894C341.795 99.1987 342.635 102.033 343.341 105.177C343.341 114.697 336.628 118.477 335.025 120.039C332.299 122.701 329.412 124.655 327.915 128.107V93.9334V86.8294V85.064C330.064 84.9187 332.243 85.564 334.125 86.9067"/>
</mask>
<path d="M334.125 86.9067C335.005 81.896 335.035 76.6534 334.141 71.6494C337.279 75.14 339.357 80.164 339.853 85.4614C340.108 88.184 339.96 90.9414 340.12 93.676C340.179 94.676 340.281 95.672 340.423 96.6574C341.041 97.4454 341.449 98.064 341.548 98.3894C341.795 99.1987 342.635 102.033 343.341 105.177C343.341 114.697 336.628 118.477 335.025 120.039C332.299 122.701 329.412 124.655 327.915 128.107V93.9334V86.8294V85.064C330.064 84.9187 332.243 85.564 334.125 86.9067" fill="black"/>
<path d="M334.141 71.6494L334.01 71.6728L333.928 71.2124L334.24 71.5602L334.141 71.6494ZM339.853 85.4614L339.986 85.4489L339.986 85.4489L339.853 85.4614ZM340.12 93.676L339.987 93.6838L339.987 93.6838L340.12 93.676ZM340.423 96.6574L340.318 96.7397L340.296 96.7116L340.291 96.6763L340.423 96.6574ZM341.548 98.3894L341.42 98.4282L341.42 98.4281L341.548 98.3894ZM343.341 105.177L343.471 105.148L343.475 105.163V105.177H343.341ZM335.025 120.039L334.932 119.943L334.932 119.943L335.025 120.039ZM327.915 128.107L328.037 128.16L327.781 128.107H327.915ZM327.915 85.064H327.781V84.9394L327.906 84.931L327.915 85.064ZM333.994 86.8836C334.871 81.8877 334.901 76.6608 334.01 71.6728L334.273 71.6259C335.169 76.6459 335.139 81.9044 334.257 86.9298L333.994 86.8836ZM334.24 71.5602C337.399 75.075 339.488 80.127 339.986 85.4489L339.721 85.4738C339.227 80.201 337.158 75.2051 334.042 71.7385L334.24 71.5602ZM339.986 85.4489C340.114 86.8162 340.141 88.1911 340.156 89.5628C340.17 90.936 340.173 92.3049 340.253 93.6682L339.987 93.6838C339.907 92.3125 339.904 90.9354 339.889 89.5656C339.874 88.1943 339.847 86.8291 339.721 85.4738L339.986 85.4489ZM340.253 93.6682C340.312 94.6643 340.414 95.6566 340.555 96.6384L340.291 96.6763C340.149 95.6874 340.046 94.6877 339.987 93.6838L340.253 93.6682ZM340.528 96.575C340.838 96.9708 341.098 97.3258 341.292 97.624C341.484 97.919 341.62 98.1685 341.676 98.3507L341.42 98.4281C341.377 98.2849 341.26 98.0624 341.069 97.7697C340.88 97.4802 340.626 97.1319 340.318 96.7397L340.528 96.575ZM341.676 98.3505C341.923 99.1614 342.764 102 343.471 105.148L343.211 105.207C342.506 102.067 341.667 99.236 341.42 98.4282L341.676 98.3505ZM343.475 105.177C343.475 114.769 336.696 118.597 335.118 120.134L334.932 119.943C336.56 118.357 343.208 114.626 343.208 105.177H343.475ZM335.119 120.134C334.435 120.802 333.741 121.425 333.064 122.036C332.386 122.648 331.725 123.247 331.103 123.871C329.86 125.117 328.777 126.455 328.037 128.16L327.792 128.054C328.55 126.307 329.659 124.942 330.915 123.683C331.542 123.053 332.208 122.45 332.885 121.838C333.563 121.226 334.253 120.607 334.932 119.943L335.119 120.134ZM327.781 128.107V93.9334H328.048V128.107H327.781ZM327.781 93.9334V86.8294H328.048V93.9334H327.781ZM327.781 86.8294V85.064H328.048V86.8294H327.781ZM327.906 84.931C330.088 84.7834 332.297 85.4389 334.203 86.7981L334.048 87.0152C332.188 85.6891 330.04 85.054 327.924 85.1971L327.906 84.931Z" fill="black" mask="url(#path-14-inside-7)"/>
<mask id="path-16-inside-8" fill="white">
<path d="M543.236 107.412C539.34 106.717 535.236 107.257 531.651 108.932C528.067 110.607 524.967 113.421 523 116.853C517.671 109.991 509.291 104.821 500.653 105.777C494.545 106.453 489.048 109.564 483.964 113.016C484.109 105.928 483.791 98.5893 480.723 92.1986C477.653 85.8066 471.081 80.1786 464 80.5426C470.219 69.6466 470.081 56.1493 464.325 44.9999C481.609 54.8399 499.971 63.2053 518.808 69.5839C518.445 79.8093 524.707 89.9626 534.004 94.2293C538.655 96.3639 544.407 97.5973 549.241 99.2733C547.779 102.46 545.363 104.625 543.236 107.412"/>
</mask>
<path d="M543.236 107.412C539.34 106.717 535.236 107.257 531.651 108.932C528.067 110.607 524.967 113.421 523 116.853C517.671 109.991 509.291 104.821 500.653 105.777C494.545 106.453 489.048 109.564 483.964 113.016C484.109 105.928 483.791 98.5893 480.723 92.1986C477.653 85.8066 471.081 80.1786 464 80.5426C470.219 69.6466 470.081 56.1493 464.325 44.9999C481.609 54.8399 499.971 63.2053 518.808 69.5839C518.445 79.8093 524.707 89.9626 534.004 94.2293C538.655 96.3639 544.407 97.5973 549.241 99.2733C547.779 102.46 545.363 104.625 543.236 107.412" fill="black"/>
<path d="M531.651 108.932L531.594 108.811L531.594 108.811L531.651 108.932ZM523 116.853L523.116 116.92L523.017 117.092L522.895 116.935L523 116.853ZM500.653 105.777L500.668 105.91L500.668 105.91L500.653 105.777ZM483.964 113.016L484.039 113.126L483.825 113.271L483.831 113.013L483.964 113.016ZM480.723 92.1986L480.843 92.1409L480.843 92.1409L480.723 92.1986ZM464 80.5426L464.007 80.6758L463.763 80.6883L463.884 80.4765L464 80.5426ZM464.325 44.9999L464.207 45.0611L464.001 44.6617L464.391 44.8841L464.325 44.9999ZM518.808 69.5839L518.851 69.4576L518.945 69.4895L518.941 69.5887L518.808 69.5839ZM534.004 94.2293L534.06 94.1081L534.06 94.1081L534.004 94.2293ZM549.241 99.2733L549.285 99.1473L549.424 99.1954L549.363 99.3289L549.241 99.2733ZM543.213 107.543C539.344 106.853 535.268 107.39 531.707 109.053L531.594 108.811C535.204 107.125 539.336 106.581 543.259 107.281L543.213 107.543ZM531.707 109.053C528.147 110.716 525.068 113.512 523.116 116.92L522.884 116.787C524.865 113.331 527.986 110.497 531.594 108.811L531.707 109.053ZM522.895 116.935C517.582 110.094 509.243 104.961 500.668 105.91L500.639 105.645C509.338 104.682 517.759 109.887 523.105 116.771L522.895 116.935ZM500.668 105.91C494.594 106.582 489.12 109.676 484.039 113.126L483.889 112.906C488.976 109.451 494.497 106.325 500.639 105.645L500.668 105.91ZM483.831 113.013C483.976 105.927 483.656 98.6164 480.603 92.2563L480.843 92.1409C483.926 98.5622 484.243 105.929 484.097 113.019L483.831 113.013ZM480.603 92.2563C477.546 85.8916 471.014 80.3156 464.007 80.6758L463.993 80.4095C471.148 80.0417 477.76 85.7217 480.843 92.1409L480.603 92.2563ZM463.884 80.4765C470.079 69.6227 469.944 56.1734 464.207 45.0611L464.444 44.9388C470.219 56.1251 470.359 69.6705 464.116 80.6087L463.884 80.4765ZM464.391 44.8841C481.668 54.7201 500.022 63.0819 518.851 69.4576L518.765 69.7102C499.919 63.3287 481.55 54.9598 464.259 45.1158L464.391 44.8841ZM518.941 69.5887C518.58 79.7602 524.811 89.8639 534.06 94.1081L533.948 94.3505C524.602 90.0613 518.31 79.8583 518.675 69.5792L518.941 69.5887ZM534.06 94.1081C536.376 95.1713 538.969 96.0111 541.592 96.7955C544.211 97.579 546.864 98.308 549.285 99.1473L549.198 99.3993C546.784 98.5625 544.143 97.8369 541.515 97.051C538.891 96.2661 536.283 95.4219 533.948 94.3505L534.06 94.1081ZM549.363 99.3289C548.624 100.937 547.647 102.285 546.591 103.577C545.531 104.874 544.405 106.1 543.342 107.493L543.13 107.331C544.194 105.937 545.339 104.687 546.384 103.408C547.434 102.124 548.396 100.796 549.12 99.2177L549.363 99.3289Z" fill="black" mask="url(#path-16-inside-8)"/>
<mask id="path-18-inside-9" fill="white">
<path d="M562.593 107.412C566.488 106.717 570.593 107.257 574.177 108.932C577.763 110.607 580.863 113.421 582.828 116.853C588.157 109.991 596.539 104.821 605.175 105.777C611.283 106.453 616.78 109.564 621.867 113.016C621.719 105.928 622.039 98.5893 625.105 92.1986C628.175 85.8066 634.748 80.1786 641.828 80.5426C635.611 69.6466 635.748 56.1493 641.503 44.9999C624.219 54.8399 605.859 63.2053 587.021 69.5839C587.383 79.8093 581.123 89.9626 571.824 94.2293C567.173 96.3639 561.423 97.5973 556.588 99.2733C558.049 102.46 560.467 104.625 562.593 107.412"/>
</mask>
<path d="M562.593 107.412C566.488 106.717 570.593 107.257 574.177 108.932C577.763 110.607 580.863 113.421 582.828 116.853C588.157 109.991 596.539 104.821 605.175 105.777C611.283 106.453 616.78 109.564 621.867 113.016C621.719 105.928 622.039 98.5893 625.105 92.1986C628.175 85.8066 634.748 80.1786 641.828 80.5426C635.611 69.6466 635.748 56.1493 641.503 44.9999C624.219 54.8399 605.859 63.2053 587.021 69.5839C587.383 79.8093 581.123 89.9626 571.824 94.2293C567.173 96.3639 561.423 97.5973 556.588 99.2733C558.049 102.46 560.467 104.625 562.593 107.412" fill="black"/>
<path d="M574.177 108.932L574.121 109.053L574.121 109.053L574.177 108.932ZM582.828 116.853L582.933 116.935L582.811 117.092L582.712 116.92L582.828 116.853ZM605.175 105.777L605.16 105.91L605.16 105.91L605.175 105.777ZM621.867 113.016L622 113.013L622.005 113.271L621.792 113.126L621.867 113.016ZM625.105 92.1986L624.985 92.1409L624.985 92.1409L625.105 92.1986ZM641.828 80.5426L641.944 80.4765L642.065 80.6883L641.821 80.6758L641.828 80.5426ZM641.503 44.9999L641.437 44.8841L641.827 44.6617L641.621 45.0611L641.503 44.9999ZM587.021 69.5839L586.888 69.5886L586.885 69.4895L586.979 69.4576L587.021 69.5839ZM571.824 94.2293L571.768 94.1081L571.768 94.1081L571.824 94.2293ZM556.588 99.2733L556.467 99.3289L556.406 99.1954L556.544 99.1473L556.588 99.2733ZM562.57 107.281C566.492 106.581 570.625 107.125 574.234 108.811L574.121 109.053C570.562 107.39 566.484 106.853 562.617 107.543L562.57 107.281ZM574.234 108.811C577.843 110.497 580.964 113.331 582.944 116.787L582.712 116.92C580.761 113.512 577.682 110.716 574.121 109.053L574.234 108.811ZM582.723 116.771C588.069 109.887 596.491 104.682 605.189 105.645L605.16 105.91C596.586 104.961 588.246 110.094 582.933 116.935L582.723 116.771ZM605.189 105.645C611.331 106.325 616.852 109.451 621.942 112.906L621.792 113.126C616.708 109.676 611.234 106.582 605.16 105.91L605.189 105.645ZM621.733 113.019C621.585 105.929 621.904 98.5622 624.985 92.1409L625.226 92.2563C622.174 98.6164 621.852 105.927 622 113.013L621.733 113.019ZM624.985 92.1409C628.068 85.7216 634.681 80.0417 641.835 80.4095L641.821 80.6758C634.815 80.3156 628.282 85.8916 625.226 92.2563L624.985 92.1409ZM641.712 80.6087C635.471 69.6705 635.61 56.1251 641.384 44.9388L641.621 45.0611C635.886 56.1734 635.751 69.6227 641.944 80.4765L641.712 80.6087ZM641.569 45.1158C624.278 54.9598 605.91 63.3287 587.064 69.7102L586.979 69.4576C605.807 63.0819 624.16 54.7201 641.437 44.8841L641.569 45.1158ZM587.155 69.5792C587.518 79.8583 581.227 90.0613 571.88 94.3505L571.768 94.1081C581.018 89.8639 587.248 79.7602 586.888 69.5886L587.155 69.5792ZM571.88 94.3505C569.545 95.4219 566.937 96.2661 564.313 97.051C561.686 97.8369 559.045 98.5625 556.632 99.3993L556.544 99.1473C558.965 98.308 561.618 97.579 564.237 96.7955C566.859 96.0111 569.452 95.1713 571.768 94.1081L571.88 94.3505ZM556.709 99.2177C557.433 100.796 558.395 102.124 559.444 103.408C560.49 104.687 561.635 105.937 562.699 107.331L562.487 107.493C561.425 106.1 560.298 104.874 559.238 103.577C558.182 102.285 557.204 100.937 556.467 99.3289L556.709 99.2177Z" fill="black" mask="url(#path-18-inside-9)"/>
<mask id="path-20-inside-10" fill="white">
<path d="M546.703 85.9067C545.823 80.896 545.796 75.6534 546.688 70.6494C543.549 74.14 541.472 79.164 540.976 84.4614C540.72 87.184 540.869 89.9414 540.708 92.676C540.651 93.676 540.547 94.672 540.407 95.6574C539.787 96.4454 539.379 97.064 539.28 97.3894C539.035 98.1987 538.195 101.033 537.487 104.177C537.487 113.697 544.201 117.477 545.804 119.039C548.531 121.701 551.417 123.655 552.915 127.107V92.9334V85.8294V84.064C550.764 83.9187 548.585 84.564 546.703 85.9067"/>
</mask>
<path d="M546.703 85.9067C545.823 80.896 545.796 75.6534 546.688 70.6494C543.549 74.14 541.472 79.164 540.976 84.4614C540.72 87.184 540.869 89.9414 540.708 92.676C540.651 93.676 540.547 94.672 540.407 95.6574C539.787 96.4454 539.379 97.064 539.28 97.3894C539.035 98.1987 538.195 101.033 537.487 104.177C537.487 113.697 544.201 117.477 545.804 119.039C548.531 121.701 551.417 123.655 552.915 127.107V92.9334V85.8294V84.064C550.764 83.9187 548.585 84.564 546.703 85.9067" fill="black"/>
<path d="M546.688 70.6494L546.589 70.5602L546.901 70.2128L546.819 70.6728L546.688 70.6494ZM540.976 84.4614L541.109 84.4738L541.109 84.4738L540.976 84.4614ZM540.708 92.676L540.575 92.6684L540.575 92.6682L540.708 92.676ZM540.407 95.6574L540.539 95.6761L540.534 95.7116L540.511 95.7398L540.407 95.6574ZM539.28 97.3894L539.152 97.3507L539.152 97.3507L539.28 97.3894ZM537.487 104.177H537.353V104.163L537.357 104.148L537.487 104.177ZM545.804 119.039L545.897 118.943L545.897 118.943L545.804 119.039ZM552.915 127.107H553.048L552.792 127.16L552.915 127.107ZM552.915 84.064L552.924 83.931L553.048 83.9394V84.064H552.915ZM546.571 85.9298C545.689 80.9043 545.662 75.6459 546.557 70.626L546.819 70.6728C545.93 75.6608 545.957 80.8877 546.834 85.8836L546.571 85.9298ZM546.787 70.7385C543.67 74.2051 541.602 79.201 541.109 84.4738L540.843 84.4489C541.342 79.1271 543.429 74.075 546.589 70.5602L546.787 70.7385ZM541.109 84.4738C540.981 85.8292 540.955 87.1943 540.94 88.5656C540.925 89.9354 540.922 91.3125 540.841 92.6839L540.575 92.6682C540.655 91.3049 540.658 89.936 540.673 88.5628C540.688 87.1911 540.715 85.8162 540.843 84.4489L541.109 84.4738ZM540.841 92.6837C540.784 93.6878 540.679 94.6875 540.539 95.6761L540.275 95.6386C540.414 94.6565 540.518 93.6643 540.575 92.6684L540.841 92.6837ZM540.511 95.7398C540.203 96.132 539.948 96.4803 539.759 96.7697C539.568 97.0624 539.451 97.2849 539.408 97.4281L539.152 97.3507C539.208 97.1685 539.344 96.9189 539.536 96.624C539.731 96.3257 539.99 95.9707 540.302 95.5749L540.511 95.7398ZM539.408 97.428C539.163 98.236 538.324 101.067 537.617 104.207L537.357 104.148C538.066 101 538.907 98.1613 539.152 97.3507L539.408 97.428ZM537.62 104.177C537.62 113.626 544.269 117.357 545.897 118.943L545.711 119.134C544.133 117.597 537.353 113.769 537.353 104.177H537.62ZM545.897 118.943C546.577 119.607 547.266 120.226 547.944 120.838C548.621 121.45 549.287 122.053 549.915 122.683C551.171 123.942 552.279 125.307 553.037 127.054L552.792 127.16C552.053 125.455 550.969 124.117 549.726 122.871C549.104 122.247 548.443 121.648 547.765 121.036C547.089 120.425 546.395 119.802 545.711 119.134L545.897 118.943ZM552.781 127.107V92.9334H553.048V127.107H552.781ZM552.781 92.9334V85.8294H553.048V92.9334H552.781ZM552.781 85.8294V84.064H553.048V85.8294H552.781ZM552.906 84.1971C550.788 84.054 548.64 84.6891 546.78 86.0152L546.625 85.7981C548.531 84.4389 550.74 83.7834 552.924 83.931L552.906 84.1971Z" fill="black" mask="url(#path-20-inside-10)"/>
<mask id="path-22-inside-11" fill="white">
<path d="M559.125 85.9067C560.005 80.896 560.035 75.6534 559.141 70.6494C562.279 74.14 564.357 79.164 564.853 84.4614C565.108 87.184 564.96 89.9414 565.12 92.676C565.179 93.676 565.281 94.672 565.423 95.6574C566.041 96.4454 566.449 97.064 566.548 97.3894C566.795 98.1987 567.635 101.033 568.341 104.177C568.341 113.697 561.628 117.477 560.025 119.039C557.299 121.701 554.412 123.655 552.915 127.107V92.9334V85.8294V84.064C555.064 83.9187 557.243 84.564 559.125 85.9067"/>
</mask>
<path d="M559.125 85.9067C560.005 80.896 560.035 75.6534 559.141 70.6494C562.279 74.14 564.357 79.164 564.853 84.4614C565.108 87.184 564.96 89.9414 565.12 92.676C565.179 93.676 565.281 94.672 565.423 95.6574C566.041 96.4454 566.449 97.064 566.548 97.3894C566.795 98.1987 567.635 101.033 568.341 104.177C568.341 113.697 561.628 117.477 560.025 119.039C557.299 121.701 554.412 123.655 552.915 127.107V92.9334V85.8294V84.064C555.064 83.9187 557.243 84.564 559.125 85.9067" fill="black"/>
<path d="M559.141 70.6494L559.01 70.6728L558.928 70.2124L559.24 70.5602L559.141 70.6494ZM564.853 84.4614L564.986 84.4489L564.986 84.4489L564.853 84.4614ZM565.12 92.676L564.987 92.6838L564.987 92.6838L565.12 92.676ZM565.423 95.6574L565.318 95.7397L565.296 95.7116L565.291 95.6763L565.423 95.6574ZM566.548 97.3894L566.42 97.4282L566.42 97.4281L566.548 97.3894ZM568.341 104.177L568.471 104.148L568.475 104.163V104.177H568.341ZM560.025 119.039L559.932 118.943L559.932 118.943L560.025 119.039ZM552.915 127.107L553.037 127.16L552.781 127.107H552.915ZM552.915 84.064H552.781V83.9394L552.906 83.931L552.915 84.064ZM558.994 85.8836C559.871 80.8877 559.901 75.6608 559.01 70.6728L559.273 70.6259C560.169 75.6459 560.139 80.9044 559.257 85.9298L558.994 85.8836ZM559.24 70.5602C562.399 74.075 564.488 79.127 564.986 84.4489L564.721 84.4738C564.227 79.201 562.158 74.2051 559.042 70.7385L559.24 70.5602ZM564.986 84.4489C565.114 85.8162 565.141 87.1911 565.156 88.5628C565.17 89.936 565.173 91.3049 565.253 92.6682L564.987 92.6838C564.907 91.3125 564.904 89.9354 564.889 88.5656C564.874 87.1943 564.847 85.8291 564.721 84.4738L564.986 84.4489ZM565.253 92.6682C565.312 93.6643 565.414 94.6566 565.555 95.6384L565.291 95.6763C565.149 94.6874 565.046 93.6877 564.987 92.6838L565.253 92.6682ZM565.528 95.575C565.838 95.9708 566.098 96.3258 566.292 96.624C566.484 96.919 566.62 97.1685 566.676 97.3507L566.42 97.4281C566.377 97.2849 566.26 97.0624 566.069 96.7697C565.88 96.4802 565.626 96.1319 565.318 95.7397L565.528 95.575ZM566.676 97.3505C566.923 98.1614 567.764 101 568.471 104.148L568.211 104.207C567.506 101.067 566.667 98.236 566.42 97.4282L566.676 97.3505ZM568.475 104.177C568.475 113.769 561.696 117.597 560.118 119.134L559.932 118.943C561.56 117.357 568.208 113.626 568.208 104.177H568.475ZM560.119 119.134C559.435 119.802 558.741 120.425 558.064 121.036C557.386 121.648 556.725 122.247 556.103 122.871C554.86 124.117 553.777 125.455 553.037 127.16L552.792 127.054C553.55 125.307 554.659 123.942 555.915 122.683C556.542 122.053 557.208 121.45 557.885 120.838C558.563 120.226 559.253 119.607 559.932 118.943L560.119 119.134ZM552.781 127.107V92.9334H553.048V127.107H552.781ZM552.781 92.9334V85.8294H553.048V92.9334H552.781ZM552.781 85.8294V84.064H553.048V85.8294H552.781ZM552.906 83.931C555.088 83.7834 557.297 84.4389 559.203 85.7981L559.048 86.0152C557.188 84.6891 555.04 84.054 552.924 84.1971L552.906 83.931Z" fill="black" mask="url(#path-22-inside-11)"/>
<mask id="path-24-inside-12" fill="white">
<path d="M771.189 105.102C767.364 106.119 763.873 108.343 761.331 111.376C758.791 114.409 757.171 118.27 756.839 122.211C749.108 118.244 739.329 117.1 731.905 121.617C726.655 124.811 722.987 129.954 719.838 135.231C716.975 128.745 713.584 122.229 708.103 117.734C702.62 113.238 694.285 110.915 688.021 114.237C689.052 101.734 683.224 89.5591 673.295 81.887C693.118 83.5005 713.294 83.3223 733.063 81.1423C737.055 90.5629 747.021 97.1188 757.25 97.0565C762.367 97.0257 768.102 95.7126 773.192 95.1883C773.213 98.6946 771.938 101.678 771.189 105.102"/>
</mask>
<path d="M771.189 105.102C767.364 106.119 763.873 108.343 761.331 111.376C758.791 114.409 757.171 118.27 756.839 122.211C749.108 118.244 739.329 117.1 731.905 121.617C726.655 124.811 722.987 129.954 719.838 135.231C716.975 128.745 713.584 122.229 708.103 117.734C702.62 113.238 694.285 110.915 688.021 114.237C689.052 101.734 683.224 89.5591 673.295 81.887C693.118 83.5005 713.294 83.3223 733.063 81.1423C737.055 90.5629 747.021 97.1188 757.25 97.0565C762.367 97.0257 768.102 95.7126 773.192 95.1883C773.213 98.6946 771.938 101.678 771.189 105.102" fill="black"/>
<path d="M761.331 111.376L761.229 111.291L761.229 111.291L761.331 111.376ZM756.839 122.211L756.972 122.222L756.955 122.421L756.778 122.33L756.839 122.211ZM731.905 121.617L731.974 121.731L731.974 121.731L731.905 121.617ZM719.838 135.231L719.953 135.299L719.821 135.521L719.716 135.285L719.838 135.231ZM708.103 117.734L708.187 117.631L708.187 117.631L708.103 117.734ZM688.021 114.237L688.083 114.355L687.868 114.469L687.888 114.226L688.021 114.237ZM673.295 81.887L673.213 81.9925L672.858 81.7176L673.306 81.7541L673.295 81.887ZM733.063 81.1423L733.048 81.0098L733.147 80.9989L733.185 81.0903L733.063 81.1423ZM757.25 97.0565L757.25 96.9231L757.25 96.9231L757.25 97.0565ZM773.192 95.1883L773.178 95.0557L773.324 95.0406L773.325 95.1875L773.192 95.1883ZM771.223 105.231C767.425 106.241 763.957 108.45 761.433 111.462L761.229 111.291C763.788 108.237 767.303 105.998 771.154 104.974L771.223 105.231ZM761.433 111.462C758.91 114.474 757.301 118.309 756.972 122.222L756.706 122.2C757.04 118.23 758.671 114.344 761.229 111.291L761.433 111.462ZM756.778 122.33C749.072 118.375 739.345 117.247 731.974 121.731L731.836 121.503C739.313 116.954 749.145 118.113 756.9 122.093L756.778 122.33ZM731.974 121.731C726.753 124.907 723.1 130.025 719.953 135.299L719.724 135.162C722.875 129.882 726.556 124.715 731.836 121.503L731.974 121.731ZM719.716 135.285C716.853 128.801 713.473 122.311 708.018 117.837L708.187 117.631C713.695 122.147 717.096 128.69 719.96 135.177L719.716 135.285ZM708.018 117.837C702.559 113.36 694.282 111.067 688.083 114.355L687.958 114.119C694.288 110.762 702.681 113.115 708.187 117.631L708.018 117.837ZM687.888 114.226C688.915 101.771 683.109 89.6392 673.213 81.9925L673.376 81.7815C683.338 89.4791 689.189 101.696 688.154 114.248L687.888 114.226ZM673.306 81.7541C693.121 83.367 713.289 83.1888 733.048 81.0098L733.077 81.2749C713.3 83.4558 693.115 83.6341 673.284 82.0199L673.306 81.7541ZM733.185 81.0903C737.157 90.4613 747.074 96.9851 757.25 96.9231L757.251 97.1898C746.968 97.2524 736.954 90.6645 732.94 81.1944L733.185 81.0903ZM757.25 96.9231C759.798 96.9078 762.503 96.5731 765.212 96.1755C767.917 95.7785 770.629 95.3182 773.178 95.0557L773.205 95.321C770.664 95.5827 767.964 96.0411 765.251 96.4394C762.54 96.8372 759.82 97.1743 757.251 97.1898L757.25 96.9231ZM773.325 95.1875C773.336 96.9571 773.019 98.5921 772.608 100.209C772.196 101.833 771.694 103.42 771.319 105.131L771.058 105.074C771.433 103.361 771.943 101.744 772.35 100.143C772.759 98.5357 773.069 96.9258 773.058 95.1891L773.325 95.1875Z" fill="black" mask="url(#path-24-inside-12)"/>
<mask id="path-26-inside-13" fill="white">
<path d="M796.433 104.103C800.256 105.119 803.749 107.343 806.289 110.376C808.831 113.409 810.451 117.27 810.781 121.211C818.512 117.243 828.293 116.101 835.715 120.617C840.965 123.811 844.633 128.953 847.784 134.231C850.646 127.745 854.037 121.229 859.517 116.733C865 112.237 873.336 109.915 879.599 113.237C878.569 100.734 884.398 88.5593 894.325 80.8866C874.502 82.5001 854.327 82.3224 834.559 80.1425C830.565 89.5625 820.6 96.1189 810.37 96.0561C805.253 96.0253 799.52 94.7127 794.43 94.1885C794.407 97.6941 795.683 100.678 796.433 104.103"/>
</mask>
<path d="M796.433 104.103C800.256 105.119 803.749 107.343 806.289 110.376C808.831 113.409 810.451 117.27 810.781 121.211C818.512 117.243 828.293 116.101 835.715 120.617C840.965 123.811 844.633 128.953 847.784 134.231C850.646 127.745 854.037 121.229 859.517 116.733C865 112.237 873.336 109.915 879.599 113.237C878.569 100.734 884.398 88.5593 894.325 80.8866C874.502 82.5001 854.327 82.3224 834.559 80.1425C830.565 89.5625 820.6 96.1189 810.37 96.0561C805.253 96.0253 799.52 94.7127 794.43 94.1885C794.407 97.6941 795.683 100.678 796.433 104.103" fill="black"/>
<path d="M806.289 110.376L806.187 110.461L806.187 110.461L806.289 110.376ZM810.781 121.211L810.842 121.329L810.665 121.42L810.649 121.222L810.781 121.211ZM835.715 120.617L835.646 120.731L835.646 120.731L835.715 120.617ZM847.784 134.231L847.906 134.285L847.802 134.521L847.67 134.3L847.784 134.231ZM859.517 116.733L859.433 116.63L859.433 116.63L859.517 116.733ZM879.599 113.237L879.732 113.226L879.752 113.469L879.537 113.354L879.599 113.237ZM894.325 80.8866L894.315 80.7537L894.762 80.7172L894.407 80.9921L894.325 80.8866ZM834.559 80.1425L834.436 80.0904L834.475 79.9991L834.573 80.0099L834.559 80.1425ZM810.37 96.0561L810.371 95.9227L810.371 95.9227L810.37 96.0561ZM794.43 94.1885L794.296 94.1876L794.297 94.0408L794.443 94.0558L794.43 94.1885ZM796.467 103.974C800.317 104.997 803.833 107.237 806.391 110.29L806.187 110.461C803.664 107.45 800.195 105.241 796.399 104.231L796.467 103.974ZM806.391 110.29C808.95 113.344 810.581 117.231 810.914 121.2L810.649 121.222C810.32 117.309 808.711 113.474 806.187 110.461L806.391 110.29ZM810.721 121.092C818.475 117.112 828.308 115.954 835.785 120.503L835.646 120.731C828.277 116.247 818.548 117.375 810.842 121.329L810.721 121.092ZM835.785 120.503C841.064 123.715 844.746 128.881 847.899 134.163L847.67 134.3C844.521 129.025 840.867 123.907 835.646 120.731L835.785 120.503ZM847.662 134.178C850.524 127.689 853.926 121.148 859.433 116.63L859.602 116.836C854.148 121.311 850.767 127.801 847.906 134.285L847.662 134.178ZM859.433 116.63C864.939 112.115 873.334 109.762 879.662 113.119L879.537 113.354C873.339 110.067 865.062 112.36 859.602 116.836L859.433 116.63ZM879.466 113.248C878.432 100.697 884.283 88.4792 894.244 80.7811L894.407 80.9921C884.512 88.6393 878.706 100.771 879.732 113.226L879.466 113.248ZM894.336 81.0195C874.505 82.6337 854.321 82.4559 834.544 80.275L834.573 80.0099C854.333 82.1889 874.499 82.3666 894.315 80.7537L894.336 81.0195ZM834.682 80.1945C830.667 89.664 820.653 96.2526 810.369 96.1894L810.371 95.9227C820.547 95.9853 830.463 89.4609 834.436 80.0904L834.682 80.1945ZM810.369 96.1894C807.801 96.1739 805.08 95.8369 802.37 95.4392C799.657 95.0411 796.957 94.5828 794.416 94.3211L794.443 94.0558C796.992 94.3183 799.704 94.7785 802.409 95.1754C805.117 95.5728 807.822 95.9074 810.371 95.9227L810.369 96.1894ZM794.563 94.1893C794.552 95.9257 794.862 97.5355 795.271 99.1432C795.678 100.744 796.188 102.361 796.563 104.074L796.303 104.131C795.928 102.42 795.425 100.833 795.012 99.2089C794.601 97.592 794.285 95.9569 794.296 94.1876L794.563 94.1893Z" fill="black" mask="url(#path-26-inside-13)"/>
<mask id="path-28-inside-14" fill="white">
<path d="M777.703 83.9067C776.823 78.896 776.796 73.6534 777.688 68.6494C774.549 72.14 772.472 77.164 771.976 82.4614C771.72 85.184 771.869 87.9414 771.708 90.676C771.651 91.676 771.547 92.672 771.407 93.6574C770.787 94.4454 770.379 95.064 770.28 95.3894C770.035 96.1987 769.195 99.0334 768.487 102.177C768.487 111.697 775.201 115.477 776.804 117.039C779.531 119.701 782.417 121.655 783.915 125.107V90.9334V83.8294V82.064C781.764 81.9187 779.585 82.564 777.703 83.9067"/>
</mask>
<path d="M777.703 83.9067C776.823 78.896 776.796 73.6534 777.688 68.6494C774.549 72.14 772.472 77.164 771.976 82.4614C771.72 85.184 771.869 87.9414 771.708 90.676C771.651 91.676 771.547 92.672 771.407 93.6574C770.787 94.4454 770.379 95.064 770.28 95.3894C770.035 96.1987 769.195 99.0334 768.487 102.177C768.487 111.697 775.201 115.477 776.804 117.039C779.531 119.701 782.417 121.655 783.915 125.107V90.9334V83.8294V82.064C781.764 81.9187 779.585 82.564 777.703 83.9067" fill="black"/>
<path d="M777.688 68.6494L777.589 68.5602L777.901 68.2128L777.819 68.6728L777.688 68.6494ZM771.976 82.4614L772.109 82.4738L772.109 82.4738L771.976 82.4614ZM771.708 90.676L771.575 90.6684L771.575 90.6682L771.708 90.676ZM771.407 93.6574L771.539 93.6761L771.534 93.7116L771.511 93.7398L771.407 93.6574ZM770.28 95.3894L770.152 95.3507L770.152 95.3507L770.28 95.3894ZM768.487 102.177H768.353V102.163L768.357 102.148L768.487 102.177ZM776.804 117.039L776.897 116.943L776.897 116.943L776.804 117.039ZM783.915 125.107H784.048L783.792 125.16L783.915 125.107ZM783.915 82.064L783.924 81.931L784.048 81.9394V82.064H783.915ZM777.571 83.9298C776.689 78.9043 776.662 73.6459 777.557 68.626L777.819 68.6728C776.93 73.6608 776.957 78.8877 777.834 83.8836L777.571 83.9298ZM777.787 68.7385C774.67 72.2051 772.602 77.201 772.109 82.4738L771.843 82.4489C772.342 77.1271 774.429 72.075 777.589 68.5602L777.787 68.7385ZM772.109 82.4738C771.981 83.8292 771.955 85.1943 771.94 86.5656C771.925 87.9354 771.922 89.3125 771.841 90.6839L771.575 90.6682C771.655 89.3049 771.658 87.936 771.673 86.5628C771.688 85.1911 771.715 83.8162 771.843 82.4489L772.109 82.4738ZM771.841 90.6837C771.784 91.6878 771.679 92.6875 771.539 93.6761L771.275 93.6386C771.414 92.6565 771.518 91.6643 771.575 90.6684L771.841 90.6837ZM771.511 93.7398C771.203 94.132 770.948 94.4803 770.759 94.7697C770.568 95.0624 770.451 95.2849 770.408 95.4281L770.152 95.3507C770.208 95.1685 770.344 94.9189 770.536 94.624C770.731 94.3257 770.99 93.9707 771.302 93.5749L771.511 93.7398ZM770.408 95.428C770.163 96.236 769.324 99.0672 768.617 102.207L768.357 102.148C769.066 98.9995 769.907 96.1613 770.152 95.3507L770.408 95.428ZM768.62 102.177C768.62 111.626 775.269 115.357 776.897 116.943L776.711 117.134C775.133 115.597 768.353 111.769 768.353 102.177H768.62ZM776.897 116.943C777.577 117.607 778.266 118.226 778.944 118.838C779.621 119.45 780.287 120.053 780.915 120.683C782.171 121.942 783.279 123.307 784.037 125.054L783.792 125.16C783.053 123.455 781.969 122.117 780.726 120.871C780.104 120.247 779.443 119.648 778.765 119.036C778.089 118.425 777.395 117.802 776.711 117.134L776.897 116.943ZM783.781 125.107V90.9334H784.048V125.107H783.781ZM783.781 90.9334V83.8294H784.048V90.9334H783.781ZM783.781 83.8294V82.064H784.048V83.8294H783.781ZM783.906 82.1971C781.788 82.054 779.64 82.6891 777.78 84.0152L777.625 83.7981C779.531 82.4389 781.74 81.7834 783.924 81.931L783.906 82.1971Z" fill="black" mask="url(#path-28-inside-14)"/>
<mask id="path-30-inside-15" fill="white">
<path d="M790.125 83.9067C791.005 78.896 791.035 73.6534 790.141 68.6494C793.279 72.14 795.357 77.164 795.853 82.4614C796.108 85.184 795.96 87.9414 796.12 90.676C796.179 91.676 796.281 92.672 796.423 93.6574C797.041 94.4454 797.449 95.064 797.548 95.3894C797.795 96.1987 798.635 99.0334 799.341 102.177C799.341 111.697 792.628 115.477 791.025 117.039C788.299 119.701 785.412 121.655 783.915 125.107V90.9334V83.8294V82.064C786.064 81.9187 788.243 82.564 790.125 83.9067"/>
</mask>
<path d="M790.125 83.9067C791.005 78.896 791.035 73.6534 790.141 68.6494C793.279 72.14 795.357 77.164 795.853 82.4614C796.108 85.184 795.96 87.9414 796.12 90.676C796.179 91.676 796.281 92.672 796.423 93.6574C797.041 94.4454 797.449 95.064 797.548 95.3894C797.795 96.1987 798.635 99.0334 799.341 102.177C799.341 111.697 792.628 115.477 791.025 117.039C788.299 119.701 785.412 121.655 783.915 125.107V90.9334V83.8294V82.064C786.064 81.9187 788.243 82.564 790.125 83.9067" fill="black"/>
<path d="M790.141 68.6494L790.01 68.6728L789.928 68.2124L790.24 68.5602L790.141 68.6494ZM795.853 82.4614L795.986 82.4489L795.986 82.4489L795.853 82.4614ZM796.12 90.676L795.987 90.6838L795.987 90.6838L796.12 90.676ZM796.423 93.6574L796.318 93.7397L796.296 93.7116L796.291 93.6763L796.423 93.6574ZM797.548 95.3894L797.42 95.4282L797.42 95.4281L797.548 95.3894ZM799.341 102.177L799.471 102.148L799.475 102.163V102.177H799.341ZM791.025 117.039L790.932 116.943L790.932 116.943L791.025 117.039ZM783.915 125.107L784.037 125.16L783.781 125.107H783.915ZM783.915 82.064H783.781V81.9394L783.906 81.931L783.915 82.064ZM789.994 83.8836C790.871 78.8877 790.901 73.6608 790.01 68.6728L790.273 68.6259C791.169 73.6459 791.139 78.9044 790.257 83.9298L789.994 83.8836ZM790.24 68.5602C793.399 72.075 795.488 77.127 795.986 82.4489L795.721 82.4738C795.227 77.201 793.158 72.2051 790.042 68.7385L790.24 68.5602ZM795.986 82.4489C796.114 83.8162 796.141 85.1911 796.156 86.5628C796.17 87.936 796.173 89.3049 796.253 90.6682L795.987 90.6838C795.907 89.3125 795.904 87.9354 795.889 86.5656C795.874 85.1943 795.847 83.8291 795.721 82.4738L795.986 82.4489ZM796.253 90.6682C796.312 91.6643 796.414 92.6566 796.555 93.6384L796.291 93.6763C796.149 92.6874 796.046 91.6877 795.987 90.6838L796.253 90.6682ZM796.528 93.575C796.838 93.9708 797.098 94.3258 797.292 94.624C797.484 94.919 797.62 95.1685 797.676 95.3507L797.42 95.4281C797.377 95.2849 797.26 95.0624 797.069 94.7697C796.88 94.4802 796.626 94.1319 796.318 93.7397L796.528 93.575ZM797.676 95.3505C797.923 96.1614 798.764 98.9996 799.471 102.148L799.211 102.207C798.506 99.0672 797.667 96.236 797.42 95.4282L797.676 95.3505ZM799.475 102.177C799.475 111.769 792.696 115.597 791.118 117.134L790.932 116.943C792.56 115.357 799.208 111.626 799.208 102.177H799.475ZM791.119 117.134C790.435 117.802 789.741 118.425 789.064 119.036C788.386 119.648 787.725 120.247 787.103 120.871C785.86 122.117 784.777 123.455 784.037 125.16L783.792 125.054C784.55 123.307 785.659 121.942 786.915 120.683C787.542 120.053 788.208 119.45 788.885 118.838C789.563 118.226 790.253 117.607 790.932 116.943L791.119 117.134ZM783.781 125.107V90.9334H784.048V125.107H783.781ZM783.781 90.9334V83.8294H784.048V90.9334H783.781ZM783.781 83.8294V82.064H784.048V83.8294H783.781ZM783.906 81.931C786.088 81.7834 788.297 82.4389 790.203 83.7981L790.048 84.0152C788.188 82.6891 786.04 82.054 783.924 82.1971L783.906 81.931Z" fill="black" mask="url(#path-30-inside-15)"/>
<path d="M1220.47 110.965C1220.46 107.004 1221.71 103.053 1223.98 99.8083C1223.86 99.2146 1223.96 98.7012 1224.13 98.2273C1224.22 97.9872 1224.33 97.7568 1224.44 97.5317C1224.47 97.4751 1224.5 97.4189 1224.53 97.363C1224.61 97.1957 1224.69 97.0309 1224.77 96.8643C1224.97 96.4208 1225.11 95.976 1225.07 95.4804C1225.02 94.9995 1224.8 94.4619 1224.28 93.8256C1222.48 95.6475 1219.45 97.0334 1216.4 98.3689C1216.19 98.4607 1215.98 98.5522 1215.77 98.6436C1212.89 99.8989 1210.05 101.133 1208.25 102.67C1200.44 109.299 1188.59 110.693 1179.46 106.057C1165.77 120.369 1150.5 133.421 1134.36 144.889C1146.8 144.459 1158.97 150.005 1166.2 160.142C1168.92 153.608 1176.78 150.063 1183.84 149.983L1183.84 150.05L1183.84 149.983C1190.91 149.904 1197.66 152.688 1203.99 155.793C1203.03 149.764 1202.55 143.501 1204.51 137.704C1207.29 129.473 1215.49 124.062 1223.94 122.11C1221.69 118.88 1220.47 114.902 1220.47 110.965Z" fill="black" stroke="black" stroke-width="0.133333"/>
<path d="M1248.9 97.7211C1249.02 98.2471 1248.98 98.86 1248.58 99.6313C1249.71 101.256 1250.65 103.533 1251.31 105.895C1251.97 108.274 1252.34 110.745 1252.34 112.73C1252.34 116.667 1251.11 120.646 1248.86 123.875C1257.31 125.827 1265.51 131.239 1268.3 139.468C1270.26 145.265 1269.78 151.529 1268.81 157.56C1275.14 154.453 1281.9 151.67 1288.96 151.748L1288.96 151.814L1288.96 151.748C1296.03 151.828 1303.89 155.374 1306.61 161.907C1313.84 151.771 1326.01 146.225 1338.45 146.654C1322.3 135.186 1307.03 122.135 1293.35 107.823C1284.22 112.457 1272.37 111.065 1264.56 104.434C1262.83 102.962 1260.11 101.365 1257.31 99.7176C1256.97 99.5165 1256.63 99.3146 1256.28 99.1122C1253.17 97.2726 1250.08 95.383 1248.29 93.555C1247.76 94.1876 1247.62 94.6801 1247.65 95.1058C1247.69 95.5486 1247.93 95.9332 1248.21 96.3467C1248.22 96.3666 1248.23 96.3865 1248.25 96.4065C1248.51 96.7983 1248.78 97.2169 1248.9 97.7211Z" fill="black" stroke="black" stroke-width="0.133333"/>
<mask id="path-34-inside-16" fill="white">
<path d="M1230.7 83.2573C1229.82 78.2466 1229.8 73.0039 1230.69 67.9999C1227.55 71.4906 1225.47 76.5146 1224.98 81.8119C1224.72 84.5346 1224.87 87.2919 1224.71 90.0266C1224.65 91.0266 1224.55 92.0226 1224.41 93.0079C1223.79 93.7959 1223.38 94.4146 1223.28 94.7399C1223.03 95.5493 1222.19 98.3839 1221.49 101.528C1221.49 111.048 1228.2 114.828 1229.8 116.389C1232.53 119.052 1235.42 121.005 1236.91 124.457V90.2839V83.18V81.4146C1234.76 81.2693 1232.59 81.9146 1230.7 83.2573"/>
</mask>
<path d="M1230.7 83.2573C1229.82 78.2466 1229.8 73.0039 1230.69 67.9999C1227.55 71.4906 1225.47 76.5146 1224.98 81.8119C1224.72 84.5346 1224.87 87.2919 1224.71 90.0266C1224.65 91.0266 1224.55 92.0226 1224.41 93.0079C1223.79 93.7959 1223.38 94.4146 1223.28 94.7399C1223.03 95.5493 1222.19 98.3839 1221.49 101.528C1221.49 111.048 1228.2 114.828 1229.8 116.389C1232.53 119.052 1235.42 121.005 1236.91 124.457V90.2839V83.18V81.4146C1234.76 81.2693 1232.59 81.9146 1230.7 83.2573" fill="black"/>
<path d="M1230.69 67.9999L1230.59 67.9108L1230.9 67.5633L1230.82 68.0233L1230.69 67.9999ZM1224.98 81.8119L1225.11 81.8244L1225.11 81.8244L1224.98 81.8119ZM1224.71 90.0266L1224.57 90.019L1224.57 90.0188L1224.71 90.0266ZM1224.41 93.0079L1224.54 93.0267L1224.53 93.0622L1224.51 93.0904L1224.41 93.0079ZM1223.28 94.7399L1223.15 94.7013L1223.15 94.7012L1223.28 94.7399ZM1221.49 101.528H1221.35V101.513L1221.36 101.499L1221.49 101.528ZM1229.8 116.389L1229.9 116.294L1229.9 116.294L1229.8 116.389ZM1236.91 124.457H1237.05L1236.79 124.51L1236.91 124.457ZM1236.91 81.4146L1236.92 81.2816L1237.05 81.29V81.4146H1236.91ZM1230.57 83.2803C1229.69 78.2549 1229.66 72.9965 1230.56 67.9765L1230.82 68.0233C1229.93 73.0114 1229.96 78.2383 1230.83 83.2342L1230.57 83.2803ZM1230.79 68.0891C1227.67 71.5557 1225.6 76.5516 1225.11 81.8244L1224.84 81.7995C1225.34 76.4777 1227.43 71.4256 1230.59 67.9108L1230.79 68.0891ZM1225.11 81.8244C1224.98 83.1798 1224.95 84.5449 1224.94 85.9162C1224.93 87.286 1224.92 88.6631 1224.84 90.0345L1224.57 90.0188C1224.66 88.6555 1224.66 87.2866 1224.67 85.9133C1224.69 84.5417 1224.71 83.1668 1224.84 81.7995L1225.11 81.8244ZM1224.84 90.0342C1224.78 91.0384 1224.68 92.0381 1224.54 93.0267L1224.27 92.9892C1224.41 92.0071 1224.52 91.0149 1224.57 90.019L1224.84 90.0342ZM1224.51 93.0904C1224.2 93.4826 1223.95 93.8309 1223.76 94.1203C1223.57 94.413 1223.45 94.6355 1223.41 94.7786L1223.15 94.7012C1223.21 94.5191 1223.34 94.2695 1223.54 93.9746C1223.73 93.6763 1223.99 93.3213 1224.3 92.9255L1224.51 93.0904ZM1223.41 94.7786C1223.16 95.5866 1222.32 98.4178 1221.62 101.557L1221.36 101.499C1222.07 98.3501 1222.91 95.5119 1223.15 94.7013L1223.41 94.7786ZM1221.62 101.528C1221.62 110.977 1228.27 114.708 1229.9 116.294L1229.71 116.485C1228.13 114.948 1221.35 111.119 1221.35 101.528H1221.62ZM1229.9 116.294C1230.58 116.957 1231.27 117.577 1231.94 118.189C1232.62 118.8 1233.29 119.404 1233.91 120.033C1235.17 121.292 1236.28 122.657 1237.04 124.404L1236.79 124.51C1236.05 122.805 1234.97 121.468 1233.73 120.221C1233.1 119.598 1232.44 118.998 1231.77 118.387C1231.09 117.776 1230.39 117.153 1229.71 116.485L1229.9 116.294ZM1236.78 124.457V90.2839H1237.05V124.457H1236.78ZM1236.78 90.2839V83.18H1237.05V90.2839H1236.78ZM1236.78 83.18V81.4146H1237.05V83.18H1236.78ZM1236.91 81.5476C1234.79 81.4045 1232.64 82.0397 1230.78 83.3658L1230.63 83.1487C1232.53 81.7895 1234.74 81.134 1236.92 81.2816L1236.91 81.5476Z" fill="black" mask="url(#path-34-inside-16)"/>
<mask id="path-36-inside-17" fill="white">
<path d="M1243.13 83.2573C1244.01 78.2466 1244.03 73.0039 1243.14 67.9999C1246.28 71.4906 1248.36 76.5146 1248.85 81.8119C1249.11 84.5346 1248.96 87.2919 1249.12 90.0266C1249.18 91.0266 1249.28 92.0226 1249.42 93.0079C1250.04 93.7959 1250.45 94.4146 1250.55 94.7399C1250.79 95.5493 1251.63 98.3839 1252.34 101.528C1252.34 111.048 1245.63 114.828 1244.03 116.389C1241.3 119.052 1238.41 121.005 1236.91 124.457V90.2839V83.18V81.4146C1239.06 81.2693 1241.24 81.9146 1243.13 83.2573"/>
</mask>
<path d="M1243.13 83.2573C1244.01 78.2466 1244.03 73.0039 1243.14 67.9999C1246.28 71.4906 1248.36 76.5146 1248.85 81.8119C1249.11 84.5346 1248.96 87.2919 1249.12 90.0266C1249.18 91.0266 1249.28 92.0226 1249.42 93.0079C1250.04 93.7959 1250.45 94.4146 1250.55 94.7399C1250.79 95.5493 1251.63 98.3839 1252.34 101.528C1252.34 111.048 1245.63 114.828 1244.03 116.389C1241.3 119.052 1238.41 121.005 1236.91 124.457V90.2839V83.18V81.4146C1239.06 81.2693 1241.24 81.9146 1243.13 83.2573" fill="black"/>
<path d="M1243.14 67.9999L1243.01 68.0234L1242.93 67.563L1243.24 67.9108L1243.14 67.9999ZM1248.85 81.8119L1248.99 81.7995L1248.99 81.7995L1248.85 81.8119ZM1249.12 90.0266L1248.99 90.0344L1248.99 90.0344L1249.12 90.0266ZM1249.42 93.0079L1249.32 93.0903L1249.3 93.0622L1249.29 93.0269L1249.42 93.0079ZM1250.55 94.7399L1250.42 94.7788L1250.42 94.7786L1250.55 94.7399ZM1252.34 101.528L1252.47 101.499L1252.47 101.513V101.528H1252.34ZM1244.03 116.389L1243.93 116.294L1243.93 116.294L1244.03 116.389ZM1236.91 124.457L1237.04 124.51L1236.78 124.457H1236.91ZM1236.91 81.4146H1236.78V81.29L1236.91 81.2816L1236.91 81.4146ZM1242.99 83.2342C1243.87 78.2383 1243.9 73.0114 1243.01 68.0234L1243.27 67.9765C1244.17 72.9965 1244.14 78.2549 1243.26 83.2803L1242.99 83.2342ZM1243.24 67.9108C1246.4 71.4255 1248.49 76.4776 1248.99 81.7995L1248.72 81.8244C1248.23 76.5516 1246.16 71.5557 1243.04 68.0891L1243.24 67.9108ZM1248.99 81.7995C1249.11 83.1668 1249.14 84.5417 1249.16 85.9133C1249.17 87.2866 1249.17 88.6555 1249.25 90.0188L1248.99 90.0344C1248.91 88.6631 1248.9 87.286 1248.89 85.9162C1248.87 84.5449 1248.85 83.1797 1248.72 81.8244L1248.99 81.7995ZM1249.25 90.0188C1249.31 91.0149 1249.41 92.0072 1249.55 92.989L1249.29 93.0269C1249.15 92.038 1249.05 91.0383 1248.99 90.0344L1249.25 90.0188ZM1249.53 92.9256C1249.84 93.3214 1250.1 93.6764 1250.29 93.9746C1250.48 94.2696 1250.62 94.5191 1250.68 94.7012L1250.42 94.7786C1250.38 94.6355 1250.26 94.413 1250.07 94.1203C1249.88 93.8308 1249.63 93.4825 1249.32 93.0903L1249.53 92.9256ZM1250.68 94.7011C1250.92 95.5119 1251.76 98.3501 1252.47 101.499L1252.21 101.557C1251.51 98.4178 1250.67 95.5866 1250.42 94.7788L1250.68 94.7011ZM1252.47 101.528C1252.47 111.119 1245.7 114.948 1244.12 116.485L1243.93 116.294C1245.56 114.708 1252.21 110.977 1252.21 101.528H1252.47ZM1244.12 116.485C1243.43 117.153 1242.74 117.776 1242.06 118.387C1241.39 118.998 1240.73 119.598 1240.1 120.221C1238.86 121.468 1237.78 122.805 1237.04 124.51L1236.79 124.404C1237.55 122.657 1238.66 121.292 1239.91 120.033C1240.54 119.404 1241.21 118.8 1241.89 118.189C1242.56 117.577 1243.25 116.957 1243.93 116.294L1244.12 116.485ZM1236.78 124.457V90.2839H1237.05V124.457H1236.78ZM1236.78 90.2839V83.18H1237.05V90.2839H1236.78ZM1236.78 83.18V81.4146H1237.05V83.18H1236.78ZM1236.91 81.2816C1239.09 81.134 1241.3 81.7895 1243.2 83.1487L1243.05 83.3658C1241.19 82.0397 1239.04 81.4045 1236.92 81.5476L1236.91 81.2816Z" fill="black" mask="url(#path-36-inside-17)"/>
<path d="M1433.93 100.586L1433.94 100.578L1433.94 100.571C1434.19 100.07 1434.68 99.0748 1434.92 98.2686C1434.98 98.0674 1435.03 97.8796 1435.05 97.7154C1435.07 97.55 1435.07 97.4137 1435.04 97.3129C1435.02 97.2144 1434.97 97.1555 1434.9 97.1288C1434.82 97.1018 1434.71 97.1027 1434.55 97.1543C1434.16 98.0358 1433.31 98.9234 1432.22 99.8253C1431.25 100.636 1430.08 101.463 1428.88 102.313C1428.73 102.421 1428.57 102.528 1428.42 102.637C1427.06 103.601 1425.69 104.596 1424.53 105.63C1423.36 106.665 1422.41 107.735 1421.9 108.851C1417.78 117.872 1409.13 123.535 1400.89 122.595C1394.39 140.919 1386.34 158.655 1377.19 175.243C1386.55 170.286 1397.34 170.959 1405.63 177.695C1405.91 170.639 1410.92 164.458 1416.29 161.783C1421.65 159.11 1427.57 159.208 1433.25 159.762C1430.85 154.515 1428.76 148.873 1428.66 142.768C1428.52 134.103 1433.29 126.059 1439.2 121.134C1436.59 118.96 1434.56 115.713 1433.48 112.058L1433.54 112.039L1433.48 112.058C1432.38 108.364 1433.09 104.429 1433.93 100.586Z" fill="black" stroke="black" stroke-width="0.133333"/>
<path d="M1463.55 100.553L1463.57 100.573L1463.57 100.6C1463.57 101.343 1463.7 102.224 1463.89 103.186C1463.99 103.65 1464.09 104.132 1464.2 104.627L1464.21 104.68C1464.32 105.192 1464.43 105.718 1464.54 106.248C1464.95 108.365 1465.24 110.573 1464.69 112.392C1463.61 115.977 1461.58 119.165 1458.97 121.302C1464.89 126.105 1469.65 133.97 1469.51 142.457C1469.42 148.438 1467.33 153.971 1464.94 159.121C1470.62 158.556 1476.53 158.441 1481.9 161.039C1487.27 163.641 1492.28 169.678 1492.57 176.59C1500.85 169.963 1511.64 169.266 1521 174.087C1511.84 157.871 1503.78 140.527 1497.28 122.602C1489.03 123.55 1480.38 118.034 1476.26 109.21C1475.75 108.117 1474.76 106.911 1473.53 105.675C1472.3 104.439 1470.82 103.178 1469.33 101.976C1468.1 100.988 1466.86 100.041 1465.73 99.1803C1465.49 98.9931 1465.25 98.8099 1465.01 98.6313C1463.78 97.6828 1462.72 96.862 1462.06 96.2439C1462.02 96.9459 1462.25 97.8658 1462.57 98.6888C1462.73 99.126 1462.92 99.5328 1463.09 99.861C1463.27 100.191 1463.43 100.436 1463.55 100.553Z" fill="black" stroke="black" stroke-width="0.133333"/>
<mask id="path-40-inside-18" fill="white">
<path d="M1443.26 84.2573C1442.38 79.2466 1442.36 74.0039 1443.25 68.9999C1440.11 72.4906 1438.03 77.5146 1437.54 82.8119C1437.28 85.5346 1437.43 88.2919 1437.27 91.0266C1437.21 92.0266 1437.11 93.0226 1436.97 94.0079C1436.35 94.7959 1435.94 95.4146 1435.84 95.7399C1435.6 96.5493 1434.76 99.3839 1434.05 102.528C1434.05 112.048 1440.76 115.828 1442.37 117.389C1445.09 120.052 1447.98 122.005 1449.48 125.457V91.2839V84.18V82.4146C1447.33 82.2693 1445.15 82.9146 1443.26 84.2573"/>
</mask>
<path d="M1443.26 84.2573C1442.38 79.2466 1442.36 74.0039 1443.25 68.9999C1440.11 72.4906 1438.03 77.5146 1437.54 82.8119C1437.28 85.5346 1437.43 88.2919 1437.27 91.0266C1437.21 92.0266 1437.11 93.0226 1436.97 94.0079C1436.35 94.7959 1435.94 95.4146 1435.84 95.7399C1435.6 96.5493 1434.76 99.3839 1434.05 102.528C1434.05 112.048 1440.76 115.828 1442.37 117.389C1445.09 120.052 1447.98 122.005 1449.48 125.457V91.2839V84.18V82.4146C1447.33 82.2693 1445.15 82.9146 1443.26 84.2573" fill="black"/>
<path d="M1443.25 68.9999L1443.15 68.9108L1443.46 68.5633L1443.38 69.0233L1443.25 68.9999ZM1437.54 82.8119L1437.67 82.8244L1437.67 82.8244L1437.54 82.8119ZM1437.27 91.0266L1437.14 91.019L1437.14 91.0188L1437.27 91.0266ZM1436.97 94.0079L1437.1 94.0267L1437.1 94.0622L1437.07 94.0904L1436.97 94.0079ZM1435.84 95.7399L1435.71 95.7013L1435.71 95.7012L1435.84 95.7399ZM1434.05 102.528H1433.91V102.513L1433.92 102.499L1434.05 102.528ZM1442.37 117.389L1442.46 117.294L1442.46 117.294L1442.37 117.389ZM1449.48 125.457H1449.61L1449.35 125.51L1449.48 125.457ZM1449.48 82.4146L1449.49 82.2816L1449.61 82.29V82.4146H1449.48ZM1443.13 84.2803C1442.25 79.2549 1442.22 73.9965 1443.12 68.9765L1443.38 69.0233C1442.49 74.0114 1442.52 79.2383 1443.4 84.2342L1443.13 84.2803ZM1443.35 69.0891C1440.23 72.5557 1438.16 77.5516 1437.67 82.8244L1437.4 82.7995C1437.9 77.4777 1439.99 72.4256 1443.15 68.9108L1443.35 69.0891ZM1437.67 82.8244C1437.54 84.1798 1437.52 85.5449 1437.5 86.9162C1437.49 88.286 1437.48 89.6631 1437.4 91.0345L1437.14 91.0188C1437.22 89.6555 1437.22 88.2866 1437.23 86.9133C1437.25 85.5417 1437.28 84.1668 1437.4 82.7995L1437.67 82.8244ZM1437.4 91.0342C1437.34 92.0384 1437.24 93.0381 1437.1 94.0267L1436.84 93.9892C1436.98 93.0071 1437.08 92.0149 1437.14 91.019L1437.4 91.0342ZM1437.07 94.0904C1436.76 94.4826 1436.51 94.8309 1436.32 95.1203C1436.13 95.413 1436.01 95.6355 1435.97 95.7786L1435.71 95.7012C1435.77 95.5191 1435.91 95.2695 1436.1 94.9746C1436.29 94.6763 1436.55 94.3213 1436.86 93.9255L1437.07 94.0904ZM1435.97 95.7786C1435.72 96.5866 1434.89 99.4178 1434.18 102.557L1433.92 102.499C1434.63 99.3501 1435.47 96.5119 1435.71 95.7013L1435.97 95.7786ZM1434.18 102.528C1434.18 111.977 1440.83 115.708 1442.46 117.294L1442.27 117.485C1440.69 115.948 1433.91 112.119 1433.91 102.528H1434.18ZM1442.46 117.294C1443.14 117.957 1443.83 118.577 1444.51 119.189C1445.18 119.8 1445.85 120.404 1446.48 121.033C1447.73 122.292 1448.84 123.657 1449.6 125.404L1449.35 125.51C1448.61 123.805 1447.53 122.468 1446.29 121.221C1445.67 120.598 1445 119.998 1444.33 119.387C1443.65 118.776 1442.96 118.153 1442.27 117.485L1442.46 117.294ZM1449.34 125.457V91.2839H1449.61V125.457H1449.34ZM1449.34 91.2839V84.18H1449.61V91.2839H1449.34ZM1449.34 84.18V82.4146H1449.61V84.18H1449.34ZM1449.47 82.5476C1447.35 82.4045 1445.2 83.0397 1443.34 84.3658L1443.19 84.1487C1445.09 82.7895 1447.3 82.134 1449.49 82.2816L1449.47 82.5476Z" fill="black" mask="url(#path-40-inside-18)"/>
<mask id="path-42-inside-19" fill="white">
<path d="M1455.69 84.2573C1456.57 79.2466 1456.6 74.0039 1455.7 68.9999C1458.84 72.4906 1460.92 77.5146 1461.41 82.8119C1461.67 85.5346 1461.52 88.2919 1461.68 91.0266C1461.74 92.0266 1461.84 93.0226 1461.98 94.0079C1462.6 94.7959 1463.01 95.4146 1463.11 95.7399C1463.36 96.5493 1464.2 99.3839 1464.9 102.528C1464.9 112.048 1458.19 115.828 1456.59 117.389C1453.86 120.052 1450.97 122.005 1449.48 125.457V91.2839V84.18V82.4146C1451.63 82.2693 1453.8 82.9146 1455.69 84.2573"/>
</mask>
<path d="M1455.69 84.2573C1456.57 79.2466 1456.6 74.0039 1455.7 68.9999C1458.84 72.4906 1460.92 77.5146 1461.41 82.8119C1461.67 85.5346 1461.52 88.2919 1461.68 91.0266C1461.74 92.0266 1461.84 93.0226 1461.98 94.0079C1462.6 94.7959 1463.01 95.4146 1463.11 95.7399C1463.36 96.5493 1464.2 99.3839 1464.9 102.528C1464.9 112.048 1458.19 115.828 1456.59 117.389C1453.86 120.052 1450.97 122.005 1449.48 125.457V91.2839V84.18V82.4146C1451.63 82.2693 1453.8 82.9146 1455.69 84.2573" fill="black"/>
<path d="M1455.7 68.9999L1455.57 69.0234L1455.49 68.563L1455.8 68.9108L1455.7 68.9999ZM1461.41 82.8119L1461.55 82.7995L1461.55 82.7995L1461.41 82.8119ZM1461.68 91.0266L1461.55 91.0344L1461.55 91.0344L1461.68 91.0266ZM1461.98 94.0079L1461.88 94.0903L1461.86 94.0622L1461.85 94.0269L1461.98 94.0079ZM1463.11 95.7399L1462.98 95.7788L1462.98 95.7786L1463.11 95.7399ZM1464.9 102.528L1465.03 102.499L1465.04 102.513V102.528H1464.9ZM1456.59 117.389L1456.49 117.294L1456.49 117.294L1456.59 117.389ZM1449.48 125.457L1449.6 125.51L1449.34 125.457H1449.48ZM1449.48 82.4146H1449.34V82.29L1449.47 82.2816L1449.48 82.4146ZM1455.56 84.2342C1456.43 79.2383 1456.46 74.0114 1455.57 69.0234L1455.83 68.9765C1456.73 73.9965 1456.7 79.2549 1455.82 84.2803L1455.56 84.2342ZM1455.8 68.9108C1458.96 72.4255 1461.05 77.4776 1461.55 82.7995L1461.28 82.8244C1460.79 77.5516 1458.72 72.5557 1455.6 69.0891L1455.8 68.9108ZM1461.55 82.7995C1461.68 84.1668 1461.7 85.5417 1461.72 86.9133C1461.73 88.2866 1461.73 89.6555 1461.81 91.0188L1461.55 91.0344C1461.47 89.6631 1461.47 88.286 1461.45 86.9162C1461.44 85.5449 1461.41 84.1797 1461.28 82.8244L1461.55 82.7995ZM1461.81 91.0188C1461.87 92.0149 1461.98 93.0072 1462.12 93.989L1461.85 94.0269C1461.71 93.038 1461.61 92.0383 1461.55 91.0344L1461.81 91.0188ZM1462.09 93.9256C1462.4 94.3214 1462.66 94.6764 1462.85 94.9746C1463.05 95.2696 1463.18 95.5191 1463.24 95.7012L1462.98 95.7786C1462.94 95.6355 1462.82 95.413 1462.63 95.1203C1462.44 94.8308 1462.19 94.4825 1461.88 94.0903L1462.09 93.9256ZM1463.24 95.7011C1463.48 96.5119 1464.33 99.3501 1465.03 102.499L1464.77 102.557C1464.07 99.4178 1463.23 96.5866 1462.98 95.7788L1463.24 95.7011ZM1465.04 102.528C1465.04 112.119 1458.26 115.948 1456.68 117.485L1456.49 117.294C1458.12 115.708 1464.77 111.977 1464.77 102.528H1465.04ZM1456.68 117.485C1456 118.153 1455.3 118.776 1454.63 119.387C1453.95 119.998 1453.29 120.598 1452.66 121.221C1451.42 122.468 1450.34 123.805 1449.6 125.51L1449.35 125.404C1450.11 123.657 1451.22 122.292 1452.48 121.033C1453.1 120.404 1453.77 119.8 1454.45 119.189C1455.12 118.577 1455.81 117.957 1456.49 117.294L1456.68 117.485ZM1449.34 125.457V91.2839H1449.61V125.457H1449.34ZM1449.34 91.2839V84.18H1449.61V91.2839H1449.34ZM1449.34 84.18V82.4146H1449.61V84.18H1449.34ZM1449.47 82.2816C1451.65 82.134 1453.86 82.7895 1455.76 84.1487L1455.61 84.3658C1453.75 83.0397 1451.6 82.4045 1449.49 82.5476L1449.47 82.2816Z" fill="black" mask="url(#path-42-inside-19)"/>
<mask id="path-44-inside-20" fill="white">
<path d="M997.16 109.378C993.914 111.642 991.394 114.926 990.043 118.645C988.693 122.364 988.491 126.546 989.527 130.363C980.906 129.279 971.325 131.549 965.894 138.333C962.053 143.13 960.365 149.217 959.211 155.253C954.302 150.138 948.888 145.174 942.199 142.825C935.509 140.475 926.882 141.143 922.132 146.407C918.825 134.305 909.184 124.858 897.23 121.045C916.41 115.781 935.308 108.713 953.139 99.9032C960.113 107.39 971.72 110.142 981.311 106.585C986.109 104.806 991.048 101.611 995.652 99.3771C996.871 102.665 996.694 105.904 997.16 109.378"/>
</mask>
<path d="M997.16 109.378C993.914 111.642 991.394 114.926 990.043 118.645C988.693 122.364 988.491 126.546 989.527 130.363C980.906 129.279 971.325 131.549 965.894 138.333C962.053 143.13 960.365 149.217 959.211 155.253C954.302 150.138 948.888 145.174 942.199 142.825C935.509 140.475 926.882 141.143 922.132 146.407C918.825 134.305 909.184 124.858 897.23 121.045C916.41 115.781 935.308 108.713 953.139 99.9032C960.113 107.39 971.72 110.142 981.311 106.585C986.109 104.806 991.048 101.611 995.652 99.3771C996.871 102.665 996.694 105.904 997.16 109.378" fill="black"/>
<path d="M990.043 118.645L989.918 118.6L989.918 118.6L990.043 118.645ZM989.527 130.363L989.656 130.329L989.708 130.521L989.511 130.496L989.527 130.363ZM965.894 138.333L965.998 138.416L965.998 138.416L965.894 138.333ZM959.211 155.253L959.342 155.278L959.294 155.531L959.115 155.345L959.211 155.253ZM942.199 142.825L942.243 142.699L942.243 142.699L942.199 142.825ZM922.132 146.407L922.231 146.497L922.068 146.678L922.004 146.442L922.132 146.407ZM897.23 121.045L897.19 121.172L896.761 121.035L897.195 120.916L897.23 121.045ZM953.139 99.9032L953.08 99.7836L953.169 99.7397L953.236 99.8123L953.139 99.9032ZM981.311 106.585L981.264 106.46L981.264 106.46L981.311 106.585ZM995.652 99.3771L995.594 99.2571L995.726 99.193L995.777 99.3307L995.652 99.3771ZM997.237 109.488C994.013 111.736 991.51 114.997 990.168 118.691L989.918 118.6C991.278 114.855 993.815 111.548 997.084 109.269L997.237 109.488ZM990.168 118.691C988.827 122.384 988.627 126.538 989.656 130.329L989.399 130.398C988.355 126.554 988.558 122.343 989.918 118.6L990.168 118.691ZM989.511 130.496C980.917 129.415 971.39 131.682 965.998 138.416L965.79 138.25C971.26 131.417 980.896 129.144 989.544 130.231L989.511 130.496ZM965.998 138.416C962.178 143.187 960.495 149.246 959.342 155.278L959.08 155.228C960.235 149.188 961.927 143.074 965.79 138.25L965.998 138.416ZM959.115 155.345C954.207 150.232 948.811 145.289 942.155 142.95L942.243 142.699C948.964 145.059 954.397 150.044 959.307 155.16L959.115 155.345ZM942.155 142.95C935.493 140.611 926.932 141.287 922.231 146.497L922.033 146.318C926.833 140.998 935.525 140.339 942.243 142.699L942.155 142.95ZM922.004 146.442C918.709 134.387 909.104 124.973 897.19 121.172L897.271 120.918C909.264 124.744 918.941 134.223 922.261 146.372L922.004 146.442ZM897.195 120.916C916.367 115.655 935.257 108.589 953.08 99.7836L953.198 100.023C935.359 108.836 916.453 115.907 897.265 121.173L897.195 120.916ZM953.236 99.8123C960.173 107.26 971.724 109.998 981.264 106.46L981.357 106.71C971.715 110.286 960.052 107.52 953.041 99.9941L953.236 99.8123ZM981.264 106.46C983.654 105.574 986.082 104.334 988.491 103.034C990.897 101.736 993.288 100.376 995.594 99.2571L995.71 99.4971C993.412 100.612 991.031 101.966 988.617 103.269C986.207 104.57 983.765 105.817 981.357 106.71L981.264 106.46ZM995.777 99.3307C996.392 100.99 996.654 102.635 996.821 104.294C996.988 105.962 997.059 107.624 997.292 109.361L997.028 109.396C996.795 107.658 996.721 105.964 996.555 104.321C996.39 102.671 996.131 101.052 995.527 99.4235L995.777 99.3307Z" fill="black" mask="url(#path-44-inside-20)"/>
<mask id="path-46-inside-21" fill="white">
<path d="M1019.92 109.378C1023.17 111.641 1025.69 114.926 1027.04 118.644C1028.39 122.364 1028.59 126.546 1027.55 130.362C1036.18 129.278 1045.76 131.549 1051.19 138.332C1055.03 143.129 1056.72 149.216 1057.87 155.253C1062.78 150.137 1068.2 145.174 1074.88 142.823C1081.57 140.474 1090.2 141.142 1094.95 146.406C1098.26 134.305 1107.9 124.858 1119.85 121.044C1100.67 115.78 1081.77 108.713 1063.94 99.903C1056.97 107.389 1045.36 110.142 1035.77 106.584C1030.97 104.805 1026.03 101.61 1021.43 99.3769C1020.21 102.664 1020.39 105.904 1019.92 109.378"/>
</mask>
<path d="M1019.92 109.378C1023.17 111.641 1025.69 114.926 1027.04 118.644C1028.39 122.364 1028.59 126.546 1027.55 130.362C1036.18 129.278 1045.76 131.549 1051.19 138.332C1055.03 143.129 1056.72 149.216 1057.87 155.253C1062.78 150.137 1068.2 145.174 1074.88 142.823C1081.57 140.474 1090.2 141.142 1094.95 146.406C1098.26 134.305 1107.9 124.858 1119.85 121.044C1100.67 115.78 1081.77 108.713 1063.94 99.903C1056.97 107.389 1045.36 110.142 1035.77 106.584C1030.97 104.805 1026.03 101.61 1021.43 99.3769C1020.21 102.664 1020.39 105.904 1019.92 109.378" fill="black"/>
<path d="M1027.04 118.644L1026.91 118.69L1026.91 118.69L1027.04 118.644ZM1027.55 130.362L1027.57 130.495L1027.37 130.519L1027.43 130.327L1027.55 130.362ZM1051.19 138.332L1051.08 138.415L1051.08 138.415L1051.19 138.332ZM1057.87 155.253L1057.97 155.346L1057.79 155.532L1057.74 155.278L1057.87 155.253ZM1074.88 142.823L1074.84 142.698L1074.84 142.698L1074.88 142.823ZM1094.95 146.406L1095.08 146.441L1095.01 146.676L1094.85 146.495L1094.95 146.406ZM1119.85 121.044L1119.89 120.915L1120.32 121.034L1119.89 121.171L1119.85 121.044ZM1063.94 99.903L1063.85 99.8121L1063.91 99.7395L1064 99.7835L1063.94 99.903ZM1035.77 106.584L1035.82 106.459L1035.82 106.459L1035.77 106.584ZM1021.43 99.3769L1021.31 99.3305L1021.36 99.1929L1021.49 99.257L1021.43 99.3769ZM1020 109.269C1023.27 111.547 1025.8 114.854 1027.16 118.599L1026.91 118.69C1025.57 114.997 1023.07 111.735 1019.85 109.488L1020 109.269ZM1027.16 118.599C1028.52 122.343 1028.73 126.554 1027.68 130.397L1027.43 130.327C1028.46 126.538 1028.26 122.384 1026.91 118.69L1027.16 118.599ZM1027.54 130.23C1036.19 129.142 1045.82 131.417 1051.29 138.249L1051.08 138.415C1045.69 131.682 1036.16 129.414 1027.57 130.495L1027.54 130.23ZM1051.29 138.249C1055.15 143.072 1056.85 149.187 1058 155.228L1057.74 155.278C1056.59 149.245 1054.9 143.185 1051.08 138.415L1051.29 138.249ZM1057.78 155.161C1062.68 150.043 1068.12 145.059 1074.84 142.698L1074.93 142.949C1068.27 145.288 1062.87 150.231 1057.97 155.346L1057.78 155.161ZM1074.84 142.698C1081.56 140.338 1090.25 140.998 1095.05 146.317L1094.85 146.495C1090.15 141.287 1081.59 140.61 1074.93 142.949L1074.84 142.698ZM1094.82 146.371C1098.14 134.223 1107.82 124.744 1119.81 120.917L1119.89 121.171C1107.98 124.973 1098.37 134.387 1095.08 146.441L1094.82 146.371ZM1119.82 121.172C1100.63 115.906 1081.72 108.836 1063.89 100.023L1064 99.7835C1081.83 108.589 1100.72 115.653 1119.89 120.915L1119.82 121.172ZM1064.04 99.9939C1057.03 107.519 1045.37 110.286 1035.72 106.709L1035.82 106.459C1045.36 109.998 1056.91 107.259 1063.85 99.8121L1064.04 99.9939ZM1035.72 106.709C1033.32 105.816 1030.88 104.569 1028.46 103.268C1026.05 101.966 1023.67 100.612 1021.37 99.4969L1021.49 99.257C1023.79 100.375 1026.19 101.735 1028.59 103.033C1031 104.333 1033.43 105.573 1035.82 106.459L1035.72 106.709ZM1021.56 99.4233C1020.95 101.051 1020.69 102.67 1020.53 104.321C1020.36 105.964 1020.29 107.658 1020.05 109.396L1019.79 109.361C1020.02 107.624 1020.09 105.961 1020.26 104.294C1020.43 102.634 1020.69 100.989 1021.31 99.3305L1021.56 99.4233Z" fill="black" mask="url(#path-46-inside-21)"/>
<mask id="path-48-inside-22" fill="white">
<path d="M1001.7 86.9067C1000.82 81.896 1000.8 76.6534 1001.69 71.6494C998.549 75.14 996.472 80.164 995.976 85.4614C995.72 88.184 995.869 90.9414 995.708 93.676C995.651 94.676 995.547 95.672 995.407 96.6574C994.787 97.4454 994.379 98.064 994.28 98.3894C994.035 99.1987 993.195 102.033 992.487 105.177C992.487 114.697 999.201 118.477 1000.8 120.039C1003.53 122.701 1006.42 124.655 1007.91 128.107V93.9334V86.8294V85.064C1005.76 84.9187 1003.59 85.564 1001.7 86.9067"/>
</mask>
<path d="M1001.7 86.9067C1000.82 81.896 1000.8 76.6534 1001.69 71.6494C998.549 75.14 996.472 80.164 995.976 85.4614C995.72 88.184 995.869 90.9414 995.708 93.676C995.651 94.676 995.547 95.672 995.407 96.6574C994.787 97.4454 994.379 98.064 994.28 98.3894C994.035 99.1987 993.195 102.033 992.487 105.177C992.487 114.697 999.201 118.477 1000.8 120.039C1003.53 122.701 1006.42 124.655 1007.91 128.107V93.9334V86.8294V85.064C1005.76 84.9187 1003.59 85.564 1001.7 86.9067" fill="black"/>
<path d="M1001.69 71.6494L1001.59 71.5602L1001.9 71.2128L1001.82 71.6728L1001.69 71.6494ZM995.976 85.4614L996.109 85.4738L996.109 85.4738L995.976 85.4614ZM995.708 93.676L995.575 93.6684L995.575 93.6682L995.708 93.676ZM995.407 96.6574L995.539 96.6761L995.534 96.7116L995.511 96.7398L995.407 96.6574ZM994.28 98.3894L994.152 98.3507L994.152 98.3507L994.28 98.3894ZM992.487 105.177H992.353V105.163L992.357 105.148L992.487 105.177ZM1000.8 120.039L1000.9 119.943L1000.9 119.943L1000.8 120.039ZM1007.91 128.107H1008.05L1007.79 128.16L1007.91 128.107ZM1007.91 85.064L1007.92 84.931L1008.05 84.9394V85.064H1007.91ZM1001.57 86.9298C1000.69 81.9043 1000.66 76.6459 1001.56 71.626L1001.82 71.6728C1000.93 76.6608 1000.96 81.8877 1001.83 86.8836L1001.57 86.9298ZM1001.79 71.7385C998.67 75.2051 996.602 80.201 996.109 85.4738L995.843 85.4489C996.342 80.1271 998.429 75.075 1001.59 71.5602L1001.79 71.7385ZM996.109 85.4738C995.981 86.8292 995.955 88.1943 995.94 89.5656C995.925 90.9354 995.922 92.3125 995.841 93.6839L995.575 93.6682C995.655 92.3049 995.658 90.936 995.673 89.5628C995.688 88.1911 995.715 86.8162 995.843 85.4489L996.109 85.4738ZM995.841 93.6837C995.784 94.6878 995.679 95.6875 995.539 96.6761L995.275 96.6386C995.414 95.6565 995.518 94.6643 995.575 93.6684L995.841 93.6837ZM995.511 96.7398C995.203 97.132 994.948 97.4803 994.759 97.7697C994.568 98.0624 994.451 98.2849 994.408 98.4281L994.152 98.3507C994.208 98.1685 994.344 97.9189 994.536 97.624C994.731 97.3257 994.99 96.9707 995.302 96.5749L995.511 96.7398ZM994.408 98.428C994.163 99.236 993.324 102.067 992.617 105.207L992.357 105.148C993.066 102 993.907 99.1613 994.152 98.3507L994.408 98.428ZM992.62 105.177C992.62 114.626 999.269 118.357 1000.9 119.943L1000.71 120.134C999.133 118.597 992.353 114.769 992.353 105.177H992.62ZM1000.9 119.943C1001.58 120.607 1002.27 121.226 1002.94 121.838C1003.62 122.45 1004.29 123.053 1004.91 123.683C1006.17 124.942 1007.28 126.307 1008.04 128.054L1007.79 128.16C1007.05 126.455 1005.97 125.117 1004.73 123.871C1004.1 123.247 1003.44 122.648 1002.77 122.036C1002.09 121.425 1001.39 120.802 1000.71 120.134L1000.9 119.943ZM1007.78 128.107V93.9334H1008.05V128.107H1007.78ZM1007.78 93.9334V86.8294H1008.05V93.9334H1007.78ZM1007.78 86.8294V85.064H1008.05V86.8294H1007.78ZM1007.91 85.1971C1005.79 85.054 1003.64 85.6891 1001.78 87.0152L1001.63 86.7981C1003.53 85.4389 1005.74 84.7834 1007.92 84.931L1007.91 85.1971Z" fill="black" mask="url(#path-48-inside-22)"/>
<mask id="path-50-inside-23" fill="white">
<path d="M1014.13 86.9067C1015.01 81.896 1015.03 76.6534 1014.14 71.6494C1017.28 75.14 1019.36 80.164 1019.85 85.4614C1020.11 88.184 1019.96 90.9414 1020.12 93.676C1020.18 94.676 1020.28 95.672 1020.42 96.6574C1021.04 97.4454 1021.45 98.064 1021.55 98.3894C1021.79 99.1987 1022.63 102.033 1023.34 105.177C1023.34 114.697 1016.63 118.477 1015.03 120.039C1012.3 122.701 1009.41 124.655 1007.91 128.107V93.9334V86.8294V85.064C1010.06 84.9187 1012.24 85.564 1014.13 86.9067"/>
</mask>
<path d="M1014.13 86.9067C1015.01 81.896 1015.03 76.6534 1014.14 71.6494C1017.28 75.14 1019.36 80.164 1019.85 85.4614C1020.11 88.184 1019.96 90.9414 1020.12 93.676C1020.18 94.676 1020.28 95.672 1020.42 96.6574C1021.04 97.4454 1021.45 98.064 1021.55 98.3894C1021.79 99.1987 1022.63 102.033 1023.34 105.177C1023.34 114.697 1016.63 118.477 1015.03 120.039C1012.3 122.701 1009.41 124.655 1007.91 128.107V93.9334V86.8294V85.064C1010.06 84.9187 1012.24 85.564 1014.13 86.9067" fill="black"/>
<path d="M1014.14 71.6494L1014.01 71.6728L1013.93 71.2124L1014.24 71.5602L1014.14 71.6494ZM1019.85 85.4614L1019.99 85.4489L1019.99 85.4489L1019.85 85.4614ZM1020.12 93.676L1019.99 93.6838L1019.99 93.6838L1020.12 93.676ZM1020.42 96.6574L1020.32 96.7397L1020.3 96.7116L1020.29 96.6763L1020.42 96.6574ZM1021.55 98.3894L1021.42 98.4282L1021.42 98.4281L1021.55 98.3894ZM1023.34 105.177L1023.47 105.148L1023.47 105.163V105.177H1023.34ZM1015.03 120.039L1014.93 119.943L1014.93 119.943L1015.03 120.039ZM1007.91 128.107L1008.04 128.16L1007.78 128.107H1007.91ZM1007.91 85.064H1007.78V84.9394L1007.91 84.931L1007.91 85.064ZM1013.99 86.8836C1014.87 81.8877 1014.9 76.6608 1014.01 71.6728L1014.27 71.6259C1015.17 76.6459 1015.14 81.9044 1014.26 86.9298L1013.99 86.8836ZM1014.24 71.5602C1017.4 75.075 1019.49 80.127 1019.99 85.4489L1019.72 85.4738C1019.23 80.201 1017.16 75.2051 1014.04 71.7385L1014.24 71.5602ZM1019.99 85.4489C1020.11 86.8162 1020.14 88.1911 1020.16 89.5628C1020.17 90.936 1020.17 92.3049 1020.25 93.6682L1019.99 93.6838C1019.91 92.3125 1019.9 90.9354 1019.89 89.5656C1019.87 88.1943 1019.85 86.8291 1019.72 85.4738L1019.99 85.4489ZM1020.25 93.6682C1020.31 94.6643 1020.41 95.6566 1020.55 96.6384L1020.29 96.6763C1020.15 95.6874 1020.05 94.6877 1019.99 93.6838L1020.25 93.6682ZM1020.53 96.575C1020.84 96.9708 1021.1 97.3258 1021.29 97.624C1021.48 97.919 1021.62 98.1685 1021.68 98.3507L1021.42 98.4281C1021.38 98.2849 1021.26 98.0624 1021.07 97.7697C1020.88 97.4802 1020.63 97.1319 1020.32 96.7397L1020.53 96.575ZM1021.68 98.3505C1021.92 99.1614 1022.76 102 1023.47 105.148L1023.21 105.207C1022.51 102.067 1021.67 99.236 1021.42 98.4282L1021.68 98.3505ZM1023.47 105.177C1023.47 114.769 1016.7 118.597 1015.12 120.134L1014.93 119.943C1016.56 118.357 1023.21 114.626 1023.21 105.177H1023.47ZM1015.12 120.134C1014.43 120.802 1013.74 121.425 1013.06 122.036C1012.39 122.648 1011.73 123.247 1011.1 123.871C1009.86 125.117 1008.78 126.455 1008.04 128.16L1007.79 128.054C1008.55 126.307 1009.66 124.942 1010.91 123.683C1011.54 123.053 1012.21 122.45 1012.89 121.838C1013.56 121.226 1014.25 120.607 1014.93 119.943L1015.12 120.134ZM1007.78 128.107V93.9334H1008.05V128.107H1007.78ZM1007.78 93.9334V86.8294H1008.05V93.9334H1007.78ZM1007.78 86.8294V85.064H1008.05V86.8294H1007.78ZM1007.91 84.931C1010.09 84.7834 1012.3 85.4389 1014.2 86.7981L1014.05 87.0152C1012.19 85.6891 1010.04 85.054 1007.92 85.1971L1007.91 84.931Z" fill="black" mask="url(#path-50-inside-23)"/>
</svg>
