<svg width="600" height="700" viewBox="0 0 600 700" fill="none" xmlns="http://www.w3.org/2000/svg">
<path d="M600 700H0V7.15256e-05H600V700Z" fill="#FBC4B9"/>
<path d="M85.0116 328.846C72.0671 271.105 71.0226 172.721 123.187 179.99C175.672 187.305 158.351 260.865 149.309 314.782C140.267 368.697 176.434 372.213 176.434 372.213C176.434 372.213 102.091 405.033 85.0116 328.846" fill="#FFFEF4"/>
<path d="M152.323 276.492C152.323 276.492 99.4114 216.325 94.7224 244.455C90.0335 272.586 106.108 309.312 116.155 297.59C126.201 285.869 128.88 300.716 143.616 300.716C158.351 300.716 152.323 276.492 152.323 276.492Z" fill="#FFFEF4"/>
<path d="M101.563 216.318C100.057 220.959 97.4485 224.109 95.7377 223.353C94.0267 222.597 93.8589 218.222 95.365 213.581C96.8721 208.939 99.4792 205.789 101.192 206.545C102.903 207.301 103.069 211.676 101.563 216.318" fill="#060809"/>
<path d="M114.575 220.388C114.877 225.339 117.186 229.18 119.732 228.969C122.277 228.757 124.097 224.573 123.794 219.624C123.493 214.673 121.184 210.832 118.638 211.042C116.093 211.255 114.273 215.439 114.575 220.388" fill="#060809"/>
<path d="M107.151 242.32C106.166 250.16 104.944 243.239 102.418 242.808C99.893 242.375 97.021 248.597 98.0054 240.758C98.9893 232.918 102.885 223.933 105.41 224.365C107.936 224.795 108.134 234.48 107.151 242.32Z" fill="#060809"/>
<path d="M96.5312 200.735C96.5312 200.735 100.03 202.517 105.543 196.352" stroke="#060809" stroke-width="1.33333" stroke-miterlimit="10" stroke-linecap="round" stroke-linejoin="round"/>
<path d="M125.213 206.821C125.213 206.821 119.247 205.802 115.482 198.051" stroke="#060809" stroke-width="1.33333" stroke-miterlimit="10" stroke-linecap="round" stroke-linejoin="round"/>
<path d="M86.0156 253.833C86.0156 253.833 56.5467 202.261 54.5367 226.482C52.5272 250.707 57.8859 276.492 61.2337 271.023C64.5829 265.553 75.3 278.837 81.9971 291.34C88.6945 303.841 86.0156 253.833 86.0156 253.833Z" fill="#FFFEF4"/>
<path d="M146.294 273.367C146.294 273.367 116.826 221.795 114.816 246.019C112.807 270.24 118.165 296.027 121.513 290.557C124.862 285.087 135.578 298.371 142.276 310.874" stroke="#060809" stroke-width="1.33333" stroke-miterlimit="10" stroke-linecap="round" stroke-linejoin="round"/>
<path d="M263.28 609.105V602.595H266.183L267.969 607.022L271.094 605.199L270.201 599.729L273.104 598.426L275.336 602.854L263.28 609.105Z" fill="#F3651B"/>
<path d="M200.664 193.911C200.664 193.911 235.003 123.676 207.152 120.652C179.303 117.628 191.709 173.695 191.709 173.695C191.709 173.695 175.597 104.762 147.522 123.497C130.08 135.135 177.793 180.154 177.793 180.154C177.793 180.154 136.621 143.612 136.538 170.712C136.419 210.686 200.664 193.911 200.664 193.911" fill="#060809"/>
<path d="M158.232 136.332C165.512 145.72 172.667 155.235 179.824 164.745L190.482 179.088C194.034 183.87 197.593 188.646 201.101 193.471L200.088 193.855C200.868 183.725 201.568 173.586 202.426 163.465C203.238 153.338 204.09 143.216 205.034 133.101C204.523 143.258 203.917 153.403 203.274 163.546C202.674 173.695 201.918 183.828 201.238 193.967L201.131 195.563L200.226 194.349C196.662 189.579 193.15 184.759 189.629 179.943L179.074 165.498C172.087 155.816 165.097 146.137 158.232 136.332" fill="#FBC4B9"/>
<path d="M146.587 174.812C151.165 176.128 155.705 177.591 160.239 179.074C164.775 180.557 169.277 182.157 173.799 183.693C178.291 185.338 182.8 186.924 187.278 188.621L193.989 191.195C196.213 192.102 198.45 192.963 200.664 193.911C198.372 193.267 196.101 192.536 193.819 191.852L187.011 189.652C182.476 188.167 177.972 186.571 173.452 185.031C168.96 183.383 164.451 181.801 159.973 180.102C155.495 178.402 151.023 176.68 146.587 174.812" fill="#FBC4B9"/>
<path d="M199.093 134.137C199.306 136.622 199.716 139.064 200.383 141.351C201.066 143.604 202.1 145.789 203.759 146.958C204.562 147.609 205.496 147.885 206.333 147.657C207.191 147.444 207.936 146.65 208.553 145.736C209.764 143.845 210.581 141.504 211.246 139.142C211.027 141.627 210.526 144.14 209.318 146.366C208.722 147.459 207.846 148.525 206.618 148.939C205.384 149.334 204.07 148.886 203.125 148.145C201.104 146.666 200.027 144.111 199.49 141.666C198.938 139.185 198.842 136.625 199.093 134.137" fill="#FBC4B9"/>
<path d="M161.126 151.056C162.622 151.599 164.119 152.061 165.594 152.37C167.014 152.621 168.722 152.689 169.225 151.52C169.525 150.928 169.63 150.106 169.6 149.271C169.59 148.429 169.472 147.57 169.337 146.703C169.025 144.98 168.623 143.237 168.156 141.491C169.044 143.004 169.758 144.656 170.244 146.43C170.497 147.315 170.652 148.244 170.734 149.209C170.796 150.167 170.726 151.229 170.263 152.22C170.023 152.71 169.621 153.151 169.183 153.396C168.749 153.641 168.29 153.769 167.857 153.794C166.985 153.84 166.169 153.688 165.392 153.433C163.847 152.916 162.425 152.089 161.126 151.056Z" fill="#FBC4B9"/>
<path d="M174.425 166.316C175.998 167.401 177.577 168.445 179.176 169.351C179.981 169.777 180.793 170.202 181.603 170.405C182.418 170.621 183.18 170.604 183.385 169.985C183.727 169.305 183.794 168.275 183.773 167.288C183.748 166.28 183.613 165.259 183.48 164.23C183.158 162.183 182.768 160.117 182.326 158.048C183.203 159.924 183.906 161.912 184.394 163.995C184.643 165.036 184.81 166.107 184.907 167.215C184.95 168.321 184.96 169.509 184.416 170.702C184.151 171.342 183.463 171.81 182.898 171.86C182.321 171.943 181.804 171.842 181.326 171.688C180.376 171.36 179.532 170.873 178.735 170.31C177.14 169.196 175.718 167.829 174.425 166.316" fill="#FBC4B9"/>
<path d="M195.697 157.124C196.43 159.361 197.302 161.517 198.331 163.498C198.874 164.468 199.458 165.392 200.153 166.137C200.83 166.907 201.658 167.405 202.505 167.475C204.263 167.705 205.897 166.147 207.066 164.342C208.266 162.512 209.228 160.402 210.066 158.22C209.671 160.572 208.984 162.896 207.83 164.972C207.257 166.008 206.566 166.995 205.655 167.765C204.744 168.522 203.576 168.987 202.396 168.87C201.208 168.739 200.124 168.016 199.373 167.094C198.61 166.168 197.999 165.132 197.522 164.037C196.572 161.846 195.984 159.504 195.697 157.124" fill="#FBC4B9"/>
<path d="M157.163 172.477C158.686 173.278 160.078 174.505 161.119 176.136C162.164 177.746 162.763 179.909 162.475 182.03C162.342 183.11 161.876 184.135 161.257 184.933C160.622 185.733 159.823 186.265 159.01 186.63C157.378 187.375 155.646 187.498 153.991 187.274C155.628 186.956 157.232 186.461 158.626 185.633C160.03 184.825 161.094 183.486 161.29 181.808C161.539 180.098 161.128 178.31 160.34 176.735C159.528 175.17 158.434 173.73 157.163 172.477" fill="#FBC4B9"/>
<path d="M171.171 177.042C172.693 177.84 174.086 179.068 175.125 180.698C176.173 182.311 176.771 184.474 176.481 186.593C176.351 187.675 175.885 188.7 175.266 189.497C174.629 190.298 173.829 190.83 173.018 191.194C171.386 191.94 169.653 192.062 167.999 191.838C169.637 191.521 171.24 191.024 172.633 190.197C174.037 189.389 175.103 188.049 175.297 186.372C175.548 184.661 175.136 182.875 174.349 181.3C173.535 179.735 172.442 178.295 171.171 177.042" fill="#FBC4B9"/>
<path d="M455.844 471.306C455.844 471.306 490.183 401.071 462.333 398.045C434.483 395.021 446.891 451.091 446.891 451.091C446.891 451.091 430.777 382.158 402.703 400.892C385.261 412.53 432.973 457.547 432.973 457.547C432.973 457.547 391.801 421.008 391.719 448.107C391.599 488.082 455.844 471.306 455.844 471.306" fill="#060809"/>
<path d="M413.415 413.728C420.694 423.115 427.847 432.63 435.005 442.14L445.663 456.484C449.215 461.267 452.773 466.042 456.282 470.868L455.271 471.249C456.048 461.12 456.748 450.982 457.606 440.859C458.419 430.733 459.271 420.611 460.216 410.496C459.703 420.653 459.099 430.8 458.454 440.943C457.855 451.09 457.098 461.222 456.42 471.363L456.313 472.957L455.407 471.746C451.843 466.974 448.33 462.153 444.81 457.34L434.254 442.894C427.269 433.211 420.277 423.531 413.415 413.728" fill="#FBC4B9"/>
<path d="M401.769 452.208C406.347 453.523 410.886 454.984 415.421 456.47C419.956 457.95 424.459 459.553 428.98 461.088C433.474 462.731 437.98 464.317 442.459 466.016L449.171 468.59C451.395 469.497 453.63 470.359 455.844 471.306C453.552 470.663 451.282 469.931 448.999 469.248L442.192 467.045C437.658 465.561 433.152 463.964 428.632 462.427C424.14 460.779 419.632 459.197 415.155 457.495C410.675 455.796 406.203 454.076 401.769 452.208" fill="#FBC4B9"/>
<path d="M454.274 411.533C454.487 414.018 454.896 416.458 455.564 418.745C456.246 420.998 457.282 423.182 458.939 424.351C459.742 425.002 460.676 425.279 461.514 425.05C462.372 424.84 463.117 424.044 463.733 423.13C464.944 421.24 465.762 418.899 466.426 416.538C466.21 419.021 465.707 421.536 464.498 423.762C463.902 424.854 463.027 425.919 461.798 426.333C460.566 426.728 459.251 426.279 458.305 425.54C456.284 424.058 455.209 421.503 454.672 419.06C454.12 416.58 454.024 414.019 454.274 411.533" fill="#FBC4B9"/>
<path d="M416.308 428.452C417.802 428.995 419.3 429.457 420.775 429.765C422.195 430.016 423.902 430.084 424.406 428.915C424.706 428.323 424.811 427.501 424.78 426.666C424.771 425.824 424.652 424.965 424.518 424.098C424.206 422.373 423.804 420.63 423.337 418.887C424.224 420.398 424.938 422.051 425.424 423.824C425.677 424.71 425.833 425.639 425.916 426.605C425.977 427.562 425.908 428.624 425.444 429.617C425.204 430.105 424.802 430.546 424.366 430.793C423.929 431.038 423.473 431.164 423.037 431.188C422.166 431.235 421.35 431.083 420.574 430.826C419.027 430.31 417.606 429.482 416.308 428.452" fill="#FBC4B9"/>
<path d="M429.606 443.712C431.179 444.796 432.758 445.84 434.357 446.746C435.163 447.17 435.973 447.598 436.784 447.8C437.598 448.016 438.361 448 438.566 447.381C438.908 446.698 438.974 445.669 438.953 444.682C438.928 443.674 438.793 442.654 438.661 441.625C438.34 439.576 437.948 437.513 437.507 435.442C438.384 437.318 439.086 439.306 439.574 441.388C439.824 442.43 439.991 443.503 440.087 444.609C440.13 445.717 440.141 446.905 439.596 448.097C439.331 448.737 438.644 449.204 438.078 449.255C437.501 449.337 436.985 449.236 436.507 449.081C435.557 448.756 434.714 448.268 433.918 447.705C432.323 446.592 430.898 445.225 429.606 443.712" fill="#FBC4B9"/>
<path d="M450.877 434.52C451.611 436.757 452.481 438.911 453.513 440.892C454.055 441.861 454.638 442.787 455.334 443.531C456.012 444.3 456.837 444.801 457.685 444.871C459.444 445.101 461.077 443.54 462.247 441.735C463.447 439.907 464.409 437.798 465.247 435.614C464.851 437.968 464.166 440.292 463.011 442.368C462.437 443.404 461.747 444.391 460.835 445.161C459.924 445.917 458.759 446.382 457.575 446.264C456.389 446.134 455.305 445.41 454.553 444.488C453.789 443.562 453.179 442.528 452.702 441.431C451.752 439.239 451.165 436.897 450.877 434.52Z" fill="#FBC4B9"/>
<path d="M412.344 449.873C413.867 450.671 415.259 451.899 416.299 453.529C417.344 455.14 417.943 457.304 417.655 459.423C417.523 460.505 417.058 461.531 416.437 462.328C415.802 463.128 415.003 463.66 414.191 464.023C412.56 464.771 410.826 464.891 409.172 464.668C410.809 464.352 412.414 463.855 413.807 463.028C415.211 462.22 416.275 460.88 416.471 459.203C416.722 457.492 416.31 455.704 415.523 454.131C414.709 452.564 413.615 451.125 412.344 449.873" fill="#FBC4B9"/>
<path d="M426.353 454.437C427.873 455.237 429.268 456.464 430.308 458.094C431.353 459.704 431.951 461.867 431.663 463.988C431.531 465.069 431.066 466.095 430.446 466.892C429.81 467.691 429.012 468.223 428.198 468.588C426.568 469.333 424.835 469.456 423.179 469.232C424.818 468.916 426.421 468.419 427.814 467.592C429.22 466.784 430.283 465.444 430.478 463.768C430.728 462.057 430.318 460.27 429.529 458.695C428.718 457.129 427.624 455.689 426.353 454.437" fill="#FBC4B9"/>
<path d="M195.979 567.9C195.979 567.9 265.212 571.638 254.856 541.325C244.5 511.014 207.339 549.403 207.339 549.403C207.339 549.403 252.635 501.312 225.566 480.661C208.749 467.831 196.081 537.879 196.081 537.879C196.081 537.879 205.253 478.481 184.527 490.721C153.957 508.774 195.979 567.9 195.979 567.9" fill="#060809"/>
<path d="M220.638 497.627C216.782 509.46 212.773 521.22 208.768 532.981L202.666 550.579C200.629 556.445 198.602 562.314 196.513 568.153L195.761 567.276C203.848 563.478 211.906 559.595 220.024 555.884C228.124 552.124 236.238 548.405 244.388 544.788C236.402 548.874 228.38 552.859 220.345 556.802C212.326 560.794 204.247 564.616 196.198 568.522L194.932 569.137L195.445 567.644C197.467 561.772 199.549 555.929 201.624 550.082L207.851 532.545C212.066 520.883 216.275 509.218 220.638 497.627Z" fill="#FBC4B9"/>
<path d="M185.968 503.026C187.045 508.381 187.993 513.764 188.923 519.148C189.855 524.535 190.679 529.942 191.563 535.339C192.352 540.754 193.191 546.16 193.93 551.585L195.018 559.73C195.336 562.453 195.696 565.168 195.979 567.9C195.427 565.223 194.953 562.534 194.439 559.852L193.023 551.777C192.094 546.389 191.265 540.983 190.383 535.587C189.598 530.169 188.755 524.765 188.019 519.339C187.278 513.914 186.558 508.483 185.968 503.026" fill="#FBC4B9"/>
<path d="M240.895 539.086C239.095 540.435 237.419 541.971 235.975 543.706C234.566 545.44 233.369 547.508 233.231 549.763C233.099 550.892 233.314 551.988 233.869 552.754C234.42 553.55 235.366 553.963 236.342 554.189C238.337 554.586 240.496 554.371 242.6 553.988C240.606 554.893 238.459 555.513 236.21 555.269C235.104 555.146 233.893 554.722 233.018 553.634C232.157 552.532 231.901 550.962 232.036 549.644C232.247 546.871 233.708 544.59 235.328 542.922C236.972 541.219 238.883 539.956 240.895 539.086" fill="#FBC4B9"/>
<path d="M210.714 507.331C210.978 509.13 211.308 510.897 211.744 512.57C212.197 514.159 212.922 515.965 214.043 515.956C214.631 515.998 215.307 515.734 215.931 515.321C216.569 514.93 217.171 514.415 217.773 513.881C218.946 512.773 220.093 511.562 221.213 510.283C220.463 511.895 219.525 513.387 218.393 514.699C217.831 515.364 217.193 515.948 216.493 516.473C215.791 516.973 214.948 517.384 213.979 517.353C213.498 517.327 212.977 517.108 212.591 516.767C212.207 516.425 211.902 516.007 211.685 515.567C211.253 514.682 210.999 513.767 210.84 512.843C210.532 511.002 210.517 509.148 210.714 507.331" fill="#FBC4B9"/>
<path d="M205.114 528.087C205.001 530.215 204.922 532.329 204.958 534.404C204.999 535.433 205.042 536.47 205.257 537.405C205.462 538.348 205.821 539.134 206.386 539.066C207.063 539.111 207.879 538.713 208.623 538.24C209.38 537.755 210.099 537.152 210.825 536.547C212.241 535.282 213.639 533.936 215.019 532.535C213.984 534.302 212.787 535.935 211.42 537.39C210.737 538.121 209.994 538.783 209.193 539.385C208.368 539.935 207.466 540.485 206.308 540.462C205.699 540.478 205.029 539.976 204.733 539.412C204.408 538.85 204.251 538.268 204.151 537.699C203.968 536.564 203.957 535.466 204.024 534.381C204.149 532.218 204.545 530.117 205.114 528.087" fill="#FBC4B9"/>
<path d="M221.803 546.01C220.429 547.788 219.18 549.674 218.136 551.645C217.643 552.649 217.202 553.676 216.95 554.737C216.672 555.792 216.666 556.878 216.997 557.789C217.622 559.721 219.556 560.71 221.465 561.105C223.406 561.519 225.455 561.56 227.502 561.438C225.526 562.096 223.439 562.44 221.329 562.185C220.278 562.061 219.21 561.79 218.209 561.195C217.218 560.592 216.331 559.593 215.884 558.31C215.442 557.017 215.502 555.562 215.864 554.362C216.224 553.147 216.737 552.042 217.357 551.047C218.598 549.065 220.118 547.389 221.803 546.01" fill="#FBC4B9"/>
<path d="M192.559 512.953C192.641 514.897 192.337 516.904 191.567 518.726C190.813 520.544 189.432 522.149 187.682 522.814C186.798 523.169 185.803 523.153 184.913 522.87C184.014 522.574 183.243 521.986 182.595 521.307C181.284 519.951 180.404 518.206 179.822 516.386C180.809 517.942 181.917 519.383 183.181 520.455C184.436 521.546 185.943 522.043 187.313 521.483C188.732 520.965 189.911 519.725 190.754 518.192C191.579 516.633 192.181 514.843 192.559 512.953" fill="#FBC4B9"/>
<path d="M195.445 529.584C195.527 531.528 195.223 533.535 194.453 535.356C193.698 537.174 192.319 538.782 190.569 539.445C189.683 539.799 188.689 539.784 187.799 539.501C186.899 539.204 186.128 538.618 185.481 537.937C184.171 536.582 183.289 534.837 182.707 533.017C183.693 534.575 184.802 536.014 186.068 537.086C187.323 538.177 188.829 538.675 190.199 538.114C191.618 537.596 192.795 536.356 193.639 534.823C194.466 533.264 195.067 531.474 195.445 529.584" fill="#FBC4B9"/>
<path d="M424.98 218.284C424.98 218.284 494.213 222.024 483.857 191.712C473.501 161.397 436.34 199.788 436.34 199.788C436.34 199.788 481.636 151.697 454.567 131.045C437.75 118.214 425.083 188.265 425.083 188.265C425.083 188.265 434.254 128.866 413.528 141.104C382.958 159.16 424.98 218.284 424.98 218.284Z" fill="#060809"/>
<path d="M449.639 148.012C445.783 159.845 441.774 171.605 437.769 183.368L431.667 200.964C429.63 206.829 427.603 212.699 425.514 218.54L424.762 217.662C432.849 213.864 440.907 209.98 449.023 206.269C457.123 202.507 465.239 198.79 473.389 195.173C465.403 199.258 457.383 203.245 449.346 207.187C441.327 211.18 433.248 215.001 425.199 218.907L423.933 219.521L424.446 218.029C426.468 212.157 428.55 206.314 430.624 200.467L436.852 182.93C441.067 171.268 445.276 159.603 449.639 148.012Z" fill="#FBC4B9"/>
<path d="M414.968 153.411C416.046 158.766 416.994 164.147 417.924 169.534C418.855 174.919 419.679 180.328 420.564 185.724C421.352 191.139 422.191 196.544 422.93 201.971L424.019 210.115C424.337 212.838 424.697 215.554 424.98 218.284C424.428 215.61 423.954 212.919 423.439 210.236L422.023 202.161C421.094 196.776 420.265 191.367 419.383 185.972C418.599 180.555 417.756 175.15 417.019 169.723C416.279 164.297 415.559 158.869 414.968 153.411" fill="#FBC4B9"/>
<path d="M469.897 189.47C468.096 190.821 466.42 192.356 464.976 194.09C463.567 195.824 462.371 197.894 462.232 200.147C462.1 201.278 462.315 202.374 462.87 203.14C463.421 203.935 464.367 204.348 465.345 204.574C467.338 204.971 469.497 204.757 471.601 204.372C469.607 205.276 467.46 205.898 465.211 205.654C464.106 205.533 462.894 205.107 462.019 204.019C461.158 202.916 460.902 201.347 461.037 200.029C461.248 197.256 462.709 194.977 464.329 193.306C465.973 191.604 467.884 190.34 469.897 189.47Z" fill="#FBC4B9"/>
<path d="M439.715 157.714C439.979 159.515 440.309 161.281 440.744 162.954C441.198 164.543 441.923 166.348 443.045 166.34C443.631 166.383 444.307 166.117 444.931 165.705C445.569 165.313 446.172 164.8 446.773 164.266C447.947 163.157 449.094 161.948 450.213 160.67C449.463 162.28 448.526 163.772 447.393 165.084C446.832 165.75 446.193 166.334 445.494 166.859C444.792 167.357 443.948 167.769 442.98 167.738C442.499 167.712 441.978 167.495 441.591 167.152C441.207 166.81 440.903 166.393 440.685 165.952C440.253 165.067 439.999 164.151 439.841 163.229C439.532 161.386 439.518 159.533 439.715 157.714" fill="#FBC4B9"/>
<path d="M434.114 178.47C434.001 180.6 433.922 182.715 433.958 184.789C433.999 185.819 434.042 186.856 434.257 187.79C434.462 188.734 434.822 189.519 435.387 189.451C436.063 189.495 436.879 189.096 437.623 188.625C438.38 188.142 439.099 187.537 439.824 186.931C441.241 185.666 442.639 184.321 444.019 182.92C442.985 184.685 441.787 186.319 440.421 187.775C439.737 188.506 438.995 189.168 438.193 189.771C437.369 190.319 436.466 190.87 435.309 190.846C434.7 190.863 434.03 190.362 433.735 189.795C433.409 189.234 433.251 188.653 433.152 188.086C432.968 186.949 432.957 185.851 433.025 184.768C433.149 182.605 433.545 180.503 434.114 178.47" fill="#FBC4B9"/>
<path d="M450.804 196.395C449.43 198.174 448.181 200.059 447.137 202.031C446.644 203.034 446.203 204.063 445.951 205.124C445.673 206.177 445.667 207.263 445.998 208.174C446.623 210.106 448.556 211.095 450.466 211.488C452.407 211.904 454.456 211.946 456.503 211.823C454.526 212.481 452.441 212.827 450.331 212.57C449.279 212.446 448.212 212.177 447.21 211.581C446.219 210.977 445.332 209.978 444.884 208.695C444.443 207.403 444.504 205.947 444.866 204.747C445.225 203.533 445.738 202.429 446.358 201.433C447.599 199.45 449.12 197.775 450.804 196.395" fill="#FBC4B9"/>
<path d="M421.56 163.338C421.643 165.284 421.338 167.289 420.568 169.11C419.814 170.93 418.434 172.535 416.684 173.2C415.799 173.555 414.804 173.537 413.914 173.257C413.015 172.959 412.244 172.371 411.596 171.693C410.286 170.337 409.405 168.592 408.823 166.771C409.81 168.328 410.918 169.768 412.182 170.839C413.437 171.933 414.944 172.428 416.315 171.87C417.733 171.352 418.912 170.111 419.755 168.575C420.581 167.02 421.182 165.228 421.56 163.338" fill="#FBC4B9"/>
<path d="M424.446 179.969C424.527 181.913 424.224 183.919 423.453 185.742C422.699 187.561 421.32 189.165 419.57 189.832C418.683 190.186 417.69 190.169 416.799 189.888C415.899 189.589 415.13 189.001 414.482 188.324C413.172 186.967 412.29 185.223 411.709 183.401C412.695 184.958 413.803 186.4 415.069 187.471C416.323 188.563 417.83 189.06 419.199 188.5C420.619 187.981 421.796 186.742 422.641 185.207C423.467 183.651 424.068 181.859 424.446 179.969" fill="#FBC4B9"/>
<path d="M171.076 313.999C171.076 313.999 169.737 229.608 215.951 204.604" stroke="#060809" stroke-width="1.33333" stroke-miterlimit="10"/>
<path d="M172.416 301.497C172.416 301.497 159.02 295.637 164.044 283.525C169.067 271.414 172.416 293.292 172.416 293.292C172.416 293.292 180.119 280.008 183.132 284.306C186.145 288.604 172.416 301.497 172.416 301.497V301.497Z" stroke="#060809" stroke-width="1.33333" stroke-miterlimit="10"/>
<path d="M173.755 280.008C173.755 280.008 161.365 265.161 166.387 253.051C171.411 240.94 175.429 271.804 175.429 271.804C175.429 271.804 187.145 255.165 191.169 258.129C197.532 262.819 173.755 280.008 173.755 280.008Z" stroke="#060809" stroke-width="1.33333" stroke-miterlimit="10"/>
<path d="M178.606 256.535C178.606 256.535 168.23 237.814 177.104 229.219C183.46 223.061 181.122 248.629 181.122 248.629C181.122 248.629 194.48 233.771 198.168 237.283C203.995 242.838 178.606 256.535 178.606 256.535V256.535Z" stroke="#060809" stroke-width="1.33333" stroke-miterlimit="10"/>
<path d="M187.313 235.535C187.313 235.535 182.797 217.497 187.485 214.372C194.667 209.584 191.169 228.402 191.169 228.402C191.169 228.402 202.247 218.255 205.233 222.576C209.958 229.411 187.313 235.535 187.313 235.535V235.535Z" stroke="#060809" stroke-width="1.33333" stroke-miterlimit="10"/>
<path d="M200.334 215.705C200.334 215.705 202.207 197.041 207.569 196.297C215.782 195.156 206.27 210.892 206.27 210.892C206.27 210.892 219.863 206.588 221.168 211.929C223.232 220.372 200.334 215.705 200.334 215.705V215.705Z" stroke="#060809" stroke-width="1.33333" stroke-miterlimit="10"/>
<path d="M215.769 205.059C215.769 205.059 217.159 191.191 221.143 190.639C227.245 189.791 220.179 201.482 220.179 201.482C220.179 201.482 230.277 198.286 231.247 202.254C232.78 208.526 215.769 205.059 215.769 205.059Z" stroke="#060809" stroke-width="1.33333" stroke-miterlimit="10"/>
<path d="M148.993 402.083C148.993 402.083 77.0931 392.714 61.8203 336.016" stroke="#060809" stroke-width="1.33333" stroke-miterlimit="10"/>
<path d="M138.54 398.916C138.54 398.916 131.825 413.655 122.182 406.276C112.538 398.898 131.567 397.855 131.567 397.855C131.567 397.855 121.273 387.226 125.316 384.295C129.359 381.363 138.54 398.916 138.54 398.916V398.916Z" stroke="#060809" stroke-width="1.33333" stroke-miterlimit="10"/>
<path d="M120.45 394.587C120.45 394.587 106.228 407 96.5837 399.62C86.9392 392.244 113.693 391.587 113.693 391.587C113.693 391.587 101.066 375.88 104.107 371.61C108.916 364.855 120.45 394.587 120.45 394.587V394.587Z" stroke="#060809" stroke-width="1.33333" stroke-miterlimit="10"/>
<path d="M101.126 385.938C101.126 385.938 83.872 395.517 77.7139 384.141C73.303 375.991 94.732 382.004 94.732 382.004C94.732 382.004 83.8321 364.626 87.2952 360.818C92.7702 354.794 101.126 385.938 101.126 385.938V385.938Z" stroke="#060809" stroke-width="1.33333" stroke-miterlimit="10"/>
<path d="M84.4042 373.146C84.4042 373.146 68.4892 376.038 66.4384 370.21C63.2987 361.282 78.8392 367.763 78.8392 367.763C78.8392 367.763 71.6486 353.636 75.7089 350.738C82.1299 346.158 84.4042 373.146 84.4042 373.146Z" stroke="#060809" stroke-width="1.33333" stroke-miterlimit="10"/>
<path d="M69.2342 355.518C69.2342 355.518 53.614 350.937 53.6755 344.637C53.7687 334.988 65.9122 348.028 65.9122 348.028C65.9122 348.028 64.0132 331.746 68.721 330.927C76.1632 329.632 69.2342 355.518 69.2342 355.518Z" stroke="#060809" stroke-width="1.33333" stroke-miterlimit="10"/>
<path d="M62.183 336.286C62.183 336.286 50.5773 332.881 50.6227 328.202C50.6922 321.033 59.7141 330.721 59.7141 330.721C59.7141 330.721 58.3032 318.623 61.8015 318.014C67.3314 317.052 62.183 336.286 62.183 336.286Z" stroke="#060809" stroke-width="1.33333" stroke-miterlimit="10"/>
<path d="M464.119 364.505C464.119 364.505 534.001 342.66 541.812 283.931" stroke="#060809" stroke-width="1.33333" stroke-miterlimit="10"/>
<path d="M474.047 359.545C474.047 359.545 482.579 372.942 491.166 363.959C499.752 354.977 480.804 357.276 480.804 357.276C480.804 357.276 489.616 344.964 485.242 342.776C480.868 340.585 474.047 359.545 474.047 359.545V359.545Z" stroke="#060809" stroke-width="1.33333" stroke-miterlimit="10"/>
<path d="M491.375 352.098C491.375 352.098 507.033 361.882 515.62 352.899C524.206 343.917 497.671 347.952 497.671 347.952C497.671 347.952 508.134 330.214 504.579 326.522C498.958 320.687 491.375 352.098 491.375 352.098V352.098Z" stroke="#060809" stroke-width="1.33333" stroke-miterlimit="10"/>
<path d="M509.369 340.166C509.369 340.166 527.659 346.617 532.284 334.292C535.597 325.463 515.185 335.157 515.185 335.157C515.185 335.157 523.727 316.069 519.813 312.91C513.625 307.913 509.369 340.166 509.369 340.166Z" stroke="#060809" stroke-width="1.33333" stroke-miterlimit="10"/>
<path d="M524.257 324.596C524.257 324.596 540.364 324.667 541.64 318.546C543.598 309.17 529.067 318.297 529.067 318.297C529.067 318.297 534.36 303.071 529.973 300.916C523.036 297.513 524.257 324.596 524.257 324.596V324.596Z" stroke="#060809" stroke-width="1.33333" stroke-miterlimit="10"/>
<path d="M536.988 304.51C536.988 304.51 551.843 297.247 550.973 291.029C549.64 281.506 539.311 296.523 539.311 296.523C539.311 296.523 539.094 280.092 534.334 280.106C526.809 280.13 536.988 304.51 536.988 304.51V304.51Z" stroke="#060809" stroke-width="1.33333" stroke-miterlimit="10"/>
<path d="M541.487 284.26C541.487 284.26 552.523 278.865 551.878 274.246C550.886 267.17 543.214 278.327 543.214 278.327C543.214 278.327 543.052 266.12 539.516 266.132C533.924 266.146 541.487 284.26 541.487 284.26V284.26Z" stroke="#060809" stroke-width="1.33333" stroke-miterlimit="10"/>
<path d="M422.719 339.789C428.357 358.903 447.736 369.221 466.658 361.626C485.58 354.029 496.879 331.396 491.242 312.281C485.604 293.166 467.804 290.985 448.883 298.58C429.961 306.177 417.08 320.674 422.719 339.789" fill="#F3651B"/>
<path d="M441.716 302.499C439.23 304.409 436.991 306.755 435.229 309.518C433.437 312.246 432.147 315.414 431.551 318.763C430.279 325.492 431.538 332.52 433.831 338.807C436.128 345.129 439.635 350.876 444.151 355.305C446.401 357.522 448.935 359.363 451.668 360.675C454.385 362.016 457.323 362.811 460.307 362.86C457.326 362.977 454.327 362.341 451.513 361.13C448.704 359.891 446.082 358.091 443.733 355.902C439.033 351.501 435.447 345.619 433.043 339.198C431.904 335.954 431.013 332.574 430.58 329.088C430.152 325.613 430.177 322.02 430.911 318.59C431.606 315.154 433.003 311.935 434.9 309.218C436.807 306.505 439.158 304.272 441.716 302.499" fill="#060809"/>
<path d="M473.388 357.311C475.583 355.14 477.402 352.495 478.823 349.612C480.266 346.74 481.331 343.623 482.032 340.409C483.439 333.983 483.521 327.159 482.19 320.712C480.954 314.279 478.537 307.958 474.454 303.341C470.424 298.641 464.658 296.307 458.918 296.344C461.788 296.188 464.7 296.561 467.467 297.597C470.227 298.658 472.763 300.484 474.908 302.781C477.068 305.08 478.766 307.919 480.089 310.937C481.411 313.966 482.363 317.19 483.025 320.49C484.315 327.098 484.241 334.088 482.666 340.609C481.873 343.863 480.721 347.003 479.178 349.864C477.617 352.709 475.672 355.266 473.388 357.311" fill="#060809"/>
<path d="M446.82 299.852C444.88 301.744 443.849 304.57 443.506 307.409C443.11 310.261 443.2 313.184 443.524 316.053C444.182 321.801 445.625 327.406 447.38 332.846C449.105 338.303 451.219 343.595 453.761 348.596C455.033 351.092 456.445 353.497 458.056 355.712C459.643 357.934 461.488 359.981 463.769 361.22C461.404 360.188 459.448 358.173 457.74 356.037C456.044 353.86 454.554 351.476 453.198 348.999C450.511 344.024 448.38 338.673 446.578 333.196C444.876 327.681 443.401 322.014 442.872 316.14C442.622 313.212 442.602 310.228 443.095 307.321C443.578 304.45 444.75 301.564 446.82 299.852" fill="#060809"/>
<path d="M469.807 358.728C470.936 356.161 471.367 353.293 471.509 350.449C471.668 347.6 471.565 344.735 471.3 341.895C470.786 336.211 469.752 330.596 468.299 325.135C466.879 319.666 465.113 314.294 462.733 309.31C461.542 306.825 460.153 304.454 458.452 302.415C456.793 300.355 454.678 298.677 452.237 298.166C453.469 298.291 454.664 298.787 455.75 299.485C456.851 300.167 457.843 301.069 458.747 302.065C460.547 304.077 462.023 306.446 463.304 308.923C465.842 313.914 467.622 319.346 469.12 324.843C470.518 330.38 471.576 336.057 471.955 341.827C472.142 344.708 472.174 347.612 471.924 350.493C471.643 353.349 471.112 356.266 469.807 358.728Z" fill="#060809"/>
<path d="M456.303 296.102C456.303 296.102 450.86 295.896 449.196 289.384C447.533 282.876 443.036 268.645 434.192 273.277C429.308 275.837 426.609 283.201 426.609 283.201L433.629 288.756C433.629 288.756 437.706 276.913 441.014 282.502C444.59 288.543 446.125 298.095 443.683 299.373C441.241 300.653 440.647 302.985 440.647 302.985L456.303 296.102" fill="#060809"/>
<path d="M445.627 284.238C444.908 282.939 444.213 281.662 443.483 280.43C442.746 279.209 441.989 278.012 441.115 276.993C440.263 275.953 439.268 275.097 438.147 274.757C437.586 274.597 436.989 274.578 436.386 274.721C435.78 274.861 435.197 275.174 434.594 275.509C435.032 274.931 435.566 274.424 436.2 274.068C436.838 273.738 437.576 273.581 438.302 273.679C439.776 273.867 441.018 274.886 441.969 276.01C442.923 277.169 443.682 278.482 444.284 279.873C444.888 281.259 445.367 282.715 445.627 284.238" fill="#FBC4B9"/>
<path d="M490.025 313.965C489.842 312.271 489.258 310.699 488.533 309.261C488.168 308.543 487.759 307.854 487.308 307.208C486.861 306.555 486.365 305.953 485.857 305.365L486.473 304.949L487.706 309.84L488.742 313.944L486.945 310.194C486.251 308.746 485.514 307.304 484.752 305.896C483.973 304.506 483.147 303.129 482.168 301.974C481.209 300.829 479.958 299.964 478.697 299.19C477.433 298.4 476.119 297.707 474.785 297.056C476.186 297.476 477.558 298.039 478.897 298.704C480.222 299.401 481.545 300.171 482.678 301.361C483.753 302.579 484.614 303.964 485.438 305.367C486.26 306.776 487.004 308.228 487.674 309.747L486.913 310.101L485.767 305.182L485.361 303.444L486.381 304.766C486.878 305.411 487.358 306.076 487.785 306.785C488.217 307.492 488.603 308.234 488.94 309.005C489.273 309.779 489.53 310.594 489.728 311.423C489.92 312.253 490.053 313.109 490.025 313.965" fill="#FFFEF4"/>
<path d="M474.443 306.494C473.777 305.631 473.036 304.896 472.296 304.179C471.543 303.478 470.766 302.821 469.958 302.215C469.147 301.615 468.315 301.05 467.459 300.523L464.835 298.956C465.822 299.116 466.803 299.377 467.736 299.802C468.679 300.198 469.572 300.749 470.427 301.364C472.088 302.655 473.643 304.328 474.443 306.494" fill="#FFFEF4"/>
<path d="M450.968 299.739C452.393 299.991 453.803 300.476 455.118 301.231C456.42 301.988 457.698 303.001 458.541 304.521C458.733 304.909 458.929 305.3 459.068 305.728C459.138 305.942 459.204 306.163 459.231 306.436C459.259 306.672 459.297 307.075 458.995 307.441C458.665 307.769 458.352 307.702 458.133 307.679C457.909 307.637 457.712 307.568 457.53 307.486C457.161 307.324 456.827 307.127 456.499 306.921C455.214 306.058 454.04 305.078 452.904 304.009L453.518 303.501C453.951 305.021 454.338 306.561 454.739 308.092L455.052 309.288L454.305 308.421C453.204 307.142 452.137 305.818 451.083 304.476C452.3 305.615 453.503 306.77 454.67 307.969L454.236 308.296C453.743 306.799 453.236 305.308 452.775 303.799L452.349 302.404L453.39 303.289C454.532 304.262 455.7 305.246 456.919 306.036C457.221 306.23 457.529 306.415 457.831 306.554C458.101 306.718 458.522 306.718 458.421 306.726C458.381 306.793 458.436 306.719 458.405 306.552C458.391 306.408 458.352 306.224 458.298 306.047C458.193 305.687 458.033 305.342 457.88 304.997C457.177 303.666 456.097 302.574 454.877 301.749C453.657 300.923 452.342 300.243 450.968 299.739" fill="#FFFEF4"/>
<path d="M483.445 324.681C483.445 324.681 476.614 313.368 471.649 315.361C466.685 317.355 466.004 328.992 466.004 328.992C466.004 328.992 469.898 324.838 473.095 323.752C477.955 322.1 483.445 324.681 483.445 324.681Z" fill="#FFFEF4"/>
<path d="M482.157 326.394C482.157 326.394 475.324 315.082 470.361 317.073C465.396 319.067 464.716 330.705 464.716 330.705C464.716 330.705 468.611 326.553 471.808 325.466C476.667 323.814 482.157 326.394 482.157 326.394" fill="#060809"/>
<path d="M435.686 342.658C435.686 342.658 435.106 328.835 440.07 326.842C445.033 324.849 451.709 333.533 451.709 333.533C451.709 333.533 446.448 333.056 443.356 334.495C438.654 336.682 435.686 342.658 435.686 342.658Z" fill="#FFFEF4"/>
<path d="M437.606 343.084C437.606 343.084 437.024 329.262 441.989 327.268C446.954 325.275 453.628 333.96 453.628 333.96C453.628 333.96 448.368 333.481 445.274 334.921C440.574 337.107 437.606 343.084 437.606 343.084" fill="#060809"/>
<path d="M475.21 329.782C475.21 329.782 470.29 337.438 461.961 340.483C453.63 343.529 442.111 340.975 442.111 340.975C442.111 340.975 454.099 353.808 464.112 350.385C474.125 346.963 475.21 329.782 475.21 329.782" fill="#FFFEF4"/>
<path d="M475.769 332.548C475.769 332.548 470.85 340.204 462.521 343.249C454.189 346.296 442.671 343.741 442.671 343.741C442.671 343.741 454.658 356.573 464.672 353.151C474.684 349.731 475.769 332.548 475.769 332.548Z" fill="#060809"/>
<path d="M431.337 585.667C431.337 585.667 493.442 542.372 487.199 483.388" stroke="#060809" stroke-width="1.33333" stroke-miterlimit="10"/>
<path d="M439.725 577.73C439.725 577.73 451.072 587.896 457.227 576.518C463.383 565.141 445.695 573.391 445.695 573.391C445.695 573.391 451.287 558.742 446.567 558.029C441.846 557.316 439.725 577.73 439.725 577.73Z" stroke="#060809" stroke-width="1.33333" stroke-miterlimit="10"/>
<path d="M454.651 565.043C454.651 565.043 472.003 569.463 478.159 558.083C484.315 546.706 459.735 559.045 459.735 559.045C459.735 559.045 465.646 538.647 461.362 536.229C454.585 532.408 454.651 565.043 454.651 565.043Z" stroke="#060809" stroke-width="1.33333" stroke-miterlimit="10"/>
<path d="M469.164 547.829C469.164 547.829 488.27 548.202 489.831 534.872C490.951 525.322 473.586 541.156 473.586 541.156C473.586 541.156 477.331 520.071 472.826 518.277C465.704 515.444 469.164 547.829 469.164 547.829Z" stroke="#060809" stroke-width="1.33333" stroke-miterlimit="10"/>
<path d="M479.838 528.101C479.838 528.101 495.349 523.037 495.144 516.741C494.83 507.098 482.989 520.51 482.989 520.51C482.989 520.51 484.516 504.176 479.79 503.504C472.321 502.44 479.838 528.101 479.838 528.101Z" stroke="#060809" stroke-width="1.33333" stroke-miterlimit="10"/>
<path d="M487.38 504.723C487.38 504.723 499.969 493 497.674 487.297C494.163 478.561 487.744 496.299 487.744 496.299C487.744 496.299 483.687 480.564 479.112 482.096C471.877 484.515 487.38 504.723 487.38 504.723V504.723Z" stroke="#060809" stroke-width="1.33333" stroke-miterlimit="10"/>
<path d="M486.966 483.809C486.966 483.809 496.319 475.1 494.615 470.863C492.004 464.371 487.235 477.551 487.235 477.551C487.235 477.551 484.221 465.861 480.823 466.998C475.447 468.795 486.966 483.809 486.966 483.809V483.809Z" stroke="#060809" stroke-width="1.33333" stroke-miterlimit="10"/>
<path d="M229.57 170.759L298.015 162.376L301.21 110.097C301.21 110.097 292.746 98.9183 258.731 101.823C224.716 104.73 217.498 122.58 217.498 122.58L229.57 170.759Z" stroke="#060809" stroke-width="1.41176" stroke-miterlimit="10"/>
<path d="M236.159 163.307L290.477 156.654L293.013 115.167C293.013 115.167 286.296 106.295 259.301 108.601C232.307 110.908 226.578 125.072 226.578 125.072L236.159 163.307Z" stroke="#060809" stroke-width="1.41176" stroke-miterlimit="10"/>
<path d="M232.918 166.576C230.825 159.508 228.901 152.38 226.963 145.257C225.125 138.097 223.18 130.978 221.431 123.789L221.36 123.491L221.484 123.269C222.877 120.77 224.612 118.776 226.482 116.922C228.353 115.077 230.428 113.55 232.57 112.204C233.659 111.574 234.737 110.921 235.87 110.401C236.975 109.816 238.124 109.362 239.275 108.92C240.419 108.457 241.607 108.156 242.766 107.768C243.942 107.446 245.132 107.204 246.313 106.931L242.84 108.083C241.709 108.556 240.552 108.938 239.447 109.481C237.216 110.502 235.04 111.67 232.972 113.053C230.916 114.464 228.967 116.064 227.16 117.853C225.382 119.645 223.686 121.692 222.473 123.932L222.524 123.41C224.424 130.547 226.124 137.753 227.933 144.921C229.642 152.123 231.365 159.32 232.918 166.576" fill="#FFFEF4"/>
<path d="M272.211 139.748L249.774 141.116L247.205 119.322L272.966 118L272.211 139.748Z" stroke="#060809" stroke-width="1.41176" stroke-miterlimit="10"/>
<path d="M241.067 150.297C240.607 151.038 240.219 151.841 239.958 152.688C239.71 153.509 239.59 154.511 240.084 155.127C240.175 155.303 240.363 155.379 240.491 155.512C240.659 155.592 240.826 155.683 240.995 155.743C241.17 155.758 241.339 155.803 241.511 155.806L242.027 155.688C242.711 155.42 243.28 154.804 243.76 154.151C244.723 152.823 245.337 151.108 245.405 149.419C245.406 148.576 245.229 147.77 244.858 147.115C244.456 146.471 243.874 146.087 243.165 145.694C241.783 144.941 240.297 144.458 238.801 143.749C238.057 143.387 237.293 142.995 236.604 142.351C235.913 141.721 235.36 140.783 235.131 139.773C234.875 138.765 234.897 137.745 234.996 136.787C235.096 135.827 235.279 134.893 235.521 133.994C235.987 132.187 236.619 130.481 237.237 128.801C237.864 127.133 238.519 125.474 238.875 123.812C239.027 122.996 239.093 122.161 238.877 121.535C238.776 121.243 238.588 120.926 238.371 120.735C238.163 120.508 237.918 120.464 237.666 120.441C237.142 120.48 236.556 120.942 236.193 121.565C235.831 122.195 235.675 122.968 235.834 123.621C235.882 123.781 235.95 123.932 236.013 124.088C236.118 124.223 236.185 124.358 236.308 124.509C236.574 124.814 236.857 125.114 237.144 125.418L238.894 127.25C240.063 128.488 241.213 129.784 242.184 131.296C242.662 132.056 243.109 132.87 243.371 133.806C243.636 134.715 243.759 135.796 243.415 136.746C242.799 138.494 242.007 140.064 241.193 141.641C240.373 143.207 239.494 144.728 238.555 146.195C240.163 143.073 241.786 139.877 242.826 136.51C243.075 135.731 242.953 134.872 242.698 134.088C242.449 133.29 242.017 132.555 241.548 131.866C240.592 130.487 239.44 129.276 238.249 128.108L236.442 126.351C236.139 126.055 235.842 125.738 235.546 125.408C235.395 125.23 235.239 124.985 235.092 124.772C234.976 124.524 234.862 124.264 234.783 123.995C234.499 122.877 234.761 121.716 235.258 120.83C235.768 119.96 236.554 119.204 237.61 119.092C238.132 119.085 238.696 119.26 239.083 119.651C239.487 120.012 239.769 120.462 239.973 121.009C240.345 122.098 240.219 123.171 240.059 124.123C239.671 126.022 239.014 127.712 238.399 129.395C237.763 131.064 237.135 132.717 236.677 134.408C236.256 136.073 235.877 137.883 236.242 139.409C236.542 140.966 237.813 141.908 239.221 142.566C240.625 143.24 242.157 143.809 243.592 144.675C244.278 145.086 245.098 145.649 245.592 146.537C246.066 147.431 246.238 148.469 246.203 149.457C246.054 151.42 245.329 153.222 244.223 154.631C243.654 155.313 242.999 155.953 242.163 156.223C241.319 156.496 240.361 156.169 239.826 155.375C239.251 154.526 239.485 153.425 239.779 152.607C240.111 151.757 240.558 150.994 241.067 150.297" fill="#060809"/>
<path d="M281.293 146.408C281.832 147.073 282.313 147.809 282.679 148.638C283.009 149.438 283.29 150.524 282.754 151.405C282.254 152.229 281.314 152.614 280.458 152.39C279.611 152.169 278.928 151.57 278.33 150.924C277.164 149.582 276.362 147.825 276.127 145.872C276.049 144.888 276.175 143.842 276.611 142.921C277.066 142.005 277.859 141.393 278.526 140.942C279.924 139.992 281.426 139.332 282.802 138.576C284.178 137.836 285.407 136.821 285.637 135.247C285.935 133.703 285.479 131.918 284.984 130.28C284.456 128.617 283.756 127.003 283.048 125.374C282.361 123.729 281.632 122.08 281.161 120.207C280.961 119.265 280.787 118.202 281.112 117.092C281.291 116.532 281.554 116.067 281.94 115.684C282.311 115.269 282.866 115.062 283.387 115.038C284.448 115.089 285.266 115.797 285.814 116.636C286.348 117.49 286.66 118.632 286.424 119.767C286.357 120.04 286.254 120.309 286.148 120.561C286.013 120.782 285.868 121.037 285.725 121.223C285.443 121.571 285.161 121.904 284.87 122.219L283.141 124.079C282.004 125.317 280.906 126.595 280.012 128.029C279.574 128.746 279.173 129.504 278.96 130.315C278.738 131.113 278.654 131.98 278.936 132.741C280.123 136.044 281.881 139.141 283.624 142.162C282.623 140.752 281.677 139.285 280.792 137.77C279.91 136.243 279.049 134.721 278.358 133.013C277.974 132.086 278.05 130.998 278.275 130.074C278.496 129.124 278.908 128.285 279.35 127.497C280.254 125.93 281.348 124.565 282.461 123.262L284.128 121.328C284.402 121.008 284.672 120.691 284.924 120.371C285.038 120.213 285.102 120.075 285.2 119.931C285.257 119.774 285.318 119.618 285.359 119.455C285.488 118.793 285.299 118.03 284.911 117.424C284.521 116.823 283.916 116.398 283.391 116.388C283.14 116.427 282.896 116.484 282.7 116.722C282.491 116.928 282.317 117.254 282.228 117.554C282.041 118.191 282.142 119.02 282.33 119.828C282.757 121.466 283.483 123.083 284.183 124.712C284.874 126.354 285.578 128.019 286.124 129.796C286.403 130.679 286.626 131.602 286.769 132.555C286.91 133.506 286.974 134.523 286.764 135.545C286.579 136.566 286.068 137.535 285.406 138.207C284.746 138.89 283.998 139.328 283.272 139.734C281.808 140.529 280.344 141.101 278.998 141.935C278.308 142.368 277.742 142.786 277.369 143.454C277.027 144.13 276.886 144.945 276.924 145.788C277.066 147.469 277.752 149.146 278.773 150.416C279.28 151.041 279.875 151.62 280.57 151.85L281.09 151.934C281.262 151.923 281.428 151.868 281.603 151.841C281.768 151.771 281.932 151.671 282.096 151.581C282.22 151.441 282.402 151.353 282.484 151.172C282.953 150.53 282.788 149.536 282.506 148.729C282.209 147.899 281.784 147.119 281.293 146.408" fill="#060809"/>
<path d="M208.583 184.289C208.583 184.289 233.365 156.157 265.513 154.595C297.663 153.033 318.424 171.004 318.424 171.004L208.583 184.289Z" fill="#060809"/>
<path d="M418.996 503.579C418.996 503.579 447.56 491.942 452.49 458.801C461.365 399.142 470.983 358.361 512.382 357.982C553.782 357.604 560.502 407.791 540.011 430.139C519.52 452.487 518.156 456.658 501.959 490.104C481.118 533.137 418.996 503.579 418.996 503.579" fill="#FFFEF4"/>
<path d="M531.912 405.532C530.149 410.05 530.073 414.429 531.737 415.313C533.404 416.196 536.182 413.252 537.943 408.734C539.705 404.218 539.783 399.838 538.117 398.955C536.452 398.07 533.674 401.014 531.912 405.532Z" fill="#060809"/>
<path d="M520.267 397.629C517.043 400.867 513.079 401.663 511.415 399.406C509.749 397.15 511.013 392.696 514.235 389.457C517.459 386.219 521.423 385.424 523.087 387.679C524.753 389.935 523.491 394.39 520.267 397.629" fill="#060809"/>
<path d="M512.161 419.229C508.086 425.569 513.156 421.704 515.198 423.49C517.24 425.277 515.48 432.039 519.554 425.699C523.628 419.36 526.349 409.805 524.306 408.017C522.265 406.231 516.234 412.891 512.161 419.229" fill="#060809"/>
<path d="M544.935 398.719C544.935 398.719 541.385 397.078 541.25 388.17" stroke="#060809" stroke-width="1.33333" stroke-miterlimit="10" stroke-linecap="round" stroke-linejoin="round"/>
<path d="M521.023 379.263C521.023 379.263 525.846 383.482 533.214 381.137" stroke="#060809" stroke-width="1.33333" stroke-miterlimit="10" stroke-linecap="round" stroke-linejoin="round"/>
<path d="M475.858 414.469C475.858 414.469 481.562 434.731 490.3 443.286C499.036 451.839 487.693 476.316 478.772 475.728C469.85 475.139 480.412 473.019 474.862 463.033C469.312 453.046 464.372 456.417 462.029 449.751" stroke="#060809" stroke-width="1.33333" stroke-miterlimit="10" stroke-linecap="round" stroke-linejoin="round"/>
<path d="M531.821 420.682C531.821 420.682 540.359 431.792 551.531 434.466C562.704 437.142 562.709 464.967 554.622 469.401C546.534 473.834 554.959 466.109 546.006 460.406C537.052 454.702 522.885 461.297 518.107 456.735" fill="#FFFEF4"/>
<path d="M133.337 608.971C133.337 608.971 151.853 574.903 182.815 564.687C213.776 554.47 237.546 566.337 237.546 566.337L133.337 608.971Z" fill="#060809"/>
<path d="M195.164 562.916L168.343 476.263C168.343 476.263 152.063 455.388 130.057 462.462C108.052 469.535 106.831 512.153 106.831 512.153L149.569 591.497L195.164 562.916Z" stroke="#060809" stroke-width="1.68181" stroke-miterlimit="10"/>
<path d="M187.043 556.221L149.683 580.128L149.382 580.321L149.196 579.978L131.466 547.422L113.824 514.802L113.724 514.618L113.733 514.412C113.898 510.602 114.328 506.876 114.955 503.163C115.587 499.46 116.433 495.795 117.597 492.25C118.768 488.715 120.241 485.285 122.189 482.199C124.136 479.132 126.59 476.413 129.539 474.625C131.003 473.743 132.575 473.019 134.18 472.658L136.581 472.066C137.393 471.946 138.212 471.881 139.025 471.787C142.286 471.555 145.591 471.894 148.741 472.916C151.889 473.938 154.891 475.496 157.677 477.452C160.472 479.412 163.039 481.737 165.325 484.502L165.389 484.581L165.425 484.694L176.316 520.558L187.043 556.221ZM187.043 556.221L175.689 520.551L164.503 485.082L164.601 485.272C160.154 480.096 154.52 476.122 148.455 474.151C145.411 473.178 142.235 472.871 139.104 473.105C138.323 473.199 137.537 473.263 136.759 473.381L134.451 473.962C132.905 474.313 131.462 474.993 130.082 475.828C127.325 477.515 125.012 480.087 123.156 483.029C121.301 485.99 119.88 489.315 118.749 492.765C116.534 499.681 115.305 507.093 114.92 514.457L114.829 514.065L132.369 546.76L149.821 579.519L149.333 579.369L187.043 556.221Z" fill="#060809"/>
<path d="M133.663 520.559L127.235 499.66C127.235 499.66 132.469 493.431 134.05 498.09C136.759 506.079 129.929 510.181 129.929 510.181L144.397 513.294" stroke="#060809" stroke-width="1.28834" stroke-miterlimit="10"/>
<path d="M145.206 509.842L139.561 493.2" stroke="#060809" stroke-width="1.28834" stroke-miterlimit="10"/>
<path d="M155.463 508.956L148.238 487.654C148.238 487.654 154.289 484.091 156.095 489.416C157.902 494.742 148.653 500.55 148.653 500.55" stroke="#060809" stroke-width="1.28834" stroke-miterlimit="10"/>
<path d="M113.477 492.157C113.155 495.387 112.784 498.604 112.353 501.812C111.949 505.022 111.503 508.226 111.028 511.423L110.958 510.959C113.16 515.239 115.339 519.536 117.439 523.885C119.523 528.248 121.599 532.614 123.523 537.087C121.093 532.963 118.816 528.735 116.545 524.503C114.293 520.257 112.118 515.957 109.967 511.644L109.855 511.421L109.896 511.179C110.427 507.995 110.985 504.816 111.586 501.646C112.16 498.471 112.792 495.309 113.477 492.157" fill="#FFFEF4"/>
<path d="M127.206 482.78C125.371 484.567 123.894 486.723 122.719 489.087C121.54 491.453 120.733 494.04 120.065 496.653C119.377 499.267 118.962 501.973 118.616 504.679C118.309 507.388 118.085 510.147 118.075 512.852L117.983 512.499C119.752 515.768 121.493 519.058 123.192 522.378C124.039 524.04 124.92 525.678 125.739 527.362C126.567 529.038 127.411 530.701 128.212 532.399C127.225 530.841 126.283 529.249 125.326 527.67C124.359 526.096 123.453 524.478 122.514 522.885C120.641 519.694 118.811 516.471 117.006 513.229L116.916 513.068L116.914 512.876C116.899 510.038 117.101 507.262 117.455 504.484C117.813 501.715 118.316 498.961 119.086 496.296C119.877 493.646 120.845 491.049 122.166 488.69C123.517 486.361 125.2 484.285 127.206 482.78" fill="#FFFEF4"/>
<path d="M136.583 530.836L164.379 514.036L143.28 537.869L167.058 524.584L150.983 543.729L168.397 540.995L160.025 549.199" stroke="#060809" stroke-width="1.28834" stroke-miterlimit="10"/>
<path d="M106.026 454.879C106.026 454.879 133.397 430.231 165.487 432.958C197.579 435.684 216.449 456.303 216.449 456.303L106.026 454.879Z" fill="#060809"/>
<path d="M121.859 446.845L135.673 365.256C135.673 365.256 143.155 366.6 150.062 357.869C157.871 348.001 179.417 351.827 181.72 359.213C185.912 372.666 195.533 371.301 195.533 371.301L192.655 452.889L121.859 446.845Z" stroke="#060809" stroke-width="1.71875" stroke-miterlimit="10"/>
<path d="M128.556 438.765L186.517 443.14L185.992 443.686L188.205 376.926L188.913 377.688C186.306 377.874 183.817 376.961 181.779 375.217C179.709 373.516 178.297 370.98 177.345 368.364L176.991 367.371C176.875 367.091 176.803 366.849 176.644 366.604C176.367 366.118 175.978 365.674 175.536 365.295C174.66 364.521 173.623 363.93 172.547 363.465C170.387 362.535 168.069 362.045 165.749 361.856C163.427 361.669 161.079 361.809 158.818 362.37C156.57 362.933 154.362 363.941 152.67 365.68C151.884 366.525 151.007 367.687 150.064 368.548C149.109 369.437 148.093 370.261 146.981 370.879C144.768 372.138 142.335 372.862 139.785 372.575L140.338 372.123L128.556 438.765ZM128.556 438.765L139.379 371.901L139.461 371.402L139.933 371.448C142.128 371.666 144.487 370.976 146.506 369.772C147.535 369.184 148.485 368.413 149.38 367.573C150.306 366.712 150.993 365.769 151.944 364.725C153.835 362.771 156.21 361.698 158.579 361.091C160.966 360.486 163.409 360.333 165.826 360.517C168.241 360.704 170.65 361.197 172.956 362.176C174.106 362.668 175.234 363.291 176.259 364.186C176.772 364.627 177.255 365.159 177.639 365.821C177.843 366.131 177.987 366.539 178.121 366.888L178.457 367.813C179.356 370.258 180.655 372.548 182.503 374.049C184.282 375.597 186.624 376.387 188.759 376.223L189.498 376.167L189.467 376.986L186.97 443.734L186.947 444.328L186.445 444.28L128.556 438.765" fill="#060809"/>
<path d="M146.603 400.841L148.998 378.815C148.998 378.815 156.084 376.033 155.682 381.021C154.991 389.575 147.309 389.617 147.309 389.617L158.993 400.047" stroke="#060809" stroke-width="1.28834" stroke-miterlimit="10"/>
<path d="M161.057 397.397L162.495 379.581" stroke="#060809" stroke-width="1.28834" stroke-miterlimit="10"/>
<path d="M170.543 402.037L172.385 379.229C172.385 379.229 179.164 379.256 178.703 384.958C178.241 390.659 167.741 390.943 167.741 390.943" stroke="#060809" stroke-width="1.28834" stroke-miterlimit="10"/>
<path d="M124.873 443.534C126.78 430.902 128.852 418.31 130.917 405.717L134.117 386.85C135.183 380.561 136.243 374.271 137.367 367.996L137.469 367.426L137.97 367.458C138.758 367.506 139.633 367.443 140.462 367.304C141.297 367.157 142.13 366.967 142.952 366.709C143.777 366.457 144.573 366.092 145.356 365.677C146.159 365.298 146.883 364.748 147.644 364.221C147.038 364.965 146.358 365.644 145.613 366.218C144.873 366.809 144.057 367.258 143.225 367.649C142.391 368.049 141.522 368.353 140.628 368.522C139.731 368.706 138.855 368.816 137.897 368.801L138.498 368.262C137.445 374.555 136.328 380.831 135.219 387.11L131.888 405.946C129.6 418.487 127.319 431.029 124.873 443.534" fill="#FFFEF4"/>
<path d="M181.133 365.783C182.642 367.974 184.442 369.866 186.476 371.189C187.501 371.836 188.599 372.265 189.709 372.53C190.826 372.796 191.966 372.708 193.082 372.53L193.801 372.417L193.778 373.236C193.686 376.556 193.54 379.876 193.343 383.192C193.122 386.509 192.9 389.824 192.52 393.134C192.361 389.8 192.364 386.474 192.366 383.149C192.391 379.824 192.468 376.502 192.599 373.181L193.294 373.885C192.032 374.073 190.733 374.151 189.491 373.776C188.255 373.44 187.073 372.867 186.036 372.055C184.999 371.25 184.05 370.319 183.23 369.257C182.429 368.179 181.684 367.045 181.133 365.783" fill="#FFFEF4"/>
<path d="M142.286 375.162C144.557 374.542 146.748 373.649 148.771 372.448C149.775 371.836 150.753 371.168 151.615 370.339C152.509 369.558 153.275 368.614 153.926 367.588C154.233 367.063 154.517 366.555 154.97 365.891C155.412 365.309 155.949 364.846 156.518 364.519C157.662 363.873 158.868 363.577 160.058 363.455C162.444 363.209 164.803 363.562 167.069 364.221C164.741 364.097 162.411 364.127 160.176 364.539C159.072 364.777 157.974 365.086 157.049 365.691C156.587 365.987 156.175 366.346 155.858 366.783C155.587 367.181 155.234 367.812 154.895 368.413C153.426 370.72 151.359 372.385 149.165 373.435C146.972 374.524 144.621 375.078 142.286 375.162" fill="#FFFEF4"/>
<path d="M142.956 409.542L179.459 411.497" stroke="#060809" stroke-width="1.28834" stroke-miterlimit="10"/>
<path d="M142.956 417.747L179.459 419.7" stroke="#060809" stroke-width="1.28834" stroke-miterlimit="10"/>
<path d="M142.956 427.514L179.459 429.468" stroke="#060809" stroke-width="1.28834" stroke-miterlimit="10"/>
<path d="M427.475 283.468C427.475 283.468 458.72 265.563 491.693 274.545C524.666 283.529 541.853 306.836 541.853 306.836L427.475 283.468" fill="#060809"/>
<path d="M448.856 276.227L453.558 204.73C453.558 204.73 466.847 211.863 473.342 201.172C479.837 190.481 495.107 181.366 505.194 198.598C513.211 212.295 516.902 212.563 521.536 213.396C528.156 214.586 533.452 215.538 533.452 215.538L522.817 288.34L448.856 276.227Z" stroke="#060809" stroke-width="1.41176" stroke-miterlimit="10"/>
<path d="M516.794 277.77L520.594 251.372L524.516 224.998L524.897 225.623C524.438 225.516 523.962 225.397 523.526 225.046C523.092 224.728 522.724 224.175 522.6 223.577C522.462 222.987 522.49 222.404 522.574 221.867C522.664 221.319 522.797 220.831 523.009 220.314L523.382 221.134C520.423 220.699 517.495 220.121 514.579 219.386C513.124 219.011 511.674 218.589 510.24 218.078C509.88 217.956 509.524 217.821 509.168 217.674C508.813 217.546 508.456 217.392 508.087 217.164C507.718 216.968 507.356 216.755 507.053 216.453C506.732 216.177 506.404 215.91 506.144 215.571C505.013 214.305 504.164 212.825 503.358 211.369C502.542 209.913 501.784 208.435 500.933 207.059C499.271 204.297 497.206 201.814 494.568 200.58C493.91 200.276 493.253 199.969 492.548 199.831C492.203 199.752 491.855 199.622 491.512 199.58L490.487 199.513C489.118 199.572 487.754 200.041 486.493 200.805C483.984 202.391 481.847 204.785 479.914 207.339C478.94 208.62 478.021 209.954 477.079 211.301C476.84 211.637 476.609 211.973 476.346 212.309C476.216 212.477 476.101 212.643 475.927 212.817C475.774 212.992 475.613 213.163 475.376 213.28C474.523 213.726 473.774 213.759 473.008 213.839C469.974 214 467.022 213.675 464.053 213.292L464.592 212.719C464.579 213.335 464.539 213.971 464.321 214.566C464.124 215.159 463.806 215.712 463.398 216.125C462.997 216.548 462.536 216.863 462.058 217.094C461.57 217.322 461.096 217.479 460.549 217.553L460.948 217.079L459.301 242.101L457.534 267.115L458.742 242.055L460.07 217.007L460.092 216.587L460.469 216.531C460.867 216.47 461.318 216.321 461.71 216.125C462.107 215.925 462.473 215.662 462.774 215.336C463.082 215.014 463.301 214.609 463.441 214.171C463.601 213.735 463.619 213.238 463.631 212.751L463.649 212.114L464.171 212.179C467.083 212.54 470.056 212.844 472.94 212.67C473.639 212.61 474.403 212.505 474.901 212.235C475.345 211.946 475.825 211.176 476.286 210.542C477.21 209.206 478.141 207.841 479.126 206.531C481.094 203.916 483.278 201.414 485.986 199.678C487.35 198.841 488.88 198.288 490.47 198.215L491.663 198.289C492.054 198.335 492.42 198.468 492.799 198.555C493.562 198.704 494.285 199.03 495.007 199.359C495.377 199.497 495.715 199.721 496.052 199.943C496.387 200.168 496.74 200.363 497.06 200.615C497.677 201.154 498.33 201.646 498.869 202.288C500.021 203.48 500.959 204.892 501.83 206.318C502.706 207.752 503.464 209.246 504.263 210.686C505.051 212.131 505.868 213.548 506.874 214.682C507.86 215.863 509.102 216.426 510.545 216.925C511.94 217.43 513.365 217.853 514.799 218.232C517.67 218.974 520.585 219.565 523.499 220.01L524.166 220.112L523.873 220.831C523.561 221.595 523.362 222.56 523.52 223.285C523.595 223.652 523.782 223.93 524.051 224.142C524.309 224.368 524.674 224.472 525.036 224.564L525.5 224.683L525.419 225.19L521.168 251.493L516.794 277.77" fill="#060809"/>
<path d="M498.047 216.728C497.46 221.178 493.891 224.228 490.078 223.544C486.264 222.858 483.649 218.694 484.236 214.245C484.824 209.796 488.393 206.745 492.206 207.431C496.02 208.116 498.635 212.279 498.047 216.728V216.728Z" stroke="#060809" stroke-width="0.950131" stroke-miterlimit="10"/>
<path d="M471.598 255.412L503.856 260.026" stroke="#060809" stroke-width="1.41176" stroke-miterlimit="10"/>
<path d="M470.424 264.292L502.681 268.908" stroke="#060809" stroke-width="1.41176" stroke-miterlimit="10"/>
<path d="M468.92 273.115L501.178 277.729" stroke="#060809" stroke-width="1.41176" stroke-miterlimit="10"/>
<path d="M470.399 250.741L475.643 229.396C475.643 229.396 483.01 227.906 481.96 232.765C480.161 241.095 472.564 239.774 472.564 239.774L482.748 252.157" stroke="#060809" stroke-width="1.28834" stroke-miterlimit="10"/>
<path d="M485.132 249.906L488.882 232.551" stroke="#060809" stroke-width="1.28834" stroke-miterlimit="10"/>
<path d="M493.903 256.176L498.702 233.962C498.702 233.962 505.397 235.193 504.198 240.747C502.998 246.301 492.582 244.714 492.582 244.714" stroke="#060809" stroke-width="1.28834" stroke-miterlimit="10"/>
<path d="M492.16 194.674C490.608 194.452 489.053 194.632 487.592 195.168C486.124 195.685 484.799 196.63 483.539 197.627C481.014 199.662 478.95 202.381 476.975 205.131L475.518 207.239C475.256 207.599 475.076 207.948 474.748 208.314C474.432 208.692 474.103 209.045 473.723 209.272C472.236 210.293 470.614 210.615 469.036 210.837C465.853 211.236 462.713 210.914 459.583 210.416L460.086 210.199L456.748 214.714L456.869 214.374C456.59 217.885 456.268 221.392 455.97 224.902C455.826 226.656 455.636 228.407 455.468 230.16C455.298 231.913 455.124 233.664 454.925 235.416C454.967 233.652 455.029 231.889 455.099 230.126C455.17 228.364 455.218 226.6 455.314 224.841C455.492 221.32 455.646 217.797 455.845 214.28L455.856 214.092L455.966 213.938L459.248 209.367L459.439 209.1L459.751 209.149C462.782 209.614 465.898 209.765 468.916 209.483C470.41 209.31 471.937 208.993 473.153 208.176C473.477 207.995 473.716 207.728 473.951 207.46C474.197 207.215 474.442 206.788 474.688 206.462L476.185 204.357C477.194 202.955 478.296 201.638 479.448 200.385C480.599 199.132 481.826 197.961 483.169 196.98C485.784 194.961 489.09 193.813 492.16 194.674" fill="#FFFEF4"/>
<path d="M514.61 214.522C516.883 214.981 519.144 215.495 521.389 216.077C523.642 216.628 525.883 217.227 528.119 217.857L528.437 217.948L528.53 218.326L529.648 222.863L529.687 223.03L529.656 223.199C529.033 226.512 528.41 229.824 527.695 233.115C526.994 236.408 526.273 239.697 525.424 242.953C525.792 239.576 526.285 236.23 526.8 232.893C527.299 229.548 527.892 226.227 528.484 222.907L528.493 223.241L527.423 218.69L527.833 219.157C525.614 218.46 523.4 217.729 521.197 216.954C518.987 216.209 516.793 215.394 514.61 214.522" fill="#FFFEF4"/>
<path d="M381.383 589.05L371.336 524.195C371.336 524.195 388.08 508.567 408.842 508.567C429.606 508.567 447.689 523.412 447.689 523.412L435.634 589.05H381.383Z" stroke="#060809" stroke-width="1.41176" stroke-miterlimit="10"/>
<path d="M386.071 578.892L407.936 578.585L429.606 578.361L429.162 578.781C431.932 562.86 434.867 546.98 437.717 531.079L437.85 531.689L429.796 520.768L429.992 520.946C429.329 520.624 428.42 520.358 427.594 520.153C426.748 519.938 425.882 519.778 425.02 519.625C423.284 519.334 421.531 519.148 419.777 518.995C416.263 518.713 412.729 518.622 409.198 518.63C405.666 518.64 402.134 518.769 398.618 519.078C395.124 519.401 391.554 519.848 388.244 520.862L388.517 520.617L381.067 533.838L381.13 533.504C381.961 541.017 382.825 548.517 383.614 556.093L386.071 578.892ZM386.071 578.892L383.172 556.37C382.172 548.838 381.251 541.232 380.296 533.638L380.274 533.462L380.359 533.305L387.644 519.957L387.749 519.768L387.917 519.714C391.452 518.553 394.974 518.154 398.531 517.784C402.08 517.451 405.637 517.304 409.192 517.273C412.746 517.247 416.303 517.317 419.86 517.583C421.638 517.73 423.418 517.909 425.192 518.196C426.079 518.347 426.967 518.505 427.853 518.727C428.756 518.958 429.583 519.155 430.558 519.628L430.66 519.677L430.756 519.807L438.775 530.764L438.973 531.034L438.908 531.376C435.955 547.252 433.084 563.147 430.05 579.002L429.97 579.427L429.606 579.422L407.74 579.198L386.071 578.892" fill="#060809"/>
<path d="M427.15 548.939L409.076 550.073L391.001 551.054L391.046 549.952L420.977 554.507L424.476 555.04L421.019 555.864L395.108 562.043L395.072 560.833C403.853 562.222 412.616 563.772 421.388 565.233L423.067 565.513L421.424 565.975L411.79 568.678L402.145 571.338L411.701 568.268L421.266 565.242L421.302 565.982C412.512 564.666 403.712 563.438 394.931 562.05L391.903 561.571L394.895 560.84L420.779 554.515L420.821 555.873L390.92 551.05L390.966 549.948L409.055 549.367L427.15 548.939Z" fill="#060809"/>
<path d="M378.48 551.542C378.106 549.524 377.788 547.491 377.446 545.466C377.105 543.439 376.823 541.404 376.507 539.372C375.881 535.309 375.312 531.238 374.777 527.16L374.73 526.804L374.957 526.561C376.702 524.682 378.54 523.001 380.454 521.406C382.363 519.811 384.354 518.346 386.436 517.065C388.536 515.833 390.683 514.679 392.954 513.929C395.221 513.199 397.58 512.761 399.913 512.995C397.573 513.101 395.317 513.731 393.151 514.637C390.972 515.505 388.921 516.768 386.924 518.099C384.913 519.41 383.011 520.944 381.137 522.511C379.283 524.102 377.455 525.782 375.754 527.558L375.932 526.958C376.439 531.041 376.912 535.13 377.327 539.229C377.533 541.279 377.773 543.324 377.952 545.378C378.131 547.432 378.334 549.482 378.48 551.542" fill="#FFFEF4"/>
<path d="M350.982 600.299C350.982 600.299 379.524 577.05 413.285 580.069C447.047 583.088 467.076 603.068 467.076 603.068L350.982 600.299" fill="#060809"/>
<path d="M393.438 539.822H420.564V525.757H395.448L393.438 539.822Z" stroke="#060809" stroke-width="1.41176" stroke-miterlimit="10"/>
<path d="M325.543 583.373C320.168 610.589 294.821 628.037 267.878 620.795C240.937 613.552 222.606 584.36 227.981 557.144C233.357 529.93 257.541 523.926 284.483 531.17C311.424 538.412 330.919 556.159 325.543 583.373Z" fill="#F3651B"/>
<path d="M294.817 535.345C298.57 537.309 302.061 540.021 305.015 543.424C307.957 546.839 310.276 551.025 311.658 555.629C313.091 560.215 313.572 565.152 313.415 569.998C313.253 574.86 312.448 579.655 311.284 584.304C308.777 593.533 304.579 602.22 298.668 609.06C295.713 612.465 292.332 615.381 288.627 617.558C284.914 619.695 280.875 621.117 276.76 621.419C280.843 620.806 284.788 619.262 288.359 616.957C291.949 614.693 295.203 611.737 298.021 608.311C303.675 601.462 307.78 592.977 310.152 583.899C311.325 579.356 312.147 574.675 312.339 569.945C312.543 565.222 312.053 560.466 310.801 555.976C310.547 554.827 310.06 553.781 309.701 552.677C309.28 551.603 308.773 550.577 308.292 549.534C307.205 547.54 306.019 545.6 304.599 543.892C301.835 540.392 298.45 537.586 294.817 535.345" fill="#060809"/>
<path d="M258.097 616.001C254.685 613.613 251.715 610.388 249.217 606.75C246.744 603.078 244.771 598.958 243.277 594.62C240.304 585.927 239.335 576.332 240.287 567.036C240.789 562.391 241.698 557.799 243.138 553.416C244.582 549.046 246.563 544.857 249.245 541.336C251.908 537.814 255.166 534.88 258.826 532.956C262.497 531.067 266.449 530.017 270.417 529.789C266.475 530.33 262.596 531.508 259.075 533.568C255.538 535.577 252.438 538.529 249.939 542.025C244.9 549.062 242.365 558.153 241.464 567.202C240.436 576.283 241.393 585.645 244.125 594.238C245.485 598.536 247.335 602.64 249.676 606.341C251.987 610.068 254.833 613.352 258.097 616.001" fill="#060809"/>
<path d="M287.476 532.567C288.996 533.55 290.272 535.017 291.258 536.696C291.787 537.515 292.158 538.443 292.577 539.342C292.895 540.29 293.296 541.212 293.52 542.201C294.558 546.111 294.901 550.217 294.922 554.281C294.922 562.442 293.598 570.478 291.943 578.342C290.147 586.172 287.882 593.885 284.807 601.174C283.25 604.805 281.5 608.331 279.438 611.61C277.357 614.834 274.921 617.933 271.799 619.75C274.778 617.663 277.06 614.538 278.965 611.216C280.903 607.904 282.545 604.36 283.985 600.713C286.856 593.414 289.105 585.787 290.797 577.996C291.664 574.106 292.415 570.182 292.991 566.225C293.544 562.264 293.902 558.273 294.013 554.271C294.103 550.277 293.864 546.245 292.967 542.394C292.141 538.549 290.375 534.839 287.476 532.567" fill="#060809"/>
<path d="M263.193 617.344C261.096 614.183 260.003 610.263 259.261 606.386C258.562 602.47 258.245 598.475 258.145 594.486C257.949 586.495 258.701 578.518 259.935 570.672C261.312 562.866 263.081 555.099 265.95 547.814C267.404 544.194 269.138 540.693 271.363 537.624C271.895 536.834 272.546 536.165 273.139 535.443C273.804 534.801 274.428 534.111 275.159 533.572C276.565 532.43 278.145 531.546 279.823 531.166C278.174 531.693 276.675 532.675 275.343 533.869C274.655 534.436 274.07 535.154 273.452 535.816C272.901 536.564 272.298 537.249 271.811 538.054C269.725 541.141 268.113 544.635 266.781 548.25C264.132 555.5 262.37 563.179 261.097 570.934C260.438 574.808 259.943 578.718 259.573 582.645C259.228 586.575 259.081 590.523 259.054 594.469C259.042 598.415 259.255 602.371 259.827 606.258C260.376 610.14 261.323 614.01 263.193 617.344" fill="#060809"/>
<path d="M273.978 529.015C273.978 529.015 281.432 527.812 282.912 518.588C284.39 509.362 288.803 489.049 301.529 493.924C308.558 496.616 313.18 506.278 313.18 506.278L304.222 515.095C304.222 515.095 297.154 499.51 293.3 507.749C289.135 516.653 288.211 530.035 291.725 531.382C295.24 532.728 296.345 535.83 296.345 535.83L273.978 529.015" fill="#060809"/>
<path d="M287.176 510.913C287.453 508.813 287.949 506.752 288.642 504.776C289.325 502.793 290.206 500.881 291.363 499.157C292.513 497.469 294.048 495.897 295.979 495.37C296.932 495.104 297.936 495.165 298.846 495.475C299.746 495.837 300.552 496.383 301.254 497.057C300.412 496.651 299.584 496.259 298.719 496.146C297.862 496.019 297.015 496.115 296.23 496.423C294.664 497.057 293.359 498.439 292.301 500.03C291.211 501.606 290.322 503.399 289.489 505.232C288.675 507.077 287.898 508.968 287.176 510.913Z" fill="#FBC4B9"/>
<path d="M229.86 559.254C229.716 558.084 229.793 556.884 229.953 555.712C230.121 554.539 230.375 553.375 230.736 552.255C231.105 551.139 231.541 550.053 232.047 549.01C232.548 547.963 233.123 546.969 233.725 545.999L234.955 544.023L234.624 546.468C234.309 548.786 234.014 551.109 233.672 553.424L232.554 553.055C233.301 550.862 234.143 548.741 235.082 546.658C236.024 544.578 237.061 542.543 238.391 540.695C239.802 538.87 241.525 537.589 243.258 536.406C245.016 535.265 246.829 534.262 248.703 533.448C246.953 534.569 245.231 535.742 243.593 537.041C241.957 538.317 240.344 539.717 239.169 541.453C237.973 543.213 237.036 545.255 236.119 547.285C235.232 549.339 234.397 551.446 233.639 553.559L231.638 559.138L232.521 553.192C232.865 550.878 233.253 548.575 233.624 546.266L234.522 546.735C233.897 547.627 233.289 548.538 232.757 549.51C232.218 550.476 231.741 551.491 231.326 552.539C230.931 553.596 230.556 554.672 230.301 555.797C230.054 556.921 229.867 558.077 229.86 559.254" fill="#FFFEF4"/>
<path d="M250.344 546.357C250.725 544.797 251.465 543.385 252.306 542.098C253.149 540.805 254.155 539.669 255.224 538.632C256.326 537.642 257.481 536.735 258.729 536.029C259.963 535.298 261.269 534.748 262.609 534.378C261.463 535.286 260.309 536.091 259.201 536.974C258.087 537.845 257.016 538.761 255.975 539.722C253.916 541.677 252 543.805 250.344 546.357" fill="#FFFEF4"/>
<path d="M281.761 533.113C279.935 534.037 278.214 535.195 276.64 536.536C275.846 537.199 275.136 537.975 274.483 538.787C273.863 539.631 273.311 540.53 272.916 541.506C272.748 542.003 272.57 542.505 272.473 543.018C272.42 543.271 272.388 543.53 272.388 543.73C272.366 543.964 272.45 544.057 272.387 543.971C272.304 543.932 272.431 543.977 272.603 543.914C272.777 543.855 272.977 543.76 273.175 543.637C273.575 543.396 273.974 543.089 274.367 542.767C275.942 541.479 277.424 539.928 278.874 538.399L280.194 537.008L279.781 538.996C279.335 541.147 278.824 543.282 278.332 545.422L277.696 545.044C278.425 544.125 279.158 543.208 279.918 542.318C280.669 541.42 281.414 540.517 282.19 539.642C281.56 540.663 280.9 541.654 280.247 542.65C279.6 543.653 278.927 544.631 278.252 545.606L277.332 546.934L277.616 545.228C277.976 543.054 278.318 540.874 278.724 538.711L279.63 539.308C278.202 540.967 276.712 542.512 275.052 543.914C274.627 544.253 274.193 544.579 273.707 544.864C273.466 545.009 273.204 545.137 272.9 545.234C272.604 545.3 272.182 545.445 271.687 545.051C271.225 544.598 271.229 544.037 271.236 543.709C271.242 543.331 271.304 543.015 271.374 542.708C271.512 542.098 271.732 541.527 271.948 540.961C272.92 538.731 274.55 537.125 276.246 535.865C277.958 534.604 279.834 533.701 281.761 533.113" fill="#FFFEF4"/>
<path d="M240.23 572.866C240.23 572.866 248.215 556.17 255.283 558.07C262.351 559.971 264.728 575.844 264.728 575.844C264.728 575.844 258.864 570.797 254.335 569.842C247.454 568.393 240.23 572.866 240.23 572.866Z" fill="#FFFEF4"/>
<path d="M242.214 575.003C242.214 575.003 250.199 558.306 257.267 560.205C264.335 562.107 266.713 577.981 266.713 577.981C266.713 577.981 260.846 572.933 256.32 571.98C249.438 570.53 242.214 575.003 242.214 575.003" fill="#060809"/>
<path d="M308.081 589.503C308.081 589.503 307.167 570.413 300.097 568.513C293.029 566.613 284.937 579.674 284.937 579.674C284.937 579.674 292.104 578.128 296.532 579.583C303.264 581.794 308.081 589.503 308.081 589.503" fill="#FFFEF4"/>
<path d="M305.496 590.413C305.496 590.413 304.58 571.323 297.512 569.422C290.444 567.522 282.352 580.581 282.352 580.581C282.352 580.581 289.52 579.038 293.947 580.492C300.678 582.702 305.496 590.413 305.496 590.413" fill="#060809"/>
<path d="M252.179 578.484C252.179 578.484 259.888 588.175 271.711 590.952C283.534 593.73 299.045 588.277 299.045 588.277C299.045 588.277 284.166 607.932 269.983 604.922C255.8 601.912 252.179 578.484 252.179 578.484" fill="#FFFEF4"/>
<path d="M251.754 582.379C251.754 582.379 259.463 592.07 271.285 594.847C283.109 597.625 298.62 592.172 298.62 592.172C298.62 592.172 283.74 611.828 269.557 608.817C255.374 605.805 251.754 582.379 251.754 582.379Z" fill="#060809"/>
<path d="M346.955 547.089C346.955 547.089 345.148 542.692 341.722 536.028C338.296 529.364 333.653 527.566 333.653 527.566C333.653 527.566 335.966 520.128 345.12 520.435C345.588 529.724 348.432 536.34 351.666 545.003L346.955 547.089Z" fill="#060809"/>
<path d="M382.114 564.688C387.517 586.111 382.708 615.391 368.07 620.417C353.431 625.443 334.51 604.31 329.105 582.887C323.701 561.462 333.862 547.858 348.499 542.832C363.137 537.807 376.71 543.263 382.114 564.688" fill="#F3651B"/>
<path d="M352.558 541.846C355.942 541.338 359.502 541.558 362.73 543.071C365.965 544.541 368.819 547.064 371.036 550.171C373.295 553.255 374.968 556.853 376.288 560.571C377.609 564.299 378.574 568.187 379.249 572.132C380.585 580.027 380.926 588.155 380.126 596.149C379.7 600.139 378.95 604.097 377.731 607.863C376.481 611.592 374.718 615.2 372.085 617.806C374.63 615.087 376.252 611.443 377.369 607.708C378.499 603.954 379.175 600.026 379.524 596.07C380.189 588.148 379.858 580.105 378.476 572.316C377.832 568.411 376.902 564.565 375.624 560.888C374.356 557.208 372.703 553.701 370.573 550.624C368.461 547.532 365.724 545.014 362.586 543.487C359.473 541.866 355.96 541.485 352.558 541.846" fill="#060809"/>
<path d="M363.216 620.851C359.773 620.355 356.569 618.523 353.712 616.265C350.867 613.953 348.293 611.193 346.003 608.158C341.417 602.09 337.751 595.098 335.094 587.62C333.769 583.88 332.774 579.971 332.155 575.98C331.552 571.991 331.345 567.875 331.892 563.848C332.394 559.819 333.725 555.929 335.778 552.647C337.82 549.34 340.672 546.841 343.732 545.026C340.728 546.974 337.988 549.58 336.092 552.91C334.144 556.182 332.911 560.004 332.494 563.951C331.616 571.873 333.23 579.92 335.824 587.273C337.122 590.971 338.651 594.563 340.433 597.983C342.227 601.392 344.25 604.635 346.459 607.695C348.668 610.755 351.169 613.537 353.933 615.899C356.686 618.251 359.792 620.205 363.216 620.851" fill="#060809"/>
<path d="M349.81 542.864C351.208 543.133 352.429 544.102 353.459 545.209C354.505 546.321 355.375 547.631 356.177 548.984C357.751 551.719 359.011 554.675 360.139 557.682C362.374 563.716 364.018 570.007 365.482 576.333C366.874 582.684 368.045 589.103 368.874 595.588C369.643 602.065 370.286 608.65 369.696 615.178C369.888 611.912 369.697 608.642 369.41 605.398C369.137 602.15 368.742 598.917 368.274 595.698C367.324 589.264 366.164 582.872 364.72 576.566C363.324 570.247 361.676 563.996 359.581 557.956C358.531 554.941 357.342 551.98 355.856 549.23C355.12 547.855 354.312 546.517 353.326 545.369C352.354 544.226 351.194 543.209 349.81 542.864" fill="#060809"/>
<path d="M364.742 619.143C362.677 616.895 361.092 614.122 359.599 611.339C358.14 608.52 356.826 605.603 355.579 602.652C353.124 596.723 351.02 590.608 349.15 584.399C347.342 578.168 345.749 571.833 344.722 565.347C344.225 562.104 343.868 558.821 343.802 555.521C343.796 552.251 343.985 548.829 345.287 545.879C344.106 548.889 344.058 552.27 344.188 555.506C344.333 558.769 344.753 562.012 345.318 565.213C346.459 571.618 348.037 577.918 349.895 584.099C351.695 590.304 353.801 596.387 356.125 602.351C357.3 605.326 358.549 608.262 359.929 611.112C361.307 613.957 362.771 616.789 364.742 619.143" fill="#060809"/>
<path d="M339.747 592.784C339.747 592.784 338.173 574.479 342.622 572.952C347.07 571.424 353.902 584.315 353.902 584.315C353.902 584.315 348.994 582.529 346.237 583.738C342.047 585.58 339.747 592.784 339.747 592.784Z" fill="#FFFEF4"/>
<path d="M341.557 593.765C341.557 593.765 339.983 575.462 344.431 573.934C348.878 572.407 355.711 585.298 355.711 585.298C355.711 585.298 350.804 583.512 348.047 584.721C343.857 586.562 341.557 593.765 341.557 593.765Z" fill="#060809"/>
<path d="M377.976 579.658C377.976 579.658 370.802 563.277 366.354 564.805C361.906 566.331 362.147 581.484 362.147 581.484C362.147 581.484 365.443 576.882 368.323 576.157C372.698 575.055 377.976 579.658 377.976 579.658Z" fill="#FFFEF4"/>
<path d="M376.912 581.627C376.912 581.627 369.737 565.245 365.289 566.773C360.84 568.302 361.081 583.454 361.081 583.454C361.081 583.454 364.378 578.85 367.258 578.125C371.633 577.025 376.912 581.627 376.912 581.627" fill="#060809"/>
<path d="M352.427 589.541C352.427 589.541 354.392 590.8 359.622 589.005C363.798 587.57 365.276 585.128 365.276 585.128C365.276 585.128 368.611 599.728 363.022 601.095C357.431 602.46 352.427 589.541 352.427 589.541Z" fill="#FFFEF4"/>
<path d="M353.069 592.082C353.069 592.082 355.033 593.341 360.264 591.546C364.439 590.113 365.918 587.672 365.918 587.672C365.918 587.672 369.252 602.268 363.662 603.637C358.073 605.003 353.069 592.082 353.069 592.082" fill="#060809"/>
<path d="M337.079 526.39C338.121 526.938 339.059 527.699 339.929 528.541C340.807 529.382 341.593 530.344 342.318 531.37C343.723 533.439 344.846 535.924 345.043 538.588C344.466 537.438 343.928 536.341 343.317 535.29C342.691 534.251 342.073 533.221 341.381 532.244C340.028 530.258 338.558 528.394 337.079 526.39Z" fill="#FBC4B9"/>
<path d="M360.511 603.6L356.995 600.734L358.04 596.573L361.883 597.969L360.511 603.6Z" fill="#F3651B"/>
<path d="M359.18 586.334L361.542 591.842L363.957 590.507L362.075 584.328L359.18 586.334" fill="#F3651B"/>
<path d="M333.575 568.957C333.512 567.554 333.562 566.152 333.624 564.746C333.708 563.342 333.852 561.94 334.104 560.539C334.236 559.837 334.398 559.14 334.636 558.442C334.753 558.092 334.898 557.74 335.092 557.392C335.188 557.215 335.312 557.046 335.454 556.879C335.587 556.738 335.719 556.598 335.912 556.466C336.088 556.354 336.37 556.154 336.812 556.302C337.246 556.49 337.385 556.882 337.459 557.105C337.598 557.595 337.604 557.978 337.615 558.366C337.622 559.135 337.537 559.837 337.432 560.572L337.429 560.583C337.375 560.957 337.073 561.21 336.752 561.147C336.432 561.083 336.216 560.73 336.27 560.357L336.272 560.342C336.592 558.386 337.128 556.55 337.856 554.788C338.584 553.04 339.558 551.398 340.802 550.133C340.357 550.945 339.924 551.738 339.587 552.597C339.245 553.448 338.93 554.307 338.662 555.188C338.13 556.938 337.708 558.771 337.433 560.56L336.274 560.33C336.364 559.689 336.413 559 336.424 558.373C336.424 558.066 336.401 557.743 336.35 557.569C336.328 557.469 336.299 557.526 336.443 557.597C336.594 557.63 336.568 557.578 336.493 557.639C336.137 557.876 335.886 558.344 335.641 558.944C335.408 559.527 335.234 560.175 335.068 560.825C334.736 562.129 334.487 563.483 334.249 564.844C333.994 566.203 333.8 567.578 333.575 568.957Z" fill="#FFFEF4"/>
<path d="M346.955 547.089C346.806 548.211 346.682 549.282 346.58 550.353C346.492 551.424 346.396 552.483 346.379 553.547C346.339 554.609 346.333 555.674 346.364 556.749C346.376 557.829 346.462 558.907 346.468 560.05C345.487 558.085 345.113 555.761 345.181 553.491C345.223 552.352 345.379 551.219 345.668 550.131C345.95 549.048 346.346 547.988 346.955 547.089" fill="#FFFEF4"/>
<path d="M95.5406 402.63C95.5406 402.63 94.1375 398.467 91.3312 392.107C88.5243 385.745 84.0811 383.754 84.0811 383.754C84.0811 383.754 87.0327 377.11 96.0811 378.072C95.7233 386.617 97.957 392.891 100.394 401.071L95.5406 402.63" fill="#060809"/>
<path d="M135.857 418.007C139.119 436.891 128.429 462.728 109.439 467.193C90.4483 471.657 70.3484 453.06 67.0864 434.175C63.8234 415.291 78.635 403.269 97.6254 398.803C116.615 394.34 132.595 399.122 135.857 418.007" fill="#F3651B"/>
<path d="M102.825 397.923C106.176 397.502 109.595 397.527 112.936 398.268C116.264 399.029 119.504 400.554 122.257 402.952C124.995 405.38 127.095 408.706 128.495 412.341C129.901 415.989 130.647 419.93 130.966 423.882C131.531 431.809 130.419 439.866 127.791 447.18C126.471 450.829 124.774 454.308 122.632 457.386C120.475 460.439 117.859 463.081 114.849 464.88C117.796 462.942 120.293 460.201 122.316 457.092C124.363 453.995 125.974 450.527 127.203 446.9C128.421 443.265 129.323 439.485 129.835 435.627C130.325 431.766 130.447 427.843 130.144 423.968C129.856 420.097 129.15 416.244 127.81 412.698C126.48 409.15 124.453 405.971 121.87 403.536C119.252 401.145 116.117 399.573 112.854 398.726C109.588 397.844 106.188 397.657 102.825 397.923" fill="#060809"/>
<path d="M103.341 467.584C99.9328 467.302 96.5986 466.103 93.5226 464.348C90.4524 462.561 87.6291 460.225 85.0773 457.549C79.9758 452.189 75.9924 445.35 73.6884 437.77C72.5804 433.969 71.9218 429.945 72.0507 425.899C72.1744 421.867 73.1157 417.833 74.9171 414.373C76.7415 410.931 79.2657 408.071 82.1007 405.826C84.9554 403.599 88.1054 401.955 91.3515 400.749C88.1484 402.104 85.0712 403.887 82.3313 406.213C79.5821 408.507 77.1671 411.37 75.4626 414.751C73.808 418.159 72.8874 422.019 72.8016 425.929C72.7008 429.842 73.3665 433.753 74.4689 437.458C76.658 444.896 80.5758 451.619 85.5047 457.007C87.968 459.708 90.7116 462.08 93.7055 463.93C96.6844 465.801 99.9446 467.146 103.341 467.584" fill="#060809"/>
<path d="M98.7446 398.97C100.018 399.284 101.126 400.195 102.047 401.252C102.986 402.312 103.72 403.579 104.416 404.857C105.742 407.467 106.743 410.277 107.605 413.126C109.306 418.845 110.388 424.77 111.288 430.707C112.114 436.664 112.711 442.666 112.964 448.694C113.158 454.706 113.21 460.815 112.057 466.708C112.535 463.747 112.641 460.733 112.647 457.733C112.666 454.731 112.563 451.728 112.384 448.732C112.013 442.744 111.426 436.77 110.544 430.854C109.711 424.932 108.624 419.046 107.057 413.34C106.27 410.492 105.338 407.688 104.098 405.073C103.467 403.778 102.793 402.491 101.914 401.402C101.052 400.313 100.003 399.357 98.7446 398.97" fill="#060809"/>
<path d="M105.512 466.075C103.494 464.332 101.972 461.93 100.583 459.511C99.2281 457.048 98.0375 454.465 96.9641 451.823C94.8326 446.527 93.1578 440.996 91.806 435.365C90.531 429.713 89.5419 423.937 89.3492 418.068C89.2771 415.139 89.3741 412.185 89.8883 409.304C90.4391 406.465 91.3466 403.574 93.1452 401.497C91.4928 403.715 90.7007 406.567 90.2858 409.393C89.8616 412.238 89.8373 415.15 89.9844 418.034C90.3031 423.808 91.2749 429.527 92.6024 435.111C93.8774 440.718 95.5499 446.201 97.5397 451.517C98.5344 454.175 99.6537 456.772 100.925 459.261C102.191 461.748 103.617 464.167 105.512 466.075" fill="#060809"/>
<path d="M78.5391 442.44C78.5391 442.44 80.3405 430.918 86.1244 429.558C91.9102 428.197 97.6852 435.814 97.6852 435.814C97.6852 435.814 92.0124 435.103 88.3721 436.114C82.8413 437.65 78.5391 442.44 78.5391 442.44" fill="#FFFEF4"/>
<path d="M80.5664 442.908C80.5664 442.908 82.3664 431.386 88.1522 430.025C93.9366 428.665 99.7116 436.282 99.7116 436.282C99.7116 436.282 94.0382 435.571 90.3984 436.583C84.8672 438.119 80.5664 442.908 80.5664 442.908" fill="#060809"/>
<path d="M128.261 430.751C128.261 430.751 122.776 420.941 116.991 422.302C111.205 423.661 108.41 433.293 108.41 433.293C108.41 433.293 113.405 430.073 117.095 429.362C122.706 428.278 128.261 430.751 128.261 430.751" fill="#FFFEF4"/>
<path d="M126.548 432.099C126.548 432.099 121.063 422.289 115.277 423.647C109.493 425.008 106.697 434.64 106.697 434.64C106.697 434.64 111.691 431.421 115.383 430.707C120.992 429.626 126.548 432.099 126.548 432.099" fill="#060809"/>
<path d="M97.2061 441.935C97.2061 441.935 99.0422 443.234 104.387 441.977C108.654 440.973 110.337 438.847 110.337 438.847C110.337 438.847 112.348 452.47 106.685 453.307C101.023 454.145 97.2061 441.935 97.2061 441.935" fill="#FFFEF4"/>
<path d="M97.6162 444.311C97.6162 444.311 99.4532 445.61 104.797 444.355C109.065 443.351 110.747 441.224 110.747 441.224C110.747 441.224 112.759 454.848 107.095 455.683C101.433 456.521 97.6162 444.311 97.6162 444.311" fill="#060809"/>
<path d="M87.582 382.931C88.5411 383.471 89.389 384.216 90.1724 385.038C90.9608 385.858 91.6559 386.793 92.2882 387.789C93.5051 389.792 94.4327 392.203 94.3976 394.701C93.9256 393.585 93.4817 392.54 92.9679 391.528C92.4374 390.533 91.9085 389.547 91.3132 388.604C90.1466 386.694 88.8622 384.889 87.582 382.931" fill="#FBC4B9"/>
<path d="M103.974 455.416L100.744 452.529L102.148 448.795L105.834 450.361L103.974 455.416" fill="#F3651B"/>
<path d="M104.186 439.498L106.038 444.72L108.552 443.677L107.232 437.875L104.186 439.498" fill="#F3651B"/>
<path d="M80.3374 421.673C80.4092 420.357 80.5864 419.056 80.7819 417.754C80.9966 416.459 81.2693 415.173 81.6504 413.901C81.8459 413.266 82.0709 412.64 82.3719 412.024C82.5185 411.716 82.6958 411.411 82.9146 411.115C83.0216 410.967 83.1593 410.828 83.3014 410.697C83.4364 410.585 83.5742 410.476 83.7551 410.378C83.9234 410.289 84.1616 410.163 84.5295 410.25C84.935 410.364 85.1403 410.802 85.1937 411.034C85.3179 411.547 85.2795 411.905 85.2584 412.275C85.1974 413.001 85.0484 413.644 84.8774 414.317L84.8754 414.328C84.7864 414.676 84.4732 414.874 84.1756 414.771C83.8779 414.667 83.7077 414.303 83.7969 413.955L83.8006 413.939C84.3022 412.129 85.0053 410.474 85.8856 408.92C86.7622 407.376 87.8661 405.98 89.1701 404.962C88.6685 405.669 88.1693 406.35 87.7616 407.113C87.3458 407.865 86.952 408.626 86.6061 409.417C85.9132 410.989 85.3193 412.658 84.8811 414.306L83.8029 413.928C83.9482 413.347 84.0622 412.713 84.124 412.139C84.153 411.862 84.153 411.549 84.1208 411.432C84.095 411.359 84.1311 411.478 84.2529 411.514C84.3443 411.535 84.2951 411.503 84.2154 411.558C83.5076 411.927 82.9624 413.187 82.535 414.313C82.0911 415.476 81.7226 416.701 81.3654 417.933C80.9937 419.163 80.6801 420.418 80.3374 421.673" fill="#FFFEF4"/>
<path d="M95.5408 402.632C95.051 404.645 94.6347 406.536 94.3807 408.484C94.2415 409.453 94.1439 410.428 94.0792 411.418L93.9081 414.47C93.1277 412.565 92.9665 410.358 93.2486 408.272C93.3963 407.227 93.6479 406.2 94.0291 405.24C94.4027 404.282 94.8823 403.365 95.5408 402.632Z" fill="#FFFEF4"/>
<path d="M364.807 154.528C361.627 177.244 341.787 192.37 320.491 188.314C299.196 184.257 284.509 162.554 287.688 139.839C290.868 117.123 310.707 101.997 332.003 106.054C353.299 110.11 367.985 131.813 364.807 154.528" fill="#F3651B"/>
<path d="M336.132 107.317C339.785 108.826 343.08 111.443 345.768 114.717C348.448 118.014 350.527 121.946 352.024 126.137C355.018 134.564 355.61 143.98 354.36 152.936C353.018 161.879 349.733 170.521 344.503 177.292C341.887 180.656 338.791 183.539 335.309 185.574C331.824 187.587 327.956 188.721 324.082 188.657C327.956 188.576 331.759 187.305 335.141 185.191C338.542 183.105 341.549 180.207 344.071 176.841C349.123 170.093 352.351 161.608 353.618 152.789C354.908 143.979 354.319 134.73 351.49 126.392C350.082 122.234 348.088 118.325 345.499 115.009C342.936 111.68 339.743 108.961 336.132 107.317" fill="#060809"/>
<path d="M315.774 186.787C312.267 185.213 309.113 182.613 306.532 179.404C303.96 176.176 301.954 172.36 300.496 168.294C297.592 160.129 296.89 151.015 298.017 142.303C299.217 133.609 302.184 125.152 307.043 118.359C309.469 114.981 312.348 112.025 315.613 109.808C318.881 107.611 322.536 106.176 326.283 105.822C322.547 106.319 318.966 107.887 315.802 110.176C312.618 112.441 309.825 115.41 307.491 118.79C302.805 125.555 299.886 133.864 298.759 142.436C297.592 151.007 298.289 159.958 301.029 168.039C302.4 172.073 304.323 175.869 306.803 179.116C309.261 182.379 312.311 185.08 315.774 186.787" fill="#060809"/>
<path d="M333.632 106.841C334.964 107.886 335.785 109.567 336.455 111.222C337.143 112.895 337.559 114.692 337.962 116.48C338.664 120.092 338.988 123.788 339.12 127.48C339.366 134.872 338.808 142.267 337.83 149.562C336.753 156.838 335.251 164.052 332.978 170.96C331.838 174.407 330.503 177.779 328.835 180.932C327.951 182.468 327.055 184.009 325.923 185.315C324.822 186.612 323.544 187.873 321.971 188.255C323.527 187.803 324.743 186.497 325.789 185.168C326.862 183.83 327.698 182.263 328.52 180.708C330.104 177.544 331.371 174.17 332.436 170.722C333.491 167.268 334.416 163.758 335.191 160.202C335.954 156.641 336.57 153.038 337.087 149.419C338.121 142.18 338.664 134.837 338.543 127.501C338.483 123.834 338.224 120.165 337.604 116.573C337.265 114.788 336.913 112.989 336.287 111.309C335.679 109.644 334.925 107.943 333.632 106.841" fill="#060809"/>
<path d="M318.636 187.333C317.385 186.22 316.605 184.566 315.959 182.928C315.297 181.273 314.896 179.504 314.512 177.741C313.821 174.188 313.516 170.551 313.379 166.921C313.123 159.648 313.667 152.373 314.611 145.193C315.651 138.03 317.104 130.928 319.294 124.113C320.398 120.715 321.664 117.375 323.259 114.243C324.087 112.701 324.933 111.163 325.986 109.812C327.024 108.472 328.175 107.17 329.622 106.457C328.203 107.234 327.108 108.58 326.127 109.952C325.131 111.332 324.345 112.897 323.577 114.458C322.065 117.603 320.867 120.945 319.837 124.345C317.777 131.153 316.329 138.204 315.354 145.333C314.86 148.897 314.479 152.482 314.224 156.08C313.992 159.681 313.907 163.292 313.956 166.899C314.021 170.504 314.261 174.117 314.871 177.653C315.19 179.41 315.528 181.182 316.127 182.846C316.713 184.492 317.425 186.165 318.636 187.333" fill="#060809"/>
<path d="M294.802 137.499L318.724 134.666C318.724 134.666 314.699 144.456 308.651 146.999C302.603 149.541 294.802 137.499 294.802 137.499" fill="#FFFEF4"/>
<path d="M294.997 140.175L318.919 137.343C318.919 137.343 314.893 147.133 308.845 149.674C302.797 152.218 294.997 140.175 294.997 140.175Z" fill="#060809"/>
<path d="M354.733 148.915L332.826 137.351C332.826 137.351 333.973 148.128 339.016 152.782C344.056 157.437 354.733 148.915 354.733 148.915Z" fill="#FFFEF4"/>
<path d="M353.82 151.379L331.913 139.817C331.913 139.817 333.06 150.593 338.101 155.248C343.141 159.903 353.82 151.379 353.82 151.379" fill="#060809"/>
<path d="M310.801 149.255C310.801 149.255 313.32 158.18 321.327 159.706C328.82 161.133 336.175 153.825 336.175 153.825C336.175 153.825 332.304 173.408 320.298 171.914C308.292 170.419 310.801 149.255 310.801 149.255Z" fill="#FFFEF4"/>
<path d="M310.333 152.597C310.333 152.597 312.852 161.522 320.861 163.048C328.352 164.475 335.708 157.167 335.708 157.167C335.708 157.167 331.836 176.752 319.83 175.256C307.824 173.76 310.333 152.597 310.333 152.597Z" fill="#060809"/>
<path d="M322.385 157.005L324.503 166.117L328.68 163.746L328.95 155.353L322.385 157.005" fill="#F3651B"/>
<path d="M316.08 172.957L318.19 165.97L321.935 166.684L323.131 174.301L316.08 172.957" fill="#F3651B"/>
<path d="M319.191 105.461C319.191 105.461 327.079 104.061 327.439 101.489C327.799 98.9185 331.752 81.9897 345.853 84.6749C359.954 87.3629 357.53 99.8327 357.53 99.8327L347.336 103.168C347.336 103.168 349.662 94.6373 343.527 93.2065C337.394 91.7743 333.821 99.5373 337.057 102.266C340.295 104.995 345.894 111.866 345.894 111.866L319.191 105.461Z" fill="#060809"/>
<path d="M331.023 96.894C331.327 95.3554 331.969 93.9134 332.787 92.6366C333.599 91.3444 334.632 90.2356 335.795 89.3564C336.965 88.4982 338.25 87.8178 339.607 87.5322C340.946 87.1654 342.335 87.1934 343.658 87.4244C342.338 87.7772 341.064 88.0503 339.859 88.5837C338.643 89.0569 337.506 89.7302 336.446 90.531C334.302 92.113 332.535 94.3222 331.023 96.894" fill="#FBC4B9"/>
<path d="M294.983 123.34C296.311 121.18 297.772 119.148 299.379 117.239C299.79 116.771 300.211 116.312 300.677 115.883C300.909 115.666 301.158 115.465 301.458 115.29C301.617 115.209 301.771 115.109 302.047 115.105C302.175 115.088 302.359 115.154 302.518 115.293C302.632 115.423 302.741 115.64 302.746 115.753C302.83 116.322 302.737 116.588 302.724 116.922L302.632 117.908L302.433 119.876L301.641 119.605C302.019 118.755 302.457 117.989 302.915 117.222C303.375 116.46 303.889 115.743 304.439 115.064C304.999 114.401 305.572 113.74 306.239 113.219C306.905 112.701 307.615 112.252 308.377 112.01C306.958 112.827 305.853 114.122 304.877 115.512C303.927 116.925 303.088 118.468 302.391 120.041L301.368 122.353L301.599 119.768L301.775 117.794L301.87 116.81C301.902 116.491 301.947 116.092 301.925 116.008C301.875 115.956 302.055 116.114 302.034 116.089C302.028 116.079 301.913 116.117 301.817 116.173C301.611 116.292 301.384 116.459 301.167 116.644C300.727 117.013 300.303 117.437 299.886 117.87C298.201 119.599 296.623 121.503 294.983 123.34" fill="#FFFEF4"/>
<path d="M309.383 120.604C310.638 118.607 312.158 116.887 313.795 115.329C314.623 114.565 315.491 113.845 316.421 113.235C317.336 112.623 318.361 112.099 319.429 112.01C318.451 112.484 317.623 113.196 316.787 113.9C315.962 114.624 315.142 115.357 314.338 116.12C312.713 117.627 311.114 119.178 309.383 120.604" fill="#FFFEF4"/>
<path d="M414.52 218.967C414.52 218.967 381.383 207.729 372.676 188.195C363.97 168.661 372.951 156.678 376.36 142.874C382.053 119.823 360.621 99.8968 386.071 74.1102C411.523 48.3264 456.045 59.5628 447.337 105.665C442.779 129.804 433.397 156.824 417.629 167.707C405.495 176.082 398.844 192.769 399.802 198.353C401.811 210.074 414.52 218.967 414.52 218.967Z" fill="#FFFEF4"/>
<path d="M430.458 91.1119C431.894 95.5555 434.387 98.5725 436.025 97.8515C437.664 97.1305 437.826 92.9445 436.39 88.5009C434.953 84.0587 432.461 81.0417 430.823 81.7627C429.184 82.4837 429.022 86.6697 430.458 91.1119Z" fill="#060809"/>
<path d="M418.003 94.9899C417.711 99.7261 415.498 103.4 413.062 103.194C410.626 102.988 408.889 98.9827 409.182 94.2465C409.476 89.5103 411.688 85.8367 414.124 86.0425C416.56 86.2483 418.297 90.2551 418.003 94.9899Z" fill="#060809"/>
<path d="M425.088 115.984C426.023 123.487 434.773 122.003 433.84 114.5C432.906 106.999 429.186 98.3974 426.769 98.8062C424.353 99.2164 424.153 108.482 425.088 115.984" fill="#060809"/>
<path d="M435.287 76.2087C435.287 76.2087 431.937 77.9083 426.669 72.0031" stroke="#060809" stroke-width="1.27576" stroke-miterlimit="10" stroke-linecap="round" stroke-linejoin="round"/>
<path d="M407.838 81.9951C407.838 81.9951 413.546 81.0277 417.156 73.6161" stroke="#060809" stroke-width="1.27576" stroke-miterlimit="10" stroke-linecap="round" stroke-linejoin="round"/>
<path d="M396.452 115.527C397.928 119.189 400.512 122.177 403.586 123.887C406.645 125.675 410.138 126.192 413.528 125.948C416.976 125.665 420.504 125.437 424.014 125.923C425.767 126.147 427.538 126.533 429.223 127.439C429.643 127.659 430.037 127.985 430.441 128.264L430.987 128.838L431.256 129.13L431.473 129.496C432.129 130.418 432.287 131.743 432.157 132.859C431.805 135.146 430.626 136.853 429.563 138.457C428.466 140.08 427.217 141.536 425.937 142.947C423.331 145.704 420.399 148.088 417.159 149.729C413.936 151.385 410.425 152.335 406.909 152.302C403.393 152.24 399.931 151.238 396.787 149.516C400.037 150.945 403.471 151.785 406.902 151.616C410.328 151.509 413.699 150.469 416.775 148.75C419.845 147.013 422.699 144.74 425.196 142.013C426.423 140.626 427.623 139.199 428.666 137.624C429.702 136.06 430.725 134.417 430.97 132.665C431.271 130.92 430.218 129.409 428.724 128.642C427.256 127.826 425.569 127.417 423.883 127.186C420.489 126.654 417.047 126.902 413.571 127.018C410.06 127.141 406.433 126.477 403.317 124.494C401.755 123.525 400.369 122.203 399.192 120.69C398.016 119.178 397.053 117.429 396.452 115.527" fill="#060809"/>
<path d="M443.335 102.633C443.335 102.633 455.508 95.2897 460.08 86.2233C466.777 72.9401 472.806 90.9105 464.099 108.102C455.391 125.293 438.313 133.497 438.313 133.497L443.335 102.633" fill="#FFFEF4"/>
</svg>
