<?xml version="1.0" encoding="utf-8"?>
<!-- Generator: Adobe Illustrator 24.1.2, SVG Export Plug-In . SVG Version: 6.00 Build 0)  -->
<svg version="1.1" id="Слой_1" xmlns="http://www.w3.org/2000/svg" xmlns:xlink="http://www.w3.org/1999/xlink" x="0px" y="0px"
	 viewBox="0 0 283.46 283.46" style="enable-background:new 0 0 283.46 283.46;" xml:space="preserve">
<style type="text/css">
	.st0{fill:#FBF5E1;}
	.st1{fill:#DCD9C2;}
	.st2{fill:#FF6D87;}
	.st3{fill:#4C183A;}
	.st4{fill:#471A34;}
	.st5{fill:#5B2343;}
	.st6{fill:#FF8F00;}
	.st7{fill:#732342;}
	.st8{fill:#FF8000;}
	.st9{fill:#621C37;}
	.st10{fill:#EDE8D4;}
	.st11{fill:#00933E;}
	.st12{fill:#B4613B;}
	.st13{fill:#8B4B2C;}
	.st14{fill:#FFAC1B;}
	.st15{fill:#C9C6B2;}
	.st16{opacity:0.5;fill:#FF6D87;}
</style>
<g>
	<path class="st0" d="M124.85,17.54c-3.39,0-6.86,0.24-10.33,0.7c-5.37,0.73-10.64,2.06-15.66,3.97c-5.08,1.92-9.95,4.5-14.47,7.66
		c-4.58,3.19-8.84,7.07-12.67,11.54c-2,2.34-3.96,4.95-5.83,7.75c-1.73,2.58-3.35,5.39-4.82,8.35C58.37,62.89,56.33,68.71,55,74.8
		c-1.24,5.69-1.82,11.74-1.73,17.96c0.1,5.83,0.86,11.95,2.26,18.2c1.31,5.8,3.28,11.86,5.86,17.99c1.26,3.01,2.65,5.93,4.11,8.68
		c1.62,3.05,3.38,5.89,4.74,8.04c1.84,2.91,3.84,5.91,5.45,8.31l0.3,0.45c1.73,2.58,3.42,5.11,5.04,7.64
		c3.16,4.93,6.75,10.86,9.4,17.47c0.68,1.75,1.27,3.51,1.76,5.22c0.39,1.39,0.67,2.68,0.84,3.94l0.02,0.15
		c0.15,1.36,0.17,2.63,0.04,3.78c-0.09,0.61-0.22,1.17-0.41,1.7c-0.14,0.3-0.28,0.57-0.44,0.81c-0.14,0.18-0.3,0.35-0.47,0.51
		c-0.16,0.12-0.34,0.23-0.52,0.33c-0.22,0.08-0.45,0.15-0.73,0.2c-0.15,0.02-0.3,0.02-0.46,0.02c-0.21,0-0.42-0.01-0.64-0.04
		c-0.51-0.08-0.98-0.21-1.43-0.39c-0.6-0.3-1.21-0.69-1.85-1.21c-1.31-1.11-2.47-2.42-3.6-3.69l-0.19-0.22l-0.13-0.15
		c-0.57-0.64-1.14-1.27-1.73-1.89c-0.9-0.93-1.75-1.65-2.6-2.2c-0.69-0.45-1.44-0.86-2.46-1.31c-3.19-1.43-6.86-2.18-10.61-2.18
		c-0.27,0-0.54,0-0.82,0.01c-1.99,0.06-3.94,0.37-5.78,0.9c-1.84,0.52-3.55,1.33-5.09,2.38c-0.65,0.45-1.33,1.02-2.02,1.69
		c-0.61,0.6-1.2,1.34-1.8,2.27c-1.02,1.57-1.72,3.53-2.05,5.69c-0.11,0.71-0.17,1.51-0.2,2.44c0,0.2,0.07,0.39,0.21,0.55
		c0.15,0.16,0.34,0.25,0.54,0.25c0.4,0,0.74-0.36,0.74-0.8c0.11-0.03,0.21-0.1,0.3-0.18c0.36-0.37,0.72-0.71,1.1-1.03
		c0.65-0.51,1.3-0.93,2-1.27c0.69-0.29,1.35-0.49,2.01-0.59c0.34-0.04,0.68-0.06,1.02-0.06c0.32,0,0.63,0.02,0.95,0.05
		c0.92,0.14,1.82,0.4,2.76,0.81c1.14,0.54,2.27,1.27,3.45,2.21c1.99,1.66,3.9,3.75,5.82,6.38c1.31,1.83,2.5,3.73,3.53,5.63
		c0.48,0.89,0.93,1.79,1.39,2.7l0.37,0.73l1.05,2.11l1.05,2.11c2.62,5.27,5.24,10.39,8.54,15.18c1.62,2.34,3.38,4.51,5.23,6.46
		c1.9,2,4.08,3.85,6.48,5.52c2.44,1.7,5.17,3.17,8.36,4.49c2.86,1.2,6.05,2.15,9.49,2.83c3.44,0.67,7.12,1,10.91,1
		c2.72,0,5.6-0.17,8.55-0.51c3.04-0.35,6.19-0.9,9.64-1.68c2.76-0.63,5.55-1.4,8.29-2.28c9.99-3.22,19.46-8.17,28.15-14.73
		c4.12-3.1,8.1-6.63,11.83-10.49c3.52-3.64,6.93-7.76,10.13-12.24c6.16-8.66,11.07-18.36,14.57-28.82
		c3.5-10.44,5.43-21.45,5.72-32.72c0.06-2.4,0.04-5.03-0.07-8.28c-0.09-2.59-0.23-5.23-0.44-8.09c-0.41-5.33-1.05-10.76-1.92-16.16
		c-1.79-11.09-4.56-21.79-8.25-31.8c-3.86-10.47-8.7-20.03-14.41-28.42c-2.93-4.32-6.17-8.4-9.62-12.12
		c-3.42-3.7-7.23-7.18-11.32-10.32c-4.06-3.13-8.49-5.91-13.17-8.27c-4.67-2.36-9.74-4.32-15.06-5.81
		c-5.17-1.46-10.6-2.43-16.14-2.87C128.79,17.62,126.77,17.54,124.85,17.54L124.85,17.54L124.85,17.54z"/>
	<path class="st1" d="M136.68,155.58C136.68,155.58,136.68,155.58,136.68,155.58c0,0,0,0.01,0,0.01c0,0.01,0.01,0.02,0.01,0.03
		c0,0,0,0,0,0c0.32,0.71,0.76,1.34,1.23,1.94c0.59,0.72,1.23,1.39,1.92,2.01c0.75,0.68,1.54,1.31,2.35,1.91
		c-0.01-0.01-0.02-0.02-0.03-0.02c2.21,1.59,4.6,2.91,7.12,3.84c-0.02-0.01-0.04-0.02-0.06-0.02c1.38,0.5,2.81,0.89,4.27,1.01
		c-0.01,0-0.01,0-0.02,0c0.02,0,0.04,0,0.06,0c0,0,0,0,0.01,0h0c0.73,0.04,1.46,0.03,2.18-0.11c0.45-0.09,0.9-0.23,1.32-0.44
		c0,0,0.01,0,0.01,0c0,0,0,0,0,0c0,0,0,0,0,0c0.33-0.17,0.63-0.37,0.91-0.62c0.28-0.25,0.52-0.54,0.73-0.86
		c-0.01,0.02-0.02,0.04-0.03,0.06c0.22-0.36,0.4-0.74,0.54-1.14c0,0.01,0,0.02,0,0.02c0-0.01,0.01-0.03,0.01-0.04
		c0,0.01,0,0.01-0.01,0.01c0-0.01,0.01-0.02,0.01-0.03c0,0,0,0,0,0c0.08-0.25,0.13-0.51,0.16-0.78c0,0,0-0.01,0-0.01
		c0-0.01,0-0.01,0-0.02c0-0.17,0-0.33-0.03-0.5c-0.03-0.13-0.06-0.25-0.11-0.38c0,0,0,0,0,0c0,0,0-0.01-0.01-0.01
		c0-0.01,0-0.02-0.01-0.02c0,0.01,0,0.02,0.01,0.02c-0.07-0.15-0.16-0.29-0.25-0.42c-0.15-0.18-0.32-0.33-0.51-0.47
		c-0.34-0.23-0.7-0.4-1.07-0.54c0,0,0.01,0,0.01,0c-1.13-0.4-2.32-0.55-3.5-0.64c0.02,0,0.04,0,0.06,0
		c-1.31-0.1-2.62-0.11-3.94-0.12c-0.55,0-1.1,0-1.66-0.02c-0.38-0.02-0.77-0.03-1.15-0.09c-0.54-0.09-1.07-0.21-1.6-0.33
		c-0.57-0.13-1.14-0.28-1.7-0.44c-1.12-0.32-2.22-0.69-3.3-1.13c-1.16-0.47-2.3-1-3.4-1.62c-0.22-0.13-0.45-0.26-0.67-0.39
		C136.58,155.35,136.63,155.47,136.68,155.58L136.68,155.58L136.68,155.58z M136.69,155.6c0,0,0-0.01,0-0.01
		c0,0.01,0.01,0.02,0.01,0.04C136.69,155.61,136.69,155.6,136.69,155.6L136.69,155.6L136.69,155.6z M157.37,159.99
		c0.01,0,0.02,0.01,0.03,0.01C157.39,160,157.38,159.99,157.37,159.99L157.37,159.99L157.37,159.99z M142.14,161.44
		c0.01,0,0.01,0.01,0.02,0.02C142.15,161.45,142.15,161.44,142.14,161.44L142.14,161.44L142.14,161.44z M153.5,166.28
		c0.01,0,0.03,0,0.04,0c0,0,0,0,0,0C153.53,166.28,153.51,166.28,153.5,166.28L153.5,166.28L153.5,166.28z"/>
	<path class="st1" d="M158.52,160.57c-0.02-0.01-0.03-0.02-0.05-0.04C158.48,160.55,158.5,160.56,158.52,160.57L158.52,160.57
		L158.52,160.57z"/>
	<path class="st1" d="M159.24,161.44C159.24,161.44,159.24,161.44,159.24,161.44C159.24,161.44,159.24,161.44,159.24,161.44
		L159.24,161.44L159.24,161.44z"/>
	<polygon class="st1" points="159.24,161.45 159.24,161.45 159.24,161.44 159.24,161.45 159.24,161.45 	"/>
	<path class="st1" d="M159.24,161.45c0,0.01,0.01,0.01,0.01,0.02C159.25,161.46,159.24,161.46,159.24,161.45
		C159.24,161.45,159.24,161.45,159.24,161.45L159.24,161.45L159.24,161.45z"/>
	<path class="st1" d="M159.38,162.33c0,0.01,0,0.01,0,0.02c0-0.01,0-0.02,0-0.03C159.38,162.32,159.38,162.33,159.38,162.33
		L159.38,162.33L159.38,162.33z"/>
	<path class="st1" d="M159.22,163.14C159.22,163.14,159.22,163.14,159.22,163.14L159.22,163.14c0,0.01,0,0.01,0,0.02
		C159.21,163.15,159.22,163.15,159.22,163.14C159.22,163.14,159.22,163.14,159.22,163.14C159.22,163.14,159.22,163.14,159.22,163.14
		L159.22,163.14L159.22,163.14z"/>
	<path class="st1" d="M98.85,22.2c-5.08,1.92-9.95,4.49-14.48,7.65c-4.57,3.19-8.84,7.07-12.68,11.54
		c-2.02,2.37-3.98,4.98-5.83,7.76c-1.72,2.56-3.34,5.37-4.82,8.35c-2.69,5.38-4.73,11.2-6.06,17.29c-1.25,5.7-1.83,11.74-1.73,17.97
		c0.1,5.84,0.86,11.96,2.26,18.21c1.31,5.8,3.28,11.85,5.86,17.99c1.26,2.99,2.64,5.91,4.12,8.68c1.62,3.06,3.38,5.9,4.74,8.04
		c1.84,2.91,3.88,5.97,5.38,8.19l0.08,0.12l0.3,0.45l0.25,0.38c1.58,2.37,3.22,4.82,4.79,7.26c3.16,4.92,6.75,10.85,9.39,17.46
		c0.68,1.76,1.27,3.52,1.76,5.22c0.39,1.38,0.67,2.67,0.83,3.93l0.02,0.15c0.16,1.35,0.17,2.62,0.04,3.78
		c-0.09,0.62-0.22,1.17-0.41,1.69c-0.13,0.29-0.27,0.56-0.43,0.81c-0.14,0.17-0.3,0.34-0.47,0.5c-0.16,0.12-0.33,0.23-0.52,0.33
		c-0.24,0.09-0.47,0.15-0.73,0.19c-0.15,0.02-0.3,0.02-0.45,0.02c-0.21,0-0.42-0.01-0.63-0.04c-0.5-0.08-0.96-0.2-1.42-0.38
		c-0.6-0.29-1.2-0.69-1.85-1.21c-1.26-1.07-2.39-2.34-3.49-3.57l-0.3-0.35l-0.13-0.15l-0.13-0.15c-0.53-0.59-1.05-1.17-1.6-1.74
		c-0.9-0.93-1.75-1.65-2.6-2.2c-0.68-0.46-1.44-0.86-2.46-1.31c-3.2-1.43-6.87-2.19-10.61-2.19c-0.27,0-0.54,0-0.82,0.01
		c-1.99,0.06-3.94,0.37-5.79,0.91c-1.84,0.52-3.56,1.32-5.09,2.38c-0.63,0.43-1.32,1-2.02,1.69c-0.62,0.61-1.2,1.36-1.8,2.28
		c-1.01,1.56-1.73,3.53-2.05,5.7c-0.1,0.69-0.17,1.48-0.2,2.44c0,0.21,0.07,0.4,0.22,0.57c0.16,0.16,0.35,0.25,0.55,0.25
		c0.41,0,0.76-0.37,0.76-0.82c0.09-0.01,0.19-0.08,0.29-0.16c0.37-0.38,0.73-0.72,1.1-1.03c0.64-0.51,1.29-0.93,1.99-1.27
		c0.7-0.29,1.36-0.48,2-0.58c0.34-0.04,0.68-0.06,1.02-0.06c0.32,0,0.63,0.02,0.95,0.05c0.9,0.13,1.8,0.39,2.75,0.8
		c1.14,0.55,2.27,1.27,3.45,2.21c1.99,1.66,3.9,3.75,5.82,6.38c1.3,1.81,2.49,3.7,3.53,5.62c0.48,0.89,0.93,1.79,1.39,2.7l0.37,0.73
		l1.05,2.11l1.05,2.11c2.61,5.26,5.23,10.39,8.54,15.19c1.62,2.34,3.38,4.51,5.23,6.46c1.92,2,4.1,3.86,6.49,5.52
		c2.44,1.7,5.17,3.17,8.36,4.49c2.86,1.2,6.06,2.16,9.5,2.83c3.48,0.67,7.15,1,10.92,1c2.68,0,5.56-0.17,8.55-0.51
		c3.06-0.37,6.22-0.91,9.64-1.68c2.8-0.64,5.59-1.41,8.29-2.29c9.99-3.22,19.46-8.17,28.15-14.73c0.27-0.21,0.55-0.42,0.82-0.63
		c-5.56,2.8-11.31,5.19-17.18,7.16c-4.16,1.39-8.38,2.6-12.65,3.58c-1.69,0.39-3.38,0.69-5.09,0.95c-2.31,0.35-4.63,0.63-6.95,0.82
		c-2.71,0.23-5.44,0.36-8.16,0.35c-2.78-0.01-5.56-0.15-8.31-0.53c-1.27-0.17-2.55-0.39-3.81-0.69c-1.21-0.29-2.4-0.63-3.57-1.08
		c-1.05-0.4-2.08-0.87-3.06-1.45c-0.89-0.54-1.75-1.16-2.51-1.9c-0.72-0.7-1.36-1.49-1.85-2.39c-0.25-0.46-0.48-0.93-0.66-1.42
		c-0.18-0.5-0.34-1.01-0.4-1.54c-0.03-0.26-0.06-0.52-0.06-0.78c0-0.21,0.01-0.42,0.04-0.63c0.05-0.41,0.16-0.81,0.31-1.18
		c0.34-0.81,0.88-1.51,1.49-2.11c0.69-0.67,1.45-1.25,2.21-1.81c0.83-0.6,1.66-1.19,2.46-1.85c0,0-0.01,0.01-0.01,0.02
		c0.72-0.6,1.4-1.25,1.96-2.03c0.15-0.22,0.3-0.44,0.43-0.68c0.13-0.25,0.26-0.5,0.36-0.76c-0.01,0.02-0.01,0.04-0.02,0.06
		c0.1-0.27,0.2-0.54,0.26-0.83c0.06-0.25,0.1-0.51,0.14-0.77c0,0.02-0.01,0.04-0.01,0.07c0.04-0.32,0.06-0.65,0.05-0.97
		c-0.01-0.28-0.03-0.56-0.06-0.83v0v0c0-0.01,0-0.01,0-0.02c0,0,0-0.01,0-0.01c0-0.01,0-0.02,0-0.03c0,0,0,0.01,0,0.01
		c0,0.01,0,0.02,0,0.02c0-0.01,0-0.02,0-0.02c-0.07-0.48-0.17-0.96-0.3-1.42c-0.16-0.54-0.34-1.07-0.54-1.59
		c0.01,0.02,0.01,0.04,0.02,0.06c-0.23-0.58-0.48-1.14-0.79-1.68c-0.24-0.42-0.5-0.83-0.78-1.22c-0.24-0.32-0.49-0.63-0.76-0.92
		c-0.26-0.28-0.53-0.53-0.82-0.78c-0.32-0.25-0.64-0.5-0.99-0.71c-0.35-0.21-0.72-0.4-1.09-0.58c0.02,0.01,0.04,0.02,0.06,0.02
		c-0.52-0.23-1.05-0.42-1.6-0.56c-0.51-0.13-1.02-0.23-1.54-0.31c0.02,0,0.04,0.01,0.06,0.01c-1.41-0.19-2.84-0.21-4.26-0.13
		c-1.43,0.08-2.85,0.22-4.26,0.38c-1.4,0.15-2.8,0.31-4.21,0.38c-1.31,0.06-2.62,0.06-3.92-0.11c-0.07-0.01-0.12-0.02-0.17-0.08
		c-0.04-0.05-0.07-0.11-0.07-0.18c0-0.07,0.03-0.13,0.07-0.18c0.05-0.05,0.1-0.07,0.17-0.07c0.5-0.05,1.01-0.11,1.51-0.18
		c-0.02,0-0.04,0.01-0.06,0.01c1.12-0.16,2.23-0.39,3.32-0.7c0.99-0.28,1.96-0.62,2.9-1.04c0.01-0.01,0.02-0.01,0.03-0.01
		c-0.01,0-0.02,0.01-0.03,0.01c0,0,0,0-0.01,0c0.81-0.37,1.6-0.77,2.35-1.25c0.67-0.42,1.32-0.88,1.94-1.39
		c0.64-0.52,1.24-1.08,1.81-1.7c0.56-0.6,1.07-1.23,1.56-1.89c0,0-0.01,0.01-0.01,0.01c0,0,0.01-0.01,0.01-0.01c0,0,0,0,0,0
		c0.01-0.01,0.01-0.02,0.02-0.03c0.56-0.78,1.08-1.61,1.53-2.48c0.45-0.85,0.84-1.72,1.2-2.61c-0.01,0.01-0.01,0.03-0.02,0.04
		c0.51-1.3,0.93-2.64,1.25-4.01c0.33-1.37,0.57-2.76,0.75-4.16c0,0.02-0.01,0.04-0.01,0.07c0.59-4.73,0.42-9.54-0.16-14.26
		c0,0.01,0,0.01,0,0.02c0,0.01,0,0.02,0,0.03c0-0.01,0-0.02,0-0.03c-0.44-3.46-1.11-6.89-2-10.26c-0.82-3.1-1.8-6.15-2.97-9.11
		c0.01,0.02,0.01,0.04,0.02,0.06c-1.7-4.26-3.65-8.4-5.86-12.39c-1.1-1.99-2.26-3.95-3.49-5.86c-1.21-1.9-2.48-3.76-3.8-5.58
		c-1.28-1.75-2.6-3.47-3.97-5.15c-0.69-0.84-1.38-1.67-2.09-2.48c-0.66-0.76-1.32-1.51-2.01-2.24c-2.32-2.5-4.82-4.81-7.28-7.15
		c-1.29-1.23-2.58-2.46-3.83-3.74c-1.25-1.27-2.47-2.56-3.63-3.93c-1.1-1.29-2.15-2.64-3.1-4.07c-0.95-1.43-1.82-2.92-2.53-4.5
		c-0.68-1.52-1.24-3.1-1.59-4.75c-0.18-0.85-0.32-1.7-0.4-2.56c-0.04-0.43-0.07-0.86-0.09-1.29c-0.02-0.44-0.02-0.88-0.01-1.32
		c0-0.02,0-0.04,0.01-0.06c-0.06,0.02-0.13,0.04-0.19,0.06c-0.12,0.04-0.26-0.04-0.29-0.17c-0.04-0.13,0.04-0.28,0.16-0.31
		c1.85-0.53,3.67-1.2,5.44-1.99c-0.02,0.01-0.04,0.02-0.06,0.02c2.22-1,4.37-2.18,6.44-3.51c2.06-1.32,4.04-2.79,5.94-4.35
		c0,0,0,0,0,0c0,0,0,0,0.01-0.01c0,0,0,0-0.01,0c0.01-0.01,0.02-0.02,0.03-0.02l0,0c0,0,0.01,0,0.01-0.01
		c1.23-1.02,2.44-2.08,3.6-3.2c1.11-1.06,2.2-2.16,3.25-3.3c2.23-2.42,4.32-4.97,6.28-7.65c0,0,0,0,0.01-0.01
		c0,0,0.01-0.01,0.01-0.02c0-0.01,0.01-0.01,0.01-0.02c0,0,0,0,0,0v0h0c0,0,0,0,0,0c3.8-5.25,7.05-10.96,9.48-17.07
		c-0.01,0.02-0.01,0.04-0.02,0.06c1.76-4.45,3.08-9.12,3.7-13.91c0,0.02-0.01,0.04-0.01,0.07c0.23-1.78,0.36-3.57,0.37-5.36
		c0.01-1.71-0.09-3.41-0.29-5.1c0,0,0,0.01,0,0.01c-0.1-0.84-0.24-1.67-0.4-2.5C102.38,20.94,100.6,21.53,98.85,22.2L98.85,22.2
		L98.85,22.2z M107.5,197.42c0,0.01,0,0.01-0.01,0.02C107.49,197.44,107.5,197.43,107.5,197.42L107.5,197.42L107.5,197.42z
		 M97.16,208.7c-0.01,0-0.02,0.01-0.03,0.01C97.15,208.71,97.16,208.7,97.16,208.7L97.16,208.7L97.16,208.7z"/>
	<path class="st1" d="M104.78,202.47c0,0.01-0.01,0.01-0.01,0.02C104.78,202.49,104.78,202.48,104.78,202.47
		C104.79,202.47,104.79,202.47,104.78,202.47L104.78,202.47L104.78,202.47z"/>
	<path class="st1" d="M104.76,202.5C104.76,202.5,104.76,202.5,104.76,202.5C104.76,202.5,104.77,202.5,104.76,202.5
		C104.77,202.5,104.77,202.5,104.76,202.5L104.76,202.5L104.76,202.5z"/>
	<path class="st1" d="M115.17,220.33c0,0,0-0.01,0-0.01C115.17,220.32,115.17,220.32,115.17,220.33L115.17,220.33L115.17,220.33z"/>
	<path class="st1" d="M91.35,64.23c0,0,0,0.01-0.01,0.01C91.35,64.23,91.35,64.23,91.35,64.23C91.35,64.23,91.35,64.23,91.35,64.23
		L91.35,64.23L91.35,64.23z"/>
	<polygon class="st1" points="91.33,64.26 91.33,64.25 91.33,64.26 91.33,64.26 	"/>
	<polygon class="st1" points="78.19,78.43 78.19,78.43 78.19,78.42 78.19,78.43 78.19,78.43 	"/>
	<polygon class="st1" points="78.18,78.43 78.18,78.43 78.19,78.43 78.18,78.43 78.18,78.43 	"/>
	<path class="st1" d="M70.3,80.26c0.07,2.86,0.36,5.7,0.83,8.51c0.47,2.73,1.13,5.43,1.94,8.07c1.61,5.23,3.85,10.23,6.37,15.03
		c2.56,4.89,5.42,9.58,8.31,14.25c2.9,4.69,5.83,9.35,8.55,14.17c0.98,1.73,1.92,3.48,2.83,5.25c1.12,2.2,2.12,4.47,3.04,6.78
		c-0.01-0.04-0.03-0.08-0.04-0.12c1.11,2.83,2.08,5.71,2.95,8.63c0.44,1.48,0.85,2.97,1.22,4.48c0.19,0.75,0.36,1.51,0.52,2.27
		c0.18,0.83,0.31,1.68,0.41,2.53c0-0.05-0.01-0.09-0.01-0.13c0.38,3.12,0.34,6.26,0.26,9.4c-0.07,3.22-0.17,6.43,0.13,9.64
		c0.01,0.14,0.04,0.25,0.14,0.36c0.09,0.1,0.21,0.15,0.34,0.15c0.24,0,0.5-0.23,0.48-0.51c-0.33-3.48-0.19-6.98-0.11-10.47
		c0.04-1.74,0.05-3.48-0.02-5.22c-0.07-1.73-0.24-3.46-0.54-5.17c-0.15-0.84-0.34-1.67-0.53-2.5c-0.21-0.89-0.44-1.77-0.68-2.66
		c-0.45-1.68-0.95-3.34-1.48-4.99c-1.01-3.18-2.2-6.31-3.54-9.35c-1.22-2.75-2.61-5.4-4.06-8.01c-1.34-2.41-2.74-4.78-4.17-7.13
		c-2.86-4.72-5.83-9.37-8.66-14.11c-3.33-5.59-6.46-11.34-8.89-17.44c0,0.01,0.01,0.01,0.01,0.02c-0.01-0.03-0.02-0.06-0.03-0.09
		c0,0,0,0,0,0.01c0,0,0-0.01-0.01-0.01c-0.99-2.51-1.85-5.07-2.56-7.69c-0.73-2.69-1.27-5.43-1.63-8.2
		c0.01,0.05,0.01,0.09,0.02,0.13c-0.25-1.95-0.39-3.9-0.44-5.86c-0.01-0.27-0.21-0.51-0.48-0.51C70.53,79.76,70.3,79.99,70.3,80.26
		L70.3,80.26L70.3,80.26z M75.9,101.96c-0.01-0.02-0.02-0.04-0.02-0.06C75.89,101.92,75.89,101.94,75.9,101.96L75.9,101.96
		L75.9,101.96z"/>
	<path class="st1" d="M65.11,85.43c0.01,0.17,0.03,0.33,0.04,0.5c-0.24,0.02-0.43,0.24-0.43,0.51c0,0.04,0,0.07,0,0.11
		c-0.01,0-0.03,0-0.04,0c-0.09,0-0.17,0.03-0.25,0.08c-0.04-0.24-0.09-0.47-0.14-0.71c-0.04-0.22-0.25-0.37-0.46-0.37
		c-0.11,0-0.22,0.05-0.31,0.12c-0.07-0.17-0.27-0.28-0.43-0.28c-0.25,0-0.49,0.23-0.48,0.51c0.02,0.4,0.04,0.81,0.07,1.21
		c-0.06-0.42-0.12-0.84-0.18-1.26c-0.03-0.22-0.26-0.37-0.46-0.37c-0.19,0-0.37,0.13-0.44,0.31c-0.08-0.07-0.19-0.11-0.29-0.11
		c-0.26,0-0.47,0.23-0.48,0.51c0,0.19,0,0.39,0,0.58c-0.24,0.03-0.41,0.25-0.42,0.5c0,0.15-0.01,0.3-0.01,0.45
		c-0.01,0-0.01,0-0.02,0c-0.27,0-0.47,0.23-0.48,0.51c-0.05,1.48,0.04,2.96,0.23,4.42c0.2,1.54,0.51,3.06,0.94,4.54
		c0.06,0.2,0.22,0.35,0.41,0.37c0.21,0.47,0.43,0.94,0.66,1.4c0.13,0.71,0.29,1.42,0.49,2.12c0.01,0.04,0.03,0.08,0.05,0.12
		c0.49,2.97,1.24,5.89,2.32,8.68c0.02,0.08,0.06,0.16,0.12,0.22c0.06,0.06,0.13,0.11,0.21,0.13c0.16,0.05,0.35,0,0.47-0.13
		c0.21-0.23,0.39-0.48,0.54-0.75c0.04,0.09,0.08,0.18,0.12,0.27c0.6,1.32,1.33,2.57,2.19,3.73c0.1,0.13,0.31,0.17,0.46,0.13
		c0.22-0.06,0.34-0.26,0.35-0.49c0.04-0.54,0.02-1.08-0.06-1.62c0.09,0.17,0.19,0.34,0.29,0.51c0.28,0.71,0.58,1.42,0.89,2.12
		c0.09,0.2,0.35,0.29,0.54,0.23c0.25-0.08,0.4-0.36,0.33-0.63c-0.1-0.36-0.2-0.73-0.31-1.09c0.02-0.01,0.04-0.02,0.07-0.03
		c0.08,0.11,0.16,0.21,0.23,0.32c-0.01-0.01-0.01-0.02-0.02-0.03c1.31,1.81,2.62,3.68,4.22,5.21c0.31,0.39,0.63,0.77,0.96,1.13
		c0.72,1.11,1.51,2.17,2.39,3.14c0.19,0.21,0.5,0.17,0.67,0c0.02,0.02,0.04,0.04,0.06,0.06c0.25,0.27,0.68,0.14,0.79-0.19
		c0.16,0.22,0.33,0.43,0.5,0.64c0.14,0.17,0.41,0.19,0.58,0.08c0.05-0.03,0.1-0.07,0.13-0.12c0.28,0.44,0.57,0.88,0.86,1.32
		c0.04,0.08,0.1,0.14,0.17,0.18c0.11,0.07,0.25,0.09,0.37,0.05c0.24-0.07,0.41-0.36,0.33-0.63c-0.01-0.03-0.02-0.06-0.03-0.09
		c0.09,0.05,0.2,0.07,0.3,0.05c1.35,2.55,2.86,5.01,4.42,7.43c0.15,0.23,0.41,0.33,0.65,0.18c0.12-0.08,0.2-0.2,0.22-0.33
		c0.5,0.71,1.04,1.4,1.6,2.07c0.09,0.11,0.23,0.16,0.37,0.15c0.42,0.92,0.82,1.86,1.21,2.79c0.05,0.12,0.18,0.2,0.28,0.23
		c0.13,0.04,0.26,0.02,0.37-0.05c0.11-0.06,0.19-0.17,0.22-0.3c0.04-0.14,0.01-0.26-0.05-0.39c-1.33-3.18-2.8-6.29-4.44-9.3
		c-1.48-2.72-3.11-5.35-4.94-7.81c-0.55-0.98-1.1-1.96-1.65-2.95c-0.09-0.17-0.27-0.27-0.45-0.25c-0.34-0.81-0.68-1.62-1.02-2.43
		c-0.06-0.15-0.21-0.23-0.37-0.25c-0.81-1.77-1.65-3.53-2.55-5.26c-0.06-0.11-0.16-0.19-0.28-0.23c-0.39-0.79-0.78-1.58-1.18-2.36
		c-0.1-0.2-0.34-0.29-0.54-0.23c-0.08-0.17-0.16-0.34-0.24-0.52c-0.09-0.2-0.34-0.29-0.54-0.23c-0.12,0.04-0.22,0.12-0.28,0.23
		c-0.04,0.06-0.06,0.15-0.07,0.23c-0.1-0.24-0.2-0.48-0.3-0.73c-0.13-0.32-0.25-0.64-0.37-0.97c-0.05-0.13-0.1-0.23-0.22-0.31
		c-0.11-0.07-0.25-0.09-0.37-0.05c-0.23,0.07-0.42,0.37-0.33,0.63c0.76,2.2,1.53,4.42,2.36,6.6c-0.09-0.2-0.18-0.4-0.26-0.61
		c-0.87-2.39-1.71-4.79-2.66-7.14c-0.04-0.08-0.1-0.13-0.17-0.18c-0.11-0.07-0.24-0.09-0.37-0.05c-0.11,0.03-0.21,0.11-0.28,0.22
		c-0.14-0.38-0.28-0.76-0.42-1.14c-0.05-0.13-0.1-0.23-0.22-0.3c-0.11-0.07-0.24-0.09-0.37-0.05c-0.11,0.03-0.21,0.11-0.27,0.21
		c-0.15-0.26-0.3-0.52-0.46-0.78c-0.12-0.19-0.33-0.3-0.54-0.23c-0.09,0.03-0.17,0.08-0.23,0.15c-0.91-3.75-1.82-7.51-2.32-11.36
		c0.01,0.05,0.01,0.09,0.02,0.13c-0.04-0.31-0.08-0.63-0.11-0.94c-0.01-0.14-0.04-0.26-0.14-0.36c-0.07-0.07-0.15-0.12-0.24-0.14
		c-0.06-0.45-0.13-0.9-0.19-1.34c-0.03-0.22-0.27-0.37-0.46-0.37C65.35,84.92,65.09,85.15,65.11,85.43L65.11,85.43L65.11,85.43z
		 M64.33,86.3c0,0.02,0.01,0.04,0.01,0.06c0-0.01,0-0.02,0-0.03C64.33,86.33,64.33,86.32,64.33,86.3L64.33,86.3L64.33,86.3z
		 M63.8,101.92c0.12,0.19,0.23,0.38,0.35,0.57c0.18,0.85,0.4,1.69,0.63,2.52c0.18,0.77,0.38,1.54,0.61,2.31
		c0.04,0.15,0.14,0.27,0.26,0.33c0.06,0.15,0.12,0.31,0.18,0.46c-0.04,0.12-0.08,0.23-0.12,0.35c-0.03,0.08-0.07,0.16-0.11,0.24
		C64.82,106.5,64.23,104.23,63.8,101.92L63.8,101.92L63.8,101.92z M71.03,103.79c0.03,0.06,0.06,0.13,0.09,0.19
		c0.08,0.3,0.17,0.6,0.26,0.89c-0.01-0.02-0.02-0.04-0.04-0.06C71.24,104.47,71.13,104.13,71.03,103.79L71.03,103.79L71.03,103.79z
		 M67,107.26c0.26,0.54,0.51,1.09,0.73,1.65c0-0.01,0-0.01-0.01-0.02c0.01,0.02,0.01,0.04,0.02,0.06c0.01,0.02,0.02,0.04,0.03,0.07
		c0-0.01-0.01-0.01-0.01-0.02c0.28,0.73,0.51,1.48,0.66,2.25c-0.61-1.01-1.12-2.09-1.58-3.19C66.91,107.79,66.96,107.53,67,107.26
		L67,107.26L67,107.26z M74.75,107.97c0.01,0.03,0.02,0.06,0.03,0.09C74.77,108.02,74.76,108,74.75,107.97L74.75,107.97
		L74.75,107.97z M71.44,109.49c0.31,0.49,0.62,0.97,0.94,1.46c0.11,0.18,0.23,0.35,0.34,0.53c0.01,0.02,0.02,0.05,0.03,0.07
		c0.03,0.06,0.05,0.13,0.08,0.19c-0.3-0.44-0.59-0.87-0.89-1.31C71.77,110.12,71.6,109.81,71.44,109.49L71.44,109.49L71.44,109.49z
		 M69.2,112.44c0.01,0.01,0.02,0.03,0.03,0.04c-0.01-0.01-0.02-0.02-0.02-0.03C69.2,112.44,69.2,112.44,69.2,112.44L69.2,112.44
		L69.2,112.44z M74.24,113.62c0.01,0.01,0.02,0.02,0.02,0.03C74.26,113.64,74.25,113.63,74.24,113.62L74.24,113.62L74.24,113.62z
		 M82.22,115.86c0.01,0.03,0.02,0.05,0.03,0.08c-0.01-0.02-0.02-0.04-0.03-0.06C82.23,115.87,82.22,115.87,82.22,115.86
		L82.22,115.86L82.22,115.86z M71.5,112.88c-0.02-0.02-0.04-0.05-0.05-0.07C71.47,112.83,71.49,112.85,71.5,112.88L71.5,112.88
		L71.5,112.88z M67.76,108.99c-0.01-0.02-0.01-0.03-0.02-0.05c-0.01-0.01-0.01-0.02-0.01-0.04
		C67.74,108.94,67.75,108.97,67.76,108.99L67.76,108.99L67.76,108.99z"/>
	<path class="st1" d="M69.07,93.07c0,0.28,0.22,0.51,0.48,0.51c0.26,0,0.48-0.23,0.48-0.51c0-0.28-0.22-0.51-0.48-0.51
		C69.29,92.56,69.07,92.79,69.07,93.07L69.07,93.07L69.07,93.07z"/>
	<path class="st1" d="M69.59,82.54c-0.1,0.1-0.13,0.22-0.14,0.36c-0.03,0.39-0.06,0.77-0.08,1.16c-0.04-0.31-0.08-0.61-0.13-0.92
		c-0.02-0.12-0.12-0.25-0.22-0.31c-0.11-0.07-0.25-0.09-0.37-0.05c-0.12,0.04-0.22,0.12-0.28,0.23c-0.05,0.09-0.06,0.17-0.06,0.25
		c-0.01,0.01-0.03,0.02-0.04,0.04c-0.07,0.07-0.1,0.15-0.12,0.24c-0.01-0.02-0.01-0.05-0.02-0.07c-0.05-0.22-0.25-0.37-0.46-0.37
		c-0.17,0-0.31,0.1-0.4,0.24c-0.07-0.01-0.14-0.01-0.21,0.01c-0.12,0.04-0.22,0.12-0.28,0.23c-0.07,0.13-0.07,0.25-0.05,0.39
		c0.04,0.29,0.08,0.58,0.12,0.88c-0.11-0.2-0.22-0.39-0.33-0.58c-0.12-0.19-0.32-0.3-0.54-0.23c-0.21,0.06-0.35,0.27-0.35,0.49
		c0,0.21,0,0.41,0.01,0.62c-0.03,0.07-0.05,0.14-0.05,0.22c-0.01,1.67,0.05,3.34,0.2,5c-0.01,0-0.02,0-0.02,0.01
		c-0.25,0.08-0.4,0.36-0.34,0.63c0.34,1.38,0.67,2.75,1.02,4.12c0.22,1.15,0.5,2.28,0.84,3.4c0.11,0.35,0.22,0.71,0.35,1.05
		c0.16,0.55,0.32,1.1,0.48,1.64c-0.2,1.33-0.03,2.69,0.23,4c0.35,1.67,0.91,3.28,1.55,4.84c0.66,1.61,1.44,3.17,2.33,4.65
		c0.4,0.67,0.84,1.31,1.3,1.93c0.41,0.56,0.86,1.09,1.35,1.57c0.13,0.12,0.29,0.18,0.46,0.13c0.21-0.06,0.35-0.27,0.35-0.49
		c0-0.04,0-0.09,0-0.13c0.1-0.09,0.17-0.22,0.17-0.36c0.08,0.03,0.17,0.03,0.26,0c0.26-0.08,0.4-0.36,0.34-0.63
		c-0.29-1.31-0.7-2.58-1.16-3.84c-0.54-1.49-1.16-2.95-1.83-4.38c-0.39-0.84-0.81-1.67-1.25-2.48c0.17-0.04,0.3-0.18,0.36-0.36
		c0.09-0.28,0.17-0.57,0.22-0.86c0.23,0.45,0.48,0.9,0.74,1.33c0.12,0.19,0.32,0.29,0.54,0.23c0.08-0.02,0.16-0.07,0.22-0.14
		c0.11,0.28,0.23,0.57,0.34,0.85c0.09,0.2,0.35,0.29,0.54,0.23c0.04-0.01,0.08-0.03,0.12-0.05c0.03,0.1,0.06,0.19,0.09,0.29
		c0.08,0.25,0.3,0.42,0.56,0.37c0.05,0.07,0.1,0.14,0.14,0.22c0.11,0.31,0.23,0.63,0.34,0.94c0.05,0.13,0.1,0.23,0.22,0.3
		c0.11,0.07,0.25,0.09,0.37,0.05c0.05-0.01,0.09-0.03,0.13-0.06c0.12,0.03,0.26,0.02,0.37-0.05c0.18-0.11,0.28-0.36,0.22-0.58
		c-0.5-1.62-1.1-3.19-1.71-4.76c-0.79-2.6-1.66-5.17-2.53-7.74c-0.06-0.19-0.2-0.33-0.37-0.36c-0.01-0.04-0.02-0.08-0.03-0.11
		c-0.15-0.59-0.31-1.17-0.46-1.76c-0.43-1.92-0.86-3.85-1.32-5.76c-0.01-0.04-0.03-0.09-0.05-0.12c-0.01-0.07-0.02-0.15-0.03-0.22
		c-0.24-1.72-0.6-3.41-0.86-5.13c-0.03-0.22-0.27-0.37-0.46-0.37C69.79,82.39,69.67,82.44,69.59,82.54L69.59,82.54L69.59,82.54z
		 M68.83,100.02c0.01,0.02,0.02,0.05,0.03,0.08c-0.01-0.02-0.02-0.04-0.02-0.06C68.84,100.03,68.83,100.02,68.83,100.02
		L68.83,100.02L68.83,100.02z M71.16,100.81c0-0.03,0-0.05,0-0.08c0.24,0.76,0.51,1.51,0.81,2.24c0.01,0.42,0,0.84-0.05,1.27
		c-0.32-0.58-0.61-1.17-0.87-1.78C71.12,101.92,71.16,101.37,71.16,100.81L71.16,100.81L71.16,100.81z M72.91,102.2
		c0.09,0.29,0.18,0.58,0.27,0.87c0.02,0.14,0.04,0.28,0.06,0.42c-0.11-0.24-0.22-0.48-0.32-0.72c-0.01-0.19-0.02-0.38-0.04-0.57
		C72.89,102.2,72.9,102.2,72.91,102.2L72.91,102.2L72.91,102.2z M69.37,105.34c0.28,0.86,0.58,1.72,0.89,2.57
		c0.21,0.81,0.49,1.61,0.8,2.39c-0.16-0.36-0.31-0.71-0.45-1.07c0,0.01,0.01,0.02,0.01,0.04c-0.01-0.03-0.02-0.06-0.04-0.09
		c0-0.01-0.01-0.02-0.01-0.03c0,0,0,0.01,0,0.01C70.1,107.92,69.67,106.64,69.37,105.34L69.37,105.34L69.37,105.34z M74.1,115.75
		c0.01,0.02,0.03,0.03,0.04,0.05C74.12,115.79,74.11,115.77,74.1,115.75C74.1,115.75,74.1,115.75,74.1,115.75L74.1,115.75
		L74.1,115.75z M70.59,109.18c0.01,0.02,0.01,0.04,0.02,0.06c-0.01-0.03-0.02-0.05-0.03-0.08
		C70.58,109.16,70.58,109.17,70.59,109.18L70.59,109.18L70.59,109.18z"/>
	<path class="st1" d="M68,84.26c-0.17,0.12-0.27,0.26-0.32,0.47c-0.05,0.23-0.01,0.47,0.02,0.69c0.01,0.08,0.02,0.17,0.04,0.25
		c-0.03,0.04-0.05,0.09-0.06,0.15c-1.01,5.04-0.46,10.29,0.75,15.23c0.63,2.59,1.48,5.12,2.47,7.59c0.93,2.33,2.01,4.6,3.22,6.78
		c0.11,0.19,0.33,0.29,0.54,0.23c0.25-0.07,0.41-0.36,0.33-0.63c-2.24-7.68-4.75-15.33-5.77-23.33c0,0.04,0.01,0.09,0.01,0.13
		c-0.15-1.21-0.26-2.42-0.34-3.63c-0.04-0.62-0.04-1.23-0.09-1.84c-0.04-0.39-0.12-0.78-0.17-1.17c0.15-0.05,0.28-0.17,0.33-0.35
		c0.07-0.25-0.08-0.56-0.33-0.62c-0.1-0.02-0.2-0.04-0.31-0.04C68.2,84.18,68.09,84.2,68,84.26L68,84.26L68,84.26z M68.31,87.79
		c0,0.03-0.01,0.05-0.01,0.07C68.31,87.84,68.31,87.81,68.31,87.79L68.31,87.79L68.31,87.79z M68.12,90.43
		c0.1,1.02,0.23,2.04,0.39,3.06c0.37,2.49,0.89,4.95,1.48,7.39c0.74,3.06,1.61,6.07,2.5,9.08c-0.28-0.63-0.54-1.27-0.8-1.91
		c0.01,0.02,0.01,0.03,0.02,0.05c-0.01-0.04-0.03-0.07-0.04-0.11c0-0.01,0-0.01-0.01-0.02c0,0,0,0.01,0,0.01
		c-1.54-3.9-2.7-7.99-3.26-12.18c0,0.01,0,0.01,0,0.02C68.18,94.04,68.07,92.23,68.12,90.43L68.12,90.43L68.12,90.43z M68.39,95.69
		c0,0.02,0.01,0.04,0.01,0.07C68.39,95.73,68.39,95.71,68.39,95.69L68.39,95.69L68.39,95.69z M71.67,107.99
		c0.01,0.02,0.02,0.04,0.02,0.06C71.68,108.03,71.67,108.01,71.67,107.99C71.66,107.99,71.66,107.99,71.67,107.99L71.67,107.99
		L71.67,107.99z"/>
	<path class="st2" d="M164.76,108.14c-0.96,0-1.94,0.07-2.92,0.22c-1.13,0.16-2.31,0.45-3.63,0.87c-1.13,0.36-2.27,0.85-3.4,1.44
		c-0.45,0.23-0.92,0.5-1.48,0.86c-0.24,0.16-0.49,0.31-0.71,0.49c-0.42,0.33-0.81,0.7-1.24,1.1c-0.54,0.52-1.08,1.06-1.64,1.68
		c-0.62,0.68-1.14,1.31-1.59,1.93c-0.49,0.68-0.83,1.27-1.05,1.86c-0.24,0.63-0.27,1.19-0.09,1.66c0.04,0.11,0.09,0.2,0.16,0.29
		c-0.08,0.21-0.01,0.46,0.16,0.6c1.5,1.16,3.38,1.85,5.76,2.12c0.61,0.07,1.24,0.1,1.93,0.1c0.48,0,0.95-0.02,1.43-0.04
		c1.06-0.06,2.19-0.22,3.36-0.47c1.01-0.21,2.06-0.51,3.11-0.89c0.9-0.32,1.67-0.67,2.35-1.05c0.48-0.27,0.94-0.57,1.47-0.94
		c0.61-0.42,1.23-0.88,1.85-1.37c1.55-1.23,2.7-2.35,3.62-3.51c0.49-0.62,0.85-1.22,1.08-1.82c0.24-0.61,0.3-1.22,0.17-1.73
		c-0.15-0.58-0.52-1.08-1.08-1.45c-0.46-0.29-0.96-0.52-1.43-0.73c-0.53-0.23-1.12-0.44-1.79-0.63
		C167.78,108.33,166.3,108.14,164.76,108.14L164.76,108.14L164.76,108.14z"/>
	<path class="st3" d="M166.29,91.26c-0.22,0-0.43,0.01-0.65,0.04c-1.04,0.11-2.09,0.52-3.09,1.21c-0.89,0.61-1.74,1.49-2.53,2.61
		c-0.5,0.71-0.92,1.5-1.33,2.25l-0.34,0.64c-0.11,0.21-0.23,0.41-0.35,0.61c-0.37,0.6-0.73,1.06-1.12,1.45
		c-0.26,0.23-0.54,0.43-0.83,0.59c-0.3,0.13-0.6,0.24-0.94,0.32c-0.06,0.01-0.13,0.02-0.19,0.03c-0.09,0.01-0.18,0.04-0.26,0.07
		c-0.3,0.04-0.61,0.09-0.91,0.14c-0.21-0.01-0.42-0.02-0.62-0.04c-1.3-0.25-2.59-0.71-3.83-1.16l-0.46-0.16l-0.35-0.12
		c-1.34-0.48-2.73-0.98-4.15-0.98c-0.13,0-0.25,0-0.38,0.01c-0.93,0.06-1.78,0.28-2.53,0.63c-0.72,0.33-1.37,0.81-1.92,1.43
		c-0.46,0.51-0.86,1.17-1.17,1.94c-0.28,0.7-0.47,1.49-0.58,2.35c-0.2,1.57-0.1,3.28,0.31,5.23c0.34,1.65,0.92,3.27,1.7,4.79
		c0.71,1.39,1.75,2.77,3.07,4.08c1.19,1.17,2.58,2.18,4.14,2.99c2.57,1.34,5.59,2.04,8.72,2.04c0.32,0,0.65-0.01,0.97-0.02
		c3.31-0.15,6.63-1.12,9.61-2.82c1.41-0.8,2.77-1.83,4.03-3.05c1.18-1.14,2.23-2.49,3.12-4.03c0.85-1.48,1.5-3.14,1.92-4.94
		c0.44-1.89,0.59-3.97,0.43-6.18c-0.18-2.48-0.79-4.73-1.81-6.67c-1.1-2.1-2.82-3.76-4.87-4.66
		C168.19,91.47,167.22,91.26,166.29,91.26L166.29,91.26L166.29,91.26z M160.97,109.32c1.28-0.24,2.55-0.36,3.78-0.36
		c0.47,0,0.94,0.02,1.41,0.05c0,0,0.03,0,0.04,0c0.01,0,0.02,0,0.02,0c0,0,0.05,0,0.05-0.01c1.35,0.15,2.59,0.44,3.73,0.86
		c0.93,0.37,1.84,0.87,2.71,1.5c0.13,0.1,0.26,0.2,0.38,0.31c-0.36,0.84-0.77,1.64-1.22,2.39l-0.06,0.11l0.01,0.01
		c-0.76,1.16-1.69,2.28-2.76,3.31c-1.29,1.19-2.72,2.2-4.29,3.01l0.1-0.03l0.09-0.04c-1.73,0.87-3.58,1.52-5.52,1.91
		c0.01,0,0.02,0,0.03,0c0.03,0,0.05,0,0.07-0.01c-1.31,0.23-2.63,0.36-3.93,0.36c-0.47,0-0.95-0.02-1.42-0.05
		c-1.56-0.13-3.08-0.45-4.5-0.94l-0.1-0.03l0,0.01c-0.68-0.27-1.34-0.56-1.98-0.89c0.12-0.56,0.25-1.09,0.42-1.6
		c0.32-0.9,0.74-1.77,1.27-2.6c0.65-0.98,1.42-1.88,2.31-2.71c1.15-1.04,2.48-1.95,3.94-2.71l-0.18,0.06
		C157.14,110.37,159.02,109.71,160.97,109.32L160.97,109.32L160.97,109.32L160.97,109.32z"/>
	<path class="st3" d="M124.83,109.63c3.74-2.05,4.16-9.13,0.93-15.8c-3.23-6.67-8.88-10.41-12.62-8.36
		c-3.74,2.05-4.16,9.13-0.93,15.8C115.43,107.94,121.09,111.69,124.83,109.63L124.83,109.63L124.83,109.63z"/>
	<path class="st3" d="M182.99,90.11c3.58-1.96,3.98-8.74,0.89-15.12c-3.09-6.38-8.5-9.96-12.08-8c-3.58,1.96-3.98,8.74-0.89,15.12
		C174,88.49,179.42,92.07,182.99,90.11L182.99,90.11L182.99,90.11z"/>
	<path class="st4" d="M84.44,61.67c14.44-18.5,21.47-37.68,15.68-42.8c-5.79-5.13-22.22,5.73-36.66,24.22S41.99,80.77,47.78,85.9
		S70,80.17,84.44,61.67L84.44,61.67L84.44,61.67z"/>
	<path class="st5" d="M79.73,26.06c0.85-0.46,1.72-0.91,2.59-1.31c0.85-0.38,1.7-0.73,2.58-1.02c0.81-0.27,1.63-0.49,2.46-0.64
		c0.21-0.04,0.43-0.08,0.65-0.11c0.54-0.07,1.09-0.1,1.64-0.07c0.65,0.04,1.3,0.14,1.91,0.4c0.56,0.24,1.08,0.59,1.48,1.08
		c0.44,0.51,0.74,1.15,0.9,1.82c0.21,0.86,0.26,1.75,0.21,2.64c-0.07,1.23-0.31,2.45-0.6,3.65c-0.63,2.59-1.48,5.13-2.5,7.58
		c-1.09,2.6-2.33,5.12-3.72,7.55c-1.38,2.45-2.88,4.82-4.48,7.12c-1.34,1.92-2.74,3.8-4.19,5.62c0.06-0.04,0.11-0.09,0.16-0.13
		c0.48-0.39,0.97-0.76,1.5-1.07c0.4-0.24,0.83-0.45,1.29-0.55c0.18-0.04,0.35-0.05,0.53-0.04c0.14,0.01,0.28,0.05,0.42,0.09
		c0.31,0.1,0.6,0.27,0.79,0.55c0.18,0.25,0.28,0.57,0.29,0.88c0.02,0.39-0.04,0.77-0.15,1.14c-0.13,0.48-0.31,0.94-0.52,1.38
		c-0.26,0.54-0.55,1.07-0.86,1.58c-0.34,0.58-0.71,1.14-1.09,1.7c1.16-1.36,2.3-2.76,3.43-4.21c6.98-8.94,12.46-18.32,15.42-26.42
		c2.97-8.1,3.06-13.93,0.25-16.41c-1.21-1.07-2.9-1.47-5.02-1.19C91.01,18.2,85.57,21.25,79.73,26.06L79.73,26.06L79.73,26.06z"/>
	<path class="st6" d="M40.7,13.14c-0.59,0.14-1.17,0.29-1.75,0.42c-0.28,0.09-0.56,0.18-0.84,0.28c0,0,0,0,0.01,0
		c0,0-0.01,0.01-0.01,0.01c0,0-0.01,0-0.01,0s0,0,0,0c-0.35,0.14-0.7,0.29-1.02,0.47c-0.34,0.19-0.67,0.39-1,0.62c0,0,0,0,0.01,0
		c-0.31,0.23-0.6,0.48-0.88,0.74c-0.1,0.09-0.25,0.09-0.34-0.02c-0.06-0.06-0.07-0.14-0.06-0.21c-0.14,0.14-0.27,0.3-0.41,0.45
		c0.01,0.01,0.02,0.02,0.02,0.03c0.04,0.06,0.05,0.13,0.03,0.19c-0.01,0.07-0.05,0.11-0.1,0.16c-0.01,0.01-0.03,0.02-0.04,0.03
		c0,0,0,0-0.01,0c0,0,0,0,0,0c0,0,0,0,0,0c0,0-0.01,0.01-0.01,0.01c0,0,0,0,0.01-0.01c-0.08,0.07-0.16,0.15-0.22,0.24
		c-0.08,0.1-0.14,0.19-0.21,0.3c0.01-0.02,0.03-0.04,0.04-0.05c-0.11,0.18-0.21,0.37-0.29,0.57c-0.06,0.16-0.12,0.31-0.17,0.47
		c-0.18,0.56-0.3,1.14-0.39,1.73c-0.09,0.61-0.17,1.22-0.22,1.84c-0.05,0.79-0.04,1.59,0.04,2.38c0.08,0.7,0.15,1.4,0.26,2.09
		c0.07,0.4,0.17,0.79,0.29,1.17c0.04,0.13-0.03,0.28-0.15,0.32c0,0,0,0-0.01,0c0.09,0.38,0.18,0.75,0.27,1.12
		c0.32,1.27,0.71,2.63,1.19,4.17c0.85,2.69,1.89,5.45,3.18,8.44c2.05,4.78,4.57,9.77,7.94,15.69c1.53,2.71,3,5.14,4.43,7.37
		c0.12-0.07,0.24-0.13,0.36-0.19c0.13-0.06,0.26-0.11,0.4-0.16c0.06-0.02,0.12-0.01,0.18,0.02c0.08-0.03,0.16-0.07,0.24-0.1
		c0,0,0,0,0,0c0.02-0.01,0.04-0.01,0.06-0.02c0.01-0.01,0.02-0.01,0.04-0.01c0.05-0.01,0.11,0.01,0.14,0.04
		c0.05,0.03,0.09,0.09,0.11,0.15c0.03,0.12-0.02,0.22-0.11,0.28c-0.02,0.02-0.05,0.03-0.07,0.05c-0.02,0.03-0.05,0.05-0.08,0.07
		c-0.17,0.11-0.34,0.22-0.52,0.31c0,0.01,0,0.02-0.01,0.04c0,0.04,0,0.09,0,0.13c0.01,0.09,0.04,0.18,0.06,0.26
		c0.16,0.41,0.39,0.76,0.64,1.11c-0.01-0.02-0.02-0.04-0.04-0.06c0.22,0.3,0.44,0.59,0.68,0.88c0.11,0.14,0.23,0.29,0.35,0.44
		c0.07-0.05,0.15-0.09,0.23-0.14c0.07-0.04,0.17-0.04,0.24,0.01c0.05-0.03,0.09-0.06,0.14-0.08c0.03-0.02,0.06-0.03,0.09-0.03
		c0.09-0.01,0.18,0.04,0.24,0.13c0.01,0.03,0.02,0.05,0.03,0.08c0.03,0.02,0.06,0.05,0.08,0.09c0,0.01,0.01,0.02,0.01,0.02
		c0.09-0.01,0.19,0.04,0.23,0.13c0.02,0.04,0.03,0.08,0.03,0.12c0,0.01,0.01,0.02,0.02,0.03c0.03,0.06,0.04,0.13,0.02,0.2
		c-0.02,0.05-0.04,0.09-0.08,0.12c-0.02,0.02-0.04,0.04-0.06,0.06c-0.01,0.01-0.03,0.02-0.04,0.03c-0.19,0.15-0.38,0.29-0.59,0.41
		c0.3,0.41,0.59,0.82,0.89,1.23c0.02,0.01,0.04,0.04,0.05,0.06c0.01,0.02,0.03,0.04,0.04,0.06c0.02,0.03,0.05,0.07,0.08,0.1
		c0,0.01,0.01,0.01,0.01,0.01c0.01,0.02,0.03,0.04,0.05,0.06c0.05,0.06,0.1,0.12,0.14,0.19c0.46,0.6,0.89,1.23,1.34,1.84
		c0.16,0.21,0.32,0.41,0.48,0.62c0.08,0.08,0.16,0.16,0.24,0.24c0.05,0.01,0.11,0.01,0.17,0.01c0.04,0,0.07-0.01,0.12-0.02
		l0.21-0.08l0.12-0.04l0.17-0.07c0.22-0.08,0.41-0.16,0.61-0.25l0.09-0.06c0.07-0.01,0.11-0.03,0.16-0.06l0.2-0.09
		c0.31-0.14,0.6-0.29,0.89-0.44l0.09-0.06c0,0,0,0,0,0c0.01,0,0.05-0.02,0.1-0.05l0.15-0.09c0.43-0.22,0.82-0.45,1.21-0.69
		c0.45-0.28,0.83-0.52,1.21-0.77l0.09-0.07l0.11-0.06l0.13-0.08l0.14-0.09c0.71-0.49,1.45-1.03,2.3-1.71
		c3.49-2.76,6.88-6.11,10.35-10.23c3.39-4.04,6.37-8.29,8.84-12.63c1.52-2.66,2.72-5.15,3.68-7.6c0.5-1.25,0.93-2.57,1.28-3.91
		c0.4-1.47,0.61-2.79,0.66-4.03c0-0.12,0-0.23-0.01-0.34c0-0.01,0-0.02-0.01-0.03c0,0,0.01,0,0.01-0.01c0-0.06,0-0.12-0.01-0.19
		c-0.01-0.11-0.03-0.22-0.04-0.33c-0.03-0.06-0.08-0.11-0.14-0.14c-0.56-0.36-1.13-0.7-1.72-1.03c-0.53-0.3-1.06-0.59-1.59-0.87
		l-0.32-0.18c-0.32-0.17-0.63-0.33-0.94-0.5c-0.03,0.15-0.06,0.29-0.1,0.44c0,0.01,0,0.02-0.01,0.04c0,0,0,0.01,0,0.01
		c-0.02,0.06-0.03,0.12-0.05,0.18c0,0,0,0.01,0,0.01c-0.01,0.01-0.01,0.03-0.01,0.04c-0.03,0.11-0.06,0.22-0.1,0.33
		c-0.01,0.03-0.02,0.05-0.04,0.08c0,0.01,0,0.02-0.01,0.03c-0.01,0.07-0.03,0.13-0.09,0.18c-0.05,0.04-0.11,0.06-0.17,0.05
		c-0.06,0-0.12-0.04-0.16-0.09c-0.04-0.05-0.06-0.12-0.05-0.19c0-0.02,0.01-0.03,0.01-0.05c0-0.04,0-0.07,0.01-0.11
		c0.01-0.02,0.01-0.04,0.02-0.06c0,0,0,0,0,0c0,0,0,0,0,0c0,0,0,0,0,0c0,0,0,0,0,0c0.02-0.11,0.05-0.22,0.08-0.33
		c0.01-0.03,0.02-0.06,0.04-0.08c0-0.02,0.01-0.04,0.01-0.06c0.01-0.04,0.02-0.09,0.03-0.13c-0.07-0.08-0.09-0.21-0.03-0.3
		c0,0,0,0,0,0c-1.19-0.56-2.41-1.08-3.53-1.77c-0.02,0.02-0.05,0.03-0.07,0.03c-0.07,0.02-0.16,0-0.22-0.06
		c-0.01,0-0.02,0.01-0.02,0.02c-0.05,0.03-0.12,0.04-0.18,0.02c-0.06-0.02-0.11-0.07-0.15-0.12c-0.03-0.06-0.03-0.12-0.02-0.19
		c0.01-0.05,0.01-0.1,0.02-0.14c0,0,0,0,0,0c0-0.02,0-0.03,0.01-0.05c0-0.03,0-0.06,0.01-0.1c0-0.02,0.01-0.05,0.01-0.08
		c-1.78-0.88-3.58-1.73-5.38-2.53c0,0.01-0.01,0.02-0.01,0.02c0,0.01-0.01,0.03-0.01,0.03c-0.02,0.03-0.03,0.05-0.05,0.08
		c-0.03,0.07-0.09,0.11-0.16,0.13c-0.02,0.01-0.04,0.02-0.06,0.02c-0.06,0.02-0.13,0-0.18-0.03c-0.01,0-0.01-0.01-0.02-0.01
		c-0.03,0-0.06-0.02-0.08-0.03c-0.05-0.03-0.09-0.09-0.11-0.16c-1.11-0.42-2.22-0.87-3.25-1.47c-0.05,0.07-0.13,0.11-0.2,0.11
		c-0.05,0-0.1-0.02-0.14-0.05c-0.05,0.02-0.1,0.02-0.15,0c-0.03-0.01-0.05-0.03-0.07-0.05c0,0-0.01,0-0.01,0
		c-0.06-0.02-0.11-0.07-0.14-0.13c-0.02-0.04-0.02-0.07-0.02-0.11c0-0.04,0-0.09,0.01-0.13c0.01-0.07,0.03-0.13,0.05-0.19
		c-1.81-0.74-3.58-1.41-5.32-2.03c-0.02,0.05-0.04,0.09-0.06,0.14c-0.09,0.23-0.2,0.45-0.3,0.68c-0.03,0.06-0.06,0.12-0.12,0.14
		c-0.06,0.03-0.12,0.03-0.18,0.01c-0.04-0.02-0.08-0.05-0.11-0.09c-0.02-0.01-0.04-0.03-0.06-0.06c-0.07,0.07-0.17,0.09-0.26,0.05
		c-0.03,0.05-0.1,0.08-0.15,0.09c-0.06,0.01-0.13,0-0.18-0.04c-0.06-0.04-0.1-0.12-0.11-0.19c-0.02,0-0.04,0-0.06-0.01
		c-0.13-0.05-0.18-0.19-0.15-0.32c0-0.01,0-0.02,0.01-0.04c0,0-0.01,0-0.01,0c-0.07-0.03-0.12-0.08-0.14-0.15
		c-0.02,0.03-0.03,0.06-0.04,0.09c-0.03,0.06-0.07,0.11-0.13,0.14c-0.06,0.03-0.12,0.03-0.18,0.01c-0.05-0.02-0.09-0.05-0.12-0.09
		c-0.02,0.03-0.05,0.05-0.08,0.07c-0.06,0.03-0.12,0.03-0.18,0.01c-0.09-0.03-0.17-0.14-0.16-0.25c-0.01,0-0.02-0.01-0.03-0.01
		c-0.12-0.04-0.18-0.16-0.16-0.29c-0.02,0-0.05,0-0.07-0.01c-0.07-0.02-0.12-0.08-0.15-0.15c-0.01,0-0.01,0-0.02,0
		c-0.04,0.01-0.08,0.01-0.12-0.01c-0.1-0.04-0.16-0.15-0.16-0.26c0-0.03,0-0.07,0.01-0.1c-0.01,0.01-0.02,0.02-0.04,0.03
		c-0.06,0.03-0.12,0.03-0.18,0.01c-0.01,0-0.02-0.01-0.04-0.02c-0.03,0.1-0.13,0.18-0.24,0.17c-0.09-0.01-0.18-0.08-0.21-0.16
		c-0.02,0.02-0.05,0.05-0.08,0.06c-0.06,0.03-0.12,0.03-0.18,0.01c-0.07-0.02-0.11-0.08-0.14-0.14c-0.04,0.01-0.09,0.01-0.12-0.01
		c-0.07-0.03-0.12-0.09-0.15-0.16c-0.04-0.06-0.06-0.15-0.03-0.24c0.05-0.15,0.1-0.31,0.15-0.46c-0.81-0.24-1.61-0.48-2.41-0.7
		c-0.95-0.26-1.9-0.5-2.83-0.73c-0.1,0.18-0.2,0.36-0.29,0.53c-0.06,0.11-0.16,0.17-0.27,0.14c-0.06,0.04-0.15,0.04-0.22,0.01
		c-0.11-0.06-0.15-0.19-0.12-0.31c-0.03-0.03-0.04-0.06-0.06-0.09c-0.02-0.01-0.05-0.01-0.07-0.03c0,0-0.01,0.01-0.01,0.01
		c-0.09,0.06-0.19,0.06-0.28-0.01c-0.04,0.02-0.09,0.04-0.13,0.05c-0.08,0.03-0.17,0.01-0.23-0.05c-0.03-0.03-0.06-0.07-0.07-0.12
		c-0.02,0.01-0.04,0.02-0.06,0.03c-0.05,0.02-0.11,0.02-0.17,0.02c-0.1,0.01-0.19-0.06-0.23-0.14c-0.05,0.03-0.1,0.07-0.15,0.1
		c-0.05,0.03-0.11,0.05-0.16,0.07c-0.14,0.05-0.31-0.06-0.32-0.22c0-0.01,0-0.02,0-0.02c-0.03,0.01-0.06,0.02-0.09,0.04
		c-0.08,0.03-0.18,0.01-0.24-0.05c-0.01-0.01-0.02-0.03-0.03-0.04c-0.01,0-0.02,0.01-0.03,0.02c-0.06,0.06-0.13,0.11-0.21,0.14
		c-0.06,0.04-0.11,0.05-0.18,0.04c-0.03-0.01-0.06-0.02-0.09-0.04c-0.04,0.05-0.08,0.1-0.11,0.15c-0.09,0.1-0.24,0.12-0.34,0.02
		c-0.05-0.05-0.08-0.11-0.08-0.17c0-0.04,0-0.09,0.02-0.13c0.01-0.03,0.02-0.07,0.03-0.1l0,0l0,0c-0.04,0.01-0.08,0.01-0.11,0.01
		c-0.07-0.01-0.12-0.05-0.16-0.11c0,0,0-0.01,0-0.01c-0.07-0.06-0.1-0.15-0.09-0.24c-0.01-0.05,0-0.11,0.02-0.16
		c0.03-0.09,0.08-0.18,0.12-0.27c-0.18-0.03-0.37-0.06-0.55-0.09c-1.9-0.31-3.57-0.5-5.12-0.58c-0.12,0.18-0.24,0.37-0.36,0.55
		c-0.02,0.03-0.04,0.05-0.07,0.07c-0.01,0.01-0.01,0.02-0.02,0.03c-0.07,0.11-0.22,0.15-0.33,0.08c-0.03-0.02-0.05-0.05-0.07-0.08
		c-0.03,0-0.06-0.01-0.08-0.03c-0.03,0-0.06,0-0.08-0.01c0,0,0,0-0.01,0.01c-0.1,0.09-0.25,0.08-0.34-0.02
		c-0.01,0.01-0.03,0.02-0.04,0.04c-0.05,0.04-0.1,0.07-0.17,0.07c-0.04,0-0.08-0.02-0.11-0.04c-0.08,0.02-0.18,0-0.24-0.07
		c-0.04-0.05-0.07-0.12-0.06-0.18c0-0.06,0.02-0.1,0.05-0.15c-0.66,0.18-1.34,0.2-2.01,0.18C40.82,13.11,40.76,13.12,40.7,13.14
		L40.7,13.14L40.7,13.14z"/>
	<polygon class="st6" points="34.31,16.32 34.32,16.32 34.31,16.32 34.31,16.32 	"/>
	<path class="st6" d="M38.1,13.85C38.1,13.85,38.1,13.85,38.1,13.85C38.1,13.84,38.1,13.85,38.1,13.85L38.1,13.85L38.1,13.85z"/>
	<polygon class="st6" points="80.08,23.97 80.09,23.97 80.08,23.97 80.08,23.97 	"/>
	<path class="st6" d="M80.08,24.02c0-0.01,0-0.03,0.01-0.04C80.08,23.99,80.08,24,80.08,24.02L80.08,24.02L80.08,24.02z"/>
	<path class="st6" d="M80.08,24.03c0-0.01,0-0.01,0-0.02C80.08,24.02,80.08,24.03,80.08,24.03L80.08,24.03L80.08,24.03z"/>
	<path class="st6" d="M55.87,72.19c-0.01-0.02-0.03-0.04-0.04-0.05c0,0,0,0,0,0C55.84,72.16,55.86,72.17,55.87,72.19L55.87,72.19
		L55.87,72.19z"/>
	<path class="st7" d="M39.43,13.07c-1.59,0.35-2.95,0.96-4.03,1.83c-1.13,0.9-1.97,2.18-2.44,3.71c-0.24,0.79-0.39,1.66-0.44,2.67
		c-0.05,0.97,0,2.04,0.16,3.27c0.15,1.16,0.41,2.32,0.66,3.35c1.87-2.01,3.65-4.12,5.34-6.3c-0.01,0.02-0.03,0.04-0.04,0.05
		c2.22-2.86,4.3-5.83,6.2-8.94c-0.13-0.01-0.27-0.01-0.4-0.02c-1.35-0.05-2.56,0-3.68,0.15C40.32,12.9,39.88,12.97,39.43,13.07
		L39.43,13.07L39.43,13.07z"/>
	<path class="st7" d="M47.33,18.59c-1.43,2.2-2.94,4.33-4.53,6.4c-2.41,3.12-4.97,6.11-7.73,8.88c0.53,1.6,1.14,3.24,1.84,4.96
		c0.87-0.84,1.72-1.71,2.56-2.6c2.02-2.15,3.94-4.4,5.77-6.74l0,0c2.21-2.84,4.29-5.8,6.18-8.89c1.25-2.05,2.43-4.15,3.49-6.31
		c-1.5-0.36-2.99-0.67-4.45-0.92C49.48,15.15,48.43,16.89,47.33,18.59L47.33,18.59L47.33,18.59z"/>
	<path class="st7" d="M59.22,17.72c-0.75,1.61-1.56,3.2-2.43,4.74c-1.48,2.63-3.09,5.18-4.81,7.63c-1.67,2.38-3.44,4.7-5.3,6.92
		c-1.96,2.34-4.02,4.59-6.2,6.7c-0.34,0.33-0.68,0.65-1.02,0.97c0.72,1.53,1.49,3.1,2.33,4.73c1.74-1.5,3.4-3.1,5-4.77
		c2.21-2.31,4.3-4.75,6.28-7.28c0,0,0,0-0.01,0.01c2.18-2.8,4.22-5.72,6.09-8.76c1.75-2.86,3.37-5.84,4.73-8.94
		c-0.01,0.01-0.01,0.03-0.02,0.04c0.35-0.8,0.68-1.61,0.99-2.43c-1.6-0.57-3.18-1.09-4.74-1.56C59.83,16.39,59.53,17.06,59.22,17.72
		L59.22,17.72L59.22,17.72z M53.05,37.37C53.05,37.37,53.05,37.37,53.05,37.37C53.05,37.37,53.05,37.37,53.05,37.37L53.05,37.37
		L53.05,37.37z M53.05,37.37c0,0-0.01,0.01-0.01,0.01C53.05,37.38,53.05,37.38,53.05,37.37L53.05,37.37L53.05,37.37z"/>
	<path class="st7" d="M69.21,21.72c-1.07,2.63-2.34,5.16-3.72,7.61c-1.54,2.72-3.23,5.36-5.03,7.89c-1.72,2.41-3.52,4.74-5.43,6.98
		c-1.99,2.33-4.09,4.58-6.3,6.67c-1.35,1.28-2.74,2.5-4.19,3.65c0.41,0.74,0.83,1.49,1.27,2.26c0.4,0.7,0.79,1.38,1.18,2.04
		c0.27-0.2,0.55-0.39,0.82-0.59c0,0,0,0-0.01,0c0,0,0,0,0.01,0c0,0,0.01-0.01,0.01-0.01c0,0,0,0,0.01,0c0,0,0.01-0.01,0.01-0.01
		c0,0,0.01,0,0.01-0.01l0,0c2.65-2,5.12-4.24,7.46-6.64c2.41-2.47,4.69-5.1,6.83-7.84c-0.01,0.02-0.03,0.04-0.04,0.05
		c2.17-2.79,4.22-5.7,6.09-8.73c1.79-2.92,3.44-5.94,4.82-9.1c-0.01,0.02-0.02,0.04-0.02,0.06c0.59-1.36,1.14-2.74,1.6-4.15
		c0.06-0.2,0.13-0.4,0.19-0.6c-0.21-0.1-0.43-0.19-0.64-0.29c-1.35-0.6-2.68-1.16-3.99-1.7C69.85,20.11,69.54,20.92,69.21,21.72
		L69.21,21.72L69.21,21.72z M47.83,58.2C47.83,58.2,47.83,58.21,47.83,58.2C47.83,58.21,47.83,58.2,47.83,58.2L47.83,58.2
		L47.83,58.2z"/>
	<path class="st7" d="M47.81,58.22C47.81,58.22,47.81,58.22,47.81,58.22C47.81,58.22,47.81,58.22,47.81,58.22
		C47.81,58.22,47.81,58.22,47.81,58.22C47.82,58.21,47.82,58.22,47.81,58.22L47.81,58.22L47.81,58.22z"/>
	<path class="st7" d="M79.82,24.53c-0.52,1.72-1.16,3.4-1.88,5.04c-1.5,3.42-3.29,6.7-5.27,9.83c-1.66,2.63-3.44,5.18-5.34,7.63
		c-1.87,2.42-3.84,4.76-5.92,6.98c-2.1,2.24-4.31,4.38-6.66,6.33c-1.51,1.25-3.08,2.44-4.72,3.49c1.09,1.7,2.16,3.28,3.23,4.78
		c1.33-0.76,2.61-1.63,3.84-2.55c2.73-2.05,5.28-4.37,7.68-6.84c2.37-2.44,4.59-5.02,6.7-7.7c-0.01,0.01-0.02,0.02-0.03,0.04
		c0.01-0.01,0.02-0.02,0.03-0.04c0,0,0,0,0,0c2.12-2.73,4.13-5.57,5.96-8.54c1.84-2.97,3.52-6.06,4.93-9.29
		c-0.01,0.02-0.01,0.04-0.02,0.06c0.6-1.4,1.17-2.81,1.63-4.27c0.35-1.07,0.65-2.16,0.88-3.26c-0.94-0.5-1.88-1-2.83-1.48
		c-0.66-0.34-1.32-0.67-1.99-1C79.97,24.02,79.9,24.27,79.82,24.53L79.82,24.53L79.82,24.53z"/>
	<path class="st6" d="M55.87,72.19c-0.01-0.02-0.03-0.04-0.04-0.05c0,0,0,0,0,0C55.84,72.16,55.86,72.17,55.87,72.19L55.87,72.19
		L55.87,72.19z"/>
	<path class="st8" d="M64.79,59.24c-2.6,2.68-5.11,4.91-7.68,6.84c-1.36,1.01-2.6,1.84-3.82,2.53c0.27,0.43,0.56,0.83,0.85,1.22
		l0.1,0.11c0.02,0.04,0.04,0.07,0.07,0.11l0.2,0.26c0.26,0.33,0.51,0.68,0.76,1.03l0.08,0.11l0.17,0.23
		c0.11,0.16,0.22,0.31,0.34,0.47c0.16,0.21,0.32,0.41,0.48,0.62L56.58,73c0.08,0.01,0.14,0.02,0.19,0.01
		c0.04-0.01,0.08-0.01,0.12-0.02l0.21-0.08l0.12-0.04l0.17-0.07c0.22-0.08,0.41-0.16,0.61-0.25l0.09-0.06c0,0,0,0,0.01,0
		c0.07-0.01,0.11-0.03,0.15-0.06l0.2-0.09c0.31-0.14,0.6-0.29,0.89-0.44l0.09-0.06c0.02,0,0.07-0.03,0.1-0.05l0.15-0.09
		c0.43-0.22,0.82-0.45,1.21-0.69c0.45-0.28,0.83-0.52,1.21-0.77l0.09-0.07l0.11-0.06l0.13-0.08l0.14-0.09
		c0.73-0.5,1.46-1.05,2.3-1.71c3.5-2.76,6.88-6.11,10.35-10.24c0.41-0.49,0.81-0.97,1.21-1.47c-0.29-0.28-0.58-0.56-0.87-0.84
		c-0.31-0.29-0.62-0.58-0.94-0.87c-0.26-0.23-0.51-0.45-0.77-0.67c-0.87-0.76-1.74-1.53-2.63-2.27C69.12,54.53,66.96,57,64.79,59.24
		L64.79,59.24L64.79,59.24z"/>
	<path class="st8" d="M60.81,47.18c-0.19,0.05-0.37,0.12-0.55,0.19c-0.15,0.07-0.3,0.14-0.44,0.24c-0.12,0.08-0.24,0.16-0.35,0.25
		c-0.13,0.11-0.26,0.23-0.37,0.37c-0.09,0.11-0.18,0.21-0.26,0.33c0,0,0,0.01-0.01,0.01c0,0,0-0.01,0.01-0.01
		c0-0.01,0.01-0.01,0.01-0.02c-0.01,0.01-0.02,0.03-0.03,0.04c0,0,0.01-0.01,0.01-0.01c0,0-0.01,0.01-0.01,0.01
		c0,0-0.01,0.01-0.01,0.01c0,0,0.01-0.01,0.01-0.01c-0.16,0.24-0.3,0.5-0.41,0.77c-0.07,0.19-0.13,0.38-0.18,0.58
		c-0.04,0.16-0.07,0.33-0.09,0.5c-0.03,0.22-0.05,0.44-0.05,0.66c0,0.22,0.01,0.43,0.03,0.64c0.03,0.3,0.08,0.6,0.16,0.89
		c0.08,0.31,0.18,0.61,0.29,0.91c-0.01-0.02-0.02-0.04-0.02-0.06c0.32,0.8,0.74,1.55,1.19,2.26c0.55-0.55,1.1-1.12,1.65-1.72
		c1.64-1.74,3.27-3.63,4.86-5.63c-0.35-0.19-0.71-0.37-1.08-0.53c-0.43-0.18-0.86-0.36-1.31-0.49c-0.38-0.11-0.77-0.2-1.17-0.27
		c0.01,0,0.01,0,0.02,0c-0.01,0-0.01,0-0.02,0c0,0,0,0,0,0c0,0,0,0,0,0c0,0,0,0-0.01,0c0,0-0.01,0-0.01,0c0,0,0,0,0,0l0,0
		c-0.24-0.03-0.48-0.06-0.73-0.06c-0.2,0-0.4,0.01-0.6,0.03C61.18,47.1,60.99,47.13,60.81,47.18L60.81,47.18L60.81,47.18z"/>
	<polygon class="st8" points="62.7,47.1 62.69,47.1 62.7,47.1 62.7,47.1 	"/>
	<path class="st8" d="M47.83,58.2l-0.43,0.32L47,58.81c0.98,1.72,1.98,3.36,3.03,5.01c0,0,0,0,0,0c1.46-0.92,3.01-2.05,4.72-3.48
		c1.37-1.14,2.74-2.38,4.14-3.75c-1.42-1.45-2.78-2.97-4.08-4.54C52.48,54.4,50.2,56.42,47.83,58.2L47.83,58.2L47.83,58.2z"/>
	<polygon class="st8" points="50.03,63.83 50.03,63.83 50.03,63.83 50.03,63.83 	"/>
	<path class="st8" d="M46.79,44.63c-1.63,1.7-3.3,3.3-4.98,4.75c0.81,1.61,1.7,3.29,2.72,5.12l0.09-0.07l0.1-0.08
		c0.95-0.75,1.89-1.55,2.9-2.46c0.36-0.32,0.72-0.66,1.11-1.03c0.97-0.92,1.94-1.88,2.9-2.9c-0.48-0.65-0.95-1.31-1.42-1.98
		c-0.67-0.96-1.33-1.94-1.97-2.93C47.76,43.6,47.28,44.12,46.79,44.63L46.79,44.63L46.79,44.63z"/>
	<path class="st8" d="M39.47,36.23c-0.77,0.82-1.5,1.57-2.23,2.28l-0.31,0.3c0.3,0.77,0.61,1.53,0.95,2.31
		c0.52,1.21,1.05,2.41,1.59,3.55c0.02-0.01,0.03-0.03,0.05-0.04c0-0.01-0.01-0.01-0.01-0.02c0.34-0.29,0.66-0.59,0.97-0.9
		c1.63-1.58,3.25-3.29,4.92-5.2c-0.72-1.22-1.43-2.46-2.12-3.7c-0.32-0.58-0.64-1.17-0.96-1.76C41.36,34.17,40.41,35.23,39.47,36.23
		L39.47,36.23L39.47,36.23z"/>
	<path class="st8" d="M33.36,27.85l0.15,0.65c0.31,1.25,0.7,2.61,1.19,4.18c0.12,0.38,0.25,0.77,0.38,1.16l0.64-0.65
		c0.72-0.74,1.45-1.51,2.18-2.32l0.16-0.18l0.13-0.13l0.07-0.09c0.56-0.62,1.11-1.26,1.66-1.9c-0.91-1.74-1.78-3.49-2.57-5.3
		C36.07,24.84,34.73,26.38,33.36,27.85L33.36,27.85L33.36,27.85z"/>
	<path class="st9" d="M61.42,54.02c-0.56,0.6-1.11,1.17-1.66,1.72c0.09,0.14,0.18,0.28,0.27,0.41c0.52,0.79,1.06,1.56,1.54,2.38
		c0.07,0.12,0.02,0.28-0.09,0.35c-0.1,0.06-0.21,0.04-0.29-0.04c-0.78-0.73-1.55-1.48-2.3-2.24c-1.4,1.37-2.77,2.61-4.14,3.75
		c-1.72,1.43-3.26,2.56-4.72,3.48c1.04,1.68,2.13,3.29,3.22,4.81c1.23-0.7,2.49-1.54,3.86-2.56c2.57-1.92,5.08-4.16,7.68-6.84
		c2.18-2.24,4.33-4.71,6.42-7.35c-0.24-0.2-0.48-0.4-0.72-0.59c0.01,0,0.01,0.01,0.02,0.01c-1.34-1.08-2.73-2.1-4.23-2.91
		C64.68,50.38,63.05,52.27,61.42,54.02L61.42,54.02L61.42,54.02z"/>
	<path class="st9" d="M59.25,56.25c0.26,0.27,0.51,0.53,0.78,0.78c-0.21-0.31-0.41-0.62-0.61-0.93L59.25,56.25L59.25,56.25
		L59.25,56.25z"/>
	<path class="st9" d="M48.72,50.88c-0.39,0.36-0.75,0.7-1.11,1.03c-1,0.91-1.95,1.71-2.89,2.46l-0.1,0.08l-0.1,0.08
		c0.4,0.76,0.83,1.52,1.26,2.28c0.4,0.7,0.79,1.38,1.18,2.04l0.44-0.31l0.43-0.32c2.36-1.78,4.65-3.8,6.98-6.15
		c-1.1-1.32-2.16-2.68-3.18-4.07C50.66,49,49.7,49.96,48.72,50.88L48.72,50.88L48.72,50.88z"/>
	<path class="st9" d="M40.48,43.71c-0.31,0.3-0.63,0.6-0.97,0.9c0.69,1.72,1.53,3.4,2.26,4.82c1.7-1.46,3.38-3.07,5.02-4.78
		c0.49-0.51,0.97-1.03,1.45-1.56c-0.96-1.47-1.88-2.96-2.77-4.46c-0.02-0.03-0.04-0.07-0.06-0.1
		C43.73,40.42,42.12,42.13,40.48,43.71L40.48,43.71L40.48,43.71z"/>
	<path class="st9" d="M38.26,30.46l-0.07,0.09l-0.13,0.13l-0.16,0.18c-0.73,0.81-1.46,1.58-2.18,2.32l-0.66,0.67
		c0.53,1.61,1.13,3.24,1.84,4.98l0.34-0.33c0.73-0.71,1.45-1.46,2.23-2.28c0.95-1,1.9-2.06,2.86-3.18c-0.38-0.7-0.76-1.4-1.14-2.11
		c-0.43-0.79-0.85-1.59-1.27-2.39C39.37,29.2,38.82,29.84,38.26,30.46L38.26,30.46L38.26,30.46z"/>
	<path class="st9" d="M32.94,18.6c-0.25,0.8-0.39,1.67-0.44,2.67c-0.05,0.99,0,2.06,0.16,3.27c0.16,1.22,0.42,2.38,0.66,3.35
		c1.39-1.48,2.74-3.04,4.03-4.63c-0.08-0.18-0.16-0.36-0.23-0.54c-0.58-1.38-1.11-2.78-1.54-4.22c-0.23-0.75-0.44-1.52-0.61-2.29
		c-0.06-0.27-0.11-0.53-0.17-0.8C33.96,16.25,33.32,17.34,32.94,18.6L32.94,18.6L32.94,18.6z"/>
	<path class="st10" d="M227.44,144.4c-0.69,0-1.43,0.11-2.27,0.34c-0.44,0.12-0.89,0.27-1.36,0.46c-0.06-0.13-0.21-0.22-0.38-0.22
		c-0.09,0-0.19,0.03-0.27,0.08c-0.53,0.34-1.02,0.71-1.44,1.09c-0.7,0.36-1.4,0.73-2.09,1.11l-0.67,0.36
		c-0.12,0.06-0.2,0.21-0.22,0.33c-0.03,0.14-0.01,0.28,0.07,0.41c0.07,0.12,0.18,0.2,0.32,0.23c0.01,0,0.03,0,0.04,0
		c0.2,0,0.26-0.03,0.34-0.07l0.16-0.09l0.32-0.17c-0.21,0.23-0.38,0.51-0.51,0.75c-0.71,1.27-1.22,2.8-1.54,4.55
		c-0.28,1.55-0.36,3.24-0.24,5.02c0.11,1.64,0.4,3.29,0.86,4.92c0.43,1.53,1.02,2.94,1.75,4.21c0.72,1.25,1.55,2.24,2.46,2.94
		c0.24,0.17,0.47,0.33,0.71,0.48c0.27,0.16,0.56,0.28,0.81,0.37c0.48,0.18,1.01,0.28,1.58,0.28c1.37-0.01,2.57-0.75,3.33-1.37
		c0.56-0.47,1.12-1.04,1.69-1.76c0.63-0.81,1.19-1.69,1.67-2.63c0.49-0.93,0.92-2.01,1.32-3.3c0.36-1.15,0.63-2.38,0.81-3.65
		c0.35-2.58,0.26-5.06-0.27-7.37c-0.26-1.13-0.67-2.23-1.21-3.26c-0.61-1.16-1.38-2.13-2.23-2.82c-0.81-0.64-1.76-1.05-2.74-1.19
		C227.97,144.42,227.7,144.4,227.44,144.4L227.44,144.4L227.44,144.4z"/>
	<path class="st1" d="M232.45,152.34c0,0.28,0.22,0.51,0.48,0.51c0.26,0,0.48-0.23,0.48-0.51c0-0.28-0.22-0.51-0.48-0.51
		C232.67,151.84,232.45,152.07,232.45,152.34L232.45,152.34L232.45,152.34z"/>
	<path class="st11" d="M154.62,133.22c-0.43,0.1-0.85,0.29-1.25,0.49c-0.45,0.23-0.88,0.54-1.28,0.87c-0.81,0.67-1.5,1.48-2.1,2.37
		c-0.59,0.88-1.04,1.86-1.35,2.88c-0.28,0.92-0.4,1.92-0.26,2.88c0.01,0.1,0.03,0.21,0.05,0.31c0.05,0.27,0.35,0.42,0.59,0.35
		c0.26-0.08,0.38-0.35,0.33-0.62c-0.01-0.08-0.03-0.17-0.04-0.25c-0.04-0.42-0.04-0.84,0.01-1.25c0.09-0.66,0.26-1.29,0.5-1.9
		c0.33-0.8,0.75-1.55,1.24-2.25c0.5-0.68,1.06-1.28,1.7-1.81c-0.03,0.03-0.06,0.05-0.09,0.08c0.44-0.35,0.91-0.66,1.42-0.9
		c-0.01,0.01-0.03,0.01-0.05,0.02c0.02-0.01,0.04-0.02,0.06-0.03c0.02-0.01,0.04-0.02,0.06-0.03c-0.01,0.01-0.03,0.01-0.04,0.02
		c0.37-0.16,0.76-0.27,1.15-0.34c0.3-0.03,0.6-0.03,0.9,0c0.33,0.05,0.65,0.14,0.96,0.27c0.25,0.12,0.48,0.27,0.7,0.44
		c0.23,0.2,0.44,0.43,0.62,0.67c0.21,0.31,0.39,0.63,0.53,0.97c-0.18,0.12-0.35,0.25-0.52,0.39c-0.66,0.52-1.26,1.11-1.83,1.74
		c-0.57,0.64-1.09,1.33-1.55,2.05c-0.42,0.65-0.77,1.34-1.04,2.07c-0.1,0.29-0.18,0.59-0.23,0.89c-0.05,0.3-0.07,0.61-0.04,0.92
		c0.03,0.29,0.1,0.55,0.23,0.81c0.13,0.27,0.35,0.47,0.57,0.65c0.22,0.17,0.5,0.28,0.77,0.35c0.3,0.08,0.63,0.12,0.94,0.1
		c0.57-0.03,1.13-0.24,1.6-0.58c1.06-0.75,1.7-2.02,2.1-3.27c0.22-0.71,0.35-1.46,0.42-2.21c0.07-0.74,0.06-1.49-0.03-2.22
		c-0.05-0.42-0.13-0.85-0.25-1.26c0.15-0.09,0.31-0.17,0.47-0.24c-0.04,0.02-0.08,0.03-0.12,0.05c0.27-0.12,0.55-0.22,0.84-0.27
		c0.24-0.03,0.48-0.02,0.72,0c0.29,0.05,0.56,0.12,0.83,0.23c0.26,0.13,0.5,0.27,0.72,0.45c0.26,0.22,0.49,0.47,0.7,0.75
		c0.23,0.34,0.43,0.7,0.59,1.09c0.04,0.09,0.07,0.19,0.1,0.29c-0.06,0.03-0.11,0.06-0.17,0.09c-0.34,0.2-0.64,0.45-0.93,0.71
		c-0.61,0.54-1.12,1.19-1.59,1.87c-0.42,0.62-0.78,1.3-1.05,2.02c-0.1,0.28-0.17,0.57-0.2,0.87c-0.03,0.25-0.02,0.51,0.06,0.75
		c0.09,0.25,0.23,0.44,0.45,0.58c0.23,0.15,0.53,0.17,0.79,0.14c0.35-0.04,0.67-0.15,1-0.29c0.42-0.19,0.81-0.41,1.17-0.71
		c0.3-0.25,0.56-0.54,0.79-0.86c0.24-0.35,0.42-0.72,0.58-1.12c0.3-0.76,0.39-1.62,0.36-2.44c-0.01-0.33-0.05-0.66-0.11-0.99
		c0.32-0.09,0.66-0.16,0.99-0.21c-0.04,0-0.09,0.01-0.13,0.02c0.64-0.09,1.29-0.1,1.93-0.01c0.5,0.08,0.99,0.22,1.46,0.43
		c0.42,0.2,0.81,0.44,1.18,0.73c0.36,0.31,0.68,0.65,0.97,1.03c0,0,0,0,0,0c0.34,0.48,0.6,0.99,0.84,1.53
		c-0.01-0.02-0.01-0.04-0.02-0.05c0.01,0.02,0.02,0.04,0.02,0.06c0.01,0.02,0.02,0.04,0.03,0.06c-0.01-0.02-0.02-0.03-0.02-0.05
		c0.26,0.68,0.45,1.38,0.56,2.11c0.09,0.76,0.09,1.52,0.01,2.29c0-0.01,0-0.02,0-0.03c-0.12,0.94-0.37,1.84-0.7,2.72
		c-0.47,1.16-1.08,2.24-1.8,3.25c-0.95,1.3-2.05,2.46-3.27,3.47c-0.34,0.27-0.68,0.53-1.03,0.79c-0.22,0.15-0.31,0.44-0.17,0.69
		c0.13,0.23,0.44,0.33,0.65,0.18c2.01-1.42,3.75-3.22,5.13-5.33c1.36-2.09,2.26-4.58,2.21-7.15c-0.01-0.61-0.1-1.22-0.22-1.81
		c-0.14-0.67-0.38-1.33-0.65-1.95c-0.24-0.55-0.54-1.04-0.89-1.52c-0.35-0.47-0.77-0.87-1.22-1.23c-0.84-0.67-1.88-1.06-2.91-1.22
		c-1.07-0.16-2.15-0.06-3.19,0.24c-0.32-0.94-0.84-1.8-1.56-2.44c-0.59-0.54-1.32-0.89-2.08-1c-0.36-0.05-0.72-0.06-1.08-0.01
		c-0.29,0.05-0.58,0.14-0.85,0.26c-0.17,0.07-0.34,0.16-0.51,0.25c-0.26-0.6-0.6-1.15-1.05-1.61c-0.48-0.5-1.07-0.85-1.7-1.06
		c-0.42-0.14-0.86-0.21-1.29-0.21C155.38,133.08,155,133.13,154.62,133.22L154.62,133.22L154.62,133.22z M156.21,134.12
		c0.03,0,0.05,0.01,0.08,0.01C156.26,134.13,156.23,134.13,156.21,134.12L156.21,134.12L156.21,134.12z M155.2,134.13
		c-0.01,0-0.02,0-0.04,0C155.18,134.13,155.19,134.13,155.2,134.13L155.2,134.13L155.2,134.13z M161.42,136.44
		c-0.01,0-0.02,0-0.03,0.01C161.4,136.44,161.41,136.44,161.42,136.44L161.42,136.44L161.42,136.44z M162.91,136.7
		c0.02,0.01,0.04,0.02,0.05,0.02C162.95,136.72,162.93,136.71,162.91,136.7L162.91,136.7L162.91,136.7z M159.3,137.47
		c0.07,0.28,0.12,0.56,0.15,0.84c0-0.01,0-0.02,0-0.02c0.09,0.82,0.08,1.64-0.02,2.46c-0.11,0.75-0.29,1.49-0.57,2.2
		c-0.19,0.45-0.41,0.87-0.68,1.27c-0.2,0.26-0.41,0.5-0.65,0.71c-0.17,0.13-0.35,0.24-0.54,0.34c-0.19,0.08-0.39,0.13-0.59,0.17
		c-0.19,0.02-0.38,0.01-0.57-0.01c-0.18-0.03-0.35-0.08-0.52-0.15c-0.09-0.04-0.17-0.1-0.25-0.16c-0.05-0.05-0.1-0.1-0.15-0.15
		c-0.04-0.06-0.08-0.13-0.11-0.2c-0.03-0.09-0.06-0.19-0.07-0.29c-0.02-0.19-0.01-0.37,0.01-0.56c0.06-0.37,0.16-0.72,0.29-1.06
		c0.34-0.84,0.81-1.62,1.33-2.35c0.75-1.02,1.61-1.95,2.56-2.74c-0.02,0.01-0.03,0.02-0.05,0.04c0.02-0.02,0.04-0.03,0.06-0.05
		c0.01-0.01,0.02-0.02,0.04-0.03c-0.01,0.01-0.01,0.01-0.02,0.01C159.07,137.65,159.18,137.56,159.3,137.47L159.3,137.47
		L159.3,137.47z M159.43,138.18c0,0.02,0.01,0.05,0.01,0.07C159.44,138.23,159.44,138.2,159.43,138.18L159.43,138.18L159.43,138.18z
		 M149.85,139.28c-0.01,0.02-0.02,0.04-0.02,0.06C149.84,139.32,149.84,139.3,149.85,139.28L149.85,139.28L149.85,139.28z
		 M149.82,139.37c0,0.01-0.01,0.02-0.01,0.03C149.81,139.39,149.81,139.38,149.82,139.37L149.82,139.37L149.82,139.37z
		 M168.83,139.65c0.02,0,0.04,0.01,0.06,0.01C168.87,139.66,168.85,139.66,168.83,139.65L168.83,139.65L168.83,139.65z
		 M170.38,140.08C170.38,140.09,170.38,140.09,170.38,140.08C170.38,140.09,170.38,140.09,170.38,140.08L170.38,140.08
		L170.38,140.08z M165.24,140.28c0.01,0.07,0.02,0.14,0.03,0.21c0.04,0.45,0.05,0.9,0,1.34c-0.06,0.42-0.16,0.84-0.31,1.23
		c-0.12,0.29-0.27,0.56-0.44,0.81c0.01-0.02,0.03-0.04,0.04-0.06c-0.02,0.02-0.03,0.04-0.05,0.06c-0.01,0.01-0.02,0.03-0.03,0.04
		c0.01-0.01,0.02-0.03,0.03-0.04c-0.18,0.24-0.39,0.46-0.62,0.65c-0.27,0.21-0.56,0.37-0.87,0.52c-0.23,0.1-0.47,0.18-0.71,0.23
		c-0.07,0.01-0.14,0.01-0.2,0.01c-0.03-0.01-0.05-0.01-0.08-0.02c0,0-0.01-0.01-0.01-0.01c0-0.01-0.01-0.01-0.01-0.02
		c-0.01-0.03-0.01-0.05-0.02-0.08c-0.01-0.09,0-0.18,0.01-0.28c0.05-0.28,0.13-0.55,0.23-0.82c0.28-0.66,0.64-1.27,1.05-1.85
		c0,0-0.01,0.01-0.01,0.01c0.01-0.01,0.01-0.02,0.02-0.03c0.02-0.03,0.04-0.05,0.06-0.08c-0.01,0.02-0.03,0.04-0.04,0.06
		c0.41-0.55,0.87-1.07,1.38-1.51C164.87,140.53,165.05,140.4,165.24,140.28L165.24,140.28L165.24,140.28z M165.26,140.38
		c0,0.02,0,0.04,0.01,0.06C165.27,140.42,165.27,140.4,165.26,140.38L165.26,140.38L165.26,140.38z M156.42,140.43
		c-0.01,0.02-0.02,0.03-0.04,0.05C156.4,140.46,156.41,140.44,156.42,140.43L156.42,140.43L156.42,140.43z M164.78,140.61
		c-0.01,0.01-0.02,0.02-0.04,0.03C164.75,140.63,164.76,140.62,164.78,140.61L164.78,140.61L164.78,140.61z M159.44,140.62
		c0,0.02-0.01,0.04-0.01,0.06C159.44,140.66,159.44,140.64,159.44,140.62L159.44,140.62L159.44,140.62z M149.34,141.14
		c0,0.02,0,0.04-0.01,0.07C149.33,141.18,149.34,141.16,149.34,141.14L149.34,141.14L149.34,141.14z M165.27,141.87
		c0,0.03-0.01,0.06-0.01,0.09C165.27,141.93,165.27,141.9,165.27,141.87L165.27,141.87L165.27,141.87z M149.32,142.54
		c0,0.01,0,0.03,0,0.04C149.33,142.57,149.32,142.56,149.32,142.54L149.32,142.54L149.32,142.54z M155.06,142.77
		c-0.01,0.02-0.02,0.05-0.03,0.07C155.04,142.81,155.05,142.79,155.06,142.77L155.06,142.77L155.06,142.77z M154.73,143.98
		c0,0.02,0,0.04-0.01,0.05C154.72,144.02,154.72,144,154.73,143.98L154.73,143.98L154.73,143.98z M157.58,144.88
		c-0.01,0.01-0.02,0.02-0.03,0.03C157.55,144.9,157.57,144.89,157.58,144.88L157.58,144.88L157.58,144.88z M154.92,144.98
		c0.01,0.02,0.02,0.03,0.03,0.05C154.95,145.01,154.93,145,154.92,144.98L154.92,144.98L154.92,144.98z M156.96,145.27
		c-0.02,0.01-0.03,0.02-0.05,0.02C156.93,145.28,156.95,145.28,156.96,145.27L156.96,145.27L156.96,145.27z M162.03,145.29
		C162.03,145.29,162.03,145.29,162.03,145.29L162.03,145.29C162.03,145.29,162.03,145.29,162.03,145.29L162.03,145.29L162.03,145.29
		z M162.04,145.29C162.04,145.29,162.04,145.29,162.04,145.29C162.04,145.29,162.04,145.29,162.04,145.29
		C162.04,145.29,162.04,145.29,162.04,145.29L162.04,145.29L162.04,145.29L162.04,145.29z M162.05,145.29
		C162.05,145.29,162.05,145.29,162.05,145.29C162.05,145.29,162.06,145.29,162.05,145.29C162.05,145.29,162.05,145.29,162.05,145.29
		C162.05,145.29,162.05,145.29,162.05,145.29L162.05,145.29L162.05,145.29z M162.06,145.29c0,0,0.01,0,0.01,0c0,0,0,0,0,0
		C162.07,145.29,162.06,145.29,162.06,145.29C162.06,145.29,162.06,145.29,162.06,145.29L162.06,145.29L162.06,145.29z
		 M173.95,147.8c0,0.03-0.01,0.06-0.01,0.1C173.94,147.87,173.95,147.84,173.95,147.8L173.95,147.8L173.95,147.8z M164.52,143.89
		C164.52,143.89,164.52,143.89,164.52,143.89C164.52,143.89,164.53,143.88,164.52,143.89C164.52,143.88,164.52,143.89,164.52,143.89
		L164.52,143.89L164.52,143.89z M173.39,143.4C173.39,143.39,173.39,143.39,173.39,143.4c0-0.01-0.01-0.01-0.01-0.02
		C173.38,143.39,173.39,143.39,173.39,143.4L173.39,143.4L173.39,143.4z M163.3,142.21c0,0-0.01,0.01-0.01,0.01
		c0.01-0.01,0.02-0.02,0.02-0.03C163.31,142.19,163.31,142.2,163.3,142.21L163.3,142.21L163.3,142.21z M158.94,137.75
		c0,0-0.01,0.01-0.01,0.01c0.01-0.01,0.02-0.02,0.03-0.03C158.95,137.74,158.94,137.75,158.94,137.75L158.94,137.75L158.94,137.75z
		 M154.1,134.47c0,0-0.01,0-0.01,0.01c0.01,0,0.02-0.01,0.03-0.01C154.11,134.46,154.11,134.46,154.1,134.47L154.1,134.47
		L154.1,134.47z"/>
	<path class="st12" d="M182.46,121.61C182.46,121.61,182.46,121.61,182.46,121.61h-0.12c-0.36,0-0.72,0.03-1.08,0.1
		c-0.41,0.08-0.83,0.2-1.28,0.37c-0.73,0.28-1.47,0.74-2.21,1.34c-0.65,0.53-1.28,1.18-1.91,2c-0.52,0.67-1,1.41-1.51,2.34
		c-0.42,0.75-0.82,1.61-1.18,2.54c-0.31,0.81-0.57,1.66-0.79,2.54c-0.21,0.84-0.34,1.7-0.4,2.64c-0.08,1.23-0.04,2.55,0.12,3.92
		c0.14,1.18,0.4,2.42,0.79,3.8c0.78,2.8,2,5.44,2.99,7.42c0.04,0.09,0.1,0.19,0.23,0.25c0.05,0.03,0.11,0.04,0.18,0.04l0.16-0.04
		c0.12-0.04,0.21-0.15,0.25-0.28c0.04-0.11,0.04-0.23-0.01-0.33c-0.62-1.26-1.13-2.36-1.54-3.36l0.07,0.1
		c0.38,0.2,0.79,0.37,1.23,0.51c0.87,0.3,1.87,0.52,3.13,0.69c1.15,0.16,2.39,0.24,3.67,0.25h0.17c1.18,0,2.41-0.08,3.67-0.24
		c0.36-0.05,0.72-0.1,1.08-0.17c0.85-0.15,1.65-0.36,2.38-0.6c0.56-0.19,1.06-0.39,1.49-0.61c0.43-0.21,0.84-0.47,1.25-0.78
		c0.51-0.4,1.19-1.08,1.48-2.07c0.03-0.12,0.06-0.23,0.09-0.35c0.2-0.06,0.28-0.15,0.32-0.26c0.05-0.11,0.05-0.21,0-0.36
		c-0.41-1.38-0.89-2.54-1.48-3.56c-0.54-0.92-1.22-1.72-2.03-2.39c-0.74-0.61-1.64-1.12-2.74-1.58c-0.58-0.24-1.18-0.44-1.69-0.6
		c-0.34-0.11-0.69-0.21-1.03-0.3l-0.25-0.07l-0.5-0.14c-1.2-0.36-2.13-0.76-2.94-1.25c-0.4-0.25-0.73-0.52-1.02-0.82
		c-0.19-0.2-0.36-0.43-0.5-0.67c-0.1-0.22-0.18-0.42-0.23-0.62c-0.04-0.22-0.07-0.43-0.07-0.64c0.01-0.28,0.05-0.55,0.12-0.82
		c0.11-0.37,0.27-0.77,0.5-1.2c0.21-0.36,0.43-0.66,0.67-0.92c0.22-0.22,0.45-0.41,0.71-0.58l0.08-0.06c0.2-0.1,0.43-0.2,0.68-0.28
		c0.09-0.02,0.15-0.03,0.22-0.04c0.16-0.03,0.33-0.05,0.5-0.05c0.22,0.01,0.42,0.04,0.61,0.09c0.19,0.06,0.37,0.15,0.54,0.25
		c0.14,0.09,0.3,0.22,0.47,0.39c0.14,0.17,0.26,0.34,0.37,0.53c0.13,0.25,0.23,0.52,0.3,0.8c0.04,0.19,0.07,0.38,0.09,0.57
		c0.03,0.16,0.13,0.31,0.26,0.37c0.05,0.03,0.11,0.04,0.17,0.04c0.14-0.02,0.21-0.05,0.27-0.09c0.38-0.27,0.68-0.55,0.93-0.88
		c0.23-0.3,0.38-0.65,0.48-1.07c0.07-0.29,0.07-0.65,0.02-1.02c-0.07-0.36-0.19-0.72-0.39-1.09c-0.33-0.64-0.83-1.25-1.52-1.87
		c-0.6-0.53-1.27-0.97-2.01-1.3C184.09,121.81,183.31,121.63,182.46,121.61L182.46,121.61L182.46,121.61z"/>
	<path class="st13" d="M181.26,121.73c-0.42,0.08-0.83,0.19-1.27,0.36c-0.73,0.29-1.47,0.73-2.2,1.34c-0.65,0.52-1.27,1.18-1.91,2
		c-0.51,0.66-1,1.39-1.51,2.33c-0.34,0.61-0.66,1.28-0.96,2c-0.16,0.55-0.29,1.1-0.4,1.66c0-0.01,0-0.02,0.01-0.03
		c0,0.01,0,0.02-0.01,0.03c0,0,0,0,0,0c0,0.01,0,0.02-0.01,0.03c-0.1,0.6-0.17,1.2-0.2,1.82c-0.03,0.64-0.02,1.29,0.03,1.93
		c0-0.02,0-0.04-0.01-0.07c0.06,0.71,0.15,1.41,0.29,2.1c0.13,0.64,0.29,1.27,0.49,1.89c0-0.01-0.01-0.03-0.01-0.04
		c0.2,0.6,0.42,1.19,0.7,1.75c0.27,0.55,0.56,1.09,0.89,1.6c-0.01-0.02-0.02-0.04-0.03-0.06c0.35,0.55,0.73,1.07,1.15,1.56
		c0.42,0.5,0.88,0.97,1.35,1.42c-0.01-0.02-0.03-0.03-0.04-0.04c0.62,0.58,1.28,1.11,1.97,1.6c0.68,0.48,1.39,0.92,2.11,1.33
		c0.04,0.03,0.07,0.07,0.09,0.11c0.49,0.03,0.98,0.04,1.49,0.04c1.28,0.01,2.57-0.08,3.84-0.24c0.36-0.05,0.72-0.1,1.08-0.17
		c0.84-0.15,1.64-0.35,2.38-0.6c0.53-0.18,1.04-0.39,1.49-0.61c0.43-0.21,0.84-0.46,1.24-0.78c0.51-0.39,1.19-1.06,1.48-2.06
		c0.03-0.12,0.06-0.23,0.09-0.35c0.02,0,0.04,0,0.05-0.01c0.02,0,0.04-0.01,0.05-0.01c0.1-0.05,0.18-0.13,0.22-0.24
		c0.04-0.1,0.04-0.21,0-0.35c-0.41-1.38-0.89-2.54-1.48-3.55c-0.53-0.91-1.22-1.72-2.03-2.39c-0.73-0.6-1.63-1.12-2.73-1.58
		c-0.6-0.25-1.22-0.45-1.68-0.6c-0.34-0.11-0.69-0.21-1.03-0.3c-0.25-0.07-0.5-0.14-0.75-0.21c-1.21-0.37-2.15-0.77-2.94-1.25
		c-0.4-0.25-0.73-0.52-1.02-0.82c-0.19-0.21-0.36-0.43-0.5-0.67c-0.1-0.22-0.18-0.42-0.23-0.62c-0.04-0.21-0.07-0.42-0.07-0.65
		c0.01-0.27,0.05-0.54,0.12-0.82c0.11-0.38,0.27-0.77,0.5-1.2c0-0.01,0-0.01,0.01-0.02c0,0,0,0,0,0c0,0,0,0,0,0
		c0.2-0.34,0.42-0.64,0.66-0.91c0.23-0.23,0.46-0.42,0.72-0.58l0.08-0.06l0-0.01c0.2-0.09,0.44-0.19,0.68-0.27
		c0.07-0.02,0.15-0.04,0.23-0.05c0.16-0.03,0.34-0.05,0.5-0.05c0.22,0.01,0.42,0.04,0.62,0.09c0.19,0.06,0.38,0.15,0.54,0.25
		c0.16,0.1,0.32,0.24,0.47,0.39c0.14,0.17,0.26,0.35,0.38,0.54c0.13,0.25,0.23,0.52,0.31,0.8c0.04,0.19,0.07,0.39,0.1,0.58
		c0.02,0.12,0.08,0.23,0.16,0.3c0.01-0.02,0.01-0.05,0.02-0.07c0.03-0.13,0.06-0.25,0.09-0.39c0.03-0.17,0.05-0.34,0.05-0.51
		c0-0.12,0-0.23-0.01-0.35c0-0.01,0-0.02,0-0.04c-0.01-0.12-0.03-0.23-0.05-0.35c-0.03-0.13-0.06-0.26-0.1-0.39
		c0.01,0.02,0.01,0.04,0.02,0.06c-0.06-0.17-0.12-0.33-0.2-0.49c-0.06-0.12-0.13-0.23-0.2-0.34c-0.09-0.13-0.18-0.26-0.29-0.37
		c-0.09-0.09-0.17-0.18-0.26-0.26c-0.13-0.12-0.27-0.23-0.42-0.33c-0.11-0.07-0.23-0.14-0.35-0.21c-0.21-0.11-0.43-0.2-0.66-0.28
		c-0.16-0.05-0.32-0.09-0.48-0.12c-0.18-0.03-0.35-0.06-0.53-0.06c-0.16,0-0.31,0-0.47,0.01c-0.01,0-0.02,0-0.04,0
		c-0.2,0.02-0.4,0.05-0.6,0.11c-0.17,0.04-0.33,0.1-0.5,0.16c0.02-0.01,0.04-0.02,0.06-0.02c-0.2,0.08-0.4,0.17-0.59,0.28
		c-0.19,0.11-0.37,0.22-0.54,0.35c-0.21,0.16-0.41,0.33-0.6,0.51c-0.15,0.15-0.29,0.31-0.43,0.46l0,0c0,0,0,0,0,0l0,0
		c-0.01,0.02-0.02,0.02-0.03,0.04l0,0c-0.19,0.24-0.38,0.49-0.54,0.76c-0.14,0.23-0.27,0.48-0.39,0.73c-0.13,0.3-0.26,0.6-0.35,0.92
		c-0.08,0.27-0.15,0.54-0.2,0.81c-0.04,0.27-0.07,0.53-0.08,0.8c0,0.22,0,0.43,0.02,0.65c0,0,0,0,0,0c0.02,0.19,0.04,0.38,0.09,0.56
		c0.03,0.14,0.07,0.28,0.11,0.42c0.06,0.18,0.13,0.37,0.22,0.54c0.08,0.16,0.16,0.32,0.25,0.47c0.01,0.01,0.01,0.02,0.02,0.03
		c0.13,0.19,0.26,0.37,0.4,0.55c0.13,0.14,0.25,0.28,0.38,0.41c0.01,0,0.01,0.01,0.01,0.01c0,0,0,0,0,0c0,0,0.01,0.01,0.01,0.01
		c0.2,0.18,0.4,0.35,0.62,0.5c0.24,0.17,0.5,0.32,0.76,0.46c-0.02-0.01-0.04-0.02-0.06-0.03c0.27,0.13,0.55,0.26,0.84,0.36
		c0.3,0.11,0.6,0.19,0.9,0.27c0.55,0.13,1.1,0.27,1.66,0.4c1.06,0.26,2.13,0.54,3.12,1.03c0.48,0.23,0.94,0.5,1.37,0.83
		c0.41,0.31,0.79,0.67,1.13,1.06c0.4,0.48,0.75,1,1.04,1.56c0.1,0.19,0.19,0.37,0.28,0.56c0.07,0.16,0.14,0.32,0.21,0.48
		c0.04,0.13,0.09,0.25,0.13,0.38c0.05,0.17,0.09,0.33,0.12,0.51c0.03,0.13-0.06,0.27-0.18,0.3c-0.13,0.03-0.26-0.06-0.28-0.19
		c-0.03-0.17-0.07-0.34-0.12-0.51c0.01,0.02,0.01,0.04,0.02,0.06c-0.23-0.7-0.57-1.37-0.96-2c0.01,0.02,0.02,0.04,0.04,0.05
		c-0.18-0.27-0.36-0.53-0.56-0.77c-0.19-0.23-0.4-0.44-0.61-0.65c0.01,0.01,0.03,0.03,0.04,0.04c-0.26-0.25-0.54-0.48-0.85-0.68
		c-0.26-0.17-0.53-0.33-0.8-0.48c-0.81-0.4-1.68-0.69-2.55-0.92c-0.5-0.13-0.99-0.25-1.49-0.37c-0.26-0.06-0.51-0.12-0.77-0.19
		c-0.22-0.06-0.44-0.11-0.65-0.17c-0.52-0.16-1.03-0.37-1.5-0.64c-0.22-0.12-0.43-0.25-0.63-0.4c-0.2-0.15-0.38-0.3-0.56-0.47
		c-0.68-0.63-1.22-1.45-1.48-2.37c-0.15-0.5-0.22-1.03-0.21-1.56c0.01-0.54,0.08-1.08,0.22-1.59c0.3-1.12,0.84-2.17,1.59-3.02
		c0.38-0.43,0.8-0.82,1.28-1.13c0.22-0.14,0.45-0.28,0.7-0.39c0.22-0.1,0.44-0.19,0.67-0.25c0.38-0.1,0.78-0.17,1.17-0.17
		c0.15,0,0.3,0.01,0.45,0.03c0.25,0.03,0.5,0.07,0.73,0.15c0.28,0.09,0.55,0.2,0.82,0.33c0.91,0.46,1.67,1.27,1.98,2.3
		c0.16,0.53,0.22,1.11,0.14,1.66c-0.03,0.18-0.06,0.36-0.1,0.54c0,0,0,0,0.01,0c0.37-0.27,0.67-0.55,0.92-0.87
		c0.05-0.06,0.09-0.13,0.14-0.2c0-0.06,0.01-0.12,0.01-0.17c0-0.13,0-0.27-0.01-0.4v0c-0.02-0.19-0.04-0.39-0.09-0.57
		c-0.03-0.14-0.07-0.27-0.12-0.41c-0.13-0.36-0.3-0.69-0.5-1.01c-0.28-0.41-0.59-0.78-0.94-1.12h0c-0.24-0.22-0.49-0.43-0.75-0.62
		c-0.26-0.19-0.54-0.35-0.82-0.5c0.02,0.01,0.04,0.02,0.06,0.03c-0.28-0.14-0.56-0.27-0.86-0.37c-0.24-0.08-0.49-0.15-0.74-0.19
		c-0.35-0.06-0.7-0.09-1.05-0.07c-0.01,0-0.02,0-0.03,0c-0.52,0.06-1.03,0.2-1.52,0.39c0.02-0.01,0.04-0.02,0.06-0.02
		c-0.32,0.13-0.63,0.27-0.94,0.43c-0.26,0.15-0.5,0.3-0.74,0.47c0.01-0.01,0.01-0.02,0.03-0.02c-0.3,0.22-0.6,0.46-0.87,0.73
		c-0.23,0.24-0.46,0.48-0.67,0.73c0,0,0,0,0,0c0,0-0.01,0-0.01,0.01c-0.25,0.31-0.49,0.65-0.7,0.99c-0.22,0.37-0.42,0.74-0.6,1.14
		c0.01-0.02,0.02-0.04,0.03-0.06c-0.19,0.43-0.36,0.87-0.5,1.33c-0.14,0.46-0.25,0.92-0.33,1.39c-0.15,0.91-0.19,1.82-0.14,2.73
		c0.03,0.43,0.09,0.87,0.17,1.29c0.09,0.42,0.19,0.84,0.33,1.25c-0.01-0.02-0.01-0.04-0.02-0.06c0.13,0.37,0.27,0.73,0.44,1.08
		c0.22,0.46,0.47,0.9,0.74,1.33c0-0.01-0.01-0.01-0.01-0.02c0,0.01,0.01,0.01,0.01,0.02c0,0.01,0.01,0.02,0.01,0.02
		c0.37,0.57,0.78,1.12,1.22,1.63c0.41,0.48,0.85,0.93,1.3,1.36c0,0-0.01-0.01-0.01-0.01c0.59,0.54,1.2,1.05,1.86,1.51
		c0.64,0.45,1.3,0.86,1.99,1.23c0.05,0.03,0.09,0.1,0.1,0.16c0.01,0.07,0,0.14-0.03,0.19c-0.03,0.06-0.09,0.1-0.15,0.11
		c-0.07,0.02-0.12,0-0.18-0.04c-1.44-0.78-2.8-1.74-4.01-2.9c-0.62-0.59-1.2-1.22-1.73-1.91c-0.46-0.61-0.89-1.25-1.26-1.93
		c-0.17-0.31-0.33-0.62-0.46-0.95c-0.11-0.27-0.21-0.55-0.3-0.83c-0.19-0.6-0.33-1.21-0.4-1.84c-0.07-0.61-0.11-1.23-0.09-1.85
		c0.02-0.58,0.08-1.16,0.18-1.73c0.34-1.91,1.13-3.74,2.37-5.17c0.62-0.7,1.33-1.32,2.13-1.77c0.42-0.23,0.86-0.44,1.31-0.59
		c0.43-0.14,0.88-0.26,1.33-0.31c0.13-0.01,0.26-0.02,0.39-0.02c0.3,0,0.59,0.04,0.89,0.09c0.45,0.09,0.88,0.23,1.3,0.42
		c0.45,0.21,0.89,0.46,1.3,0.76c0.37,0.28,0.73,0.58,1.04,0.93c0.33,0.37,0.64,0.77,0.87,1.21c0.21,0.39,0.39,0.81,0.48,1.25
		c0,0.01,0,0.03,0.01,0.04c0.01-0.21,0-0.43-0.03-0.66c-0.06-0.35-0.18-0.7-0.38-1.08c-0.33-0.65-0.83-1.25-1.52-1.86
		c-0.6-0.53-1.27-0.97-2-1.3c-0.7-0.33-1.49-0.5-2.33-0.52c-0.04,0-0.08,0-0.12,0C181.99,121.63,181.63,121.66,181.26,121.73
		L181.26,121.73L181.26,121.73z M179.38,124.14c-0.01,0-0.02,0.01-0.03,0.02C179.36,124.15,179.37,124.14,179.38,124.14
		L179.38,124.14L179.38,124.14z M179.68,126.74c0,0-0.01,0.01-0.01,0.02C179.68,126.75,179.68,126.75,179.68,126.74L179.68,126.74
		L179.68,126.74z"/>
	<polygon class="st13" points="173.01,131.43 173.01,131.43 173.01,131.43 173.01,131.43 173.01,131.43 	"/>
	<path class="st13" d="M173,131.47C173,131.47,173,131.47,173,131.47c0-0.02,0.01-0.03,0.01-0.04C173,131.44,173,131.46,173,131.47
		L173,131.47L173,131.47z"/>
	<path class="st13" d="M172.01,135.47c-0.08,1.25-0.04,2.56,0.12,3.92c0.14,1.17,0.4,2.41,0.78,3.79c0.78,2.79,2,5.43,2.99,7.42
		c0.05,0.1,0.1,0.19,0.22,0.24c0.07,0.04,0.16,0.05,0.24,0.03c0.03-0.01,0.06-0.02,0.09-0.03c0.1-0.05,0.2-0.15,0.24-0.27
		c0.04-0.11,0.03-0.22-0.01-0.31c-0.62-1.24-1.12-2.34-1.54-3.36l0.1,0.07c0.38,0.19,0.79,0.37,1.23,0.51
		c0.88,0.3,1.88,0.52,3.13,0.69c0.38,0.05,0.77,0.1,1.18,0.13c-1.53-0.92-2.97-2-4.21-3.33c-0.66-0.71-1.27-1.47-1.79-2.3
		c-0.54-0.85-1.01-1.75-1.36-2.71c-0.37-0.98-0.65-2-0.82-3.05c-0.2-1.2-0.31-2.44-0.24-3.66c0-0.03,0-0.07,0.01-0.1
		C172.17,133.89,172.06,134.65,172.01,135.47L172.01,135.47L172.01,135.47z"/>
	<path class="st13" d="M177.86,125.58C177.86,125.58,177.86,125.57,177.86,125.58c0.01-0.01,0.02-0.02,0.02-0.03
		C177.87,125.56,177.87,125.57,177.86,125.58L177.86,125.58L177.86,125.58z"/>
	<polygon class="st13" points="179.7,126.72 179.71,126.71 179.7,126.72 179.7,126.72 	"/>
	<path class="st13" d="M175.62,133.16c0-0.01,0-0.02,0-0.03C175.62,133.14,175.62,133.15,175.62,133.16L175.62,133.16L175.62,133.16
		z"/>
	<path class="st13" d="M185.07,125.31c-0.01,0-0.01-0.01-0.02-0.01C185.05,125.3,185.06,125.31,185.07,125.31L185.07,125.31
		L185.07,125.31z"/>
	<polygon class="st13" points="179.7,126.72 179.7,126.72 179.7,126.72 179.7,126.72 179.7,126.72 	"/>
	<polygon class="st13" points="179.7,126.72 179.7,126.72 179.7,126.72 179.7,126.72 179.7,126.72 	"/>
	<path class="st13" d="M178.72,128.28c0.01-0.01,0.01-0.02,0.01-0.03C178.73,128.26,178.72,128.27,178.72,128.28L178.72,128.28
		L178.72,128.28z"/>
	<path class="st13" d="M178.12,131.4c0-0.01,0-0.02,0-0.04C178.12,131.37,178.12,131.38,178.12,131.4L178.12,131.4L178.12,131.4z"/>
	<path class="st13" d="M187.52,138.01c-0.01,0-0.01-0.01-0.02-0.01C187.5,138,187.51,138.01,187.52,138.01L187.52,138.01
		L187.52,138.01z"/>
	<path class="st14" d="M207.12,135.24c-0.56,0-1.16,0.04-1.76,0.12c-1.19,0.17-2.27,0.48-3.2,0.92c-1.1,0.51-2.08,1.16-2.9,1.94
		c-0.85,0.81-1.58,1.75-2.19,2.78c-3.08-2.16-6.89-3.35-10.7-3.35c-1.98,0.01-3.88,0.35-5.64,1.03c-0.85,0.32-1.7,0.75-2.53,1.28
		c-0.76,0.47-1.49,1.07-2.26,1.82c-0.79,0.79-1.5,1.7-2.16,2.81c-0.79,1.33-1.33,2.68-1.59,4.03c-0.85-0.64-1.81-1.14-2.83-1.5
		c-1.04-0.37-2.17-0.55-3.35-0.55c-1.06,0-2.17,0.18-3.31,0.53c-1.02,0.31-2.05,0.77-3.14,1.42c-0.94,0.55-1.89,1.25-2.9,2.13
		c-0.88,0.77-1.72,1.64-2.57,2.68c-1.45,1.77-2.71,3.85-3.76,6.2c-1.9,4.25-2.99,9.14-3.24,14.53c-0.11,2.48-0.02,5.07,0.28,7.68
		c0.29,2.53,0.78,5.03,1.45,7.43c0.65,2.36,1.51,4.64,2.56,6.79c0.45,0.93,0.94,1.84,1.47,2.7c0.38,0.63,0.83,1.29,1.55,2.28
		c1.14,1.54,2.47,3.08,3.96,4.57c1.55,1.53,3.17,2.89,4.83,4.05c1.66,1.16,3.38,2.1,5.09,2.77c1.81,0.72,3.6,1.08,5.32,1.09
		c0.83,0,1.67-0.1,2.55-0.3c0.8-0.19,1.62-0.51,2.44-0.95c0.75-0.39,1.49-0.93,2.29-1.64c0.65-0.6,1.28-1.31,1.92-2.17
		c2.24,0.86,4.59,1.38,6.98,1.56c0.53,0.04,1.06,0.06,1.59,0.06c1.84,0,3.67-0.23,5.45-0.69c2.27-0.57,4.45-1.54,6.5-2.89
		c0.98-0.65,1.96-1.42,2.91-2.3c0.45-0.42,0.88-0.86,1.3-1.32c0.52-0.57,0.97-1.11,1.38-1.66c0.28-0.38,0.53-0.78,0.75-1.18
		c0.97,0.61,1.88,1.05,2.8,1.34c1,0.32,1.88,0.5,2.72,0.54c0.22,0.01,0.43,0.02,0.65,0.02c0.66,0,1.32-0.06,1.94-0.19
		c0.89-0.19,1.72-0.47,2.45-0.81c1.57-0.73,3.07-1.83,4.47-3.25c1.33-1.37,2.56-2.95,3.63-4.71c1.1-1.79,2.07-3.73,2.9-5.76
		c0.81-1.98,1.45-3.95,1.92-5.87c0.25-1.05,0.44-1.95,0.57-2.75c0.16-1,0.27-2.02,0.34-3.1c0.15-2.4,0.08-4.86-0.2-7.31
		c-0.29-2.48-0.78-4.98-1.47-7.43c-0.7-2.52-1.58-4.93-2.63-7.16c-2.24-4.83-5.07-8.85-8.41-11.94c-1.86-1.72-3.8-3.09-5.77-4.07
		c-1.13-0.58-2.26-1.04-3.36-1.37c-1.25-0.38-2.38-0.62-3.46-0.73C208.16,135.27,207.6,135.24,207.12,135.24L207.12,135.24
		L207.12,135.24z"/>
	<path class="st6" d="M205.36,135.38c-1.17,0.17-2.25,0.47-3.19,0.91c-1.11,0.52-2.08,1.16-2.9,1.94c-0.74,0.71-1.41,1.52-1.98,2.43
		c1.43,1.98,2.74,4.05,3.95,6.19c2.45,4.35,4.47,8.97,6.07,13.75c1.63,4.91,2.83,9.98,3.52,15.14c0.67,5.06,0.9,10.2,0.51,15.3
		c-0.19,2.48-0.5,4.95-0.98,7.38c-0.11,0.57-0.23,1.13-0.36,1.7c0.87,0.5,1.69,0.87,2.47,1.13c0.98,0.31,1.86,0.49,2.71,0.54
		c0.22,0.02,0.43,0.02,0.65,0.02c0.67,0,1.33-0.06,1.94-0.19c0.88-0.18,1.7-0.45,2.44-0.8c1.58-0.74,3.08-1.83,4.46-3.25
		c1.32-1.36,2.55-2.94,3.63-4.71c1.1-1.79,2.07-3.72,2.9-5.76c0.81-1.99,1.45-3.97,1.92-5.88c0.18-0.75,0.41-1.74,0.57-2.74
		c0.16-0.98,0.27-2,0.34-3.1c0.15-2.39,0.08-4.84-0.2-7.31c-0.28-2.46-0.78-4.95-1.47-7.42c-0.7-2.53-1.59-4.93-2.62-7.16
		c-2.25-4.83-5.08-8.85-8.41-11.93c-1.85-1.71-3.78-3.08-5.76-4.08c-1.14-0.58-2.26-1.03-3.36-1.37c-1.25-0.38-2.38-0.61-3.45-0.72
		c-0.57-0.06-1.12-0.09-1.65-0.09C206.5,135.26,205.91,135.3,205.36,135.38L205.36,135.38L205.36,135.38z"/>
	<path class="st6" d="M180.73,138.68c-0.85,0.33-1.7,0.75-2.53,1.28c-0.77,0.48-1.51,1.08-2.25,1.81c-0.78,0.77-1.49,1.68-2.16,2.8
		c-0.79,1.33-1.32,2.68-1.58,4.03c-0.02-0.02-0.04-0.03-0.06-0.04c-0.14,1-0.29,2.01-0.42,3.01c0-0.02,0.01-0.04,0.01-0.07
		c-0.07,0.52-0.13,1.04-0.17,1.56c-0.04,0.52-0.07,1.05-0.09,1.57c-0.05,1.05-0.09,2.11-0.12,3.16c-0.06,2.12-0.07,4.23-0.03,6.35
		c0.07,4.08,0.34,8.16,0.84,12.2c0-0.02,0-0.03-0.01-0.04c0.95,7.47,2.72,14.84,5.46,21.8c-0.01-0.02-0.01-0.04-0.02-0.06
		c0.76,1.93,1.6,3.84,2.53,5.68c0.81,1.6,1.7,3.15,2.73,4.61c2.26,0.85,4.6,1.36,6.94,1.53c0.53,0.04,1.06,0.06,1.58,0.06
		c1.82,0,3.65-0.23,5.44-0.68c2.26-0.57,4.45-1.54,6.49-2.89c0.98-0.65,1.96-1.43,2.9-2.3c0.43-0.4,0.87-0.85,1.3-1.32
		c0.53-0.58,0.98-1.13,1.38-1.66c0.22-0.29,0.42-0.6,0.6-0.91c0.02-0.1,0.04-0.19,0.07-0.29c0.41-1.85,0.74-3.71,0.98-5.59
		c0,0.02-0.01,0.04-0.01,0.07c0.74-5.93,0.65-11.95-0.09-17.87c0,0,0,0.01,0,0.01c0,0,0-0.01,0-0.01c0-0.02,0-0.03-0.01-0.05
		c0,0,0,0,0-0.01c0,0,0,0,0,0.01c0,0,0,0,0,0c-0.89-6.88-2.64-13.63-5.18-20.03c0.01,0.02,0.02,0.04,0.03,0.06
		c-2.21-5.55-5.01-10.84-8.47-15.63c0,0,0,0,0,0c0,0,0,0,0,0c0,0,0,0,0,0c-3.06-2.04-6.76-3.16-10.45-3.16
		C184.37,137.67,182.49,138.02,180.73,138.68L180.73,138.68L180.73,138.68z"/>
	<path class="st6" d="M162.71,147.09c-1.01,0.31-2.04,0.77-3.14,1.42c-0.94,0.56-1.89,1.25-2.89,2.14
		c-0.88,0.77-1.72,1.64-2.56,2.68c-1.44,1.75-2.7,3.84-3.75,6.19c-1.9,4.24-2.99,9.13-3.24,14.52c-0.12,2.49-0.02,5.07,0.28,7.68
		c0.29,2.54,0.78,5.04,1.45,7.42c0.66,2.36,1.52,4.65,2.56,6.79c0.46,0.95,0.95,1.86,1.47,2.7c0.41,0.68,0.89,1.38,1.55,2.27
		c1.14,1.55,2.47,3.09,3.96,4.57c1.52,1.51,3.15,2.87,4.83,4.05c1.66,1.16,3.37,2.09,5.09,2.77c1.81,0.71,3.59,1.08,5.31,1.08
		c0.85,0,1.69-0.1,2.55-0.3c0.8-0.19,1.62-0.5,2.43-0.94c0.76-0.4,1.51-0.94,2.29-1.64c0.56-0.51,1.1-1.1,1.63-1.8
		c-0.69-0.95-1.31-1.96-1.89-2.99c-0.57-1.02-1.1-2.06-1.6-3.12c-2.5-5.32-4.37-10.97-5.68-16.75c-0.67-2.97-1.22-5.98-1.61-9.01
		c-0.41-3.14-0.67-6.31-0.8-9.48c-0.14-3.3-0.15-6.61-0.05-9.92c0.03-0.85,0.06-1.71,0.1-2.56c0.04-0.79,0.07-1.57,0.16-2.35
		c0.15-1.41,0.37-2.81,0.56-4.22c-0.75-0.48-1.54-0.86-2.35-1.15c-1.03-0.36-2.15-0.54-3.35-0.54
		C164.95,146.57,163.85,146.75,162.71,147.09L162.71,147.09L162.71,147.09z"/>
	<path class="st6" d="M205.36,135.38c-1.17,0.17-2.25,0.47-3.19,0.91c-1.11,0.52-2.08,1.16-2.9,1.94c-0.74,0.71-1.41,1.52-1.98,2.43
		c1.43,1.98,2.74,4.05,3.95,6.19c2.45,4.35,4.47,8.97,6.07,13.75c1.63,4.91,2.83,9.98,3.52,15.14c0.67,5.06,0.9,10.2,0.51,15.3
		c-0.19,2.48-0.5,4.95-0.98,7.38c-0.11,0.57-0.23,1.13-0.36,1.7c0.87,0.5,1.69,0.87,2.47,1.13c0.98,0.31,1.86,0.49,2.71,0.54
		c0.22,0.02,0.43,0.02,0.65,0.02c0.67,0,1.33-0.06,1.94-0.19c0.88-0.18,1.7-0.45,2.44-0.8c1.58-0.74,3.08-1.83,4.46-3.25
		c1.32-1.36,2.55-2.94,3.63-4.71c1.1-1.79,2.07-3.72,2.9-5.76c0.81-1.99,1.45-3.97,1.92-5.88c0.18-0.75,0.41-1.74,0.57-2.74
		c0.16-0.98,0.27-2,0.34-3.1c0.15-2.39,0.08-4.84-0.2-7.31c-0.28-2.46-0.78-4.95-1.47-7.42c-0.7-2.53-1.59-4.93-2.62-7.16
		c-2.25-4.83-5.08-8.85-8.41-11.93c-1.85-1.71-3.78-3.08-5.76-4.08c-1.14-0.58-2.26-1.03-3.36-1.37c-1.25-0.38-2.38-0.61-3.45-0.72
		c-0.57-0.06-1.12-0.09-1.65-0.09C206.5,135.26,205.91,135.3,205.36,135.38L205.36,135.38L205.36,135.38z"/>
	<path class="st8" d="M156.67,150.63c-0.88,0.77-1.71,1.64-2.56,2.68c-1.45,1.77-2.71,3.86-3.75,6.2c-1.9,4.25-2.99,9.14-3.24,14.53
		c-0.11,2.48-0.01,5.07,0.28,7.69c0.29,2.54,0.78,5.04,1.45,7.43c0.66,2.36,1.52,4.65,2.56,6.79c0.44,0.94,0.94,1.84,1.47,2.7
		c0.42,0.69,0.89,1.39,1.55,2.28c1.13,1.54,2.46,3.08,3.96,4.57c1.55,1.53,3.18,2.89,4.84,4.05c1.66,1.16,3.37,2.09,5.09,2.77
		c1.81,0.71,3.6,1.08,5.32,1.09c0.86,0,1.69-0.1,2.55-0.31c0.79-0.18,1.61-0.5,2.44-0.94c0.75-0.39,1.49-0.93,2.29-1.64
		c0.56-0.51,1.09-1.1,1.63-1.8c-0.64-0.91-1.26-1.89-1.89-3.01c-0.56-1.01-1.1-2.06-1.6-3.12c-1.5-3.19-2.8-6.57-3.9-10.11
		c-0.59-0.44-1.21-0.84-1.88-1.15c0,0,0.01,0.01,0.01,0.01c-0.44-0.19-0.88-0.34-1.34-0.41c0.02,0,0.04,0.01,0.06,0.01
		c-0.28-0.04-0.56-0.04-0.85-0.01c-0.01,0-0.03,0.01-0.04,0.01c-0.21,0.04-0.42,0.1-0.62,0.19c0,0,0.01,0,0.01-0.01
		c-0.21,0.1-0.4,0.22-0.59,0.37c0,0,0,0,0,0c-0.1,0.09-0.21,0.18-0.29,0.27c-0.11,0.12-0.21,0.25-0.31,0.38
		c-0.27,0.38-0.49,0.79-0.67,1.23c0.01-0.02,0.01-0.04,0.02-0.06c-0.1,0.25-0.18,0.49-0.24,0.75c-0.05,0.2-0.09,0.41-0.12,0.62
		c0,0.01,0,0.01,0,0.02c0-0.01,0-0.01,0-0.02c0-0.01,0-0.02,0-0.03c-0.03,0.3-0.06,0.6-0.05,0.89c0,0.29,0.02,0.57,0.06,0.86
		c0,0,0,0,0,0c0.06,0.45,0.15,0.9,0.27,1.34c0.13,0.45,0.28,0.9,0.45,1.33c-0.01-0.02-0.01-0.04-0.02-0.06
		c0.79,1.96,1.93,3.73,3.14,5.42c0,0,0,0,0-0.01c0,0,0,0,0,0c0,0,0,0,0,0c0,0,0,0,0,0.01c0,0,0,0,0,0c0,0,0.01,0.01,0.01,0.01
		c0.01,0.01,0.01,0.02,0.02,0.03c-0.01-0.01-0.01-0.02-0.02-0.02c0.35,0.47,0.69,0.93,1.04,1.4c0.04,0.06,0.07,0.11,0.07,0.18
		c0,0.07-0.03,0.13-0.07,0.18c-0.04,0.05-0.1,0.07-0.17,0.07c-0.07,0-0.12-0.03-0.17-0.07c-1.74-1.45-3.33-3.1-4.72-4.93
		c-1.38-1.8-2.59-3.74-3.63-5.78c-2.14-4.2-3.6-8.77-4.51-13.44c-0.91-4.68-1.33-9.48-1.27-14.27c0.01-1.16,0.05-2.33,0.12-3.49
		c0.03-0.6,0.07-1.19,0.12-1.78c0.04-0.52,0.09-1.03,0.15-1.54c0.07-0.69,0.19-1.38,0.3-2.06c0.14-0.87,0.28-1.73,0.39-2.6
		c0,0,0,0.01,0,0.02c0.19-1.52,0.32-3.08,0.13-4.63c0,0.01,0,0.02,0,0.03c-0.07-0.51-0.18-1.02-0.35-1.5
		c-0.12-0.28-0.25-0.55-0.42-0.8c-0.11-0.15-0.24-0.29-0.37-0.42C158.09,149.45,157.39,150,156.67,150.63L156.67,150.63
		L156.67,150.63z M159.93,151.7c0,0.01,0,0.01,0,0.02C159.94,151.72,159.93,151.71,159.93,151.7L159.93,151.7L159.93,151.7z
		 M159.81,156.23c0,0.02,0,0.04-0.01,0.05C159.8,156.27,159.81,156.25,159.81,156.23L159.81,156.23L159.81,156.23z"/>
	<path class="st8" d="M171.11,190.92c0.01,0,0.01,0,0.01,0c0.01,0,0.02,0,0.04-0.01C171.14,190.91,171.12,190.91,171.11,190.92
		L171.11,190.92L171.11,190.92z"/>
	<path class="st8" d="M168.32,196.42c0-0.01,0-0.01,0-0.02C168.32,196.4,168.32,196.41,168.32,196.42L168.32,196.42L168.32,196.42z"
		/>
	<polygon class="st8" points="172.16,204.41 172.16,204.4 172.16,204.4 172.16,204.41 172.16,204.41 	"/>
	<polygon class="st8" points="172.16,204.41 172.17,204.41 172.16,204.41 172.16,204.41 172.16,204.41 172.16,204.41 172.16,204.41 
			"/>
	<path class="st8" d="M177.61,198.11c0.83,2.08,1.65,3.92,2.51,5.62c0.9,1.78,1.79,3.28,2.73,4.61c2.25,0.85,4.59,1.37,6.95,1.54
		c0.53,0.04,1.06,0.06,1.58,0.06c1.82,0,3.66-0.23,5.45-0.69c0.62-0.15,1.23-0.34,1.83-0.55c-1.47-0.2-2.92-0.54-4.33-1.02
		c-1.38-0.47-2.73-1.06-4.01-1.78c-1.15-0.65-2.26-1.39-3.3-2.22c-1-0.8-1.97-1.65-2.9-2.54c-0.95-0.92-1.88-1.87-2.8-2.82
		c-0.93-0.96-1.85-1.93-2.8-2.86c-0.85-0.83-1.71-1.65-2.62-2.41c-0.05-0.04-0.09-0.07-0.14-0.11
		C176.33,194.7,176.94,196.42,177.61,198.11L177.61,198.11L177.61,198.11z"/>
	<path class="st14" d="M212.7,140.39c0.54,0.36,1.04,0.74,1.54,1.15c-0.02-0.02-0.04-0.04-0.06-0.06c0.73,0.62,1.44,1.27,2.1,1.97
		c0.66,0.7,1.24,1.47,1.81,2.25c0.97,1.36,1.89,2.78,2.69,4.27c0.83,1.52,1.52,3.14,2.18,4.75c0.3,0.77,0.57,1.55,0.83,2.33
		c0.28,0.86,0.51,1.73,0.73,2.62c0.43,1.72,0.75,3.47,0.98,5.24c0.1,0.83,0.19,1.67,0.26,2.51c0.09,1.02,0.11,2.05,0.14,3.07
		c0.05,1.81-0.03,3.63-0.24,5.43c-0.34,2.5-0.91,4.99-1.8,7.33c-0.06,0.14-0.12,0.29-0.17,0.43c-0.1,0.24-0.2,0.48-0.29,0.73
		c-0.1,0.26-0.09,0.58-0.11,0.86c0,0.4,0.1,0.77,0.28,1.12c0.19,0.33,0.44,0.6,0.75,0.8c0.67,0.42,1.44,0.37,2.11,0
		c0.53-0.29,0.88-0.77,1.23-1.27c0.22-0.33,0.42-0.67,0.58-1.04c0.38-0.87,0.72-1.77,1-2.68c0.5-1.67,0.76-3.41,0.95-5.15
		c0.37-3.48,0.07-7-0.56-10.41c-0.65-3.51-1.89-6.83-3.28-10.07c-0.68-1.58-1.44-3.12-2.28-4.62c-0.82-1.46-1.78-2.86-2.77-4.21
		c-0.57-0.78-1.16-1.54-1.8-2.27c-0.66-0.75-1.38-1.45-2.11-2.14c-1.37-1.3-2.81-2.48-4.38-3.51c-0.05-0.03-0.1-0.05-0.15-0.05
		C212.59,139.8,212.43,140.21,212.7,140.39L212.7,140.39L212.7,140.39z M225.44,164.55c0.01,0.12,0.03,0.23,0.04,0.35
		C225.46,164.78,225.45,164.66,225.44,164.55L225.44,164.55L225.44,164.55z"/>
	<path class="st14" d="M220.93,190.52c0,1.1,0.86,2.01,1.89,2.01c1.03,0,1.89-0.92,1.89-2.01c0-1.1-0.86-2.01-1.89-2.01
		C221.79,188.51,220.93,189.43,220.93,190.52L220.93,190.52L220.93,190.52z"/>
	<path class="st14" d="M205.67,139.58c-0.04,0.15,0.05,0.31,0.19,0.35c0.24,0.09,0.48,0.18,0.72,0.28
		c-0.02-0.01-0.04-0.02-0.07-0.03c0.91,0.41,1.76,0.98,2.56,1.62c1.03,0.86,1.92,1.87,2.73,2.96c0-0.01-0.01-0.01-0.01-0.02
		c0,0.01,0.01,0.01,0.01,0.02c0.03,0.04,0.05,0.07,0.08,0.11c-0.02-0.03-0.04-0.06-0.06-0.09c0.34,0.48,0.66,0.97,0.97,1.48
		c0.32,0.52,0.6,1.07,0.88,1.62c0.54,1.08,1.05,2.18,1.51,3.3c0.38,0.97,0.75,1.95,1.1,2.94c0.35,0.99,0.67,2.01,1.09,2.97
		c0.02,0.05,0.04,0.1,0.06,0.15c0.1,0.19,0.24,0.33,0.41,0.44c0.27,0.17,0.6,0.21,0.89,0.13c0.62-0.18,0.96-0.87,0.81-1.52
		c-0.1-0.42-0.2-0.83-0.33-1.23c-0.13-0.42-0.28-0.84-0.44-1.25c-0.37-0.96-0.77-1.91-1.24-2.83c-0.43-0.84-0.88-1.67-1.38-2.47
		c-0.54-0.87-1.13-1.7-1.76-2.51c-0.57-0.73-1.16-1.45-1.79-2.12c-0.65-0.7-1.35-1.34-2.08-1.95c-0.67-0.56-1.38-1.06-2.12-1.49
		c-0.76-0.44-1.58-0.79-2.4-1.08c-0.02-0.01-0.05-0.01-0.07-0.01C205.81,139.37,205.7,139.46,205.67,139.58L205.67,139.58
		L205.67,139.58z M209.1,141.84c0.01,0.01,0.02,0.01,0.03,0.02C209.11,141.85,209.1,141.85,209.1,141.84L209.1,141.84L209.1,141.84z
		 M215.17,151.21c0.03,0.07,0.06,0.14,0.09,0.21C215.23,151.36,215.2,151.29,215.17,151.21L215.17,151.21L215.17,151.21z
		 M217.26,156.86c0.02,0.03,0.03,0.07,0.04,0.1C217.28,156.93,217.27,156.89,217.26,156.86L217.26,156.86L217.26,156.86z
		 M211.81,144.8c-0.01-0.01-0.01-0.01-0.02-0.02c0,0,0,0,0,0C211.8,144.78,211.81,144.79,211.81,144.8L211.81,144.8L211.81,144.8z"
		/>
	<path class="st14" d="M202.63,199.16c0,0.68,0.53,1.25,1.17,1.25c0.64,0,1.17-0.57,1.17-1.25c0-0.68-0.53-1.25-1.17-1.25
		C203.16,197.91,202.63,198.48,202.63,199.16L202.63,199.16L202.63,199.16z"/>
	<path class="st14" d="M205.88,194.39c0,0.41,0.32,0.75,0.7,0.75c0.38,0,0.7-0.34,0.7-0.75c0-0.41-0.32-0.75-0.7-0.75
		C206.2,193.64,205.88,193.98,205.88,194.39L205.88,194.39L205.88,194.39z"/>
	<path class="st14" d="M200.69,193.95c0,0.44,0.35,0.81,0.76,0.81c0.41,0,0.76-0.37,0.76-0.81c0-0.44-0.35-0.81-0.76-0.81
		C201.04,193.15,200.69,193.52,200.69,193.95L200.69,193.95L200.69,193.95z"/>
	<path class="st14" d="M205.19,188.83c0,0.47,0.37,0.86,0.81,0.86c0.44,0,0.81-0.39,0.81-0.86c0-0.47-0.37-0.86-0.81-0.86
		C205.55,187.98,205.19,188.37,205.19,188.83L205.19,188.83L205.19,188.83z"/>
	<path class="st14" d="M196.68,202.22c0,0.41,0.32,0.75,0.7,0.75s0.7-0.34,0.7-0.75s-0.32-0.75-0.7-0.75
		S196.68,201.81,196.68,202.22L196.68,202.22L196.68,202.22z"/>
	<path class="st14" d="M162.86,155.01c0,0.41,0.32,0.75,0.7,0.75c0.38,0,0.7-0.34,0.7-0.75c0-0.41-0.32-0.75-0.7-0.75
		C163.18,154.26,162.86,154.6,162.86,155.01L162.86,155.01L162.86,155.01z"/>
	<path class="st14" d="M162.63,149.47c0,0.64,0.5,1.17,1.1,1.17c0.6,0,1.1-0.53,1.1-1.17c0-0.64-0.5-1.17-1.1-1.17
		C163.13,148.3,162.63,148.83,162.63,149.47L162.63,149.47L162.63,149.47z"/>
	<path class="st14" d="M166.73,150.58c0,0.88,0.69,1.61,1.51,1.61c0.82,0,1.51-0.73,1.51-1.61c0-0.88-0.69-1.61-1.51-1.61
		C167.42,148.97,166.73,149.7,166.73,150.58L166.73,150.58L166.73,150.58z"/>
	<path class="st14" d="M165.76,160.76c0,0.71,0.56,1.3,1.22,1.3s1.22-0.59,1.22-1.3s-0.56-1.3-1.22-1.3S165.76,160.05,165.76,160.76
		L165.76,160.76L165.76,160.76z"/>
	<path class="st14" d="M189.2,143.92c0,0.43,0.34,0.8,0.75,0.8c0.41,0,0.75-0.37,0.75-0.8c0-0.43-0.34-0.8-0.75-0.8
		C189.55,143.12,189.2,143.48,189.2,143.92L189.2,143.92L189.2,143.92z"/>
	<path class="st14" d="M188.23,140.43c0,0.52,0.41,0.95,0.89,0.95c0.48,0,0.89-0.43,0.89-0.95c0-0.52-0.41-0.95-0.89-0.95
		C188.64,139.48,188.23,139.91,188.23,140.43L188.23,140.43L188.23,140.43z"/>
	<path class="st14" d="M195.27,143.39c0,0.41,0.32,0.75,0.7,0.75c0.38,0,0.7-0.34,0.7-0.75c0-0.41-0.32-0.75-0.7-0.75
		C195.59,142.65,195.27,142.98,195.27,143.39L195.27,143.39L195.27,143.39z"/>
	<path class="st14" d="M191.78,147.9c0,0.42,0.33,0.78,0.73,0.78c0.4,0,0.73-0.35,0.73-0.78c0-0.42-0.33-0.78-0.73-0.78
		C192.12,147.12,191.78,147.47,191.78,147.9L191.78,147.9L191.78,147.9z"/>
	<path class="st14" d="M199.47,154.64c0,0.61,0.48,1.12,1.05,1.12c0.57,0,1.05-0.51,1.05-1.12c0-0.61-0.48-1.12-1.05-1.12
		C199.95,153.53,199.47,154.04,199.47,154.64L199.47,154.64L199.47,154.64z"/>
	<path class="st0" d="M134.1,152.42c-0.23,0-0.43,0.16-0.49,0.38c-0.59,2.47-1.25,5-1.84,7.23l-0.14,0.55
		c-0.88,3.39-1.78,6.83-2.55,10.24c-0.73,3.22-1.29,6.19-1.7,9.06c-0.46,3.2-0.71,6.36-0.74,9.39c-0.01,0.55,0,1.1,0,1.65l0,0.43
		c0,0.61,0.04,1.15,0.1,1.66c-0.09,0.24,0.02,0.51,0.25,0.65c3.5,2.17,7.63,3.65,12.28,4.4c2.2,0.34,4.49,0.52,6.82,0.52
		c2.2,0,4.54-0.18,6.94-0.52c4.64-0.68,9.07-2,13.15-3.92c4.09-1.92,7.52-4.31,10.2-7.11c1.22-1.28,2.35-2.74,3.33-4.31
		c0.93-1.47,1.69-3.03,2.25-4.63c0.8-2.3,1.53-5.73,0.47-9.03c-0.43-1.34-1.19-2.61-2.2-3.66c-1.02-1.07-2.38-1.94-4.03-2.57
		c-0.83-0.33-1.74-0.59-2.77-0.8c-0.92-0.18-1.96-0.3-3.28-0.39c-1.53-0.09-3.14-0.13-5.06-0.13c-0.63,0-1.26,0-1.89,0.01l-1.2,0.01
		c-1.08,0.01-2.1,0.02-3.12,0.02c-2.19,0-3.89-0.05-5.52-0.16c-3.47-0.25-6.3-0.8-8.88-1.73c-1.93-0.72-3.74-1.68-5.36-2.84
		c-1.6-1.17-3.1-2.6-4.47-4.25c-0.08-0.1-0.23-0.14-0.34-0.14c-0.07,0-0.12,0-0.16-0.01C134.16,152.43,134.1,152.42,134.1,152.42
		L134.1,152.42L134.1,152.42z"/>
	<path class="st1" d="M182.36,168.76c-0.01,0-0.02,0.01-0.02,0.02c-0.15,0.27-0.31,0.54-0.47,0.81c-0.58,0.94-1.2,1.82-1.84,2.62
		c-0.66,0.82-1.39,1.63-2.18,2.42c-0.78,0.78-1.61,1.53-2.45,2.23c-0.47,0.4-0.95,0.78-1.43,1.16c-0.46,0.36-0.92,0.72-1.4,1.06
		c-1.48,1.05-3.07,1.92-4.61,2.76l-0.43,0.24c-0.48,0.26-0.95,0.52-1.43,0.8c-1.48,0.86-3.18,1.92-4.62,3.32
		c-0.18,0.18-0.35,0.35-0.51,0.54c-0.14,0.17-0.26,0.34-0.38,0.53c-0.06,0.1-0.11,0.2-0.16,0.3c-0.04,0.09-0.07,0.18-0.1,0.27
		c-0.03,0.11-0.05,0.21-0.06,0.32c0,0.11,0.01,0.2,0.03,0.3c0.04,0.11,0.06,0.16,0.08,0.21c0.05,0.09,0.09,0.15,0.14,0.21
		c0.07,0.08,0.13,0.13,0.19,0.18c0.04,0.04,0.09,0.07,0.13,0.1c0.14,0.08,0.22,0.13,0.31,0.17c0.09,0.04,0.19,0.08,0.29,0.12
		c0.32,0.1,0.59,0.16,0.86,0.19c0.22,0.03,0.45,0.05,0.68,0.06c0.47,0,0.84-0.03,1.19-0.07c0.41-0.06,0.82-0.14,1.23-0.24
		c0.73-0.2,1.39-0.43,2.1-0.74c0.63-0.33,1.26-0.68,1.88-1.03c0.88-0.51,1.75-1.05,2.61-1.6c0.05-0.03,0.09-0.04,0.13-0.04
		c0.09,0.01,0.14,0.04,0.18,0.09c0.03,0.05,0.05,0.12,0.04,0.18c-0.01,0.06-0.04,0.12-0.09,0.15l-0.1,0.08
		c-0.95,0.71-1.93,1.33-2.93,1.87c-0.52,0.27-1.05,0.54-1.58,0.77c-3.2,1.68-6.54,3.06-9.93,4.08c-5.17,1.57-10.45,2.41-15.7,2.5
		c-0.4,0.01-0.79,0.01-1.18,0.01c-2.29,0-4.55-0.13-6.72-0.39c-2.14-0.26-4.26-0.64-6.3-1.12c3.29,1.94,7.15,3.26,11.47,3.97
		c2.29,0.34,4.58,0.52,6.82,0.52c2.1,0,4.44-0.18,6.95-0.52c4.64-0.69,9.07-2.02,13.16-3.94c4.09-1.91,7.52-4.3,10.21-7.11
		c1.23-1.29,2.35-2.75,3.33-4.33c0.93-1.45,1.69-3.01,2.25-4.63c0.81-2.3,1.54-5.74,0.47-9.07c-0.03-0.1-0.06-0.19-0.1-0.29
		C182.38,168.77,182.36,168.76,182.36,168.76L182.36,168.76L182.36,168.76z"/>
	<path class="st15" d="M138.51,157.31c-0.09,0.15-0.06,0.4,0.1,0.48c2.51,1.35,5.15,2.37,7.87,3.1c2.71,0.72,5.49,1.18,8.27,1.43
		c0.68,0.06,1.36,0.11,2.05,0.15c0.57,0.04,1.13,0.08,1.7,0.1c0.75,0.03,1.49,0.04,2.24,0.06c0.46,0,0.92,0,1.38,0
		c0.37,0,0.74,0,1.11,0c0.88,0,1.77,0,2.65,0.02c2.34,0.03,4.69,0.17,7,0.58c-0.06-0.01-0.12-0.02-0.18-0.03
		c1.62,0.3,3.22,0.74,4.72,1.46c0.81,0.42,1.58,0.91,2.28,1.52c0.46,0.43,0.87,0.89,1.24,1.42c0.36,0.56,0.66,1.14,0.9,1.77
		c0.34,0.98,0.54,2,0.64,3.04c0.08,1.1,0.04,2.21-0.12,3.3c-0.22,1.26-0.59,2.47-1.08,3.64c-0.72,1.61-1.65,3.1-2.72,4.47
		c-1.62,2.02-3.49,3.79-5.5,5.35c0,0,0.01-0.01,0.01-0.01c-0.01,0.01-0.02,0.01-0.02,0.02c-0.04,0.03-0.08,0.07-0.13,0.1
		c0.02-0.02,0.04-0.03,0.06-0.05c-2.8,2.13-5.87,3.91-9.08,5.23c-1.03,0.42-2.08,0.78-3.13,1.13c-1.23,0.41-2.49,0.77-3.75,1.1
		c-2.52,0.66-5.09,1.14-7.68,1.41c0.04,0,0.08-0.01,0.13-0.01c-1.94,0.2-3.89,0.29-5.84,0.23c-1.95-0.05-3.89-0.26-5.82-0.6
		c-2.61-0.49-5.16-1.3-7.56-2.48c0.02,0.01,0.04,0.02,0.06,0.03c-0.77-0.39-1.52-0.8-2.25-1.26c-0.11-0.07-0.26-0.04-0.33,0.08
		c-0.07,0.12-0.04,0.28,0.07,0.35c2.13,1.33,4.4,2.36,6.76,3.12c2.39,0.77,4.87,1.25,7.36,1.48c2.55,0.24,5.12,0.23,7.67,0.03
		c2.54-0.19,5.07-0.58,7.56-1.14c2.33-0.52,4.63-1.18,6.87-2.02c1.81-0.68,3.58-1.52,5.28-2.48c1.86-1.05,3.64-2.26,5.33-3.6
		c1.69-1.34,3.27-2.83,4.67-4.51c0.69-0.83,1.34-1.71,1.92-2.63c0.57-0.9,1.07-1.85,1.49-2.83c0.82-1.91,1.31-3.97,1.35-6.08
		c0.02-1.1-0.09-2.21-0.3-3.29c-0.19-0.96-0.48-1.89-0.88-2.78c-0.36-0.79-0.85-1.53-1.39-2.19c-0.54-0.66-1.17-1.23-1.85-1.73
		c-0.7-0.52-1.47-0.92-2.24-1.28c-0.78-0.35-1.58-0.62-2.4-0.85c-1.78-0.48-3.62-0.71-5.45-0.83c-1.81-0.12-3.62-0.11-5.43-0.06
		c-0.85,0.02-1.7,0.06-2.55,0.1c-0.78,0.04-1.56,0.08-2.33,0.11c-0.62,0.02-1.25,0.03-1.87,0.04c-1.08,0.01-2.17-0.04-3.25-0.08
		c-2.07-0.08-4.14-0.29-6.18-0.66c0.04,0.01,0.08,0.02,0.12,0.02c-1.38-0.25-2.74-0.58-4.09-1c-1.4-0.44-2.76-0.99-4.08-1.64
		c0.01,0,0.02,0.01,0.02,0.01c-0.03-0.01-0.05-0.03-0.08-0.04c0,0,0,0,0,0c0,0,0,0,0,0c-0.29-0.15-0.57-0.29-0.86-0.44
		c-0.06-0.03-0.12-0.05-0.18-0.05C138.67,157.15,138.57,157.2,138.51,157.31L138.51,157.31L138.51,157.31z M181.24,179.42
		c-0.01,0.03-0.02,0.06-0.04,0.08C181.22,179.47,181.23,179.45,181.24,179.42L181.24,179.42L181.24,179.42z M137.73,197.71
		c0.01,0,0.03,0,0.04,0.01C137.76,197.71,137.74,197.71,137.73,197.71L137.73,197.71L137.73,197.71z M172.98,189.22
		c0.02-0.02,0.05-0.04,0.07-0.05c0,0,0.01-0.01,0.01-0.01C173.03,189.18,173,189.2,172.98,189.22L172.98,189.22L172.98,189.22z
		 M139.82,157.65c0.02,0.01,0.04,0.02,0.05,0.03C139.86,157.66,139.84,157.66,139.82,157.65
		C139.82,157.65,139.82,157.65,139.82,157.65L139.82,157.65L139.82,157.65z"/>
	<path class="st0" d="M137.78,155.36c-0.06,0.03-0.1,0.08-0.12,0.15c-0.02,0.06-0.02,0.13,0.01,0.19c0.03,0.07,0.08,0.1,0.14,0.13
		c0.75,0.37,1.52,0.69,2.31,0.97c0.78,0.28,1.58,0.52,2.38,0.76c0.12,0.04,0.26-0.02,0.31-0.15c0.04-0.12-0.02-0.29-0.15-0.32
		c-0.79-0.25-1.59-0.49-2.38-0.77c-0.79-0.27-1.56-0.6-2.31-0.97c-0.02-0.01-0.05-0.02-0.08-0.02
		C137.85,155.34,137.81,155.35,137.78,155.36L137.78,155.36L137.78,155.36z"/>
	<path class="st0" d="M137.73,155.71c0,0.07,0.01,0.13,0.04,0.19c0.03,0.08,0.1,0.14,0.15,0.2c0.15,0.13,0.32,0.22,0.5,0.31
		c0.26,0.13,0.53,0.24,0.8,0.35c0.37,0.14,0.75,0.27,1.12,0.39c0.76,0.25,1.53,0.46,2.3,0.67c0.3,0.08,0.6,0.15,0.91,0.22
		c0.22,0.06,0.45,0.1,0.67,0.14c0.13,0.02,0.25-0.11,0.26-0.23c0.01-0.15-0.09-0.25-0.22-0.27c-0.16-0.03-0.32-0.06-0.47-0.1
		c0.02,0,0.04,0.01,0.06,0.01c-0.92-0.21-1.83-0.46-2.73-0.73c-0.49-0.15-0.98-0.31-1.47-0.48c-0.4-0.14-0.8-0.3-1.18-0.5
		c0,0,0.01,0,0.01,0.01c-0.09-0.05-0.17-0.1-0.25-0.17c0,0-0.01-0.01-0.01-0.01c-0.01-0.04-0.02-0.08-0.05-0.12
		c-0.04-0.05-0.1-0.08-0.16-0.09c0,0-0.01,0-0.01,0C137.86,155.48,137.73,155.58,137.73,155.71L137.73,155.71L137.73,155.71z"/>
	<path class="st0" d="M137.75,155.62c-0.06,0.03-0.1,0.08-0.13,0.15c-0.02,0.06-0.01,0.13,0.01,0.19c0.03,0.07,0.07,0.1,0.13,0.13
		c2.31,1.25,4.82,2.04,7.39,2.42c0.13,0.02,0.25-0.1,0.26-0.23c0.01-0.14-0.09-0.25-0.22-0.27c-0.56-0.08-1.12-0.19-1.67-0.31
		c0.02,0,0.04,0.01,0.06,0.01c-0.95-0.21-1.89-0.49-2.82-0.82c-0.97-0.35-1.91-0.78-2.83-1.27c-0.02-0.01-0.04-0.01-0.07-0.01
		C137.82,155.59,137.78,155.6,137.75,155.62L137.75,155.62L137.75,155.62z"/>
	<path class="st0" d="M138.32,155.97c-0.06,0.01-0.12,0.05-0.16,0.1c-0.07,0.11-0.05,0.29,0.06,0.35c1.11,0.69,2.32,1.18,3.56,1.56
		c0.63,0.19,1.26,0.35,1.9,0.48c0.63,0.13,1.27,0.24,1.91,0.31c0.13,0.02,0.25-0.1,0.25-0.23c0.01-0.14-0.09-0.26-0.22-0.27
		c-0.75-0.09-1.48-0.21-2.21-0.38c0.02,0,0.04,0.01,0.06,0.01c-1.52-0.35-3.02-0.83-4.41-1.56c0.02,0.01,0.04,0.02,0.06,0.03
		c-0.21-0.12-0.42-0.23-0.63-0.36c-0.05-0.03-0.09-0.05-0.13-0.05C138.35,155.96,138.33,155.96,138.32,155.97L138.32,155.97
		L138.32,155.97z"/>
	<path class="st0" d="M138.44,156.13c-0.07,0.11-0.05,0.28,0.06,0.36c0.44,0.29,0.9,0.54,1.38,0.77c0.57,0.26,1.17,0.46,1.76,0.63
		c1.11,0.31,2.24,0.5,3.38,0.64c0.13,0.02,0.25-0.1,0.26-0.23c0.01-0.14-0.09-0.25-0.22-0.27c-0.8-0.1-1.59-0.23-2.37-0.4
		c0.01,0,0.02,0.01,0.03,0.01c-0.56-0.13-1.12-0.28-1.67-0.46c-0.56-0.19-1.11-0.43-1.64-0.71c0,0,0,0,0,0c0,0,0,0,0,0
		c-0.02-0.01-0.04-0.02-0.06-0.03c0,0,0.01,0,0.01,0.01c-0.2-0.12-0.4-0.24-0.59-0.37c-0.04-0.03-0.09-0.04-0.14-0.04
		C138.56,156.02,138.49,156.06,138.44,156.13L138.44,156.13L138.44,156.13z M142.69,157.62c-0.01,0-0.02,0-0.03-0.01
		C142.67,157.62,142.68,157.62,142.69,157.62L142.69,157.62L142.69,157.62z M139.41,156.46
		C139.41,156.46,139.41,156.46,139.41,156.46c-0.01-0.01-0.03-0.02-0.04-0.02C139.38,156.44,139.39,156.45,139.41,156.46
		L139.41,156.46L139.41,156.46z"/>
	<path class="st0" d="M138.68,156.47c-0.02,0.07-0.02,0.14,0.01,0.2c0.03,0.07,0.08,0.11,0.14,0.14c1.53,0.75,3.15,1.31,4.83,1.5
		c0.13,0.01,0.25-0.1,0.26-0.24c0.01-0.14-0.09-0.26-0.22-0.28c-0.4-0.04-0.79-0.11-1.18-0.19c0.02,0,0.04,0.01,0.06,0.02
		c-0.63-0.14-1.23-0.33-1.84-0.54c-0.6-0.21-1.18-0.48-1.75-0.75c-0.03-0.01-0.05-0.02-0.08-0.02
		C138.81,156.29,138.71,156.37,138.68,156.47L138.68,156.47L138.68,156.47z"/>
	<path class="st0" d="M139.19,156.52c-0.06,0.03-0.1,0.08-0.12,0.15c-0.02,0.06-0.02,0.13,0.01,0.19c0.03,0.07,0.08,0.1,0.14,0.13
		c0.48,0.24,0.98,0.44,1.48,0.62c0.56,0.19,1.14,0.34,1.71,0.48c0.06,0.02,0.12,0.02,0.18-0.01c0.06-0.03,0.1-0.08,0.12-0.15
		c0.02-0.06,0.02-0.13-0.01-0.19c-0.03-0.06-0.08-0.12-0.14-0.13c-0.52-0.13-1.03-0.27-1.54-0.43c-0.57-0.18-1.12-0.4-1.65-0.67
		c-0.02-0.01-0.05-0.01-0.07-0.01C139.26,156.49,139.22,156.5,139.19,156.52L139.19,156.52L139.19,156.52z"/>
	<path class="st0" d="M139.46,156.69c-0.06,0.03-0.1,0.08-0.12,0.15c-0.02,0.06-0.01,0.13,0.01,0.19c0.03,0.07,0.07,0.1,0.13,0.13
		c0.3,0.16,0.61,0.31,0.92,0.43c0.32,0.12,0.64,0.22,0.96,0.31c0.7,0.2,1.42,0.36,2.12,0.56c0.13,0.04,0.26-0.02,0.3-0.15
		c0.04-0.12-0.02-0.29-0.15-0.33c-0.65-0.19-1.3-0.34-1.95-0.52c-0.32-0.09-0.65-0.19-0.97-0.3c-0.37-0.13-0.73-0.3-1.08-0.48
		c-0.02-0.01-0.05-0.02-0.07-0.02C139.53,156.67,139.49,156.68,139.46,156.69L139.46,156.69L139.46,156.69z"/>
	<path class="st0" d="M139.3,156.97c-0.04,0.14,0.03,0.27,0.15,0.33c0.46,0.22,0.93,0.41,1.41,0.58c0.54,0.19,1.09,0.33,1.64,0.46
		c1.07,0.25,2.15,0.41,3.24,0.52c0.14,0.02,0.27-0.1,0.28-0.25c0.01-0.15-0.1-0.28-0.23-0.29c-1.06-0.13-2.12-0.27-3.17-0.5
		c0,0,0,0,0.01,0c-0.48-0.11-0.95-0.23-1.42-0.38c-0.53-0.17-1.06-0.37-1.57-0.61c-0.03-0.01-0.05-0.02-0.08-0.02
		C139.43,156.8,139.33,156.87,139.3,156.97L139.3,156.97L139.3,156.97z"/>
	<path class="st0" d="M140.21,157.32c-0.04,0.14,0.03,0.27,0.15,0.33c0.56,0.26,1.13,0.48,1.71,0.65c0.56,0.17,1.13,0.29,1.7,0.39
		c1.26,0.23,2.54,0.34,3.82,0.46c0.14,0.01,0.26-0.1,0.27-0.25c0.01-0.15-0.1-0.28-0.23-0.29c-1.55-0.15-3.11-0.27-4.64-0.61
		c0,0,0.01,0,0.01,0c-0.42-0.1-0.83-0.21-1.24-0.34c-0.42-0.14-0.83-0.31-1.23-0.5c-0.03-0.01-0.05-0.02-0.08-0.02
		C140.33,157.14,140.24,157.22,140.21,157.32L140.21,157.32L140.21,157.32z"/>
	<path class="st0" d="M140.13,157.35c-0.04,0.13,0.03,0.27,0.15,0.33c0.39,0.16,0.79,0.29,1.19,0.39c0.42,0.12,0.85,0.2,1.28,0.29
		c0.06,0.01,0.13-0.02,0.17-0.06c0.05-0.04,0.08-0.11,0.09-0.18c0-0.06-0.01-0.13-0.06-0.18c-0.04-0.06-0.1-0.08-0.16-0.09
		c-0.18-0.04-0.35-0.08-0.53-0.11c0.02,0,0.04,0.01,0.06,0.01c-0.29-0.06-0.58-0.13-0.87-0.21c-0.35-0.1-0.69-0.21-1.02-0.35
		c-0.03-0.01-0.05-0.01-0.08-0.01C140.26,157.18,140.16,157.25,140.13,157.35L140.13,157.35L140.13,157.35z"/>
	<path class="st0" d="M140.26,157.37c-0.02,0.06-0.02,0.13,0.01,0.19c0.03,0.06,0.08,0.1,0.14,0.13c0.21,0.1,0.41,0.18,0.62,0.26
		c0.21,0.08,0.43,0.14,0.64,0.2c0.4,0.11,0.8,0.19,1.2,0.28c0.06,0.01,0.13-0.02,0.17-0.06c0.05-0.04,0.08-0.11,0.09-0.17
		c0-0.06-0.01-0.13-0.06-0.18c-0.04-0.06-0.1-0.08-0.16-0.09c-0.16-0.04-0.32-0.07-0.49-0.11c0.02,0,0.04,0.01,0.06,0.01
		c-0.33-0.07-0.66-0.15-0.98-0.25c-0.32-0.1-0.63-0.22-0.94-0.37c-0.02-0.01-0.05-0.02-0.08-0.02
		C140.39,157.2,140.29,157.28,140.26,157.37L140.26,157.37L140.26,157.37z"/>
	<path class="st0" d="M140.42,157.47c-0.02,0.06-0.01,0.13,0.01,0.19c0.03,0.07,0.08,0.1,0.14,0.13c0.21,0.1,0.41,0.19,0.62,0.27
		c0.26,0.1,0.54,0.16,0.81,0.23c0.51,0.12,1.04,0.21,1.55,0.32c0.06,0.01,0.13-0.02,0.17-0.06c0.05-0.04,0.08-0.11,0.09-0.17
		c0-0.07-0.01-0.13-0.06-0.18c-0.04-0.06-0.1-0.08-0.16-0.09c-0.5-0.11-1-0.19-1.49-0.3c0.02,0,0.04,0.01,0.06,0.01
		c-0.22-0.05-0.44-0.11-0.65-0.17c-0.27-0.08-0.53-0.19-0.78-0.32c-0.03-0.01-0.05-0.02-0.08-0.02
		C140.55,157.3,140.46,157.38,140.42,157.47L140.42,157.47L140.42,157.47z"/>
	<path class="st0" d="M140.56,157.61c-0.04,0.13,0.03,0.27,0.15,0.32c0.21,0.09,0.43,0.17,0.65,0.25c0.22,0.08,0.44,0.13,0.66,0.19
		c0.46,0.12,0.93,0.2,1.4,0.27c0.51,0.08,1.02,0.13,1.53,0.19c0.51,0.06,1.02,0.12,1.53,0.21c0.13,0.02,0.25-0.1,0.25-0.23
		c0.01-0.07-0.01-0.13-0.05-0.18c-0.04-0.06-0.1-0.08-0.17-0.09c-1.35-0.23-2.73-0.29-4.07-0.58c0.01,0,0.02,0.01,0.03,0.01
		c-0.27-0.06-0.53-0.13-0.79-0.21c-0.28-0.08-0.55-0.19-0.82-0.3c-0.02-0.01-0.05-0.01-0.08-0.01
		C140.69,157.44,140.59,157.51,140.56,157.61L140.56,157.61L140.56,157.61z"/>
	<path class="st0" d="M141.29,157.84c-0.04,0.13,0.02,0.28,0.15,0.32c2.12,0.8,4.41,1.02,6.65,0.87c0.06,0,0.12-0.06,0.16-0.1
		c0.03-0.06,0.05-0.13,0.04-0.19c-0.01-0.07-0.05-0.13-0.1-0.16c-0.06-0.04-0.11-0.05-0.18-0.04c-0.11,0.01-0.22,0.02-0.32,0.02
		c0.02,0,0.04,0,0.06,0c-1.51,0.07-3.01-0.04-4.48-0.37c0.01,0,0.02,0.01,0.03,0.01c-0.57-0.13-1.14-0.3-1.69-0.51
		c-0.02-0.01-0.05-0.01-0.07-0.01C141.42,157.67,141.33,157.73,141.29,157.84L141.29,157.84L141.29,157.84z"/>
	<path class="st15" d="M106.41,66c-1.86,0.57-3.41,1.97-4.56,3.59c-1.03,1.45-1.71,3.17-2.21,4.9c-0.51,1.77-0.75,3.62-0.89,5.45
		c-0.13,1.81-0.12,3.63-0.01,5.44c0.03,0.4,0.3,0.74,0.7,0.74c0.36,0,0.72-0.34,0.7-0.74c-0.09-1.55-0.03-3.09,0.14-4.63
		c0.23-1.82,0.67-3.59,1.33-5.3c0.44-1.07,0.99-2.06,1.65-2.99c0.65-0.86,1.39-1.64,2.2-2.32c0.66-0.52,1.35-0.96,2.04-1.43
		c0.53-0.36,0.81-1.01,0.64-1.67c-0.17-0.64-0.74-1.09-1.35-1.09C106.65,65.95,106.53,65.97,106.41,66L106.41,66L106.41,66z
		 M100.3,80.53c0,0.04-0.01,0.07-0.01,0.11C100.29,80.6,100.29,80.57,100.3,80.53L100.3,80.53L100.3,80.53z"/>
	<path class="st15" d="M157.88,44.99c1.7-1,3.72-1.17,5.61-0.89c1.69,0.25,3.31,0.95,4.82,1.8c1.53,0.86,2.93,1.99,4.25,3.18
		c1.3,1.18,2.49,2.48,3.62,3.84c0.25,0.31,0.28,0.75,0,1.05c-0.26,0.27-0.73,0.3-0.99,0c-0.97-1.16-2.03-2.21-3.17-3.17
		c-1.38-1.11-2.86-2.04-4.46-2.75c-1.02-0.42-2.07-0.71-3.15-0.88c-1.03-0.12-2.07-0.11-3.1,0.01c-0.81,0.13-1.59,0.34-2.39,0.52
		c-0.61,0.14-1.24-0.11-1.56-0.7c-0.31-0.58-0.2-1.33,0.23-1.79C157.67,45.13,157.77,45.05,157.88,44.99L157.88,44.99L157.88,44.99z
		 M171.84,50.66c0.03,0.02,0.05,0.04,0.08,0.07C171.9,50.71,171.87,50.68,171.84,50.66L171.84,50.66L171.84,50.66z"/>
	<path class="st16" d="M115.96,117.06c0,2.35,1.85,4.32,4.06,4.32c2.21,0,4.06-1.97,4.06-4.32s-1.85-4.32-4.06-4.32
		C117.8,112.74,115.96,114.7,115.96,117.06L115.96,117.06L115.96,117.06z"/>
	<path class="st16" d="M186.72,90.27c0,2.35,1.85,4.32,4.06,4.32s4.06-1.97,4.06-4.32s-1.85-4.32-4.06-4.32
		S186.72,87.92,186.72,90.27L186.72,90.27L186.72,90.27z"/>
</g>
</svg>
