<svg width="843" height="93" viewBox="0 0 843 93" fill="none" xmlns="http://www.w3.org/2000/svg">
<path d="M376.238 52.103H375.962V51.9639H376.238V52.103ZM399.638 60.8116C395.28 58.7675 387.526 55.913 376.375 52.2421V52.103H376.582C379.977 53.125 383.144 53.6391 386.08 53.6391C388.833 53.6391 391.953 53.125 395.441 52.103C408.655 46.5331 415.262 38.3386 415.262 27.5254C415.262 23.3465 414.252 19.095 412.234 14.777C407.049 6.09869 399.409 1.75649 389.315 1.75649C384.038 1.75649 379.427 3.14744 375.481 5.93539C368.92 10.9489 365.639 17.4682 365.639 25.5055C365.639 31.3959 367.635 36.3187 371.627 40.2678C375.205 43.6061 379.311 45.2812 383.947 45.2812H384.428C388.236 45.2812 391.815 43.9326 395.165 41.2414C398.331 38.3144 399.913 35.091 399.913 31.5592C399.913 28.2209 398.835 25.2697 396.68 22.7176C394.339 20.3469 391.677 19.1676 388.696 19.1676C386.584 19.1676 384.543 19.7663 382.57 20.9758C380.001 23.2498 378.715 26.1526 378.715 29.6784L379.473 29.89L379.61 28.4991C380.894 25.064 383.006 23.3465 385.942 23.3465H387.181C387.915 23.3465 388.465 23.4372 388.833 23.6247C392.411 25.064 394.201 27.6161 394.201 31.281C394.201 33.4158 393.605 35.5325 392.411 37.6189C389.796 41.4712 386.769 43.4004 383.327 43.4004H382.088C381.033 43.4004 379.702 43.1888 378.097 42.7715C371.122 39.8021 367.635 34.716 367.635 27.5254C367.635 21.9979 369.125 17.19 372.108 13.1079C376.742 8.51169 382.111 6.21359 388.214 6.21359C395.096 6.21359 400.785 9.01969 405.282 14.6379C407.851 19.4216 409.136 23.6247 409.136 27.2412C409.136 33.9782 406.359 39.8263 400.808 44.7914C394.935 49.3452 388.948 51.6192 382.845 51.6192C375.32 51.6192 368.162 48.0873 361.372 41.0298C355.407 33.4642 352.425 26.3159 352.425 19.5849V18.327C352.425 17.3533 352.585 15.9624 352.906 14.1541C354.926 8.34841 357.471 5.44555 360.546 5.44555C362.932 5.63302 364.125 6.35269 364.125 7.60454V8.09441C364.125 9.48536 363.506 10.7372 362.267 11.856C364.928 10.7856 366.259 9.15879 366.259 6.9756C366.259 3.49821 363.643 1.38758 358.413 0.643723C355.705 0.643723 353.089 1.94396 350.566 4.54444C347.813 8.25768 346.437 12.3882 346.437 16.936C346.62 20.0022 347.033 22.6027 347.675 24.7375C350.107 31.5592 352.103 35.599 353.664 36.8569V36.996C351.69 35.1817 348.708 32.0248 344.717 27.5254C329.941 9.50954 316.98 0.504639 305.83 0.504639C305.478 0.504639 305.123 0.516725 304.766 0.540916C304.652 0.516725 304.538 0.504639 304.42 0.504639H2.1386C0.956931 0.504639 0 1.47225 0 2.66968C0 3.86106 0.956931 4.82869 2.1386 4.82869H293.283C289.581 7.82227 287.73 11.6504 287.73 16.3131C287.73 19.0043 288.394 21.4415 289.725 23.6247C292.478 27.5677 296.264 29.5393 301.081 29.5393H302.183C308.652 28.1967 311.887 25.4088 311.887 21.1875C311.887 20.7218 311.818 20.3046 311.681 19.9296C311.037 16.7304 308.789 15.1278 304.936 15.1278C304.752 15.1278 304.132 15.1762 303.077 15.2669V15.8898C303.077 16.0773 303.191 16.168 303.422 16.168H305.417C308.904 16.5429 310.649 17.9339 310.649 20.3469V21.8104C310.649 22.0886 310.487 22.6934 310.166 23.6247C308.193 26.6425 305.532 28.1483 302.183 28.1483H300.806C300.256 28.1483 299.636 28.0576 298.947 27.8701C294.956 26.1042 292.96 23.2981 292.96 19.4458V18.327C292.96 17.2626 293.12 16.1922 293.442 15.1278C295.873 8.76568 300.691 5.58464 307.895 5.58464C313.401 5.58464 318.563 7.67712 323.381 11.856C327.372 15.66 330.286 18.9136 332.121 21.6048C336.067 26.8481 339.668 31.2145 342.927 34.6919C348.525 40.2194 353.021 44.0052 356.417 46.0433C361.326 49.2969 366.809 52.0364 372.866 54.262C386.401 57.9268 394.546 60.4124 397.298 61.7126C405.007 64.6397 408.861 69.2117 408.861 75.4347V76.0576C408.861 79.3536 407.874 82.2564 405.902 84.7662C403.377 87.3606 400.969 88.6609 398.675 88.6609H396.68C393.421 87.5965 391.793 85.625 391.793 82.7463V81.4884C391.793 78.8456 393.261 76.7773 396.198 75.2956L396.059 76.3358C396.518 79.2629 397.849 80.7264 400.051 80.7264H401.015C403.263 79.8918 404.388 78.6339 404.388 76.9648V76.0576L404.25 75.0839C403.469 73.2273 402.14 72.296 400.258 72.296H399.776C398.905 72.296 397.825 72.5077 396.542 72.9249C392.045 75.0598 389.796 78.2166 389.796 82.3955C389.796 84.488 390.301 86.3204 391.311 87.8989C393.788 91.0981 396.611 92.7007 399.776 92.7007H400.671C401.726 92.7007 402.85 92.5434 404.043 92.2169C409.916 90.2212 412.854 86.0664 412.854 79.7527V78.5674C412.854 71.8364 408.448 65.9157 399.638 60.8116" fill="white"/>
<path d="M436.185 56.2822C427.283 48.2509 422.832 38.7803 422.832 27.8704C422.832 16.8698 422.214 16.7972 422.214 27.6588C422.214 35.5509 419.758 42.9835 414.849 49.9443C411.821 53.5184 409.756 55.5867 408.655 56.1431C408.7 56.3245 409.48 57.0502 410.995 58.3021C413.563 61.1324 415.766 64.0352 417.602 67.0046C420.768 73.5966 422.351 78.6342 422.351 82.1177H422.488L423.108 78.356C424.438 73.3909 425.677 70.0708 426.824 68.4016C427.833 65.4746 430.956 61.4348 436.185 56.2822" fill="white"/>
<path d="M469.083 52.1027H468.735V51.9632H469.083V52.1027ZM840.253 0.504154H537.977C537.809 0.504154 537.654 0.52238 537.499 0.558192C528.557 1.19966 518.51 7.49499 507.352 19.4448C499.596 28.22 494.206 34.1836 491.176 37.34H491.04L493.033 34.6912C496.616 27.8694 498.404 22.1119 498.404 17.4249V16.1677C498.404 13.6213 497.74 10.7608 496.405 7.60368C493.747 2.96511 490.462 0.643016 486.569 0.643016L485.532 0.781863C481.036 1.70731 478.795 3.72722 478.795 6.84159C478.795 8.88601 479.956 10.5553 482.303 11.8552H482.576C481.378 10.507 480.788 9.24852 480.788 8.09374C481.018 6.32766 482.092 5.44493 484.023 5.44493C485.581 5.44493 486.954 6.02546 488.152 7.18652C491.127 10.2531 492.623 14.1296 492.623 18.8165C492.623 24.9906 490.301 31.5831 485.668 38.5922C478.422 47.2762 470.648 51.6189 462.34 51.6189C457.242 51.6189 452.268 50.1311 447.406 47.1619C439.743 42.0031 435.912 35.4596 435.912 27.5245C435.912 23.5274 437.125 19.2821 439.558 14.7761C444.011 9.06758 449.743 6.21269 456.763 6.21269C461.445 6.21269 465.966 7.71867 470.325 10.7369C474.914 14.5952 477.205 19.8865 477.205 26.6179V28.1477C477.205 31.2143 476.336 34.1107 474.591 36.8563C471.287 41.2165 467.338 43.3998 462.756 43.3998H461.719C460.433 43.3998 459.154 43.0976 457.869 42.4925C453.137 39.8444 450.777 36.1551 450.777 31.4198V30.7965C450.777 30.4215 450.825 29.9559 450.915 29.3999C452.249 25.3657 454.559 23.3458 457.869 23.3458H458.763C460.135 23.3458 461.582 23.8057 463.097 24.7368C464.743 26.5029 465.575 28.22 465.575 29.8893H465.854C466.028 29.8893 466.127 29.775 466.127 29.5387C466.127 27.4038 465.618 25.3839 464.606 23.4853C462.457 20.6065 459.787 19.1671 456.627 19.1671H456.49C454.242 19.1671 452.088 19.8381 450.018 21.187C446.761 23.7875 445.135 27.1016 445.135 31.1415V31.5586C445.135 34.0202 445.888 36.3668 447.406 38.5922C451.028 43.0492 455.341 45.2808 460.346 45.2808H461.098C463.209 45.2808 465.506 44.8153 467.984 43.8898C475.46 40.1283 479.204 34.1107 479.204 25.8495V24.8763C479.204 22.088 478.608 18.9799 477.41 15.5445C472.641 6.35217 465.457 1.75569 455.869 1.75569C449.719 1.75569 444.286 3.44952 439.558 6.84159C432.995 12.1336 429.72 18.9799 429.72 27.38V27.5245C429.72 34.5342 432.541 40.4971 438.183 45.4197C444.836 50.8989 451.696 53.6388 458.763 53.6388C461.787 53.6388 465.028 53.1242 468.462 52.1027H468.599V52.2415C458.831 55.5858 452.541 57.7691 449.743 58.7913C437.95 63.9865 432.057 70.7901 432.057 79.1902C432.057 81.8868 432.679 84.415 433.916 86.7861C436.438 90.7291 439.857 92.7007 444.172 92.7007H445.272C445.684 92.7007 446.235 92.6579 446.922 92.5612C452.473 90.6142 455.248 87.2937 455.248 82.6068C455.112 81.119 454.907 80.0308 454.634 79.3347C452.659 74.6421 449.379 72.2955 444.788 72.2955H444.31C442.331 72.2955 441.07 73.7173 440.521 76.547C441.029 79.3347 442.356 80.7263 444.513 80.7263H444.926C447.496 80.1697 448.781 78.9119 448.781 76.9642V75.5732L448.643 75.2955C451.715 76.5954 453.255 78.8214 453.255 81.9779V82.2562C453.255 82.6734 453.212 83.2539 453.118 83.9978C452.013 87.1065 450.114 88.6609 447.406 88.6609H446.306C445.338 88.6609 444.214 88.3398 442.929 87.687C438.345 85.2738 436.049 81.2824 436.049 75.7127C436.049 71.1583 437.884 67.5847 441.555 64.9842C444.214 62.8073 450.066 60.4361 459.104 57.8841C467.456 55.7919 473.603 53.8688 477.546 52.1027C482.141 50.1066 486.749 47.4157 491.387 44.023C494.045 42.4505 498.336 38.5495 504.253 32.327L516.846 16.6572C523 9.27931 529.762 5.58378 537.151 5.58378C538.666 5.58378 540.572 5.86211 542.864 6.41876C549.011 9.0192 552.091 13.1495 552.091 18.8165C552.091 19.7476 551.973 20.6304 551.743 21.4654C550.185 25.9161 547.571 28.1477 543.901 28.1477H542.522C537.014 27.265 534.257 24.8763 534.257 20.9753C534.257 20.6065 534.394 19.8865 534.68 18.8165C535.642 17.0505 537.288 16.1677 539.635 16.1677H541.765L541.901 15.4056V15.2662C541.721 15.2662 541.169 15.2178 540.25 15.1273C539.653 15.1273 538.666 15.2178 537.288 15.4056C534.537 16.4272 533.158 18.2844 533.158 20.9753V21.4654C533.158 22.578 533.456 23.6241 534.059 24.598C536.487 27.8939 539.771 29.5387 543.901 29.5387C545.366 29.5387 547.223 29.1938 549.471 28.4983C554.562 25.989 557.108 22.203 557.108 17.1472V15.6833C557.108 11.6253 555.332 8.00893 551.787 4.82796H840.253C841.439 4.82796 842.396 3.86042 842.396 2.66921C842.396 1.47171 841.439 0.504154 840.253 0.504154" fill="white"/>
</svg>
