<svg xmlns="http://www.w3.org/2000/svg" xmlns:xlink="http://www.w3.org/1999/xlink" viewBox="0 0 283.46 283.46"><defs><style>.cls-1{isolation:isolate;}.cls-2{fill:#250024;}.cls-3{fill:#f5edf4;}.cls-4{fill:#e3dce2;}.cls-5{fill:#231f23;}.cls-6{fill:#fd8888;}.cls-7{fill:#d2cbd1;}.cls-8{fill:#f7f4f6;}.cls-9{fill:#cdc6cc;}.cls-10,.cls-24{mix-blend-mode:soft-light;}.cls-10{fill:url(#linear-gradient);}.cls-11{fill:#dc7317;}.cls-12{fill:#c05b08;}.cls-13{fill:#ae4b01;}.cls-14{fill:#f99456;}.cls-15{fill:#512c15;}.cls-16{fill:#c03d3d;}.cls-17{fill:#f09829;}.cls-18{fill:#7b4972;}.cls-19{fill:#5bad5c;}.cls-20{fill:#67a8af;}.cls-21{fill:#b66aa6;}.cls-22{fill:#783101;}.cls-23{fill:#491b00;}.cls-24{fill:url(#linear-gradient-2);}.cls-25{fill:#f0b924;}</style><linearGradient id="linear-gradient" x1="195.85" y1="16.57" x2="118.13" y2="239.36" gradientUnits="userSpaceOnUse"><stop offset="0" stop-color="#ffc44e"/><stop offset="1" stop-color="#00378e"/></linearGradient><linearGradient id="linear-gradient-2" x1="148.33" y1="148.39" x2="148.33" y2="237.2" xlink:href="#linear-gradient"/></defs><g class="cls-1"><g id="Слой_1" data-name="Слой 1"><path class="cls-2" d="M155.69,63.24A78.69,78.69,0,0,0,105.3,88.31c-11.23,12.22-18.54,27.74-29.18,40.51-5.74,6.89-12.39,12.91-18.12,19.79s-10.64,14.91-11.93,23.9,1.69,19,9,24.1c7,4.85,16.31,4.29,24.37,1.78s15.56-6.77,23.72-8.91a49,49,0,0,1,41.92,8.67c6.89,5.34,12.64,12.66,20.75,15.67,8.29,3.08,17.6,1,25.69-2.6,23.43-10.5,40.62-34.61,43.37-60.86A78.59,78.59,0,0,0,221.11,98c-9.11-13.08-16.72-24.48-31.84-30.1A76.92,76.92,0,0,0,155.69,63.24Z"/><path class="cls-3" d="M200.71,222.53c-1.24,3.61-2.69,7.31-5.46,9.86s-7.2,3.54-10.18,1.27c-1.87-1.43-2.79-3.77-4-5.79a9.14,9.14,0,0,0-2.74-2.86,4.08,4.08,0,0,0-2.89-.62c-3.83.72-4.32,6.73-6.92,9.39a4,4,0,0,1-2.12,1.18c-2.61.49-4.74-2-6.07-4.41,0,0,0,0,0,0s-.16-.28-.23-.42c-1.3-2.57-2.8-5.59-5.57-6.11-4.76-.89-6.95,6.07-10.86,9a6.08,6.08,0,0,1-2.67,1.22,5.69,5.69,0,0,1-4-.86c-4.75-2.83-8.19-11.09-13.7-9.65-2.73.72-4.27,3.59-5.84,6-.07.11-.16.22-.23.34-1.58,2.29-4.06,4.44-6.62,3.61-3.09-1-3.92-5.7-7-6.68-1.9-.6-3.89.45-5.52,1.62-7.76,5.6-9.21,1-10.65-6.06-1.88-9.23-5-18.07-6.51-27.44a189.82,189.82,0,0,1-.43-57.55,182.31,182.31,0,0,1,7.62-32c6.25-18.56,15.87-36.56,31-48.52a59.44,59.44,0,0,1,11.81-7.27c10.53-4.93,22.41-6.73,33.39-4.1a40.63,40.63,0,0,1,8.43,3c11.11,5.42,19.48,15.7,24.82,27.12s7.9,24,9.78,36.56C212.78,149.15,212.69,187.51,200.71,222.53Z"/><path class="cls-4" d="M117.84,113.29c-10.37,35-5.91,74.35,12,105.87,2.62,4.6,5.57,9.2,7.12,14.22-4.75-2.83-8.19-11.09-13.7-9.65-2.73.72-4.27,3.59-5.84,6-.07.11-.16.22-.23.34-1.58,2.29-4.06,4.44-6.62,3.61-3.09-1-3.92-5.7-7-6.68-1.9-.6-3.89.45-5.52,1.62-7.76,5.6-9.21,1-10.65-6.06-1.88-9.23-5-18.07-6.51-27.44a189.82,189.82,0,0,1-.43-57.55,182.31,182.31,0,0,1,7.62-32c6.25-18.56,15.87-36.56,31-48.52a59.44,59.44,0,0,1,11.81-7.27c10.53-4.93,22.41-6.73,33.39-4.1A134.26,134.26,0,0,0,117.84,113.29Z"/><path class="cls-4" d="M160.28,230.53c-.08-.14-.16-.28-.23-.42-1.3-2.57-2.8-5.59-5.57-6.11-4.76-.89-6.95,6.07-10.86,9A170.29,170.29,0,0,0,135.36,190,86.31,86.31,0,0,1,160.28,230.53Z"/><path class="cls-4" d="M178.29,225a4.08,4.08,0,0,0-2.89-.62c-3.83.72-4.32,6.73-6.92,9.39a133.68,133.68,0,0,0-5.36-39.73A169.87,169.87,0,0,1,178.29,225Z"/><path class="cls-5" d="M123.14,93.12a6.79,6.79,0,0,0,2.15,7.53,6.26,6.26,0,0,0,7.59-.2,6.77,6.77,0,0,0,1.79-7.62A6.26,6.26,0,0,0,123.14,93.12Z"/><path class="cls-5" d="M159.36,93.55a6.77,6.77,0,0,0,2.15,7.53,6.26,6.26,0,0,0,7.59-.19,6.79,6.79,0,0,0,1.79-7.63A6.26,6.26,0,0,0,159.36,93.55Z"/><path class="cls-5" d="M154.45,97a1.46,1.46,0,0,0-1.81-.24,2.12,2.12,0,0,0-.9,1.46c-.08.35-.18.7-.29,1a.45.45,0,0,0,0,.11s0,0-.06.1-.15.29-.24.44l-.22.34s-.19.24-.2.24a3.81,3.81,0,0,1-.33.36s-.21.17-.23.2l-.32.21-.27.15-.09,0-.32.11c-.17.06-.34.09-.52.14l-.09,0h-.11l-.46,0-.46,0h-.1l-.11,0-.44-.11-.28-.1a3.16,3.16,0,0,1-1.33-1,4.47,4.47,0,0,1-1-3,1.2,1.2,0,0,0-1-1.21,1.18,1.18,0,0,0-1.3.88,6.85,6.85,0,0,0,1.14,5.08,6.47,6.47,0,0,0,4.76,2.68A6.56,6.56,0,0,0,152.9,103a7.11,7.11,0,0,0,1.61-2.52C154.94,99.36,155.33,97.94,154.45,97Z"/><path class="cls-6" d="M165.08,107.61c-1.69.83-3.35,2.31-3.39,4.24a4.29,4.29,0,0,0,1.59,3.24,10,10,0,0,0,3.22,1.71,14.85,14.85,0,0,0,6.72,1.09c4.34-.52,8.46-5.9,4.66-9.88C175.06,105.05,168.23,106.05,165.08,107.61Z"/><path class="cls-6" d="M123.42,107.61c-1.69.83-3.35,2.31-3.4,4.24a4.33,4.33,0,0,0,1.59,3.24,10,10,0,0,0,3.23,1.71,14.81,14.81,0,0,0,6.71,1.09c4.35-.52,8.47-5.9,4.67-9.88C133.4,105.05,126.57,106.05,123.42,107.61Z"/><path class="cls-7" d="M91.62,118.25c-8.63,33.81-4.85,70.91,10.68,102A114.45,114.45,0,0,1,97,155.86a127.28,127.28,0,0,0,18.64,71.7c.51.84,1,1.67,1.57,2.52-1.58,2.29-4.06,4.44-6.62,3.61-3.09-1-3.92-5.7-7-6.68-1.9-.6-3.89.45-5.52,1.62-7.76,5.6-9.21,1-10.65-6.06-1.88-9.23-5-18.07-6.51-27.44a189.82,189.82,0,0,1-.43-57.55,182.31,182.31,0,0,1,7.62-32c6.25-18.56,15.87-36.56,31-48.52a59.44,59.44,0,0,1,11.81-7.27A148.63,148.63,0,0,0,91.62,118.25Z"/><path class="cls-8" d="M199.75,105.19a106.67,106.67,0,0,1-4.33,57.22c5.43-40-7.43-82.2-34-111.75,4.52,1.65,10.16,2.75,14,5.83,4.22,3.37,7.52,9.06,10.38,13.63A105.24,105.24,0,0,1,199.75,105.19Z"/><path class="cls-4" d="M119.13,171.26a12.57,12.57,0,0,0,4.73,3,6,6,0,0,0,5.32-.77,4.34,4.34,0,0,0,1.37-5.11c-1-2-3.5-2.54-5.6-3.21A20,20,0,0,1,114,156.54a21.14,21.14,0,0,1-2.85-13.85c-.36,2.55-1.19,4.7-1.18,7.4a29.21,29.21,0,0,0,1.09,7.84A28.59,28.59,0,0,0,119.13,171.26Z"/><path class="cls-9" d="M115.09,166.94c1.91,3,4.42,5.79,7.67,7.08,5,2,9.25-1.05,9.48-6.55a9.36,9.36,0,0,0-2.65-6.87,9.88,9.88,0,0,1,1.33,6.11c-.19,1.74-1,4.6-2.63,5.5a5.37,5.37,0,0,1-5.11-.56c-1.31-.93-2.76-1.76-4-2.82a24,24,0,0,1-7.23-12.28c-1.24-4.7-1.39-9.53-1.48-14.37C109.15,150.84,110.38,159.51,115.09,166.94Z"/><path class="cls-8" d="M127.13,163.06c.63.41,1.52.76,2.07.24a1.34,1.34,0,0,0,.14-1.51,4.11,4.11,0,0,0-1.06-1.18,27.39,27.39,0,0,1-6.31-8.2,27.72,27.72,0,0,1-1.86-4.67c-.44-1.47-.44-3.76-1.39-5-2.06-2.63-3,2.14-2.91,3.6.24,3.15,2,6.49,3.68,9.07A25.53,25.53,0,0,0,127.13,163.06Z"/><path class="cls-4" d="M179.44,171.26a12.57,12.57,0,0,1-4.73,3,6,6,0,0,1-5.32-.77,4.34,4.34,0,0,1-1.37-5.11c1-2,3.49-2.54,5.6-3.21a20,20,0,0,0,10.91-8.58,21.14,21.14,0,0,0,2.85-13.85c.36,2.55,1.19,4.7,1.18,7.4a29.21,29.21,0,0,1-1.09,7.84A28.59,28.59,0,0,1,179.44,171.26Z"/><path class="cls-9" d="M183.48,166.94c-1.91,3-4.42,5.79-7.67,7.08-5,2-9.25-1.05-9.48-6.55A9.36,9.36,0,0,1,169,160.6a9.82,9.82,0,0,0-1.33,6.11c.19,1.74,1,4.6,2.63,5.5a5.37,5.37,0,0,0,5.11-.56c1.31-.93,2.76-1.76,4-2.82a24,24,0,0,0,7.23-12.28c1.24-4.7,1.39-9.53,1.48-14.37C189.42,150.84,188.19,159.51,183.48,166.94Z"/><path class="cls-8" d="M171.44,163.06c-.63.41-1.52.76-2.07.24a1.34,1.34,0,0,1-.14-1.51,4.11,4.11,0,0,1,1.06-1.18,27.39,27.39,0,0,0,6.31-8.2,27.72,27.72,0,0,0,1.86-4.67c.44-1.47.44-3.76,1.39-5,2.06-2.63,3,2.14,2.91,3.6-.24,3.15-2,6.49-3.68,9.07A25.53,25.53,0,0,1,171.44,163.06Z"/><path class="cls-10" d="M207.29,112.44c-1.88-12.54-4.44-25.12-9.78-36.56s-13.71-21.7-24.82-27.12a40.63,40.63,0,0,0-8.43-3c-11-2.63-22.86-.83-33.39,4.1a59.44,59.44,0,0,0-11.81,7.27c-15.1,12-24.72,30-31,48.52a182.31,182.31,0,0,0-7.62,32,189.82,189.82,0,0,0,.43,57.55c1.52,9.37,4.63,18.21,6.51,27.44,1.44,7.07,2.89,11.66,10.65,6.06,1.63-1.17,3.62-2.22,5.52-1.62,3.1,1,3.93,5.67,7,6.68,2.56.83,5-1.32,6.62-3.61.07-.12.16-.23.23-.34,1.57-2.42,3.11-5.29,5.84-6,5.51-1.44,9,6.82,13.7,9.65a5.69,5.69,0,0,0,4,.86,6.08,6.08,0,0,0,2.67-1.22c3.91-3,6.1-9.91,10.86-9,2.77.52,4.27,3.54,5.57,6.11.07.14.15.28.23.42s0,0,0,0c1.33,2.44,3.46,4.9,6.07,4.41a4,4,0,0,0,2.12-1.18c2.6-2.66,3.09-8.67,6.92-9.39a4.08,4.08,0,0,1,2.89.62,9.14,9.14,0,0,1,2.74,2.86c1.25,2,2.17,4.36,4,5.79,3,2.27,7.42,1.27,10.18-1.27s4.22-6.25,5.46-9.86C212.69,187.51,212.78,149.15,207.29,112.44Z"/><path class="cls-11" d="M185.65,198.54a17.55,17.55,0,0,1-.78,3.62c-.85,2.55-.74,5.26-1.58,7.84a20.77,20.77,0,0,1-1.85,4.11,19.1,19.1,0,0,1-9.24,8.21c-2.74,1.1-5.73,1.53-8.42,2.78-2.15,1-4.06,2.5-6.13,3.69a19.45,19.45,0,0,1-19.5-.18,66.47,66.47,0,0,0-5.78-3.56c-2.5-1.12-5.28-1.39-7.84-2.33a16.9,16.9,0,0,1-10-10.73c-.84-2.66-.94-5.58-1.48-8.33-.66-3.33-1.41-6.66-1.85-10-.43-3.15-.82-6.54.56-9.38a8.4,8.4,0,0,1,1.53-2.2,12.44,12.44,0,0,1,3.64-2.51,28.35,28.35,0,0,1,5.48-1.8,124.59,124.59,0,0,1,13.94-2.41c6.14-.69,12.78-1.41,18.9-.58s12.32.15,18.33,1.61a16.79,16.79,0,0,1,7.36,3.58l.39.36c2.87,2.81,3.77,7.41,4.23,11.35A29.92,29.92,0,0,1,185.65,198.54Z"/><path class="cls-12" d="M185.65,198.54a17.55,17.55,0,0,1-.78,3.62c-.85,2.55-.74,5.26-1.58,7.84a20.77,20.77,0,0,1-1.85,4.11,19.1,19.1,0,0,1-9.24,8.21c-2.74,1.1-5.73,1.53-8.42,2.78-2.15,1-4.06,2.5-6.13,3.69a19.45,19.45,0,0,1-19.5-.18,66.47,66.47,0,0,0-5.78-3.56c-2.5-1.12-5.28-1.39-7.84-2.33a16.9,16.9,0,0,1-10-10.73c-.84-2.66-.94-5.58-1.48-8.33-.66-3.33-1.41-6.66-1.85-10-.43-3.15-.82-6.54.56-9.38a8.4,8.4,0,0,1,1.53-2.2,12.44,12.44,0,0,1,3.64-2.51,21,21,0,0,0-1.55,8.83c1.61-2.32,4.79-2.64,7.56-2.76l44.92-1.84c-7.31.4-14.71.82-21.71,3s-13.69,6.43-17.48,12.91-4.12,15.4.43,21.32a31.86,31.86,0,0,1-.51-19.32,46.88,46.88,0,0,0,4.49,16.91l0-12.18q3,8.43,6,16.89.44-12.92.88-25.82a104.17,104.17,0,0,1,4.58,28.83,49,49,0,0,0,7.9-17.73c-.5,5.37-1,10.74-1.5,16.12l9.42-15L155.51,224a74,74,0,0,0,15.58-31.46A46.53,46.53,0,0,1,164.7,219,61.88,61.88,0,0,0,185.65,198.54Z"/><path class="cls-13" d="M123.3,206.47c0-.21-.12-.41-.16-.61a21.59,21.59,0,0,1,1.47-7.66C124.18,201,123.73,203.71,123.3,206.47Z"/><path class="cls-13" d="M141.52,221.79c-.05-.57-.09-1.15-.11-1.71A3.44,3.44,0,0,1,141.52,221.79Z"/><path class="cls-13" d="M182.61,208.17a34.11,34.11,0,0,1-1.17,5.94,19.1,19.1,0,0,1-9.24,8.21c-2.74,1.1-5.73,1.53-8.42,2.78-2.15,1-4.06,2.5-6.13,3.69a19.45,19.45,0,0,1-19.5-.18,66.47,66.47,0,0,0-5.78-3.56c-2.5-1.12-5.28-1.39-7.84-2.33a16.9,16.9,0,0,1-10-10.73c-.84-2.66-.94-5.58-1.48-8.33-.66-3.33-1.41-6.66-1.85-10-.43-3.15-.82-6.54.56-9.38a8.4,8.4,0,0,1,1.53-2.2,45.78,45.78,0,0,0,8.85,32,30.29,30.29,0,0,1,.56-23.4,33.93,33.93,0,0,0,.41,15.2,23,23,0,0,0,6.75,16.81c2,1.9,4.54,3.45,7.22,3.18a5.21,5.21,0,0,0,4.41-4.06c.26,2.77,1,5.58,3.23,6.87,2,1.13,4.42.64,6.51-.17a26,26,0,0,0,12.48-10.26c-.52,1.65-1,3.3-1.53,5A46.63,46.63,0,0,0,182.61,208.17Z"/><path class="cls-14" d="M118,180.45a5.78,5.78,0,0,0-2,1,2.14,2.14,0,0,0-.8,2c.29,1.21,1.73,1.59,2.93,1.75q9.74,1.26,19.56,1.61,10.44.39,20.87-.25,5.22-.31,10.41-.88c3.23-.36,6.56-.57,9.63-1.77.74-.29,1.55-.73,1.73-1.53a1.85,1.85,0,0,0-.74-1.76,5,5,0,0,0-1.79-.79,90.8,90.8,0,0,0-10.61-2.94,105.7,105.7,0,0,0-35.86.26A103.72,103.72,0,0,0,118,180.45Z"/><path class="cls-15" d="M173.06,181.92c-.13.49-.76.75-1.34.93a23.08,23.08,0,0,1-4,.75l-.4,0c-1,.11-2.07.18-3.1.27-.88.07-1.76.14-2.65.19s-2.06.16-3.08.2a.2.2,0,0,1-.17,0c-.74.06-1.47.1-2.21.13-2.1.1-4.21.16-6.31.2l-1.44,0q-2.31,0-4.62,0c-1.29,0-2.59,0-3.9-.08h-.11c-1,0-2-.06-2.93-.11-.51,0-1,0-1.52-.08-3.33-.15-6.65-.4-10-.72l-.73-.06c-.93-.09-2.06-.32-2.28-1.05a1.14,1.14,0,0,1,.62-1.22,5.05,5.05,0,0,1,1.58-.58l.13,0c1.19-.28,2.37-.55,3.57-.79h0c.84-.18,1.68-.35,2.53-.49,1.37-.26,2.75-.47,4.14-.67l1.2-.16c1.33-.16,2.66-.3,4-.41l.76-.07c1.4-.12,2.8-.2,4.2-.26,1.23,0,2.47-.08,3.7-.09h1.86c1,0,2,0,3,.07h.08l1,.06c.3,0,.6,0,.9,0q2,.09,4,.3c.91.08,1.81.17,2.71.29l.56.06c.39.06.79.11,1.18.18,2.14.35,4.22.91,6.33,1.4l.77.18a5.07,5.07,0,0,1,1.39.48A1,1,0,0,1,173.06,181.92Z"/><path class="cls-16" d="M157.64,179.7a7.45,7.45,0,0,1-5.36,0c-1.45-.56-2.95-1.58-3-3.38a2.57,2.57,0,0,1,1.65-2.36,8.66,8.66,0,0,1,6.41,0,4.93,4.93,0,0,1,1.92,1.36,2.79,2.79,0,0,1,.59,2.27A3.41,3.41,0,0,1,157.64,179.7Z"/><path class="cls-17" d="M144.72,178.18a7.5,7.5,0,0,1-5,1.9c-1.55,0-3.3-.4-3.93-2.07a2.67,2.67,0,0,1,.74-2.82,8.81,8.81,0,0,1,6-2.37,4.57,4.57,0,0,1,2.26.57,2.72,2.72,0,0,1,1.33,1.91A3.53,3.53,0,0,1,144.72,178.18Z"/><path class="cls-18" d="M150.14,183.64a2.35,2.35,0,0,1-.35,1,2.54,2.54,0,0,1-.37.51l-.78-.34-.29-.14q-2.31,0-4.62,0c-1.29,0-2.59,0-3.9-.08h-.11a3,3,0,0,1-.22-.77,2.51,2.51,0,0,1,1.16-2.43l.18-.13a7.84,7.84,0,0,1,3.49-1.09,8,8,0,0,1,2.87.2,4.61,4.61,0,0,1,1.83.9,1.06,1.06,0,0,1,.24.19l.06.07A2.72,2.72,0,0,1,150.14,183.64Z"/><path class="cls-18" d="M170.33,180.21a4.25,4.25,0,0,1-1.16,2.06,6.88,6.88,0,0,1-1.38,1.1,3.26,3.26,0,0,1-.48.27c-1,.11-2.07.18-3.1.27-.88.07-1.76.14-2.65.19a2.77,2.77,0,0,1-1.34-1.38c-.05-.11-.08-.22-.12-.31a2.75,2.75,0,0,1,.67-2.54,6.81,6.81,0,0,1,.81-.8,8.64,8.64,0,0,1,1.22-.83,8.67,8.67,0,0,1,3.78-1.16,4.58,4.58,0,0,1,2.31.41,2.74,2.74,0,0,1,1.44,1.81A2.53,2.53,0,0,1,170.33,180.21Z"/><path class="cls-17" d="M155,177.65a5,5,0,0,1,4.44-.67,5.35,5.35,0,0,1-.74-3.23c0-.49.22-1.05.67-1.21s1.08.29,1.21.84a3.15,3.15,0,0,1-.24,1.65,7.35,7.35,0,0,1,2.17-3.75,8.45,8.45,0,0,0-.15,1.16c-.08.57-.09,1.16-.14,1.74a5.77,5.77,0,0,1,2.62-2.27,16.23,16.23,0,0,1-1.54,3.55,3.32,3.32,0,0,1,.68-.67,1.09,1.09,0,0,1,.9-.19.72.72,0,0,1,.53.71,1.12,1.12,0,0,1-.12.35c-.63,1.28-2.24,1.86-3.43,2.41a4.43,4.43,0,0,1,2.52,1.05,2,2,0,0,1,.73,2.29,2.27,2.27,0,0,1-1.9.87,36.42,36.42,0,0,1-8.41-.28c-.93-.14-2-.24-1.77-1.48A5.06,5.06,0,0,1,155,177.65Z"/><path class="cls-16" d="M129.54,177.43a5,5,0,0,1,4.25-1.5,5.29,5.29,0,0,1-1.3-3,1.38,1.38,0,0,1,.45-1.33,1,1,0,0,1,1.33.6,3.18,3.18,0,0,1,.06,1.68,7.49,7.49,0,0,1,1.47-4.11,7,7,0,0,0,.06,1.17c0,.58.11,1.16.17,1.74a5.78,5.78,0,0,1,2.17-2.72,16.16,16.16,0,0,1-.88,3.77,3.06,3.06,0,0,1,.55-.78,1.07,1.07,0,0,1,.84-.36.71.71,0,0,1,.65.6,1.12,1.12,0,0,1-.05.36c-.4,1.39-1.87,2.25-2.95,3a4.28,4.28,0,0,1,2.66.55,2,2,0,0,1,1.13,2.12,2.28,2.28,0,0,1-1.72,1.2,35.48,35.48,0,0,1-8.31,1.32c-1,0-2,.16-2-1.11A5.07,5.07,0,0,1,129.54,177.43Z"/><path class="cls-19" d="M141.74,177.2a5,5,0,0,1,4.4-.88,5.33,5.33,0,0,1-.87-3.19,1.36,1.36,0,0,1,.61-1.25,1,1,0,0,1,1.24.79,3.06,3.06,0,0,1-.16,1.66,7.5,7.5,0,0,1,2-3.85,6.71,6.71,0,0,0-.09,1.17c-.06.57-.05,1.16-.07,1.74a5.73,5.73,0,0,1,2.52-2.38,16.61,16.61,0,0,1-1.38,3.61,3.09,3.09,0,0,1,.65-.7,1.09,1.09,0,0,1,.88-.23.71.71,0,0,1,.56.69.83.83,0,0,1-.1.34c-.58,1.32-2.15,2-3.32,2.58a4.29,4.29,0,0,1,2.56.93,2,2,0,0,1,.83,2.26,2.23,2.23,0,0,1-1.86.94,35.85,35.85,0,0,1-8.41.12c-.94-.1-2-.14-1.83-1.39A5,5,0,0,1,141.74,177.2Z"/><path class="cls-20" d="M158.55,184.52a1.17,1.17,0,0,1-.24-.21c-.74.06-1.47.1-2.21.13-2.1.1-4.21.16-6.31.2a2.54,2.54,0,0,1-.37.51l-.78-.34-.29-.14a2.08,2.08,0,0,1-1.25-1.31,1.78,1.78,0,0,1,1-1.71,1.88,1.88,0,0,1,.42-.22,3.13,3.13,0,0,1,.52-.16,4.07,4.07,0,0,1,2,0l.18,0-.07-.07c-1-.9-2.23-2-2.44-3.36,0,0,0,0,0-.05a.76.76,0,0,1,0-.3.62.62,0,0,1,.07-.19,1,1,0,0,1,.18-.18.68.68,0,0,1,.21-.1.57.57,0,0,1,.22,0h0a1.15,1.15,0,0,1,.78.47,1.66,1.66,0,0,1,.19.3l0,.05c.08.17.16.35.23.52,0-.16-.06-.32-.08-.48,0,0,0,0,0,0a11.76,11.76,0,0,1-.2-1.45,17.15,17.15,0,0,1-.07-1.9,5.91,5.91,0,0,1,1,1.18,6,6,0,0,1,.79,1.84c.13-.56.3-1.13.4-1.7a9.19,9.19,0,0,0,.23-1.14,7.28,7.28,0,0,1,.9,3.24,2.26,2.26,0,0,1,0,.26,2.34,2.34,0,0,1,0-.26,1.91,1.91,0,0,1,.22-.62,1,1,0,0,1,1.4-.4.83.83,0,0,1,.27.48,1.58,1.58,0,0,1,0,.65,1.87,1.87,0,0,1,0,.25,5.29,5.29,0,0,1-1.7,2.82,5,5,0,0,1,3.16,1.2,1.6,1.6,0,0,1,.27.25,4,4,0,0,1,.57.66,5.67,5.67,0,0,1,.63,1.14C158.5,184.37,158.53,184.44,158.55,184.52Z"/><path class="cls-20" d="M136.79,184.48c-.51,0-1,0-1.52-.08-3.33-.15-6.65-.4-10-.72l0-.05a4.4,4.4,0,0,1,2.46-1.2,8.43,8.43,0,0,1-3.19-1.7,2.78,2.78,0,0,1-.37-.51,1,1,0,0,1-.13-.33.73.73,0,0,1,.48-.75,1.13,1.13,0,0,1,.91.14,3,3,0,0,1,.71.63,17.13,17.13,0,0,1-1.73-3.45,5.66,5.66,0,0,1,2.75,2.11c-.09-.58-.13-1.17-.24-1.73a7.45,7.45,0,0,0-.21-1.15,7.09,7.09,0,0,1,2,2.69,1.75,1.75,0,0,1,.11.24c0-.1-.05-.2-.08-.3a1.78,1.78,0,0,1,0-.65c.1-.56.64-1.07,1.16-.91a.56.56,0,0,1,.2.11,1.56,1.56,0,0,1,.53,1.07,5.87,5.87,0,0,1,0,1.51,5.27,5.27,0,0,1-.57,1.76,4.93,4.93,0,0,1,4,.14,4.45,4.45,0,0,1,.48.26,5.38,5.38,0,0,1,2.12,2.76A.43.43,0,0,1,136.79,184.48Z"/><path class="cls-21" d="M144.47,183.7a4.37,4.37,0,0,1-.74,1c-1.29,0-2.59,0-3.9-.08h-.11c-1,0-2-.06-2.93-.11-.51,0-1,0-1.52-.08a3.19,3.19,0,0,1,.13-2.07.3.3,0,0,1,0-.08,4,4,0,0,1,.94-1.31h0a5.23,5.23,0,0,1,1.42-.94l.23-.11a18.06,18.06,0,0,1,2.14-.84l.09,0a4.23,4.23,0,0,1,2.33-.16,2.69,2.69,0,0,1,.69.31,3.08,3.08,0,0,1,1,1,3.12,3.12,0,0,1,.55,1.56A3.31,3.31,0,0,1,144.47,183.7Z"/><path class="cls-16" d="M167.82,183.27l0,.1a.7.7,0,0,1-.08.23l-.4,0c-1,.11-2.07.18-3.1.27-.88.07-1.76.14-2.65.19s-2.06.16-3.08.2c0,.07.05.14.07.22a1.17,1.17,0,0,1-.24-.21,2.94,2.94,0,0,1-1-1.81,1.66,1.66,0,0,1,0-.22,1.77,1.77,0,0,1,0-.23,2.6,2.6,0,0,1,1.65-2.37,7.42,7.42,0,0,1,2.69-.61,8.78,8.78,0,0,1,3.17.39h0a3.42,3.42,0,0,1,.54.18,4.76,4.76,0,0,1,1.93,1.36A2.84,2.84,0,0,1,167.82,183.27Z"/><path class="cls-22" d="M136.55,203.16c-3.41,1.49-7.82.21-10.38-2.36a10.82,10.82,0,0,1-3-8.82l3.33,1.13a10.7,10.7,0,0,0,3,7.06A10.48,10.48,0,0,0,136.55,203.16Z"/><path class="cls-23" d="M137.83,202.44a6.75,6.75,0,0,1-1.28.72,10.48,10.48,0,0,1-7-3,10.7,10.7,0,0,1-3-7.06L132,195C134.46,195.81,142.89,198.77,137.83,202.44Z"/><path class="cls-22" d="M164.35,203.16c3.4,1.49,7.81.21,10.37-2.36a10.82,10.82,0,0,0,2.95-8.82l-3.33,1.13a10.7,10.7,0,0,1-3,7.06A10.48,10.48,0,0,1,164.35,203.16Z"/><path class="cls-23" d="M163.06,202.44a6.83,6.83,0,0,0,1.29.72,10.48,10.48,0,0,0,7-3,10.7,10.7,0,0,0,3-7.06l-5.4,1.84C166.43,195.81,158,198.77,163.06,202.44Z"/><path class="cls-22" d="M154.61,204.07a2.15,2.15,0,0,1-1.51.57c-1.59.11-5.47.47-5.78-1.84a2.91,2.91,0,0,1,.32-1.64c.88,1.62,4.15,1.32,5.57,1.21a2.24,2.24,0,0,0,1.42-.46,3.07,3.07,0,0,1,.27.79A1.66,1.66,0,0,1,154.61,204.07Z"/><path class="cls-23" d="M154.63,201.91a2.24,2.24,0,0,1-1.42.46c-1.42.11-4.69.41-5.57-1.21.72-1.52,2.44-2.9,3.8-2.71s2.26,1.63,2.92,2.91A5.6,5.6,0,0,1,154.63,201.91Z"/><path class="cls-22" d="M178.41,205.34c-.51,1.13-1,2.24-1.55,3.37L175,212.8c-.8,1.73-2,3.72-3.86,3.64-1.65-.08-2.77-1.86-4.35-2.41-2-.67-4,.69-5.63,2s-3.5,2.84-5.55,2.43c-1.81-.37-3.2-2.19-5.06-2.28-1.55-.06-2.87,1.14-4,2.21s-2.65,2.13-4.18,1.76c-1.32-.34-2.14-1.6-3-2.7s-2-2.21-3.32-2-2.46,2.1-3.95,2a3.48,3.48,0,0,1-2.16-1.33l-4-4.09a9.16,9.16,0,0,1-2.11-2.84,3.42,3.42,0,0,1,.74-3.51,1.79,1.79,0,0,1,2.24-.1c1.66,1,1.49,3.65,3.46,4.67a4.29,4.29,0,0,0,4.58-.51c.94-.77,1.69-2,2.89-2.11a3.11,3.11,0,0,1,2.42,1.46,7.56,7.56,0,0,0,2,2.15c1.64.9,3.62-.14,5.18-1.19s3.44-2.19,5.17-1.48c1.4.59,2.28,2.29,3.78,2.48,2.4.3,3.81-3.42,6.23-3.39,1.17,0,2.12.94,3.22,1.35,2.12.83,4.46-.25,6.41-1.43S176.16,205.11,178.41,205.34Z"/><path class="cls-23" d="M178.41,205.34c-.51,1.13-1,2.24-1.55,3.37-2.43,2.06-5.17,3.87-8.21,3.55-2.13-.23-4.22-1.5-6.27-.87-2.41.76-3.9,4-6.42,3.82-2.11-.16-3.46-2.73-5.56-2.91-1.46-.13-2.74.95-3.92,1.85s-2.76,1.71-4.07,1c-1.14-.6-1.61-2.12-2.74-2.76-1.48-.86-3.27.17-4.91.67a7.88,7.88,0,0,1-7.2-1.43,8.48,8.48,0,0,1-3-5.88,1.79,1.79,0,0,1,2.24-.1c1.66,1,1.49,3.65,3.46,4.67a4.29,4.29,0,0,0,4.58-.51c.94-.77,1.69-2,2.89-2.11a3.11,3.11,0,0,1,2.42,1.46,7.56,7.56,0,0,0,2,2.15c1.64.9,3.62-.14,5.18-1.19s3.44-2.19,5.17-1.48c1.4.59,2.28,2.29,3.78,2.48,2.4.3,3.81-3.42,6.23-3.39,1.17,0,2.12.94,3.22,1.35,2.12.83,4.46-.25,6.41-1.43S176.16,205.11,178.41,205.34Z"/><path class="cls-23" d="M119.92,172.34l-1.64-1.81c0-.06-2,2.81-2.14,3.09a21.21,21.21,0,0,0-1.59,3.58,24.73,24.73,0,0,0-1.26,7.79c0,.67-.21,2.88.57,3.22.57.24.85-.73,1-1.14.77-2.2.53-4.57,1-6.82A17.25,17.25,0,0,1,119.92,172.34Z"/><path class="cls-23" d="M177.59,173.08l2.14-1.93a16.56,16.56,0,0,1,1.53,11.46,6,6,0,0,1-1.62,3.27c-.78.62-1.17,0-1.31-.85a10.12,10.12,0,0,1,.47-3.36,14.58,14.58,0,0,0,.1-4.12A14.21,14.21,0,0,0,177.59,173.08Z"/><path class="cls-23" d="M166.82,163.52a53.84,53.84,0,0,0-14.24-2.73,20.24,20.24,0,0,0-3-.14l-3.65.34c-2.42.25-4.83.57-7.22,1-.63.13-6.87,1.48-6.81,1.84.16,1,.33,2,.49,3a62,62,0,0,1,33.95-1.1C166.48,165.05,166.65,164.28,166.82,163.52Z"/><path class="cls-24" d="M185.65,198.54a17.55,17.55,0,0,1-.78,3.62c-.85,2.55-.74,5.26-1.58,7.84a20.77,20.77,0,0,1-1.85,4.11,19.1,19.1,0,0,1-9.24,8.21c-2.74,1.1-5.73,1.53-8.42,2.78-2.15,1-4.06,2.5-6.13,3.69a19.45,19.45,0,0,1-19.5-.18,66.47,66.47,0,0,0-5.78-3.56c-2.5-1.12-5.28-1.39-7.84-2.33a16.9,16.9,0,0,1-10-10.73c-.84-2.66-.94-5.58-1.48-8.33-.66-3.33-1.41-6.66-1.85-10-.43-3.15-.82-6.54.56-9.38a8.4,8.4,0,0,1,1.53-2.2l.19-.17a24,24,0,0,1,1-4.68,21.21,21.21,0,0,1,1.59-3.58c.15-.28,2.09-3.15,2.14-3.09l1.64,1.81a17.31,17.31,0,0,0-4,7.75c.34-.19.69-.38,1-.55a28.35,28.35,0,0,1,5.48-1.8l2.39-.52c-.11-.25-.23-.5-.33-.76a5.39,5.39,0,0,1,1.15.58l1.35-.26a6.15,6.15,0,0,0-.2-1.09,7.11,7.11,0,0,1,1,.95q2.91-.54,5.86-.95a5.24,5.24,0,0,1-1.12-2.79,1.38,1.38,0,0,1,.45-1.33,1,1,0,0,1,1.33.6,2.44,2.44,0,0,1,.12,1.2,7.45,7.45,0,0,1,1.41-3.63,7,7,0,0,0,.06,1.17c0,.58.11,1.16.17,1.74a5.78,5.78,0,0,1,2.17-2.72,16.16,16.16,0,0,1-.88,3.77,3.06,3.06,0,0,1,.55-.78,1.07,1.07,0,0,1,.84-.36.71.71,0,0,1,.65.6.78.78,0,0,1,0,.26,8.33,8.33,0,0,1,3.16-.6,4.58,4.58,0,0,1,2.27.57,3.64,3.64,0,0,1,.54.43,5.3,5.3,0,0,1,0-.69,1.36,1.36,0,0,1,.61-1.25,1,1,0,0,1,1.24.79,2.33,2.33,0,0,1,0,1.2,7.38,7.38,0,0,1,1.88-3.39,6.71,6.71,0,0,0-.09,1.17c-.06.57-.05,1.16-.07,1.74a5.73,5.73,0,0,1,2.52-2.38,16.8,16.8,0,0,1-1.28,3.38h.08a2.61,2.61,0,0,1,.47-.47,1.09,1.09,0,0,1,.88-.23h0a8.81,8.81,0,0,1,5.87.17,5.56,5.56,0,0,1,1.37.81,4.82,4.82,0,0,1,0-.93c0-.49.22-1.05.67-1.21s1.08.29,1.21.84a2.47,2.47,0,0,1-.1,1.2,7.44,7.44,0,0,1,2-3.3,8.45,8.45,0,0,0-.15,1.16c-.08.57-.09,1.16-.14,1.74a5.77,5.77,0,0,1,2.62-2.27,16.24,16.24,0,0,1-1.45,3.37h.06a2.5,2.5,0,0,1,.53-.5,1.09,1.09,0,0,1,.9-.19.72.72,0,0,1,.53.71.14.14,0,0,0,0,.06,42.53,42.53,0,0,1,8.18,1,19.1,19.1,0,0,1,5.36,2.12c0-.31,0-.62-.07-.93a14.21,14.21,0,0,0-1.31-4.47l2.14-1.93a16.6,16.6,0,0,1,1.85,9.4c2.68,2.83,3.57,7.27,4,11.1A29.92,29.92,0,0,1,185.65,198.54Zm-19.33-32.73c.16-.76.33-1.53.5-2.29a53.84,53.84,0,0,0-14.24-2.73,20.24,20.24,0,0,0-3-.14l-3.65.34c-2.42.25-4.83.57-7.22,1-.63.13-6.87,1.48-6.81,1.84.16,1,.33,2,.49,3A62,62,0,0,1,166.32,165.81Z"/><polygon class="cls-25" points="79.45 72.58 74.78 79.87 68.05 79.98 73.42 83.89 73.84 92.58 78.31 86.64 85.53 84.98 80.2 81.47 79.45 72.58"/><polygon class="cls-25" points="61.39 128.63 61.91 137.31 56.58 141.46 63.19 141.35 68.62 148.08 68.73 140.61 73.56 134.92 67.21 135.32 61.39 128.63"/><polygon class="cls-25" points="208.36 53.8 208.88 62.48 203.55 66.63 210.15 66.52 215.59 73.25 215.7 65.79 220.53 60.09 214.18 60.5 208.36 53.8"/><polygon class="cls-25" points="215.52 80.55 215.96 87.83 211.49 91.31 217.03 91.22 221.58 96.86 221.68 90.6 225.72 85.83 220.4 86.17 215.52 80.55"/><polygon class="cls-25" points="227.35 120.51 223.46 129.94 215.7 131.5 222.72 134.88 225 144.84 228.95 137.03 236.96 133.58 230.06 130.65 227.35 120.51"/><polygon class="cls-25" points="95.16 44.74 91.84 52.76 85.25 54.09 91.22 56.95 93.15 65.42 96.51 58.78 103.32 55.85 97.45 53.36 95.16 44.74"/><polygon class="cls-25" points="65.76 163.46 62.45 171.47 55.86 172.8 61.82 175.67 63.76 184.13 67.11 177.49 73.92 174.56 68.06 172.07 65.76 163.46"/></g></g></svg>