<svg width="843" height="93" viewBox="0 0 843 93" fill="none" xmlns="http://www.w3.org/2000/svg">
<path d="M466.159 40.5979H466.432V40.7367H466.159V40.5979ZM442.756 31.8887C447.113 33.9331 454.87 36.788 466.016 40.4584V40.5979H465.817C462.42 39.5757 459.254 39.0617 456.317 39.0617C453.56 39.0617 450.442 39.5757 446.958 40.5979C433.743 46.1675 427.133 54.3621 427.133 65.1754C427.133 69.3541 428.142 73.6056 430.162 77.9237C435.344 86.6021 442.989 90.9442 453.081 90.9442C458.353 90.9442 462.973 89.5531 466.916 86.7655C473.479 81.7518 476.758 75.2266 476.758 67.1953C476.758 61.2989 474.759 56.382 470.772 52.4327C467.189 49.0946 463.085 47.4197 458.453 47.4197H457.968C454.162 47.4197 450.58 48.7679 447.233 51.4588C444.065 54.3866 442.481 57.6097 442.481 61.1412C442.481 64.4799 443.563 67.4309 445.714 69.9836C448.057 72.3478 450.717 73.5333 453.702 73.5333C455.807 73.5333 457.856 72.9346 459.825 71.7252C462.396 69.4508 463.681 66.5482 463.681 63.016L462.923 62.8106L462.787 64.2016C461.501 67.6364 459.39 69.3541 456.453 69.3541H455.211C454.485 69.3541 453.932 69.2636 453.56 69.0764C449.982 67.6363 448.195 65.0843 448.195 61.4195C448.195 59.279 448.792 57.168 449.982 55.0815C452.603 51.2233 455.627 49.3001 459.067 49.3001H460.303C461.365 49.3001 462.694 49.5118 464.296 49.929C471.275 52.8989 474.759 57.9785 474.759 65.1754C474.759 70.703 473.268 75.5049 470.288 79.5931C465.656 84.1889 460.284 86.4872 454.187 86.4872C447.298 86.4872 441.608 83.675 437.114 78.0626C434.544 73.2789 433.258 69.0764 433.258 65.4531C433.258 58.7224 436.038 52.8744 441.585 47.9097C447.46 43.3554 453.448 41.0816 459.552 41.0816C467.077 41.0816 474.231 44.6132 481.024 51.6649C486.985 59.2363 489.972 66.3848 489.972 73.1156V74.3677C489.972 75.3415 489.817 76.7382 489.494 78.547C487.469 84.3523 484.923 87.2555 481.85 87.2555C479.465 87.0677 478.273 86.3483 478.273 85.0962V84.6061C478.273 83.2157 478.888 81.9573 480.13 80.8446C477.472 81.9152 476.137 83.5362 476.137 85.7188C476.137 89.2026 478.751 91.3192 483.986 92.0574C486.687 92.0574 489.307 90.7569 491.828 88.1565C494.585 84.4434 495.958 80.3125 495.958 75.765C495.778 72.6984 495.362 70.0979 494.722 67.963C492.288 61.1412 490.295 57.1014 488.73 55.8436V55.7047C490.705 57.5192 493.685 60.6757 497.678 65.1754C512.456 83.1912 525.415 92.1963 536.568 92.1963C536.921 92.1963 537.269 92.1844 537.629 92.1599C537.741 92.1844 537.859 92.1963 537.977 92.1963H840.253C841.439 92.1963 842.396 91.2287 842.396 90.0313C842.396 88.8394 841.439 87.8662 840.253 87.8662H549.111C552.811 84.8788 554.662 81.0501 554.662 76.3876C554.662 73.6967 554.004 71.259 552.669 69.0764C549.918 65.1327 546.13 63.1555 541.312 63.1555H540.212C533.742 64.5044 530.513 67.2921 530.513 71.5134C530.513 71.979 530.575 72.3962 530.712 72.7713C531.358 75.9704 533.606 77.5732 537.462 77.5732C537.642 77.5732 538.263 77.5248 539.325 77.4337V76.8048C539.325 76.6232 539.2 76.5265 538.977 76.5265H536.977C533.494 76.1577 531.749 74.761 531.749 72.3478V70.8845C531.749 70.6119 531.91 70.0075 532.233 69.0764C534.208 66.0581 536.866 64.5521 540.212 64.5521H541.585C542.144 64.5521 542.758 64.6432 543.448 64.8305C547.44 66.5903 549.434 69.4024 549.434 73.255V74.3677C549.434 75.4383 549.272 76.5082 548.955 77.5732C546.521 83.9351 541.709 87.1161 534.506 87.1161C528.992 87.1161 523.838 85.0233 519.02 80.8446C515.027 77.0404 512.108 73.7928 510.27 71.0963C506.327 65.8527 502.726 61.4862 499.466 58.003C493.871 52.4811 489.376 48.6957 485.979 46.6576C481.067 43.4037 475.591 40.6638 469.53 38.4385C455.994 34.7674 447.849 32.282 445.099 30.9877C437.388 28.0606 433.533 23.4886 433.533 17.2655V16.6429C433.533 13.3407 434.519 10.4437 436.492 7.93438C439.02 5.33395 441.429 4.03339 443.718 4.03339H445.714C448.972 5.10398 450.604 7.07552 450.604 9.95429V11.2058C450.604 13.8552 449.133 15.9235 446.199 17.405L446.336 16.3589C445.876 13.4381 444.549 11.9742 442.343 11.9742H441.381C439.134 12.8085 438.01 14.0664 438.01 15.7357V16.6429L438.148 17.6167C438.925 19.4733 440.258 20.3981 442.14 20.3981H442.618C443.491 20.3981 444.573 20.1927 445.852 19.7755C450.353 17.6406 452.603 14.4842 452.603 10.3049C452.603 8.21271 452.094 6.38004 451.082 4.80181C448.607 1.60262 445.787 -0.000122728 442.618 -0.000122728H441.728C440.67 -0.000122728 439.546 0.163211 438.351 0.483632C432.482 2.47904 429.541 6.63447 429.541 12.948V14.1329C429.541 20.8643 433.946 26.7846 442.756 31.8887" fill="white"/>
<path d="M406.209 36.4199C415.112 44.4511 419.561 53.9217 419.561 64.8316C419.561 75.8322 420.181 75.9047 420.181 65.0372C420.181 57.145 422.636 49.7186 427.545 42.7578C430.573 39.1776 432.641 37.1153 433.741 36.559C433.693 36.3715 432.916 35.6518 431.398 34.4C428.828 31.5697 426.628 28.6668 424.792 25.6974C421.626 19.1056 420.043 14.0679 420.043 10.5845H419.905L419.286 14.3461C417.956 19.3112 416.717 22.6313 415.57 24.3004C414.561 27.2275 411.44 31.2673 406.209 36.4199" fill="white"/>
<path d="M373.311 40.5984H373.655V40.7375H373.311V40.5984ZM2.1386 92.1968H304.42C304.584 92.1968 304.743 92.1726 304.896 92.1363C313.837 91.4953 323.885 85.2057 335.045 73.2556C342.799 64.4805 348.19 58.5175 351.219 55.3607H351.356L349.36 58.0035C345.781 64.8313 343.992 70.5886 343.992 75.2755V76.5274C343.992 79.0795 344.658 81.94 345.987 85.0969C348.65 89.7354 351.93 92.0577 355.829 92.0577L356.861 91.9186C361.359 90.9933 363.607 88.9674 363.607 85.8589C363.607 83.8208 362.437 82.1456 360.097 80.8454H359.821C361.014 82.194 361.611 83.4459 361.611 84.607C361.382 86.3729 360.304 87.2559 358.376 87.2559C356.817 87.2559 355.44 86.6753 354.247 85.5142C351.265 82.448 349.774 78.5715 349.774 73.8846C349.774 67.71 352.09 61.118 356.725 54.1028C363.974 45.4245 371.751 41.0822 380.056 41.0822C385.149 41.0822 390.127 42.57 394.991 45.5393C402.654 50.6919 406.484 57.2415 406.484 65.176C406.484 69.1735 405.27 73.4189 402.837 77.9244C398.387 83.6333 392.651 86.4878 385.631 86.4878C380.951 86.4878 376.432 84.982 372.073 81.9582C367.485 78.1058 365.19 72.8142 365.19 66.0831V64.5531C365.19 61.4869 366.061 58.5841 367.805 55.8445C371.108 51.4842 375.055 49.301 379.643 49.301H380.675C381.961 49.301 383.245 49.6034 384.53 50.2081C389.256 52.8509 391.618 56.546 391.618 61.2813V61.9042C391.618 62.2792 391.573 62.7388 391.481 63.3012C390.151 67.335 387.833 69.3549 384.53 69.3549H383.635C382.259 69.3549 380.813 68.8953 379.299 67.9639C377.647 66.198 376.821 64.4805 376.821 62.8114H376.546C376.363 62.8114 376.27 62.9263 376.27 63.1561C376.27 65.2909 376.776 67.3168 377.784 69.2158C379.942 72.0945 382.602 73.5338 385.768 73.5338H385.906C388.154 73.5338 390.311 72.8625 392.375 71.5139C395.634 68.9134 397.262 65.5933 397.262 61.5595V61.1422C397.262 58.6808 396.505 56.3344 394.991 54.1028C391.366 49.6517 387.053 47.4202 382.051 47.4202H381.295C379.185 47.4202 376.891 47.8858 374.412 48.8111C366.933 52.5727 363.194 58.5841 363.194 66.8512V67.8248C363.194 70.6128 363.791 73.7213 364.983 77.1563C369.756 86.3487 376.936 90.9449 386.526 90.9449C392.674 90.9449 398.112 89.2516 402.837 85.8589C409.399 80.5672 412.679 73.7213 412.679 65.3151V65.176C412.679 58.1668 409.857 52.2038 404.214 47.2811C397.561 41.8019 390.701 39.0623 383.635 39.0623C380.607 39.0623 377.372 39.5764 373.931 40.5984H373.793V40.4593C383.566 37.115 389.853 34.9318 392.651 33.9098C404.443 28.7088 410.339 21.9113 410.339 13.5051C410.339 10.8139 409.72 8.28597 408.481 5.9153C405.958 1.97225 402.539 0.000732776 398.226 0.000732776H397.125C396.712 0.000732776 396.161 0.0430543 395.473 0.139816C389.921 2.08715 387.145 5.4073 387.145 10.0942C387.283 11.5819 387.489 12.6705 387.764 13.366C389.738 18.0589 393.019 20.3994 397.607 20.3994H398.088C400.061 20.3994 401.323 18.9842 401.874 16.1539C401.37 13.366 400.038 11.975 397.882 11.975H397.468C394.9 12.5314 393.615 13.7893 393.615 15.7367V17.1276L393.753 17.4058C390.679 16.1055 389.141 13.88 389.141 10.7232V10.445C389.141 10.0277 389.187 9.44712 389.278 8.70326C390.38 5.59478 392.285 4.03451 394.991 4.03451H396.093C397.055 4.03451 398.18 4.36106 399.465 5.01421C404.053 7.42721 406.347 11.4186 406.347 16.9885C406.347 21.5424 404.512 25.1165 400.841 27.711C398.18 29.8942 392.33 32.2648 383.291 34.8169C374.94 36.9034 368.792 38.8325 364.846 40.5984C360.258 42.5941 355.646 45.2853 351.012 48.672C348.351 50.2504 344.061 54.1512 338.141 60.3742L325.546 76.0436C319.399 83.4217 312.631 87.1168 305.244 87.1168C303.729 87.1168 301.825 86.8325 299.531 86.2762C293.383 83.6757 290.309 79.5452 290.309 73.8846C290.309 72.9532 290.423 72.0763 290.652 71.2357C292.212 66.7786 294.828 64.5531 298.498 64.5531H299.875C305.381 65.436 308.135 67.8248 308.135 71.7256C308.135 72.0945 307.997 72.8142 307.721 73.8846C306.758 75.6505 305.105 76.5274 302.766 76.5274H300.633L300.494 77.2954V77.4345C300.678 77.4345 301.229 77.4829 302.146 77.5736C302.743 77.5736 303.729 77.4829 305.105 77.2954C307.859 76.2734 309.235 74.4168 309.235 71.7256V71.2357C309.235 70.1229 308.937 69.0767 308.34 68.103C305.909 64.8071 302.628 63.1561 298.498 63.1561C297.031 63.1561 295.172 63.5068 292.924 64.2023C287.831 66.7121 285.284 70.4918 285.284 75.5537V77.0172C285.284 81.0752 287.063 84.6917 290.606 87.8667H2.1386C0.95693 87.8667 0 88.8404 0 90.0317C0 91.2292 0.95693 92.1968 2.1386 92.1968" fill="white"/>
</svg>
