<svg width="448" height="448" viewBox="0 0 448 448" fill="none" xmlns="http://www.w3.org/2000/svg">
<path d="M224 0C100.289 0 0 100.289 0 224C0 347.711 100.289 448 224 448C347.711 448 448 347.711 448 224C447.859 100.348 347.652 0.140625 224 0ZM189.656 298.344C191.734 300.352 192.57 303.328 191.836 306.125C191.105 308.922 188.922 311.105 186.125 311.836C183.328 312.57 180.352 311.734 178.344 309.656L98.3438 229.656C95.2227 226.531 95.2227 221.469 98.3438 218.344L178.344 138.344C181.484 135.312 186.473 135.355 189.559 138.441C192.645 141.527 192.688 146.516 189.656 149.656L115.312 224L189.656 298.344ZM349.656 229.656L309.656 269.656L269.656 309.656C266.516 312.688 261.527 312.645 258.441 309.559C255.355 306.473 255.312 301.484 258.344 298.344L332.688 224L258.344 149.656C255.312 146.516 255.355 141.527 258.441 138.441C261.527 135.355 266.516 135.312 269.656 138.344L309.656 178.344L349.656 218.344C352.777 221.469 352.777 226.531 349.656 229.656Z" fill="black"/>
</svg>
