<?xml version="1.0" encoding="UTF-8" standalone="no"?>
<svg
   xmlns:dc="http://purl.org/dc/elements/1.1/"
   xmlns:cc="http://creativecommons.org/ns#"
   xmlns:rdf="http://www.w3.org/1999/02/22-rdf-syntax-ns#"
   xmlns:svg="http://www.w3.org/2000/svg"
   xmlns="http://www.w3.org/2000/svg"
   viewBox="0 0 250.26666 380.60001"
   height="380.60001"
   width="250.26666"
   xml:space="preserve"
   id="svg2"
   version="1.1"><metadata
     id="metadata8"><rdf:RDF><cc:Work
         rdf:about=""><dc:format>image/svg+xml</dc:format><dc:type
           rdf:resource="http://purl.org/dc/dcmitype/StillImage" /></cc:Work></rdf:RDF></metadata><defs
     id="defs6"><clipPath
       id="clipPath202"
       clipPathUnits="userSpaceOnUse"><path
         id="path200"
         d="m 904.883,1163.94 c -7.563,0 -15.113,0.07 -22.672,0.22 -52.637,10.2 -102.508,36.75 -141.133,76.07 -5.215,5.3 -10.695,11.1 -17.805,12.52 -1.168,0.23 -2.335,0.34 -3.5,0.34 -6.113,0 -12.152,-2.95 -17.753,-5.86 -30.497,-15.85 -61.512,-33.02 -93.907,-42.81 -54.101,15.36 -109.105,37.02 -152.988,70.89 -0.09,1.07 -0.164,2.15 -0.215,3.24 -1.16,-0.13 -2.312,-0.25 -3.449,-0.36 -14.645,11.71 -27.973,24.83 -39.523,39.61 17.613,-6.61 36.902,-9.58 53.187,-9.58 3.277,0 6.434,0.12 9.43,0.36 0.402,0.03 0.804,0.06 1.199,0.1 0.348,0.03 0.695,0.06 1.043,0.09 3.609,0.35 7.195,0.81 10.754,1.37 -0.981,-20.44 7.832,-42.72 22.703,-55 v 0 c 12.605,-10.41 27.625,-13.96 43.062,-13.96 15.258,0 30.926,3.47 45.09,7.21 44.746,11.86 87.153,30.41 132.403,41.04 11.449,2.69 22.918,5.27 34.382,7.86 5.028,-39.23 71.579,-72.67 99.684,-78.75 0.43,-0.1 0.848,-0.19 1.258,-0.26 12.078,-2.36 24.254,-3.44 36.437,-3.44 48.555,0 97.243,17.08 140.75,38.06 6.78,3.26 13.59,6.66 20.45,10.18 24.16,12.41 48.74,26.25 73.2,40.53 29.51,-13.49 63.08,-18.14 94.67,-20.79 v 0 c 22.03,-1.85 43.85,-3.57 65.7,-3.57 15.74,0 31.5,0.89 47.37,3.26 53.47,8 105.31,24.16 150.66,52.31 -37.93,-36.84 -85.79,-63.7 -132.11,-84.36 -11.51,-5.13 -23.15,-9.94 -34.89,-14.44 -5.39,-0.23 -10.78,-0.34 -16.18,-0.34 -48.06,0 -96.15,9.11 -142.06,28.45 -7.07,2.98 -14.52,6.25 -21.97,6.25 -1.73,0 -3.45,-0.17 -5.18,-0.57 -8.76,-2.02 -15.43,-9.3 -21.87,-15.91 -38.33,-39.38 -88.17,-73.56 -140.712,-87.6 -25.156,-1.56 -50.347,-2.36 -75.515,-2.36 M 271.281,1424.8 c 1.203,1.15 2.426,2.31 3.641,3.46 0.004,0 0.004,0 0.004,-0.01 -1.223,-1.14 -2.434,-2.29 -3.645,-3.45 m 1352.359,9.13 c -0.14,0.12 -0.27,0.25 -0.4,0.37 0.13,-0.12 0.26,-0.25 0.4,-0.37 m -0.46,0.42 c -7.17,6.61 -14.45,13 -21.82,19.17 0,0.01 0,0.02 0.01,0.03 7.36,-6.19 14.64,-12.59 21.81,-19.2" /></clipPath></defs><g
     transform="matrix(1.3333333,0,0,-1.3333333,0,380.6)"
     id="g10"><g
       transform="scale(0.1)"
       id="g12"><path
         id="path14"
         style="fill:#ddd5bc;fill-opacity:1;fill-rule:nonzero;stroke:none"
         d="m 1291.83,2551.74 c -22.04,47.83 -47.06,100.57 -91.95,128.61 -49.59,30.96 -96.99,-0.46 -133.72,-37.25 -27.6,-27.63 -51.73,-58.78 -78.265,-87.48 -22.247,-24.08 -52.942,-64.6 -88.258,-62.11 -72.809,5.14 -75.235,160.76 -129.817,257.74 -69.593,123.66 -246.785,139.61 -337.593,29.37 -30.325,-36.82 -43.981,-86.48 -46.055,-135.3 -3.645,-85.5 30.414,-166.8 26.785,-251.96 -2.078,-48.95 -28.402,-92.86 -78.203,-94.85 -63.406,-2.55 -102.363,62.84 -150.961,94.85 -24.043,15.82 -53.418,25.63 -80.809,18.04 -22.8629,-6.34 -41.7613,-24.23 -54.441,-45.37 C 18.8594,2316.54 10.9531,2254.59 7.87891,2197.16 5.5,2152.79 0.300781,2108.84 0.195313,2064.31 0.105469,2027.27 -4.07813,1953.1 31.5313,1931.05 c 28.3984,-17.57 53.8828,42.23 97.5627,49.95 13.984,2.46 25.582,-11.09 38.254,-24.64 21.644,-23.16 46.418,-46.32 91.562,10.43 27.172,34.17 48.727,81.16 86.289,101.61 47.864,26.07 91.059,-12.03 100.61,-60.4 32.757,-165.9 -33.149,-406.36 -9.102,-420.55 49.172,-29.01 122.715,-26.05 177.047,-29.03 87.351,-4.8 176.992,-11.55 264.379,-6.46 41.988,2.44 84.086,9.37 123.907,24.01 25.21,9.26 92.98,34.01 95.78,68.53 0.53,6.54 -1.71,12.94 -3.94,19.07 -26.35,72.64 -53.49,144.96 -80.65,217.27 -24.691,65.7 -59.007,132.47 -67.25,203.44 -10.621,91.68 40.981,68.49 94.07,45.31 33.77,-14.75 68.14,-29.5 87.49,-14.7 18.78,14.37 18.43,34.94 17.19,56.64 -2.19,38.24 -9.15,148.88 50.99,114.27 16.73,-9.62 48.86,-32.68 65.52,-42.44 37.63,-22.03 74.62,-26.45 88.62,23.9 26.06,93.78 -36.58,237.9 -58.03,284.48" /><path
         id="path16"
         style="fill:#46464b;fill-opacity:1;fill-rule:nonzero;stroke:none"
         d="m 545.418,2661.89 c -2.477,0.84 -5.035,1.55 -7.676,2.1 -30.176,6.29 -53.926,-14.06 -64.547,-42.83 -10.148,-27.5 -11.215,-59.52 -11.547,-88.7 -0.343,-30.18 3.727,-60.91 16.04,-88.37 10.664,-23.8 33.105,-51.55 60.589,-49.38 14.27,1.13 26.727,10.85 36.289,22.11 32.832,38.68 36.34,101.14 30.055,150.36 -4.832,37.84 -22.543,82.09 -59.203,94.71" /><path
         id="path18"
         style="fill:#46464b;fill-opacity:1;fill-rule:nonzero;stroke:none"
         d="m 659.016,2656.07 c -2.196,-1.91 -4.258,-4.07 -6.153,-6.44 -18.855,-23.6 -18.425,-57.82 -8.886,-85.55 5.664,-16.47 14.953,-32.91 27.984,-43.99 20.566,-17.49 50.797,-15.22 64.82,9.84 16.414,29.34 10.567,75.72 -5.547,103.84 -14.921,26.03 -47.101,44.25 -72.218,22.3" /><path
         id="path20"
         style="fill:#46464b;fill-opacity:1;fill-rule:nonzero;stroke:none"
         d="m 868.434,2277.02 c -6.731,110.85 -161.161,136.07 -234.145,99.66 -70.988,-35.42 -133.363,-126.94 -109.906,-215.29 6.937,-26.14 23.824,-49.01 51.457,-44.5 38.582,6.3 53.855,47.44 75.023,77.05 23.371,32.69 53.75,44.94 90.922,38.34 29.317,-5.21 54.039,-33.48 85.621,-27.04 30.129,6.16 42.891,41.15 41.028,71.78" /><path
         id="path22"
         style="fill:#eee9dc;fill-opacity:1;fill-rule:nonzero;stroke:none"
         d="m 42.4102,2239.36 c 4.4414,20.48 12.5234,43.62 9.5078,64.66 -0.3828,2.62 -4.4922,3.18 -5.5157,0.76 -17.246,-40.91 -19.5156,-90.64 -22.2343,-134.75 -2.0274,-32.9 -3.5899,-64.96 -3.8672,-98.03 -0.2266,-26.21 4.0469,-48.48 5.7851,-73.64 0.2188,-3.19 5.2305,-4.47 5.6993,-0.82 2.5976,20.26 -1.4883,39.2 -1.3243,59.78 0.2696,34.53 -0.7226,68.66 1.7188,103.14 1.8672,26.41 4.6484,53.21 10.2305,78.9" /><path
         id="path24"
         style="fill:#eee9dc;fill-opacity:1;fill-rule:nonzero;stroke:none"
         d="m 77.5703,2365.12 c -4.043,-1.57 -6.3281,-4.97 -9.0078,-8.33 -2.6875,-3.36 -5.4805,-6.54 -7.3984,-10.5 -2.875,-5.93 5.6484,-11.19 8.4492,-5.22 3.5195,7.5 10.0703,12.94 10.625,21.9 0.082,1.37 -1.4258,2.63 -2.668,2.15" /><path
         id="path26"
         style="fill:#eee9dc;fill-opacity:1;fill-rule:nonzero;stroke:none"
         d="m 141.734,2387.18 c -6.312,12.04 -31.546,10.68 -34.734,-3.78 -0.992,-4.49 5.367,-7.89 7.383,-3.3 3.867,8.83 19.082,3.17 25.633,3.91 1.48,0.17 2.511,1.67 1.718,3.17" /><path
         id="path28"
         style="fill:#eee9dc;fill-opacity:1;fill-rule:nonzero;stroke:none"
         d="m 449.734,2759.88 c 2.309,5.08 -3.109,9.27 -7.144,5.84 -67.067,-57.02 -32.535,-172.61 -23.688,-246.49 0.508,-4.26 6.778,-4.5 6.485,0 -2.379,36.37 -8.832,72.62 -11.668,109.02 -1.914,24.53 -4.762,47.42 3.336,71.41 7.457,22.11 23.183,39.3 32.679,60.22" /><path
         id="path30"
         style="fill:#eee9dc;fill-opacity:1;fill-rule:nonzero;stroke:none"
         d="m 516.91,2821.37 c -4.344,0.27 -6.922,-1.87 -10.515,-4.07 -4.993,-3.05 -10.09,-5.49 -14.829,-9.04 -8.058,-6.02 -13.425,-12.75 -18.898,-21.4 -1.648,-2.62 2.105,-5.68 4.113,-3.36 6.508,7.51 14.75,14.05 23.774,17.72 7.242,2.95 13.773,6.2 19.699,11.6 3.324,3.04 0.422,8.31 -3.344,8.55" /><path
         id="path32"
         style="fill:#eee9dc;fill-opacity:1;fill-rule:nonzero;stroke:none"
         d="m 545.918,2829.83 c -7.027,0 -7.039,-11.58 0,-11.58 7.023,0 7.039,11.58 0,11.58" /><path
         id="path34"
         style="fill:#eee9dc;fill-opacity:1;fill-rule:nonzero;stroke:none"
         d="m 666.293,2825.32 c -6.402,10.66 -22.238,13.27 -33.293,12.84 -21.227,-0.82 -42.27,-3.15 -63.422,-3.81 -5.484,-0.17 -5.5,-8.89 0,-9.04 17.594,-0.49 35.059,0.78 52.641,0.99 9.359,0.12 15.832,-0.07 25.367,-2.32 5.609,-1.32 10.68,-3.02 16.641,-2.47 1.703,0.15 3.109,2.06 2.066,3.81" /><path
         id="path36"
         style="fill:#eee9dc;fill-opacity:1;fill-rule:nonzero;stroke:none"
         d="m 1098.29,2635.77 c -0.39,1.9 -2.59,2.65 -4.09,1.77 -25.18,-14.97 -40.29,-44.65 -60.89,-65.77 -21.8,-22.37 -41.013,-46.16 -65.064,-66.09 -2.383,-1.98 0.652,-5.36 3.035,-4.17 30.779,15.4 51.339,39.5 75.849,63.4 14.03,13.69 25.6,29.74 37.65,45.44 5.53,7.18 15.65,15.15 13.51,25.42" /><path
         id="path38"
         style="fill:#eee9dc;fill-opacity:1;fill-rule:nonzero;stroke:none"
         d="m 1133.7,2663.64 c -4.25,1.4 -7.44,-0.93 -10.52,-3.85 -4.65,-4.41 2.08,-11.22 6.75,-7.17 1.9,1.64 3.82,2.34 5.42,4.43 1.75,2.3 1.22,5.66 -1.65,6.59" /><path
         id="path40"
         style="fill:#eee9dc;fill-opacity:1;fill-rule:nonzero;stroke:none"
         d="m 1245.38,2608.02 c -7.83,12.44 -17.87,24.67 -26.41,36.59 -13.42,18.7 -34.73,33.94 -56.94,28.64 -3.16,-0.75 -3.44,-6.57 0,-7.09 11.92,-1.81 20.55,-5.98 30.33,-13.42 12.01,-9.13 18.36,-18.08 27.3,-30.09 7.62,-10.21 16.7,-17.91 22.75,-29.45 4.51,-8.58 8.62,-16.75 15.21,-23.8 1.85,-1.97 4.85,0.05 4.28,2.64 -2.71,12 -9.99,25.62 -16.52,35.98" /><path
         id="path42"
         style="fill:#cfc3a5;fill-opacity:1;fill-rule:nonzero;stroke:none"
         d="m 446.684,1760.47 c 4.605,43.36 8.457,90.86 8.457,137.57 0.004,38.07 -2.551,75.62 -9.332,109.96 -7.411,37.53 -35.063,68.87 -69.442,68.87 -9.937,0 -20.433,-2.62 -31.168,-8.47 -37.562,-20.45 -59.117,-67.44 -86.289,-101.61 v 0 c -8.019,-10.07 -15.359,-17.51 -22.183,-23 18.14,29.68 31.878,68.87 45.261,100.87 12.461,29.79 25.227,63.53 53.27,76.9 7.316,3.49 15.367,5.06 23.68,5.06 25.945,0 54.367,-15.35 70.488,-35.66 38.047,-47.96 61.797,-174.17 77.922,-303.31 -21.442,-6.67 -41.825,-15.55 -60.664,-27.18" /><path
         id="path44"
         style="fill:#eee9dc;fill-opacity:1;fill-rule:nonzero;stroke:none"
         d="m 42.2617,1927.84 c -3.5586,0 -7.1211,0.98 -10.7304,3.21 -0.0274,0.02 -0.0586,0.04 -0.086,0.06 0.0274,-0.02 0.0586,-0.04 0.086,-0.06 3.6093,-2.23 7.1718,-3.21 10.7304,-3.21 24.4414,0 48.7031,46.42 86.8323,53.16 1.125,0.2 2.23,0.29 3.324,0.29 7.258,0 13.914,-4.18 20.496,-10.12 0.004,-0.01 0.012,-0.03 0.02,-0.04 -6.59,5.95 -13.258,10.16 -20.528,10.16 -1.09,0 -2.191,-0.09 -3.312,-0.29 -38.1292,-6.74 -62.3909,-53.16 -86.8323,-53.16" /><path
         id="path46"
         style="fill:#cfc3a5;fill-opacity:1;fill-rule:nonzero;stroke:none"
         d="m 42.2617,1927.84 c -3.5586,0 -7.1211,0.98 -10.7304,3.21 -0.0274,0.02 -0.0586,0.04 -0.086,0.06 -6.9609,4.33 -12.3555,10.71 -16.5937,18.37 3.0507,-0.64 5.9843,-0.94 8.8125,-0.94 21.8632,0 37.4101,17.89 52.0078,35.77 14.6015,17.88 28.2541,35.77 46.3401,35.77 1.711,0 3.465,-0.16 5.261,-0.5 9.364,-1.75 14.7,-25.16 25.641,-48.41 -6.582,5.94 -13.238,10.12 -20.496,10.12 -1.094,0 -2.199,-0.09 -3.324,-0.29 -38.1292,-6.74 -62.3909,-53.16 -86.8323,-53.16" /><path
         id="path48"
         style="fill:#eee9dc;fill-opacity:1;fill-rule:nonzero;stroke:none"
         d="m 949.984,2059.18 c -0.058,0.25 -0.117,0.49 -0.171,0.73 -1.485,7.54 -2.711,15.11 -3.637,22.73 0.961,-7.87 2.262,-15.69 3.808,-23.46" /><path
         id="path50"
         style="fill:#cfc3a5;fill-opacity:1;fill-rule:nonzero;stroke:none"
         d="m 949.813,2059.91 c -12.868,55.3 -13.743,101.22 -6.208,119.82 4.965,12.26 18.606,17.79 31.563,17.79 2.156,0 4.301,-0.15 6.379,-0.45 10.965,-1.6 22.713,-9.79 33.213,-17.19 -6.09,-10.9 -11.76,-22.08 -17.057,-33.5 -8.254,2.5 -15.961,4.05 -22.805,4.05 -18.218,0 -30.316,-11 -30.32,-44.26 0,-6.44 0.453,-13.7 1.402,-21.89 0.063,-0.54 0.125,-1.09 0.196,-1.64 0.926,-7.62 2.152,-15.19 3.637,-22.73" /><path
         id="path52"
         style="fill:#cfc3a5;fill-opacity:1;fill-rule:nonzero;stroke:none"
         d="m 1173.81,2326.2 c 4.65,2.93 9.8,4.84 15.24,5.26 0.25,0.02 0.51,0.04 0.77,0.05 -0.3,-0.09 -0.6,-0.18 -0.89,-0.26 -5.1,-1.52 -10.14,-3.2 -15.12,-5.05" /><path
         id="path54"
         style="fill:#f8d84f;fill-opacity:1;fill-rule:nonzero;stroke:none"
         d="m 1716.7,1168.74 c -17.32,9.82 -33.71,3.91 -45.54,-8.41 -0.28,33.02 -0.68,72.17 -34.28,85.79 -22.42,9.09 -45.98,-4.27 -58.99,-22.03 0.88,31.84 -14.3,66.31 -45.95,75.4 -35.92,10.32 -54.18,-16.25 -66.27,-43.09 -2.66,33.25 -15.8,81.81 -55.35,82.69 -24.8,0.54 -40.95,-19.49 -52.09,-40.72 -5.96,25.72 -25.47,54.8 -46.76,61.06 -30.34,8.91 -58.15,-5.57 -71.89,-31.71 -9.23,29.24 -22.36,45.74 -49.62,51.38 -35.76,7.38 -56.86,-16.55 -69.77,-43.09 -10.04,20.92 -28.23,40.08 -42.96,47.08 -28.88,13.74 -63.54,-5.69 -79.257,-34.29 -1.758,3.91 -3.614,8.22 -4.18,9.16 -3.488,5.76 -7.559,11.13 -12.148,15.93 -8.77,9.19 -19.817,16.8 -32.188,18.86 -25.82,4.31 -54.375,-21.29 -63.508,-45.42 -2.293,3.88 -4.668,7.51 -6.933,10.42 -11.223,14.4 -30.946,28.63 -49.262,28.05 -25.387,-0.82 -56.195,-27.06 -59.488,-55.64 -13.618,28.68 -27.344,49.84 -66.336,47.18 -26.926,-1.84 -45.383,-26.92 -54.617,-56.15 -13.739,26.14 -42.567,44.41 -72.915,35.48 -21.285,-6.26 -41.003,-32.58 -46.96,-58.3 -11.145,21.23 -27.29,41.26 -52.09,40.72 -39.551,-0.88 -57.785,-46.01 -59,-80.23 -12.09,26.84 -23.969,52.85 -59.899,42.53 -31.644,-9.1 -48.597,-41.81 -51.289,-74.3 -13.008,17.75 -33.949,28.12 -56.375,19.03 -33.605,-13.62 -34,-52.77 -34.289,-85.79 -11.824,12.32 -28.207,18.23 -45.543,8.41 -32.449,-18.38 -32.586,-66.87 -24.144,-97.71 0.652,-2.38 2.187,-3.84 4.125,-4.59 5.789,-13.62 16.574,-20.19 24.472,-33.67 15.742,-26.88 27.821,-55.29 46.098,-80.43 19.68,-27.09 35.359,-58.309 56.996,-83.738 13.207,-15.532 29.023,-32.75 45.418,-47.563 76.723,4.633 153.871,4.359 230.836,4.082 26.141,-0.09 52.258,-0.18 78.332,-0.09 77.824,0.297 155.652,0.25 233.48,0.199 34.582,-0.019 69.164,-0.039 103.75,-0.031 l 337.224,0.102 c 80.94,0.027 162.14,2 243.07,-0.922 37.64,27.762 75.65,57.32 108.12,89.98 43.53,43.77 79.71,92.511 78.39,158.601 0.91,0.82 1.64,1.86 2.03,3.27 8.44,30.85 10.01,74.13 -22.45,92.51" /><path
         id="path56"
         style="fill:#f8bd17;fill-opacity:1;fill-rule:nonzero;stroke:none"
         d="m 1742.93,1100.31 c -9.47,27.12 -34.79,28.96 -57.24,18.68 -16.64,-7.62 -27.6,-21.9 -37.82,-37.24 -7.65,-11.48 -13.42,-26.9 -20.25,-40.34 -2.17,6.77 -5.55,12.96 -12.99,18.89 -11.65,9.3 -24.19,11.34 -38.21,6.93 -30.46,-9.55 -49.58,-44.1 -64.44,-76 -1.89,26.02 -10.49,47.49 -27.32,55.86 -37.48,18.63 -71.31,-28.71 -85.6,-70.738 -2.79,7.418 -5.88,15.07 -9.55,20.058 -14.71,20.08 -31.46,24.79 -53.8,20.89 -24.68,-4.3 -46.45,-28.902 -58.63,-55.499 -8.98,25.64 -25.47,47.399 -56.12,42.479 -26.35,-4.23 -51.06,-35.639 -62.17,-66.241 -8.58,16.582 -23.96,31.383 -37.14,37.789 -46.57,22.641 -68.9,-19.34 -80.49,-49.348 -5.91,21.989 -14.25,44.469 -36.08,52.942 -29.404,11.406 -53.857,-12.672 -66.424,-39.551 -6.769,25.078 -29.433,54.449 -63.582,48.117 -21.613,-4 -33.758,-23.91 -41.824,-44.468 -16.363,25.769 -36.965,47.609 -70.434,33.23 -12.375,-5.309 -28.074,-20.012 -36.003,-36.371 -11.43,23.633 -40.239,49.891 -68.528,48.512 -28.551,-1.379 -42.207,-32.36 -44.976,-37.852 -1.856,6.992 -15.836,26.5 -27.836,36.25 -11.153,9.051 -23.727,15.371 -37.703,17.411 -30.364,4.43 -48.426,-8.438 -66.434,-30.2 -10.063,34.27 -22.574,64.29 -57.883,77 -40.199,14.47 -58.051,-21.17 -63.894,-40.84 -7.879,27.22 -28.957,59.76 -53.516,67.25 -28.305,8.65 -44.488,-8.92 -60.984,-27.71 -9.758,27.66 -26.301,50.93 -53.414,63.4 -24.356,11.19 -54.387,-1.33 -48.372,-34.68 9.723,-53.85 194.473,-456.369 223.231,-508.908 11.051,-23.731 21.059,-47.961 34.016,-70.762 15.23,-26.77 27.394,-58.219 51.867,-77.5 46.898,-36.922 112.371,-63.852 168.226,-80 101.344,-29.281 218.446,-46.328 323.258,-43.301 104.799,-3.027 223.169,14.02 324.509,43.301 55.85,16.148 121.33,43.078 168.22,80 24.48,19.281 37.27,50.34 51.87,77.5 88.1,163.84 216.31,448.879 226.17,473.461 13.8,34.399 41.74,89.049 28.29,127.599" /><path
         id="path58"
         style="fill:#fccc4d;fill-opacity:1;fill-rule:nonzero;stroke:none"
         d="m 355.66,709.969 c 20.695,-58.258 41.68,-116.391 62.633,-174.539 14.738,-40.899 28.695,-83.629 47.191,-123.34 5.418,-3.801 10.996,-7.508 16.754,-11.07 -37.797,106.75 -80.836,211.871 -118.629,318.73 -39.367,111.32 -77.289,223.219 -114.015,335.55 -1.516,-1.68 -3.028,-3.38 -4.535,-5.1 l -0.172,0.44 C 277.055,935.379 315.715,822.43 355.66,709.969" /><path
         id="path60"
         style="fill:#fccc4d;fill-opacity:1;fill-rule:nonzero;stroke:none"
         d="m 858.773,473.52 c -4.246,66.062 -7.871,132.128 -8.918,198.351 -1.476,93.82 -5.343,188 -12.195,281.688 -1.578,-3.297 -3.078,-6.637 -4.41,-10.039 -2.016,3.171 -4.098,6.281 -6.254,9.281 2.844,-96.012 11.043,-192.012 12.66,-288.071 1.153,-68.539 6.746,-136.941 10.973,-205.332 1.902,-30.878 3.633,-61.597 3.887,-92.539 0.179,-22.058 -0.524,-44.89 3.453,-66.66 3.226,-0.211 6.449,-0.41 9.672,-0.597 -5.157,57.75 -5.149,115.976 -8.868,173.918" /><path
         id="path62"
         style="fill:#fccc4d;fill-opacity:1;fill-rule:nonzero;stroke:none"
         d="m 769.914,493.191 c -4.926,68.149 -9.648,136.329 -16.203,204.329 -7.965,82.609 -13.699,165.941 -23.828,248.449 -1.11,-1.828 -2.153,-3.699 -3.07,-5.59 -2.211,4.57 -5.086,9.23 -8.465,13.793 7.711,-90.524 18.043,-180.852 26.679,-271.231 11.934,-124.8 16.996,-249.992 32.215,-374.421 2.629,-0.372 5.262,-0.719 7.891,-1.071 1.719,61.18 -10.824,124.91 -15.219,185.742" /><path
         id="path64"
         style="fill:#fccc4d;fill-opacity:1;fill-rule:nonzero;stroke:none"
         d="m 678.395,476.23 c -8.383,67.692 -16.493,135.43 -24.168,203.211 -10.743,94.93 -18.825,191.61 -32.414,286.438 -4.645,-6.649 -7.426,-12.688 -8.504,-14.84 -0.582,2.18 -2.426,5.641 -4.938,9.582 2.84,-40.293 9.055,-80.691 13.938,-120.32 7.211,-58.461 14.711,-116.879 21.546,-175.391 7.418,-63.48 15.258,-126.91 23.313,-190.301 6.246,-49.218 9.973,-99.89 17.637,-149.238 4.402,-1 8.804,-1.992 13.246,-2.922 -3.805,51.34 -13.391,103.192 -19.656,153.781" /><path
         id="path66"
         style="fill:#fccc4d;fill-opacity:1;fill-rule:nonzero;stroke:none"
         d="m 591.879,486.359 c -10.973,58.911 -23.754,117.379 -36.441,175.879 -23.133,106.684 -45.625,213.371 -66.829,320.473 -2.437,-2.582 -4.863,-5.301 -7.273,-8.211 -1.035,3.52 -2.109,6.988 -3.219,10.41 14.821,-105.101 39.68,-208.66 63.047,-311.879 24.488,-108.179 43.473,-217.101 62.969,-326.261 4.133,-1.309 8.222,-2.571 12.277,-3.77 -2.824,47.859 -15.887,96.91 -24.531,143.359" /><path
         id="path68"
         style="fill:#fccc4d;fill-opacity:1;fill-rule:nonzero;stroke:none"
         d="m 493.703,529.539 c -16.699,62.359 -32.504,124.922 -47.441,187.77 -24.453,102.902 -50.633,207.332 -80.321,309.231 -2.89,-5.61 -4.992,-11.2 -6.382,-15.88 -1.934,6.67 -4.668,13.66 -8.043,20.53 23.586,-104.452 56.25,-206.53 80.988,-310.62 27.226,-114.558 61.629,-227.172 89.539,-341.379 4.066,-1.972 8.176,-3.882 12.297,-5.761 -7.266,52.718 -27.059,105.402 -40.637,156.109" /><path
         id="path70"
         style="fill:#fccc4d;fill-opacity:1;fill-rule:nonzero;stroke:none"
         d="m 1461.18,526.789 c 21.13,60.293 42.73,120.391 63.96,180.641 39.91,113.261 78.19,227.121 107.31,344.07 -1.57,-3.42 -3.17,-6.82 -4.83,-10.09 -0.67,2.11 -1.55,4.15 -2.55,6.16 -33.1,-111.148 -69.57,-221.14 -107.91,-330.39 -37.53,-106.961 -79.87,-212.649 -116.55,-319.891 5.42,3.223 10.71,6.543 15.87,9.973 17.6,38.508 30.78,79.82 44.7,119.527" /><path
         id="path72"
         style="fill:#fccc4d;fill-opacity:1;fill-rule:nonzero;stroke:none"
         d="m 1200.25,472.379 c -7.4,-50.219 -18.07,-101.57 -22.7,-152.609 4.28,0.851 8.56,1.691 12.8,2.589 9.35,50.77 14.38,103.321 21.98,154.012 10.47,69.848 20.58,139.738 30.34,209.688 13.3,95.371 41.12,195.472 44.07,293.23 -3.64,-5.59 -6.91,-11.48 -9.66,-17.488 -1.49,4.269 -3.22,8.398 -5.15,12.347 -14.12,-99.75 -29.27,-199.339 -42.87,-299.168 -9.19,-67.601 -18.88,-135.121 -28.81,-202.601" /><path
         id="path74"
         style="fill:#fccc4d;fill-opacity:1;fill-rule:nonzero;stroke:none"
         d="m 1275.48,343.871 c 20.66,113.25 41.08,226.25 66.49,338.539 23.48,103.738 48.7,207.82 64.97,313.25 -3.03,-6.398 -5.71,-12.898 -7.88,-19.308 -1.46,3.886 -3.01,7.808 -4.67,11.398 -20.88,-103.121 -42.75,-205.949 -65.05,-308.762 -12.84,-59.187 -25.96,-118.308 -37.51,-177.797 -10.1,-52.019 -25.24,-107.14 -28.07,-160.73 1.54,0.437 3.1,0.848 4.62,1.289 2.35,0.68 4.73,1.398 7.1,2.121" /><path
         id="path76"
         style="fill:#fccc4d;fill-opacity:1;fill-rule:nonzero;stroke:none"
         d="m 1451.93,750.859 c 23.59,90.692 54.11,180.071 76.16,271.381 -5.98,-9.99 -11.28,-20.63 -16.11,-31.01 -0.38,5.032 -1.07,9.83 -1.95,14.47 -25.11,-85.661 -49.86,-171.649 -72.01,-258.02 -17.39,-67.828 -34.62,-135.649 -53.27,-203.098 -16.1,-58.23 -40.71,-118.441 -47.89,-178.871 3.57,1.488 7.15,3.008 10.71,4.57 32.61,127.289 71.24,253.278 104.36,380.578" /><path
         id="path78"
         style="fill:#fccc4d;fill-opacity:1;fill-rule:nonzero;stroke:none"
         d="m 950.512,638.941 c -1.145,105.27 0.117,210.93 -3.086,316.219 -3.34,-4.82 -6.301,-10 -8.77,-15.289 -0.519,1.93 -1.172,3.891 -1.875,5.848 -2.238,-104.481 0.957,-209.379 1.524,-313.75 0.332,-61.739 0.703,-123.481 0.859,-185.219 0.137,-48.75 -2.402,-99.23 0.77,-148.359 1.308,0.031 2.636,0.031 3.937,0.058 3.504,-0.097 7.07,-0.117 10.613,-0.168 2.649,53.391 -2.39,109.219 -2.586,161.891 -0.214,59.59 -0.734,119.18 -1.386,178.769" /><path
         id="path80"
         style="fill:#fccc4d;fill-opacity:1;fill-rule:nonzero;stroke:none"
         d="m 1008.89,299.051 c 4.17,0.179 8.34,0.379 12.53,0.609 10.55,51.988 2.48,111.621 4.57,163.379 2.66,66.031 9.51,131.949 11.53,197.922 2.92,95.648 11.48,191.559 13.63,287.34 -4.01,-7.289 -7.3,-14.871 -9.99,-21.821 -0.97,3.629 -2.06,7.258 -3.22,10.84 -6.22,-88.398 -10.41,-177.191 -11.98,-265.629 -1.17,-65.293 -4.59,-129.39 -9.15,-194.531 -4.16,-59.398 -1.49,-119.019 -7.92,-178.109" /><path
         id="path82"
         style="fill:#fccc4d;fill-opacity:1;fill-rule:nonzero;stroke:none"
         d="m 1116.03,506.91 c -7.62,-66.332 -22.42,-134.34 -28.3,-201.441 4.78,0.582 9.58,1.203 14.36,1.832 3.81,20.859 5.5,42.39 8.31,63.168 5.41,40.101 11.2,80.133 16.36,120.261 9.8,76.301 17.97,152.911 24.15,229.629 6.48,80.379 13.15,160.879 19.15,241.27 -4.53,-7.59 -8.37,-15.609 -11.27,-23.59 l -0.44,0.762 c -7.06,-68.242 -13.77,-136.36 -19.25,-205.051 -6.04,-75.77 -14.4,-151.379 -23.07,-226.84" /><path
         id="path84"
         style="fill:#fcd465;fill-opacity:1;fill-rule:nonzero;stroke:none"
         d="m 1746.32,1081.23 c -0.3,6.65 -1.3,13.07 -3.39,19.08 -9.47,27.12 -34.79,28.96 -57.24,18.68 -16.64,-7.62 -27.6,-21.9 -37.82,-37.24 -7.65,-11.48 -13.42,-26.9 -20.25,-40.34 -2.17,6.77 -5.55,12.96 -12.99,18.89 -11.65,9.3 -24.19,11.34 -38.21,6.93 -30.46,-9.55 -49.58,-44.1 -64.44,-76 -1.89,26.02 -10.49,47.49 -27.32,55.86 -37.48,18.63 -71.31,-28.71 -85.6,-70.738 -2.79,7.418 -5.88,15.07 -9.55,20.058 -14.71,20.08 -31.46,24.79 -53.8,20.89 -24.68,-4.3 -46.45,-28.902 -58.63,-55.499 -8.98,25.64 -25.47,47.399 -56.12,42.479 -26.35,-4.23 -51.06,-35.639 -62.17,-66.241 -8.58,16.582 -23.96,31.383 -37.14,37.789 -46.57,22.641 -68.9,-19.34 -80.49,-49.348 -5.91,21.989 -14.25,44.469 -36.08,52.942 -29.404,11.406 -53.857,-12.672 -66.424,-39.551 -6.769,25.078 -29.433,54.449 -63.582,48.117 -21.613,-4 -33.758,-23.91 -41.824,-44.468 -16.363,25.769 -36.965,47.609 -70.434,33.23 -12.375,-5.309 -28.074,-20.012 -36.003,-36.371 -11.43,23.633 -40.239,49.891 -68.528,48.512 -28.551,-1.379 -42.207,-32.36 -44.976,-37.852 -1.856,6.992 -15.836,26.5 -27.836,36.25 -11.153,9.051 -23.727,15.371 -37.703,17.411 -30.364,4.43 -48.426,-8.438 -66.434,-30.2 -10.063,34.27 -22.574,64.29 -57.883,77 -40.199,14.47 -58.051,-21.17 -63.894,-40.84 -7.879,27.22 -28.957,59.76 -53.516,67.25 -28.305,8.65 -44.488,-8.92 -60.984,-27.71 -9.758,27.66 -26.301,50.93 -53.414,63.4 -23.993,11.02 -53.399,-1.01 -48.543,-33.21 33.711,47.23 78.402,-2.89 102.382,-31.75 32.106,28.1 55.106,15.52 64.801,11.55 16.793,-6.86 39.738,-36.33 49.488,-52.44 9.422,16.54 28.489,36.84 55.079,30.28 25.332,-6.25 50.074,-34.97 64.804,-69.928 16.785,21.226 55.297,31.32 86.004,19.976 19.445,-7.187 37.707,-27.168 47.723,-40.898 8.246,12.8 23.836,26.351 37.113,30.289 22.012,6.519 56.258,-16.559 76.289,-40.59 22.09,28.41 60.973,54 106.035,4.68 19.739,29.043 36.524,35.91 55.375,34.972 20.524,-1.031 36.524,-19.672 50.371,-39.961 12.668,20.918 37.532,36.86 53.606,34.032 22.978,-4.063 37.118,-20.293 48.598,-46.84 30.64,52.136 70.11,60.258 117.83,12.488 17.97,24.051 40.12,59.84 79.53,51.828 21.49,-4.367 28.86,-17.797 38.87,-28.719 11.49,14.981 35.94,40.27 56.85,43.391 27.95,4.17 48.92,-9.859 64.51,-29.352 8.54,14.993 40.94,57.762 70.4,55.882 23.24,-1.47 30.63,-13.42 42.41,-40.569 14.44,21.529 27.12,41.139 47.43,55.559 29.45,20.92 54.78,10.93 68.63,-9.36 13.84,27.62 59.02,65.31 82.32,66.49 19.13,0.98 30.48,-7.78 36.77,-20.17" /><path
         id="path86"
         style="fill:#feead4;fill-opacity:1;fill-rule:nonzero;stroke:none"
         d="m 968.227,298.102 c -8.188,0 -16.317,0.117 -24.356,0.347 -8.051,-0.23 -16.156,-0.347 -24.34,-0.347 -98.351,0 -205.355,16.609 -298.918,43.648 -55.855,16.148 -121.328,43.078 -168.226,80 -24.473,19.281 -36.637,50.73 -51.867,77.5 -11.29,19.852 -20.36,40.789 -29.809,61.551 0.016,-0.012 0.023,-0.012 0.035,-0.02 9.449,-20.742 18.492,-41.679 29.774,-61.531 15.23,-26.77 27.394,-58.219 51.867,-77.5 46.898,-36.922 112.371,-63.852 168.226,-80 93.563,-27.039 200.567,-43.648 298.918,-43.648 8.184,0 16.289,0.117 24.34,0.347 v 0 0 c 8.039,-0.23 16.168,-0.347 24.356,-0.347 98.523,0 206.593,16.609 300.153,43.648 v 0 0 0 c -93.56,-27.039 -201.63,-43.648 -300.153,-43.648" /><path
         id="path88"
         style="fill:#f9af19;fill-opacity:1;fill-rule:nonzero;stroke:none"
         d="m 968.227,298.102 c -8.188,0 -16.317,0.117 -24.356,0.347 3.504,-0.097 7.07,-0.117 10.613,-0.168 2.649,53.391 -2.39,109.219 -2.586,161.891 -0.039,9.957 -0.082,19.918 -0.132,29.867 21.875,2.742 44.078,6.16 66.624,10.352 -0.51,-7.731 -1.04,-15.469 -1.58,-23.231 -4.16,-59.398 -1.49,-119.019 -7.92,-178.109 4.17,0.179 8.34,0.379 12.53,0.609 10.55,51.988 2.48,111.621 4.57,163.379 0.53,13.063 1.22,26.121 2,39.172 29.5,5.75 59.52,12.809 89.95,21.367 -0.64,-5.558 -1.27,-11.109 -1.91,-16.668 -7.62,-66.332 -22.42,-134.34 -28.3,-201.441 4.78,0.582 9.58,1.203 14.36,1.832 3.81,20.859 5.5,42.39 8.31,63.168 5.41,40.101 11.2,80.133 16.36,120.261 1.57,12.231 3.1,24.469 4.59,36.711 26.67,7.86 53.65,16.879 80.86,27.18 -3.94,-27.422 -7.93,-54.84 -11.96,-82.242 -7.4,-50.219 -18.07,-101.57 -22.7,-152.609 4.28,0.851 8.56,1.691 12.8,2.589 9.35,50.77 14.38,103.321 21.98,154.012 4.14,27.66 8.23,55.34 12.27,83.02 28.79,11.269 57.9,24.019 87.11,38.32 -6.89,-32.109 -13.62,-64.262 -19.88,-96.52 -10.1,-52.019 -25.24,-107.14 -28.07,-160.73 1.54,0.437 3.1,0.848 4.62,1.289 -93.56,-27.039 -201.63,-43.648 -300.153,-43.648 m -48.696,0 c -98.351,0 -205.355,16.609 -298.918,43.648 -55.855,16.148 -121.328,43.078 -168.226,80 -24.473,19.281 -36.637,50.73 -51.867,77.5 -11.282,19.852 -20.325,40.789 -29.774,61.531 6.707,-2.16 21.711,-7.89 43.949,-15.359 1.2,-3.332 2.399,-6.66 3.598,-9.992 14.738,-40.899 28.695,-83.629 47.191,-123.34 5.418,-3.801 10.996,-7.508 16.754,-11.07 -16.504,46.609 -34.004,92.91 -51.633,139.179 15.325,-4.918 33.161,-10.308 53.325,-15.769 13.179,-48.301 26.234,-96.629 38.113,-145.239 4.066,-1.972 8.176,-3.882 12.297,-5.761 -6.871,49.84 -24.938,99.66 -38.363,147.789 23.851,-6.207 50.578,-12.41 79.871,-18.02 9.75,-52.051 18.961,-104.211 28.285,-156.429 4.133,-1.309 8.222,-2.571 12.277,-3.77 -2.824,47.859 -15.887,96.91 -24.531,143.359 -0.895,4.789 -1.797,9.582 -2.711,14.371 23.879,-4.308 49.266,-8.179 76.125,-11.332 0.621,-4.929 1.246,-9.859 1.875,-14.789 6.246,-49.218 9.973,-99.89 17.637,-149.238 4.402,-1 8.804,-1.992 13.246,-2.922 -3.805,51.34 -13.391,103.192 -19.656,153.781 -0.489,3.95 -0.977,7.911 -1.465,11.86 26.742,-2.879 54.769,-5.02 84,-6.141 4.386,-57.89 9.258,-115.75 16.312,-173.429 2.629,-0.372 5.262,-0.719 7.891,-1.071 1.613,57.313 -9.293,116.852 -14.293,174.16 11.859,-0.359 23.859,-0.539 36.074,-0.539 13.887,0 27.969,0.239 42.285,0.75 0.489,-7.468 0.969,-14.941 1.43,-22.422 1.902,-30.878 3.633,-61.597 3.887,-92.539 0.179,-22.058 -0.524,-44.89 3.453,-66.66 3.226,-0.211 6.449,-0.41 9.672,-0.597 -5.157,57.75 -5.149,115.976 -8.868,173.918 -0.187,2.89 -0.371,5.769 -0.554,8.66 26.289,1.14 53.242,3.199 80.808,6.34 0.055,-13.93 0.102,-27.84 0.137,-41.77 0.137,-48.75 -2.402,-99.23 0.77,-148.359 1.308,0.031 2.636,0.031 3.937,0.058 -8.051,-0.23 -16.156,-0.347 -24.34,-0.347" /><path
         id="path90"
         style="fill:#fabc44;fill-opacity:1;fill-rule:nonzero;stroke:none"
         d="m 482.238,401.02 c -5.758,3.562 -11.336,7.269 -16.754,11.07 -18.496,39.711 -32.453,82.441 -47.191,123.34 -1.199,3.332 -2.398,6.66 -3.598,9.992 4.95,-1.66 10.258,-3.41 15.91,-5.223 17.629,-46.269 35.129,-92.57 51.633,-139.179" /><path
         id="path92"
         style="fill:#fabc44;fill-opacity:1;fill-rule:nonzero;stroke:none"
         d="m 867.641,299.602 c -3.223,0.187 -6.446,0.386 -9.672,0.597 -3.977,21.77 -3.274,44.602 -3.453,66.66 -0.254,30.942 -1.985,61.661 -3.887,92.539 -0.461,7.481 -0.941,14.954 -1.43,22.422 2.992,0.11 6.012,0.231 9.02,0.36 0.183,-2.891 0.367,-5.77 0.554,-8.66 3.719,-57.942 3.711,-116.168 8.868,-173.918" /><path
         id="path94"
         style="fill:#fabc44;fill-opacity:1;fill-rule:nonzero;stroke:none"
         d="m 785.133,307.449 c -2.629,0.352 -5.262,0.699 -7.891,1.071 -7.054,57.679 -11.926,115.539 -16.312,173.429 3.269,-0.121 6.613,-0.238 9.91,-0.34 5,-57.308 15.906,-116.847 14.293,-174.16" /><path
         id="path96"
         style="fill:#fabc44;fill-opacity:1;fill-rule:nonzero;stroke:none"
         d="m 698.051,322.449 c -4.442,0.93 -8.844,1.922 -13.246,2.922 -7.664,49.348 -11.391,100.02 -17.637,149.238 -0.629,4.93 -1.254,9.86 -1.875,14.789 3.836,-0.449 7.742,-0.886 11.637,-1.308 0.488,-3.949 0.976,-7.91 1.465,-11.86 6.265,-50.589 15.851,-102.441 19.656,-153.781" /><path
         id="path98"
         style="fill:#fabc44;fill-opacity:1;fill-rule:nonzero;stroke:none"
         d="m 616.41,343 c -4.055,1.199 -8.144,2.461 -12.277,3.77 -9.324,52.218 -18.535,104.378 -28.285,156.429 4.382,-0.84 8.824,-1.66 13.32,-2.469 0.914,-4.789 1.816,-9.582 2.711,-14.371 8.644,-46.449 21.707,-95.5 24.531,-143.359" /><path
         id="path100"
         style="fill:#fabc44;fill-opacity:1;fill-rule:nonzero;stroke:none"
         d="m 534.34,373.43 c -4.121,1.879 -8.231,3.789 -12.297,5.761 -11.879,48.61 -24.934,96.938 -38.113,145.239 3.918,-1.071 7.961,-2.141 12.047,-3.211 13.425,-48.129 31.492,-97.949 38.363,-147.789" /><path
         id="path102"
         style="fill:#feead4;fill-opacity:1;fill-rule:nonzero;stroke:none"
         d="m 1654.7,839.488 c 1.16,2.524 2.3,5 3.44,7.473 v 0 C 1657,844.5 1655.86,842 1654.7,839.488" /><path
         id="path104"
         style="fill:#f9af19;fill-opacity:1;fill-rule:nonzero;stroke:none"
         d="m 1269.56,342.102 c 1.96,0.57 3.95,1.168 5.92,1.769 15.88,87.051 31.61,173.938 49.58,260.481 29.51,14.91 59.16,31.429 88.9,49.726 -9.49,-36.566 -19.14,-73.09 -29.21,-109.496 -16.1,-58.23 -40.71,-118.441 -47.89,-178.871 3.57,1.488 7.15,3.008 10.71,4.57 25.1,97.957 53.76,195.149 80.73,292.758 30.81,19.543 61.63,40.949 92.48,64.481 -1.2,-3.45 -2.41,-6.891 -3.62,-10.34 -37.53,-106.961 -79.87,-212.649 -116.55,-319.891 5.42,3.223 10.71,6.543 15.87,9.973 17.6,38.508 30.78,79.82 44.7,119.527 21.13,60.293 42.73,120.391 63.96,180.641 3.78,10.73 7.55,21.468 11.29,32.211 40.73,32 81.34,67.629 121.71,107.32 -1.14,-2.473 -2.28,-4.949 -3.44,-7.473 C 1607.27,736.629 1540.81,596.602 1488.47,499.25 v 0 c -14.6,-27.16 -27.39,-58.219 -51.87,-77.5 -46.56,-36.66 -111.45,-63.469 -167.04,-79.648" /><path
         id="path106"
         style="fill:#fabc44;fill-opacity:1;fill-rule:nonzero;stroke:none"
         d="m 1400.61,397.289 c 36.68,107.242 79.02,212.93 116.55,319.891 1.21,3.449 2.42,6.89 3.62,10.34 5.2,3.968 10.46,8.039 15.65,12.121 -3.74,-10.743 -7.51,-21.481 -11.29,-32.211 -21.23,-60.25 -42.83,-120.348 -63.96,-180.641 -13.92,-39.707 -27.1,-81.019 -44.7,-119.527 -5.16,-3.43 -10.45,-6.75 -15.87,-9.973" /><path
         id="path108"
         style="fill:#fabc44;fill-opacity:1;fill-rule:nonzero;stroke:none"
         d="m 1177.55,319.77 c 4.63,51.039 15.3,102.39 22.7,152.609 4.03,27.402 8.02,54.82 11.96,82.242 4.14,1.559 8.24,3.141 12.39,4.77 -4.04,-27.68 -8.13,-55.36 -12.27,-83.02 -7.6,-50.691 -12.63,-103.242 -21.98,-154.012 -4.24,-0.898 -8.52,-1.738 -12.8,-2.589" /><path
         id="path110"
         style="fill:#fabc44;fill-opacity:1;fill-rule:nonzero;stroke:none"
         d="m 1263.76,340.461 c 2.83,53.59 17.97,108.711 28.07,160.73 6.26,32.258 12.99,64.411 19.88,96.52 4.46,2.18 8.89,4.379 13.35,6.641 -17.97,-86.543 -33.7,-173.43 -49.58,-260.481 -1.97,-0.601 -3.96,-1.199 -5.92,-1.769 v 0 c -0.39,-0.122 -0.79,-0.231 -1.18,-0.352 v 0 0 c -1.52,-0.441 -3.08,-0.852 -4.62,-1.289" /><path
         id="path112"
         style="fill:#fabc44;fill-opacity:1;fill-rule:nonzero;stroke:none"
         d="m 1336.86,365.711 c 7.18,60.43 31.79,120.641 47.89,178.871 10.07,36.406 19.72,72.93 29.21,109.496 4.75,2.934 9.58,5.942 14.34,8.961 -26.97,-97.609 -55.63,-194.801 -80.73,-292.758 -3.56,-1.562 -7.14,-3.082 -10.71,-4.57" /><path
         id="path114"
         style="fill:#fabc44;fill-opacity:1;fill-rule:nonzero;stroke:none"
         d="m 954.484,298.281 c -3.543,0.051 -7.109,0.071 -10.613,0.168 v 0 0 c -1.301,-0.027 -2.629,-0.027 -3.937,-0.058 -3.172,49.129 -0.633,99.609 -0.77,148.359 -0.035,13.93 -0.082,27.84 -0.137,41.77 4.207,0.48 8.504,0.992 12.739,1.519 0.05,-9.949 0.093,-19.91 0.132,-29.867 0.196,-52.672 5.235,-108.5 2.586,-161.891" /><path
         id="path116"
         style="fill:#fabc44;fill-opacity:1;fill-rule:nonzero;stroke:none"
         d="m 1008.89,299.051 c 6.43,59.09 3.76,118.711 7.92,178.109 0.54,7.762 1.07,15.5 1.58,23.231 3.2,0.589 6.38,1.199 9.6,1.82 -0.78,-13.051 -1.47,-26.109 -2,-39.172 -2.09,-51.758 5.98,-111.391 -4.57,-163.379 -4.19,-0.23 -8.36,-0.43 -12.53,-0.609" /><path
         id="path118"
         style="fill:#fabc44;fill-opacity:1;fill-rule:nonzero;stroke:none"
         d="m 1087.73,305.469 c 5.88,67.101 20.68,135.109 28.3,201.441 0.64,5.559 1.27,11.11 1.91,16.668 4.45,1.25 8.94,2.551 13.41,3.863 -1.49,-12.242 -3.02,-24.48 -4.59,-36.711 -5.16,-40.128 -10.95,-80.16 -16.36,-120.261 -2.81,-20.778 -4.5,-42.309 -8.31,-63.168 -4.78,-0.629 -9.58,-1.25 -14.36,-1.832" /><path
         id="path120"
         style="fill:#643431;fill-opacity:1;fill-rule:nonzero;stroke:none"
         d="m 1763.36,1166.38 c -10.87,102.36 -68.95,202.21 -139.72,267.55 -103.35,95.44 -226.36,145.5 -360.22,171.77 -62,12.18 -124.76,19.71 -187.6,24.99 -274.726,23.11 -685.777,-20.75 -867.156,-278.47 -13.242,-18.81 -25.176,-38.65 -35.684,-59.3 -42.035,-82.65 -66.179,-227.78 16.247,-290.97 83.062,-63.68 109.57,-18.731 184.234,-79.802 50.883,-41.609 68.383,-103.898 146.25,-101.886 72.461,1.867 134.242,119 207.285,72.898 42.102,-26.57 63.895,-79.859 117.899,-61.66 33.472,11.281 67.183,49.129 102.226,55.148 52.889,9.09 83.869,-48.859 126.349,-70.136 70.39,-35.262 128.52,56.347 180.26,89.91 47.36,30.707 71.57,25.297 115.68,-2.711 30.94,-19.66 50.18,-40.473 87.99,-42.449 1.04,-0.043 2.04,-0.024 3.05,-0.024 13.7,1.711 26.92,6.981 38.9,17.153 16.09,13.687 28.37,31.847 45.6,44.129 36.73,26.179 81.42,21.14 122.54,32.121 26.02,6.961 46.74,22.398 62.52,42.757 5.62,8.862 10.74,18.712 15.27,29.892 18.13,44.84 23.05,92.23 18.08,139.09" /><path
         id="path122"
         style="fill:#eae2e0;fill-opacity:1;fill-rule:nonzero;stroke:none"
         d="m 1765.19,1132.29 c 0,11.36 -0.62,22.74 -1.83,34.09 1.21,-11.35 1.83,-22.73 1.83,-34.09 m -1.83,34.09 c -10.77,101.46 -67.94,200.45 -137.86,265.82 69.92,-65.37 127.09,-164.35 137.86,-265.82 M 208.898,1352.56 c 0.043,0.05 0.082,0.11 0.122,0.16 -0.047,-0.06 -0.075,-0.1 -0.122,-0.16 m 0.239,0.33 c 0.043,0.06 0.086,0.12 0.129,0.18 -0.047,-0.06 -0.086,-0.12 -0.129,-0.18 m 0.238,0.34 c 0.047,0.06 0.09,0.12 0.133,0.19 -0.043,-0.07 -0.09,-0.13 -0.133,-0.19 m 0.242,0.34 c 0.039,0.06 0.082,0.12 0.121,0.17 -0.031,-0.04 -0.09,-0.12 -0.121,-0.17 m 0.246,0.35 c 0.039,0.05 0.075,0.1 0.114,0.15 -0.036,-0.04 -0.079,-0.1 -0.114,-0.15 m 0.262,0.37 c 0.027,0.03 0.055,0.07 0.082,0.11 -0.023,-0.03 -0.059,-0.08 -0.082,-0.11 m 0.281,0.39 c 0.016,0.02 0.024,0.03 0.039,0.05 -0.011,-0.01 -0.027,-0.03 -0.039,-0.05 m 1412.834,79.62 c -0.02,0.02 -0.04,0.03 -0.06,0.05 0.02,-0.02 0.04,-0.03 0.06,-0.05" /><path
         id="path124"
         style="fill:#5c2f2d;fill-opacity:1;fill-rule:nonzero;stroke:none"
         d="m 1114.57,834.41 c -6.1,0 -12.34,1.039 -18.72,3.328 -35.29,12.653 -60.09,96.153 -122.526,98.653 -0.633,0.031 -1.265,0.039 -1.894,0.039 -25.821,0 -49.559,-21 -73.223,-42 -23.664,-21 -47.254,-42 -72.766,-42 -1.753,0 -3.515,0.09 -5.289,0.3 -48.367,5.598 -67.757,88.52 -115.461,98.641 -4.242,0.899 -8.429,1.328 -12.562,1.328 -32.961,0 -62.656,-26.969 -92.035,-53.929 -29.383,-26.961 -58.446,-53.93 -90.137,-53.93 -6.062,0 -12.227,0.988 -18.504,3.148 -56.25,19.41 -53.848,104.153 -104.879,135.852 -18.644,11.582 -40.219,13.57 -62.379,13.57 -5.793,0 -11.625,-0.129 -17.453,-0.269 -5.832,-0.141 -11.66,-0.27 -17.445,-0.27 -6.531,0 -13.008,0.168 -19.367,0.711 -36.989,3.148 -72.563,17.738 -98.969,44.948 -9.801,10.11 -22.121,26.52 -31.055,40.84 7.004,-30.55 21.133,-57.86 44.918,-77.88 -36.625,30.82 -50.445,78.88 -50.441,129.54 0.004,56.04 16.926,115.27 38.597,157.89 10.508,20.65 22.442,40.49 35.684,59.3 0.078,0.11 0.156,0.22 0.234,0.34 0.047,0.06 0.075,0.1 0.122,0.16 0.039,0.06 0.078,0.12 0.117,0.17 0.043,0.06 0.082,0.12 0.129,0.18 0.035,0.06 0.074,0.11 0.109,0.16 0.043,0.06 0.09,0.12 0.133,0.19 0.039,0.05 0.07,0.1 0.109,0.15 0.031,0.05 0.09,0.13 0.121,0.17 0.043,0.06 0.086,0.12 0.125,0.18 0.035,0.05 0.078,0.11 0.114,0.15 0.046,0.08 0.097,0.15 0.148,0.22 0.023,0.03 0.059,0.08 0.082,0.11 0.066,0.09 0.137,0.19 0.199,0.28 0.012,0.02 0.028,0.04 0.039,0.05 18.137,25.43 38.539,48.73 60.836,70.07 -8.355,-8.02 -16.437,-16.3 -24.242,-24.87 11.832,-10.94 31.531,-21.48 72.379,-21.48 20.645,-53.01 42.035,-101.14 114.355,-101.14 5.586,0 11.469,0.29 17.688,0.88 1.215,-0.97 2.43,-1.92 3.664,-2.88 4.367,-51.17 53.188,-78.95 102.445,-78.95 0.465,0 0.922,0 1.387,0 16.793,0.18 33.141,3.22 49.156,8.06 22.633,-6.43 45.114,-11.75 66.559,-16.41 68.742,-14.92 138.086,-22.51 207.539,-23.85 15.891,-3.08 32.031,-4.67 48.195,-4.67 0.211,0 0.414,0 0.621,0 16.543,0.04 33.09,2.46 49.371,6.81 56.192,3.47 112.292,10.7 168.012,21.09 60.92,11.36 121.7,26.29 179.96,48.63 88.68,3.75 176.43,38.15 249.37,96.22 27,21.5 57.05,42.22 74.52,72.49 -9.25,10.32 -18.8,20.13 -28.62,29.2 v 0 0 c 0.62,-0.57 1.24,-1.15 1.86,-1.73 69.92,-65.37 127.09,-164.36 137.86,-265.82 v 0 0 c 1.21,-11.35 1.83,-22.73 1.83,-34.09 -0.02,-35.39 -6.11,-70.65 -19.7,-104.47 -0.07,-0.18 -0.14,-0.35 -0.21,-0.53 -3.4,-8.41 -7.14,-16.06 -11.18,-23.11 -16.73,-11.34 -36.03,-19.989 -58.57,-25.328 -24.82,-5.891 -77.76,-9.993 -115.47,-23.731 -13.52,-4.93 -57.6,-42.59 -70.68,-48.699 -6.27,-2.922 -12.33,-4.223 -18.24,-4.231 -47.34,-0.011 -84.86,83.629 -139.64,86.649 -1.43,0.082 -2.83,0.121 -4.21,0.121 -47.33,0 -71.96,-44.949 -107.73,-80.039 -31.87,-31.274 -65.66,-74.5 -104.99,-74.512 M 1100,873.84 c -7.96,0 -10.97,-11.602 -2.51,-14.66 9.09,-3.282 15.45,-8.469 25.24,-10.289 3.39,-0.629 6.69,-1.012 9.96,-1.012 4.31,0 8.56,0.672 12.89,2.301 12.4,4.679 26.34,12.16 30.36,26.308 1.64,5.742 -2.84,9.942 -7.6,9.942 -1.2,0 -2.42,-0.27 -3.56,-0.852 -8.7,-4.406 -16.66,-11.449 -25.73,-14.887 -2.94,-1.121 -6.16,-1.55 -9.51,-1.55 -9.32,0 -19.73,3.328 -28.26,4.609 -0.44,0.059 -0.87,0.09 -1.28,0.09 m -281.359,13.742 c -2.762,0 -5.422,-0.48 -7.809,-2.422 -4.019,-3.262 -4.684,-9.289 0,-12.43 4.063,-2.718 6.887,-6.082 11.77,-7.242 2.3,-0.539 4.718,-0.769 7.132,-0.769 2.09,0 4.176,0.172 6.188,0.472 9.828,1.457 14.613,8.18 19.262,16.618 2.621,4.769 0.281,11.57 -4.954,12.902 -1.242,0.32 -2.468,0.48 -3.667,0.48 -2.622,0 -5.141,-0.75 -7.575,-2.222 -2.277,-1.36 -3.922,-3.77 -6.261,-4.789 -1.86,-0.821 -3.809,-1.059 -5.789,-1.059 -1.383,0 -2.778,0.109 -4.165,0.231 -1.39,0.117 -2.773,0.23 -4.132,0.23 m -341.18,13.938 c -3.395,0 -6.57,-3.829 -4.387,-7.711 7.352,-13.039 19.785,-25.25 34.461,-25.25 3.051,0 6.192,0.531 9.406,1.679 8.024,2.871 8.133,14.563 0,17.403 -6.367,2.218 -13.101,1.109 -19.55,3.058 -6.118,1.84 -11.993,4.731 -16.641,9.391 -0.992,1 -2.152,1.43 -3.289,1.43 m 58.742,-10.86 c -5.117,0 -5.121,-8.43 0,-8.43 5.117,0 5.129,8.43 0,8.43 m 657.447,21.43 c -9.92,0 -9.94,-16.328 0,-16.328 9.91,0 9.93,16.328 0,16.328 m 274.58,28.121 c -4.6,0 -9.39,-1.109 -12.95,-3.77 -6.72,-2.812 -6.73,-12.269 0,-15.089 3.56,-2.653 8.35,-3.77 12.96,-3.77 2.51,0 4.97,0.328 7.14,0.93 9.67,2.668 9.68,18.109 0,20.769 -2.17,0.598 -4.63,0.93 -7.15,0.93 m 27.04,7.641 c -10.88,0 -10.9,-17.911 0,-17.911 10.87,0 10.88,17.911 0,17.911 m 217.13,74.488 c -0.11,0 -0.23,0 -0.35,-0.02 -67.2,-8.79 -130.88,-8.51 -190.88,-47.39 -8.74,-5.668 -3.47,-18.461 4.81,-18.461 1.47,0 3.04,0.41 4.64,1.332 37.89,21.73 74.21,34.301 117.52,35.469 3.06,0.082 6.12,0.089 9.16,0.089 0.58,0 1.16,0 1.74,0 0.55,0 1.11,0 1.67,0 21.66,0 41.82,0.563 54.2,23.681 1.08,1.99 -0.13,5.3 -2.51,5.3 m -1543.572,87.94 c -5.89,0 -11.297,-7.58 -7.515,-13.58 4.55,-7.22 5.191,-16.61 8.48,-24.54 3.637,-8.75 8.828,-17.29 15.398,-23.92 10.762,-10.86 27.008,-23.94 42.645,-23.94 1.012,0 2.023,0.05 3.031,0.17 5.496,0.62 11.68,3.9 12.844,10.36 0.477,2.65 0.711,4.87 0,7.51 -1.559,5.79 -6.828,10.36 -12.606,10.36 -0.082,0 -0.16,0 -0.238,0 -0.129,0 -0.258,0 -0.387,0 -13.695,-0.01 -29.359,15.75 -36.871,26.73 -7.074,10.33 -10.398,22.25 -20.742,29.53 -1.301,0.92 -2.683,1.32 -4.039,1.32 m 84.61,-63.03 c -4.208,0 -7.958,-3.86 -7.958,-8.46 0,-4.59 3.75,-8.46 7.961,-8.46 0.696,0 1.403,0.1 2.11,0.33 3.629,1.16 7.234,2.37 10.832,3.64 4.168,1.47 4.172,7.51 0,8.98 -3.598,1.27 -7.203,2.48 -10.832,3.64 -0.707,0.23 -1.418,0.33 -2.113,0.33 m 1482.042,10.16 c -0.53,0 -1.07,-0.16 -1.58,-0.53 -2.54,-1.84 -4.32,-4.02 -7.22,-5.44 -5.48,-2.68 -5.11,-11.14 -0.85,-14.62 1.55,-1.26 3.31,-1.84 5.03,-1.84 3.55,0 6.95,2.44 8.12,6.44 1.17,4.04 2.15,10.48 -0.43,14.17 -0.71,1.02 -1.87,1.82 -3.07,1.82 m -5.47,-60.012 c 1.3,2.051 2.57,4.162 3.83,6.322 -1.25,-2.16 -2.53,-4.271 -3.83,-6.322 M 189,1002.12 c -0.012,0.01 -0.016,0.02 -0.027,0.02 0.007,0 0.019,-0.01 0.027,-0.02 m -3.316,2.65 c -0.008,0.01 -0.02,0.01 -0.028,0.02 0.012,-0.01 0.016,-0.01 0.028,-0.02 m -0.219,0.18 c -0.016,0.01 -0.02,0.01 -0.031,0.03 0.007,-0.01 0.019,-0.02 0.031,-0.03 m -0.219,0.18 c -0.027,0.03 -0.055,0.05 -0.082,0.07 0.027,-0.02 0.055,-0.05 0.082,-0.07 m -0.191,0.16 c -0.059,0.05 -0.125,0.11 -0.184,0.16 0.063,-0.05 0.125,-0.11 0.184,-0.16" /><path
         id="path126"
         style="fill:#d99f17;fill-opacity:1;fill-rule:nonzero;stroke:none"
         d="m 270.477,963.531 c -22.364,4.367 -47,12.16 -81.25,38.419 -0.075,0.06 -0.153,0.11 -0.227,0.17 0.074,-0.06 0.152,-0.11 0.227,-0.17 34.25,-26.259 58.886,-34.052 81.25,-38.419 v 0" /><path
         id="path128"
         style="fill:#d99f17;fill-opacity:1;fill-rule:nonzero;stroke:none"
         d="m 188.973,1002.14 c -1.118,0.86 -2.211,1.74 -3.289,2.63 1.074,-0.89 2.175,-1.77 3.289,-2.63" /><path
         id="path130"
         style="fill:#ddcfcd;fill-opacity:1;fill-rule:nonzero;stroke:none"
         d="m 1733.84,1003.72 c 0.09,0.15 0.17,0.31 0.26,0.46 v 0 c -0.08,-0.15 -0.17,-0.3 -0.26,-0.46" /><path
         id="path132"
         style="fill:#d99f17;fill-opacity:1;fill-rule:nonzero;stroke:none"
         d="m 185.656,1004.79 c -0.066,0.06 -0.129,0.11 -0.191,0.16 0.062,-0.05 0.129,-0.11 0.191,-0.16 m -0.222,0.19 c -0.063,0.05 -0.125,0.1 -0.188,0.15 0.059,-0.05 0.129,-0.11 0.188,-0.15 m -0.27,0.22 c -0.035,0.03 -0.07,0.06 -0.109,0.09 0.039,-0.03 0.07,-0.06 0.109,-0.09 m -0.293,0.25 c -0.016,0.01 -0.031,0.02 -0.047,0.04 0.02,-0.02 0.028,-0.03 0.047,-0.04" /><path
         id="path134"
         style="fill:#502725;fill-opacity:1;fill-rule:nonzero;stroke:none"
         d="m 1105.72,808.57 c -10.46,0 -21.21,2.41 -32.25,7.942 v 0 c -0.08,0.039 -0.15,0.066 -0.23,0.109 -0.08,0.051 -0.17,0.09 -0.26,0.141 -0.05,0.019 -0.11,0.047 -0.16,0.078 -0.33,0.172 -0.67,0.34 -1,0.519 -0.21,0.11 -0.42,0.223 -0.62,0.332 -0.03,0.008 -0.07,0.028 -0.1,0.047 -0.07,0.043 -0.14,0.082 -0.21,0.114 -0.16,0.089 -0.31,0.168 -0.47,0.257 -0.28,0.153 -0.55,0.301 -0.83,0.461 -0.07,0.039 -0.15,0.078 -0.23,0.129 0,0 -0.01,0 -0.01,0.012 h -0.01 c -1.09,0.617 -2.18,1.258 -3.27,1.918 0,0 0,0.012 -0.01,0.012 -35.85,21.941 -64.49,66.968 -107.884,66.968 -3.578,0 -7.262,-0.3 -11.055,-0.949 -33.332,-5.738 -65.461,-40.262 -97.32,-53.332 -1.625,-0.656 -3.242,-1.269 -4.867,-1.816 -0.012,0 -0.028,-0.012 -0.039,-0.012 -4.25,-1.43 -8.305,-2.422 -12.184,-3.02 -3.066,-0.468 -6.016,-0.691 -8.879,-0.691 -35.898,0 -56.672,35.172 -87.332,58.711 -3.062,2.352 -6.223,4.59 -9.504,6.66 -1.101,0.692 -2.195,1.352 -3.293,1.969 -10.844,6.152 -21.449,8.769 -31.883,8.769 -20.183,0 -39.73,-9.789 -59.168,-22.668 -4.781,-3.171 -9.554,-6.519 -14.332,-9.96 -32.023,-23.09 -64.109,-50.122 -98.609,-51.008 -1.238,-0.032 -2.445,-0.051 -3.648,-0.051 -58.403,0 -82.024,37.211 -113.426,73.019 -6.844,7.801 -14.059,15.54 -22.082,22.809 -2.297,2.082 -4.657,4.121 -7.094,6.109 -39.215,32.082 -65.145,34.903 -92.961,39.582 -3.305,0.559 -6.641,1.141 -10.023,1.801 -22.364,4.367 -47,12.16 -81.25,38.419 -0.075,0.06 -0.153,0.11 -0.227,0.17 -0.008,0.01 -0.02,0.02 -0.027,0.02 -1.114,0.86 -2.215,1.74 -3.289,2.63 -0.012,0.01 -0.016,0.01 -0.028,0.02 -0.062,0.05 -0.129,0.11 -0.191,0.16 -0.012,0.01 -0.024,0.02 -0.031,0.03 -0.059,0.04 -0.129,0.1 -0.188,0.15 -0.027,0.02 -0.055,0.05 -0.082,0.07 -0.039,0.03 -0.07,0.06 -0.109,0.09 -0.059,0.05 -0.121,0.11 -0.184,0.16 -0.019,0.01 -0.027,0.02 -0.047,0.04 -23.785,20.02 -37.914,47.33 -44.918,77.88 8.934,-14.32 21.254,-30.73 31.055,-40.84 26.406,-27.21 61.98,-41.8 98.969,-44.948 6.359,-0.543 12.836,-0.711 19.367,-0.711 5.785,0 11.613,0.129 17.445,0.27 5.828,0.14 11.66,0.269 17.453,0.269 22.16,0 43.735,-1.988 62.379,-13.57 51.031,-31.699 48.629,-116.442 104.879,-135.852 6.277,-2.16 12.442,-3.148 18.504,-3.148 31.691,0 60.754,26.969 90.137,53.93 29.379,26.96 59.074,53.929 92.035,53.929 4.133,0 8.32,-0.429 12.562,-1.328 47.704,-10.121 67.094,-93.043 115.461,-98.641 1.774,-0.21 3.536,-0.3 5.289,-0.3 25.512,0 49.102,21 72.766,42 23.664,21 47.402,42 73.223,42 0.629,0 1.261,-0.008 1.894,-0.039 62.436,-2.5 87.236,-86 122.526,-98.653 6.38,-2.289 12.62,-3.328 18.72,-3.328 39.33,0.012 73.12,43.238 104.99,74.512 35.77,35.09 60.4,80.039 107.73,80.039 1.38,0 2.78,-0.039 4.21,-0.121 54.78,-3.02 92.3,-86.66 139.64,-86.649 5.91,0.008 11.97,1.309 18.24,4.231 13.08,6.109 57.16,43.769 70.68,48.699 37.71,13.738 90.65,17.84 115.47,23.731 22.54,5.339 41.84,13.988 58.57,25.328 -0.09,-0.15 -0.17,-0.31 -0.26,-0.46 -1.26,-2.16 -2.53,-4.271 -3.83,-6.322 v 0 c -15.78,-20.359 -36.5,-35.796 -62.52,-42.757 -21.04,-5.621 -43.02,-7.039 -64.39,-10.602 -3.53,-0.59 -7.04,-1.238 -10.52,-1.969 -16.67,-3.5 -32.79,-8.98 -47.63,-19.55 -17.23,-12.282 -29.51,-30.442 -45.6,-44.129 -4.47,-3.789 -9.12,-6.911 -13.9,-9.411 -5.35,-2.8 -10.87,-4.839 -16.51,-6.199 -2.8,-0.672 -5.63,-1.191 -8.49,-1.543 -0.45,0 -0.91,-0.008 -1.36,-0.008 -0.56,0 -1.12,0.008 -1.69,0.032 -29.63,1.547 -47.86,14.668 -69.25,29.726 -3.84,2.711 -7.79,5.481 -11.93,8.262 -2.21,1.48 -4.48,2.969 -6.81,4.461 -23.57,14.969 -41.46,23.48 -60.23,23.48 -8.52,0 -17.23,-1.75 -26.73,-5.461 -6.08,-2.371 -12.5,-5.539 -19.41,-9.558 -3,-1.762 -6.1,-3.672 -9.31,-5.75 -29.02,-18.832 -60.05,-55.91 -94.13,-78.633 -4.29,-2.859 -8.63,-5.488 -13.02,-7.828 -13.15,-7.012 -26.75,-11.391 -40.86,-11.391" /><path
         id="path136"
         style="fill:#934b46;fill-opacity:1;fill-rule:nonzero;stroke:none"
         d="m 227.836,1024.3 c -15.637,0 -31.883,13.08 -42.645,23.94 -6.57,6.63 -11.761,15.17 -15.398,23.92 -3.289,7.93 -3.93,17.32 -8.48,24.54 -3.782,6 1.625,13.58 7.515,13.58 1.356,0 2.738,-0.4 4.039,-1.32 10.344,-7.28 13.668,-19.2 20.742,-29.53 7.512,-10.98 23.176,-26.74 36.871,-26.73 0.129,0 0.258,0 0.387,0 0.078,0 0.156,0 0.238,0 5.778,0 11.047,-4.57 12.606,-10.36 0.711,-2.64 0.477,-4.86 0,-7.51 -1.164,-6.46 -7.348,-9.74 -12.844,-10.36 -1.008,-0.12 -2.019,-0.17 -3.031,-0.17" /><path
         id="path138"
         style="fill:#934b46;fill-opacity:1;fill-rule:nonzero;stroke:none"
         d="m 253.441,1030.33 c -4.211,0 -7.961,3.87 -7.961,8.46 0,4.6 3.75,8.46 7.958,8.46 0.695,0 1.406,-0.1 2.113,-0.33 3.629,-1.16 7.234,-2.37 10.832,-3.64 4.172,-1.47 4.168,-7.51 0,-8.98 -3.598,-1.27 -7.203,-2.48 -10.832,-3.64 -0.707,-0.23 -1.414,-0.33 -2.11,-0.33" /><path
         id="path140"
         style="fill:#934b46;fill-opacity:1;fill-rule:nonzero;stroke:none"
         d="m 507.535,868.559 c -14.676,0 -27.109,12.211 -34.461,25.25 -2.183,3.882 0.992,7.711 4.387,7.711 1.137,0 2.297,-0.43 3.289,-1.43 4.648,-4.66 10.523,-7.551 16.641,-9.391 6.449,-1.949 13.183,-0.84 19.55,-3.058 8.133,-2.84 8.024,-14.532 0,-17.403 -3.214,-1.148 -6.355,-1.679 -9.406,-1.679" /><path
         id="path142"
         style="fill:#934b46;fill-opacity:1;fill-rule:nonzero;stroke:none"
         d="m 536.203,882.23 c -5.121,0 -5.117,8.43 0,8.43 5.129,0 5.117,-8.43 0,-8.43" /><path
         id="path144"
         style="fill:#934b46;fill-opacity:1;fill-rule:nonzero;stroke:none"
         d="m 829.734,864.719 c -2.414,0 -4.832,0.23 -7.132,0.769 -4.883,1.16 -7.707,4.524 -11.77,7.242 -4.684,3.141 -4.019,9.168 0,12.43 2.387,1.942 5.047,2.422 7.809,2.422 1.359,0 2.742,-0.113 4.132,-0.23 1.387,-0.122 2.782,-0.231 4.165,-0.231 1.98,0 3.929,0.238 5.789,1.059 2.339,1.019 3.984,3.429 6.261,4.789 2.434,1.472 4.953,2.222 7.575,2.222 1.199,0 2.425,-0.16 3.667,-0.48 5.235,-1.332 7.575,-8.133 4.954,-12.902 -4.649,-8.438 -9.434,-15.161 -19.262,-16.618 -2.012,-0.3 -4.098,-0.472 -6.188,-0.472" /><path
         id="path146"
         style="fill:#934b46;fill-opacity:1;fill-rule:nonzero;stroke:none"
         d="m 1132.69,847.879 c -3.27,0 -6.57,0.383 -9.96,1.012 -9.79,1.82 -16.15,7.007 -25.24,10.289 -8.46,3.058 -5.45,14.66 2.51,14.66 0.41,0 0.84,-0.031 1.28,-0.09 8.53,-1.281 18.94,-4.609 28.26,-4.609 3.35,0 6.57,0.429 9.51,1.55 9.07,3.438 17.03,10.481 25.73,14.887 1.14,0.582 2.36,0.852 3.56,0.852 4.76,0 9.24,-4.2 7.6,-9.942 -4.02,-14.148 -17.96,-21.629 -30.36,-26.308 -4.33,-1.629 -8.58,-2.301 -12.89,-2.301" /><path
         id="path148"
         style="fill:#934b46;fill-opacity:1;fill-rule:nonzero;stroke:none"
         d="m 1193.65,895.762 c -9.94,0 -9.92,16.328 0,16.328 9.93,0 9.91,-16.328 0,-16.328" /><path
         id="path150"
         style="fill:#934b46;fill-opacity:1;fill-rule:nonzero;stroke:none"
         d="m 1468.24,917.582 c -4.61,0 -9.4,1.117 -12.96,3.77 -6.73,2.82 -6.72,12.277 0,15.089 3.56,2.661 8.35,3.77 12.95,3.77 2.52,0 4.98,-0.332 7.15,-0.93 9.68,-2.66 9.67,-18.101 0,-20.769 -2.17,-0.602 -4.63,-0.93 -7.14,-0.93" /><path
         id="path152"
         style="fill:#934b46;fill-opacity:1;fill-rule:nonzero;stroke:none"
         d="m 1495.27,929.941 c -10.9,0 -10.88,17.911 0,17.911 10.88,0 10.87,-17.911 0,-17.911" /><path
         id="path154"
         style="fill:#934b46;fill-opacity:1;fill-rule:nonzero;stroke:none"
         d="m 1525.98,956.469 c -8.28,0 -13.55,12.793 -4.81,18.461 60,38.88 123.68,38.6 190.88,47.39 0.12,0.02 0.24,0.02 0.35,0.02 2.38,0 3.59,-3.31 2.51,-5.3 -12.38,-23.118 -32.54,-23.681 -54.2,-23.681 -0.56,0 -1.12,0 -1.67,0 -0.58,0 -1.16,0 -1.74,0 -3.04,0 -6.1,-0.007 -9.16,-0.089 -43.31,-1.168 -79.63,-13.739 -117.52,-35.469 -1.6,-0.922 -3.17,-1.332 -4.64,-1.332" /><path
         id="path156"
         style="fill:#934b46;fill-opacity:1;fill-rule:nonzero;stroke:none"
         d="m 1730.86,1034.98 c -1.72,0 -3.48,0.58 -5.03,1.84 -4.26,3.48 -4.63,11.94 0.85,14.62 2.9,1.42 4.68,3.6 7.22,5.44 0.51,0.37 1.05,0.53 1.58,0.53 1.2,0 2.36,-0.8 3.07,-1.82 2.58,-3.69 1.6,-10.13 0.43,-14.17 -1.17,-4 -4.57,-6.44 -8.12,-6.44" /><path
         id="path158"
         style="fill:#505055;fill-opacity:1;fill-rule:nonzero;stroke:none"
         d="m 1246.66,2337.48 c 0,0 121.41,14.78 199.12,-47.44 103.92,-83.22 134.31,-208.54 146.1,-339.66 11.78,-131.12 -23.57,-310.94 -23.57,-310.94 0,0 -106.03,-81.17 -156.7,-86.16 -50.66,-5 -164.95,784.2 -164.95,784.2" /><path
         id="path160"
         style="fill:#6e7074;fill-opacity:1;fill-rule:nonzero;stroke:none"
         d="m 1383.89,2280.6 c -24.98,25.59 -55.02,44.69 -90.53,52.86 -34.09,7.85 -70.74,7.77 -104.43,-2.21 -63.19,-18.75 -117.42,-64.2 -155.13,-120.29 -49.941,-74.28 -76.835,-166.17 -92.421,-254.95 -16.68,-95 -25.789,-192.22 -25.789,-290.35 0,0 2.058,-35.47 11.785,-42.63 11.934,-8.8 367.885,-84.34 454.195,-79.74 40.23,2.13 58.23,11.49 66.57,54.94 39.28,204.8 96.77,517.42 -64.25,682.37" /><path
         id="path162"
         style="fill:#505055;fill-opacity:1;fill-rule:nonzero;stroke:none"
         d="m 1444.9,2088.36 c -29.17,120.82 -98.09,216.35 -190.87,218.22 -92.79,1.87 -174.09,-66.5 -234.17,-206.98 -59.29,-138.61 -68.93,-440.18 -68.93,-440.18 l 18.261,-3.75 c 1.457,33.26 6.34,123.06 19.004,217.15 l 438.145,-54.19 v 14.99 l -434.168,66.18 c 10.078,66.5 21.798,128.62 43.008,183.57 54.91,142.28 127.02,205.42 217.97,203.54 90.93,-1.87 156.39,-92.71 184.97,-213.53 24.14,-102.02 5.98,-276.16 -8.81,-369.04 14.85,87.85 41.61,276.18 15.59,384.02" /><path
         id="path164"
         style="fill:#9b9c9e;fill-opacity:1;fill-rule:nonzero;stroke:none"
         d="m 987.297,2053.38 0.949,1.95 c 3.133,7.35 3.699,15.63 6.211,23.25 2.832,8.63 8.143,16.4 9.413,25.44 0.2,1.4 0.28,2.86 -0.11,4.21 -1.83,6.23 -7.635,0.36 -9.42,-2.62 -4.777,-7.97 -7.031,-17.3 -9.805,-26.29 -2.168,-6.97 -4.699,-13.87 -5.84,-21.12 -0.363,-2.28 -0.644,-5.18 1.035,-6.97 1.649,-1.76 4.043,-1.58 5.782,-0.09 l 1.785,2.24" /><path
         id="path166"
         style="fill:#9b9c9e;fill-opacity:1;fill-rule:nonzero;stroke:none"
         d="m 1012.18,2118.52 c 3.43,1.34 6.53,5.68 7.38,8.86 1.15,4.27 2.21,18.21 -4.69,17.91 -5.09,-0.22 -8.93,-6.86 -10.29,-11.41 -1.26,-4.18 -1.34,-10.9 1.92,-14.16 1.77,-1.78 3.78,-1.95 5.68,-1.2" /><path
         id="path168"
         style="fill:#9b9c9e;fill-opacity:1;fill-rule:nonzero;stroke:none"
         d="m 1174.94,2312.5 c -27.55,-1.3 -57.08,-27.18 -76.52,-45.93 -30.36,-29.27 -63.64,-67.94 -79.71,-108.81 -2.95,-7.52 7.72,-7.12 12.94,3.38 17.51,35.14 45.58,70.95 74.16,95.79 23.78,20.67 42.6,32.57 69.78,47.37 5.27,2.87 5.14,8.47 -0.65,8.2" /><path
         id="path170"
         style="fill:#9b9c9e;fill-opacity:1;fill-rule:nonzero;stroke:none"
         d="m 1206.97,2321.13 c -0.47,1.09 -1.32,2 -2.34,2.56 -2.23,1.22 -4.93,0.65 -7.16,-0.33 -1.5,-0.67 -2.88,-1.81 -3.58,-3.37 -3.31,-7.32 7.06,-9.01 11.07,-5.75 1.73,1.4 2.82,3.85 2.28,6.08 l -0.27,0.81" /><path
         id="path172"
         style="fill:#9b9c9e;fill-opacity:1;fill-rule:nonzero;stroke:none"
         d="m 1330.31,2311.43 c -27.68,14.82 -71.23,28.54 -105.46,16.03 -2.96,-1.07 -2.71,-6.1 0.73,-6.03 17.91,0.33 40.03,-0.63 57.41,-4.98 14.77,-3.7 29.59,-10.13 41.64,-19.02 8.13,-5.99 17.57,7.63 5.68,14" /><path
         id="path174"
         style="fill:#9b9c9e;fill-opacity:1;fill-rule:nonzero;stroke:none"
         d="m 1110.28,1885.43 c -9.37,10.76 -27.96,8.93 -40.65,11.07 -15.5,2.63 -30.53,5.05 -46.24,4.08 -4.63,-0.28 -5.21,-6.58 -1.05,-8.28 14.11,-5.76 30.01,-5.44 44.89,-7.37 12.97,-1.69 30.5,-9.32 42.71,-2.25 0.97,0.56 1.04,1.95 0.34,2.75" /><path
         id="path176"
         style="fill:#9b9c9e;fill-opacity:1;fill-rule:nonzero;stroke:none"
         d="m 1126.56,1888.84 c -2.34,0.92 -5.25,0.94 -7.73,1.12 -6.9,0.49 -10.16,-11.12 -3.64,-14.24 1.94,-0.92 3.62,-2.09 5.77,-2.49 2.74,-0.5 4.85,0.18 7.34,1.39 2.6,1.26 3.9,4.99 3.51,7.75 -0.46,3.24 -2.41,5.35 -5.25,6.47" /><path
         id="path178"
         style="fill:#9b9c9e;fill-opacity:1;fill-rule:nonzero;stroke:none"
         d="m 1151.53,1879.77 c -7.15,0 -7.16,-11.76 0,-11.76 7.13,0 7.14,11.76 0,11.76" /><path
         id="path180"
         style="fill:#9b9c9e;fill-opacity:1;fill-rule:nonzero;stroke:none"
         d="m 1245.66,1862.21 c -6.19,5.83 -13.36,9.12 -21.6,10.78 -10.33,2.09 -17.5,-0.79 -27.43,-2.44 -2.99,-0.5 -3,-5.93 0,-6.43 4.24,-0.71 8.11,-2.56 12.36,-3.19 4.92,-0.73 9.89,-0.57 14.85,-1.24 8.08,-1.08 13.86,-0.72 21.52,1.35 l 0.3,1.17" /><path
         id="path182"
         style="fill:#9b9c9e;fill-opacity:1;fill-rule:nonzero;stroke:none"
         d="m 1300.85,1853 c -1.78,1.36 -2.78,0.81 -4.7,1.47 -2.93,1.02 -5.25,3.18 -8.4,4.04 -7.49,2.02 -14.66,0.55 -22.24,0.95 -1.55,0.09 -1.95,-2.64 -0.37,-2.93 4.7,-0.88 8.27,-4 12.69,-5.59 3.9,-1.4 8.14,-1.93 12.1,-3.19 2,-0.63 3.92,0.46 5.02,2.17 l 0.14,0.05 c 1.67,-1.51 3.59,-1.82 5.76,-0.15 1.11,0.85 1.13,2.34 0,3.18" /><path
         id="path184"
         style="fill:#9b9c9e;fill-opacity:1;fill-rule:nonzero;stroke:none"
         d="m 1334.55,1852.16 c -2.2,0.66 -4.79,-0.76 -6.85,-1.44 -1.86,-0.62 -2.07,-3.73 0,-4.24 2.72,-0.65 9.93,-4.97 10.25,1.17 0.12,2.03 -1.62,3.98 -3.4,4.51" /><path
         id="path186"
         style="fill:#9b9c9e;fill-opacity:1;fill-rule:nonzero;stroke:none"
         d="m 1340.63,1850.56 c -3.53,0 -3.53,-5.79 0,-5.79 3.51,0 3.52,5.79 0,5.79" /><path
         id="path188"
         style="fill:#9b9c9e;fill-opacity:1;fill-rule:nonzero;stroke:none"
         d="m 1404.24,1842.04 c -1.87,2.44 -3.03,2.73 -5.8,3.22 -4.88,0.85 -9.86,1.82 -14.77,2.58 -2.83,0.44 -4.52,-0.02 -7.35,-0.88 -4.29,-1.3 -7.06,-1.17 -11.13,0.6 -3.54,1.55 -4.76,-5.84 -0.7,-5.51 3.01,0.24 6.97,0.54 9.92,-0.16 3.67,-0.87 7.1,-2.97 10.86,-3.9 5.9,-1.45 14.22,-5.02 18.97,0.32 0.99,1.11 0.87,2.59 0,3.73" /><path
         id="path190"
         style="fill:#505055;fill-opacity:1;fill-rule:nonzero;stroke:none"
         d="m 1176.52,2122.11 c -1.59,1.57 -1.06,7.62 -1.42,9.77 -0.62,3.64 -2.59,8.69 -4.45,11.55 -5.18,7.95 -18.62,9.1 -26.67,10.02 -4.82,0.55 -4.96,1.77 -7.87,-1.49 l -1.93,-3.59 c -1.26,-3.27 -1.7,-6.74 -2.43,-10.23 -1.9,-9.07 -2.61,-18.6 -3.24,-27.91 -0.42,-6.15 -3.29,-11.94 3.55,-13.05 8.29,-1.35 19.17,-3.73 26.94,0.1 4.52,2.24 8.7,4.67 11.92,9.17 1.59,2.2 2.61,4.1 3.42,6.65 0.78,2.46 0.43,6.57 2.18,9.01 z m 30.05,-116.2 c -2.38,-4.68 -0.56,-8.26 -4.8,-12.04 -3.57,-3.17 -5.41,-3.38 -9.63,-3.48 -2.67,-0.07 -5.73,-0.59 -8.49,0 -5.41,1.15 -9.17,6.99 -12.18,11.62 -8.92,13.69 -9.89,33.61 -12.54,49.82 -2.08,12.71 -4.57,33.33 -18.15,37.1 -4.14,1.15 -10.14,4.7 -13.47,1.39 -3.65,-3.61 -2.24,-13.1 -2.5,-17.59 -0.7,-11.97 -3.42,-23.16 -5.35,-35.16 -0.29,-1.78 -1.34,-6.05 -0.58,-7.88 1.54,-3.67 1.95,-0.32 4.26,-2.88 4.6,-5.12 -1.78,-5.91 -6.63,-5.87 -4.31,0.04 -8.99,2.3 -13.42,2.41 -2.46,0.06 -4.33,-0.48 -5.1,1.76 -1.32,3.86 2.53,3.48 4.34,3.93 3.23,0.82 4.07,-1.24 5.58,1.94 1.13,2.36 0.49,7.73 1.03,10.43 0.6,3.05 1.12,6 1.56,9 1.41,9.76 2.28,19.33 2.5,29.22 0.28,12.53 3.21,25.8 4.82,38.61 0.63,4.94 0.8,9.89 1.87,14.72 1.02,4.59 2.11,9.35 3.32,13.9 0.57,2.12 3,6.6 2.49,8.75 -1.32,5.5 -11.82,3.26 -15.81,4.06 -2.57,0.52 -4.67,0.43 -4.96,3.58 -0.45,4.71 4.9,2.88 7.48,2.96 9.12,0.27 18.62,-0.14 27.76,-2.05 19.84,-4.14 44.05,-8.46 50.55,-30.68 3.14,-10.68 0.37,-24.61 -7.59,-31.8 -14.74,-13.34 -27.32,-10.61 -27.93,-10.8 11.79,-7.47 13.71,-17.75 15.24,-22.95 3.16,-10.79 0.88,-21.78 2.47,-32.97 1.5,-10.51 2.73,-37.64 16.72,-39.71 6.02,-0.9 11.63,4.01 11.77,9.94 0.09,3.29 -0.61,6.25 -3.37,8.24 -3.83,2.78 -1.42,-0.55 -6.29,-0.56 -7.62,0 -0.41,10.4 5.46,9.39 4.03,-0.69 6.17,-4.96 7.46,-7.9 0.67,-1.53 1.15,-7.5 2.11,-8.45" /><path
         id="path192"
         style="fill:#505055;fill-opacity:1;fill-rule:nonzero;stroke:none"
         d="m 1254.5,1989.55 c -2.67,-5.3 -8.94,0.03 -13.02,0.5 -4.28,0.5 -9.88,1.36 -14.29,1.37 -3.72,0.02 -10.1,-3.6 -13.52,0.55 -2.44,2.96 -0.27,6.14 2.69,7.66 2.79,1.44 6.77,-0.94 9.7,-0.04 5.46,1.66 2.96,1.58 3.95,6.39 1.52,7.32 -0.01,14.61 0.7,21.9 0.89,9.21 1.64,18.67 2.28,28.03 0.89,12.98 3.62,25.12 4.81,38.12 0.67,7.38 1.94,14.41 2.82,21.53 0.87,7.01 3.72,12.38 -2.8,15.46 -3.3,1.55 -15.18,0.43 -11.74,7.36 2.14,4.33 13.66,1.14 17.61,0.71 6.33,-0.69 13.13,-0.67 18.99,-3.76 2.58,-1.35 4.64,-0.7 5.58,-4.67 1.86,-7.8 -3.71,-3.5 -6.89,-3.5 -8.83,-0.01 -9.54,-13.4 -10.29,-21.19 -0.95,-9.83 -2.39,-19.59 -3.29,-29.4 -1.26,-13.55 -2.2,-27.41 -2.94,-40.9 -0.59,-10.72 -1.02,-21.32 -1.21,-31.99 -0.1,-5.28 -1.95,-5.01 2.23,-7.66 4.74,-3.01 7.36,0.9 8.63,-6.47" /><path
         id="path194"
         style="fill:#505055;fill-opacity:1;fill-rule:nonzero;stroke:none"
         d="m 1356.4,2070.88 c -1.15,12.93 -1.68,21.73 -9.15,32.01 -3.28,4.51 -6.41,10.49 -11.08,14.27 -6.5,5.27 -14.27,4.33 -21.52,7.29 -1.48,-3.72 0.4,-7.69 0.64,-11.47 0.14,-2.41 -0.36,-4.91 -0.1,-7.41 0.5,-4.93 1.04,-9.26 0.88,-14.36 -0.28,-8.07 -0.46,-16.58 -1.72,-24.6 -0.87,-5.5 -2.53,-10.97 -1.73,-16.79 0.65,-4.76 1.01,-5.88 6.23,-6.97 3.14,-0.65 8.5,-1.15 11.69,-0.97 6.65,0.4 13.19,3.29 17.44,8.42 5.13,6.19 4.77,13.9 8.42,20.58 z m 13.18,0.76 c -1.97,-16.15 -14.08,-29.62 -28.27,-34.63 -6.37,-2.25 -12.99,-1.82 -19.57,-0.98 -2.57,0.33 -6.25,2.33 -8.78,1.47 -6.47,-2.21 -5.19,-15.11 -5.95,-21.31 -0.99,-8.18 -1.73,-15.76 -2.92,-23.9 -0.58,-4.07 -2.04,-7.33 0.48,-10.16 1.85,-2.07 4.16,0.96 5.05,-2.56 1.72,-6.8 -5.23,-3.3 -7.9,-3.18 -2.73,0.13 -4.96,-1.14 -7.31,-1.06 -4.03,0.12 -12.88,0.16 -13.97,4.33 -1.64,6.38 6.92,2.69 9.05,7.29 1.39,2.98 0.81,10.68 1.16,14.09 0.53,5.1 1.2,10.03 1.98,15.09 1.07,7.05 2.96,14.32 3.45,21.21 0.91,13.14 10.3,75.5 4.49,87.85 -3.93,8.36 -13.56,1.9 -17.74,9.28 -6.93,12.17 20.32,1.88 24.12,0.76 13.1,-3.84 31.11,-7.27 41.33,-16.51 12.11,-10.95 23.37,-30.08 21.3,-47.08" /><g
         id="g196"><g
           clip-path="url(#clipPath202)"
           id="g198"><path
             id="path204"
             style="fill:#522522;fill-opacity:1;fill-rule:nonzero;stroke:none"
             d="m 271.281,1163.94 h 1352.36 v 289.609 H 271.281 Z" /></g></g><path
         id="path206"
         style="fill:#4c221f;fill-opacity:1;fill-rule:nonzero;stroke:none"
         d="m 930.406,1159.49 c -16.164,0 -32.304,1.59 -48.195,4.67 7.559,-0.15 15.109,-0.22 22.672,-0.22 25.168,0 50.359,0.8 75.515,2.36 -16.281,-4.35 -32.828,-6.77 -49.371,-6.81 -0.207,0 -0.41,0 -0.621,0 m -372.836,36.87 c -49.257,0 -98.078,27.78 -102.445,78.95 43.883,-33.87 98.887,-55.53 152.988,-70.89 -16.015,-4.84 -32.363,-7.88 -49.156,-8.06 -0.465,0 -0.922,0 -1.387,0 m 770.8,39.66 c 11.74,4.5 23.38,9.31 34.89,14.44 46.32,20.66 94.18,47.52 132.11,84.36 26.94,16.72 51.59,37.67 72.93,63.65 14.84,18.06 25.56,36 33.06,55.05 7.37,-6.17 14.65,-12.56 21.82,-19.17 0.02,-0.02 0.04,-0.03 0.06,-0.05 0.13,-0.12 0.26,-0.25 0.4,-0.37 v 0 c 9.82,-9.07 19.37,-18.88 28.62,-29.2 -17.47,-30.27 -47.52,-50.99 -74.52,-72.49 -72.94,-58.07 -160.69,-92.47 -249.37,-96.22 m -894.597,41.29 c -72.32,0 -93.71,48.13 -114.355,101.14 -40.848,0 -60.547,10.54 -72.379,21.48 7.805,8.57 15.887,16.85 24.242,24.87 1.211,1.16 2.422,2.31 3.645,3.45 11.551,-14.03 32.164,-19.67 52.969,-21.85 7.589,-0.8 15.207,-1.14 22.418,-1.26 -0.004,0 -0.004,0 -0.004,0 0.046,0 0.089,0 0.132,0 2.317,-0.04 4.594,-0.05 6.813,-0.05 3.019,0 5.934,0.02 8.707,0.06 -4.621,-8.73 -7.207,-18.32 -6.52,-28.33 0,-0.01 0,-0.01 0,-0.01 0,-0.03 0.004,-0.07 0.004,-0.1 0.004,-0.01 0.004,-0.02 0.004,-0.03 0,-0.03 0.004,-0.06 0.008,-0.09 0,-0.01 0,-0.03 0.004,-0.04 0,-0.03 0.004,-0.06 0.004,-0.08 0,-0.02 0.004,-0.04 0.004,-0.06 0.004,-0.02 0.004,-0.04 0.004,-0.07 0.004,-0.02 0.004,-0.04 0.007,-0.06 0,-0.02 0.004,-0.04 0.004,-0.06 0.004,-0.05 0.008,-0.09 0.012,-0.13 v 0 c 0.004,-0.06 0.008,-0.12 0.016,-0.18 0,-0.01 0,-0.01 0,-0.01 2.57,-29.46 25.558,-48.02 52.426,-58.1 11.55,-14.78 24.878,-27.9 39.523,-39.61 -6.219,-0.59 -12.102,-0.88 -17.688,-0.88" /><path
         id="path208"
         style="fill:#f9ac19;fill-opacity:1;fill-rule:nonzero;stroke:none"
         d="m 1580.58,1599.2 c -13.68,-4.02 -27.38,-15.19 -40.05,-21.59 -17.37,-8.78 -34.83,-17.43 -52.14,-26.35 -39.37,-20.31 -81.25,-33.76 -121.2,-52.62 -47.55,-22.44 -88.76,-53.55 -132.36,-83.11 -20.25,-13.72 -41.53,-26.1 -62.32,-38.85 -20.67,-12.67 -48.91,-19.28 -65.6,-37.49 -7.79,-8.49 -1.31,-20.17 6.97,-22.17 l 0.85,-0.87 c 34.03,-23.46 77.04,-29.98 116.91,-33.33 37.9,-3.19 75.18,-5.97 113.07,-0.31 85.23,12.75 166.32,46.24 223.59,115.96 33.53,40.8 46.01,80.97 47.85,134.76 0.84,24.45 -0.68,76.22 -35.57,65.97" /><path
         id="path210"
         style="fill:#da8b16;fill-opacity:1;fill-rule:nonzero;stroke:none"
         d="m 1152.44,1297.55 c -5.22,1.82 -10.36,3.84 -15.38,6.11 0.02,0.01 0.06,0.03 0.08,0.04 l 0.04,-0.01 c 4.99,-2.28 10.1,-4.31 15.29,-6.12 -0.01,0 -0.02,-0.01 -0.03,-0.02 m 67.4,36.92 c -12.26,1.95 -20.5,3.75 -23.05,4.63 -0.08,-0.04 -0.17,-0.08 -0.25,-0.12 14.86,8.89 29.49,17.62 43.77,25.95 104.76,61.14 204.84,109.8 313.87,161.57 15.62,7.48 31.41,15.06 44.98,26.15 0.82,0.67 1.63,1.35 2.43,2.06 v 0 c 0.03,0.03 0.06,0.05 0.09,0.08 0.02,0.02 0.03,0.03 0.05,0.05 0.01,0 0.01,0.01 0.02,0.01 4.49,3.98 8.73,8.57 12.56,13.61 1.56,-9.01 2,-18.57 2,-26.73 0,-2.84 -0.06,-5.52 -0.14,-7.94 0.12,3.81 0.15,8.3 0.03,13.03 -1.55,-5.72 -3.21,-11.34 -5,-16.86 -18.19,-7.06 -39.49,-14.76 -55.34,-20.94 -44.46,-17.34 -83.57,-35.59 -131.09,-60.86 -50.13,-26.66 -100.95,-51.13 -150.02,-79.62 -18.69,-10.85 -36.37,-23.11 -54.91,-34.07" /><path
         id="path212"
         style="fill:#f5761e;fill-opacity:1;fill-rule:nonzero;stroke:none"
         d="m 1590.05,1666.92 c -11.37,-1.18 -23.09,-5.62 -32.8,-11.22 -24.85,-14.31 -47.76,-31.15 -73.5,-43.8 -30.58,-15.02 -62.27,-27.3 -93.84,-39.78 -55.88,-22.1 -112.19,-42.07 -169.51,-58.94 -65.78,-19.48 -131.1,-41.39 -193.69,-70.57 -44.296,-20.65 -87.058,-44.84 -131.565,-65 -22.125,-10.02 -44.668,-19.07 -67.825,-26.04 -19.515,-5.88 -43.445,-9.04 -55.84,-28.39 -32.062,-50.1 61.543,-98.45 94.653,-104.9 60.226,-11.76 122.765,8.38 177.187,34.62 65.05,31.35 134.47,75.55 196.99,112.03 104.76,61.14 204.84,109.8 313.86,161.57 15.63,7.48 31.42,15.06 44.99,26.15 19.9,16.25 35.6,44.55 34.38,71.85 -1.17,25.99 -18.13,45.06 -43.49,42.42" /><path
         id="path214"
         style="fill:#c38118;fill-opacity:1;fill-rule:nonzero;stroke:none"
         d="m 1137.06,1303.66 v 0 c 0.02,0.01 0.06,0.03 0.08,0.04 v 0 c -0.02,-0.01 -0.06,-0.03 -0.08,-0.04 m 59.48,35.32 c 14.86,8.89 29.49,17.62 43.77,25.95 104.76,61.14 204.84,109.8 313.86,161.57 15.63,7.48 31.42,15.06 44.99,26.15 0.82,0.67 1.63,1.35 2.43,2.06 -0.8,-0.71 -1.61,-1.39 -2.43,-2.06 -13.57,-11.09 -29.36,-18.67 -44.98,-26.15 -109.03,-51.77 -209.11,-100.43 -313.87,-161.57 -14.28,-8.33 -28.91,-17.06 -43.77,-25.95 v 0" /><path
         id="path216"
         style="fill:#c38118;fill-opacity:1;fill-rule:nonzero;stroke:none"
         d="m 1601.59,1554.71 c 0.03,0.03 0.06,0.05 0.09,0.08 -0.03,-0.03 -0.06,-0.05 -0.09,-0.08 m 0.14,0.13 c 0.01,0 0.01,0.01 0.02,0.01 -0.01,0 -0.01,-0.01 -0.02,-0.01" /><path
         id="path218"
         style="fill:#ea7018;fill-opacity:1;fill-rule:nonzero;stroke:none"
         d="m 864.824,1218.55 c -6.215,1.35 -14.301,4.04 -23.176,7.81 h 0.02 c 2.266,-0.96 4.465,-1.84 6.605,-2.66 l 0.739,-0.29 c 4.121,-1.54 7.968,-2.81 11.426,-3.77 l 1.042,-0.27 c 1.157,-0.31 2.282,-0.59 3.344,-0.82 m 198.946,44.53 c 1.37,0.71 2.75,1.42 4.13,2.14 16.49,8.56 33.17,17.76 49.85,27.29 6.46,3.69 12.92,7.45 19.36,11.21 l 0.03,-0.02 c -0.02,-0.01 -0.06,-0.03 -0.08,-0.04 -0.03,-0.02 -0.06,-0.04 -0.09,-0.05 -24.46,-14.28 -49.04,-28.12 -73.2,-40.53 m -64.454,13.23 c -2.148,0 -4.308,0.03 -6.464,0.09 55.828,28.83 108.188,64.42 163.848,93.68 85.03,44.71 166.28,95.67 256.66,127.64 35.82,12.68 69.45,28.35 103.93,44.36 24.65,11.43 49.7,21.91 73.56,35.18 14.27,7.92 28.5,17.38 40.9,28.38 -4.27,-19.64 -15.85,-38.25 -30,-50.79 -0.01,0 -0.01,-0.01 -0.02,-0.01 -0.02,-0.02 -0.03,-0.03 -0.05,-0.05 -0.03,-0.03 -0.06,-0.05 -0.09,-0.08 v 0 c -0.8,-0.71 -1.61,-1.39 -2.43,-2.06 -13.57,-11.09 -29.36,-18.67 -44.99,-26.15 -109.02,-51.77 -209.1,-100.43 -313.86,-161.57 -14.28,-8.33 -28.91,-17.06 -43.77,-25.95 -11.02,-5.17 -56.6,-30.36 -97.53,-44.08 -32.61,-10.94 -65.83,-18.59 -99.694,-18.59" /><path
         id="path220"
         style="fill:#dc601c;fill-opacity:1;fill-rule:nonzero;stroke:none"
         d="m 765.883,1293.6 c -0.281,1.22 -0.504,2.45 -0.664,3.69 0.011,0 0.027,0.01 0.039,0.01 l 0.097,-0.84 0.032,-0.3 c 0.136,-0.86 0.301,-1.71 0.496,-2.56 m 158.711,15.65 c -3.696,9.43 -4.125,19.9 1.172,27.83 -2.504,-0.56 -4.95,-1.1 -7.352,-1.62 88.806,27.22 174.086,65.49 259.456,102.88 85.17,37.3 172.5,71.33 258.96,105.07 50.85,19.85 112.75,32.82 152.17,75.62 13.87,15.06 18.93,31.14 17.54,46.31 11.7,-3.81 20.22,-13.3 24.31,-25.88 -3.57,-8.84 -8.3,-17.16 -14.55,-24.67 -15.07,-18.11 -42.69,-38.08 -63.5,-47.21 -48.51,-21.28 -94.82,-29.95 -144.11,-49.25 -140.71,-55.14 -260.58,-121.47 -400.02,-179.69 -26.154,-10.92 -54.666,-20.89 -84.076,-29.39" /><path
         id="path222"
         style="fill:#f9ac19;fill-opacity:1;fill-rule:nonzero;stroke:none"
         d="m 1557.83,1724.22 c -75.15,32.24 -145.21,-30.92 -209.71,-63.9 -91.62,-46.85 -188.33,-73.54 -281.43,-115.61 -50.86,-22.99 -98.346,-49.15 -151.807,-65.46 -53.485,-16.32 -107.961,-29.11 -160.625,-48.37 -54.598,-19.96 -106.75,-48.33 -162.438,-64.86 -26.336,-7.81 -56.847,-3.05 -82.004,-16.84 -33.351,-18.3 -26.117,-72.11 0.438,-94.04 25.066,-20.7 59.66,-14.29 88.152,-6.75 44.746,11.86 87.153,30.41 132.403,41.04 53.746,12.63 107.839,23.46 161.117,38.28 98.41,27.38 192.124,69.54 285.944,110.63 85.17,37.3 172.5,71.33 258.96,105.07 50.85,19.85 112.75,32.82 152.17,75.62 36.68,39.84 11.75,86.78 -31.17,105.19" /><path
         id="path224"
         style="fill:#f5761e;fill-opacity:1;fill-rule:nonzero;stroke:none"
         d="m 1117.75,1774.81 c -41.28,12.21 -89.92,0 -132.074,-0.18 -58.106,-0.23 -114.285,10.51 -171.824,17.34 -140.875,16.73 -346.622,43.6 -438.395,-102.2 -28.125,-44.68 -62.598,-174.19 24.188,-171.79 37.265,1.04 73.55,20.46 108.355,33.16 77.398,28.22 155.918,42.95 234.922,63.19 78.226,20.05 155.605,46.26 232.422,71.42 34.626,11.34 69.666,21.88 102.416,38.6 16,8.17 39.16,15.12 48.4,32.85 5.16,9.89 0.15,15.08 -8.41,17.61" /><path
         id="path226"
         style="fill:#5d544f;fill-opacity:1;fill-rule:nonzero;stroke:none"
         d="m 983.844,1774.63 c -2.188,0 -4.375,0.01 -6.563,0.04 0.004,0.02 0.004,0.03 0.004,0.05 2.5,-0.05 5.004,-0.09 7.512,-0.09 0.293,0 0.586,0 0.879,0 -0.61,0 -1.223,0 -1.832,0" /><path
         id="path228"
         style="fill:#423d39;fill-opacity:1;fill-rule:nonzero;stroke:none"
         d="m 977.281,1774.67 c -2.562,0.04 -5.125,0.09 -7.679,0.17 0.074,0.02 0.14,0.05 0.214,0.08 2.493,-0.07 4.981,-0.14 7.469,-0.2 0,-0.02 0,-0.03 -0.004,-0.05" /><path
         id="path230"
         style="fill:#dc601c;fill-opacity:1;fill-rule:nonzero;stroke:none"
         d="m 347.402,1555.46 c -1.902,7.19 -2.839,15.08 -2.996,23.36 l 0.004,-0.1 c 0.074,-3.76 0.34,-7.42 0.754,-10.98 l 0.152,-1.5 c 0.161,-1.23 0.383,-2.42 0.59,-3.62 l 0.43,-2.52 c 0.219,-1.1 0.5,-2.15 0.758,-3.21 l 0.332,-1.42 c -0.012,0 -0.012,-0.01 -0.024,-0.01 m 98.301,38.15 c 6.547,2.58 12.723,4.96 18.371,7.11 -6.742,3.58 -12.906,7.67 -18.508,12.18 8.336,3.63 16.633,7.38 24.911,11.19 31.078,14.32 61.875,29.39 93.593,42.08 33.266,13.3 66.696,21.17 101.914,26.24 30.727,4.42 61.325,8.66 91.028,18.46 30.949,10.21 60.781,24.19 92.465,31.87 40.355,9.79 81.75,16.64 120.125,32.1 2.554,-0.08 5.117,-0.13 7.679,-0.17 2.188,-0.03 4.375,-0.04 6.563,-0.04 0.609,0 1.222,0 1.832,0 v 0 c 18.484,0.08 38.214,2.47 58.024,4.11 -22.43,-7.69 -44.97,-14.94 -67.583,-21.89 -103.379,-31.8 -208.281,-57.57 -311.012,-92.12 -35.246,-11.86 -134.57,-41.52 -219.402,-71.12" /><path
         id="path232"
         style="fill:#f9ac19;fill-opacity:1;fill-rule:nonzero;stroke:none"
         d="m 976.117,1756.85 c -103.379,-31.8 -208.281,-57.57 -311.012,-92.12 -58.066,-19.53 -290.031,-87.4 -344.636,-123.65 -26.574,-17.65 -50.602,-41.53 -54.508,-76.22 -6.898,-61.29 65.379,-60.19 103.898,-59.66 84.539,1.15 156.227,57.44 232.868,90.12 86.32,36.8 171.066,63.67 262.531,81.63 89.91,17.66 184.402,28.13 271.012,60.11 35.91,13.26 75.68,28.67 109.05,48.38 40.5,23.91 42.7,90.05 1.45,115.03 -34.4,20.82 -81.24,12.97 -117.96,4.71 -20.72,-4.67 -41.14,-10.85 -61.2,-18.06 -30.3,-10.88 -60.83,-20.84 -91.493,-30.27" /><path
         id="path234"
         style="fill:#e09015;fill-opacity:1;fill-rule:nonzero;stroke:none"
         d="m 487.93,1299.99 c -0.282,2.7 -0.403,5.4 -0.364,8.08 0.004,-0.2 0.004,-0.41 0.004,-0.61 v -0.24 c -0.007,-2.4 0.114,-4.82 0.36,-7.23 v 0 m 136.73,42.83 c 0.449,5.61 1.461,11.8 3.094,18.64 38.199,14.64 77.254,27.37 115.547,41.59 181.703,67.46 361.889,131.47 541.759,204.12 37.25,15.05 190.18,76.62 190.23,119.45 0,0.06 0,0.13 0,0.19 4.43,1.35 8.88,2.52 13.35,3.46 -8.19,-37.18 -40.87,-63.45 -75.64,-82.59 -50.29,-27.68 -105.95,-44.66 -158.67,-66.27 -85.46,-35.02 -170.43,-71.44 -256.721,-104.13 -83.199,-31.51 -167.992,-57.94 -251.746,-87.68 -40.793,-14.49 -80.968,-30.68 -121.203,-46.78" /><path
         id="path236"
         style="fill:#431d1a;fill-opacity:1;fill-rule:nonzero;stroke:none"
         d="m 350.441,1405.14 c -0.043,0 -0.086,0 -0.132,0 v 0 c 0.046,0 0.089,0 0.132,0" /><path
         id="path238"
         style="fill:#e09015;fill-opacity:1;fill-rule:nonzero;stroke:none"
         d="m 357.195,1405.09 c -2.199,0 -4.457,0.02 -6.754,0.05 -0.043,0 -0.086,0 -0.128,0 0,0 0,0 0,0.01 2.332,-0.04 4.625,-0.06 6.859,-0.06 1.062,0 2.113,0.01 3.148,0.01 h 0.438 c -1.168,0 -2.36,-0.01 -3.563,-0.01 m 6.926,0.04 c 0.621,0.01 1.234,0.01 1.844,0.02 v 0 c -0.61,-0.01 -1.223,-0.01 -1.844,-0.02 m 26.34,27.83 c 0.004,0.21 0.008,0.41 0.016,0.62 -4.645,0.46 -9.071,0.8 -13.293,1.13 9.515,8.39 19.781,15.76 30.39,22.87 34.797,23.34 71.711,43.52 109.684,60.35 71.222,31.55 146.562,56.58 221.476,76.2 74.09,19.41 149.77,30.96 223.985,49.79 67.071,17.02 129.551,45.26 193.981,70.53 37.36,14.66 80,30.03 115.89,53.75 1.44,-4.06 2.5,-8.27 3.18,-12.55 -9.7,-5.17 -19.25,-10.53 -28.67,-15.89 -166.68,-94.86 -350.334,-130.84 -532.287,-177.6 -26.657,-6.84 -53.243,-14 -79.684,-21.74 -83.508,-24.45 -171.918,-54.03 -243.75,-106.77 -0.305,-0.23 -0.613,-0.46 -0.918,-0.69" /><path
         id="path240"
         style="fill:#f5761e;fill-opacity:1;fill-rule:nonzero;stroke:none"
         d="m 1381.9,1795 c -48.23,-7.57 -92.85,-31.37 -134.8,-55.24 -166.68,-94.86 -350.334,-130.84 -532.287,-177.6 -26.657,-6.84 -53.243,-14 -79.684,-21.74 -83.508,-24.45 -171.918,-54.03 -243.75,-106.77 -18.094,-13.29 -33.836,-34.33 -31.883,-57.56 4.481,-53.33 75.801,-71.05 116.258,-67.41 47.473,4.24 90.648,28.19 134.387,45.86 43.738,17.67 88.957,32.1 133.16,48.51 181.703,67.46 361.889,131.47 541.759,204.12 38.11,15.39 197.27,79.48 189.99,122.37 -6.86,40.43 -53.73,71.64 -93.15,65.46" /><path
         id="path242"
         style="fill:#ea7018;fill-opacity:1;fill-rule:nonzero;stroke:none"
         d="m 465.211,1308.23 c -16.629,0 -36.371,3.11 -54.285,10.04 2.304,-0.89 4.64,-1.71 6.992,-2.47 l 0.594,-0.19 c 7.879,-2.52 15.926,-4.38 23.832,-5.59 l 0.179,-0.02 c 3.559,-0.53 7.059,-0.92 10.508,-1.22 0.918,-0.06 1.809,-0.12 2.719,-0.18 2.676,-0.18 5.277,-0.27 7.832,-0.3 0.793,-0.01 1.59,-0.03 2.379,-0.03 0.125,0 0.254,0 0.379,0 2.82,0.02 5.57,0.11 8.183,0.3 -2.964,-0.23 -6.078,-0.34 -9.312,-0.34" /><path
         id="path244"
         style="fill:#ea7018;fill-opacity:1;fill-rule:nonzero;stroke:none"
         d="m 476.797,1308.77 c 3.617,0.35 7.199,0.85 10.769,1.41 0,-0.01 0,-0.03 -0.003,-0.04 -0.004,0 -0.004,0 -0.012,0 -3.559,-0.56 -7.145,-1.02 -10.754,-1.37" /><path
         id="path246"
         style="fill:#ea7018;fill-opacity:1;fill-rule:nonzero;stroke:none"
         d="m 528.293,1344.92 c -15.566,0 -31.113,1.15 -46.406,3.31 -3.344,0.47 -6.746,1.12 -10.172,1.95 48.078,14.06 94.969,33.62 141.765,52.87 45.907,18.89 92.004,37.23 138.887,53.25 46.586,15.92 93.567,29.03 139.11,48.32 90.558,38.38 176.243,89.4 269.263,121.16 80.2,27.38 164.61,41.78 243.69,72.63 25.33,9.89 48.81,23.15 68.29,40.23 0.97,-2.98 1.8,-6 2.33,-9.1 0.16,-0.96 0.24,-1.94 0.24,-2.92 -0.05,-42.83 -152.98,-104.4 -190.23,-119.45 -179.87,-72.65 -360.056,-136.66 -541.759,-204.12 -38.293,-14.22 -77.348,-26.95 -115.547,-41.59 0.113,0.48 0.23,0.96 0.351,1.44 -31.632,-12.48 -65.761,-17.98 -99.812,-17.98" /><path
         id="path248"
         style="fill:#e4d6c5;fill-opacity:1;fill-rule:nonzero;stroke:none"
         d="m 1601.37,1453.55 v 0 c 9.43,23.97 13.76,49.71 14.78,79.68 v 0 c 0.01,0.18 0.02,0.37 0.02,0.56 0,-0.19 -0.01,-0.38 -0.02,-0.56 -1.02,-29.97 -5.35,-55.71 -14.78,-79.68" /><path
         id="path250"
         style="fill:#4b211d;fill-opacity:1;fill-rule:nonzero;stroke:none"
         d="m 902.57,1214.84 c -12.183,0 -24.359,1.08 -36.437,3.44 -0.41,0.07 -0.828,0.16 -1.258,0.26 0.324,-0.08 0.641,-0.14 0.957,-0.2 v 0 c 0.02,-0.01 0.047,-0.01 0.07,-0.02 0.004,0 0.008,0 0.012,0 0.016,0 0.035,-0.01 0.055,-0.01 0.008,0 0.015,0 0.019,-0.01 0.02,0 0.039,0 0.059,-0.01 0.008,0 0.012,0 0.019,0 0.02,-0.01 0.043,-0.01 0.067,-0.01 v 0 c 12.078,-2.36 24.254,-3.44 36.437,-3.44 48.555,0 97.243,17.08 140.75,38.06 6.78,3.26 13.59,6.66 20.45,10.18 -6.86,-3.52 -13.67,-6.92 -20.45,-10.18 -43.507,-20.98 -92.195,-38.06 -140.75,-38.06 m -349.254,26.34 c -15.437,0 -30.457,3.55 -43.062,13.96 v 0 0 c 12.605,-10.41 27.625,-13.96 43.062,-13.96 15.258,0 30.926,3.47 45.09,7.21 44.746,11.86 87.153,30.41 132.403,41.04 11.449,2.69 22.91,5.3 34.379,7.88 0.003,-0.01 0.003,-0.02 0.003,-0.02 -11.464,-2.59 -22.933,-5.17 -34.382,-7.86 -45.25,-10.63 -87.657,-29.18 -132.403,-41.04 -14.164,-3.74 -29.832,-7.21 -45.09,-7.21" /><path
         id="path252"
         style="fill:#e79517;fill-opacity:1;fill-rule:nonzero;stroke:none"
         d="m 1297.34,1279.25 c -21.85,0 -43.67,1.72 -65.7,3.57 v 0 c -26.2,2.2 -53.7,5.87 -79.17,14.75 16.57,10.19 33.86,18.87 51.15,27.86 5.5,2.86 10.9,5.9 16.22,9.04 22.03,-3.5 57.03,-7.48 95.31,-7.48 44.72,0 93.92,5.44 132.1,23.42 87.61,41.25 138.24,100.1 163.95,179.55 1.66,0.65 3.3,1.29 4.9,1.92 l 0.05,1.35 c -1.02,-29.97 -5.35,-55.71 -14.78,-79.68 -0.01,-0.01 -0.01,-0.02 -0.01,-0.03 -7.5,-19.05 -18.22,-36.99 -33.06,-55.05 -21.34,-25.98 -45.99,-46.93 -72.93,-63.65 -45.35,-28.15 -97.19,-44.31 -150.66,-52.31 -15.87,-2.37 -31.63,-3.26 -47.37,-3.26" /><path
         id="path254"
         style="fill:#c6781a;fill-opacity:1;fill-rule:nonzero;stroke:none"
         d="m 1152.47,1297.57 c -5.19,1.81 -10.3,3.84 -15.29,6.12 l -0.04,0.01 c 19.99,11.67 39.88,23.61 59.4,35.28 0.08,0.04 0.17,0.08 0.25,0.12 2.55,-0.88 10.79,-2.68 23.05,-4.63 -5.32,-3.14 -10.72,-6.18 -16.22,-9.04 -17.29,-8.99 -34.58,-17.67 -51.15,-27.86 m 458.73,232.39 c 1.79,5.52 3.45,11.14 5,16.86 0.12,-4.73 0.09,-9.22 -0.03,-13.03 0,-0.19 -0.01,-0.38 -0.02,-0.56 v 0 l -0.05,-1.35 c -1.6,-0.63 -3.24,-1.27 -4.9,-1.92" /><path
         id="path256"
         style="fill:#ed6918;fill-opacity:1;fill-rule:nonzero;stroke:none"
         d="m 866.133,1218.28 c -0.024,0 -0.047,0 -0.067,0.01 0.024,-0.01 0.043,-0.01 0.067,-0.01 m -0.086,0.01 c -0.02,0.01 -0.039,0.01 -0.059,0.01 0.02,0 0.039,0 0.059,-0.01 m -0.078,0.02 c -0.02,0 -0.039,0.01 -0.055,0.01 0.02,0 0.035,-0.01 0.055,-0.01 m -0.067,0.01 c -0.023,0.01 -0.05,0.01 -0.07,0.02 0.023,-0.01 0.047,-0.01 0.07,-0.02 m -0.07,0.02 c -0.316,0.06 -0.633,0.12 -0.957,0.2 -0.02,0 -0.035,0 -0.051,0.01 0.34,-0.08 0.676,-0.15 1.008,-0.21 m -24.184,8.02 v 0 c -30.058,12.81 -69.195,38.21 -75.765,67.24 0.992,-4.35 2.715,-8.62 5.023,-12.77 48.918,3.32 102.66,13.67 153.688,28.42 2.64,-6.74 6.953,-12.95 12.031,-17.33 12.195,-10.52 28.594,-13.5 44.266,-14.83 4,-0.35 7.98,-0.57 11.961,-0.69 -9.985,-5.15 -20.082,-10.09 -30.329,-14.74 -37.531,-17.04 -79.175,-31.91 -120.875,-35.3 v 0 m -76.457,70.93 c 0,0 0,0.01 -0.003,0.02 0.011,0 0.019,0 0.031,0.01 0,-0.01 0,-0.02 0,-0.03 -0.008,0 -0.016,0 -0.028,0" /><path
         id="path258"
         style="fill:#431d19;fill-opacity:1;fill-rule:nonzero;stroke:none"
         d="m 866.066,1218.29 c -0.007,0 -0.011,0 -0.019,0 0.008,0 0.012,0 0.019,0 m -0.078,0.01 c -0.004,0.01 -0.011,0.01 -0.019,0.01 0.008,0 0.011,0 0.019,-0.01 m -0.074,0.02 c -0.004,0 -0.008,0 -0.012,0 0.004,0 0.008,0 0.012,0 m -0.082,0.02 v 0 0" /><path
         id="path260"
         style="fill:#d3621c;fill-opacity:1;fill-rule:nonzero;stroke:none"
         d="m 902.57,1214.84 c -12.183,0 -24.359,1.08 -36.437,3.44 v 0 c -0.024,0 -0.043,0 -0.067,0.01 -0.007,0 -0.011,0 -0.019,0 -0.02,0.01 -0.039,0.01 -0.059,0.01 -0.008,0.01 -0.011,0.01 -0.019,0.01 -0.02,0 -0.035,0.01 -0.055,0.01 -0.004,0 -0.008,0 -0.012,0 -0.023,0.01 -0.047,0.01 -0.07,0.02 v 0 c -0.332,0.06 -0.668,0.13 -1.008,0.21 -1.062,0.23 -2.187,0.51 -3.344,0.82 l -1.042,0.27 c -3.458,0.96 -7.305,2.23 -11.426,3.77 l -0.739,0.29 c -2.14,0.82 -4.339,1.7 -6.605,2.66 h -0.02 v 0 c 41.7,3.39 83.344,18.26 120.875,35.3 10.247,4.65 20.344,9.59 30.329,14.74 2.156,-0.06 4.316,-0.09 6.464,-0.09 33.864,0 67.084,7.65 99.694,18.59 40.93,13.72 86.51,38.91 97.53,44.08 -19.52,-11.67 -39.41,-23.61 -59.4,-35.28 l -0.03,0.02 c -6.44,-3.76 -12.9,-7.52 -19.36,-11.21 -16.68,-9.53 -33.36,-18.73 -49.85,-27.29 -1.38,-0.72 -2.76,-1.43 -4.13,-2.14 -6.86,-3.52 -13.67,-6.92 -20.45,-10.18 -43.507,-20.98 -92.195,-38.06 -140.75,-38.06" /><path
         id="path262"
         style="fill:#c7541e;fill-opacity:1;fill-rule:nonzero;stroke:none"
         d="m 770.906,1280.83 c -2.308,4.15 -4.031,8.42 -5.023,12.77 -0.195,0.85 -0.36,1.7 -0.496,2.56 l -0.032,0.3 -0.097,0.84 c -0.012,0 -0.028,-0.01 -0.039,-0.01 0,0.01 0,0.02 0,0.03 42.359,9.53 84.789,18.73 126.707,30.39 8.867,2.47 17.699,5.05 26.488,7.75 2.402,0.52 4.848,1.06 7.352,1.62 -5.297,-7.93 -4.868,-18.4 -1.172,-27.83 -51.028,-14.75 -104.77,-25.1 -153.688,-28.42" /><path
         id="path264"
         style="fill:#e79517;fill-opacity:1;fill-rule:nonzero;stroke:none"
         d="m 553.316,1241.18 c -15.437,0 -30.457,3.55 -43.062,13.96 v 0 c -12.434,10.27 -20.563,27.52 -22.324,44.85 43.004,6.21 84.379,21.93 124.851,38.08 3.961,1.58 7.918,3.16 11.879,4.75 -3.086,-38.46 20.227,-49.27 50.754,-49.27 33.68,0 76.149,13.17 101.637,16.91 64.461,9.48 93.402,14.52 141.363,25 -8.789,-2.7 -17.621,-5.28 -26.488,-7.75 -41.918,-11.66 -84.348,-20.86 -126.707,-30.39 -0.012,-0.01 -0.02,-0.01 -0.031,-0.01 -11.469,-2.58 -22.93,-5.19 -34.379,-7.88 -45.25,-10.63 -87.657,-29.18 -132.403,-41.04 -14.164,-3.74 -29.832,-7.21 -45.09,-7.21 m -65.75,66.89 c -0.007,0.69 -0.035,1.39 -0.003,2.07 0.023,0 0.046,0.01 0.07,0.01 -0.035,-0.69 -0.055,-1.39 -0.067,-2.08" /><path
         id="path266"
         style="fill:#cb7d19;fill-opacity:1;fill-rule:nonzero;stroke:none"
         d="m 487.93,1299.99 c -0.246,2.41 -0.367,4.83 -0.36,7.23 v 0.24 c 0,0.2 0,0.41 -0.004,0.61 0.012,0.69 0.032,1.39 0.067,2.08 42.851,6.75 82.445,28.2 122.508,44.39 5.843,2.36 11.718,4.66 17.613,6.92 -1.633,-6.84 -2.645,-13.03 -3.094,-18.64 -3.961,-1.59 -7.918,-3.17 -11.879,-4.75 -40.472,-16.15 -81.847,-31.87 -124.851,-38.08" /><path
         id="path268"
         style="fill:#4b211d;fill-opacity:1;fill-rule:nonzero;stroke:none"
         d="m 474.555,1308.58 c 0.351,0.02 0.699,0.05 1.043,0.08 0.054,0.01 0.105,0.01 0.156,0.02 0.348,0.03 0.695,0.06 1.043,0.09 -0.348,-0.03 -0.695,-0.06 -1.043,-0.09 -0.395,-0.04 -0.797,-0.07 -1.199,-0.1" /><path
         id="path270"
         style="fill:#ed6918;fill-opacity:1;fill-rule:nonzero;stroke:none"
         d="m 474.523,1308.57 c 0.36,0.03 0.719,0.06 1.075,0.09 -0.344,-0.03 -0.692,-0.06 -1.043,-0.08 -0.012,0 -0.024,-0.01 -0.032,-0.01" /><path
         id="path272"
         style="fill:#451d1b;fill-opacity:1;fill-rule:nonzero;stroke:none"
         d="m 359.512,1375.9 c 0,0 0,0 0,0.01 v -0.01 m -0.016,0.19 v 0 c -0.004,0.04 -0.008,0.08 -0.012,0.13 0.004,-0.05 0.008,-0.09 0.012,-0.13 v 0 m -0.016,0.19 c -0.003,0.02 -0.003,0.04 -0.007,0.06 0.004,-0.02 0.004,-0.04 0.007,-0.06 m -0.011,0.13 c 0,0.02 -0.004,0.04 -0.004,0.06 0,-0.02 0.004,-0.04 0.004,-0.06 m -0.008,0.14 c -0.004,0.01 -0.004,0.03 -0.004,0.04 0,-0.01 0,-0.03 0.004,-0.04 m -0.012,0.13 c 0,0.01 0,0.02 -0.004,0.03 0.004,-0.01 0.004,-0.02 0.004,-0.03 m -0.008,0.13 c 0,0 0,0 0,0.01 0,-0.01 0,-0.01 0,-0.01" /><path
         id="path274"
         style="fill:#e79517;fill-opacity:1;fill-rule:nonzero;stroke:none"
         d="m 360.871,1405.1 h -0.113 c 1.14,0.01 2.262,0.02 3.363,0.03 -1.062,-0.01 -2.148,-0.02 -3.25,-0.03" /><path
         id="path276"
         style="fill:#e4d6c5;fill-opacity:1;fill-rule:nonzero;stroke:none"
         d="m 274.883,1428.31 c -5.723,6.97 -9.207,16.02 -9.379,27.74 0.172,-11.72 3.66,-20.76 9.383,-27.74 -0.016,-0.01 0.011,0.01 -0.004,0" /><path
         id="path278"
         style="fill:#5b2d29;fill-opacity:1;fill-rule:nonzero;stroke:none"
         d="m 274.922,1428.26 c -0.012,0.02 -0.027,0.03 -0.039,0.05 0.015,0.01 -0.012,-0.01 0.004,0 0.011,-0.01 0.027,-0.03 0.039,-0.05 h -0.004" /><path
         id="path280"
         style="fill:#e4d6c5;fill-opacity:1;fill-rule:nonzero;stroke:none"
         d="m 363.316,1665.89 c 0.004,0.01 0.008,0.02 0.008,0.02 -0.004,0 -0.004,-0.01 -0.008,-0.02 m 0.075,0.17 c 0.011,0.03 0.023,0.06 0.035,0.09 -0.012,-0.03 -0.024,-0.06 -0.035,-0.09 m 0.07,0.18 c 3.812,8.97 7.852,16.89 11.777,23.18 -3.925,-6.29 -7.965,-14.21 -11.777,-23.18 m 11.797,23.21 c 0.015,0.03 0.027,0.05 0.043,0.07 -0.016,-0.02 -0.028,-0.04 -0.043,-0.07 m 0.097,0.16 c 0.008,0.01 0.012,0.02 0.02,0.03 -0.008,-0.01 -0.012,-0.02 -0.02,-0.03" /><path
         id="path282"
         style="fill:#4b211d;fill-opacity:1;fill-rule:nonzero;stroke:none"
         d="m 274.926,1428.25 c 0,0.01 0,0.01 -0.004,0.01 h 0.004 0.004 l -0.004,-0.01" /><path
         id="path284"
         style="fill:#451d1b;fill-opacity:1;fill-rule:nonzero;stroke:none"
         d="m 327.895,1406.4 c -20.805,2.18 -41.418,7.82 -52.969,21.85 l 0.004,0.01 c 11.55,-14.04 32.16,-19.68 52.965,-21.86" /><path
         id="path286"
         style="fill:#ed6918;fill-opacity:1;fill-rule:nonzero;stroke:none"
         d="m 344.406,1578.82 v 0 c -0.535,28.63 8.278,61.92 18.91,87.07 0.004,0.01 0.004,0.02 0.008,0.02 0.024,0.05 0.043,0.1 0.067,0.15 0.011,0.03 0.023,0.06 0.035,0.09 0.012,0.03 0.023,0.06 0.035,0.09 3.812,8.97 7.852,16.89 11.777,23.18 0.004,0.01 0.016,0.02 0.02,0.03 0.015,0.03 0.027,0.05 0.043,0.07 0.019,0.03 0.039,0.06 0.054,0.09 0.008,0.01 0.012,0.02 0.02,0.03 0.027,0.04 0.055,0.09 0.082,0.13 7.598,12.07 16.035,22.84 25.09,32.65 -1.309,-42.11 12.301,-83.16 45.019,-109.52 -32.914,-14.33 -66.406,-26.81 -101.16,-34.08 v 0" /><path
         id="path288"
         style="fill:#c7541e;fill-opacity:1;fill-rule:nonzero;stroke:none"
         d="m 347.426,1555.47 -0.332,1.42 c -0.258,1.06 -0.539,2.11 -0.758,3.21 l -0.43,2.52 c -0.207,1.2 -0.429,2.39 -0.59,3.62 l -0.152,1.5 c -0.414,3.56 -0.68,7.22 -0.754,10.98 l -0.004,0.1 v 0 c 34.754,7.27 68.246,19.75 101.16,34.08 5.602,-4.51 11.766,-8.6 18.508,-12.18 -5.648,-2.15 -11.824,-4.53 -18.371,-7.11 -38.027,-13.26 -73.144,-26.51 -98.277,-38.14" /><path
         id="path290"
         style="fill:#e79517;fill-opacity:1;fill-rule:nonzero;stroke:none"
         d="m 350.313,1405.15 c -7.211,0.11 -14.829,0.45 -22.418,1.25 -20.805,2.18 -41.415,7.82 -52.965,21.86 h -0.004 c -0.012,0.02 -0.028,0.04 -0.039,0.05 -5.723,6.98 -9.211,16.02 -9.383,27.74 -0.039,2.79 0.109,5.72 0.457,8.81 3.906,34.69 27.934,58.57 54.508,76.22 6.59,4.37 15.816,9.22 26.961,14.37 l -0.004,0.02 c 25.133,11.63 60.25,24.88 98.277,38.14 -28.473,-11.21 -63.933,-26.25 -93.156,-43.07 -15.043,-8.65 -30.496,-19 -37.844,-35.39 -9.75,-21.77 -6.156,-47.44 10.527,-63.81 13.961,-13.68 30.348,-14.95 51.954,-16.63 -6.11,-5.38 -11.911,-11.19 -17.289,-17.61 -3.282,-3.92 -6.446,-7.92 -9.582,-11.95" /><path
         id="path292"
         style="fill:#cb7d19;fill-opacity:1;fill-rule:nonzero;stroke:none"
         d="m 357.172,1405.09 c -2.234,0 -4.527,0.02 -6.859,0.06 3.136,4.03 6.3,8.03 9.582,11.95 5.378,6.42 11.179,12.23 17.289,17.61 4.222,-0.33 8.648,-0.67 13.293,-1.13 -0.008,-0.21 -0.012,-0.41 -0.016,-0.62 -9.738,-7.32 -18.711,-16.89 -24.496,-27.81 -0.61,-0.01 -1.223,-0.01 -1.844,-0.02 -1.101,-0.01 -2.223,-0.02 -3.363,-0.03 h -0.438 c -1.035,0 -2.086,-0.01 -3.148,-0.01" /><path
         id="path294"
         style="fill:#ed6918;fill-opacity:1;fill-rule:nonzero;stroke:none"
         d="m 410.926,1318.27 c -26.426,10.16 -48.875,28.55 -51.414,57.63 v 0.01 c -0.008,0.06 -0.012,0.12 -0.016,0.18 v 0 c -0.004,0.04 -0.008,0.08 -0.012,0.13 0,0.02 -0.004,0.04 -0.004,0.06 -0.003,0.02 -0.003,0.04 -0.007,0.06 0,0.03 0,0.05 -0.004,0.07 0,0.02 -0.004,0.04 -0.004,0.06 0,0.02 -0.004,0.05 -0.004,0.08 -0.004,0.01 -0.004,0.03 -0.004,0.04 -0.004,0.03 -0.008,0.06 -0.008,0.09 0,0.01 0,0.02 -0.004,0.03 0,0.03 -0.004,0.07 -0.004,0.1 0,0 0,0 0,0.01 -0.687,10.02 1.911,19.61 6.532,28.33 0,0 -0.004,0 -0.008,0 5.785,10.92 14.758,20.49 24.496,27.81 -0.859,-40.96 41.894,-73.28 81.254,-82.78 -28.344,-8.29 -57.102,-14.67 -86.492,-17.96 7.617,-5.74 16.414,-10.36 25.703,-13.95" /><path
         id="path296"
         style="fill:#431d19;fill-opacity:1;fill-rule:nonzero;stroke:none"
         d="m 475.598,1308.66 c 0.05,0.01 0.105,0.01 0.156,0.02 0.348,0.03 0.695,0.06 1.043,0.09 v 0 c -0.348,-0.03 -0.695,-0.06 -1.043,-0.09 -0.051,-0.01 -0.102,-0.01 -0.156,-0.02" /><path
         id="path298"
         style="fill:#d3621c;fill-opacity:1;fill-rule:nonzero;stroke:none"
         d="m 465.961,1308.27 c -0.789,0 -1.586,0.02 -2.379,0.03 -2.555,0.03 -5.156,0.12 -7.832,0.3 -0.91,0.06 -1.801,0.12 -2.719,0.18 -3.449,0.3 -6.949,0.69 -10.508,1.22 l -0.179,0.02 c -7.906,1.21 -15.953,3.07 -23.832,5.59 l -0.594,0.19 c -2.352,0.76 -4.688,1.58 -6.992,2.47 -9.289,3.59 -18.086,8.21 -25.703,13.95 29.39,3.29 58.148,9.67 86.492,17.96 3.426,-0.83 6.828,-1.48 10.172,-1.95 15.293,-2.16 30.84,-3.31 46.406,-3.31 34.051,0 68.18,5.5 99.812,17.98 -0.121,-0.48 -0.238,-0.96 -0.351,-1.44 -5.895,-2.26 -11.77,-4.56 -17.613,-6.92 -40.063,-16.19 -79.657,-37.64 -122.508,-44.39 -0.024,0 -0.047,-0.01 -0.07,-0.01 0.003,0.01 0.003,0.03 0.003,0.04 -3.57,-0.56 -7.152,-1.06 -10.769,-1.41 -0.348,-0.03 -0.695,-0.06 -1.043,-0.09 -0.051,-0.01 -0.106,-0.01 -0.156,-0.02 -0.356,-0.03 -0.715,-0.06 -1.075,-0.09 -2.613,-0.19 -5.363,-0.28 -8.183,-0.3 -0.125,0 -0.254,0 -0.379,0" /><path
         id="path300"
         style="fill:#f7961c;fill-opacity:1;fill-rule:nonzero;stroke:none"
         d="m 484.816,1679.92 c -11.503,0 -22.566,4.12 -29.601,15.11 -8.723,13.62 -3.57,30.76 6.316,41.89 20.039,22.56 62.598,32.49 85.063,34.95 6.832,0.74 18.734,2.29 30.953,2.29 18.664,0 38.051,-3.62 41.148,-19.29 3.243,-16.42 -15.511,-23.39 -26.886,-27.12 -16.993,-5.58 -33.387,-13.15 -48.801,-22.54 -11.383,-6.94 -22.297,-14.89 -34.469,-20.12 -7.297,-3.13 -15.617,-5.17 -23.723,-5.17" /><path
         id="path302"
         style="fill:#f7961c;fill-opacity:1;fill-rule:nonzero;stroke:none"
         d="m 691.539,1751.73 c -4.781,0 -9.562,0.31 -14.309,0.92 -6.707,0.86 -14.863,5.34 -10.796,13.79 1.402,2.91 3.886,5.06 6.535,6.73 7.426,4.69 16.207,6.32 25.015,6.88 3.899,0.25 7.801,0.29 11.594,0.29 1.305,0 2.598,0 3.871,0 0.16,0 0.317,0 0.477,0 0.547,0 1.101,0 1.664,0 0.539,0 1.086,0 1.637,0 9.097,0 19.566,-0.35 26.429,-6.91 9.266,-8.85 -13.621,-15.1 -18.586,-16.64 -10.875,-3.36 -22.203,-5.06 -33.531,-5.06" /><path
         id="path304"
         style="fill:#facd17;fill-opacity:1;fill-rule:nonzero;stroke:none"
         d="m 371.617,1490.12 c -1.715,0 -3.441,0.13 -5.168,0.42 -2.683,0.45 -5.379,1.4 -7.394,3.33 -3.793,3.64 -4.258,9.86 -3.153,15.16 1.043,5.02 2.844,9.69 5.239,14.05 12.992,23.68 43.453,38.09 65.214,47.1 27.68,11.47 56.883,17.94 84.879,28.4 21.594,8.08 92.047,26.87 113.77,26.87 4.23,0 6.613,-0.71 6.43,-2.35 -0.84,-7.56 -105.348,-54.8 -117.286,-61.02 -35.093,-18.31 -68.726,-39.61 -103.968,-57.61 -11.879,-6.07 -25.024,-14.35 -38.563,-14.35" /><path
         id="path306"
         style="fill:#facd17;fill-opacity:1;fill-rule:nonzero;stroke:none"
         d="m 1026.45,1750.77 c 2.64,0.16 12.44,7.16 15.97,8.78 15.4,7.1 31.23,13.22 47.24,18.62 23.46,7.91 47.42,14.74 71.94,17.71 9.67,1.17 20.1,2.21 30.55,2.21 13.89,0 27.8,-1.85 39.94,-7.69 12.51,-6.02 16.2,-22 2.13,-28.88 -4.7,-2.29 -10.25,-3.51 -16.15,-4.13 -4.31,-0.46 -8.8,-0.59 -13.26,-0.59 -3.18,0 -6.34,0.07 -9.4,0.14 -3.06,0.06 -6.04,0.13 -8.84,0.13 -1.08,0 -2.13,-0.01 -3.16,-0.03 -52.35,-1.19 -104.68,-3.13 -156.96,-6.27" /><path
         id="path308"
         style="fill:#facd17;fill-opacity:1;fill-rule:nonzero;stroke:none"
         d="m 722.813,1630.86 c -4.067,0 -8.856,0.8 -10.36,4.75 -0.879,2.29 -0.238,4.93 0.793,7.16 3.324,7.19 10.246,11.61 16.973,15.26 23.433,12.74 50.894,25.79 77.988,25.79 7.301,0 14.574,-0.94 21.738,-3.1 3.426,-1.03 7.11,-2.58 8.727,-5.93 1.695,-3.53 0.437,-8.02 -2.063,-10.96 -2.496,-2.95 -5.984,-4.69 -9.398,-6.31 -32.789,-15.48 -68.059,-26.15 -103.949,-26.66 -0.149,0 -0.297,0 -0.449,0" /><path
         id="path310"
         style="fill:#facd17;fill-opacity:1;fill-rule:nonzero;stroke:none"
         d="m 921.664,1687.29 c -3.734,0 -7.223,0.55 -10.012,1.84 -5.648,2.6 -9.246,7.99 -6.191,14.2 1.656,3.34 4.684,5.62 7.715,7.55 5.996,3.84 12.578,6.89 19.551,7.66 0.793,0.08 1.578,0.12 2.355,0.12 7.16,0 13.648,-3.5 16.785,-8.18 3.567,-5.33 2.785,-12.21 -6.308,-17.22 -5.852,-3.22 -15.504,-5.97 -23.895,-5.97" /><path
         id="path312"
         style="fill:#f7961c;fill-opacity:1;fill-rule:nonzero;stroke:none"
         d="m 499.738,1395.41 c -29.019,0 -36.336,17.76 -36.98,35.72 -0.457,12.55 11.738,25.87 20.555,32.69 10.171,7.88 34.484,16.62 46.742,19.15 30.441,6.27 53.254,0.47 77.215,6.89 27.027,7.24 50.531,25.47 78.132,30.64 4.223,0.8 8.743,1.29 13.25,1.29 4.094,0 8.176,-0.41 12.008,-1.37 19.285,-4.81 -9.082,-13.35 -15.832,-14.73 -47.953,-9.8 -90.312,-68.43 -133.402,-91.45 -12.922,-6.9 -29.66,-14.36 -43.922,-17.02 -6.68,-1.24 -12.57,-1.81 -17.766,-1.81" /><path
         id="path314"
         style="fill:#f7961c;fill-opacity:1;fill-rule:nonzero;stroke:none"
         d="m 807.98,1517.55 c -12.39,0 -21.902,10.89 -13.113,24.42 10.895,16.78 38.203,23.76 56.078,24.05 0.188,0 0.387,0 0.602,0 5.234,0 17.519,-0.91 24.094,-5.09 3.804,-2.42 5.699,-5.93 3.218,-10.98 -2.007,-4.1 -6.109,-6.47 -10.023,-8.49 -19.047,-9.8 -35.676,-19.98 -57.25,-23.6 -1.223,-0.21 -2.426,-0.31 -3.606,-0.31" /><path
         id="path316"
         style="fill:#f7961c;fill-opacity:1;fill-rule:nonzero;stroke:none"
         d="m 1270.46,1706.79 c -4.44,0 -8.9,0.81 -12.17,3.85 -18.05,16.77 50.41,38.83 59.27,42.88 24.64,11.26 50.64,22.73 77.09,22.73 4.2,0 8.42,-0.29 12.65,-0.91 8.34,-1.24 16.77,-3.94 23.16,-9.74 6.41,-5.8 10.38,-15.2 8.29,-23.85 -2.81,-11.66 -15.23,-17.96 -26.57,-18.33 -0.52,-0.02 -1.04,-0.03 -1.56,-0.03 -10.8,0 -21.36,3.59 -32.14,4.76 -2.81,0.31 -5.61,0.45 -8.39,0.45 -32.32,0 -63.22,-19.02 -95.89,-21.65 -1.23,-0.1 -2.48,-0.16 -3.74,-0.16" /><path
         id="path318"
         style="fill:#f7961c;fill-opacity:1;fill-rule:nonzero;stroke:none"
         d="m 972.262,1585.38 c -2.844,0 -6.352,0.88 -6.77,3.81 -0.187,1.23 0.301,2.46 0.828,3.57 7.11,14.83 23.977,20.15 38.24,23.19 28.71,6.11 56.89,14.65 84.76,24.1 14.43,4.9 28.78,10.04 43.12,15.19 4.48,1.61 24.14,10.47 36.1,10.47 4.75,0 8.28,-1.4 9.17,-5.2 0.45,-1.93 -0.61,-3.97 -2.1,-5.17 -6.36,-5.11 -17.38,-6.82 -24.85,-9.52 -9.83,-3.56 -19.66,-7.12 -29.5,-10.68 -19.67,-7.13 -39.34,-14.25 -59.01,-21.37 -15.93,-5.77 -31.87,-11.53 -47.79,-17.3 -13.63,-4.93 -27.366,-10.85 -41.968,-11.09 -0.074,0 -0.152,0 -0.23,0" /><path
         id="path320"
         style="fill:#facd17;fill-opacity:1;fill-rule:nonzero;stroke:none"
         d="m 774.172,1345.73 c -3.25,0 -6.445,0.13 -9.567,0.42 56.86,32.26 126.403,50.37 187.118,74.22 63.637,24.98 127.287,49.97 190.917,74.96 7.72,3.03 16.78,5.66 25.04,5.66 8,0 15.24,-2.47 19.76,-9.43 -61,-46.73 -131.18,-77.75 -203.229,-99.61 -36.531,-11.1 -73.656,-19.89 -110.961,-27.52 -30.094,-6.16 -67.371,-18.7 -99.078,-18.7" /><path
         id="path322"
         style="fill:#facd17;fill-opacity:1;fill-rule:nonzero;stroke:none"
         d="m 1283.37,1525.89 c 37.16,27.09 84.46,44.9 125.1,66.08 41.67,21.73 86.52,46.88 105.03,92.02 5.4,13.17 11.12,30.11 24.63,31.37 0.48,0.04 0.96,0.06 1.44,0.06 6.66,0 12.82,-4.23 18.11,-8.69 14.93,-12.61 28.24,-31.53 24.72,-51.41 -2.38,-13.36 -11.86,-23.96 -21.72,-32.66 -38.19,-33.69 -87.03,-50.54 -135.49,-62.14 -47.09,-11.27 -94.8,-24.57 -141.82,-34.63" /><path
         id="path324"
         style="fill:#facd17;fill-opacity:1;fill-rule:nonzero;stroke:none"
         d="m 1372.1,1356.13 c -12.85,0 -25.55,1.65 -36.91,5.52 27.23,7.5 59.89,18.89 74.36,26.28 57.32,29.24 72.66,37.18 119.43,74.58 7.81,6.26 20.7,18.57 25.9,26.29 0.03,-34.65 -22.3,-65.83 -48.47,-84.42 -28.18,-20.02 -57.54,-33.66 -90.44,-42.39 -13.55,-3.6 -28.81,-5.86 -43.87,-5.86" /></g></g></svg>