<?xml version="1.0" encoding="utf-8"?>
<!-- Generator: Adobe Illustrator 24.1.2, SVG Export Plug-In . SVG Version: 6.00 Build 0)  -->
<svg version="1.1" id="Слой_1" xmlns="http://www.w3.org/2000/svg" xmlns:xlink="http://www.w3.org/1999/xlink" x="0px" y="0px"
	 viewBox="0 0 141.73 141.73" style="enable-background:new 0 0 141.73 141.73;" xml:space="preserve">
<style type="text/css">
	.st0{fill:#E87F07;}
	.st1{fill:#BF5606;}
	.st2{fill:#FFC17A;}
	.st3{fill:#FFD4A3;}
	.st4{fill:#FFECD6;}
	.st5{fill:#301211;}
	.st6{fill:#612A28;}
	.st7{fill:#451C1A;}
	.st8{fill:#FFBD73;}
	.st9{fill:#260D0D;}
	.st10{fill:#F7DDBE;}
	.st11{fill:#E69557;}
</style>
<g>
	<ellipse class="st0" cx="71.75" cy="71.9" rx="62.63" ry="60.35"/>
	<path class="st1" d="M125.24,71.6c-2.85-0.09-5.55,0.08-8.4,0.01c-1.29-0.41-2.56-0.92-3.77-1.53c-1.45-0.71-2.82-1.55-4.07-2.51
		c-2.52-1.92-4.55-4.37-5.78-7.18c-1.23-2.81-1.61-5.93-1.41-9.03c0.11-1.55,0.34-3.11,0.69-4.64c0.31-1.4,0.74-2.8,1.24-4.13
		c2.11-2.13,4.02-4.6,6.12-6.74c0.17-0.17,0.17-0.44,0-0.61c-0.17-0.18-0.47-0.19-0.65-0.02c-2.08,1.88-3.96,4.1-6.02,6
		c-1.21,0.59-2.49,1.1-3.78,1.48c-1.55,0.48-3.13,0.82-4.72,1c-3.18,0.36-6.43,0.01-9.36-1.14c-2.93-1.15-5.49-3.1-7.62-5.43
		c-1.06-1.17-2.04-2.43-2.91-3.75c-0.87-1.29-1.64-2.68-2.29-4.06c-0.07-2.84-0.34-6.2-0.43-9.04c-0.01-0.16-0.14-0.3-0.31-0.3
		c-0.18-0.01-0.33,0.13-0.33,0.3c-0.08,2.6,0.03,5.71-0.03,8.3c-0.44,1.39-1.03,2.77-1.73,4.07c-0.74,1.39-1.61,2.71-2.61,3.93
		c-1.99,2.42-4.54,4.39-7.45,5.57c-2.91,1.18-6.16,1.55-9.38,1.36c-1.61-0.11-3.22-0.33-4.82-0.67c-1.57-0.32-3.14-0.78-4.63-1.32
		c-2.13-1.96-4.71-4.32-6.85-6.27c-0.12-0.11-0.32-0.11-0.44,0c-0.13,0.12-0.14,0.32-0.01,0.44c1.84,1.88,4.14,4.16,5.99,6.03
		c0.71,1.29,1.33,2.68,1.78,4.1c0.5,1.49,0.85,3.02,1.04,4.55c0.37,3.07,0.01,6.19-1.19,9.01c-1.19,2.82-3.22,5.29-5.63,7.35
		c-1.22,1.02-2.52,1.97-3.9,2.81c-1.34,0.84-2.78,1.58-4.21,2.21c-2.95,0.07-6.28-0.23-9.23-0.14c-0.17,0.01-0.31,0.14-0.31,0.3
		c-0.01,0.17,0.13,0.32,0.31,0.32c2.7,0.08,5.77,0.53,8.46,0.59c1.44,0.43,2.88,0.99,4.22,1.67c1.45,0.71,2.82,1.55,4.07,2.51
		c2.52,1.92,4.55,4.37,5.78,7.18c1.23,2.81,1.61,5.93,1.41,9.03c-0.11,1.55-0.34,3.11-0.69,4.64c-0.33,1.51-0.81,3.03-1.37,4.46
		c-2.03,2.06-4.2,3.72-6.22,5.79c-0.12,0.12-0.12,0.31,0,0.43c0.12,0.13,0.33,0.13,0.46,0.01c1.96-1.77,4.03-3.17,5.98-4.95
		c1.34-0.69,2.79-1.28,4.25-1.72c1.55-0.48,3.13-0.82,4.72-1c3.18-0.36,6.43-0.01,9.36,1.14c2.93,1.15,5.49,3.1,7.63,5.43
		c1.06,1.17,2.04,2.43,2.91,3.75c0.81,1.2,1.53,2.48,2.15,3.77c0.07,2.94-0.08,5.52,0.01,8.46c0.01,0.23,0.2,0.42,0.45,0.43
		c0.26,0.01,0.47-0.19,0.48-0.43c0.09-2.74,0.4-5.12,0.47-7.86c0.42-1.24,0.95-2.47,1.59-3.63c0.74-1.39,1.61-2.71,2.61-3.93
		c1.99-2.42,4.54-4.39,7.45-5.57c2.91-1.18,6.16-1.55,9.38-1.36c1.61,0.11,3.22,0.33,4.82,0.67c1.45,0.3,2.9,0.71,4.28,1.2
		c2.21,2.03,4.05,3.85,6.28,5.86c0.18,0.16,0.45,0.16,0.63,0c0.19-0.17,0.2-0.45,0.02-0.63c-1.95-2-3.54-3.78-5.5-5.77
		c-0.61-1.16-1.14-2.4-1.54-3.65c-0.5-1.49-0.85-3.02-1.04-4.55c-0.37-3.07-0.01-6.19,1.19-9.01c1.19-2.82,3.22-5.29,5.63-7.35
		c1.22-1.02,2.52-1.97,3.9-2.81c1.24-0.78,2.58-1.47,3.91-2.07c3.05-0.07,5.96-0.38,9.01-0.48c0.24-0.01,0.44-0.2,0.45-0.43
		C125.7,71.81,125.5,71.6,125.24,71.6z M101.46,61.11c0.69,1.56,1.61,3.02,2.72,4.33c0.55,0.65,1.15,1.27,1.79,1.84
		c0.64,0.57,1.3,1.11,2.01,1.6c0.7,0.49,1.43,0.94,2.18,1.35c0.75,0.4,1.53,0.77,2.32,1.09c0.19,0.08,0.39,0.14,0.58,0.22
		c-4.8-0.1-9.6-0.17-14.4-0.21l-5.4-0.04c-0.3-0.11-0.6-0.24-0.88-0.37c-0.64-0.29-1.24-0.63-1.81-1.01
		c-1.13-0.77-2.08-1.73-2.71-2.86c-0.31-0.57-0.59-1.21-0.81-1.84c-0.21-0.64-0.39-1.29-0.5-1.95c-0.11-0.66-0.17-1.33-0.16-2
		c0-0.34,0.01-0.67,0.05-1c0.02-0.19,0.05-0.39,0.08-0.57l5.03-4.92c3.36-3.29,6.69-6.61,10.01-9.94c-0.18,0.51-0.36,1.02-0.52,1.54
		c-0.47,1.58-0.8,3.21-0.97,4.86C99.72,54.52,100.09,57.97,101.46,61.11z M59.15,81.07c-0.09-0.78-0.28-1.53-0.51-2.28
		c-0.27-0.74-0.55-1.44-0.95-2.16c-0.81-1.41-2.03-2.57-3.41-3.39c5.01,0.04,10.02,0.07,15.03,0.09c-3.38,3.28-6.75,6.57-10.11,9.86
		C59.25,82.49,59.24,81.77,59.15,81.07z M84.73,63.49c0.09,0.78,0.28,1.53,0.51,2.28c0.27,0.74,0.55,1.44,0.95,2.16
		c0.79,1.38,1.97,2.51,3.31,3.33l-4.19-0.03l-10.71,0l7.57-7.3l2.51-2.45C84.63,62.14,84.65,62.82,84.73,63.49z M80.61,62.43
		l-7.58,7.3c-0.02-4.61-0.04-9.23-0.09-13.84c0.48,0.53,1.01,1.02,1.59,1.46c0.63,0.49,1.32,0.89,2.03,1.27
		c0.73,0.34,1.45,0.65,2.25,0.88c1.57,0.43,3.24,0.43,4.78,0.1L80.61,62.43z M70.85,69.75c-3.4-3.26-6.82-6.5-10.24-9.74
		c0.73,0.05,1.47,0.03,2.21-0.04c0.8-0.09,1.59-0.27,2.37-0.49c0.77-0.26,1.5-0.53,2.24-0.92c1.46-0.79,2.67-1.96,3.52-3.28
		C70.9,60.1,70.87,64.92,70.85,69.75z M58.67,65.65c0.46-1.56,0.45-3.21,0.08-4.73c0,0,0,0,0,0c3.51,3.45,7.03,6.88,10.56,10.31
		c-4.79,0.02-9.59,0.04-14.38,0.08c0.55-0.46,1.06-0.98,1.52-1.53c0.51-0.61,0.93-1.28,1.31-1.96
		C58.12,67.12,58.43,66.43,58.67,65.65z M70.84,74.82l0,10.33l0.03,3.44c-0.46-0.51-0.97-0.97-1.52-1.39
		c-0.63-0.49-1.32-0.89-2.03-1.27c-0.73-0.34-1.45-0.65-2.25-0.88c-1.61-0.44-3.33-0.44-4.91-0.07c0,0,0,0,0,0
		C63.72,81.61,67.29,78.22,70.84,74.82z M73.03,85.15l0-10.32l7.58,7.29l2.55,2.42c-0.7-0.04-1.4-0.02-2.1,0.05
		c-0.8,0.09-1.59,0.27-2.37,0.49c-0.77,0.26-1.5,0.53-2.24,0.92c-1.43,0.77-2.61,1.9-3.45,3.19L73.03,85.15z M85.21,78.91
		c-0.45,1.51-0.45,3.12-0.1,4.61l-2.94-2.87l-7.57-7.3l10.71,0l3.57-0.02c-0.52,0.45-1.01,0.94-1.45,1.47
		c-0.51,0.61-0.93,1.28-1.31,1.96C85.76,77.44,85.45,78.13,85.21,78.91z M73.49,34.12c0.83,1.44,1.79,2.82,2.88,4.1
		c2.17,2.57,4.97,4.76,8.24,6.04c1.63,0.63,3.36,1.04,5.1,1.21c0.87,0.09,1.75,0.11,2.62,0.08c0.87-0.03,1.74-0.1,2.59-0.24
		c0.86-0.14,1.7-0.31,2.53-0.54c0.83-0.23,1.64-0.5,2.44-0.81c0.19-0.08,0.38-0.16,0.57-0.24c-3.47,3.2-6.91,6.42-10.34,9.66
		l-3.84,3.65c-0.29,0.12-0.59,0.24-0.89,0.34c-0.66,0.23-1.34,0.4-2.03,0.52c-1.36,0.23-2.74,0.19-4.02-0.17
		c-0.63-0.19-1.3-0.46-1.92-0.74c-0.62-0.31-1.22-0.64-1.79-1.04c-0.56-0.39-1.1-0.83-1.58-1.31c-0.25-0.23-0.48-0.48-0.7-0.74
		c-0.15-0.18-0.3-0.37-0.43-0.55c-0.02-2.27-0.05-4.54-0.08-6.81c-0.06-4.71-0.15-9.42-0.26-14.13
		C72.87,32.98,73.17,33.55,73.49,34.12z M45.03,44.24c1.64,0.45,3.33,0.77,5.05,0.94c3.42,0.33,7.01-0.02,10.26-1.34
		c1.62-0.67,3.13-1.55,4.49-2.62c0.68-0.53,1.32-1.11,1.91-1.73c0.6-0.61,1.16-1.26,1.66-1.94c0.51-0.68,0.97-1.38,1.4-2.1
		c0.42-0.73,0.79-1.47,1.13-2.23c0.13-0.3,0.25-0.6,0.37-0.91c-0.11,4.74-0.2,9.48-0.26,14.22c-0.02,1.67-0.04,3.33-0.06,5
		c-0.14,0.35-0.29,0.71-0.46,1.04c-0.3,0.61-0.66,1.2-1.05,1.75c-0.8,1.09-1.8,2-2.97,2.61c-0.59,0.3-1.26,0.57-1.91,0.78
		c-0.66,0.2-1.34,0.38-2.02,0.48c-0.69,0.1-1.38,0.16-2.08,0.16c-0.35,0-0.7-0.01-1.04-0.05c-0.24-0.02-0.5-0.06-0.73-0.1
		c-1.68-1.59-3.35-3.18-5.04-4.76c-3.5-3.29-7.02-6.56-10.56-9.82C43.75,43.86,44.38,44.06,45.03,44.24z M32.34,70.79
		c1.49-0.8,2.92-1.72,4.26-2.78c2.66-2.1,4.94-4.79,6.27-7.94c0.66-1.58,1.08-3.23,1.25-4.91c0.09-0.84,0.12-1.68,0.08-2.52
		c-0.03-0.84-0.11-1.68-0.25-2.5c-0.14-0.82-0.33-1.64-0.56-2.44c-0.24-0.8-0.52-1.58-0.84-2.35c-0.13-0.3-0.27-0.6-0.41-0.9
		c3.4,3.43,6.82,6.85,10.26,10.24c1.2,1.19,2.41,2.37,3.61,3.56c0.17,0.35,0.32,0.72,0.45,1.08c0.24,0.64,0.42,1.3,0.54,1.95
		c0.24,1.31,0.2,2.64-0.18,3.87c-0.2,0.61-0.47,1.26-0.77,1.85c-0.32,0.6-0.67,1.18-1.07,1.72c-0.41,0.54-0.86,1.06-1.36,1.53
		c-0.24,0.24-0.5,0.46-0.77,0.68c-0.18,0.14-0.39,0.29-0.57,0.42c-2.36,0.02-4.71,0.05-7.07,0.08c-4.89,0.06-9.78,0.14-14.67,0.25
		C31.15,71.38,31.74,71.09,32.34,70.79z M42.42,83.45c-0.69-1.56-1.61-3.02-2.72-4.33c-0.55-0.65-1.15-1.27-1.79-1.84
		c-0.64-0.57-1.3-1.11-2.01-1.6c-0.7-0.49-1.43-0.94-2.18-1.35c-0.75-0.4-1.53-0.77-2.32-1.09c-0.31-0.13-0.63-0.24-0.94-0.35
		c4.92,0.11,9.84,0.19,14.76,0.25c1.73,0.02,3.46,0.04,5.19,0.06c0.37,0.13,0.74,0.28,1.08,0.44c0.64,0.29,1.24,0.63,1.81,1.01
		c1.13,0.77,2.08,1.73,2.71,2.86c0.31,0.57,0.59,1.21,0.81,1.84c0.21,0.64,0.39,1.29,0.5,1.95c0.11,0.66,0.17,1.33,0.16,2
		c0,0.34-0.01,0.67-0.05,1c-0.03,0.23-0.06,0.48-0.1,0.7c-1.65,1.62-3.3,3.23-4.94,4.85c-3.42,3.37-6.81,6.77-10.19,10.17
		c0.22-0.61,0.43-1.22,0.63-1.85c0.47-1.58,0.8-3.21,0.97-4.86C44.16,90.04,43.79,86.59,42.42,83.45z M70.39,110.44
		c-0.83-1.44-1.79-2.82-2.88-4.1c-2.17-2.57-4.97-4.76-8.24-6.04c-1.63-0.63-3.36-1.04-5.1-1.21C53.29,99,52.42,98.97,51.55,99
		c-0.87,0.03-1.74,0.1-2.59,0.24c-0.86,0.14-1.7,0.31-2.53,0.54c-0.83,0.23-1.64,0.5-2.44,0.81c-0.32,0.12-0.63,0.26-0.94,0.4
		c3.56-3.28,7.11-6.57,10.63-9.89c1.23-1.16,2.46-2.32,3.69-3.48c0.36-0.16,0.74-0.31,1.12-0.43c0.66-0.23,1.34-0.4,2.03-0.52
		c1.36-0.23,2.74-0.19,4.02,0.17c0.63,0.19,1.3,0.46,1.92,0.74c0.62,0.31,1.22,0.64,1.79,1.04c0.56,0.39,1.1,0.83,1.58,1.31
		c0.25,0.23,0.48,0.48,0.7,0.74c0.12,0.15,0.25,0.31,0.36,0.46l0.05,6.9c0.04,4.62,0.12,9.23,0.22,13.85
		C70.91,111.39,70.66,110.91,70.39,110.44z M98.85,100.32c-1.64-0.45-3.33-0.77-5.05-0.94c-3.42-0.33-7.01,0.02-10.26,1.34
		c-1.62,0.67-3.13,1.55-4.49,2.62c-0.68,0.53-1.32,1.11-1.91,1.73c-0.6,0.61-1.16,1.26-1.66,1.94c-0.51,0.68-0.97,1.38-1.4,2.1
		c-0.42,0.73-0.79,1.47-1.13,2.23c-0.08,0.18-0.15,0.37-0.22,0.56c0.1-4.62,0.18-9.25,0.22-13.87l0.04-5.2
		c0.12-0.29,0.24-0.57,0.38-0.85c0.3-0.61,0.66-1.2,1.05-1.75c0.8-1.09,1.8-2,2.97-2.61c0.59-0.3,1.26-0.57,1.91-0.78
		c0.66-0.2,1.34-0.38,2.02-0.49c0.69-0.1,1.38-0.16,2.08-0.16c0.35,0,0.7,0.01,1.04,0.05c0.19,0.02,0.4,0.05,0.59,0.08l5.1,4.85
		c3.42,3.24,6.86,6.45,10.32,9.64C99.92,100.64,99.39,100.47,98.85,100.32z M111.54,73.77c-1.49,0.8-2.92,1.72-4.26,2.78
		c-2.66,2.1-4.94,4.79-6.27,7.94c-0.66,1.58-1.08,3.23-1.25,4.91c-0.09,0.84-0.12,1.68-0.08,2.52c0.03,0.84,0.11,1.68,0.25,2.5
		c0.14,0.82,0.33,1.64,0.56,2.44c0.24,0.8,0.52,1.58,0.84,2.35c0.08,0.18,0.17,0.36,0.25,0.55c-3.32-3.34-6.66-6.66-10.03-9.96
		l-3.79-3.7c-0.13-0.28-0.25-0.57-0.35-0.86c-0.24-0.64-0.42-1.3-0.54-1.95c-0.24-1.31-0.2-2.64,0.18-3.87
		c0.2-0.61,0.47-1.26,0.77-1.85c0.32-0.6,0.67-1.18,1.07-1.72c0.41-0.54,0.86-1.06,1.36-1.53c0.24-0.24,0.5-0.46,0.77-0.68
		c0.15-0.12,0.32-0.24,0.48-0.35l7.16-0.05c4.79-0.04,9.58-0.11,14.37-0.21C112.54,73.27,112.04,73.51,111.54,73.77z"/>
	<path class="st1" d="M133.51,79.15c0.39-3.15,3.7-6.24,3.58-9.51c-0.12-3.27-3.65-6.12-4.28-9.24c-0.64-3.2,1.51-7.12,0.37-10.11
		c-1.15-3.05-5.43-4.71-7.05-7.5c-1.63-2.82-0.85-7.2-2.9-9.72c-2.06-2.54-6.66-2.85-9.11-5.04c-2.44-2.19-3.09-6.59-5.87-8.39
		c-2.76-1.79-7.23-0.73-10.27-2.09c-3.01-1.35-5.04-5.34-8.27-6.23c-3.18-0.87-7.09,1.48-10.44,1.09C76,12.02,72.79,8.83,69.4,8.95
		s-6.36,3.52-9.59,4.13c-3.32,0.62-7.39-1.45-10.49-0.36c-3.16,1.11-4.89,5.23-7.79,6.79c-2.93,1.57-7.47,0.82-10.09,2.8
		c-2.63,1.99-2.95,6.42-5.23,8.78s-6.84,2.98-8.71,5.65c-1.86,2.66-0.75,6.97-2.17,9.9c-1.4,2.9-5.54,4.85-6.47,7.97
		c-0.91,3.06,1.53,6.83,1.13,10.06c-0.39,3.15-3.7,6.24-3.58,9.51c0.12,3.27,3.65,6.12,4.28,9.24c0.64,3.2-1.51,7.12-0.37,10.11
		c1.15,3.05,5.43,4.71,7.05,7.5c1.63,2.82,0.85,7.2,2.9,9.72c2.06,2.54,6.66,2.85,9.11,5.04c2.44,2.19,3.09,6.59,5.87,8.39
		c2.76,1.79,7.23,0.73,10.27,2.09c3.01,1.35,5.04,5.34,8.27,6.23c3.18,0.87,7.09-1.48,10.44-1.09c3.27,0.38,6.48,3.57,9.87,3.45
		c3.39-0.12,6.36-3.52,9.59-4.13c3.32-0.62,7.39,1.45,10.49,0.36c3.16-1.11,4.89-5.23,7.79-6.79c2.93-1.57,7.47-0.82,10.09-2.8
		c2.63-1.99,2.95-6.42,5.23-8.78c2.27-2.35,6.84-2.98,8.71-5.65c1.86-2.66,0.75-6.97,2.17-9.9c1.4-2.9,5.54-4.85,6.47-7.97
		C135.54,86.15,133.1,82.38,133.51,79.15z M125.07,78.16c-0.35,2.8,2.18,6.14,1.39,8.8c-0.8,2.7-4.79,4.25-6,6.77
		c-1.23,2.54,0.1,6.47-1.51,8.78c-1.62,2.32-5.91,2.61-7.88,4.65c-1.97,2.04-1.96,6.18-4.25,7.91c-2.27,1.72-6.44,0.72-8.98,2.09
		c-2.51,1.35-3.83,5.29-6.57,6.25c-2.69,0.95-6.33-1.24-9.21-0.7c-2.8,0.52-5.32,3.88-8.26,3.98c-2.94,0.1-5.7-3.07-8.54-3.4
		c-2.91-0.34-6.38,2.1-9.13,1.34c-2.81-0.77-4.41-4.61-7.02-5.78c-2.64-1.18-6.72,0.1-9.11-1.46c-2.4-1.56-2.71-5.69-4.82-7.59
		c-2.12-1.9-6.42-1.89-8.21-4.09c-1.78-2.19-0.75-6.2-2.16-8.65c-1.4-2.42-5.49-3.69-6.49-6.33c-0.98-2.59,1.29-6.1,0.73-8.87
		c-0.54-2.7-4.03-5.13-4.13-7.96c-0.11-2.83,3.19-5.5,3.53-8.23c0.35-2.8-2.18-6.14-1.39-8.8c0.8-2.7,4.79-4.25,6-6.77
		c1.23-2.54-0.1-6.47,1.51-8.78c1.62-2.32,5.91-2.61,7.88-4.65c1.97-2.04,1.96-6.18,4.25-7.91c2.27-1.72,6.44-0.72,8.98-2.09
		c2.51-1.35,3.83-5.29,6.57-6.25c2.69-0.95,6.33,1.24,9.21,0.7c2.8-0.52,5.32-3.88,8.26-3.98c2.94-0.1,5.7,3.07,8.54,3.4
		c2.91,0.34,6.38-2.1,9.13-1.34c2.81,0.77,4.41,4.61,7.02,5.78c2.64,1.18,6.72-0.1,9.11,1.46c2.4,1.56,2.71,5.69,4.82,7.59
		c2.12,1.9,6.42,1.89,8.21,4.09c1.78,2.19,0.75,6.2,2.16,8.65c1.4,2.42,5.49,3.69,6.49,6.33c0.98,2.59-1.29,6.1-0.73,8.87
		c0.54,2.7,4.03,5.13,4.13,7.96C128.7,72.77,125.41,75.43,125.07,78.16z"/>
	<path class="st2" d="M136.44,79.5c0.41-3.3,3.88-6.54,3.75-9.96c-0.13-3.42-3.83-6.41-4.49-9.68c-0.67-3.35,1.58-7.45,0.39-10.59
		c-1.21-3.19-5.69-4.93-7.38-7.86c-1.71-2.96-0.89-7.54-3.04-10.18c-2.16-2.66-6.98-2.98-9.54-5.28c-2.56-2.3-3.24-6.9-6.15-8.79
		c-2.89-1.88-7.58-0.76-10.77-2.19c-3.15-1.42-5.27-5.6-8.66-6.53c-3.33-0.92-7.42,1.55-10.94,1.14c-3.42-0.4-6.79-3.74-10.34-3.62
		c-3.55,0.12-6.66,3.69-10.05,4.32c-3.47,0.65-7.74-1.52-10.99-0.38c-3.31,1.16-5.12,5.48-8.16,7.11
		c-3.07,1.65-7.83,0.86-10.57,2.93c-2.76,2.08-3.1,6.73-5.48,9.19c-2.38,2.47-7.17,3.12-9.12,5.92c-1.95,2.79-0.79,7.3-2.28,10.37
		c-1.47,3.03-5.81,5.08-6.77,8.35c-0.95,3.21,1.61,7.15,1.18,10.54c-0.41,3.3-3.88,6.54-3.75,9.96c0.13,3.42,3.83,6.41,4.49,9.68
		c0.67,3.35-1.58,7.45-0.39,10.59c1.21,3.19,5.69,4.93,7.38,7.86c1.71,2.96,0.89,7.54,3.04,10.18c2.16,2.66,6.98,2.98,9.54,5.28
		c2.56,2.3,3.24,6.9,6.15,8.79c2.89,1.88,7.58,0.76,10.77,2.19c3.15,1.42,5.27,5.6,8.66,6.53c3.33,0.92,7.42-1.55,10.94-1.14
		c3.42,0.4,6.79,3.74,10.34,3.62c3.55-0.12,6.66-3.69,10.05-4.32c3.47-0.65,7.74,1.52,10.99,0.38c3.31-1.16,5.12-5.48,8.16-7.11
		c3.07-1.65,7.83-0.86,10.57-2.93c2.76-2.08,3.1-6.73,5.48-9.19c2.38-2.47,7.17-3.12,9.12-5.92c1.95-2.79,0.79-7.3,2.28-10.37
		c1.47-3.03,5.81-5.08,6.77-8.35C138.57,86.82,136.01,82.88,136.44,79.5z M127.6,78.46c-0.37,2.93,2.28,6.43,1.46,9.22
		c-0.84,2.83-5.01,4.45-6.29,7.09c-1.29,2.66,0.1,6.78-1.59,9.2c-1.7,2.43-6.19,2.73-8.26,4.87c-2.06,2.14-2.06,6.47-4.44,8.28
		c-2.38,1.8-6.75,0.75-9.41,2.19c-2.63,1.41-4.02,5.54-6.89,6.55c-2.82,0.99-6.63-1.3-9.65-0.74c-2.93,0.55-5.57,4.07-8.66,4.17
		c-3.08,0.11-5.98-3.22-8.94-3.56c-3.05-0.35-6.68,2.2-9.57,1.41c-2.94-0.81-4.62-4.83-7.36-6.06c-2.76-1.24-7.04,0.1-9.55-1.53
		c-2.52-1.64-2.83-5.96-5.05-7.95c-2.22-1.99-6.72-1.98-8.6-4.28c-1.86-2.29-0.78-6.5-2.27-9.06c-1.46-2.54-5.75-3.87-6.8-6.64
		c-1.03-2.72,1.35-6.39,0.77-9.29c-0.57-2.83-4.22-5.37-4.33-8.34c-0.11-2.97,3.34-5.76,3.7-8.62c0.37-2.93-2.28-6.43-1.46-9.22
		c0.84-2.83,5.01-4.45,6.29-7.09c1.29-2.66-0.1-6.78,1.59-9.2c1.7-2.43,6.19-2.73,8.26-4.87c2.06-2.14,2.06-6.47,4.44-8.28
		c2.38-1.8,6.75-0.75,9.41-2.19c2.63-1.41,4.02-5.54,6.89-6.55c2.82-0.99,6.63,1.3,9.65,0.74c2.93-0.55,5.57-4.07,8.66-4.17
		c3.08-0.11,5.98,3.22,8.94,3.56c3.05,0.35,6.68-2.2,9.57-1.41c2.94,0.81,4.62,4.83,7.36,6.06c2.76,1.24,7.04-0.1,9.55,1.53
		c2.52,1.64,2.83,5.96,5.05,7.95c2.22,1.99,6.72,1.98,8.6,4.28c1.86,2.29,0.78,6.5,2.26,9.06c1.47,2.54,5.75,3.87,6.8,6.64
		c1.03,2.72-1.35,6.39-0.77,9.29c0.57,2.83,4.22,5.37,4.33,8.34C131.4,72.81,127.95,75.6,127.6,78.46z"/>
	<g>
		<path class="st1" d="M115.39,50.81c-0.14-0.05-0.3,0.01-0.37,0.14l0,0c-0.82,1.57-1.53,3.85-2.62,5.2
			c-0.55,0.67-1.14,1.29-1.81,1.8c-0.6,0.46-1.25,0.82-1.94,1.12c-0.72-0.01-1.53-0.19-2.32-0.44c-0.84-0.27-1.68-0.62-2.5-1
			c-1.13-0.54-2.24-1.15-3.31-1.82c0.11-0.04,0.22-0.07,0.32-0.11c0.63,0.15,1.27,0.28,1.93,0.36c1.5,0.19,3.05,0.09,4.51-0.19
			l0-0.02h0l0.01,0c0.15-0.03,0.28-0.1,0.37-0.2c0.94-0.91,1.5-2.01,1.91-3.1c0.4-1.09,0.65-2.2,0.83-3.31
			c0.35-2.21,0.26-4.52,0.28-6.72c0-0.16-0.13-0.28-0.29-0.29c-0.15,0-0.28,0.11-0.3,0.26c-0.22,2.17-0.32,4.45-0.84,6.53
			c-0.26,1.04-0.59,2.06-1.04,3c-0.4,0.85-0.91,1.64-1.55,2.22c-1.25,0.35-2.51,0.54-3.8,0.51c-0.09,0-0.17-0.01-0.26-0.02
			c1.97-1.41,3.26-3.66,3.26-6.21c0-4.27-3.6-7.74-8.03-7.74c-3.25,0-6.04,1.86-7.31,4.54c-0.02-0.09-0.05-0.17-0.07-0.26
			c-0.31-1.21-0.37-2.44-0.28-3.69c0.45-0.72,1.15-1.37,1.93-1.92c0.86-0.61,1.7-1.28,2.67-1.81c1.94-1.05,4.16-2.23,6.32-2.88
			c0.14-0.04,0.23-0.19,0.2-0.33c-0.04-0.15-0.19-0.25-0.35-0.21c-2.23,0.48-4.29,1.81-6.47,2.61c-1.09,0.4-2.16,0.86-3.18,1.47
			c-1.02,0.61-2.01,1.37-2.75,2.44c-0.08,0.11-0.12,0.25-0.12,0.39v0.01v0l-0.02,0c0.02,1.43,0.24,2.92,0.75,4.29
			c0.22,0.61,0.49,1.2,0.78,1.77c-0.02,0.1-0.04,0.21-0.05,0.31c-0.9-0.87-1.76-1.79-2.54-2.75c-0.56-0.69-1.09-1.41-1.54-2.14
			c-0.42-0.69-0.77-1.42-0.93-2.1c0.15-0.71,0.39-1.4,0.73-2.06c0.37-0.74,0.75-1.54,1.26-2.24c1.02-1.39,2.66-2.97,4.02-4.22l0,0
			c0.12-0.09,0.14-0.25,0.06-0.37c-0.09-0.13-0.27-0.17-0.41-0.08c-1.55,0.96-3.18,2.55-4.56,3.82c-0.69,0.64-1.11,1.59-1.64,2.4
			c-0.53,0.8-0.94,1.7-1.22,2.62l-0.02,0.08c-0.03,0.09-0.03,0.2,0,0.3l0,0c0.3,1.04,0.82,1.88,1.37,2.66
			c0.56,0.78,1.18,1.5,1.82,2.18c1.1,1.15,2.27,2.2,3.52,3.19c0,0.04,0,0.07,0.01,0.11c-1.45-0.43-2.9-0.88-4.35-1.34l-5.37-1.73
			c-0.15-0.05-0.32-0.05-0.48-0.01l-0.04,0.01l0,0c-1.11,0.43-2.17,0.89-3.18,1.43c-1.01,0.54-1.99,1.12-2.93,1.75
			c-1.89,1.25-3.75,1.71-5.4,3.22c-0.11,0.1-0.18,0.21-0.09,0.32c0.1,0.12,0.29,0.14,0.41,0.04c1.75-1.34,3.76-1.57,5.7-2.63
			c0.97-0.53,1.95-1.02,2.96-1.45c0.92-0.39,1.86-0.74,2.81-0.98l5.24,1.28c1.59,0.38,3.17,0.75,4.77,1.09
			c-0.07,0.03-0.14,0.07-0.21,0.1c-0.73-0.03-1.45,0-2.17,0.05c-0.94,0.07-1.88,0.17-2.82,0.31c-0.94,0.12-1.86,0.3-2.79,0.47
			c-0.46,0.09-0.92,0.19-1.38,0.3c-0.47,0.11-0.91,0.21-1.43,0.37l-0.01,0c-0.05,0.01-0.09,0.03-0.13,0.06
			c-0.82,0.5-1.54,1.02-2.26,1.59c-0.7,0.58-1.47,0.78-2.09,1.43c-0.32,0.32-0.66,0.33-0.96,0.67c-0.28,0.35-0.57,0.4-0.84,0.77
			c-0.54,0.71-1.02,1.48-1.43,2.26c-0.04,0.07-0.02,0.16,0.04,0.22c0.08,0.07,0.2,0.06,0.27-0.01l0.01-0.01
			c0.61-0.64,1.19-1.29,1.83-1.88c0.62-0.61,3.86-2.84,6.16-3.73c0.36-0.11,0.8-0.22,1.21-0.32l1.35-0.32l2.71-0.63
			c1.17-0.25,2.34-0.52,3.52-0.76c-1.73,1.54-3.02,4.29-2.51,6.95c0.06,0.31,0.34,0.53,0.65,0.53c0.04,0,0.08,0,0.12-0.01
			c0.36-0.06,0.6-0.4,0.54-0.75c-0.2-1.07-0.07-1.99,0.22-2.75c0.22,0.86,0.77,1.77,1.77,2.73c1.26,1.21,2.43,1.75,3.52,1.81
			c-0.63,0.32-1.4,0.55-2.31,0.6c-0.37,0.02-0.65,0.32-0.63,0.67c0.02,0.34,0.31,0.61,0.66,0.61c0.01,0,0.02,0,0.03,0
			c2.92-0.14,6.03-2.41,6.88-4.55c0.06,1.54,0.01,3.09-0.01,4.63l-0.07,2.68l-0.04,1.34c-0.02,0.41-0.04,0.85-0.08,1.21
			c-0.27,0.74-0.62,1.51-0.97,2.24c-0.36,0.77-0.78,1.52-1.2,2.27c-0.43,0.74-0.93,0.51-1.42,1.22c-0.47,0.73-1.01,1.41-1.53,2.12
			l0,0.01c-0.06,0.08-0.04,0.2,0.04,0.26c0.07,0.05,0.16,0.03,0.23-0.01c0.86-0.45,3.01-2.3,3.58-3.05c0.55-0.71,1.17-1.4,1.61-2.18
			c0.43-0.8,0.8-1.59,1.14-2.46c0.02-0.04,0.03-0.09,0.03-0.14l0-0.01c0.06-0.52,0.06-0.95,0.08-1.42c0.01-0.46,0.02-0.91,0.01-1.37
			c-0.02-0.91-0.03-1.82-0.1-2.72c-0.06-0.91-0.15-1.81-0.27-2.72c-0.12-0.78-0.26-1.56-0.49-2.34c0.04,0,0.07,0,0.11-0.01
			c0.7,1.46,1.41,2.89,2.13,4.33l2.39,4.67c-0.04,0.95-0.21,1.9-0.41,2.85c-0.23,1.04-0.52,2.07-0.85,3.09
			c-0.67,2.04-1.63,3.16-2.63,5.09c-0.07,0.14-0.02,0.31,0.13,0.38c0.14,0.07,0.3,0.02,0.38-0.11c1.25-1.79,2.33-2.95,3.21-4.98
			c0.44-1.02,0.83-2.06,1.17-3.13c0.34-1.07,0.59-2.16,0.79-3.3v0l0-0.04c0.01-0.16-0.03-0.32-0.11-0.45l-2.87-4.7
			c-0.76-1.27-1.52-2.54-2.26-3.81c0.04-0.01,0.08-0.01,0.12-0.02c1.25,0.96,2.56,1.85,3.95,2.64c0.83,0.47,1.68,0.9,2.59,1.27
			c0.91,0.36,1.87,0.68,2.99,0.74l0,0c0.11,0.01,0.21-0.01,0.3-0.06l0.08-0.04c0.88-0.45,1.7-1.03,2.41-1.69
			c0.71-0.67,1.29-1.42,1.8-2.2c1.01-1.57,1.71-3.84,2.2-5.62C115.6,51.02,115.54,50.86,115.39,50.81z"/>
		<g>
			<path class="st3" d="M72,20.34c0.28,8.58,0.46,17.17,0.57,25.75c0.13,8.58,0.18,17.17,0.2,25.75l0,12.87l-0.09,12.87
				c-0.08,8.58-0.26,17.17-0.54,25.75c-0.01,0.25-0.22,0.44-0.48,0.43c-0.25-0.01-0.44-0.2-0.45-0.43
				c-0.28-8.58-0.46-17.17-0.54-25.75l-0.09-12.87l0-12.87c0.03-8.58,0.08-17.17,0.2-25.75c0.11-8.58,0.3-17.17,0.57-25.75
				c0.01-0.17,0.15-0.31,0.33-0.3C71.86,20.04,72,20.18,72,20.34z"/>
			<path class="st3" d="M34.11,35.2c6.49,5.88,12.93,11.82,19.3,17.82C59.8,59,66.14,65.04,72.46,71.09l9.45,9.11l9.38,9.17
				c6.24,6.12,12.41,12.32,18.52,18.57c0.17,0.18,0.17,0.46-0.02,0.63c-0.18,0.16-0.46,0.16-0.63,0
				c-6.49-5.88-12.92-11.83-19.28-17.84l-9.52-9.04l-9.45-9.1C64.62,66.5,58.36,60.4,52.15,54.24c-6.22-6.14-12.39-12.34-18.49-18.6
				c-0.12-0.13-0.12-0.32,0.01-0.44C33.79,35.09,33.99,35.09,34.11,35.2z"/>
			<path class="st3" d="M18.23,71.53c8.91-0.27,17.82-0.45,26.73-0.55c8.91-0.12,17.82-0.17,26.73-0.19l13.36,0l13.36,0.09
				c8.91,0.08,17.82,0.25,26.73,0.52c0.26,0.01,0.46,0.21,0.45,0.46c-0.01,0.24-0.21,0.42-0.45,0.43
				c-8.91,0.27-17.82,0.44-26.73,0.52L85.04,72.9l-13.36,0c-8.91-0.03-17.82-0.07-26.73-0.19c-8.91-0.11-17.82-0.29-26.73-0.55
				c-0.18-0.01-0.32-0.15-0.31-0.32C17.92,71.67,18.06,71.53,18.23,71.53z"/>
			<path class="st3" d="M33.65,108.04c6.1-6.26,12.27-12.45,18.49-18.6c6.21-6.15,12.47-12.26,18.76-18.35l9.45-9.1l9.52-9.04
				c6.35-6.02,12.78-11.96,19.28-17.84c0.19-0.17,0.48-0.16,0.65,0.02c0.17,0.17,0.17,0.44,0,0.61C103.7,42,97.53,48.19,91.28,54.31
				l-9.38,9.17l-9.45,9.11c-6.32,6.05-12.65,12.09-19.04,18.07c-6.38,5.99-12.81,11.94-19.3,17.82c-0.13,0.12-0.34,0.11-0.46-0.01
				C33.54,108.34,33.54,108.15,33.65,108.04z"/>
			<g>
				<path class="st3" d="M58.2,57.73c0.28,0.06,0.65,0.11,0.98,0.14c0.34,0.03,0.69,0.05,1.04,0.05c0.7,0.01,1.39-0.05,2.08-0.16
					c0.69-0.11,1.36-0.28,2.02-0.49c0.65-0.22,1.32-0.49,1.91-0.78c1.17-0.61,2.17-1.52,2.97-2.61c0.4-0.55,0.75-1.13,1.05-1.75
					c0.31-0.6,0.57-1.27,0.75-1.88l0.01-0.05c0.11-0.35,0.48-0.54,0.84-0.44c0.32,0.09,0.52,0.4,0.48,0.71
					c-0.11,0.81-0.33,1.52-0.6,2.25c-0.28,0.72-0.63,1.42-1.06,2.09c-0.85,1.33-2.06,2.5-3.53,3.29c-0.74,0.39-1.47,0.66-2.24,0.92
					c-0.77,0.22-1.56,0.4-2.37,0.49c-0.8,0.09-1.61,0.1-2.42,0.03c-0.4-0.03-0.8-0.1-1.2-0.18c-0.41-0.08-0.77-0.17-1.21-0.34
					c-0.37-0.14-0.55-0.54-0.41-0.9c0.13-0.32,0.48-0.5,0.82-0.43L58.2,57.73z"/>
				<path class="st3" d="M40.47,41.05c1.5,0.55,3.09,1.01,4.68,1.34c1.59,0.34,3.2,0.56,4.82,0.67c3.22,0.19,6.46-0.17,9.38-1.36
					c2.92-1.18,5.47-3.14,7.45-5.57c1-1.21,1.87-2.53,2.61-3.93c0.75-1.38,1.37-2.87,1.83-4.35l0.01-0.02
					c0.07-0.24,0.33-0.37,0.58-0.3c0.22,0.06,0.36,0.28,0.33,0.5c-0.13,0.84-0.34,1.63-0.59,2.42c-0.25,0.79-0.54,1.57-0.87,2.33
					c-0.34,0.76-0.71,1.51-1.13,2.23c-0.42,0.72-0.89,1.43-1.4,2.1c-0.5,0.68-1.06,1.33-1.66,1.94c-0.59,0.62-1.23,1.2-1.91,1.73
					c-1.36,1.07-2.87,1.95-4.49,2.62c-3.26,1.32-6.84,1.68-10.26,1.34c-1.72-0.16-3.41-0.48-5.05-0.94
					c-1.64-0.47-3.24-1.01-4.79-1.78c-0.28-0.14-0.39-0.46-0.24-0.73c0.13-0.25,0.44-0.36,0.7-0.26L40.47,41.05z"/>
			</g>
			<g>
				<path class="st3" d="M51.79,71.04c0.24-0.15,0.54-0.36,0.8-0.57c0.27-0.21,0.53-0.44,0.77-0.68c0.5-0.47,0.95-0.99,1.36-1.53
					c0.41-0.54,0.76-1.12,1.07-1.72c0.3-0.6,0.57-1.25,0.77-1.85c0.38-1.23,0.42-2.56,0.18-3.87c-0.12-0.66-0.3-1.31-0.54-1.95
					c-0.22-0.64-0.53-1.29-0.85-1.84l-0.02-0.04c-0.18-0.32-0.06-0.71,0.27-0.89c0.3-0.15,0.66-0.07,0.86,0.18
					c0.52,0.65,0.88,1.3,1.23,2c0.33,0.7,0.6,1.43,0.78,2.2c0.38,1.52,0.38,3.17-0.08,4.73c-0.24,0.78-0.56,1.47-0.91,2.17
					c-0.39,0.68-0.81,1.35-1.31,1.96c-0.5,0.61-1.07,1.17-1.69,1.67c-0.31,0.25-0.64,0.48-0.98,0.69c-0.35,0.22-0.67,0.4-1.1,0.59
					c-0.36,0.15-0.79,0-0.95-0.36c-0.14-0.31-0.03-0.68,0.26-0.86L51.79,71.04z"/>
				<path class="st3" d="M27.01,71.33c1.46-0.63,2.93-1.39,4.29-2.24c1.38-0.84,2.68-1.78,3.9-2.81c2.42-2.06,4.44-4.53,5.63-7.35
					c1.2-2.82,1.56-5.95,1.19-9.01c-0.18-1.54-0.54-3.06-1.04-4.55c-0.48-1.49-1.14-2.96-1.9-4.32l-0.01-0.02
					c-0.12-0.22-0.04-0.49,0.19-0.61c0.21-0.11,0.46-0.05,0.59,0.13c0.52,0.69,0.95,1.38,1.36,2.12c0.4,0.73,0.77,1.47,1.09,2.24
					c0.32,0.77,0.6,1.55,0.84,2.35c0.23,0.8,0.42,1.62,0.56,2.44c0.15,0.82,0.22,1.66,0.25,2.5c0.03,0.84,0.01,1.68-0.08,2.52
					c-0.18,1.68-0.6,3.34-1.25,4.91c-1.33,3.15-3.61,5.85-6.27,7.94c-1.33,1.05-2.76,1.98-4.26,2.78c-1.51,0.78-3.03,1.49-4.69,2
					c-0.3,0.09-0.61-0.07-0.71-0.35c-0.09-0.27,0.05-0.55,0.31-0.66L27.01,71.33z"/>
			</g>
			<g>
				<path class="st3" d="M57.03,84.83c0.06-0.27,0.11-0.63,0.15-0.95c0.03-0.33,0.05-0.67,0.05-1c0.01-0.67-0.05-1.34-0.16-2
					c-0.11-0.66-0.29-1.31-0.5-1.95c-0.23-0.63-0.51-1.27-0.81-1.84c-0.64-1.13-1.58-2.09-2.71-2.86c-0.57-0.38-1.17-0.72-1.81-1.01
					c-0.62-0.3-1.32-0.55-1.95-0.73l-0.05-0.01c-0.36-0.1-0.56-0.47-0.46-0.81c0.1-0.31,0.41-0.5,0.74-0.46
					c0.84,0.11,1.58,0.32,2.34,0.58c0.75,0.27,1.48,0.61,2.17,1.02c1.38,0.82,2.6,1.98,3.42,3.4c0.4,0.71,0.68,1.41,0.95,2.16
					c0.23,0.75,0.42,1.5,0.51,2.28c0.09,0.77,0.11,1.56,0.03,2.33c-0.04,0.39-0.1,0.77-0.18,1.16c-0.09,0.39-0.18,0.74-0.35,1.17
					c-0.14,0.36-0.56,0.53-0.93,0.39c-0.33-0.12-0.51-0.46-0.44-0.79L57.03,84.83z"/>
				<path class="st3" d="M39.72,101.91c0.57-1.44,1.05-2.98,1.39-4.51c0.36-1.53,0.58-3.09,0.69-4.64c0.2-3.1-0.18-6.23-1.41-9.03
					c-1.22-2.81-3.26-5.27-5.78-7.18c-1.26-0.96-2.63-1.8-4.07-2.51c-1.43-0.73-2.98-1.32-4.51-1.76L26,72.27
					c-0.25-0.07-0.39-0.32-0.31-0.55c0.07-0.22,0.29-0.35,0.51-0.31c0.88,0.13,1.69,0.33,2.51,0.57c0.82,0.24,1.63,0.52,2.42,0.84
					c0.79,0.33,1.56,0.69,2.32,1.09c0.75,0.41,1.48,0.86,2.18,1.35c0.71,0.48,1.38,1.02,2.01,1.6c0.64,0.57,1.24,1.19,1.79,1.84
					c1.11,1.31,2.03,2.77,2.72,4.33c1.37,3.14,1.74,6.59,1.39,9.89c-0.17,1.65-0.5,3.28-0.97,4.86c-0.49,1.58-1.05,3.12-1.85,4.61
					c-0.14,0.27-0.48,0.37-0.76,0.23c-0.26-0.13-0.37-0.42-0.27-0.67L39.72,101.91z"/>
			</g>
			<g>
				<path class="st3" d="M70.85,91c-0.16-0.23-0.38-0.52-0.59-0.77c-0.22-0.26-0.45-0.51-0.7-0.74c-0.49-0.48-1.02-0.91-1.58-1.31
					c-0.56-0.39-1.17-0.73-1.79-1.04c-0.62-0.29-1.29-0.55-1.92-0.74c-1.28-0.36-2.65-0.4-4.02-0.17c-0.68,0.12-1.36,0.29-2.03,0.52
					c-0.66,0.22-1.34,0.52-1.91,0.82l-0.04,0.02c-0.33,0.17-0.74,0.05-0.92-0.26c-0.16-0.29-0.08-0.64,0.18-0.83
					c0.68-0.5,1.35-0.85,2.08-1.18c0.73-0.32,1.49-0.58,2.28-0.75c1.58-0.36,3.29-0.37,4.91,0.07c0.81,0.23,1.52,0.54,2.25,0.88
					c0.71,0.37,1.4,0.78,2.03,1.27c0.63,0.49,1.22,1.03,1.73,1.63c0.26,0.3,0.5,0.62,0.72,0.94c0.23,0.34,0.42,0.65,0.61,1.06
					c0.16,0.35,0,0.76-0.37,0.91c-0.33,0.14-0.7,0.02-0.89-0.25L70.85,91z"/>
				<path class="st3" d="M71.15,114.88c-0.66-1.41-1.44-2.82-2.33-4.13c-0.87-1.33-1.85-2.58-2.91-3.75
					c-2.13-2.33-4.7-4.28-7.63-5.43c-2.93-1.15-6.17-1.5-9.36-1.14c-1.59,0.18-3.18,0.52-4.72,1c-1.55,0.46-3.07,1.09-4.48,1.83
					l-0.02,0.01c-0.22,0.12-0.51,0.04-0.63-0.18c-0.11-0.2-0.05-0.44,0.13-0.57c0.71-0.51,1.44-0.92,2.2-1.31
					c0.75-0.39,1.53-0.74,2.32-1.05c0.8-0.31,1.61-0.58,2.44-0.81c0.83-0.22,1.68-0.4,2.53-0.54c0.85-0.14,1.72-0.22,2.59-0.24
					c0.87-0.03,1.75-0.01,2.62,0.08c1.74,0.17,3.46,0.58,5.1,1.21c3.27,1.28,6.07,3.48,8.24,6.04c1.09,1.28,2.05,2.66,2.88,4.1
					c0.81,1.45,1.55,2.92,2.08,4.52c0.09,0.29-0.07,0.59-0.36,0.68c-0.28,0.09-0.57-0.05-0.69-0.29L71.15,114.88z"/>
			</g>
			<g>
				<path class="st3" d="M85.16,85.95c-0.28-0.06-0.65-0.11-0.98-0.14c-0.34-0.03-0.69-0.05-1.04-0.05
					c-0.7-0.01-1.39,0.05-2.08,0.16c-0.69,0.11-1.36,0.28-2.02,0.49c-0.65,0.22-1.32,0.49-1.91,0.78c-1.17,0.61-2.17,1.52-2.97,2.61
					c-0.4,0.55-0.75,1.13-1.05,1.75c-0.31,0.6-0.57,1.27-0.75,1.88l-0.01,0.05c-0.11,0.35-0.48,0.54-0.84,0.44
					c-0.32-0.09-0.52-0.4-0.48-0.71c0.11-0.81,0.33-1.52,0.6-2.25c0.28-0.72,0.63-1.42,1.06-2.09c0.85-1.33,2.06-2.5,3.53-3.29
					c0.74-0.39,1.47-0.66,2.24-0.92c0.77-0.22,1.56-0.4,2.37-0.49c0.8-0.09,1.61-0.1,2.42-0.03c0.4,0.03,0.8,0.1,1.2,0.18
					c0.41,0.08,0.77,0.17,1.21,0.34c0.37,0.14,0.55,0.54,0.41,0.9c-0.13,0.32-0.48,0.5-0.82,0.43L85.16,85.95z"/>
				<path class="st3" d="M102.89,102.63c-1.5-0.55-3.09-1.01-4.68-1.34c-1.59-0.34-3.2-0.56-4.82-0.67
					c-3.22-0.19-6.46,0.17-9.38,1.36c-2.92,1.18-5.47,3.14-7.45,5.57c-1,1.21-1.87,2.53-2.61,3.93c-0.75,1.38-1.37,2.87-1.83,4.35
					l-0.01,0.02c-0.07,0.24-0.33,0.37-0.58,0.3c-0.22-0.06-0.36-0.28-0.33-0.5c0.13-0.84,0.34-1.63,0.59-2.42
					c0.25-0.79,0.54-1.57,0.87-2.33c0.34-0.76,0.71-1.51,1.13-2.23c0.42-0.72,0.89-1.43,1.4-2.1c0.5-0.68,1.06-1.33,1.66-1.94
					c0.59-0.62,1.23-1.2,1.91-1.73c1.36-1.07,2.87-1.95,4.49-2.62c3.26-1.32,6.84-1.68,10.26-1.34c1.72,0.16,3.41,0.48,5.05,0.94
					c1.64,0.47,3.24,1.01,4.79,1.78c0.28,0.14,0.39,0.46,0.24,0.73c-0.13,0.25-0.44,0.36-0.7,0.26L102.89,102.63z"/>
			</g>
			<g>
				<path class="st3" d="M91.56,72.64c-0.24,0.15-0.54,0.36-0.8,0.57c-0.27,0.21-0.53,0.44-0.77,0.68c-0.5,0.47-0.95,0.99-1.36,1.53
					c-0.41,0.54-0.76,1.12-1.07,1.72c-0.3,0.6-0.57,1.25-0.77,1.85c-0.38,1.23-0.42,2.56-0.18,3.87c0.12,0.66,0.3,1.31,0.54,1.95
					c0.22,0.64,0.53,1.29,0.85,1.84l0.02,0.04c0.18,0.32,0.06,0.71-0.27,0.89c-0.3,0.15-0.66,0.07-0.86-0.18
					c-0.52-0.65-0.88-1.3-1.23-2c-0.33-0.7-0.6-1.43-0.78-2.2c-0.38-1.52-0.38-3.17,0.08-4.73c0.24-0.78,0.56-1.47,0.91-2.17
					c0.39-0.68,0.81-1.35,1.31-1.96c0.5-0.61,1.07-1.17,1.69-1.67c0.31-0.25,0.64-0.48,0.98-0.69c0.35-0.22,0.67-0.4,1.1-0.59
					c0.36-0.15,0.79,0,0.95,0.36c0.14,0.31,0.03,0.68-0.26,0.86L91.56,72.64z"/>
				<path class="st3" d="M116.35,72.35c-1.46,0.63-2.93,1.39-4.29,2.24c-1.38,0.84-2.68,1.78-3.9,2.81
					c-2.42,2.06-4.44,4.53-5.63,7.35c-1.2,2.82-1.56,5.95-1.19,9.01c0.18,1.54,0.54,3.06,1.04,4.55c0.48,1.49,1.14,2.96,1.9,4.32
					l0.01,0.02c0.12,0.22,0.04,0.49-0.19,0.61c-0.21,0.11-0.46,0.05-0.59-0.13c-0.52-0.69-0.95-1.38-1.36-2.12
					c-0.4-0.73-0.77-1.47-1.09-2.24c-0.32-0.77-0.6-1.55-0.84-2.35c-0.23-0.8-0.42-1.62-0.56-2.44c-0.15-0.82-0.22-1.66-0.25-2.5
					c-0.03-0.84-0.01-1.68,0.08-2.52c0.18-1.68,0.6-3.34,1.25-4.91c1.33-3.15,3.61-5.85,6.27-7.94c1.33-1.05,2.76-1.98,4.26-2.78
					c1.51-0.78,3.03-1.49,4.69-2c0.3-0.09,0.61,0.07,0.71,0.35c0.09,0.27-0.05,0.55-0.31,0.66L116.35,72.35z"/>
			</g>
			<g>
				<path class="st3" d="M86.32,58.85c-0.06,0.27-0.11,0.63-0.15,0.95c-0.03,0.33-0.05,0.67-0.05,1c-0.01,0.67,0.05,1.34,0.16,2
					c0.11,0.66,0.29,1.31,0.5,1.95c0.23,0.63,0.51,1.27,0.81,1.84c0.64,1.13,1.58,2.09,2.71,2.86c0.57,0.38,1.17,0.72,1.81,1.01
					c0.62,0.3,1.32,0.55,1.95,0.73l0.05,0.01c0.36,0.1,0.56,0.47,0.46,0.81c-0.1,0.31-0.41,0.5-0.74,0.46
					c-0.84-0.11-1.58-0.32-2.34-0.58c-0.75-0.27-1.48-0.61-2.17-1.02c-1.38-0.82-2.6-1.98-3.42-3.4c-0.4-0.71-0.68-1.41-0.95-2.16
					c-0.23-0.75-0.42-1.5-0.51-2.28c-0.09-0.77-0.11-1.56-0.03-2.33c0.04-0.39,0.1-0.77,0.18-1.16c0.09-0.39,0.18-0.74,0.35-1.17
					c0.14-0.36,0.56-0.53,0.93-0.39c0.33,0.12,0.51,0.46,0.44,0.79L86.32,58.85z"/>
				<path class="st3" d="M103.64,41.77c-0.57,1.44-1.05,2.98-1.39,4.51c-0.36,1.53-0.58,3.09-0.69,4.64
					c-0.2,3.1,0.18,6.23,1.41,9.03c1.22,2.81,3.26,5.27,5.78,7.18c1.26,0.96,2.63,1.8,4.07,2.51c1.43,0.73,2.98,1.32,4.51,1.76
					l0.03,0.01c0.25,0.07,0.39,0.32,0.31,0.55c-0.07,0.22-0.29,0.35-0.51,0.31c-0.88-0.13-1.69-0.33-2.51-0.57
					c-0.82-0.24-1.63-0.52-2.42-0.84c-0.79-0.33-1.56-0.69-2.32-1.09c-0.75-0.41-1.48-0.86-2.18-1.35c-0.71-0.48-1.38-1.02-2.01-1.6
					c-0.64-0.57-1.24-1.19-1.79-1.84c-1.11-1.31-2.03-2.77-2.72-4.33c-1.37-3.14-1.74-6.59-1.39-9.89c0.17-1.65,0.5-3.28,0.97-4.86
					c0.49-1.58,1.05-3.12,1.85-4.61c0.14-0.27,0.48-0.37,0.76-0.23c0.26,0.13,0.37,0.42,0.27,0.67L103.64,41.77z"/>
			</g>
			<g>
				<path class="st3" d="M72.5,52.68c0.16,0.23,0.38,0.52,0.59,0.77c0.22,0.26,0.45,0.51,0.7,0.74c0.49,0.48,1.02,0.91,1.58,1.31
					c0.56,0.39,1.17,0.73,1.79,1.04c0.62,0.29,1.29,0.55,1.92,0.74c1.28,0.36,2.65,0.4,4.02,0.17c0.68-0.12,1.36-0.29,2.03-0.52
					c0.66-0.22,1.34-0.52,1.91-0.82l0.04-0.02c0.33-0.17,0.74-0.05,0.92,0.26c0.16,0.29,0.08,0.64-0.18,0.83
					c-0.68,0.5-1.35,0.85-2.08,1.18c-0.73,0.32-1.49,0.58-2.28,0.75c-1.58,0.36-3.29,0.37-4.91-0.07c-0.81-0.23-1.52-0.54-2.25-0.88
					c-0.71-0.37-1.4-0.78-2.03-1.27c-0.63-0.49-1.22-1.03-1.73-1.63c-0.26-0.3-0.5-0.62-0.72-0.94c-0.23-0.34-0.42-0.65-0.61-1.06
					c-0.16-0.35,0-0.76,0.37-0.91c0.33-0.14,0.7-0.02,0.89,0.25L72.5,52.68z"/>
				<path class="st3" d="M72.21,28.8c0.66,1.41,1.44,2.82,2.33,4.13c0.87,1.33,1.85,2.58,2.91,3.75c2.13,2.33,4.7,4.28,7.62,5.43
					c2.93,1.15,6.17,1.5,9.36,1.14c1.59-0.18,3.18-0.52,4.72-1c1.55-0.46,3.07-1.09,4.48-1.83l0.02-0.01
					c0.22-0.12,0.51-0.04,0.63,0.18c0.11,0.2,0.05,0.44-0.13,0.57c-0.71,0.51-1.44,0.92-2.2,1.31c-0.75,0.39-1.53,0.74-2.32,1.05
					c-0.8,0.31-1.61,0.58-2.44,0.81c-0.83,0.22-1.68,0.4-2.53,0.54c-0.85,0.14-1.72,0.22-2.59,0.24c-0.87,0.03-1.75,0.01-2.62-0.08
					c-1.74-0.17-3.46-0.58-5.1-1.21c-3.27-1.28-6.07-3.48-8.24-6.04c-1.09-1.28-2.05-2.66-2.88-4.1c-0.81-1.45-1.55-2.92-2.08-4.52
					c-0.09-0.29,0.07-0.59,0.36-0.68c0.28-0.09,0.57,0.05,0.69,0.29L72.21,28.8z"/>
			</g>
			<g>
				<path class="st4" d="M24.16,71.68l5.85-0.08l5.85-0.04l11.7-0.07l11.7,0.02c3.9,0.02,7.79,0.01,11.71,0.15
					c0.09,0,0.16,0.08,0.16,0.16c0,0.09-0.08,0.15-0.17,0.15l-0.01,0c-1.94-0.05-3.89-0.02-5.84-0.02l-5.85,0l-11.7,0.03l-11.7-0.02
					l-5.85-0.01l-5.85-0.03c-0.07,0-0.12-0.05-0.12-0.12C24.04,71.73,24.09,71.68,24.16,71.68z"/>
				<path class="st4" d="M29.49,70.83c1.29-0.61,2.52-1.36,3.68-2.17c1.17-0.82,2.28-1.71,3.3-2.68c2.04-1.95,3.76-4.23,4.87-6.78
					c0.55-1.28,0.94-2.61,1.18-3.97c0.26-1.36,0.27-2.75,0.21-4.13c-0.19-2.76-0.92-5.48-2.01-8.06l0,0c-0.03-0.06,0-0.14,0.07-0.17
					s0.14,0,0.17,0.07l0,0c0.27,0.65,0.56,1.3,0.81,1.96l0.35,1c0.12,0.33,0.23,0.67,0.31,1.01l0.27,1.03
					c0.09,0.34,0.13,0.69,0.2,1.04c0.15,0.69,0.2,1.4,0.28,2.1c0.04,0.35,0.03,0.71,0.04,1.06c0.01,0.35,0.02,0.71-0.01,1.06
					l-0.07,1.06l-0.15,1.05c-0.24,1.4-0.63,2.77-1.2,4.08c-1.16,2.61-2.91,4.94-5.03,6.89c-2.12,1.95-4.54,3.58-7.19,4.77
					c-0.06,0.03-0.13,0-0.16-0.06C29.4,70.93,29.43,70.86,29.49,70.83L29.49,70.83z"/>
				<path class="st4" d="M53.31,70.53c0.39-0.28,0.77-0.62,1.12-0.97c0.17-0.18,0.34-0.36,0.51-0.54c0.15-0.19,0.32-0.37,0.47-0.57
					c0.6-0.78,1.1-1.63,1.44-2.54c0.35-0.9,0.6-1.85,0.66-2.82c0.07-0.48,0.04-0.97,0.04-1.46c-0.01-0.49-0.09-0.97-0.12-1.46
					l0-0.03c-0.01-0.11,0.08-0.2,0.19-0.21c0.11-0.01,0.2,0.07,0.22,0.17c0.08,0.5,0.19,1,0.24,1.5c0.02,0.51,0.08,1.02,0.02,1.53
					c-0.03,1.02-0.29,2.03-0.65,2.99c-0.37,0.96-0.91,1.86-1.57,2.66c-0.66,0.81-1.42,1.51-2.33,2.08c-0.1,0.06-0.22,0.03-0.29-0.06
					c-0.06-0.09-0.04-0.21,0.05-0.27L53.31,70.53z"/>
			</g>
			<g>
				<path class="st4" d="M37.96,104.1l4.08-4.04l4.1-4.01l8.22-8.02l8.28-7.96c2.77-2.65,5.52-5.3,8.39-7.87
					c0.07-0.06,0.17-0.06,0.23,0.01c0.06,0.06,0.06,0.16-0.01,0.22l-0.01,0.01c-1.4,1.29-2.77,2.64-4.15,3.96l-4.14,3.98l-8.25,7.99
					l-8.29,7.96l-4.14,3.98l-4.16,3.96c-0.05,0.04-0.12,0.04-0.17,0C37.91,104.22,37.91,104.15,37.96,104.1z"/>
				<path class="st4" d="M41.11,99.87c0.46-1.31,0.78-2.68,1.01-4.05c0.23-1.37,0.36-2.76,0.36-4.14c0.02-2.77-0.44-5.55-1.53-8.11
					c-0.55-1.27-1.25-2.49-2.08-3.61c-0.81-1.14-1.83-2.13-2.88-3.07c-2.16-1.82-4.68-3.25-7.34-4.33l-0.01,0
					c-0.07-0.03-0.1-0.1-0.07-0.17c0.03-0.06,0.11-0.09,0.17-0.07l0,0c0.67,0.28,1.35,0.53,2.01,0.83l0.98,0.47
					c0.33,0.15,0.65,0.31,0.96,0.5l0.94,0.54c0.32,0.18,0.6,0.4,0.91,0.6c0.61,0.39,1.17,0.85,1.74,1.3
					c0.29,0.22,0.54,0.48,0.81,0.72c0.26,0.25,0.53,0.49,0.77,0.76l0.73,0.8l0.67,0.85c0.86,1.15,1.58,2.39,2.15,3.7
					c1.1,2.63,1.57,5.48,1.5,8.3c-0.07,2.82-0.58,5.62-1.59,8.27c-0.02,0.06-0.09,0.09-0.16,0.07C41.11,100,41.08,99.93,41.11,99.87
					L41.11,99.87z"/>
				<path class="st4" d="M57.72,83.43c0.07-0.46,0.09-0.96,0.08-1.45c-0.01-0.24-0.02-0.49-0.04-0.73
					c-0.03-0.24-0.05-0.48-0.09-0.72c-0.15-0.96-0.42-1.9-0.85-2.77c-0.42-0.87-0.93-1.72-1.6-2.44c-0.3-0.39-0.69-0.71-1.04-1.06
					c-0.36-0.34-0.78-0.62-1.16-0.95L53,73.29c-0.09-0.07-0.09-0.2-0.02-0.28c0.07-0.08,0.19-0.09,0.28-0.03
					c0.43,0.29,0.87,0.57,1.27,0.9c0.38,0.35,0.8,0.67,1.13,1.07c0.73,0.75,1.28,1.64,1.74,2.56c0.44,0.93,0.73,1.93,0.85,2.95
					c0.13,1.02,0.1,2.04-0.12,3.05c-0.02,0.11-0.13,0.18-0.25,0.15c-0.11-0.02-0.18-0.12-0.16-0.22L57.72,83.43z"/>
			</g>
			<g>
				<path class="st4" d="M71.51,117.62l-0.08-5.63l-0.04-5.64l-0.07-11.27l0.02-11.27c0.02-3.76,0.01-7.51,0.15-11.28
					c0-0.09,0.08-0.16,0.17-0.15c0.09,0,0.16,0.08,0.16,0.16l0,0.01c-0.05,1.87-0.02,3.75-0.03,5.63l0,5.63l0.03,11.27l-0.02,11.27
					l-0.01,5.63l-0.04,5.64c0,0.06-0.05,0.12-0.12,0.12C71.57,117.74,71.52,117.69,71.51,117.62z"/>
				<path class="st4" d="M70.63,112.49c-0.63-1.24-1.41-2.43-2.25-3.55c-0.85-1.12-1.77-2.19-2.78-3.18
					c-2.02-1.97-4.39-3.62-7.03-4.69c-1.32-0.53-2.71-0.91-4.12-1.14c-1.41-0.25-2.85-0.26-4.29-0.21
					c-2.87,0.18-5.69,0.89-8.37,1.94l-0.01,0c-0.07,0.03-0.14,0-0.17-0.07c-0.03-0.06,0-0.14,0.07-0.17l0,0
					c0.68-0.26,1.35-0.54,2.03-0.78l1.04-0.33c0.35-0.12,0.69-0.22,1.05-0.3l1.06-0.26c0.35-0.09,0.72-0.13,1.08-0.2
					c0.72-0.14,1.45-0.2,2.18-0.27c0.36-0.04,0.73-0.03,1.1-0.04c0.37-0.01,0.73-0.02,1.1,0.01l1.1,0.07l1.09,0.14
					c1.45,0.23,2.88,0.61,4.24,1.15c2.71,1.11,5.13,2.81,7.15,4.84c2.02,2.04,3.71,4.37,4.95,6.93c0.03,0.06,0,0.13-0.06,0.16
					C70.73,112.57,70.66,112.55,70.63,112.49L70.63,112.49z"/>
				<path class="st4" d="M70.32,89.54c-0.29-0.38-0.64-0.74-1-1.08c-0.18-0.17-0.37-0.33-0.56-0.49c-0.2-0.15-0.39-0.31-0.59-0.45
					c-0.81-0.57-1.69-1.06-2.64-1.38c-0.94-0.33-1.92-0.58-2.93-0.63c-0.5-0.07-1.01-0.03-1.51-0.04c-0.51,0.01-1.01,0.09-1.52,0.12
					l-0.03,0c-0.11,0.01-0.21-0.08-0.22-0.19c-0.01-0.1,0.07-0.19,0.17-0.21c0.52-0.08,1.03-0.19,1.56-0.23
					c0.53-0.02,1.06-0.07,1.59-0.02c1.06,0.03,2.11,0.28,3.11,0.63c1,0.36,1.93,0.87,2.76,1.51c0.84,0.63,1.57,1.37,2.16,2.24
					c0.06,0.09,0.04,0.22-0.06,0.28c-0.09,0.06-0.21,0.04-0.28-0.05L70.32,89.54z"/>
			</g>
			<g>
				<path class="st4" d="M105.16,104.33l-4.19-3.93l-4.17-3.95l-8.32-7.92l-8.26-7.98c-2.75-2.67-5.5-5.32-8.17-8.08
					c-0.06-0.06-0.06-0.16,0.01-0.22c0.07-0.06,0.17-0.06,0.23,0.01l0.01,0.01c1.34,1.35,2.74,2.67,4.11,4l4.13,3.98l8.29,7.95
					l8.26,7.98l4.13,3.99l4.11,4.01c0.05,0.05,0.05,0.12,0,0.16C105.29,104.37,105.21,104.37,105.16,104.33z"/>
				<path class="st4" d="M100.77,101.3c-1.36-0.45-2.78-0.75-4.2-0.97c-1.42-0.22-2.86-0.34-4.3-0.35
					c-2.87-0.02-5.76,0.43-8.42,1.47c-1.32,0.53-2.58,1.2-3.75,2c-1.18,0.78-2.21,1.76-3.18,2.77c-1.89,2.08-3.37,4.5-4.49,7.07l0,0
					c-0.03,0.06-0.11,0.09-0.17,0.07c-0.07-0.03-0.1-0.1-0.07-0.17l0,0c0.29-0.64,0.55-1.3,0.86-1.94l0.49-0.94
					c0.16-0.32,0.33-0.63,0.52-0.93l0.56-0.91c0.18-0.3,0.41-0.58,0.62-0.87c0.4-0.59,0.88-1.13,1.35-1.67
					c0.23-0.28,0.5-0.52,0.75-0.78c0.25-0.25,0.5-0.51,0.79-0.74l0.83-0.7l0.88-0.64c1.19-0.82,2.48-1.53,3.84-2.07
					c2.73-1.06,5.69-1.51,8.61-1.45c2.93,0.07,5.83,0.56,8.58,1.53c0.06,0.02,0.1,0.09,0.07,0.15
					C100.91,101.29,100.84,101.32,100.77,101.3L100.77,101.3z"/>
				<path class="st4" d="M83.71,85.29c-0.48-0.07-1-0.09-1.5-0.08c-0.25,0.01-0.5,0.02-0.76,0.04c-0.25,0.03-0.5,0.05-0.75,0.09
					c-0.99,0.15-1.97,0.4-2.88,0.82c-0.91,0.4-1.78,0.9-2.53,1.54c-0.41,0.29-0.74,0.66-1.1,1c-0.35,0.35-0.65,0.75-0.98,1.12
					l-0.02,0.02c-0.08,0.08-0.21,0.09-0.29,0.02c-0.08-0.07-0.09-0.18-0.03-0.27c0.31-0.41,0.59-0.84,0.93-1.23
					c0.36-0.37,0.69-0.77,1.11-1.09c0.77-0.7,1.7-1.24,2.66-1.67c0.97-0.42,2.01-0.7,3.06-0.82c1.06-0.12,2.11-0.1,3.17,0.12
					c0.11,0.02,0.18,0.13,0.16,0.24c-0.02,0.1-0.13,0.17-0.23,0.16L83.71,85.29z"/>
			</g>
			<g>
				<path class="st4" d="M119.2,72l-5.85,0.08l-5.85,0.04l-11.7,0.07l-11.7-0.02c-3.9-0.02-7.79-0.01-11.71-0.15
					c-0.09,0-0.16-0.08-0.16-0.16c0-0.09,0.08-0.15,0.17-0.15l0.01,0c1.94,0.05,3.89,0.02,5.84,0.02l5.85,0l11.7-0.03l11.7,0.02
					l5.85,0.01l5.85,0.03c0.07,0,0.12,0.05,0.12,0.12C119.32,71.95,119.26,72,119.2,72z"/>
				<path class="st4" d="M113.87,72.85c-1.29,0.61-2.52,1.36-3.68,2.17c-1.17,0.82-2.28,1.71-3.3,2.68
					c-2.04,1.95-3.76,4.23-4.87,6.78c-0.55,1.28-0.94,2.61-1.18,3.97c-0.26,1.36-0.27,2.75-0.21,4.13c0.19,2.76,0.92,5.48,2.01,8.06
					l0,0c0.03,0.06,0,0.14-0.07,0.17c-0.07,0.03-0.14,0-0.17-0.07l0,0c-0.27-0.65-0.56-1.3-0.81-1.96l-0.35-1
					c-0.12-0.33-0.23-0.67-0.31-1.01l-0.27-1.03c-0.09-0.34-0.13-0.69-0.2-1.04c-0.15-0.69-0.2-1.4-0.28-2.1
					c-0.04-0.35-0.03-0.71-0.04-1.06c-0.01-0.35-0.02-0.71,0.01-1.06l0.07-1.06l0.15-1.05c0.24-1.4,0.63-2.77,1.2-4.08
					c1.16-2.61,2.91-4.94,5.03-6.89c2.12-1.95,4.54-3.58,7.19-4.77c0.06-0.03,0.13,0,0.16,0.06
					C113.96,72.75,113.93,72.82,113.87,72.85L113.87,72.85z"/>
				<path class="st4" d="M90.05,73.15c-0.39,0.28-0.77,0.62-1.12,0.97c-0.17,0.18-0.34,0.36-0.51,0.54
					c-0.15,0.19-0.32,0.37-0.47,0.57c-0.6,0.78-1.1,1.63-1.44,2.54c-0.35,0.9-0.6,1.85-0.66,2.82c-0.07,0.48-0.04,0.97-0.04,1.46
					c0.01,0.49,0.09,0.97,0.12,1.46l0,0.03c0.01,0.11-0.08,0.2-0.19,0.21c-0.11,0.01-0.2-0.07-0.22-0.17c-0.08-0.5-0.19-1-0.24-1.5
					c-0.02-0.51-0.08-1.02-0.02-1.53c0.03-1.02,0.29-2.03,0.65-2.99c0.37-0.96,0.91-1.86,1.57-2.66c0.66-0.81,1.42-1.51,2.33-2.08
					c0.1-0.06,0.22-0.03,0.29,0.06c0.06,0.09,0.04,0.21-0.05,0.27L90.05,73.15z"/>
			</g>
			<g>
				<path class="st4" d="M105.4,39.58l-4.08,4.04l-4.1,4.01l-8.22,8.02l-8.28,7.96c-2.77,2.65-5.52,5.3-8.39,7.87
					c-0.07,0.06-0.17,0.06-0.23-0.01c-0.06-0.06-0.06-0.16,0.01-0.22l0.01-0.01c1.4-1.29,2.77-2.64,4.15-3.96l4.14-3.98l8.25-7.99
					l8.29-7.96l4.14-3.98l4.16-3.96c0.05-0.04,0.12-0.04,0.17,0C105.44,39.46,105.44,39.53,105.4,39.58z"/>
				<path class="st4" d="M102.25,43.81c-0.46,1.31-0.78,2.68-1.01,4.05c-0.23,1.37-0.36,2.76-0.36,4.14
					c-0.02,2.77,0.44,5.55,1.53,8.11c0.55,1.27,1.25,2.49,2.08,3.61c0.81,1.14,1.83,2.13,2.88,3.07c2.16,1.82,4.68,3.25,7.34,4.33
					l0.01,0c0.07,0.03,0.1,0.1,0.07,0.17c-0.03,0.06-0.11,0.09-0.17,0.07l0,0c-0.67-0.28-1.35-0.53-2.01-0.83l-0.98-0.47
					c-0.33-0.15-0.65-0.31-0.96-0.5l-0.94-0.54c-0.32-0.18-0.6-0.4-0.91-0.6c-0.61-0.39-1.17-0.85-1.74-1.3
					c-0.29-0.22-0.54-0.48-0.81-0.72c-0.26-0.25-0.53-0.49-0.77-0.76l-0.73-0.8L104.09,64c-0.86-1.15-1.58-2.39-2.15-3.7
					c-1.1-2.63-1.57-5.48-1.5-8.3c0.07-2.82,0.58-5.62,1.59-8.27c0.02-0.06,0.09-0.09,0.16-0.07
					C102.24,43.68,102.28,43.75,102.25,43.81L102.25,43.81z"/>
				<path class="st4" d="M85.63,60.25c-0.07,0.46-0.09,0.96-0.08,1.45c0.01,0.24,0.02,0.49,0.04,0.73c0.03,0.24,0.05,0.48,0.09,0.72
					c0.15,0.96,0.42,1.9,0.85,2.77c0.42,0.87,0.93,1.72,1.6,2.44c0.3,0.39,0.69,0.71,1.04,1.06c0.36,0.34,0.78,0.62,1.16,0.95
					l0.02,0.02c0.09,0.07,0.09,0.2,0.02,0.28c-0.07,0.08-0.19,0.09-0.28,0.03c-0.43-0.29-0.87-0.57-1.27-0.9
					c-0.38-0.35-0.8-0.67-1.13-1.07c-0.73-0.75-1.28-1.64-1.74-2.56c-0.44-0.93-0.73-1.93-0.85-2.95c-0.13-1.02-0.1-2.04,0.12-3.05
					c0.02-0.11,0.13-0.18,0.25-0.15c0.11,0.02,0.18,0.12,0.16,0.22L85.63,60.25z"/>
			</g>
			<g>
				<path class="st4" d="M71.84,26.06l0.08,5.63l0.04,5.64l0.07,11.27l-0.02,11.27c-0.02,3.76-0.01,7.51-0.15,11.28
					c0,0.09-0.08,0.16-0.17,0.15c-0.09,0-0.16-0.08-0.16-0.16l0-0.01c0.05-1.87,0.02-3.75,0.03-5.63l0-5.63L71.54,48.6l0.02-11.27
					l0.01-5.64l0.04-5.64c0-0.06,0.05-0.12,0.12-0.12C71.79,25.94,71.84,25.99,71.84,26.06z"/>
				<path class="st4" d="M72.73,31.19c0.63,1.24,1.41,2.43,2.25,3.55c0.85,1.12,1.77,2.19,2.78,3.18c2.02,1.97,4.39,3.62,7.03,4.69
					c1.32,0.53,2.71,0.91,4.12,1.14c1.41,0.25,2.85,0.26,4.29,0.21c2.87-0.18,5.69-0.89,8.37-1.94l0.01,0
					c0.07-0.03,0.14,0,0.17,0.07c0.03,0.06,0,0.14-0.07,0.17l0,0c-0.68,0.26-1.35,0.54-2.03,0.78l-1.04,0.33
					c-0.35,0.12-0.69,0.22-1.05,0.3l-1.06,0.26c-0.35,0.09-0.72,0.13-1.08,0.2c-0.72,0.14-1.45,0.2-2.18,0.27
					c-0.36,0.04-0.73,0.03-1.1,0.04c-0.37,0.01-0.73,0.02-1.1-0.01l-1.1-0.07l-1.09-0.14c-1.45-0.23-2.88-0.61-4.24-1.15
					c-2.71-1.12-5.13-2.81-7.15-4.84c-2.02-2.04-3.71-4.37-4.95-6.93c-0.03-0.06,0-0.13,0.06-0.16
					C72.62,31.11,72.7,31.13,72.73,31.19L72.73,31.19z"/>
				<path class="st4" d="M73.04,54.14c0.29,0.38,0.64,0.74,1,1.08c0.18,0.17,0.37,0.33,0.56,0.49c0.2,0.15,0.39,0.31,0.59,0.45
					c0.81,0.57,1.69,1.06,2.64,1.38c0.94,0.33,1.92,0.58,2.93,0.63c0.5,0.07,1.01,0.03,1.51,0.04c0.51-0.01,1.01-0.09,1.52-0.12
					l0.03,0c0.11-0.01,0.21,0.08,0.22,0.19c0.01,0.1-0.07,0.19-0.17,0.21c-0.52,0.08-1.03,0.19-1.56,0.23
					c-0.53,0.02-1.06,0.07-1.59,0.02c-1.06-0.03-2.11-0.28-3.11-0.63c-1-0.36-1.93-0.87-2.76-1.51c-0.84-0.63-1.57-1.37-2.16-2.24
					c-0.06-0.09-0.04-0.22,0.06-0.28c0.09-0.06,0.21-0.04,0.28,0.05L73.04,54.14z"/>
			</g>
			<g>
				<path class="st4" d="M38.19,39.35l4.19,3.93l4.17,3.95l8.32,7.92l8.26,7.98c2.75,2.67,5.5,5.32,8.17,8.08
					c0.06,0.06,0.06,0.16-0.01,0.22c-0.07,0.06-0.17,0.06-0.23-0.01l-0.01-0.01c-1.34-1.35-2.74-2.67-4.11-4l-4.13-3.98l-8.29-7.95
					l-8.26-7.98l-4.13-3.99l-4.11-4.01c-0.05-0.05-0.05-0.12,0-0.16C38.07,39.31,38.15,39.31,38.19,39.35z"/>
				<path class="st4" d="M42.59,42.38c1.36,0.45,2.78,0.75,4.2,0.97c1.42,0.22,2.86,0.34,4.3,0.35c2.87,0.02,5.76-0.43,8.42-1.47
					c1.32-0.53,2.58-1.2,3.75-2c1.18-0.78,2.21-1.76,3.18-2.77c1.89-2.08,3.37-4.5,4.49-7.07l0,0c0.03-0.06,0.11-0.09,0.17-0.07
					c0.07,0.03,0.1,0.1,0.07,0.17l0,0c-0.29,0.64-0.55,1.3-0.86,1.94l-0.49,0.94c-0.16,0.32-0.33,0.63-0.52,0.93l-0.56,0.91
					c-0.18,0.3-0.41,0.58-0.62,0.87c-0.4,0.59-0.88,1.13-1.35,1.67c-0.23,0.28-0.5,0.52-0.75,0.78c-0.25,0.25-0.5,0.51-0.79,0.74
					l-0.83,0.7l-0.88,0.64c-1.19,0.82-2.48,1.53-3.84,2.07c-2.73,1.06-5.69,1.51-8.61,1.45c-2.93-0.07-5.83-0.56-8.58-1.53
					c-0.06-0.02-0.1-0.09-0.07-0.15C42.45,42.39,42.52,42.36,42.59,42.38L42.59,42.38z"/>
				<path class="st4" d="M59.65,58.4c0.48,0.07,1,0.09,1.5,0.08c0.25-0.01,0.5-0.02,0.76-0.04c0.25-0.03,0.5-0.05,0.75-0.09
					c0.99-0.15,1.97-0.4,2.88-0.82c0.91-0.4,1.78-0.9,2.53-1.54c0.41-0.29,0.74-0.66,1.1-1c0.35-0.35,0.65-0.75,0.98-1.12l0.02-0.02
					c0.08-0.08,0.21-0.09,0.29-0.02c0.08,0.07,0.09,0.18,0.03,0.27c-0.31,0.41-0.59,0.84-0.93,1.23c-0.36,0.37-0.69,0.77-1.11,1.09
					c-0.77,0.7-1.7,1.24-2.66,1.67c-0.97,0.42-2.01,0.7-3.06,0.82c-1.06,0.12-2.11,0.1-3.17-0.12c-0.11-0.02-0.18-0.13-0.16-0.24
					c0.02-0.1,0.13-0.17,0.23-0.16L59.65,58.4z"/>
			</g>
		</g>
		<g>
			<g>
				<g>
					<path class="st5" d="M90.21,49.08c-0.96-0.1-1.92-0.06-2.86,0c-0.94,0.07-1.88,0.17-2.82,0.31c-0.94,0.12-1.86,0.3-2.79,0.47
						c-0.46,0.09-0.92,0.19-1.38,0.3c-0.47,0.11-0.91,0.21-1.43,0.37l-0.01,0c-0.05,0.01-0.09,0.03-0.13,0.06
						c-0.82,0.5-1.54,1.02-2.26,1.59c-0.7,0.58-1.39,1.17-2.02,1.82c-0.32,0.32-0.62,0.65-0.93,0.99c-0.28,0.35-0.58,0.69-0.85,1.05
						c-0.54,0.71-1.02,1.48-1.43,2.26c-0.04,0.07-0.02,0.16,0.04,0.22c0.08,0.07,0.2,0.06,0.27-0.01l0.01-0.01
						c0.61-0.64,1.19-1.29,1.83-1.88c0.62-0.61,1.27-1.19,1.94-1.74c0.67-0.55,1.34-1.1,2.05-1.6c0.67-0.49,1.38-0.98,2.07-1.39
						c0.36-0.11,0.8-0.22,1.21-0.32l1.35-0.32l2.71-0.63c1.81-0.39,3.62-0.83,5.44-1.09l0.01,0c0.1-0.01,0.19-0.1,0.2-0.2
						C90.43,49.21,90.34,49.09,90.21,49.08z"/>
					<path class="st5" d="M101.31,34.22c-0.04-0.15-0.19-0.25-0.35-0.21c-2.23,0.48-4.45,1.02-6.62,1.82
						c-1.09,0.4-2.16,0.86-3.18,1.47c-1.02,0.61-2.01,1.37-2.75,2.44c-0.08,0.11-0.12,0.25-0.12,0.39v0.01v0l-0.02,0
						c0.02,1.43,0.24,2.92,0.75,4.29c0.32,0.88,0.72,1.71,1.17,2.51c-1.07-0.99-2.07-2.06-2.98-3.17c-0.56-0.69-1.09-1.41-1.54-2.14
						c-0.42-0.69-0.77-1.42-0.93-2.1c0.15-0.71,0.39-1.4,0.73-2.06c0.37-0.74,0.88-1.42,1.45-2.08c1.14-1.31,2.54-2.46,3.97-3.56
						l0,0c0.12-0.09,0.14-0.25,0.06-0.37c-0.09-0.13-0.27-0.17-0.41-0.08c-1.55,0.96-3.1,1.98-4.48,3.25
						c-0.69,0.64-1.34,1.34-1.86,2.15c-0.53,0.8-0.94,1.7-1.22,2.62l-0.02,0.08c-0.03,0.09-0.03,0.2,0,0.3l0,0
						c0.3,1.04,0.82,1.88,1.37,2.66c0.56,0.78,1.18,1.5,1.82,2.18c1.16,1.22,2.41,2.33,3.74,3.36c-1.52-0.45-3.05-0.92-4.57-1.4
						l-5.37-1.73c-0.15-0.05-0.32-0.05-0.48-0.01l-0.04,0.01l0,0c-1.11,0.43-2.17,0.89-3.18,1.43c-1.01,0.54-1.99,1.12-2.93,1.75
						c-1.89,1.25-3.65,2.65-5.3,4.15c-0.11,0.1-0.12,0.27-0.03,0.38c0.1,0.12,0.29,0.14,0.41,0.04c1.75-1.34,3.6-2.57,5.54-3.63
						c0.97-0.53,1.95-1.02,2.96-1.45c0.92-0.39,1.86-0.74,2.81-0.98l5.24,1.28c1.84,0.44,3.67,0.87,5.53,1.26
						c0.24,0.05,0.48-0.08,0.55-0.31c0.05-0.16,0-0.33-0.12-0.44c0.02-0.01,0.04-0.03,0.06-0.05c0.13,0.16,0.36,0.22,0.56,0.14
						c0.23-0.1,0.34-0.37,0.23-0.6l0,0c-0.59-1.24-1.13-2.49-1.45-3.77c-0.31-1.21-0.37-2.44-0.28-3.69
						c0.45-0.72,1.15-1.37,1.93-1.92c0.86-0.61,1.83-1.14,2.83-1.6c2.01-0.93,4.15-1.64,6.32-2.3
						C101.26,34.51,101.35,34.36,101.31,34.22z"/>
				</g>
				<path class="st6" d="M73.08,56.6c-0.03,0-0.06-0.01-0.09-0.03c-0.06-0.05-0.07-0.13-0.02-0.19c0.17-0.2,4.3-4.87,6.19-5.37
					c1.67-0.44,5.58-1.48,9.62-1.75c0.07-0.01,0.14,0.05,0.15,0.12c0.01,0.07-0.05,0.14-0.13,0.14c-4.02,0.27-7.91,1.3-9.57,1.74
					c-1.8,0.48-6.01,5.24-6.05,5.28C73.16,56.59,73.12,56.6,73.08,56.6z"/>
				<path class="st6" d="M68.35,52.41c-0.04,0-0.08-0.02-0.11-0.05c-0.05-0.06-0.04-0.14,0.02-0.19c0.06-0.05,6.37-5.16,11.17-6.79
					c0.03-0.01,0.05-0.01,0.08,0c0.35,0.09,8.55,2.19,10.18,2.89c0.07,0.03,0.1,0.11,0.07,0.18c-0.03,0.07-0.11,0.1-0.18,0.07
					c-1.55-0.67-9.44-2.7-10.09-2.86c-4.75,1.63-10.98,6.68-11.04,6.73C68.41,52.4,68.38,52.41,68.35,52.41z"/>
				<path class="st6" d="M89.63,47.32c-0.03,0-0.07-0.01-0.09-0.03c-4.18-3.6-5.96-7.51-5.98-7.55c-0.01-0.03-0.02-0.06,0-0.09
					c1.63-4.78,6.41-7.71,6.46-7.74c0.06-0.04,0.15-0.02,0.19,0.04c0.04,0.06,0.02,0.15-0.04,0.18c-0.05,0.03-4.71,2.89-6.32,7.55
					c0.21,0.45,2,4.07,5.89,7.41c0.06,0.05,0.06,0.13,0.01,0.19C89.71,47.31,89.67,47.32,89.63,47.32z"/>
				<path class="st6" d="M89.94,45.51c-0.06,0-0.11-0.04-0.13-0.09c-1.07-3.14-1.02-5.38-1.02-5.41c0-0.03,0.01-0.06,0.03-0.08
					c3.68-4.41,11.62-5.63,11.7-5.64c0.07-0.01,0.15,0.04,0.16,0.11c0.01,0.07-0.04,0.14-0.12,0.15c-0.08,0.01-7.87,1.21-11.5,5.51
					c0,0.33,0.03,2.42,1,5.27c0.02,0.07-0.02,0.15-0.09,0.17C89.97,45.51,89.96,45.51,89.94,45.51z"/>
			</g>
			<path class="st5" d="M97.7,39.78c-4.44,0-8.03,3.47-8.03,7.74c0,0.47,0.05,0.93,0.13,1.38c-2.39,0.97-4.67,4.52-4.02,7.92
				c0.06,0.31,0.34,0.53,0.65,0.53c0.04,0,0.08,0,0.12-0.01c0.36-0.06,0.6-0.4,0.53-0.75c-0.2-1.07-0.07-1.99,0.22-2.75
				c0.22,0.86,0.77,1.77,1.77,2.73c1.26,1.21,2.43,1.75,3.52,1.81c-0.63,0.32-1.4,0.55-2.31,0.6c-0.37,0.02-0.65,0.32-0.63,0.67
				c0.02,0.34,0.31,0.61,0.66,0.61c0.01,0,0.02,0,0.03,0c3.13-0.15,6.48-2.75,7.03-5.01c0.11,0,0.21,0.02,0.32,0.02
				c4.44,0,8.03-3.47,8.03-7.74C105.73,43.25,102.13,39.78,97.7,39.78z"/>
			<ellipse class="st7" cx="96.62" cy="46.78" rx="5.51" ry="5.31"/>
			<ellipse class="st6" cx="96.33" cy="46.39" rx="2.99" ry="2.88"/>
			<g>
				<path class="st7" d="M90.37,50.45c-0.89-0.2-2.58,0.5-2.45,2.29c0.13,1.78,1.88,3.52,3.78,4.12c1.9,0.6,3.64-1.1,3.16-2.14
					C94.33,53.62,91.5,50.71,90.37,50.45z"/>
				<path class="st6" d="M91.78,52.72c0.85,0.82,1.11,1.91,0.57,2.42c-0.54,0.52-1.66,0.27-2.52-0.55
					c-0.85-0.82-1.11-1.91-0.57-2.42C89.81,51.65,90.93,51.9,91.78,52.72z"/>
			</g>
			<g>
				<path class="st5" d="M92.9,46.78c0,0,1.51-0.05,2.96,1.12l-0.68,0.49L92.9,46.78z"/>
				<path class="st5" d="M98.24,45.58l-4.12-2.91c0,0,2.97,0.47,4.64,2.31L98.24,45.58z"/>
				<path class="st5" d="M102.66,50.6c-0.32-0.95-0.81-1.8-1.38-2.58c-0.42-0.57-0.89-1.11-1.38-1.62c0.06-0.08,0.12-0.16,0.18-0.25
					c0.63-0.89,1.29-2.05,1.44-3.21c-1.06,0.5-1.81,1.44-2.66,2.13c-0.07,0.06-0.15,0.12-0.22,0.19c-0.51-0.42-1.04-0.81-1.61-1.15
					c-0.84-0.5-1.73-0.94-2.75-1.19c0.53,0.87,1.37,1.42,2.01,2.12c0.4,0.44,0.89,0.69,1.32,1.09c-0.27,0.28-0.84,0.92-1.1,1.2
					c-0.73,0.81-1.42,1.65-2.04,2.54c-0.62,0.9-1.33,1.55-1.77,2.6c1.11-0.4,2.07-0.91,2.93-1.6c0.54-0.45,0.76-0.41,1.26-0.9
					l1.46,1.71c-0.16-0.97-0.82-2.06-1.03-2.35c0.27-0.26,0.43-0.43,0.69-0.7c0.27-0.28,0.43-0.49,0.68-0.78
					c0.47,0.4,0.95,0.78,1.45,1.16C100.9,49.61,101.76,50.11,102.66,50.6z"/>
				<path class="st8" d="M92.66,52.51c0.44-1.05,1.02-1.99,1.64-2.89c0.63-0.89,1.31-1.74,2.04-2.54c0.73-0.81,1.51-1.57,2.36-2.27
					c0.85-0.7,1.76-1.35,2.82-1.85c-0.41,1.09-0.98,2.03-1.61,2.93c-0.62,0.9-1.33,1.72-2.07,2.51c-0.75,0.79-1.54,1.53-2.39,2.23
					C94.59,51.32,93.7,51.98,92.66,52.51z"/>
				<path class="st8" d="M94.12,42.66c1.02,0.24,1.91,0.68,2.75,1.19c0.84,0.51,1.6,1.1,2.31,1.76c0.71,0.65,1.36,1.37,1.93,2.15
					c0.57,0.78,1.06,1.63,1.38,2.58c-0.91-0.49-1.67-1.06-2.43-1.62c-0.75-0.57-1.47-1.17-2.17-1.79c-0.7-0.62-1.37-1.26-2.01-1.96
					C95.25,44.27,94.64,43.54,94.12,42.66z"/>
				<path class="st8" d="M92.9,46.78c0.73,0.13,1.32,0.4,1.87,0.71c0.55,0.31,1.03,0.69,1.47,1.11c0.44,0.42,0.85,0.88,1.2,1.39
					c0.34,0.51,0.67,1.08,0.85,1.71c-0.69-0.1-1.3-0.4-1.84-0.7c-0.55-0.32-1.04-0.68-1.5-1.09c-0.46-0.41-0.87-0.85-1.22-1.37
					C93.37,48.04,93.06,47.48,92.9,46.78z"/>
				<path class="st3" d="M93.35,51.73c0.46-0.09,2.26-1.55,2.26-1.55s1.76,1.33,2.15,1.16c0.39-0.18-1.2-1.9-1.23-2.11
					c-0.03-0.21,1.96-2.19,2.05-2.14c0.09,0.05,2.69,2.61,3.18,2.63c0.5,0.01-0.57-1.41-1.32-2.2c-0.74-0.79-1.16-1.27-1.13-1.39
					s1.43-1.73,1.46-2.14c0.03-0.4-1.67,0.87-2.01,1.07c-0.34,0.2-0.56,0.19-1-0.15c-0.44-0.34-2.85-1.96-3.06-1.78
					c-0.27,0.23,2.24,2.41,2.45,2.71c0.21,0.3,0.27,0.44-0.27,1.09c-0.55,0.65-1.12,1.36-1.46,1.31c-0.34-0.05-2-1.33-2.18-1.17
					c-0.22,0.2,1.28,1.96,1.3,2.37C94.57,49.89,92.9,51.82,93.35,51.73z"/>
				<path class="st4" d="M100.19,44.59c-0.51,0.56-1.02,1.1-1.54,1.65l-1.56,1.63c-0.53,0.54-1.05,1.08-1.56,1.62l-1.55,1.64
					c-0.03,0.03-0.08,0.03-0.11,0.01c-0.03-0.03-0.03-0.07-0.01-0.1c0.43-0.62,0.91-1.2,1.4-1.77c0.49-0.57,1.01-1.12,1.53-1.67
					c0.53-0.54,1.06-1.07,1.61-1.59c0.55-0.52,1.11-1.03,1.69-1.52c0.03-0.03,0.08-0.02,0.11,0.01
					C100.22,44.52,100.22,44.56,100.19,44.59z"/>
				<path class="st4" d="M93.72,47.45c1.2,1.15,2.36,2.33,3.66,3.36c0.04,0.03,0.05,0.1,0.02,0.14c-0.03,0.04-0.09,0.05-0.13,0.02
					c-0.72-0.45-1.35-1.01-1.96-1.58c-0.6-0.58-1.18-1.18-1.7-1.83c-0.03-0.03-0.02-0.08,0.01-0.11
					C93.64,47.42,93.69,47.42,93.72,47.45z"/>
				<path class="st4" d="M95.49,43.68c0.54,0.39,1.06,0.8,1.57,1.22c0.51,0.42,1.01,0.86,1.5,1.29c0.49,0.45,0.97,0.9,1.44,1.36
					c0.46,0.47,0.92,0.95,1.34,1.45c0.03,0.04,0.03,0.09-0.01,0.13c-0.04,0.03-0.09,0.03-0.12-0.01l-2.9-2.67l-1.46-1.33
					c-0.49-0.44-0.97-0.89-1.45-1.34c-0.03-0.03-0.03-0.07,0-0.1C95.42,43.66,95.46,43.65,95.49,43.68z"/>
			</g>
			<path class="st9" d="M92.79,56.04c0,0.59-0.49,1.06-1.1,1.06c-0.61,0-1.1-0.48-1.1-1.06s0.49-1.06,1.1-1.06
				C92.3,54.98,92.79,55.45,92.79,56.04z"/>
			<path class="st9" d="M90.82,54.35c0,0.59-0.49,1.06-1.1,1.06c-0.61,0-1.1-0.48-1.1-1.06c0-0.59,0.49-1.06,1.1-1.06
				C90.33,53.28,90.82,53.76,90.82,54.35z"/>
			<ellipse class="st9" cx="88.61" cy="52.31" rx="0.77" ry="0.75"/>
			<ellipse class="st9" cx="93.95" cy="56.65" rx="0.77" ry="0.75"/>
			<g>
				<g>
					<path class="st8" d="M90.64,54.41c0,0.53-0.44,0.95-0.99,0.95c-0.55,0-0.99-0.43-0.99-0.95s0.44-0.95,0.99-0.95
						C90.19,53.45,90.64,53.88,90.64,54.41z"/>
					<path class="st3" d="M90.16,54.39c0,0.31-0.26,0.57-0.59,0.57c-0.32,0-0.59-0.25-0.59-0.57c0-0.31,0.26-0.57,0.59-0.57
						C89.9,53.82,90.16,54.07,90.16,54.39z"/>
					<path class="st4" d="M89.73,54.28c0,0.12-0.1,0.22-0.23,0.22c-0.13,0-0.23-0.1-0.23-0.22c0-0.12,0.1-0.22,0.23-0.22
						C89.63,54.06,89.73,54.16,89.73,54.28z"/>
				</g>
				<g>
					<path class="st8" d="M89.25,52.36c0,0.36-0.3,0.65-0.68,0.65c-0.37,0-0.68-0.29-0.68-0.65c0-0.36,0.3-0.65,0.68-0.65
						C88.94,51.71,89.25,52,89.25,52.36z"/>
					<path class="st3" d="M88.92,52.29c0,0.21-0.18,0.38-0.39,0.38c-0.22,0-0.39-0.17-0.39-0.38c0-0.21,0.18-0.38,0.39-0.38
						C88.75,51.91,88.92,52.08,88.92,52.29z"/>
					<path class="st4" d="M88.63,52.22c0,0.08-0.07,0.15-0.15,0.15c-0.08,0-0.15-0.07-0.15-0.15c0-0.08,0.07-0.15,0.15-0.15
						C88.57,52.07,88.63,52.14,88.63,52.22z"/>
				</g>
				<g>
					<path class="st8" d="M93.8,56.05c-0.37,0.08-0.6,0.42-0.52,0.78c0.08,0.35,0.44,0.58,0.8,0.5c0.37-0.08,0.6-0.42,0.52-0.78
						S94.16,55.98,93.8,56.05z"/>
					<ellipse class="st3" cx="93.88" cy="56.63" rx="0.39" ry="0.38"/>
					<ellipse class="st4" cx="93.83" cy="56.56" rx="0.15" ry="0.15"/>
				</g>
				<g>
					<path class="st8" d="M91.43,55.17c-0.54,0.11-0.88,0.62-0.76,1.13c0.11,0.52,0.64,0.84,1.18,0.73
						c0.54-0.11,0.88-0.62,0.76-1.13C92.49,55.39,91.97,55.06,91.43,55.17z"/>
					<path class="st3" d="M92.13,55.99c0,0.31-0.26,0.57-0.59,0.57c-0.32,0-0.59-0.25-0.59-0.57c0-0.31,0.26-0.57,0.59-0.57
						C91.87,55.43,92.13,55.68,92.13,55.99z"/>
					<path class="st4" d="M91.7,55.89c0,0.12-0.1,0.22-0.23,0.22c-0.13,0-0.23-0.1-0.23-0.22c0-0.12,0.1-0.22,0.23-0.22
						C91.6,55.67,91.7,55.77,91.7,55.89z"/>
				</g>
			</g>
			<path class="st6" d="M86.33,56.89c-0.07,0-0.13-0.05-0.14-0.12c-0.5-4.24,2.37-6.65,2.4-6.68c0.06-0.05,0.15-0.04,0.2,0.01
				c0.05,0.06,0.04,0.14-0.02,0.19c-0.03,0.02-2.78,2.34-2.3,6.44c0.01,0.07-0.05,0.14-0.12,0.15
				C86.34,56.89,86.33,56.89,86.33,56.89z"/>
			<path class="st6" d="M90.06,59.81c-0.07,0-0.13-0.05-0.14-0.12c-0.01-0.07,0.05-0.14,0.12-0.15c4.26-0.4,6.04-3.48,6.06-3.51
				c0.04-0.06,0.12-0.09,0.19-0.05c0.07,0.04,0.09,0.12,0.06,0.18c-0.02,0.03-1.87,3.23-6.28,3.65
				C90.07,59.81,90.07,59.81,90.06,59.81z"/>
			<g>
				<g>
					<path class="st5" d="M97.66,54.9c0.31,0.89,0.46,1.79,0.6,2.7c0.12,0.91,0.22,1.81,0.27,2.72c0.07,0.91,0.08,1.81,0.1,2.72
						c0.01,0.45,0,0.91-0.01,1.37c-0.02,0.47-0.02,0.9-0.08,1.42l0,0.01c-0.01,0.05-0.02,0.09-0.03,0.14
						c-0.34,0.88-0.72,1.67-1.14,2.46c-0.44,0.78-0.9,1.56-1.43,2.28c-0.26,0.37-0.53,0.72-0.81,1.08c-0.3,0.34-0.58,0.69-0.89,1.02
						c-0.61,0.66-1.29,1.27-2,1.82c-0.06,0.05-0.16,0.06-0.23,0.01c-0.09-0.06-0.11-0.17-0.04-0.26l0-0.01
						c0.52-0.71,1.06-1.39,1.53-2.12c0.49-0.71,0.94-1.45,1.37-2.19c0.42-0.75,0.84-1.49,1.2-2.27c0.36-0.74,0.71-1.51,0.97-2.24
						c0.04-0.36,0.06-0.8,0.08-1.21l0.04-1.34l0.07-2.68c0.02-1.79,0.09-3.58-0.02-5.35l0-0.01c-0.01-0.1,0.06-0.2,0.16-0.23
						C97.49,54.71,97.62,54.78,97.66,54.9z"/>
					<path class="st5" d="M110.44,41.34c0.16,0,0.29,0.13,0.29,0.29c-0.03,2.2-0.11,4.41-0.47,6.62c-0.18,1.11-0.43,2.21-0.83,3.31
						c-0.41,1.09-0.97,2.18-1.91,3.1c-0.1,0.1-0.23,0.17-0.37,0.2l-0.01,0l0,0l0,0.02c-1.46,0.28-3.02,0.38-4.51,0.19
						c-0.96-0.12-1.88-0.33-2.79-0.58c1.23,0.8,2.52,1.52,3.84,2.15c0.82,0.39,1.66,0.73,2.5,1c0.79,0.25,1.6,0.43,2.32,0.44
						c0.69-0.29,1.34-0.66,1.94-1.12c0.67-0.51,1.26-1.13,1.81-1.8c1.09-1.35,1.96-2.91,2.79-4.48l0,0
						c0.07-0.13,0.22-0.19,0.37-0.14c0.15,0.06,0.23,0.22,0.17,0.36c-0.66,1.67-1.36,3.33-2.37,4.89c-0.51,0.78-1.09,1.54-1.8,2.2
						c-0.71,0.67-1.53,1.24-2.41,1.69l-0.08,0.04c-0.09,0.05-0.19,0.07-0.3,0.06l0,0c-1.12-0.07-2.08-0.38-2.99-0.74
						c-0.91-0.37-1.76-0.8-2.59-1.27c-1.48-0.84-2.87-1.79-4.19-2.82c0.77,1.34,1.57,2.68,2.37,4.01l2.87,4.7
						c0.08,0.13,0.12,0.29,0.11,0.45l0,0.04v0c-0.2,1.13-0.45,2.23-0.79,3.3c-0.33,1.07-0.73,2.11-1.17,3.13
						c-0.88,2.04-1.93,3.99-3.11,5.86c-0.08,0.12-0.25,0.17-0.38,0.11c-0.14-0.07-0.2-0.24-0.13-0.38c1-1.93,1.86-3.93,2.53-5.97
						c0.34-1.02,0.63-2.05,0.85-3.09c0.2-0.95,0.37-1.91,0.41-2.85l-2.39-4.67c-0.82-1.64-1.65-3.28-2.43-4.95
						c-0.1-0.21-0.01-0.47,0.2-0.58c0.16-0.08,0.34-0.06,0.48,0.02c0.01-0.02,0.02-0.05,0.03-0.07c-0.19-0.09-0.3-0.29-0.25-0.5
						c0.06-0.24,0.31-0.4,0.56-0.34l0,0c1.38,0.3,2.77,0.55,4.13,0.58c1.29,0.04,2.55-0.16,3.8-0.51c0.64-0.58,1.15-1.37,1.55-2.22
						c0.44-0.94,0.77-1.96,1.04-3c0.52-2.09,0.81-4.26,1.02-6.43C110.16,41.45,110.29,41.34,110.44,41.34z"/>
				</g>
				<path class="st6" d="M93.72,72.71c-0.03,0-0.06-0.01-0.08-0.03c-0.06-0.05-0.07-0.13-0.02-0.19c0.04-0.05,4-5,4.11-6.8
					c0.1-1.66,0.34-5.54-0.23-9.38c-0.01-0.07,0.04-0.14,0.12-0.15c0.08-0.01,0.15,0.04,0.16,0.11c0.57,3.87,0.33,7.77,0.23,9.43
					c-0.11,1.88-4,6.74-4.16,6.95C93.81,72.69,93.76,72.71,93.72,72.71z"/>
				<path class="st6" d="M98.96,76.3c-0.02,0-0.04-0.01-0.07-0.02c-0.07-0.03-0.09-0.12-0.06-0.18c0.04-0.07,3.87-6.99,4.54-11.81
					c-0.3-0.58-4.01-7.6-5.01-8.92c-0.05-0.06-0.03-0.14,0.03-0.19c0.06-0.04,0.15-0.03,0.19,0.03c1.05,1.39,4.89,8.68,5.05,8.99
					c0.01,0.02,0.02,0.05,0.01,0.08c-0.66,4.86-4.53,11.87-4.57,11.94C99.06,76.27,99.01,76.3,98.96,76.3z"/>
				<path class="st6" d="M108.56,59.22c-0.01,0-0.02,0-0.03,0c-0.04-0.01-4.39-0.87-8.91-4.07c-0.06-0.04-0.08-0.13-0.03-0.19
					c0.05-0.06,0.13-0.07,0.19-0.03c4.21,2.97,8.25,3.9,8.75,4.01c4.4-2.49,6.33-7.48,6.35-7.53c0.03-0.07,0.11-0.11,0.18-0.08
					c0.07,0.03,0.11,0.1,0.08,0.17c-0.02,0.05-2,5.16-6.52,7.69C108.61,59.22,108.58,59.22,108.56,59.22z"/>
				<path class="st6" d="M103.83,54.63c-0.7,0-1.5-0.03-2.37-0.13c-0.08-0.01-0.13-0.07-0.12-0.15c0.01-0.07,0.08-0.12,0.15-0.12
					c3.09,0.33,5.23-0.08,5.56-0.15c3.61-4.31,3.21-11.9,3.2-11.98c0-0.07,0.05-0.14,0.13-0.14c0.08,0,0.14,0.05,0.15,0.13
					c0,0.08,0.42,7.82-3.3,12.2c-0.02,0.02-0.05,0.04-0.07,0.05C107.14,54.35,105.88,54.63,103.83,54.63z M107.13,54.21
					L107.13,54.21L107.13,54.21z"/>
			</g>
		</g>
	</g>
	<g>
		<g>
			<path class="st10" d="M64.18,11.3c-0.48-0.01-0.9-0.31-0.81-0.91c0.05-0.35,0.32-0.63,0.59-0.86c2.37-2.05,5.96-2.49,8.88-1.36
				c0.41,0.16,0.81,0.35,1.2,0.56c0.6,0.33,1.74,0.96,1.42,1.78c-0.32,0.83-1.2,0.51-1.72,0.1c-1.4-1.09-3.27-1.49-5.04-1.26
				c-0.8,0.11-1.57,0.44-2.28,0.84C65.78,10.55,64.95,11.33,64.18,11.3z"/>
		</g>
		<g>
			<path class="st10" d="M45.11,16.52c-0.46,0.13-0.96-0.03-1.06-0.62c-0.06-0.35,0.1-0.69,0.29-0.99c1.6-2.65,4.87-4.14,8.01-3.94
				c0.44,0.03,0.88,0.09,1.32,0.17c0.68,0.13,1.96,0.39,1.92,1.27c-0.04,0.89-0.98,0.84-1.61,0.61c-1.68-0.62-3.59-0.44-5.2,0.31
				c-0.73,0.34-1.35,0.89-1.89,1.48C46.4,15.33,45.85,16.31,45.11,16.52z"/>
		</g>
		<g>
			<path class="st10" d="M28.65,27.16c-0.4,0.26-0.92,0.26-1.21-0.27c-0.17-0.31-0.12-0.69-0.05-1.03c0.67-3,3.3-5.39,6.35-6.13
				c0.43-0.1,0.87-0.18,1.31-0.23c0.69-0.07,1.99-0.21,2.24,0.63c0.25,0.86-0.66,1.09-1.34,1.06c-1.8-0.09-3.56,0.65-4.84,1.84
				c-0.58,0.54-1,1.25-1.33,1.97C29.49,25.64,29.29,26.75,28.65,27.16z"/>
		</g>
		<g>
			<path class="st10" d="M16.41,42.18c-0.29,0.36-0.79,0.52-1.24,0.1c-0.26-0.25-0.34-0.62-0.37-0.97c-0.33-3.05,1.41-6.1,4.08-7.72
				c0.38-0.23,0.77-0.43,1.17-0.61c0.63-0.28,1.83-0.79,2.33-0.07c0.51,0.74-0.28,1.23-0.93,1.4c-1.74,0.45-3.18,1.67-4.02,3.19
				c-0.38,0.69-0.55,1.48-0.63,2.27C16.72,40.49,16.88,41.6,16.41,42.18z"/>
		</g>
		<g>
			<path class="st10" d="M9.59,60.11C9.42,60.54,9,60.84,8.44,60.57c-0.33-0.16-0.52-0.49-0.67-0.81c-1.29-2.81-0.62-6.23,1.4-8.56
				c0.28-0.33,0.59-0.64,0.92-0.93c0.51-0.45,1.48-1.3,2.19-0.76c0.72,0.55,0.13,1.26-0.44,1.61c-1.51,0.94-2.48,2.54-2.8,4.23
				C8.91,56.13,9,56.94,9.18,57.71C9.34,58.41,9.85,59.42,9.59,60.11z"/>
		</g>
		<g>
			<path class="st10" d="M8.85,79.19c-0.01,0.46-0.33,0.87-0.94,0.78c-0.36-0.05-0.65-0.31-0.89-0.57
				c-2.12-2.29-2.58-5.74-1.41-8.55c0.17-0.4,0.36-0.78,0.58-1.16c0.34-0.58,1-1.68,1.84-1.37c0.86,0.31,0.53,1.15,0.1,1.66
				c-1.14,1.35-1.55,3.15-1.3,4.86c0.11,0.77,0.46,1.51,0.87,2.19C8.06,77.65,8.87,78.46,8.85,79.19z"/>
		</g>
		<g>
			<path class="st10" d="M14.26,97.56c0.13,0.44-0.03,0.92-0.64,1.03c-0.36,0.06-0.72-0.1-1.03-0.28c-2.75-1.54-4.3-4.69-4.09-7.72
				c0.03-0.43,0.09-0.85,0.18-1.27c0.14-0.65,0.41-1.89,1.31-1.85c0.92,0.04,0.87,0.94,0.63,1.55c-0.65,1.62-0.46,3.46,0.32,5.01
				c0.35,0.7,0.92,1.3,1.53,1.83C13.02,96.33,14.05,96.86,14.26,97.56z"/>
		</g>
		<g>
			<path class="st10" d="M25.3,113.42c0.27,0.38,0.27,0.89-0.28,1.17c-0.32,0.16-0.71,0.12-1.07,0.04
				c-3.11-0.65-5.59-3.18-6.36-6.12c-0.11-0.41-0.19-0.84-0.24-1.26c-0.08-0.66-0.22-1.92,0.65-2.15c0.89-0.24,1.13,0.64,1.1,1.29
				c-0.1,1.73,0.67,3.43,1.91,4.67c0.56,0.56,1.29,0.96,2.04,1.28C23.73,112.62,24.87,112.81,25.3,113.42z"/>
		</g>
		<g>
			<path class="st10" d="M40.89,125.22c0.38,0.28,0.54,0.77,0.1,1.19c-0.25,0.25-0.64,0.32-1,0.36c-3.17,0.31-6.34-1.36-8.01-3.93
				c-0.24-0.36-0.45-0.74-0.63-1.13c-0.29-0.61-0.82-1.76-0.07-2.24c0.77-0.49,1.28,0.27,1.45,0.9c0.47,1.68,1.74,3.06,3.31,3.87
				c0.71,0.37,1.54,0.53,2.35,0.61C39.14,124.92,40.29,124.77,40.89,125.22z"/>
		</g>
		<g>
			<path class="st10" d="M59.5,131.79c0.45,0.16,0.76,0.57,0.48,1.11c-0.16,0.32-0.51,0.5-0.84,0.64c-2.91,1.24-6.46,0.59-8.88-1.35
				c-0.34-0.27-0.66-0.57-0.96-0.89c-0.47-0.49-1.35-1.43-0.78-2.11c0.57-0.69,1.3-0.13,1.67,0.42c0.98,1.46,2.63,2.39,4.39,2.7
				c0.8,0.14,1.63,0.05,2.43-0.12C57.74,132.03,58.78,131.54,59.5,131.79z"/>
		</g>
		<g>
			<path class="st10" d="M79.31,132.51c0.48,0.01,0.9,0.31,0.81,0.91c-0.05,0.35-0.32,0.63-0.59,0.86
				c-2.37,2.05-5.96,2.49-8.88,1.36c-0.41-0.16-0.81-0.35-1.2-0.56c-0.6-0.33-1.74-0.96-1.42-1.78c0.32-0.83,1.2-0.51,1.72-0.1
				c1.4,1.09,3.27,1.49,5.04,1.26c0.8-0.11,1.57-0.44,2.28-0.84C77.71,133.26,78.55,132.48,79.31,132.51z"/>
		</g>
		<g>
			<path class="st10" d="M98.38,127.29c0.46-0.13,0.96,0.03,1.06,0.62c0.06,0.35-0.1,0.69-0.29,0.99c-1.6,2.65-4.87,4.14-8.01,3.94
				c-0.44-0.03-0.88-0.09-1.32-0.17c-0.68-0.13-1.96-0.39-1.92-1.27c0.04-0.89,0.98-0.84,1.61-0.61c1.68,0.62,3.59,0.44,5.2-0.31
				c0.73-0.34,1.35-0.89,1.89-1.48C97.09,128.48,97.64,127.5,98.38,127.29z"/>
		</g>
		<g>
			<path class="st10" d="M114.84,116.65c0.4-0.26,0.92-0.26,1.21,0.27c0.17,0.31,0.12,0.69,0.05,1.03c-0.67,3-3.3,5.39-6.35,6.13
				c-0.43,0.1-0.87,0.18-1.31,0.23c-0.69,0.07-1.99,0.21-2.24-0.63c-0.25-0.86,0.66-1.09,1.34-1.06c1.8,0.09,3.56-0.65,4.84-1.84
				c0.58-0.54,1-1.25,1.33-1.97C114,118.17,114.2,117.06,114.84,116.65z"/>
		</g>
		<g>
			<path class="st10" d="M127.08,101.63c0.29-0.36,0.79-0.52,1.24-0.1c0.26,0.25,0.34,0.62,0.37,0.97c0.33,3.05-1.41,6.1-4.08,7.72
				c-0.38,0.23-0.77,0.43-1.17,0.61c-0.63,0.28-1.83,0.79-2.33,0.07c-0.51-0.74,0.28-1.23,0.93-1.4c1.74-0.45,3.18-1.67,4.02-3.19
				c0.38-0.69,0.55-1.48,0.63-2.27C126.77,103.32,126.61,102.21,127.08,101.63z"/>
		</g>
		<g>
			<path class="st10" d="M133.9,83.7c0.16-0.43,0.59-0.73,1.15-0.46c0.33,0.16,0.52,0.49,0.67,0.81c1.29,2.81,0.62,6.23-1.4,8.56
				c-0.28,0.33-0.59,0.64-0.92,0.93c-0.51,0.45-1.48,1.3-2.19,0.76c-0.72-0.55-0.13-1.26,0.44-1.61c1.51-0.94,2.48-2.54,2.8-4.23
				c0.14-0.77,0.05-1.57-0.13-2.34C134.15,85.4,133.65,84.39,133.9,83.7z"/>
		</g>
		<g>
			<path class="st10" d="M134.65,64.62c0.01-0.46,0.33-0.87,0.94-0.78c0.36,0.05,0.65,0.31,0.89,0.57c2.12,2.29,2.58,5.74,1.41,8.55
				c-0.17,0.4-0.36,0.78-0.58,1.16c-0.34,0.58-1,1.68-1.84,1.37c-0.86-0.31-0.53-1.15-0.1-1.66c1.14-1.35,1.55-3.15,1.3-4.86
				c-0.11-0.77-0.46-1.51-0.87-2.19C135.43,66.16,134.62,65.35,134.65,64.62z"/>
		</g>
		<g>
			<path class="st10" d="M129.23,46.25c-0.13-0.44,0.03-0.92,0.64-1.03c0.36-0.06,0.72,0.1,1.03,0.28c2.75,1.54,4.3,4.69,4.09,7.72
				c-0.03,0.43-0.09,0.85-0.18,1.27c-0.14,0.65-0.41,1.89-1.31,1.85c-0.92-0.04-0.87-0.94-0.63-1.55c0.65-1.62,0.46-3.46-0.32-5.01
				c-0.35-0.7-0.92-1.3-1.53-1.83C130.47,47.48,129.44,46.95,129.23,46.25z"/>
		</g>
		<g>
			<path class="st10" d="M118.19,30.39c-0.27-0.38-0.27-0.89,0.28-1.17c0.32-0.16,0.71-0.12,1.07-0.04
				c3.11,0.65,5.59,3.18,6.36,6.12c0.11,0.41,0.19,0.84,0.24,1.26c0.08,0.66,0.22,1.92-0.65,2.15c-0.89,0.24-1.13-0.64-1.1-1.29
				c0.1-1.73-0.67-3.43-1.91-4.67c-0.56-0.56-1.29-0.96-2.04-1.28C119.76,31.19,118.62,31,118.19,30.39z"/>
		</g>
		<g>
			<path class="st10" d="M102.6,18.59c-0.38-0.28-0.54-0.77-0.1-1.19c0.25-0.25,0.64-0.32,1-0.36c3.17-0.31,6.34,1.36,8.01,3.93
				c0.24,0.36,0.45,0.74,0.63,1.13c0.29,0.61,0.82,1.76,0.07,2.24c-0.77,0.49-1.28-0.27-1.45-0.9c-0.47-1.68-1.74-3.06-3.31-3.87
				c-0.71-0.37-1.54-0.53-2.35-0.61C104.36,18.89,103.2,19.04,102.6,18.59z"/>
		</g>
		<g>
			<path class="st10" d="M83.99,12.02c-0.45-0.16-0.76-0.57-0.48-1.11c0.16-0.32,0.51-0.5,0.84-0.64c2.91-1.24,6.46-0.59,8.88,1.35
				c0.34,0.27,0.66,0.57,0.96,0.89c0.47,0.49,1.35,1.43,0.78,2.11c-0.57,0.69-1.3,0.13-1.67-0.42c-0.98-1.46-2.63-2.39-4.39-2.7
				c-0.8-0.14-1.63-0.05-2.43,0.12C85.76,11.78,84.71,12.27,83.99,12.02z"/>
		</g>
	</g>
	<path class="st11" d="M130.94,78.85c0.38-3.02,3.55-5.98,3.44-9.12c-0.12-3.14-3.5-5.87-4.11-8.85c-0.62-3.07,1.45-6.82,0.36-9.69
		c-1.1-2.92-5.21-4.51-6.75-7.19c-1.56-2.71-0.81-6.9-2.78-9.32c-1.98-2.43-6.39-2.73-8.73-4.83c-2.34-2.1-2.97-6.31-5.63-8.04
		c-2.65-1.72-6.93-0.7-9.85-2c-2.88-1.29-4.83-5.12-7.93-5.97c-3.05-0.84-6.79,1.42-10.01,1.04c-3.13-0.36-6.21-3.42-9.46-3.31
		c-3.25,0.12-6.09,3.38-9.19,3.96c-3.18,0.59-7.08-1.4-10.06-0.34c-3.03,1.06-4.68,5.02-7.46,6.51c-2.81,1.5-7.16,0.78-9.67,2.68
		c-2.52,1.91-2.83,6.15-5.01,8.41c-2.18,2.26-6.55,2.86-8.35,5.42c-1.79,2.55-0.72,6.68-2.08,9.49c-1.34,2.78-5.31,4.65-6.2,7.64
		c-0.87,2.94,1.47,6.54,1.08,9.64c-0.38,3.02-3.55,5.98-3.44,9.12c0.12,3.14,3.5,5.87,4.11,8.85c0.62,3.07-1.45,6.82-0.36,9.69
		c1.1,2.92,5.21,4.51,6.75,7.19c1.56,2.71,0.81,6.9,2.78,9.32c1.98,2.43,6.39,2.73,8.73,4.83c2.34,2.1,2.97,6.31,5.63,8.04
		c2.65,1.72,6.93,0.7,9.85,2c2.88,1.29,4.83,5.12,7.93,5.97c3.05,0.84,6.79-1.42,10.01-1.04c3.13,0.36,6.21,3.42,9.46,3.31
		c3.25-0.12,6.09-3.38,9.19-3.96c3.18-0.59,7.08,1.4,10.06,0.34c3.03-1.06,4.68-5.02,7.46-6.51c2.81-1.5,7.16-0.78,9.67-2.68
		c2.52-1.91,2.83-6.15,5.01-8.41c2.18-2.26,6.55-2.86,8.35-5.42c1.79-2.55,0.72-6.68,2.08-9.49c1.34-2.78,5.31-4.65,6.2-7.64
		C132.89,85.55,130.55,81.95,130.94,78.85z M129.06,87.67c-0.84,2.83-5.01,4.45-6.29,7.09c-1.29,2.66,0.1,6.78-1.59,9.2
		c-1.7,2.43-6.19,2.73-8.26,4.87c-2.06,2.14-2.06,6.47-4.44,8.28c-2.38,1.8-6.75,0.75-9.41,2.19c-2.63,1.41-4.02,5.54-6.89,6.55
		c-2.82,0.99-6.63-1.3-9.65-0.74c-2.93,0.55-5.57,4.07-8.66,4.17c-3.08,0.11-5.98-3.22-8.94-3.56c-3.05-0.35-6.68,2.2-9.57,1.41
		c-2.94-0.81-4.62-4.83-7.36-6.06c-2.76-1.24-7.04,0.1-9.55-1.53c-2.52-1.64-2.83-5.96-5.05-7.95c-2.22-1.99-6.72-1.98-8.6-4.28
		c-1.86-2.29-0.78-6.5-2.27-9.06c-1.46-2.54-5.75-3.87-6.8-6.64c-1.03-2.72,1.35-6.39,0.77-9.29c-0.57-2.83-4.22-5.37-4.33-8.34
		c-0.11-2.97,3.34-5.76,3.7-8.62c0.37-2.93-2.28-6.43-1.46-9.22c0.84-2.83,5.01-4.45,6.29-7.09c1.29-2.66-0.1-6.78,1.59-9.2
		c1.7-2.43,6.19-2.73,8.26-4.87c2.06-2.14,2.06-6.47,4.44-8.28c2.38-1.8,6.75-0.75,9.41-2.19c2.63-1.41,4.02-5.54,6.89-6.55
		c2.82-0.99,6.63,1.3,9.65,0.74c2.93-0.55,5.57-4.07,8.66-4.17c3.08-0.11,5.98,3.22,8.94,3.56c3.05,0.35,6.68-2.2,9.57-1.41
		c2.94,0.81,4.62,4.83,7.36,6.06c2.76,1.24,7.04-0.1,9.55,1.53c2.52,1.64,2.83,5.96,5.05,7.95c2.22,1.99,6.72,1.98,8.6,4.28
		c1.86,2.29,0.78,6.5,2.26,9.06c1.47,2.54,5.75,3.87,6.8,6.64c1.03,2.72-1.35,6.39-0.77,9.29c0.57,2.83,4.22,5.37,4.33,8.34
		c0.11,2.97-3.34,5.76-3.7,8.62C127.23,81.39,129.88,84.89,129.06,87.67z"/>
</g>
</svg>
