<?xml version="1.0" encoding="utf-8"?>
<!-- Generator: Adobe Illustrator 24.1.2, SVG Export Plug-In . SVG Version: 6.00 Build 0)  -->
<svg version="1.1" id="Слой_1" xmlns="http://www.w3.org/2000/svg" xmlns:xlink="http://www.w3.org/1999/xlink" x="0px" y="0px"
	 viewBox="0 0 283.46 283.46" style="enable-background:new 0 0 283.46 283.46;" xml:space="preserve">
<style type="text/css">
	.st0{enable-background:new    ;}
	.st1{fill:#EFEFEF;}
	.st2{fill:#DDDDDC;}
	.st3{fill:#D2D2D2;}
	.st4{fill:#D5D6D5;}
	.st5{fill:#C12F45;}
	.st6{fill:#B93253;}
	.st7{fill:#E24B69;}
	.st8{opacity:0.5;fill:#F38BA5;}
	.st9{fill:#F5A2B7;}
	.st10{opacity:0.2;fill:#561320;}
	.st11{fill:#E89386;}
	.st12{fill:#F1B0A2;}
	.st13{opacity:0.4;fill:#FCDCD7;}
	.st14{fill:#FCE7F0;}
	.st15{opacity:0.2;fill:#70322C;}
	.st16{fill:#FFC10D;}
	.st17{fill:#FBAF17;}
	.st18{fill:#EC9E21;}
	.st19{fill:#262D29;}
	.st20{fill:#3C483F;}
	.st21{fill:#D58A28;}
	.st22{opacity:0.2;fill:#6C5632;}
	.st23{fill:#231F20;}
</style>
<g id="XMLID_5519_">
	<g id="XMLID_5520_">
		<g id="XMLID_5602_">
			<g id="XMLID_5623_" class="st0">
				<g id="XMLID_5628_">
					<path id="XMLID_5629_" class="st1" d="M225.17,140.45c-1.62,2.94,0.65,2.16-2.72,3.72c-3.37,1.55-0.93,1.77-4.34,3.27
						c-3.43,1.51-3.62,1.21-7.06,2.66c-3.46,1.43-3.4,3.01-6.89,4.41c-3.52,1.39-4,1.9-7.54,3.24c-3.54,1.32-3.35,0.97-6.93,2.24
						c-3.5,1.24-2.54,1.92-5.93,3.09c-0.06,0.04-0.84,1.5-0.92,1.52c-3.64,1.19-3.88,0.62-7.54,1.79c-3.66,1.13-3.67,1.11-7.34,2.21
						c-3.12,0.88-3.5,1.28-5.79,2.02c-0.42,0.11-0.9,0.26-1.49,0.43c-3.73,1-3.69,1.08-7.44,2.04c-3.77,0.94-4.17-0.1-7.96,0.79
						c-3.79,0.87-3.54,1.55-7.35,2.37c-3.85,0.81-4.17-0.17-8.01,0.61c-3.86,0.73-3.71,1.17-7.59,1.85
						c-3.88,0.68-5.25,4.49-8.36,2.38c-3.12-2.13,0.84-3.79,0.99-6.98c0.15-3.17,1.06-3.11,1.22-6.3c0.15-3.17-1.03-3.24-0.86-6.41
						c0.17-3.17,1.29-3.09,1.46-6.28c0.15-3.17-0.15-3.19,0.02-6.36c0.17-3.19-1.43-3.34-1.24-6.5c0.19-3.19,0.82-3.36,0.31-6.53
						c-0.53-3.35-0.86-3.73,1.45-6.15c2.27-2.38,3.37-1.21,6.8-1.9c3.41-0.7,3.83,0.83,7.25,0.07c3.39-0.77,3.12-1.72,6.47-2.51
						c3.37-0.83,3.3-1.06,6.64-1.92c3.33-0.89,3.37-0.75,6.68-1.68c3.29-0.94,3.43-0.57,6.7-1.55c3.25-1,3.23-1.06,6.47-2.09
						c3.24-1.06,3.03-1.62,6.22-2.71c3.2-1.11,3.2-1.1,6.38-2.24c3.16-1.15,3.63-0.04,6.78-1.26c3.12-1.21,2.76-2.04,5.84-3.3
						c3.08-1.26,3.12-1.21,6.19-2.53c3.05-1.32,2.91-1.58,5.94-2.94c3.01-1.38,3.29-0.81,6.28-2.23c2.97-1.43,2.89-1.56,5.84-3.03
						c2.95-1.49,3.01-4.81,5.98-3.51c3.01,1.3,5.06,3.33,5.79,6.43c0.72,3.09-0.1,3.28,0.63,6.37c0.72,3.09-0.74,3-0.02,6.09
						c0.73,3.09-0.78,3-0.04,6.09c0.72,3.09-0.89,3.47-0.17,6.56c0.72,3.09-0.91,3.03-0.19,6.13c0.74,3.11-1.54,0.29-0.82,3.4
						C225.68,138.42,226.8,137.47,225.17,140.45z"/>
				</g>
				<g id="XMLID_5626_">
					<path id="XMLID_5627_" class="st2" d="M75.02,115.34c0.12-3.15,4.17,0.74,7.61,0.42c3.43-0.32,3.35-0.87,6.75-1.23
						c3.4-0.38,3.48,0.11,6.86-0.32c3.38-0.45,3.15-1.68,6.5-2.17c3.34-0.51,3.43-0.04,6.76-0.59c3.32-0.57,3.33-0.53,6.62-1.14
						c3.29-0.63,3.23-0.88,6.5-1.55c3.26-0.69,3.16-1.07,6.4-1.8c3.23-0.75,3.2-0.84,6.4-1.63c3.19-0.8,3.21-0.73,6.39-1.57
						c3.16-0.86,3.42,0.02,6.57-0.88c3.14-0.92,2.92-1.6,6.03-2.55c3.1-0.97,3.18-0.73,6.26-1.74c3.07-1.03,3.14-0.83,6.19-1.89
						c3.04-1.08,2.78-1.77,5.79-2.88c3-1.13,3.05-1.07,6.24-1.44c3.33-0.41,3.34-0.31,6.69,0.05c3.35,0.34,3.3,0.9,6.67,1.2
						c3.38,0.27,3.46-0.72,6.85-0.49c3.39,0.2,3.34,0.95,6.76,1.11c3.42,0.14,3.45-0.43,6.88-0.33c3.44,0.08,4.85-2.05,5.99,1.07
						c1.08,2.95-1.98,1.28-4.9,2.75c-2.94,1.46-2.83,1.67-5.8,3.1c-2.98,1.41-3.04,1.29-6.05,2.66c-3.02,1.36-3.19,1.01-6.24,2.34
						c-3.05,1.31-3.03,1.37-6.11,2.64c-3.09,1.26-2.85,1.8-5.98,3.03c-3.14,1.21-3.15,1.18-6.31,2.35
						c-3.18,1.15-3.63,0.04-6.81,1.14c-3.2,1.09-2.88,1.94-6.11,3c-3.25,1.04-3.27,0.98-6.54,1.98c-3.27,0.98-3.18,1.26-6.47,2.2
						c-3.32,0.93-3.52,0.32-6.85,1.2c-3.34,0.87-3.3,1.02-6.66,1.84c-3.37,0.81-3.22,1.34-6.62,2.1c-3.41,0.75-3.34,1.02-6.78,1.72
						c-3.45,0.69-3.54,0.73-7.09,0.56c-3.72-0.2-3.68-0.6-7.23-1.65c-3.54-1.07-3.67-0.73-7.19-1.85c-3.51-1.13-5.73-0.72-9.22-1.93
						c-3.48-1.22-3.98-2.3-7.43-3.57c-3.44-1.29-2.64-0.84-6.3-1.36C75.63,118.58,74.88,118.66,75.02,115.34z"/>
				</g>
				<g id="XMLID_5624_">
					<path id="XMLID_5625_" class="st3" d="M118.04,129.25c2.13,2.59-0.29,3.62-0.48,6.79c-0.18,3.17,0.4,3.26,0.23,6.43
						c-0.17,3.17,0.06,3.18-0.1,6.35c-0.17,3.18,0.39,3.21,0.23,6.38c-0.15,3.18-1.81,3.03-1.98,6.21c-0.17,3.17,1.15,3.3,1,6.47
						c-0.15,3.18-1.73,3.04-1.89,6.22c-0.17,3.18,4.21,5.02,0.87,6.75c-3.48,1.78-8.06-2.03-12.07-3.12
						c-1.14-0.31-1.53-1.85-5.8-3.67c-1.49-0.63-3.6-0.31-5.24-1.04c-1.99-0.88-3.53-2.83-5.56-3.79c-1.79-0.84-4.64-0.26-6.31-1.1
						c-2.07-1.03-4.32-2.87-5.95-3.8c-3.31-1.89-4.04-4.06-3.9-4.89c0.52-3.13-0.14-3.25,0.39-6.38c0.53-3.13,1.12-3.03,1.65-6.16
						c0.53-3.13-0.93-3.39-0.39-6.53c0.55-3.13,1.09-3.04,1.63-6.17c0.54-3.13-1.32-3.12-0.77-6.26c0.54-3.13,0.25-3.19,0.8-6.32
						c0.54-3.14-2.15-5.32,0.97-6.7c3.22-1.45,3.87,1.27,7.28,2.59c3.41,1.31,3.38,1.37,6.82,2.63c3.45,1.24,3.1,2.09,6.58,3.29
						c3.49,1.18,3.75,0.51,7.26,1.65c3.52,1.12,3.25,2.09,6.96,2.42C114.46,127.87,115.84,126.54,118.04,129.25z"/>
				</g>
			</g>
			<path id="XMLID_5622_" class="st4" d="M219.95,117.69c0,0-0.17,0.5-0.09,1.26c0.04,0.79,0.43,1.78,0.64,3.34
				c0.08,0.75,0.13,1.87-0.64,2.98c-0.42,0.56-0.82,0.9-1.54,1.25c-0.59,0.28-1.19,0.39-1.7,0.47c-1.02,0.13-1.89,0.17-2.33,0.34
				c-0.11,0.04-0.18,0.08-0.24,0.12l-0.04,0.03l-0.01,0.01c0.19-0.13,0.03-0.02,0.07-0.04l-0.07,0.06
				c-0.11,0.08-0.19,0.15-0.14,0.12c0,0-0.17,0.24-0.26,0.5c-0.26,0.57-0.42,1.49-0.81,2.54c-0.36,1.09-1.2,2.23-2.1,2.89
				c-0.91,0.7-1.9,1.12-2.85,1.33c-0.97,0.22-1.84,0.21-2.66,0.13c-1.59-0.18-2.74-0.72-3.5-1.11c-0.76-0.41-1.16-0.7-1.16-0.7
				s0.48-0.01,1.34-0.03c0.83-0.02,2.01-0.06,3.25-0.33c0.59-0.14,1.25-0.36,1.81-0.65c0.58-0.29,1.12-0.69,1.53-1.14
				c0.43-0.48,0.65-0.89,0.84-1.55c0.21-0.7,0.33-1.63,0.78-2.8c0.26-0.59,0.56-1.19,1.24-1.83c0.21-0.2,0.32-0.27,0.39-0.33
				l0.07-0.05l0.14-0.09l0.06-0.04l0.27-0.14c0.35-0.19,0.72-0.32,1.05-0.4c1.36-0.31,2.35-0.14,3.07-0.15
				c0.36,0.01,0.64-0.01,0.83-0.04c0.07,0.04,0.37-0.1,0.47-0.16c0.26-0.15,0.54-0.63,0.67-1.25c0.24-1.24,0.39-2.59,0.8-3.4
				c0.18-0.41,0.43-0.72,0.58-0.87C219.86,117.78,219.95,117.69,219.95,117.69z"/>
			<path id="XMLID_5621_" class="st4" d="M194.08,137.59c0,0,0.15,0.12,0.35,0.31c0.2,0.16,0.41,0.59,0.51,1
				c0.28,0.89-0.06,2.12-0.89,2.92c-0.83,0.8-2.08,1.1-2.97,0.8c-0.9-0.23-1.31-0.9-1.31-0.9s0.43-0.64,0.73-1.19
				c0.31-0.6,0.55-1.09,0.9-1.42c0.35-0.34,0.85-0.56,1.46-0.85c0.28-0.16,0.58-0.24,0.82-0.44
				C193.91,137.68,194.08,137.59,194.08,137.59z"/>
			<path id="XMLID_5620_" class="st4" d="M159.24,136.91c0,0-0.28,0.23-0.27,0.66c-0.02,0.21,0.03,0.48,0.02,0.83
				c0,0.34,0.02,0.86-0.33,1.46c-0.31,0.57-0.83,1.07-1.47,1.38c-0.66,0.33-1.35,0.49-2.12,0.48c-0.72,0-1.4-0.13-1.99-0.3
				c-0.64-0.18-1.03-0.32-1.18-0.31c-0.07-0.01,0.03,0.01,0.2-0.08c0.19-0.09,0.26-0.29,0.06-0.03c-0.17,0.24-0.57,0.69-0.99,0.95
				c-0.4,0.26-0.79,0.42-1.16,0.52c-0.74,0.2-1.35,0.2-1.87,0.17c-0.63-0.04-0.99-0.13-1.45-0.21c-1.7-0.31-2.86-0.84-2.86-0.84
				s1.06-0.71,2.7-1.28c0.39-0.13,0.8-0.27,1.25-0.43c0.42-0.15,0.82-0.31,1.06-0.48c0.12-0.09,0.2-0.16,0.24-0.22
				c0.02-0.06-0.02-0.02,0.11-0.24c0.1-0.18,0.52-0.83,1.22-1.18c0.67-0.34,1.34-0.38,1.83-0.34c0.97,0.11,1.62,0.44,2.01,0.6
				c0.44,0.18,0.82,0.34,1.14,0.44c0.28,0.1,0.61,0.16,0.86,0.16c0.27,0,0.52-0.02,0.74-0.1c0.41-0.09,0.86-0.98,1.34-1.34
				c0.24-0.21,0.51-0.28,0.67-0.29C159.16,136.89,159.24,136.91,159.24,136.91z"/>
			<path id="XMLID_5619_" class="st4" d="M128.33,152.45c0,0,0.83-0.21,1.63-0.39c0.85-0.21,1.71-0.34,2.54-0.37
				c0.82-0.02,1.68,0.06,2.51,0.23c0.33,0.09,0.64,0.18,0.9,0.16c0.27-0.02,0.44-0.19,0.44-0.19c-0.03,0,0.19,0.13,0.22,0.54
				c0.03,0.41-0.19,0.98-0.61,1.43c-0.66,0.88-1.97,1.57-3.37,1.59c-1.39,0.05-2.74-0.58-3.43-1.39
				C128.42,153.29,128.33,152.45,128.33,152.45z"/>
			<path id="XMLID_5618_" class="st4" d="M134.46,158.5c0,0,0.02,0.49,0.47,0.93c0.45,0.47,1.18,0.67,2.18,0.55
				c0.48-0.05,1.12-0.19,1.7-0.34c0.59-0.16,1.2-0.36,1.8-0.61c0.6-0.25,1.18-0.56,1.75-0.9c0.54-0.26,1.17-1.06,2.97-1.28
				c0.93-0.08,1.93,0.43,2.3,0.72l0.45,0.33c-0.08-0.04,0.13,0.08,0.17,0.11l0.1,0.06c0.34,0.18,0.89,0.33,1.51,0.39
				c0.62,0.06,1.31,0.05,1.99,0.04c0.7-0.01,1.28,0.01,1.78-0.04c0.47-0.05,0.95-0.18,1.26-0.33c0.35-0.19,0.64-0.43,0.83-0.68
				c0.39-0.5,0.4-0.98,0.4-0.98c-0.03,0,0.35,0.33,0.33,1.2c-0.03,0.42-0.16,0.95-0.51,1.46c-0.38,0.56-0.89,1.01-1.56,1.36
				c-0.65,0.36-1.37,0.6-2.06,0.81c-0.7,0.2-1.47,0.41-2.38,0.49c-0.9,0.08-1.96,0.06-3.08-0.4l-0.44-0.2
				c-0.12-0.07-0.1-0.04-0.34-0.19l-0.55-0.36c-0.28-0.17-0.07-0.02,0.04-0.04c0.14-0.1-0.53,0.24-1.39,0.72
				c-0.83,0.42-1.71,0.72-2.57,0.9c-0.86,0.19-1.71,0.25-2.5,0.23c-0.81-0.02-1.51-0.14-2.23-0.34c-0.71-0.19-1.37-0.54-1.83-0.99
				c-0.49-0.45-0.69-0.97-0.77-1.39C134.11,158.85,134.5,158.49,134.46,158.5z"/>
			<path id="XMLID_5617_" class="st4" d="M191.16,153.21c0,0.02,0.11-0.2,0.47-0.41c0.35-0.2,0.97-0.32,1.53-0.34
				c0.56-0.06,1.08-0.09,1.62-0.11c0.47-0.02,0.98-0.04,1.49-0.07c0.21,0.01,0.49-0.04,0.61-0.02l0.24-0.04l0.1,0.01l0.3-0.03
				c0.42-0.04,0.85-0.11,1.27-0.21c0.81-0.19,1.59-0.73,1.59-0.73s0.13,0.19,0.21,0.57c0.08,0.37,0.09,0.97-0.17,1.6
				c-0.24,0.64-0.75,1.31-1.46,1.79c-0.18,0.13-0.37,0.23-0.58,0.34l-0.36,0.16l-0.23,0.09c-0.51,0.16-0.9,0.21-1.36,0.25
				c-0.88,0.03-1.72-0.15-2.41-0.45c-0.68-0.3-1.27-0.71-1.64-1.12c-0.37-0.38-0.57-0.71-0.8-0.93
				C191.38,153.32,191.16,153.21,191.16,153.21z"/>
			<path id="XMLID_5616_" class="st5" d="M224.92,113.74c-1.43,3.38-3.36,6.76-6.61,8.85c-4.01,2.55-9.21,2.64-14.06,3.32
				c-16.27,2.24-30.09,11.62-44.48,18.96c-7.43,3.79-15.15,7.09-23.1,9.85c-6.44,2.22-13.14,4.14-20.02,4.14
				c-6.89,0.02-14.02-2.06-18.66-6.76l-1.72-2.96c-5.52-3.84-12.03-6.35-17.82-9.88c-5.79-3.56-11.08-8.6-12.11-14.91
				c-0.69-4.25,0.57-8.24,2.83-11.95c2.65-4.37,6.66-8.36,10.51-11.91c6.76-6.24,13.6-12.56,21.76-17.18
				c6.42-3.63,13.49-6.14,20.57-8.54c22.24-7.52,46.81-14.04,69.2-6.97c6.88,2.18,13.21,5.54,19.41,9.03
				c1.61,0.91,3.23,1.83,4.78,2.84c3,1.92,5.79,4.06,7.92,6.76C229.35,94.15,228.64,104.87,224.92,113.74z"/>
			<path id="XMLID_5615_" class="st6" d="M224.92,113.74c-1.43,3.38-3.36,6.76-6.61,8.85c-4.01,2.55-9.21,2.64-14.06,3.32
				c-16.27,2.24-30.09,11.62-44.48,18.96c-7.43,3.79-15.15,7.09-23.1,9.85c-6.44,2.22-13.14,4.14-20.02,4.14
				c-6.89,0.02-14.02-2.06-18.66-6.76l-1.72-2.96c-5.52-3.84-12.03-6.35-17.82-9.88c-5.79-3.56-11.08-8.6-12.11-14.91
				c-0.69-4.25,0.57-8.24,2.83-11.95c2.65-4.37,6.66-8.36,10.51-11.91c6.76-6.24,13.6-12.56,21.76-17.18
				c6.42-3.63,13.49-6.14,20.57-8.54c22.24-7.52,46.81-14.04,69.2-6.97c6.88,2.18,13.21,5.54,19.41,9.03
				c1.61,0.91,3.23,1.83,4.78,2.84c3,1.92,5.79,4.06,7.92,6.76C229.35,94.15,228.64,104.87,224.92,113.74z"/>
			<path id="XMLID_5614_" class="st7" d="M215.71,103.13c-1.33,3.13-3.11,6.26-6.11,8.17c-3.72,2.38-8.52,2.45-12.99,3.07
				c-15.02,2.07-27.78,10.76-41.09,17.51c-6.86,3.52-14,6.55-21.34,9.1c-5.94,2.07-12.15,3.81-18.49,3.83
				c-6.36,0.02-12.95-1.91-17.22-6.24l-1.59-2.72c-5.1-3.58-11.12-5.89-16.45-9.16c-5.35-3.26-10.25-7.94-11.19-13.77
				c-0.04-0.17-0.06-0.37-0.06-0.54c2.65-4.37,6.66-8.36,10.51-11.91c6.76-6.24,13.6-12.56,21.76-17.18
				c6.42-3.63,13.49-6.14,20.57-8.54c22.24-7.52,46.81-14.04,69.2-6.97c6.88,2.18,13.21,5.54,19.41,9.03
				c1.61,0.91,3.23,1.83,4.78,2.84C219.66,86.62,218.86,95.6,215.71,103.13z"/>
			<path id="XMLID_5613_" class="st8" d="M110.01,122.76c-2.25,0-4.35-0.48-5.7-1.28l-0.45-0.76c-0.97-1.65-2.3-3.09-3.92-4.23
				c-3.74-2.62-7.64-4.6-11.08-6.35c-2.22-1.13-4.32-2.19-6.11-3.29c-1.13-0.69-2.66-1.06-2.71-1.93c-0.11-1.93,2.84-2.84,4.16-4.06
				c6.39-5.9,12.41-11.46,19.13-15.26c5.28-2.99,11.54-5.21,18.02-7.4c13.45-4.54,29.15-9.19,43.49-9.19
				c5.92,0,11.2,0.76,16.14,2.32c5.78,1.83,11.59,4.99,16.57,7.81c0.22,0.12,0.51,0.18,0.66,0.37c1.71,2.29,0.06,6.38-1.45,10
				c-0.46,1.1-0.7,1.82-1.03,2.05c-0.76,0.51-2.65,0.41-3.86,0.55c-1,0.11-2.01,0.23-2.99,0.36c-14.46,1.99-26.68,8.66-37.47,14.54
				c-2.9,1.58-5.64,3.08-8.39,4.47c-6.22,3.18-12.76,5.98-19.48,8.31c-4.22,1.47-9.11,2.96-13.49,2.97H110.01z"/>
			<path id="XMLID_5612_" class="st9" d="M121.88,150.67c0.29,0.02,0.51,0.03,0.67,0.05c-0.15,0-0.37-0.01-0.67-0.03
				c-0.29-0.01-0.65-0.04-1.07-0.09c-0.42-0.03-0.9-0.11-1.44-0.19c-1.07-0.19-2.37-0.47-3.79-0.97c-1.42-0.49-2.98-1.18-4.56-2.1
				c-1.59-0.94-3.17-2.12-4.66-3.58c-1.46-1.45-2.82-3.17-3.9-5.1c-1.11-1.92-1.96-4.04-2.54-6.26c-0.58-2.22-0.87-4.55-0.91-6.86
				c-0.05-2.31,0.06-4.6-0.04-6.83c-0.1-2.22-0.43-4.39-1.3-6.27c-0.21-0.47-0.46-0.93-0.74-1.36c-0.14-0.22-0.29-0.41-0.43-0.61
				c-0.15-0.2-0.33-0.43-0.48-0.61c-0.69-0.8-1.38-1.58-2.07-2.32c-1.37-1.48-2.76-2.79-4.13-3.89c-1.37-1.1-2.73-1.98-4-2.64
				c-1.26-0.66-2.44-1.09-3.43-1.36c-0.54-0.15-1.03-0.26-1.44-0.34c-0.34-0.07-0.64-0.11-0.86-0.14c0.51-0.48,1.03-0.96,1.55-1.44
				c0.25,0.06,0.52,0.12,0.81,0.2c0.16,0.04,0.32,0.09,0.49,0.14c1.09,0.33,2.38,0.83,3.73,1.58c1.36,0.74,2.79,1.72,4.2,2.9
				c1.41,1.18,2.81,2.58,4.18,4.12c0.69,0.77,1.37,1.58,2.05,2.41c0.19,0.24,0.33,0.42,0.5,0.66c0.17,0.24,0.34,0.48,0.48,0.72
				c0.3,0.49,0.56,1,0.78,1.52c0.91,2.1,1.18,4.41,1.23,6.69c0.04,2.28-0.13,4.57-0.14,6.85c-0.02,2.27,0.2,4.52,0.72,6.71
				c0.5,2.18,1.28,4.27,2.31,6.17c1.01,1.92,2.29,3.62,3.7,5.08c1.41,1.45,2.95,2.66,4.48,3.61c1.55,0.95,3.07,1.66,4.47,2.18
				c1.4,0.53,2.68,0.83,3.74,1.04c0.53,0.1,1.01,0.18,1.43,0.22C121.24,150.61,121.6,150.66,121.88,150.67z"/>
			<path id="XMLID_5611_" class="st9" d="M141.64,143.94c0.32,0.32,0.53,0.53,0.61,0.62c-0.09-0.09-0.31-0.29-0.64-0.6
				c-0.44-0.42-1.11-1.01-1.87-1.85c-0.8-0.8-1.7-1.83-2.72-3.03c-0.48-0.62-1-1.27-1.52-1.97c-0.5-0.72-1.06-1.46-1.57-2.26
				c-0.51-0.81-1.06-1.64-1.55-2.55c-0.25-0.45-0.51-0.9-0.76-1.37c-0.23-0.47-0.48-0.95-0.72-1.44c-0.94-1.97-1.82-4.08-2.51-6.34
				c-0.38-1.12-0.64-2.29-0.95-3.46c-0.24-1.19-0.51-2.39-0.66-3.62c-0.09-0.61-0.18-1.22-0.23-1.85c-0.04-0.62-0.13-1.25-0.15-1.87
				l-0.07-1.86c-0.02-0.64,0-1.26,0.01-1.89c0.05-2.5,0.21-4.98,0.06-7.38c-0.04-0.61-0.1-1.2-0.18-1.78
				c-0.08-0.59-0.19-1.15-0.32-1.75c-0.27-1.11-0.63-2.24-1.09-3.29c-0.9-2.11-2.15-3.99-3.6-5.57c-1.45-1.57-3.09-2.84-4.71-3.85
				c-3.27-2.01-6.45-2.96-8.65-3.51c-0.81-0.2-1.48-0.33-2.02-0.44c-0.21-0.04-0.4-0.07-0.58-0.1c-0.23-0.04-0.42-0.07-0.56-0.09
				c0.91-0.45,1.83-0.87,2.76-1.28c0.28,0.06,0.59,0.14,0.92,0.23c0.04,0.01,0.09,0.03,0.13,0.03c2.31,0.64,5.58,1.72,8.96,3.89
				c1.71,1.11,3.43,2.51,4.94,4.23c1.51,1.72,2.79,3.76,3.68,6.02c0.45,1.13,0.81,2.3,1.07,3.52c0.11,0.58,0.22,1.2,0.29,1.83
				c0.07,0.62,0.12,1.24,0.14,1.86c0.1,2.49-0.13,4.99-0.25,7.46c-0.02,0.61-0.05,1.24-0.05,1.84l0.02,1.86
				c0.01,0.61,0.07,1.22,0.11,1.83c0.03,0.61,0.1,1.22,0.18,1.82c0.11,1.21,0.35,2.39,0.56,3.57c0.28,1.16,0.51,2.32,0.86,3.44
				c0.63,2.24,1.45,4.36,2.33,6.32c0.23,0.49,0.46,0.97,0.68,1.45c0.23,0.48,0.49,0.93,0.72,1.37c0.46,0.91,0.99,1.75,1.47,2.56
				c0.49,0.82,1.03,1.56,1.5,2.29c0.51,0.7,1.01,1.36,1.47,1.99c0.98,1.21,1.85,2.26,2.63,3.08
				C140.55,142.91,141.21,143.52,141.64,143.94z"/>
			<path id="XMLID_5610_" class="st9" d="M155.63,134.16c-0.11-0.1-0.29-0.25-0.49-0.45c-0.41-0.4-1-1.03-1.63-1.89
				c-0.62-0.88-1.28-2-1.82-3.37c-0.56-1.37-1-2.97-1.3-4.74c-0.3-1.78-0.46-3.72-0.51-5.77c-0.04-2.05-0.03-4.22,0.07-6.46
				c0.18-4.47,0.72-9.24,1.62-13.95c0.44-2.36,1.02-4.7,1.51-6.98c0.47-2.3,0.8-4.53,0.7-6.7c-0.1-2.15-0.63-4.22-1.61-5.91
				c-0.93-1.72-2.47-2.97-3.86-4.14c-1.43-1.13-2.84-2.05-4.17-2.73c-1.31-0.68-2.53-1.14-3.55-1.44c-0.36-0.11-0.69-0.19-1-0.26
				c-0.14-0.03-0.26-0.06-0.38-0.09c-0.39-0.06-0.73-0.13-1.01-0.17c-0.04-0.01-0.09-0.02-0.12-0.02c1.2-0.33,2.41-0.65,3.62-0.96
				c0.34,0.12,0.71,0.26,1.08,0.41c0.71,0.29,1.48,0.65,2.27,1.08c1.41,0.77,2.89,1.78,4.37,3.02c1.41,1.23,3.09,2.66,4.11,4.65
				c1.05,1.95,1.55,4.21,1.6,6.52c0.05,2.3-0.36,4.65-0.91,6.96c-0.55,2.31-1.18,4.6-1.68,6.93c-1.01,4.65-1.66,9.37-1.97,13.81
				c-0.15,2.22-0.23,4.37-0.23,6.41c0,2.04,0.1,3.97,0.36,5.73c0.24,1.77,0.64,3.36,1.16,4.73c0.51,1.37,1.13,2.5,1.72,3.39
				c0.6,0.87,1.17,1.51,1.58,1.92C155.36,133.89,155.52,134.05,155.63,134.16z"/>
			<path id="XMLID_5609_" class="st9" d="M184.75,81.25c-0.33,2.28-1.15,4.54-2.08,6.72c-0.96,2.18-2.02,4.33-2.92,6.54
				c-1.84,4.41-3.34,8.95-4.44,13.27c-0.55,2.16-1.01,4.26-1.37,6.27c-0.37,2.01-0.6,3.91-0.65,5.69c-0.06,1.77,0.07,3.4,0.34,4.81
				c0.27,1.42,0.7,2.62,1.14,3.57c0.45,0.96,0.91,1.65,1.24,2.12c0.21,0.29,0.37,0.49,0.45,0.6c-0.09-0.11-0.25-0.3-0.47-0.59
				c-0.34-0.45-0.82-1.14-1.3-2.09c-0.47-0.95-0.94-2.14-1.24-3.57c-0.32-1.42-0.49-3.07-0.47-4.85c0.01-1.79,0.19-3.72,0.51-5.75
				c0.31-2.02,0.7-4.15,1.21-6.33c0.99-4.37,2.37-8.98,4.11-13.47c0.86-2.25,1.87-4.45,2.75-6.61c0.87-2.18,1.59-4.33,1.84-6.48
				c0.25-2.13,0.04-4.22-0.67-6.02c-0.17-0.44-0.39-0.87-0.62-1.28c-0.13-0.2-0.22-0.37-0.37-0.58l-0.22-0.31l-0.09-0.13l-0.11-0.14
				c-0.59-0.77-1.21-1.47-1.81-2.13c-1.22-1.31-2.48-2.4-3.67-3.25c-1.19-0.85-2.32-1.47-3.28-1.9c-0.47-0.23-0.92-0.38-1.29-0.54
				c-0.06-0.02-0.11-0.03-0.16-0.05c-0.32-0.1-0.58-0.19-0.82-0.26c-0.58-0.16-0.88-0.24-0.88-0.24l0.05-0.16
				c0.34-0.01,0.67-0.01,1-0.01c1.27,0,2.51,0.03,3.75,0.09c0.41,0.21,0.83,0.45,1.27,0.73c0.48,0.3,0.99,0.65,1.5,1.03
				c1.27,0.95,2.58,2.13,3.84,3.55c0.63,0.71,1.26,1.47,1.84,2.28l0.11,0.16l0.12,0.17l0.21,0.31c0.14,0.21,0.29,0.47,0.42,0.71
				c0.26,0.48,0.49,0.97,0.68,1.48C184.93,76.67,185.08,78.97,184.75,81.25z"/>
			<path id="XMLID_5608_" class="st9" d="M209.29,79.47c0,1.41-0.35,2.9-0.96,4.35c-0.29,0.74-0.66,1.43-1.09,2.16
				c-0.43,0.71-0.91,1.4-1.43,2.08c-2.09,2.72-4.79,5.16-6.84,8.02c-1.01,1.42-1.88,2.95-2.55,4.53c-0.68,1.56-1.18,3.17-1.51,4.75
				c-0.66,3.17-0.6,6.23-0.17,8.79c0.44,2.57,1.2,4.64,1.85,6.03c0.31,0.71,0.61,1.24,0.81,1.6c0.15,0.27,0.25,0.44,0.28,0.52
				c-0.05-0.07-0.15-0.24-0.31-0.51c-0.21-0.36-0.51-0.89-0.86-1.58c-0.7-1.37-1.54-3.43-2.07-6.01c-0.52-2.57-0.69-5.68-0.12-8.93
				c0.28-1.63,0.74-3.28,1.38-4.91c0.64-1.64,1.47-3.22,2.48-4.74c1-1.5,2.18-2.9,3.33-4.24c1.16-1.34,2.29-2.65,3.24-3.98
				c0.48-0.66,0.91-1.33,1.29-2.01c0.36-0.65,0.7-1.35,0.94-2.02c0.51-1.36,0.77-2.68,0.74-3.88c-0.04-1.2-0.38-2.25-0.85-3.11
				c-0.48-0.85-1.05-1.54-1.57-2.06c-0.43-0.43-0.79-0.74-1.1-0.99c-0.07-0.05-0.13-0.11-0.19-0.15c-0.34-0.26-0.52-0.4-0.52-0.4
				l0.37-0.39c1.26,0.65,2.49,1.31,3.69,1.95c0.25,0.35,0.51,0.74,0.74,1.18c0.04,0.06,0.08,0.13,0.11,0.2
				C208.92,76.75,209.29,78.05,209.29,79.47z"/>
			<path id="XMLID_5604_" class="st5" d="M223.91,86.04c-1.89-2.41-4.46-4.6-8.08-6.92c-1.59-1.03-3.26-1.98-4.82-2.86
				c-1.11-0.63-2.27-1.28-3.46-1.93c-1.19-0.64-2.42-1.3-3.69-1.95c-3.86-1.96-8.03-3.83-12.4-5.22
				c-5.36-1.69-11.15-2.69-17.26-2.98c-1.24-0.06-2.48-0.09-3.75-0.09c-0.34,0-0.67,0-1,0.01c-9.26,0.11-18.69,1.75-27.74,4.03
				c-1.22,0.31-2.42,0.63-3.62,0.96c-5.66,1.55-11.14,3.3-16.31,5.04c-4.92,1.66-9.73,3.35-14.34,5.42
				c-0.93,0.41-1.85,0.83-2.76,1.28h-0.01c-1.21,0.6-2.41,1.23-3.59,1.89c-7.23,4.1-13.48,9.54-19.44,15.01
				c-0.52,0.48-1.04,0.96-1.55,1.44c-0.3,0.27-0.6,0.55-0.89,0.82c-3.72,3.42-7.89,7.53-10.63,12.06
				c-2.62,4.29-3.57,8.34-2.91,12.38c1.16,7.11,7.39,12.28,12.42,15.36c2.51,1.54,5.19,2.89,7.79,4.21c3.34,1.7,6.79,3.45,9.86,5.57
				l1.64,2.83c0.03,0.05,0.07,0.09,0.1,0.13c4.38,4.43,11.34,6.98,19.09,6.98h0.1c7.17,0,13.97-2.01,20.27-4.17
				c7.89-2.75,15.7-6.07,23.2-9.89c3.14-1.6,6.31-3.33,9.36-5c10.96-5.98,22.3-12.16,34.88-13.9c0.93-0.13,1.87-0.24,2.82-0.35
				c4.01-0.46,8.16-0.93,11.54-3.09c3.65-2.34,5.59-6.12,6.86-9.15C229.99,103.47,229.36,93.03,223.91,86.04z M224.92,113.74
				c-1.43,3.38-3.36,6.76-6.61,8.85c-4.01,2.55-9.21,2.64-14.06,3.32c-16.27,2.24-30.09,11.62-44.48,18.96
				c-7.43,3.79-15.15,7.09-23.1,9.85c-6.44,2.22-13.14,4.14-20.02,4.14c-6.89,0.02-14.02-2.06-18.66-6.76l-1.72-2.96
				c-5.52-3.84-12.03-6.35-17.82-9.88c-5.79-3.56-11.08-8.6-12.11-14.91c-0.69-4.25,0.57-8.24,2.83-11.95
				c2.65-4.37,6.66-8.36,10.51-11.91c0.41-0.38,0.83-0.77,1.25-1.15c0.49-0.46,1-0.92,1.5-1.38c5.88-5.39,11.95-10.65,19.01-14.64
				c1.42-0.81,2.88-1.56,4.36-2.26c0.88-0.43,1.77-0.83,2.67-1.21c4.39-1.92,8.97-3.52,13.54-5.07c5.73-1.93,11.61-3.8,17.57-5.39
				c1.06-0.28,2.12-0.56,3.19-0.82c9.38-2.32,18.91-3.86,28.31-3.78c1.46,0.01,2.91,0.06,4.36,0.15c5.34,0.34,10.61,1.24,15.77,2.88
				c4.52,1.43,8.82,3.38,12.98,5.54c1.36,0.71,2.72,1.44,4.07,2.18c0.79,0.43,1.57,0.88,2.36,1.32c1.61,0.91,3.23,1.83,4.78,2.84
				c3,1.92,5.79,4.06,7.92,6.76C229.35,94.15,228.64,104.87,224.92,113.74z"/>
			<path id="XMLID_5603_" class="st10" d="M226.13,119.24c0.23,1.01,0.23,1.72,0.13,2.34c-1.28,3.01-3.22,6.71-6.81,9.03
				c-3.38,2.15-7.53,2.63-11.54,3.08c-0.95,0.12-1.9,0.22-2.83,0.36c-12.58,1.73-23.92,7.91-34.88,13.89
				c-3.05,1.67-6.22,3.39-9.36,5c-7.49,3.82-15.31,7.15-23.2,9.89c-6.29,2.17-13.1,4.17-20.26,4.17h-0.41
				c-0.26-0.01-0.52-0.01-0.77-0.02c-7.31-0.22-13.82-2.73-17.99-6.95c-0.04-0.04-0.07-0.09-0.1-0.13l-1.64-2.83
				c-3.07-2.13-6.52-3.87-9.86-5.57c-2.59-1.32-5.27-2.67-7.78-4.21c-1.97-1.2-4.12-2.73-6.07-4.57c-0.1-0.6-0.14-1.31,0.04-2.32
				c0.33-1.93,0.67-2.63,1.01-3.62c1.44,1.17,2.92,2.18,4.31,3.03c2.52,1.54,5.2,2.89,7.79,4.21c3.34,1.7,6.79,3.45,9.86,5.57
				l1.64,2.82c0.02,0.05,0.06,0.09,0.09,0.14c4.2,4.24,10.77,6.76,18.14,6.96c0.24,0.01,0.48,0.02,0.73,0.02h0.32
				c7.16,0,13.97-2.01,20.26-4.17c7.89-2.74,15.7-6.07,23.2-9.89c3.14-1.61,6.3-3.33,9.36-5c10.96-5.98,22.3-12.16,34.88-13.9
				c0.93-0.13,1.87-0.24,2.82-0.35c4.01-0.46,8.17-0.93,11.54-3.08c3.65-2.35,5.59-6.13,6.86-9.16c0.17-0.42,0.34-0.85,0.5-1.27
				c0.03,0.14,0.06,0.29,0.1,0.44C226.89,116.24,225.39,116.14,226.13,119.24z"/>
		</g>
		<g id="XMLID_5574_">
			<g id="XMLID_5595_" class="st0">
				<g id="XMLID_5600_">
					<path id="XMLID_5601_" class="st1" d="M162.94,207.15c-1.62,2.94,0.65,2.16-2.72,3.72c-3.37,1.54-0.94,1.76-4.34,3.27
						c-3.43,1.51-3.62,1.21-7.06,2.66c-3.46,1.43-3.41,3.01-6.89,4.41c-3.52,1.39-4,1.9-7.54,3.24c-3.54,1.32-3.35,0.97-6.93,2.24
						c-3.5,1.24-2.54,1.92-5.93,3.09c-0.06,0.04-0.85,1.5-0.92,1.52c-3.63,1.19-3.88,0.62-7.53,1.79c-3.66,1.13-3.67,1.11-7.35,2.21
						c-3.12,0.89-3.5,1.28-5.79,2.02c-0.42,0.11-0.89,0.27-1.48,0.43c-3.73,1-3.69,1.08-7.44,2.04c-3.76,0.94-4.17-0.09-7.95,0.79
						c-3.79,0.87-3.54,1.55-7.35,2.38c-3.85,0.81-4.17-0.17-8.01,0.6c-3.86,0.73-3.71,1.17-7.59,1.85
						c-3.88,0.68-5.25,4.49-8.36,2.38c-3.12-2.13,0.84-3.79,0.99-6.98c0.15-3.17,1.07-3.11,1.22-6.3c0.15-3.17-1.03-3.24-0.86-6.41
						c0.17-3.17,1.3-3.09,1.47-6.28c0.15-3.17-0.15-3.19,0.02-6.36c0.17-3.19-1.42-3.33-1.24-6.5c0.19-3.19,0.82-3.36,0.31-6.53
						c-0.53-3.35-0.86-3.73,1.45-6.15c2.26-2.38,3.37-1.21,6.79-1.9c3.41-0.7,3.82,0.83,7.25,0.07c3.39-0.77,3.12-1.72,6.47-2.51
						c3.37-0.83,3.29-1.05,6.64-1.92c3.33-0.89,3.37-0.75,6.68-1.68c3.29-0.94,3.43-0.57,6.7-1.55c3.26-1,3.24-1.06,6.47-2.09
						c3.24-1.05,3.03-1.62,6.22-2.71c3.2-1.11,3.2-1.09,6.38-2.24c3.16-1.15,3.63-0.04,6.78-1.26c3.12-1.21,2.76-2.04,5.84-3.3
						c3.08-1.26,3.12-1.21,6.19-2.53c3.04-1.32,2.91-1.59,5.94-2.94c3.01-1.38,3.3-0.81,6.28-2.23c2.97-1.43,2.89-1.56,5.84-3.03
						c2.95-1.49,3.01-4.81,5.97-3.51c3.01,1.3,5.06,3.34,5.79,6.43c0.72,3.09-0.1,3.28,0.63,6.37c0.72,3.09-0.74,3-0.02,6.09
						c0.72,3.09-0.78,3-0.04,6.09c0.72,3.09-0.89,3.47-0.17,6.56c0.72,3.09-0.92,3.03-0.19,6.13c0.74,3.11-1.54,0.29-0.82,3.4
						C163.45,205.12,164.57,204.17,162.94,207.15z"/>
				</g>
				<g id="XMLID_5598_">
					<path id="XMLID_5599_" class="st2" d="M12.79,182.04c0.13-3.15,4.17,0.74,7.62,0.42c3.43-0.32,3.35-0.87,6.75-1.23
						c3.39-0.38,3.48,0.11,6.86-0.32c3.38-0.45,3.15-1.68,6.5-2.17c3.34-0.51,3.43-0.04,6.76-0.6c3.32-0.57,3.33-0.53,6.63-1.14
						c3.29-0.63,3.23-0.88,6.49-1.55c3.26-0.69,3.16-1.07,6.4-1.8c3.23-0.74,3.2-0.84,6.4-1.63c3.2-0.8,3.21-0.73,6.39-1.57
						c3.16-0.86,3.43,0.02,6.57-0.88c3.14-0.91,2.92-1.6,6.03-2.55c3.1-0.97,3.18-0.73,6.26-1.74c3.07-1.02,3.14-0.83,6.18-1.89
						c3.04-1.08,2.78-1.77,5.79-2.89c3-1.13,3.06-1.07,6.24-1.44c3.33-0.42,3.34-0.31,6.69,0.05c3.35,0.34,3.3,0.9,6.67,1.2
						c3.38,0.27,3.46-0.72,6.85-0.49c3.39,0.2,3.34,0.95,6.76,1.11c3.43,0.14,3.45-0.43,6.88-0.34c3.44,0.08,4.84-2.05,5.99,1.07
						c1.09,2.96-1.98,1.28-4.9,2.75c-2.94,1.46-2.83,1.67-5.8,3.1c-2.98,1.41-3.04,1.29-6.05,2.66c-3.02,1.36-3.19,1.01-6.24,2.34
						c-3.06,1.31-3.03,1.37-6.11,2.64c-3.1,1.26-2.85,1.8-5.98,3.03c-3.14,1.21-3.14,1.18-6.31,2.35c-3.17,1.15-3.63,0.04-6.82,1.14
						c-3.2,1.1-2.87,1.94-6.11,3c-3.24,1.04-3.27,0.98-6.53,1.98c-3.27,0.98-3.18,1.26-6.48,2.2c-3.31,0.93-3.52,0.32-6.85,1.2
						c-3.34,0.87-3.29,1.02-6.66,1.84c-3.38,0.81-3.22,1.34-6.62,2.1c-3.42,0.75-3.34,1.02-6.78,1.72
						c-3.45,0.69-3.54,0.73-7.09,0.56c-3.72-0.2-3.68-0.6-7.23-1.65c-3.54-1.07-3.67-0.73-7.19-1.85c-3.51-1.13-5.73-0.72-9.22-1.93
						c-3.49-1.22-3.99-2.29-7.43-3.57c-3.44-1.29-2.64-0.84-6.3-1.36C13.4,185.27,12.66,185.36,12.79,182.04z"/>
				</g>
				<g id="XMLID_5596_">
					<path id="XMLID_5597_" class="st3" d="M55.82,195.95c2.13,2.59-0.3,3.62-0.48,6.79c-0.18,3.17,0.4,3.26,0.23,6.43
						c-0.17,3.17,0.06,3.18-0.1,6.36c-0.16,3.17,0.39,3.2,0.24,6.38c-0.15,3.18-1.81,3.03-1.98,6.2c-0.17,3.18,1.15,3.3,1,6.48
						c-0.15,3.18-1.73,3.04-1.9,6.22c-0.17,3.18,4.2,5.02,0.87,6.75c-3.48,1.78-8.06-2.03-12.07-3.12c-1.14-0.31-1.53-1.85-5.8-3.67
						c-1.49-0.63-3.6-0.31-5.24-1.03c-1.99-0.88-3.53-2.84-5.56-3.79c-1.79-0.84-4.64-0.26-6.31-1.1c-2.07-1.03-4.31-2.87-5.95-3.8
						c-3.31-1.89-4.04-4.06-3.9-4.89c0.52-3.14-0.14-3.25,0.39-6.39c0.53-3.13,1.12-3.03,1.65-6.16c0.53-3.13-0.93-3.39-0.39-6.53
						c0.54-3.13,1.09-3.04,1.63-6.17c0.54-3.13-1.32-3.13-0.78-6.26c0.55-3.13,0.26-3.19,0.81-6.32c0.54-3.14-2.15-5.32,0.97-6.7
						c3.22-1.45,3.87,1.27,7.28,2.59c3.41,1.31,3.39,1.37,6.82,2.63c3.44,1.24,3.1,2.09,6.58,3.29c3.49,1.18,3.75,0.51,7.26,1.65
						c3.52,1.12,3.25,2.09,6.96,2.42C52.23,194.57,53.61,193.23,55.82,195.95z"/>
				</g>
			</g>
			<path id="XMLID_5594_" class="st4" d="M157.72,184.39c0,0-0.17,0.5-0.1,1.26c0.04,0.79,0.43,1.78,0.64,3.34
				c0.08,0.75,0.13,1.87-0.65,2.98c-0.42,0.56-0.81,0.9-1.54,1.25c-0.6,0.28-1.18,0.39-1.7,0.47c-1.03,0.13-1.89,0.17-2.33,0.34
				c-0.11,0.04-0.18,0.07-0.23,0.12l-0.04,0.03l-0.01,0.01c0.19-0.13,0.03-0.02,0.07-0.04l-0.07,0.06
				c-0.11,0.08-0.19,0.15-0.14,0.12c0,0-0.17,0.24-0.26,0.5c-0.26,0.57-0.42,1.49-0.81,2.54c-0.36,1.09-1.2,2.23-2.1,2.9
				c-0.91,0.7-1.9,1.12-2.85,1.33c-0.97,0.23-1.84,0.21-2.66,0.13c-1.59-0.18-2.74-0.72-3.5-1.11c-0.76-0.41-1.16-0.7-1.16-0.7
				s0.49-0.01,1.34-0.03c0.83-0.02,2.01-0.06,3.25-0.33c0.59-0.14,1.26-0.36,1.81-0.65c0.58-0.29,1.12-0.69,1.53-1.14
				c0.43-0.48,0.65-0.89,0.84-1.55c0.2-0.7,0.33-1.63,0.78-2.8c0.26-0.59,0.56-1.19,1.24-1.83c0.21-0.2,0.31-0.27,0.39-0.33
				l0.07-0.05l0.13-0.1l0.07-0.04l0.26-0.15c0.35-0.19,0.72-0.32,1.05-0.4c1.36-0.32,2.34-0.14,3.07-0.15
				c0.36,0.01,0.64-0.01,0.83-0.04c0.07,0.04,0.37-0.1,0.47-0.16c0.26-0.15,0.53-0.63,0.67-1.25c0.23-1.24,0.39-2.59,0.8-3.4
				c0.18-0.41,0.43-0.72,0.58-0.87C157.64,184.48,157.72,184.39,157.72,184.39z"/>
			<path id="XMLID_5593_" class="st4" d="M131.85,204.29c0,0,0.15,0.12,0.35,0.32c0.2,0.16,0.41,0.58,0.51,1
				c0.28,0.89-0.06,2.12-0.89,2.92c-0.83,0.8-2.08,1.1-2.97,0.8c-0.89-0.23-1.3-0.9-1.3-0.9s0.43-0.64,0.72-1.19
				c0.31-0.6,0.55-1.09,0.9-1.42c0.35-0.34,0.85-0.56,1.46-0.85c0.29-0.16,0.58-0.24,0.82-0.44
				C131.69,204.38,131.85,204.29,131.85,204.29z"/>
			<path id="XMLID_5592_" class="st4" d="M97.01,203.61c0,0-0.28,0.23-0.26,0.66c-0.02,0.21,0.03,0.49,0.02,0.84
				c0,0.34,0.02,0.85-0.34,1.45c-0.31,0.57-0.83,1.07-1.47,1.38c-0.66,0.33-1.36,0.49-2.12,0.48c-0.72,0-1.39-0.13-1.99-0.3
				c-0.64-0.19-1.03-0.32-1.18-0.31c-0.06-0.01,0.03,0.01,0.2-0.08c0.19-0.09,0.26-0.29,0.06-0.03c-0.17,0.25-0.57,0.69-0.99,0.95
				c-0.4,0.26-0.79,0.42-1.16,0.52c-0.73,0.2-1.35,0.2-1.87,0.18c-0.63-0.04-0.99-0.14-1.45-0.21c-1.7-0.31-2.86-0.84-2.86-0.84
				s1.06-0.71,2.7-1.28c0.39-0.13,0.8-0.28,1.25-0.43c0.42-0.15,0.82-0.32,1.06-0.48c0.12-0.09,0.21-0.16,0.24-0.22
				c0.02-0.06-0.02-0.02,0.11-0.24c0.1-0.18,0.52-0.84,1.22-1.18c0.67-0.35,1.34-0.38,1.83-0.34c0.97,0.11,1.62,0.44,2.01,0.6
				c0.44,0.18,0.82,0.34,1.14,0.44c0.28,0.1,0.61,0.16,0.86,0.16c0.27,0,0.53-0.02,0.74-0.1c0.4-0.09,0.85-0.98,1.34-1.34
				c0.24-0.21,0.5-0.28,0.67-0.29C96.94,203.58,97.01,203.61,97.01,203.61z"/>
			<path id="XMLID_5591_" class="st4" d="M66.1,219.15c0,0,0.83-0.21,1.63-0.39c0.85-0.21,1.7-0.34,2.53-0.37
				c0.82-0.02,1.69,0.06,2.51,0.22c0.33,0.09,0.64,0.18,0.9,0.16c0.26-0.02,0.44-0.19,0.44-0.19c-0.03,0.01,0.19,0.13,0.22,0.55
				c0.03,0.41-0.19,0.98-0.61,1.43c-0.66,0.88-1.97,1.57-3.37,1.59c-1.39,0.05-2.73-0.58-3.43-1.39
				C66.19,219.99,66.1,219.15,66.1,219.15z"/>
			<path id="XMLID_5590_" class="st4" d="M72.23,225.2c0,0,0.02,0.48,0.48,0.92c0.45,0.47,1.18,0.67,2.18,0.55
				c0.49-0.05,1.12-0.19,1.7-0.34c0.6-0.16,1.2-0.36,1.8-0.61c0.6-0.25,1.19-0.56,1.75-0.9c0.54-0.25,1.17-1.06,2.97-1.28
				c0.94-0.08,1.93,0.43,2.3,0.72l0.45,0.33c-0.08-0.04,0.12,0.08,0.17,0.11l0.1,0.06c0.34,0.18,0.89,0.33,1.51,0.39
				c0.62,0.06,1.31,0.05,1.99,0.04c0.7-0.01,1.28,0.01,1.78-0.05c0.47-0.05,0.95-0.18,1.26-0.33c0.34-0.19,0.64-0.43,0.83-0.68
				c0.39-0.5,0.4-0.98,0.4-0.98c-0.04,0,0.35,0.33,0.32,1.21c-0.03,0.42-0.16,0.95-0.51,1.46c-0.38,0.56-0.89,1.01-1.56,1.36
				c-0.65,0.36-1.38,0.6-2.06,0.81c-0.7,0.2-1.47,0.41-2.38,0.49c-0.9,0.08-1.96,0.06-3.09-0.4l-0.44-0.2
				c-0.13-0.07-0.1-0.04-0.35-0.19l-0.55-0.36c-0.29-0.17-0.07-0.02,0.04-0.04c0.14-0.1-0.53,0.24-1.39,0.71
				c-0.83,0.42-1.71,0.72-2.57,0.9c-0.86,0.19-1.71,0.25-2.5,0.23c-0.82-0.02-1.51-0.14-2.23-0.34c-0.71-0.19-1.37-0.54-1.83-0.99
				c-0.49-0.45-0.69-0.97-0.77-1.39C71.88,225.55,72.27,225.19,72.23,225.2z"/>
			<path id="XMLID_5589_" class="st4" d="M128.93,219.91c0,0,0.11-0.2,0.47-0.41c0.35-0.2,0.96-0.32,1.53-0.34
				c0.56-0.05,1.08-0.09,1.62-0.11c0.47-0.02,0.98-0.04,1.48-0.07c0.21,0.01,0.49-0.03,0.61-0.02l0.24-0.04l0.1,0.01l0.3-0.03
				c0.42-0.04,0.84-0.11,1.27-0.21c0.81-0.19,1.59-0.73,1.59-0.73s0.13,0.19,0.21,0.57c0.08,0.37,0.09,0.97-0.17,1.6
				c-0.23,0.64-0.74,1.3-1.46,1.79c-0.18,0.13-0.37,0.23-0.58,0.33l-0.36,0.16l-0.24,0.09c-0.51,0.16-0.9,0.21-1.36,0.24
				c-0.88,0.03-1.72-0.15-2.41-0.45c-0.68-0.29-1.27-0.71-1.64-1.12c-0.37-0.38-0.57-0.71-0.8-0.94
				C129.15,220.02,128.93,219.91,128.93,219.91z"/>
			<path id="XMLID_5588_" class="st11" d="M168.92,180.44l-2.47,0.49c-1.03-0.15-2.05-0.26-3.08-0.36
				c-0.73-0.06-1.46-0.11-2.19-0.13c-4.92-0.22-9.83,0.21-14.71,1.11c-0.72,0.13-1.45,0.28-2.17,0.43
				c-6.52,1.38-12.96,3.54-19.23,6.01c-0.68,0.28-1.36,0.54-2.03,0.82c-1.76,0.72-3.5,1.45-5.23,2.2
				c-4.33,1.87-8.68,3.88-12.94,6.07c-0.69,0.34-1.36,0.69-2.03,1.05c-5.02,2.65-9.92,5.57-14.48,8.81
				c-0.61,0.43-1.22,0.88-1.82,1.32c-5.94,4.42-11.27,9.44-15.56,15.22c-0.49,0.67-0.97,1.34-1.43,2.02
				c-2.03,2.97-3.77,6.14-5.2,9.53c-9.26-0.26-18.5-1.4-27.54-3.4c-1.35-0.3-2.77-0.65-3.83-1.53c-1.11-0.93-1.7-2.31-2.36-3.58
				c-2.88-5.6-7.64-9.97-11.7-14.79c-7.22-8.57-12.39-18.82-14.97-29.7c-0.25-1.08-0.49-2.25-0.05-3.28c0.3-0.7,0.88-1.25,1.43-1.77
				c0.08-0.07,0.16-0.14,0.24-0.21c2.87,8.46,7.33,16.39,13.11,23.24c4.06,4.83,8.82,9.2,11.7,14.79c0.67,1.28,1.25,2.65,2.36,3.57
				c1.07,0.88,2.47,1.24,3.84,1.53c9.04,2,18.28,3.14,27.54,3.4c0.59-1.41,1.24-2.77,1.93-4.1c0.39-0.72,0.78-1.44,1.2-2.14
				c3.92-6.72,9.2-12.5,15.29-17.56c0.56-0.46,1.13-0.92,1.7-1.37c4.41-3.48,9.21-6.6,14.21-9.44c0.63-0.36,1.27-0.72,1.92-1.07
				c5.61-3.09,11.45-5.83,17.22-8.33c0.28-0.12,0.55-0.24,0.83-0.36c0.67-0.29,1.34-0.59,2.02-0.9c5.9-2.62,12.08-5.5,18.32-7.64
				c0.73-0.25,1.45-0.49,2.17-0.71c5.29-1.66,10.61-2.69,15.8-2.48c0.89,0.04,1.78,0.11,2.67,0.22c2.31,0.3,4.6,0.87,6.83,1.78
				c0.71,0.29,1.73,0.92,2.81,1.68C168.52,174.15,167.8,177.46,168.92,180.44z"/>
			<path id="XMLID_5587_" class="st12" d="M169.03,170.9c-1.08-0.76-2.1-1.39-2.81-1.68c-2.24-0.9-4.52-1.47-6.83-1.78
				c-0.89-0.11-1.78-0.19-2.67-0.22c-5.18-0.21-10.5,0.82-15.8,2.48c-0.73,0.22-1.45,0.46-2.17,0.71
				c-6.24,2.13-12.42,5.02-18.32,7.64c-0.68,0.31-1.35,0.6-2.02,0.9c-0.28,0.12-0.55,0.24-0.83,0.36
				c-5.78,2.5-11.61,5.24-17.22,8.33c-0.65,0.35-1.28,0.71-1.92,1.07c-5,2.84-9.8,5.96-14.21,9.44c-0.57,0.46-1.14,0.91-1.7,1.37
				c-6.08,5.05-11.36,10.83-15.29,17.56c-0.41,0.7-0.81,1.42-1.2,2.14c-0.69,1.33-1.34,2.7-1.93,4.1c-9.26-0.26-18.5-1.4-27.54-3.4
				c-1.36-0.3-2.77-0.65-3.84-1.53c-1.11-0.93-1.7-2.3-2.36-3.57c-2.88-5.6-7.64-9.97-11.7-14.79
				c-5.77-6.85-10.24-14.78-13.11-23.24c2.86-2.62,5.88-5.06,9.02-7.33c0.59-0.43,1.2-0.87,1.81-1.28
				c5.5-3.81,11.36-7.11,17.45-9.94c0.66-0.3,1.33-0.61,2-0.91c6.51-2.88,13.27-5.24,20.14-7.11c0.09-0.02,0.18-0.04,0.26-0.07
				c0.63-0.17,1.27-0.34,1.9-0.5c9.63-2.47,19.48-4.03,29.4-4.92c0.79-0.08,1.58-0.15,2.37-0.2c7.99-0.65,16.03-0.89,24.04-0.85
				c1.7,0.01,3.4,0.03,5.11,0.07c0.76,0.02,1.54,0.04,2.3,0.08c4.65,0.19,9.28,0.6,13.84,1.49c4.63,0.9,9.16,2.28,13.5,4.11
				c0.78,0.32,1.55,0.66,2.31,1.01c5.05,2.35,9.82,5.33,14.14,8.83c1.2,0.97,2.39,2.02,3.16,3.36
				C169.76,165.13,169.48,167.98,169.03,170.9z"/>
			<path id="XMLID_5586_" class="st13" d="M40.26,201.49c-4.67-3.53-6.43-9.28-9.72-12.92c-1.12-1.24-2.17-2.4-3.15-3.56
				c-3.32-3.94-9.63-8.02-8.42-13.08c0.23-0.95,1.57-1.19,2.37-1.76c0.53-0.39,1.03-0.75,1.54-1.09c0.03-0.02,0.07-0.05,0.1-0.07
				c4.83-3.35,10.16-6.38,15.83-9.01c0.6-0.28,1.23-0.56,1.85-0.84c5.81-2.57,12.06-4.77,18.53-6.53c0,0,0.24-0.06,0.32-0.08
				c0.56-0.15,1.12-0.3,1.68-0.44c8.53-2.18,17.83-3.74,27.66-4.62c0.03,0,0.07-0.01,0.1-0.01c0.68-0.07,1.37-0.13,2.06-0.18
				c0.04,0,0.09-0.01,0.13-0.01c7.23-0.59,14.78-0.86,23.08-0.82c1.8,0.01,3.39,0.03,4.87,0.07c0.69,0.02,1.39,0.04,2.08,0.07
				c4.84,0.2,8.72,0.61,12.25,1.3c2.44,0.47,5.81,2.98,4.51,3.39c-0.76,0.23-1.6,0.51-2.5,0.82c-5.68,1.95-11.14,4.39-16.42,6.75
				c-0.92,0.41-2.82,1.26-2.85,1.27c-0.63,0.28-1.25,0.56-1.87,0.83l0.08-0.03l-0.83,0.36c-6.98,3.02-12.91,5.9-18.2,8.8
				c-0.7,0.39-1.39,0.77-2.06,1.16c-5.77,3.28-11.02,6.76-15.57,10.35c-0.66,0.53-1.28,1.03-1.89,1.52
				c-7.48,6.22-13.42,13.1-17.74,20.43c-0.1,0.17-0.19,0.33-0.29,0.49C51.91,203.57,44.96,205.03,40.26,201.49z"/>
			<path id="XMLID_5585_" class="st14" d="M70.97,223.48c-0.49,0.67-0.97,1.34-1.43,2.02c-1-2.13-2.2-4.24-3.51-6.28
				c-3.5-5.46-7.76-10.4-11.23-13.53c-2.84-2.57-7.5-5.63-12.45-8.87c-6.45-4.23-13.11-8.6-16.57-12.46
				c-1.39-1.54-2.81-3.65-4.31-5.9c-1.97-2.93-4.24-6.3-6.89-9.01c0.59-0.43,1.2-0.87,1.81-1.28c2.68,2.81,4.93,6.15,6.9,9.09
				c1.46,2.17,2.85,4.23,4.13,5.65c3.28,3.65,9.83,7.94,16.15,12.1c5.01,3.29,9.74,6.4,12.71,9.08c3.37,3.05,7.46,7.74,10.94,12.99
				C68.6,219.15,69.87,221.3,70.97,223.48z"/>
			<g id="XMLID_5583_">
				<path id="XMLID_5584_" class="st14" d="M88.35,206.94c-0.61,0.43-1.22,0.88-1.82,1.32c-0.39-0.91-0.74-1.76-1.08-2.57
					c-1.01-2.42-1.84-4.42-2.94-6.17c-1.7-2.75-4.03-4.91-8.67-7.21c-2.63-1.31-7.68-4.32-12.58-7.23
					c-4.23-2.52-8.23-4.91-10.41-6.04c-5.92-3.08-11.63-10.06-17.02-20.81c0.66-0.3,1.33-0.61,2-0.91
					c5.16,10.21,10.61,16.98,16.04,19.8c2.24,1.17,6.27,3.57,10.53,6.1c4.86,2.89,9.87,5.88,12.43,7.15
					c4.93,2.44,7.54,4.89,9.39,7.78c1.29,1.97,2.19,4.17,3.26,6.72C87.75,205.53,88.04,206.22,88.35,206.94z"/>
			</g>
			<g id="XMLID_5581_">
				<path id="XMLID_5582_" class="st14" d="M104.87,197.08c-0.69,0.34-1.36,0.69-2.03,1.05c-0.64-3.58-2.37-6.75-4.41-9.42
					c-2.27-2.96-4.93-5.28-6.95-6.81c-3.13-2.38-6.58-4.46-9.92-6.46c-3.47-2.09-7.05-4.24-10.34-6.77
					c-6.38-4.92-11.64-11.28-15.23-18.46c0.09-0.02,0.18-0.04,0.26-0.07c0.63-0.17,1.27-0.34,1.9-0.5
					c3.44,6.72,8.41,12.69,14.42,17.32c3.18,2.44,6.71,4.56,10.13,6.62c3.39,2.03,6.9,4.13,10.11,6.59c2.19,1.67,5.08,4.2,7.54,7.46
					C102.36,190.32,104.08,193.49,104.87,197.08z"/>
			</g>
			<g id="XMLID_5579_">
				<path id="XMLID_5580_" class="st14" d="M125.07,187.99c-0.68,0.28-1.36,0.54-2.03,0.82c-1.27-3.33-2.73-6.76-4.64-9.87
					c-1.01-1.68-2.17-3.25-3.49-4.68c-2-2.16-4.42-4.02-6.77-5.8l-0.44-0.34c-6.9-5.28-13.98-11.11-17.99-19.07
					c-0.28-0.53-0.53-1.07-0.78-1.62c-0.45-0.94-0.88-1.86-1.37-2.7c0.79-0.08,1.58-0.15,2.37-0.2c0.35,0.65,0.67,1.33,0.98,1.99
					c0.25,0.53,0.49,1.04,0.75,1.56c3.8,7.56,10.67,13.2,17.38,18.32l0.44,0.34c2.42,1.85,4.93,3.77,7.05,6.06
					c1.49,1.62,2.78,3.39,3.9,5.25C122.34,181.23,123.79,184.66,125.07,187.99z"/>
			</g>
			<g id="XMLID_5577_">
				<path id="XMLID_5578_" class="st14" d="M146.47,181.55c-0.72,0.13-1.45,0.28-2.17,0.43c-1.34-3.82-3.24-8.4-5.55-11.57
					c-0.06-0.09-0.14-0.18-0.2-0.26c-1.63-2.16-3.65-3.95-5.78-5.84c-1.14-1-2.31-2.04-3.41-3.13c-4.87-4.84-8.43-10.85-10.29-17.43
					c0.76,0.02,1.54,0.04,2.3,0.08c1.82,5.96,5.1,11.4,9.54,15.82c1.06,1.05,2.21,2.06,3.32,3.05c2.12,1.88,4.32,3.82,6.08,6.16
					c0.21,0.28,0.42,0.56,0.61,0.85C143.23,173.07,145.14,177.73,146.47,181.55z"/>
			</g>
			<path id="XMLID_5576_" class="st14" d="M163.36,180.57c-0.73-0.06-1.46-0.11-2.19-0.13c0.21-4.58-1.99-9.12-4.46-13.22
				c-0.4-0.66-0.81-1.32-1.22-1.96l-0.07-0.11c-2.98-4.71-6.33-9.97-6.73-15.72c0.78,0.32,1.55,0.66,2.31,1.01
				c0.67,4.74,3.51,9.21,6.27,13.55l0.08,0.12c0.69,1.08,1.37,2.19,2.02,3.34C161.7,171.49,163.59,175.93,163.36,180.57z"/>
			<path id="XMLID_5575_" class="st15" d="M163.9,185.93c0.17,0.71,0.21,1.28,0.18,1.77c-0.59-0.05-1.18-0.09-1.77-0.11
				c-4.92-0.22-9.84,0.21-14.71,1.11c-0.72,0.14-1.45,0.28-2.17,0.43c-6.52,1.37-12.95,3.55-19.23,6.02
				c-0.68,0.27-1.36,0.54-2.03,0.82c-1.75,0.72-3.5,1.45-5.23,2.2c-4.33,1.88-8.68,3.88-12.95,6.06c-0.69,0.35-1.36,0.7-2.03,1.06
				c-5.02,2.65-9.92,5.56-14.49,8.81c-0.61,0.43-1.21,0.87-1.81,1.32c-5.95,4.42-11.27,9.43-15.56,15.21
				c-0.49,0.66-0.97,1.34-1.43,2.03c-2.03,2.96-3.78,6.14-5.2,9.53c-4.22-0.12-8.45-0.43-12.64-0.9c-0.05-0.01-0.1-0.01-0.16-0.02
				c-4.95-0.57-9.87-1.4-14.75-2.47c-1.35-0.3-2.77-0.65-3.83-1.54c-1.11-0.92-1.7-2.3-2.36-3.58c-2.88-5.59-7.64-9.97-11.7-14.79
				c-3.55-4.2-6.6-8.83-9.09-13.72c0.34-1.16,0.68-1.74,1-3.26c2.02,3.46,4.35,6.74,6.94,9.82c4.06,4.82,8.81,9.2,11.7,14.79
				c0.65,1.28,1.25,2.66,2.36,3.58c1.06,0.89,2.48,1.23,3.83,1.53c5.65,1.25,11.39,2.16,17.16,2.73c0.26,0.03,0.52,0.05,0.79,0.07
				c3.19,0.3,6.4,0.51,9.6,0.59c1.43-3.39,3.18-6.56,5.2-9.53c0.46-0.69,0.94-1.36,1.44-2.03c4.29-5.77,9.62-10.79,15.55-15.21
				c0.6-0.45,1.21-0.89,1.82-1.32c4.57-3.25,9.45-6.16,14.49-8.81c0.67-0.36,1.34-0.71,2.03-1.05c4.27-2.19,8.62-4.19,12.94-6.07
				c1.73-0.74,3.48-1.48,5.24-2.2c0.67-0.28,1.35-0.54,2.03-0.82c6.27-2.47,12.7-4.65,19.23-6.02c0.72-0.15,1.44-0.3,2.16-0.43
				c4.88-0.9,9.79-1.34,14.71-1.11c0.74,0.03,1.47,0.07,2.19,0.14c0.24,0.02,0.49,0.04,0.73,0.07
				C164.39,182.95,163.23,183.14,163.9,185.93z"/>
		</g>
		<g id="XMLID_5521_">
			<g id="XMLID_5566_">
				<g id="XMLID_5567_" class="st0">
					<g id="XMLID_5572_">
						<path id="XMLID_5573_" class="st1" d="M278.86,206.75c-1.62,2.94,0.65,2.16-2.72,3.72c-3.37,1.55-0.93,1.77-4.34,3.27
							c-3.43,1.51-3.62,1.21-7.06,2.66c-3.46,1.43-3.41,3.01-6.89,4.41c-3.52,1.4-4,1.9-7.53,3.24c-3.54,1.32-3.35,0.97-6.93,2.24
							c-3.5,1.24-2.54,1.92-5.93,3.09c-0.06,0.04-0.85,1.5-0.92,1.52c-3.63,1.19-3.88,0.62-7.54,1.79
							c-3.65,1.13-3.67,1.11-7.35,2.21c-3.12,0.89-3.5,1.28-5.79,2.02c-0.42,0.11-0.89,0.27-1.48,0.43c-3.73,1-3.69,1.08-7.44,2.04
							c-3.77,0.94-4.17-0.09-7.95,0.79c-3.79,0.87-3.54,1.55-7.35,2.38c-3.84,0.81-4.17-0.17-8.01,0.6
							c-3.86,0.74-3.71,1.17-7.59,1.85c-3.88,0.68-5.25,4.49-8.36,2.38c-3.12-2.13,0.84-3.79,0.99-6.98
							c0.15-3.17,1.07-3.11,1.22-6.3c0.15-3.17-1.03-3.25-0.86-6.41c0.17-3.17,1.29-3.09,1.47-6.28c0.15-3.17-0.15-3.19,0.02-6.36
							c0.17-3.18-1.43-3.33-1.24-6.51c0.19-3.19,0.82-3.35,0.31-6.52c-0.53-3.36-0.86-3.73,1.45-6.15c2.26-2.37,3.37-1.21,6.79-1.9
							c3.41-0.7,3.82,0.83,7.25,0.07c3.39-0.77,3.12-1.72,6.47-2.51c3.37-0.83,3.29-1.05,6.64-1.92c3.33-0.89,3.37-0.75,6.68-1.68
							c3.29-0.94,3.43-0.56,6.7-1.55c3.26-1,3.24-1.05,6.47-2.09c3.24-1.05,3.03-1.62,6.22-2.72c3.2-1.11,3.2-1.09,6.37-2.24
							c3.16-1.15,3.64-0.04,6.78-1.26c3.12-1.2,2.76-2.03,5.84-3.3c3.09-1.26,3.12-1.2,6.19-2.53c3.04-1.32,2.91-1.58,5.94-2.94
							c3.01-1.37,3.3-0.81,6.28-2.22c2.97-1.43,2.89-1.56,5.84-3.03c2.95-1.49,3.01-4.81,5.98-3.51c3.01,1.3,5.06,3.34,5.79,6.43
							c0.73,3.09-0.09,3.28,0.63,6.37c0.72,3.09-0.74,3-0.02,6.09c0.72,3.1-0.78,3-0.04,6.09c0.72,3.09-0.89,3.47-0.17,6.56
							c0.72,3.09-0.92,3.04-0.19,6.13c0.74,3.11-1.54,0.29-0.82,3.4C279.38,204.72,280.5,203.77,278.86,206.75z"/>
					</g>
					<g id="XMLID_5570_">
						<path id="XMLID_5571_" class="st2" d="M128.72,181.64c0.13-3.15,4.17,0.74,7.62,0.42c3.43-0.32,3.35-0.87,6.75-1.23
							c3.4-0.39,3.48,0.11,6.86-0.32c3.38-0.45,3.15-1.68,6.5-2.17c3.34-0.51,3.43-0.04,6.76-0.59c3.32-0.57,3.33-0.53,6.63-1.14
							c3.29-0.63,3.23-0.89,6.49-1.56c3.26-0.69,3.16-1.07,6.4-1.79c3.23-0.74,3.2-0.84,6.4-1.63c3.19-0.8,3.21-0.74,6.39-1.58
							c3.16-0.86,3.43,0.02,6.57-0.88c3.14-0.92,2.92-1.6,6.03-2.55c3.1-0.97,3.18-0.73,6.26-1.74c3.07-1.02,3.14-0.82,6.19-1.88
							c3.04-1.08,2.78-1.77,5.79-2.89c3-1.13,3.06-1.07,6.24-1.44c3.33-0.42,3.35-0.31,6.69,0.05c3.36,0.34,3.3,0.9,6.67,1.19
							c3.38,0.27,3.46-0.71,6.84-0.49c3.39,0.2,3.34,0.95,6.76,1.11c3.43,0.14,3.45-0.42,6.88-0.33c3.44,0.07,4.85-2.05,5.99,1.07
							c1.08,2.96-1.98,1.28-4.9,2.75c-2.94,1.46-2.83,1.67-5.8,3.1c-2.98,1.41-3.04,1.29-6.05,2.66c-3.02,1.36-3.19,1.01-6.24,2.34
							c-3.06,1.31-3.03,1.37-6.11,2.64c-3.1,1.25-2.85,1.8-5.98,3.02c-3.14,1.21-3.14,1.18-6.31,2.35
							c-3.17,1.15-3.63,0.04-6.81,1.15c-3.2,1.09-2.87,1.94-6.11,3c-3.24,1.04-3.27,0.98-6.53,1.98c-3.27,0.98-3.18,1.26-6.48,2.2
							c-3.31,0.93-3.52,0.32-6.85,1.2c-3.34,0.86-3.29,1.02-6.66,1.84c-3.38,0.81-3.22,1.34-6.62,2.1
							c-3.42,0.75-3.34,1.02-6.78,1.72c-3.45,0.69-3.54,0.74-7.09,0.56c-3.72-0.2-3.68-0.6-7.23-1.65
							c-3.54-1.07-3.67-0.73-7.19-1.85c-3.51-1.13-5.73-0.72-9.22-1.93c-3.49-1.22-3.98-2.29-7.43-3.57
							c-3.44-1.3-2.63-0.85-6.3-1.36C129.33,184.87,128.58,184.95,128.72,181.64z"/>
					</g>
					<g id="XMLID_5568_">
						<path id="XMLID_5569_" class="st3" d="M171.74,195.55c2.13,2.59-0.29,3.62-0.48,6.79c-0.18,3.17,0.4,3.25,0.23,6.43
							c-0.17,3.17,0.07,3.18-0.1,6.36c-0.16,3.17,0.39,3.2,0.24,6.38c-0.16,3.17-1.81,3.03-1.98,6.2c-0.17,3.18,1.16,3.3,1,6.48
							c-0.15,3.18-1.73,3.04-1.9,6.22c-0.18,3.19,4.2,5.02,0.87,6.75c-3.48,1.78-5.05-2.24-9.07-3.33c-4.02-1.1-4.44-0.05-8.45-1.21
							c-4-1.18-4.03-1.12-8.01-2.36c-3.97-1.26-3.93-1.36-7.87-2.67c-3.94-1.33-4.1-1-8.01-2.38c-3.9-1.4-2.14-0.13-4.32-3.12
							c-2.07-2.87,0.39-3.18,0.89-6.32c0.52-3.14-0.14-3.25,0.39-6.39c0.53-3.13,1.12-3.02,1.65-6.16c0.52-3.13-0.93-3.39-0.39-6.53
							c0.54-3.13,1.09-3.04,1.63-6.17c0.54-3.14-1.32-3.13-0.78-6.26c0.55-3.13,0.26-3.18,0.81-6.33c0.54-3.13-2.15-5.32,0.97-6.7
							c3.21-1.45,3.87,1.27,7.28,2.59c3.41,1.31,3.38,1.37,6.82,2.63c3.44,1.24,3.1,2.09,6.58,3.29c3.49,1.18,3.75,0.51,7.26,1.65
							c3.52,1.11,3.25,2.09,6.96,2.42C168.16,194.17,169.54,192.83,171.74,195.55z"/>
					</g>
				</g>
			</g>
			<path id="XMLID_5565_" class="st4" d="M273.65,179.81c0,0-0.17,0.51-0.09,1.26c0.04,0.79,0.43,1.79,0.64,3.34
				c0.08,0.75,0.13,1.87-0.65,2.98c-0.42,0.55-0.81,0.9-1.54,1.24c-0.6,0.28-1.19,0.39-1.7,0.47c-1.03,0.13-1.89,0.17-2.33,0.34
				c-0.11,0.04-0.19,0.08-0.23,0.12l-0.04,0.03l-0.01,0.01c0.19-0.13,0.03-0.02,0.07-0.04l-0.07,0.06
				c-0.11,0.08-0.19,0.15-0.14,0.12c0,0-0.17,0.24-0.27,0.5c-0.26,0.57-0.41,1.49-0.8,2.53c-0.36,1.09-1.2,2.23-2.1,2.9
				c-0.91,0.7-1.9,1.12-2.85,1.33c-0.98,0.23-1.85,0.21-2.66,0.13c-1.59-0.18-2.73-0.72-3.5-1.11c-0.76-0.41-1.16-0.7-1.16-0.7
				s0.49-0.01,1.34-0.03c0.83-0.02,2.01-0.07,3.25-0.33c0.59-0.14,1.25-0.35,1.81-0.65c0.58-0.29,1.12-0.69,1.53-1.14
				c0.43-0.48,0.65-0.89,0.83-1.56c0.2-0.7,0.33-1.63,0.78-2.79c0.26-0.59,0.56-1.19,1.24-1.83c0.21-0.2,0.31-0.27,0.39-0.33
				l0.07-0.05l0.13-0.1l0.07-0.04l0.26-0.15c0.35-0.19,0.72-0.32,1.05-0.4c1.36-0.31,2.34-0.14,3.07-0.14
				c0.36,0.01,0.64-0.01,0.83-0.04c0.07,0.04,0.37-0.1,0.47-0.16c0.26-0.15,0.53-0.63,0.66-1.25c0.24-1.24,0.39-2.59,0.8-3.4
				c0.18-0.41,0.43-0.72,0.58-0.87C273.56,179.9,273.65,179.81,273.65,179.81z"/>
			<path id="XMLID_5564_" class="st4" d="M245.63,201.82c0,0,0.15,0.11,0.35,0.31c0.2,0.16,0.41,0.58,0.51,1.01
				c0.27,0.89-0.06,2.12-0.89,2.92c-0.83,0.81-2.08,1.1-2.97,0.8c-0.9-0.23-1.3-0.89-1.3-0.89s0.43-0.64,0.72-1.19
				c0.31-0.6,0.55-1.09,0.9-1.42c0.35-0.34,0.85-0.56,1.46-0.85c0.29-0.16,0.58-0.24,0.82-0.43
				C245.46,201.9,245.63,201.82,245.63,201.82z"/>
			<path id="XMLID_5563_" class="st4" d="M213.17,202.77c0,0-0.28,0.23-0.27,0.67c-0.02,0.22,0.03,0.49,0.02,0.85
				c0,0.35,0.02,0.87-0.34,1.49c-0.32,0.58-0.85,1.09-1.5,1.41c-0.67,0.33-1.38,0.5-2.16,0.48c-0.73,0-1.42-0.14-2.03-0.31
				c-0.65-0.19-1.05-0.32-1.2-0.32c-0.07-0.01,0.03,0.01,0.2-0.08c0.19-0.1,0.27-0.3,0.06-0.03c-0.18,0.25-0.59,0.7-1.01,0.96
				c-0.4,0.26-0.81,0.43-1.18,0.53c-0.75,0.2-1.37,0.2-1.91,0.18c-0.64-0.04-1-0.14-1.47-0.22c-1.74-0.31-2.92-0.86-2.92-0.86
				s1.08-0.72,2.75-1.3c0.39-0.13,0.82-0.28,1.27-0.43c0.43-0.15,0.83-0.32,1.09-0.49c0.12-0.09,0.21-0.16,0.25-0.22
				c0.02-0.07-0.02-0.03,0.11-0.24c0.11-0.19,0.54-0.86,1.24-1.2c0.68-0.35,1.37-0.39,1.86-0.35c0.99,0.11,1.65,0.45,2.05,0.62
				c0.45,0.19,0.83,0.35,1.17,0.45c0.28,0.1,0.62,0.16,0.87,0.17c0.28,0,0.54-0.02,0.75-0.1c0.41-0.09,0.87-1,1.37-1.37
				c0.24-0.22,0.51-0.28,0.68-0.3C213.1,202.74,213.17,202.77,213.17,202.77z"/>
			<path id="XMLID_5562_" class="st4" d="M182.03,218.75c0,0,0.83-0.21,1.63-0.39c0.85-0.21,1.7-0.33,2.53-0.37
				c0.82-0.02,1.68,0.06,2.51,0.22c0.33,0.09,0.65,0.18,0.9,0.16c0.26-0.02,0.44-0.19,0.44-0.19c-0.03,0.01,0.19,0.13,0.23,0.54
				c0.03,0.41-0.19,0.99-0.61,1.43c-0.66,0.88-1.97,1.57-3.37,1.6c-1.39,0.05-2.73-0.58-3.43-1.39
				C182.11,219.59,182.03,218.75,182.03,218.75z"/>
			<path id="XMLID_5561_" class="st4" d="M188.16,224.8c0,0,0.02,0.48,0.47,0.92c0.45,0.48,1.18,0.67,2.18,0.55
				c0.49-0.06,1.12-0.19,1.7-0.34c0.6-0.16,1.2-0.36,1.8-0.61c0.6-0.25,1.19-0.56,1.75-0.9c0.54-0.26,1.17-1.05,2.97-1.28
				c0.94-0.09,1.93,0.43,2.3,0.72l0.45,0.33c-0.08-0.04,0.12,0.08,0.17,0.11l0.1,0.06c0.34,0.19,0.89,0.34,1.5,0.39
				c0.62,0.06,1.31,0.05,1.99,0.05c0.69-0.01,1.28,0.01,1.77-0.05c0.48-0.05,0.95-0.18,1.26-0.33c0.35-0.18,0.64-0.43,0.83-0.67
				c0.39-0.5,0.4-0.98,0.4-0.98c-0.04,0,0.35,0.33,0.32,1.2c-0.03,0.42-0.16,0.95-0.51,1.46c-0.38,0.56-0.89,1.01-1.56,1.35
				c-0.65,0.36-1.37,0.61-2.06,0.81c-0.7,0.2-1.47,0.41-2.38,0.5c-0.9,0.08-1.96,0.06-3.09-0.4l-0.44-0.21
				c-0.12-0.07-0.1-0.04-0.35-0.19l-0.54-0.36c-0.29-0.17-0.07-0.02,0.04-0.04c0.14-0.1-0.53,0.24-1.39,0.71
				c-0.83,0.42-1.71,0.72-2.57,0.9c-0.86,0.19-1.71,0.25-2.5,0.23c-0.82-0.03-1.51-0.14-2.24-0.34c-0.71-0.18-1.37-0.54-1.83-0.99
				c-0.49-0.45-0.69-0.97-0.77-1.39C187.81,225.15,188.2,224.79,188.16,224.8z"/>
			<path id="XMLID_5560_" class="st4" d="M247.06,216.14c0,0,0.11-0.21,0.47-0.41c0.35-0.2,0.96-0.32,1.53-0.34
				c0.56-0.05,1.08-0.09,1.62-0.11c0.47-0.02,0.98-0.04,1.48-0.06c0.21,0,0.49-0.04,0.61-0.02l0.24-0.03l0.1,0l0.3-0.03
				c0.42-0.04,0.84-0.11,1.27-0.21c0.82-0.19,1.59-0.72,1.59-0.72c-0.02,0,0.13,0.19,0.22,0.57c0.08,0.37,0.09,0.97-0.17,1.59
				c-0.23,0.65-0.74,1.31-1.46,1.79c-0.18,0.13-0.37,0.23-0.58,0.33l-0.36,0.16l-0.24,0.09c-0.51,0.16-0.9,0.21-1.36,0.24
				c-0.88,0.04-1.72-0.15-2.41-0.45c-0.68-0.29-1.27-0.71-1.64-1.12c-0.37-0.37-0.57-0.71-0.8-0.93
				C247.27,216.25,247.06,216.14,247.06,216.14z"/>
			<path id="XMLID_5559_" class="st4" d="M267.26,208.14c0,0,0.66-0.49,1.43-0.84c0.79-0.4,1.7-0.66,2.61-0.74
				c0.47-0.03,0.8-0.02,1.18,0.02c0.36,0.04,0.7,0.1,1.04,0.16c0.33,0.04,0.68,0.05,0.96-0.02c0.29-0.05,0.49-0.13,0.49-0.13
				s0.11,0.17,0.17,0.51c0.06,0.33,0,0.87-0.31,1.37c-0.29,0.53-0.8,1-1.37,1.31c-0.56,0.32-1.28,0.5-1.86,0.54
				c-1.2,0.09-2.4-0.27-3.18-0.88C267.63,208.87,267.26,208.14,267.26,208.14z"/>
			<g id="XMLID_5552_" class="st0">
				<g id="XMLID_5557_">
					<path id="XMLID_5558_" class="st16" d="M171.06,184.49c1.32-0.31,2.59-1.15,3.91-1.47c1.32-0.32,2.98,0.74,4.3,0.41
						c1.31-0.34,2.65-0.64,3.96-0.99c1.31-0.35,2.11-2.55,3.42-2.91c1.31-0.36,2.7-0.38,4-0.75c1.3-0.37,2.66-0.56,3.96-0.94
						c1.3-0.39,2.67-0.54,3.96-0.94c1.3-0.4,2.55-0.93,3.84-1.34c1.29-0.42,2.91,0.14,4.19-0.29c1.29-0.43,2.08-2.29,3.36-2.73
						c1.28-0.44,2.76-0.33,4.03-0.78c1.28-0.45,2.58-0.85,3.85-1.32c1.27-0.47,2.96,0.15,4.23-0.34c1.27-0.48,1.89-2.59,3.15-3.09
						c1.26-0.5,2.82-0.25,4.08-0.75c1.26-0.51,2.71-0.57,3.96-1.09c1.25-0.52,2.17-1.81,3.41-2.35c1.25-0.54,2.2-1.7,3.44-2.25
						c1.24-0.55,2.65-0.7,3.88-1.26c1.23-0.56,2.35-1.36,3.57-1.94c1.23-0.58,2.7-0.63,3.92-1.22c1.22-0.59,2.64-0.76,3.86-1.36
						c1.21-0.6,2.36-1.01,3.56-1.63c1.21-0.62,1.89-2.55,3.09-3.18c1.2-0.63,3.17,0.17,4.36-0.47c1.19-0.64,2.26-1.52,3.44-2.18
						c1.19-0.65,2.58-0.96,3.75-1.63c1.18-0.67,1.65-1.96,2.82-2.64c0.38,1.37,0.45,2.85,0.83,4.22c0.39,1.37,1.21,2.63,1.59,4.01
						c0.39,1.37,0.97,6.93,1.35,8.3c0.39,1.38-0.39,3.44,0,4.81c-1.15,0.65-0.16,0.24-1.33,0.88c-1.16,0.64-2.62,0.72-3.8,1.35
						c-1.17,0.63-1.53,2.75-2.71,3.37c-1.17,0.62-2.99,0.03-4.17,0.63c-1.18,0.6-1.76,2.39-2.95,2.98
						c-1.19,0.59-3.11-0.29-4.31,0.29c-1.19,0.58-2.25,1.43-3.45,2c-1.2,0.57-2.34,1.25-3.55,1.81c-1.21,0.56-2.42,1.08-3.63,1.63
						c-1.21,0.54-2.66,0.55-3.88,1.08c-1.22,0.53-1.76,2.6-2.98,3.12c-1.23,0.52-2.46,1.03-3.69,1.54c-1.23,0.51-2.47,1-3.7,1.5
						c-1.23,0.5-2.43,1.09-3.67,1.57c-1.24,0.48-2.55,0.79-3.79,1.26c-1.24,0.47-2.4,1.19-3.65,1.64c-1.25,0.46-2.71,0.35-3.96,0.8
						c-1.25,0.45-2.6,0.63-3.86,1.06c-1.25,0.43-2.61,0.57-3.87,1c-1.26,0.42-2.58,0.64-3.85,1.05c-1.27,0.41-2.2,1.85-3.46,2.25
						c-1.27,0.4-2.67,0.37-3.95,0.75c-1.27,0.38-2.69,0.28-3.97,0.65c-1.28,0.37-2.4,1.26-3.68,1.63c-1.28,0.36-2.35,1.48-3.64,1.83
						c-1.28,0.35-2.63,0.48-3.92,0.81c-1.29,0.34-2.84-0.34-4.13-0.02c-1.29,0.32-2.34,1.62-3.63,1.93
						c-1.29,0.31-2.84-0.45-4.14-0.16c-1.29,0.3-2.52,0.98-3.82,1.27c0.01-1.43-0.28-2.82-0.27-4.25c0.01-1.43-0.5-2.86-0.49-4.29
						c0.01-1.43,0.68-2.85,0.69-4.28c0.01-1.43,0.4-2.85,0.41-4.28C171.3,187.41,171.04,185.91,171.06,184.49z"/>
				</g>
				<g id="XMLID_5555_">
					<path id="XMLID_5556_" class="st17" d="M121.63,169.67c1.32-0.14,2.8-0.23,4.12-0.39c1.32-0.16,2.76,0.61,4.07,0.44
						c1.31-0.17,2.45-1.66,3.76-1.85c1.31-0.19,2.65-0.19,3.96-0.38c1.31-0.2,2.82,0.84,4.13,0.63c1.31-0.21,2.44-1.46,3.75-1.68
						c1.31-0.22,2.83,0.7,4.13,0.46c1.3-0.24,2.59-0.62,3.89-0.87c1.3-0.25,2.71-0.04,4.01-0.3c1.3-0.27,2.16-2.57,3.45-2.85
						c1.3-0.28,2.85,0.59,4.14,0.29c1.29-0.29,2.31-1.75,3.59-2.06c1.29-0.31,2.87,0.57,4.15,0.25c1.29-0.32,1.31-0.48,2.59-0.81
						c1.28-0.34,0.89-1.12,2.17-1.46c1.28-0.35,5.38-0.87,6.65-1.23c1.27-0.36,2.74-0.1,4.01-0.47c1.27-0.38,2.22-1.79,3.49-2.18
						c1.27-0.39,2.82,0.12,4.08-0.29c1.26-0.4,4.36-2.24,5.62-2.66c1.26-0.42,0.75-0.7,2-1.13c1.25-0.43,2.16-0.36,3.4-0.8
						c1.25-0.45,2.56-0.71,3.8-1.17c1.24-0.46,2.5-0.88,3.73-1.35c1.24-0.47,2.95,0.22,4.17-0.26c1.23-0.49,2.39-1.2,3.61-1.7
						c1.23-0.5,1.77-2.62,2.98-3.13c1.22-0.51,2.74-0.3,3.96-0.83c1.31,0.12,2.66-0.19,3.98-0.09c1.32,0.1,2.58,0.98,3.9,1.08
						c1.32,0.09,2.63,0.48,3.95,0.56c1.32,0.08,2.74-1.85,4.07-1.79c1.32,0.06,2.55,2.31,3.87,2.35c1.32,0.04,2.7-1.97,4.03-1.94
						c1.32,0.03,2.61,1.93,3.93,1.94c1.32,0.02,2.66-0.71,3.98-0.7c1.32,0,2.65,0.83,3.98,0.82c1.32-0.01,2.61-1.97,3.94-2
						c1.32-0.02,2.63,0.06,3.96,0.02c1.32-0.04,2.38,1.02,3.7,0.96c-1.17,0.68-0.44,2.5-1.62,3.17c-1.18,0.67-3.02,1.19-4.2,1.85
						c-1.18,0.65-2.91,1.58-4.11,2.23c-1.19,0.64-2.56,0.33-3.76,0.96c-1.2,0.63-2.23,1.59-3.43,2.21c-1.21,0.62-3.9,1.64-5.11,2.24
						c-1.21,0.6-2.26,1.51-3.48,2.1c-1.22,0.59-0.94,0.91-2.16,1.48c-1.23,0.58-3.75,0.03-4.98,0.59c-1.23,0.56-1.95,0.59-3.19,1.14
						c-1.24,0.55-2.25,1.6-3.49,2.14c-1.24,0.53-2.38,1.32-3.63,1.83c-1.25,0.52-2.18,1.84-3.43,2.35
						c-1.25,0.51-2.95-0.05-4.21,0.44c-1.26,0.49-2.47,1.12-3.74,1.6c-1.27,0.48-2.26,1.69-3.54,2.16
						c-1.27,0.47-2.82,0.22-4.09,0.67c-1.28,0.45-1.96,1.42-3.25,1.86c-1.28,0.44-2.49,1.38-3.77,1.81
						c-1.29,0.43-3.02,0.53-4.31,0.94c-1.29,0.42-3.16,0.43-4.45,0.83c-1.29,0.4-2.28,0.39-3.58,0.78c-1.3,0.38-2.4,1.43-3.71,1.8
						c-1.3,0.37-3.27-0.19-4.58,0.17c-1.3,0.36-1.18,2.31-2.49,2.65c-1.31,0.35-3.26,0.64-4.58,0.97c-1.31,0.33-2.76,0.18-4.08,0.5
						c-1.31,0.32-2.87,0.37-4.19,0.68c-1.29-0.29-2.66-0.95-3.94-1.25c-1.28-0.3-2.61-0.45-3.89-0.77
						c-1.28-0.32-2.93-0.28-4.21-0.61c-1.28-0.33-2.37-0.39-3.64-0.73c-1.28-0.34-2.33-1.49-3.6-1.84
						c-1.27-0.35-2.52-0.81-3.78-1.18c-1.27-0.37-3.24-0.14-4.5-0.53c-1.27-0.38-2.07-0.6-3.33-1c-1.26-0.39-2.18-1.86-3.43-2.26
						c-1.25-0.4-4.15,0.6-5.4,0.19c-1.25-0.42-1.01-1.83-2.26-2.26c-1.25-0.43-2.82,0.03-4.06-0.42
						C123.86,172.13,122.87,170.12,121.63,169.67z"/>
				</g>
				<g id="XMLID_5553_">
					<path id="XMLID_5554_" class="st18" d="M171.4,184.36c0.28,0.35,0.43,1.6,0.43,2.05c-0.01,1.34,0.32,2.34,0.31,3.68
						c-0.01,1.34-0.67,2.51-0.68,3.85c-0.01,1.34-0.01,2.67-0.02,4.01c-0.01,1.34-0.39,2.67-0.4,4.01c-0.01,1.34-0.09,2.63-0.1,3.97
						c-1.36-0.29-2.78-0.14-4.13-0.45c-1.35-0.3-2.69-0.72-4.04-1.04c-1.35-0.32-2.7-0.66-4.05-0.99c-1.35-0.33-2.71-0.63-4.05-0.97
						c-1.35-0.34-2.69-0.68-4.04-1.04c-1.34-0.36-2.51-1.33-3.85-1.7c-1.34-0.37-2.72-0.58-4.05-0.96c-1.34-0.39-2.57-1.09-3.9-1.49
						c-1.33-0.4-2.62-0.89-3.95-1.3c-1.33-0.41-2.76-0.48-4.08-0.9c-1.32-0.43-2.83-0.28-4.15-0.72c-1.31-0.44-2.52-1.21-3.83-1.67
						c-1.31-0.45-1.4-0.47-2.71-0.94c0.19-1.41-0.32-3.31-0.13-4.72c0.19-1.42,0.24-2.85,0.43-4.26c0.19-1.42,0.47-2.82,0.67-4.23
						c0.19-1.42,0.31-2.84,0.51-4.25c0.2-1.42-0.16-3.19,0.03-4.61c1.31,0.48,2.81,1.31,4.12,1.78c1.31,0.47,2.65,0.87,3.97,1.32
						c1.32,0.45,2.73,0.62,4.06,1.06c1.32,0.44,2.57,1.11,3.9,1.54c1.33,0.43,2.57,1.12,3.91,1.53c1.33,0.41,2.71,0.67,4.05,1.06
						c1.34,0.4,2.72,0.63,4.06,1.02c1.34,0.39,2.6,1.07,3.95,1.43c1.34,0.37,2.81,0.3,4.16,0.65c1.35,0.35,2.68,0.77,4.04,1.11
						c1.35,0.34,2.6,1.09,3.96,1.42c1.35,0.33,2.8,0.3,4.16,0.61C170.37,184.3,171.15,184.04,171.4,184.36z"/>
				</g>
			</g>
			<path id="XMLID_5551_" class="st19" d="M238.24,162.57c-4.61,1.96-9.27,3.81-13.99,5.58c-2.29,0.85-4.57,1.68-6.87,2.49
				c-13.67-3.19-27.05-7.01-40.14-11.48c8.21-2.04,16.24-4.34,24.14-6.9c7.54,2.49,15.19,4.79,22.93,6.86
				C228.92,160.34,233.56,161.49,238.24,162.57z"/>
			<path id="XMLID_5550_" class="st19" d="M238.11,163.89v1.2c-0.04,3.62-0.08,7.88-0.1,12.05v0.36c-0.02,2.53-0.37,6.16-0.37,8.42
				c-0.02,0.7-16.16,7.08-20.59,7.08c0.02-2.57,0.04-6.18,0.05-8.74c0.08-0.02,0.15-0.06,0.23-0.07c-0.08,0.02-0.15,0.04-0.23,0.06
				c0.02-1.17,0.02-2.32,0.04-3.47v-1.58c0.02-2.43,0.06-4.87,0.08-7.28c0-0.45,0.29-1,0-1.36c-0.02-0.02-0.04-0.04-0.05-0.04
				c1.16-0.42,2.3-0.85,3.44-1.28c2.17-0.81,4.32-1.64,6.47-2.51c3.64-1.38,7.23-2.83,10.8-4.34c0.09,0.04,0.17,0.09,0.25,0.17
				C238.4,162.89,238.11,163.44,238.11,163.89z"/>
			<path id="XMLID_5549_" class="st20" d="M209.24,167.84c2.67,0.46,5.33,1.03,7.96,1.7c0.28,0.07,0.58,0.15,0.8,0.35
				c0.35,0.33,0.39,0.86,0.41,1.34c0.1,2.77-0.8,5.62-0.35,8.36c0.02,0.11,1.2,0.14,1.28,0.23c0.15,0.15,0.43,0.08,0.56-0.09
				c0.14-0.17,0.17-0.39,0.2-0.6c0.21-1.27,0.76-2.5,1.57-3.51c0.21-0.26,0.45-0.52,0.77-0.64c1.01-0.39,1.92,0.78,2.97,1.04
				c1.72,0.43,3.51-1.64,5.08-0.85c0.28,0.14,0.56,0.36,0.86,0.28c0.19-0.05,0.32-0.21,0.44-0.35c0.55-0.66,1.19-1.31,2.02-1.55
				c0.83-0.24,3.03,0.12,3.34,0.93c0.46-1-0.04-1.99-0.01-3.09c0.06-1.79-0.5-3.78-0.44-5.57c0.02-0.46,0.03-0.93-0.11-1.36
				c-0.37-1.18-1.7-1.77-2.89-2.15c-3.59-1.14-7.36-2.22-10.71-2.7c0.16,0.66,0.47,2.05,1.15,1.94c-0.02,0.62-0.69,1.02-1.3,1.17
				c-1.52,0.36-3.26-0.09-4.6,0.71c-0.44,0.27-0.81,0.66-1.04,1.13c-0.09,0.17-0.15,0.35-0.25,0.51c-0.45,0.77-1.43,1.06-2.33,1.11
				c-0.9,0.05-1.82-0.07-2.68,0.17c-0.12,0.03-0.25,0.08-0.33,0.18c-0.1,0.13-0.09,0.3-0.14,0.46c-0.11,0.43-0.61,0.68-1.06,0.67
				c-0.45-0.01-0.87-0.22-1.27-0.42L209.24,167.84z"/>
			<g id="XMLID_5545_">
				<path id="XMLID_5548_" class="st18" d="M149.52,171.56c0,0.82-1.22,1.48-2.72,1.48c-1.5,0-4.25,0.82-4.25,0
					c0-0.81,1.24-2.96,2.75-2.96C146.79,170.07,149.52,170.74,149.52,171.56z"/>
				<path id="XMLID_5547_" class="st18" d="M151.63,173.5c0,0.5-0.74,0.9-1.66,0.9c-0.92,0-1.66-0.4-1.66-0.9
					c0-0.5,0.74-0.9,1.66-0.9C150.89,172.6,151.63,173,151.63,173.5z"/>
				<path id="XMLID_5546_" class="st18" d="M148.01,174.4c0,0.37-0.55,0.66-1.22,0.66c-0.67,0-1.22-0.3-1.22-0.66
					c0-0.36,0.55-0.66,1.22-0.66C147.47,173.74,148.01,174.04,148.01,174.4z"/>
			</g>
			<g id="XMLID_5541_">
				<path id="XMLID_5544_" class="st18" d="M182.44,164.22c0,0.82-4.41,2.33-5.92,2.33c-1.5,0-1.22-0.66-1.22-1.48
					c0-0.82,1.22-2.08,2.72-2.08C179.53,163,182.44,163.41,182.44,164.22z"/>
				<path id="XMLID_5543_" class="st18" d="M182.87,167.02c0,0.5-0.74,0.9-1.66,0.9s-1.66-0.41-1.66-0.9c0-0.5,0.74-0.9,1.66-0.9
					S182.87,166.53,182.87,167.02z"/>
				<ellipse id="XMLID_5542_" class="st18" cx="178.03" cy="167.93" rx="1.22" ry="0.66"/>
			</g>
			<g id="XMLID_5530_">
				<path id="XMLID_5540_" class="st18" d="M238.58,156.67c0,0.61-0.9,1.1-2.02,1.1c-1.11,0-2.78,0.28-2.78-0.32
					c0-0.61,1.67-1.87,2.78-1.87C237.68,155.57,238.58,156.06,238.58,156.67z"/>
				<path id="XMLID_5539_" class="st18" d="M240.16,158.11c0,0.37-0.55,0.67-1.23,0.67s-1.23-0.3-1.23-0.67
					c0-0.37,0.55-0.67,1.23-0.67S240.16,157.74,240.16,158.11z"/>
				<path id="XMLID_5538_" class="st18" d="M260.82,148.1c0,0.37-0.55,0.67-1.23,0.67c-0.68,0-1.23-0.3-1.23-0.67
					c0-0.37,0.55-0.67,1.23-0.67C260.26,147.43,260.82,147.73,260.82,148.1z"/>
				<path id="XMLID_5537_" class="st18" d="M197.48,172.6c0,0.37-0.55,0.67-1.23,0.67c-0.68,0-1.23-0.3-1.23-0.67
					s0.55-0.67,1.23-0.67C196.93,171.93,197.48,172.23,197.48,172.6z"/>
				<path id="XMLID_5536_" class="st18" d="M198.71,170.92c0,0.37-0.55,0.67-1.23,0.67c-0.68,0-1.23-0.3-1.23-0.67
					s0.55-0.67,1.23-0.67C198.16,170.25,198.71,170.55,198.71,170.92z"/>
				<path id="XMLID_5535_" class="st18" d="M200.23,173.03c0,0.37-0.55,0.67-1.23,0.67c-0.68,0-1.23-0.3-1.23-0.67
					c0-0.37,0.55-0.67,1.23-0.67C199.68,172.36,200.23,172.66,200.23,173.03z"/>
				<path id="XMLID_5534_" class="st18" d="M176.54,179.68c0,0.37-0.55,0.67-1.23,0.67c-0.68,0-1.23-0.3-1.23-0.67
					c0-0.37,0.55-0.67,1.23-0.67C175.98,179.01,176.54,179.31,176.54,179.68z"/>
				<path id="XMLID_5533_" class="st18" d="M173.85,177.69c0,0.37-0.55,0.67-1.23,0.67c-0.68,0-1.23-0.3-1.23-0.67
					c0-0.37,0.55-0.67,1.23-0.67C173.3,177.02,173.85,177.32,173.85,177.69z"/>
				<path id="XMLID_5532_" class="st18" d="M237.47,158.78c0,0.27-0.4,0.49-0.91,0.49c-0.5,0-0.91-0.22-0.91-0.49
					c0-0.27,0.41-0.49,0.91-0.49C237.06,158.29,237.47,158.51,237.47,158.78z"/>
				<path id="XMLID_5531_" class="st18" d="M221.61,153.86c0,0.27-0.4,0.49-0.91,0.49c-0.5,0-0.9-0.22-0.9-0.49
					c0-0.27,0.4-0.49,0.9-0.49C221.2,153.37,221.61,153.59,221.61,153.86z"/>
			</g>
			<path id="XMLID_5529_" class="st17" d="M183.41,190.2c-0.76,0.38-1.56,0.69-2.37,0.93c-1.15,0.34-2.42,0.6-3.16,1.52
				c-0.05,0.07-0.11,0.16-0.09,0.24c0.01,0.09,0.09,0.15,0.17,0.2c0.81,0.52,1.9,0.59,2.77,0.18c0.43-0.21,0.81-0.53,1.27-0.7
				c0.36-0.13,0.75-0.15,1.13-0.18c1.32-0.12,2.62-0.43,3.84-0.9c0.39-0.16,0.83-0.41,0.84-0.82c0.01-0.52-0.65-0.75-1.17-0.78
				c-0.68-0.03-1.36,0.04-2.02,0.22L183.41,190.2z"/>
			<path id="XMLID_5528_" class="st17" d="M201.41,191.32c-1.87-0.02-3.74,0.76-5.04,2.09c-0.08,0.09-0.16,0.18-0.19,0.29
				c-0.1,0.39,0.46,0.6,0.87,0.58c0.9-0.05,1.77-0.32,2.64-0.59c1.62-0.5,3.24-1.01,4.86-1.52c0.19-0.06,0.38-0.12,0.51-0.27
				c0.34-0.39-0.02-1.01,0.12-1.5c-0.77-0.05-1.56,0.03-2.3,0.24L201.41,191.32z"/>
			<path id="XMLID_5527_" class="st17" d="M252.4,165.08c-1.4,0.87-2.76,0.8-4.35,1.22c-0.28,0.07-0.56,0.14-0.8,0.3
				c-0.48,0.32-0.65,0.94-0.79,1.5c-0.03,0.12-0.05,0.26,0.02,0.36c0.08,0.11,0.25,0.12,0.39,0.12c0.81-0.04,1.6-0.18,2.4-0.32
				c2.43-0.43,4.93-0.88,7.09-2.08c0.22-0.12,0.46-0.28,0.53-0.52c0.08-0.26-0.07-0.54-0.29-0.7c-0.22-0.16-0.49-0.23-0.75-0.28
				c-0.75-0.14-1.69-0.14-2.11,0.5L252.4,165.08z"/>
			<path id="XMLID_5526_" class="st17" d="M273.38,162.35c-1.63,1.05-3.4,1.86-5.25,2.42c-0.32,0.1-0.65,0.19-0.9,0.4
				c-0.25,0.21-0.4,0.59-0.25,0.88c0.19,0.38,0.73,0.4,1.15,0.33c1-0.19,1.93-0.65,2.83-1.11c1.33-0.67,2.67-1.35,4-2.03
				c0.21-0.11,0.45-0.35,0.3-0.52c-0.05-0.06-0.13-0.09-0.21-0.11c-0.21-0.06-0.42-0.13-0.63-0.19L273.38,162.35z"/>
			<path id="XMLID_5525_" class="st21" d="M126.92,178.69c3.22,0.09,6.43,0.52,9.55,1.29c0.07,0.02,0.13,0.03,0.19,0.07
				c0.09,0.06,0.14,0.16,0.17,0.26c0.14,0.47-0.12,0.99-0.51,1.29c-0.39,0.3-0.89,0.42-1.39,0.49c-1.59,0.24-3.21,0.06-4.82-0.13
				c-1.02-0.12-2.08-0.26-2.95-0.8c-0.43-0.26-0.81-0.64-0.92-1.13L126.92,178.69z"/>
			<path id="XMLID_5524_" class="st21" d="M145.67,191.22c1.53,0.05,3.06,0.09,4.59,0.14c0.28,0.01,0.57,0.02,0.83,0.12
				c0.19,0.07,0.35,0.19,0.51,0.31c1.02,0.73,2.04,1.46,3.06,2.19c-0.84,0.71-2.02,0.81-3.12,0.86c-1.6,0.06-3.21,0.05-4.8-0.17
				c-0.3-0.04-0.62-0.09-0.88-0.25c-0.62-0.35-0.87-1.16-1.5-1.49c-0.21-0.11-0.46-0.17-0.58-0.37c-0.22-0.35,0.14-0.78,0.46-1.04
				L145.67,191.22z"/>
			<path id="XMLID_5523_" class="st22" d="M279.93,173.56c-0.08,0.05-0.18,0.11-0.31,0.18c-1.16,0.64-2.63,0.72-3.8,1.34
				c-1.17,0.63-1.53,2.76-2.71,3.37c-1.18,0.62-2.99,0.03-4.17,0.63c-1.18,0.61-1.76,2.4-2.95,2.99c-1.19,0.59-3.11-0.29-4.31,0.29
				c-1.2,0.58-2.25,1.43-3.45,2c-1.2,0.56-2.34,1.24-3.55,1.8c-1.21,0.56-2.42,1.09-3.63,1.63c-1.21,0.54-2.66,0.54-3.88,1.08
				c-1.22,0.53-1.76,2.6-2.99,3.12c-1.22,0.52-2.45,1.03-3.69,1.54c-1.23,0.51-2.47,1-3.7,1.49c-1.23,0.5-2.43,1.09-3.68,1.57
				c-1.23,0.49-2.55,0.8-3.79,1.27c-1.24,0.47-2.4,1.19-3.65,1.64c-1.25,0.46-2.71,0.35-3.97,0.8c-1.25,0.45-2.6,0.63-3.86,1.06
				c-1.25,0.43-2.61,0.57-3.87,0.99c-1.26,0.43-2.59,0.64-3.86,1.05c-1.26,0.41-2.19,1.85-3.46,2.25c-1.27,0.4-2.67,0.37-3.95,0.75
				c-1.27,0.38-2.69,0.27-3.97,0.65c-1.28,0.37-2.4,1.27-3.68,1.63c-1.28,0.35-2.35,1.48-3.64,1.82c-1.28,0.35-2.64,0.48-3.92,0.82
				c-1.29,0.33-2.84-0.34-4.13-0.01c-1.28,0.32-2.33,1.62-3.63,1.93c-1.29,0.31-2.85-0.46-4.15-0.16c-1.29,0.3-2.52,0.98-3.82,1.27
				c-0.12-0.03-0.24-0.05-0.37-0.06c-0.31-0.06-0.62-0.09-0.93-0.11c-0.95-0.07-1.9-0.07-2.84-0.28c-1.36-0.3-2.68-0.72-4.04-1.04
				c-1.35-0.32-2.7-0.66-4.05-0.99c-1.35-0.33-2.72-0.63-4.06-0.97c-1.34-0.35-2.69-0.69-4.03-1.04c-1.34-0.36-2.51-1.33-3.85-1.7
				c-1.34-0.37-2.72-0.58-4.06-0.96c-1.33-0.39-2.57-1.09-3.9-1.49c-1.33-0.4-2.62-0.89-3.95-1.3c-1.32-0.41-2.75-0.48-4.08-0.9
				c-1.31-0.41-2.8-0.28-4.11-0.7c0.18-0.56,0.36-1.24,0.53-2.28c0.52-3.04-1.22-3.12-0.81-6c1.15,0.25,2.41,0.2,3.53,0.56
				c1.32,0.43,2.75,0.49,4.08,0.9c1.32,0.41,2.61,0.9,3.95,1.3c1.33,0.4,2.56,1.11,3.89,1.49c1.34,0.39,2.72,0.59,4.06,0.96
				c1.34,0.37,2.51,1.34,3.85,1.7c1.34,0.35,2.68,0.7,4.04,1.04c1.34,0.35,2.7,0.64,4.05,0.97c1.34,0.33,2.69,0.67,4.05,0.99
				c1.35,0.32,2.68,0.74,4.04,1.04c0.92,0.2,1.87,0.2,2.8,0.27c0.45,0.04,0.9,0.09,1.34,0.18c0.03-0.01,0.06-0.02,0.09-0.02
				c0.02,1.12,0.47,0.64,0.37-0.09c0.3-0.09,0.6-0.2,0.89-0.3c0.82-0.3,1.63-0.66,2.47-0.85c1.3-0.3,2.85,0.47,4.15,0.16
				c1.29-0.31,2.35-1.6,3.63-1.93c1.29-0.33,2.85,0.35,4.13,0.01c1.28-0.33,2.64-0.47,3.92-0.82c1.29-0.35,2.36-1.46,3.64-1.82
				c1.28-0.36,2.4-1.26,3.68-1.63c1.28-0.38,2.69-0.27,3.97-0.65c1.28-0.38,2.68-0.35,3.95-0.75c1.27-0.4,2.2-1.84,3.46-2.25
				c1.27-0.41,2.59-0.62,3.85-1.05c1.26-0.42,2.62-0.56,3.87-0.99c1.25-0.43,2.61-0.62,3.85-1.06c1.26-0.45,2.72-0.34,3.97-0.8
				c1.25-0.45,2.41-1.17,3.65-1.64c1.24-0.47,2.56-0.78,3.79-1.26c1.24-0.48,2.44-1.08,3.67-1.58c1.24-0.49,2.48-0.98,3.71-1.49
				c1.23-0.51,2.46-1.02,3.68-1.54c1.23-0.52,1.77-2.58,2.98-3.12c1.22-0.53,2.66-0.54,3.88-1.08c1.21-0.54,2.42-1.07,3.63-1.63
				c1.21-0.56,2.35-1.24,3.54-1.8c1.21-0.57,2.26-1.42,3.45-2c1.2-0.58,3.12,0.3,4.31-0.29c1.19-0.59,1.77-2.38,2.95-2.99
				c1.18-0.6,3-0.02,4.17-0.63c1.18-0.62,1.54-2.74,2.71-3.37c1.15-0.62,2.59-0.72,3.74-1.32c0.23,0.51,0.41,1.05,0.55,1.63
				c0.72,3.1-0.09,3.29,0.63,6.37C279.9,173.42,279.92,173.5,279.93,173.56z"/>
			<path id="XMLID_5522_" class="st19" d="M236.85,185.4v0.77c-0.04,8.32-0.08,18.08-0.09,27.64v0.83
				c-0.02,4.39-0.04,11.11-0.04,16.18c-0.06,0.04-0.11,0.06-0.19,0.07c-3.63,1.19-3.88,0.62-7.54,1.79
				c-3.65,1.13-3.67,1.11-7.35,2.21c-3.12,0.89-3.5,1.28-5.79,2.02v-6.79c0.08-0.06,0.15-0.13,0.23-0.17
				c-0.08,0.04-0.15,0.07-0.23,0.11c0.02-2.68,0.02-5.32,0.04-7.96v-3.62c0.02-5.58,0.05-11.16,0.08-16.71c0-1.04,0.28-2.28,0-3.11
				c-0.02-0.02-0.02-2.96-0.04-5.56C223.02,190.72,230,188.15,236.85,185.4z"/>
		</g>
	</g>
</g>
<path id="XMLID_152_" class="st23" d="M251.02,62.13c-5.38,1.14-18.5,12.07-18.5,12.07c-0.15,0.09-0.3,0.15-0.45,0.23
	c-0.2-0.6-0.53-1.16-0.98-1.66l0.54-2.9l-1.53,2.03c-0.68-0.46-1.48-0.8-2.38-0.96c-1.06-0.19-2.1-0.11-3.01,0.19l-0.77-2.66
	l-0.62,3.34c-0.67,0.47-1.2,1.09-1.51,1.82c-0.36-0.27-0.56-0.46-0.56-0.46l-8.45-8.8c-8.48-4.95-27.38,8.94-27.38,8.94
	c15.17-2.12,18.43,9.03,18.43,9.03c11.16-5.42,11.12,7.09,11.12,7.09c4.13-1.35,7.17,0.92,9.17,3.5v102.8c0,1.42-0.9,2.69-2.25,3.18
	l-6,2.16v10.91l20.91-7.98l0.04-10.49l-3.71,1.34c-2.23,0.8-4.58-0.83-4.58-3.18v-97.4c3.46-6.03,10.75-6.77,10.75-6.77
	c-1.08-9.62,13.06-7.31,13.06-7.31c-0.66-9.43,14.91-5.16,14.91-5.16C261.44,62.05,251.02,62.13,251.02,62.13z"/>
<path id="XMLID_273_" class="st23" d="M102.31,74.76c-4.19,0.89-14.41,9.4-14.41,9.4c-0.12,0.07-0.23,0.12-0.35,0.18
	c-0.15-0.47-0.41-0.9-0.76-1.29l0.42-2.26l-1.19,1.58c-0.53-0.36-1.16-0.62-1.85-0.75c-0.83-0.15-1.63-0.08-2.34,0.15l-0.6-2.07
	l-0.48,2.6c-0.52,0.37-0.93,0.85-1.17,1.42c-0.28-0.21-0.44-0.36-0.44-0.36l-6.58-6.85c-6.6-3.85-21.32,6.97-21.32,6.97
	c11.81-1.65,14.36,7.03,14.36,7.03c8.69-4.22,8.66,5.52,8.66,5.52c3.21-1.05,5.58,0.72,7.14,2.72v88.2h3.43V99.79
	c2.7-4.7,8.37-5.27,8.37-5.27c-0.84-7.49,10.17-5.69,10.17-5.69c-0.51-7.34,11.61-4.02,11.61-4.02
	C110.42,74.7,102.31,74.76,102.31,74.76z"/>
<path id="XMLID_274_" class="st23" d="M168.14,28.13c-3.6,0.76-12.38,8.08-12.38,8.08c-0.1,0.06-0.2,0.1-0.3,0.16
	c-0.13-0.4-0.35-0.78-0.65-1.11l0.36-1.94l-1.03,1.36c-0.45-0.31-0.99-0.54-1.59-0.65c-0.71-0.13-1.4-0.07-2.02,0.13l-0.51-1.78
	l-0.41,2.23c-0.45,0.31-0.8,0.73-1.01,1.22c-0.24-0.18-0.38-0.31-0.38-0.31l-5.66-5.89c-5.67-3.31-18.32,5.99-18.32,5.99
	c10.15-1.42,12.34,6.04,12.34,6.04c7.47-3.63,7.44,4.74,7.44,4.74c2.76-0.9,4.8,0.61,6.14,2.34v75.79h2.95V49.65
	c2.32-4.04,7.2-4.53,7.2-4.53c-0.72-6.44,8.74-4.89,8.74-4.89c-0.44-6.31,9.98-3.45,9.98-3.45
	C175.11,28.08,168.14,28.13,168.14,28.13z"/>
</svg>
